%TF.GenerationSoftware,KiCad,Pcbnew,9.0.2*%
%TF.CreationDate,2026-09-16T01:01:11+02:00*%
%TF.ProjectId,Stm32,53746d33-322e-46b6-9963-61645f706362,rev?*%
%TF.SameCoordinates,PX42c1d80PY4c4b400*%
%TF.FileFunction,Copper,L4,Bot*%
%TF.FilePolarity,Positive*%
%FSLAX46Y46*%
G04 Gerber Fmt 4.6, Leading zero omitted, Abs format (unit mm)*
G04 Created by KiCad (PCBNEW 9.0.2) date 2026-09-16 01:01:11*
%MOMM*%
%LPD*%
G01*
G04 APERTURE LIST*
G04 Aperture macros list*
%AMRoundRect*
0 Rectangle with rounded corners*
0 $1 Rounding radius*
0 $2 $3 $4 $5 $6 $7 $8 $9 X,Y pos of 4 corners*
0 Add a 4 corners polygon primitive as box body*
4,1,4,$2,$3,$4,$5,$6,$7,$8,$9,$2,$3,0*
0 Add four circle primitives for the rounded corners*
1,1,$1+$1,$2,$3*
1,1,$1+$1,$4,$5*
1,1,$1+$1,$6,$7*
1,1,$1+$1,$8,$9*
0 Add four rect primitives between the rounded corners*
20,1,$1+$1,$2,$3,$4,$5,0*
20,1,$1+$1,$4,$5,$6,$7,0*
20,1,$1+$1,$6,$7,$8,$9,0*
20,1,$1+$1,$8,$9,$2,$3,0*%
G04 Aperture macros list end*
%TA.AperFunction,HeatsinkPad*%
%ADD10O,2.100000X1.000000*%
%TD*%
%TA.AperFunction,HeatsinkPad*%
%ADD11O,1.800000X1.000000*%
%TD*%
%TA.AperFunction,ComponentPad*%
%ADD12C,0.700000*%
%TD*%
%TA.AperFunction,ComponentPad*%
%ADD13C,4.400000*%
%TD*%
%TA.AperFunction,ComponentPad*%
%ADD14RoundRect,0.200000X-0.450000X0.200000X-0.450000X-0.200000X0.450000X-0.200000X0.450000X0.200000X0*%
%TD*%
%TA.AperFunction,ComponentPad*%
%ADD15O,1.300000X0.800000*%
%TD*%
%TA.AperFunction,ViaPad*%
%ADD16C,0.900000*%
%TD*%
%TA.AperFunction,ViaPad*%
%ADD17C,0.700000*%
%TD*%
%TA.AperFunction,ViaPad*%
%ADD18C,0.600000*%
%TD*%
%TA.AperFunction,Conductor*%
%ADD19C,0.190000*%
%TD*%
G04 APERTURE END LIST*
D10*
%TO.P,J1,S1,SHIELD*%
%TO.N,GND*%
X6180000Y22000000D03*
D11*
X2000000Y22000000D03*
D10*
X6180000Y13360000D03*
D11*
X2000000Y13360000D03*
%TD*%
D12*
%TO.P,H1,1,1*%
%TO.N,GND*%
X11550000Y27850000D03*
X12033274Y29016726D03*
X12033274Y26683274D03*
X13200000Y29500000D03*
D13*
X13200000Y27850000D03*
D12*
X13200000Y26200000D03*
X14366726Y29016726D03*
X14366726Y26683274D03*
X14850000Y27850000D03*
%TD*%
%TO.P,H3,1,1*%
%TO.N,GND*%
X48400000Y27850000D03*
X48883274Y29016726D03*
X48883274Y26683274D03*
X50050000Y29500000D03*
D13*
X50050000Y27850000D03*
D12*
X50050000Y26200000D03*
X51216726Y29016726D03*
X51216726Y26683274D03*
X51700000Y27850000D03*
%TD*%
%TO.P,H4,1,1*%
%TO.N,GND*%
X48350000Y2950000D03*
X48833274Y4116726D03*
X48833274Y1783274D03*
X50000000Y4600000D03*
D13*
X50000000Y2950000D03*
D12*
X50000000Y1300000D03*
X51166726Y4116726D03*
X51166726Y1783274D03*
X51650000Y2950000D03*
%TD*%
D14*
%TO.P,J2,1,Pin_1*%
%TO.N,+3V3*%
X5700000Y7875000D03*
D15*
%TO.P,J2,2,Pin_2*%
%TO.N,/UART_TXC*%
X5700000Y6625000D03*
%TO.P,J2,3,Pin_3*%
%TO.N,/UART_RXC*%
X5700000Y5375000D03*
%TO.P,J2,4,Pin_4*%
%TO.N,GND*%
X5700000Y4125000D03*
%TD*%
D12*
%TO.P,H2,1,1*%
%TO.N,GND*%
X11550000Y2950000D03*
X12033274Y4116726D03*
X12033274Y1783274D03*
X13200000Y4600000D03*
D13*
X13200000Y2950000D03*
D12*
X13200000Y1300000D03*
X14366726Y4116726D03*
X14366726Y1783274D03*
X14850000Y2950000D03*
%TD*%
D16*
%TO.N,GND*%
X54000000Y4000000D03*
X46887500Y20887500D03*
X29000000Y1000000D03*
X42000000Y10000000D03*
X17000000Y30000000D03*
D17*
X49300000Y16650000D03*
X29360000Y24750000D03*
X26625000Y25850000D03*
D16*
X23000000Y27000000D03*
D17*
X34648000Y19802000D03*
D16*
X30000000Y5000000D03*
X21000000Y5000000D03*
D17*
X50750000Y22350000D03*
X35664000Y15992000D03*
D16*
X50000000Y10000000D03*
D17*
X33632000Y20564000D03*
X33632000Y15992000D03*
D16*
X41000000Y5000000D03*
X29000000Y30000000D03*
D18*
X33200000Y6200000D03*
D16*
X38000000Y30000000D03*
D17*
X36300000Y24100000D03*
D16*
X20000000Y27000000D03*
X9000000Y13000000D03*
X54000000Y28000000D03*
X16000000Y24000000D03*
X53000000Y30000000D03*
D17*
X29485000Y12600000D03*
X28500000Y16545000D03*
X38990000Y20300000D03*
D16*
X35000000Y1000000D03*
D17*
X35664000Y18024000D03*
D16*
X47000000Y7000000D03*
X1000000Y16000000D03*
X41000000Y28000000D03*
X18000000Y1000000D03*
D17*
X29410000Y23500000D03*
D16*
X9000000Y25000000D03*
X42000000Y24000000D03*
X8000000Y9000000D03*
D17*
X35664000Y20564000D03*
D16*
X4000000Y1000000D03*
X41000000Y30000000D03*
X44000000Y30000000D03*
X44000000Y22000000D03*
X1000000Y25000000D03*
X46900000Y18300000D03*
X17000000Y14000000D03*
D17*
X40750000Y17660000D03*
X28000000Y10911001D03*
D16*
X21000000Y1000000D03*
X10000000Y22000000D03*
D17*
X39650000Y26200000D03*
D16*
X47000000Y30000000D03*
X38000000Y28000000D03*
D17*
X32362000Y19802000D03*
D16*
X32000000Y30000000D03*
X26000000Y30000000D03*
X44000000Y5000000D03*
X54000000Y16000000D03*
D17*
X52050000Y22350000D03*
D16*
X41000000Y1000000D03*
X17000000Y27000000D03*
D17*
X31346000Y15992000D03*
D16*
X1000000Y6000000D03*
X1000000Y3000000D03*
X47000000Y1000000D03*
X18000000Y5000000D03*
X46000000Y24000000D03*
X20000000Y10000000D03*
X54000000Y24000000D03*
D17*
X36250000Y25100000D03*
X52100000Y16600000D03*
X32650000Y12610000D03*
D16*
X54000000Y12000000D03*
X1000000Y28000000D03*
X7000000Y1000000D03*
D17*
X50800000Y16650000D03*
D16*
X38000000Y1000000D03*
D17*
X34648000Y16754000D03*
D16*
X50000000Y13000000D03*
D17*
X37490000Y4550000D03*
D16*
X23000000Y30000000D03*
X54000000Y8000000D03*
D17*
X49500000Y22350000D03*
X12150000Y12800000D03*
X35950000Y12310000D03*
D16*
X35000000Y30000000D03*
X44000000Y1000000D03*
D17*
X44250000Y17710000D03*
D18*
X30500000Y9700000D03*
D16*
X54000000Y20000000D03*
X53000000Y1000000D03*
X32000000Y1000000D03*
D17*
X27950000Y26850000D03*
D16*
X7000000Y30000000D03*
X1000000Y10000000D03*
X10000000Y30000000D03*
D17*
X38400000Y15800000D03*
D16*
X38000000Y9000000D03*
X23000000Y13000000D03*
X11000000Y9000000D03*
D17*
X32362000Y16754000D03*
D16*
X10000000Y1000000D03*
X42000000Y16000000D03*
X46000000Y13000000D03*
D17*
X27450000Y16500000D03*
X16750000Y11100000D03*
D16*
X1000000Y19000000D03*
X25000000Y1000000D03*
X20000000Y30000000D03*
D17*
X11400000Y17000000D03*
X27500000Y19790000D03*
X31346000Y20564000D03*
D16*
X15000000Y21000000D03*
X3000000Y30000000D03*
D17*
X31346000Y18024000D03*
D16*
X7000000Y28000000D03*
D17*
X37700000Y22500000D03*
D16*
X45000000Y10000000D03*
D17*
%TO.N,+3V3*%
X21500000Y21200000D03*
X24000000Y2700000D03*
X28400000Y19900000D03*
X38995000Y21200000D03*
X29200000Y27650000D03*
X28500000Y13800000D03*
X25300000Y11625000D03*
X35000000Y12200000D03*
X30475000Y27650000D03*
X24000000Y6300000D03*
X24000000Y4500000D03*
X25500000Y13100000D03*
X39400000Y17700000D03*
X27000000Y13800000D03*
D18*
X16700000Y7300000D03*
%TO.N,/Boot0*%
X34850000Y7050000D03*
X31800000Y9695000D03*
%TD*%
D19*
%TO.N,/Boot0*%
X31800000Y8100000D02*
X32650000Y7250000D01*
X32650000Y7250000D02*
X34650000Y7250000D01*
X34650000Y7250000D02*
X34850000Y7050000D01*
X31800000Y9695000D02*
X31800000Y8100000D01*
%TD*%
%TA.AperFunction,Conductor*%
%TO.N,+3V3*%
G36*
X6511807Y30677826D02*
G01*
X6533481Y30625500D01*
X6511807Y30573174D01*
X6417050Y30478417D01*
X6417048Y30478416D01*
X6334915Y30355495D01*
X6278343Y30218918D01*
X6278340Y30218908D01*
X6256238Y30107790D01*
X6249500Y30073918D01*
X6249500Y29926082D01*
X6259026Y29878189D01*
X6278340Y29781093D01*
X6278343Y29781083D01*
X6334915Y29644506D01*
X6334916Y29644505D01*
X6417049Y29521584D01*
X6521584Y29417049D01*
X6644505Y29334916D01*
X6781087Y29278342D01*
X6926082Y29249500D01*
X6926084Y29249500D01*
X7073916Y29249500D01*
X7073918Y29249500D01*
X7218913Y29278342D01*
X7355495Y29334916D01*
X7478416Y29417049D01*
X7582951Y29521584D01*
X7665084Y29644505D01*
X7721658Y29781087D01*
X7750500Y29926082D01*
X7750500Y30073918D01*
X7721658Y30218913D01*
X7665084Y30355495D01*
X7582951Y30478416D01*
X7488193Y30573174D01*
X7466519Y30625500D01*
X7488193Y30677826D01*
X7540519Y30699500D01*
X9459481Y30699500D01*
X9511807Y30677826D01*
X9533481Y30625500D01*
X9511807Y30573174D01*
X9417050Y30478417D01*
X9417048Y30478416D01*
X9334915Y30355495D01*
X9278343Y30218918D01*
X9278340Y30218908D01*
X9256238Y30107790D01*
X9249500Y30073918D01*
X9249500Y29926082D01*
X9259026Y29878189D01*
X9278340Y29781093D01*
X9278343Y29781083D01*
X9334915Y29644506D01*
X9334916Y29644505D01*
X9417049Y29521584D01*
X9521584Y29417049D01*
X9644505Y29334916D01*
X9781087Y29278342D01*
X9926082Y29249500D01*
X9926084Y29249500D01*
X10073916Y29249500D01*
X10073918Y29249500D01*
X10218913Y29278342D01*
X10355495Y29334916D01*
X10478416Y29417049D01*
X10582951Y29521584D01*
X10665084Y29644505D01*
X10721658Y29781087D01*
X10750500Y29926082D01*
X10750500Y30073918D01*
X10721658Y30218913D01*
X10665084Y30355495D01*
X10582951Y30478416D01*
X10488193Y30573174D01*
X10466519Y30625500D01*
X10488193Y30677826D01*
X10540519Y30699500D01*
X16459481Y30699500D01*
X16511807Y30677826D01*
X16533481Y30625500D01*
X16511807Y30573174D01*
X16417050Y30478417D01*
X16417048Y30478416D01*
X16334915Y30355495D01*
X16278343Y30218918D01*
X16278340Y30218908D01*
X16256238Y30107790D01*
X16249500Y30073918D01*
X16249500Y29926082D01*
X16259026Y29878189D01*
X16278340Y29781093D01*
X16278343Y29781083D01*
X16334915Y29644506D01*
X16334916Y29644505D01*
X16417049Y29521584D01*
X16521584Y29417049D01*
X16644505Y29334916D01*
X16781087Y29278342D01*
X16926082Y29249500D01*
X16926084Y29249500D01*
X17073916Y29249500D01*
X17073918Y29249500D01*
X17218913Y29278342D01*
X17355495Y29334916D01*
X17478416Y29417049D01*
X17582951Y29521584D01*
X17665084Y29644505D01*
X17721658Y29781087D01*
X17750500Y29926082D01*
X17750500Y30073918D01*
X17721658Y30218913D01*
X17665084Y30355495D01*
X17582951Y30478416D01*
X17488193Y30573174D01*
X17466519Y30625500D01*
X17488193Y30677826D01*
X17540519Y30699500D01*
X19459481Y30699500D01*
X19511807Y30677826D01*
X19533481Y30625500D01*
X19511807Y30573174D01*
X19417050Y30478417D01*
X19417048Y30478416D01*
X19334915Y30355495D01*
X19278343Y30218918D01*
X19278340Y30218908D01*
X19256238Y30107790D01*
X19249500Y30073918D01*
X19249500Y29926082D01*
X19259026Y29878189D01*
X19278340Y29781093D01*
X19278343Y29781083D01*
X19334915Y29644506D01*
X19334916Y29644505D01*
X19417049Y29521584D01*
X19521584Y29417049D01*
X19644505Y29334916D01*
X19781087Y29278342D01*
X19926082Y29249500D01*
X19926084Y29249500D01*
X20073916Y29249500D01*
X20073918Y29249500D01*
X20218913Y29278342D01*
X20355495Y29334916D01*
X20478416Y29417049D01*
X20582951Y29521584D01*
X20665084Y29644505D01*
X20721658Y29781087D01*
X20750500Y29926082D01*
X20750500Y30073918D01*
X20721658Y30218913D01*
X20665084Y30355495D01*
X20582951Y30478416D01*
X20488193Y30573174D01*
X20466519Y30625500D01*
X20488193Y30677826D01*
X20540519Y30699500D01*
X21960438Y30699500D01*
X22459481Y30699500D01*
X22511807Y30677826D01*
X22533481Y30625500D01*
X22511807Y30573174D01*
X22417050Y30478417D01*
X22417048Y30478416D01*
X22334915Y30355495D01*
X22278343Y30218918D01*
X22278340Y30218908D01*
X22256238Y30107790D01*
X22249500Y30073918D01*
X22249500Y29926082D01*
X22259026Y29878189D01*
X22278340Y29781093D01*
X22278343Y29781083D01*
X22334915Y29644506D01*
X22334916Y29644505D01*
X22417049Y29521584D01*
X22521584Y29417049D01*
X22644505Y29334916D01*
X22781087Y29278342D01*
X22926082Y29249500D01*
X22926084Y29249500D01*
X23073916Y29249500D01*
X23073918Y29249500D01*
X23218913Y29278342D01*
X23355495Y29334916D01*
X23478416Y29417049D01*
X23582951Y29521584D01*
X23665084Y29644505D01*
X23721658Y29781087D01*
X23750500Y29926082D01*
X23750500Y30073918D01*
X23721658Y30218913D01*
X23665084Y30355495D01*
X23582951Y30478416D01*
X23488193Y30573174D01*
X23466519Y30625500D01*
X23488193Y30677826D01*
X23540519Y30699500D01*
X25459481Y30699500D01*
X25511807Y30677826D01*
X25533481Y30625500D01*
X25511807Y30573174D01*
X25417050Y30478417D01*
X25417048Y30478416D01*
X25334915Y30355495D01*
X25278343Y30218918D01*
X25278340Y30218908D01*
X25256238Y30107790D01*
X25249500Y30073918D01*
X25249500Y29926082D01*
X25259026Y29878189D01*
X25278340Y29781093D01*
X25278343Y29781083D01*
X25334915Y29644506D01*
X25334916Y29644505D01*
X25417049Y29521584D01*
X25521584Y29417049D01*
X25644505Y29334916D01*
X25781087Y29278342D01*
X25926082Y29249500D01*
X25926084Y29249500D01*
X26073916Y29249500D01*
X26073918Y29249500D01*
X26218913Y29278342D01*
X26355495Y29334916D01*
X26478416Y29417049D01*
X26582951Y29521584D01*
X26665084Y29644505D01*
X26721658Y29781087D01*
X26750500Y29926082D01*
X26750500Y30073918D01*
X26721658Y30218913D01*
X26665084Y30355495D01*
X26582951Y30478416D01*
X26488193Y30573174D01*
X26466519Y30625500D01*
X26488193Y30677826D01*
X26540519Y30699500D01*
X28459481Y30699500D01*
X28511807Y30677826D01*
X28533481Y30625500D01*
X28511807Y30573174D01*
X28417050Y30478417D01*
X28417048Y30478416D01*
X28334915Y30355495D01*
X28278343Y30218918D01*
X28278340Y30218908D01*
X28256238Y30107790D01*
X28249500Y30073918D01*
X28249500Y29926082D01*
X28259026Y29878189D01*
X28278340Y29781093D01*
X28278343Y29781083D01*
X28334915Y29644506D01*
X28334916Y29644505D01*
X28417049Y29521584D01*
X28521584Y29417049D01*
X28644505Y29334916D01*
X28781087Y29278342D01*
X28926082Y29249500D01*
X28926084Y29249500D01*
X29073916Y29249500D01*
X29073918Y29249500D01*
X29218913Y29278342D01*
X29355495Y29334916D01*
X29478416Y29417049D01*
X29582951Y29521584D01*
X29665084Y29644505D01*
X29721658Y29781087D01*
X29750500Y29926082D01*
X29750500Y30073918D01*
X29721658Y30218913D01*
X29665084Y30355495D01*
X29582951Y30478416D01*
X29488193Y30573174D01*
X29466519Y30625500D01*
X29488193Y30677826D01*
X29540519Y30699500D01*
X31459481Y30699500D01*
X31511807Y30677826D01*
X31533481Y30625500D01*
X31511807Y30573174D01*
X31417050Y30478417D01*
X31417048Y30478416D01*
X31334915Y30355495D01*
X31278343Y30218918D01*
X31278340Y30218908D01*
X31256238Y30107790D01*
X31249500Y30073918D01*
X31249500Y29926082D01*
X31259026Y29878189D01*
X31278340Y29781093D01*
X31278343Y29781083D01*
X31334915Y29644506D01*
X31334916Y29644505D01*
X31417049Y29521584D01*
X31521584Y29417049D01*
X31644505Y29334916D01*
X31781087Y29278342D01*
X31926082Y29249500D01*
X31926084Y29249500D01*
X32073916Y29249500D01*
X32073918Y29249500D01*
X32218913Y29278342D01*
X32355495Y29334916D01*
X32478416Y29417049D01*
X32582951Y29521584D01*
X32665084Y29644505D01*
X32721658Y29781087D01*
X32750500Y29926082D01*
X32750500Y30073918D01*
X32721658Y30218913D01*
X32665084Y30355495D01*
X32582951Y30478416D01*
X32488193Y30573174D01*
X32466519Y30625500D01*
X32488193Y30677826D01*
X32540519Y30699500D01*
X34459481Y30699500D01*
X34511807Y30677826D01*
X34533481Y30625500D01*
X34511807Y30573174D01*
X34417050Y30478417D01*
X34417048Y30478416D01*
X34334915Y30355495D01*
X34278343Y30218918D01*
X34278340Y30218908D01*
X34256238Y30107790D01*
X34249500Y30073918D01*
X34249500Y29926082D01*
X34259026Y29878189D01*
X34278340Y29781093D01*
X34278343Y29781083D01*
X34334915Y29644506D01*
X34334916Y29644505D01*
X34417049Y29521584D01*
X34521584Y29417049D01*
X34644505Y29334916D01*
X34781087Y29278342D01*
X34926082Y29249500D01*
X34926084Y29249500D01*
X35073916Y29249500D01*
X35073918Y29249500D01*
X35218913Y29278342D01*
X35355495Y29334916D01*
X35478416Y29417049D01*
X35582951Y29521584D01*
X35665084Y29644505D01*
X35721658Y29781087D01*
X35750500Y29926082D01*
X35750500Y30073918D01*
X35721658Y30218913D01*
X35665084Y30355495D01*
X35582951Y30478416D01*
X35488193Y30573174D01*
X35466519Y30625500D01*
X35488193Y30677826D01*
X35540519Y30699500D01*
X37459481Y30699500D01*
X37511807Y30677826D01*
X37533481Y30625500D01*
X37511807Y30573174D01*
X37417050Y30478417D01*
X37417048Y30478416D01*
X37334915Y30355495D01*
X37278343Y30218918D01*
X37278340Y30218908D01*
X37256238Y30107790D01*
X37249500Y30073918D01*
X37249500Y29926082D01*
X37259026Y29878189D01*
X37278340Y29781093D01*
X37278343Y29781083D01*
X37334915Y29644506D01*
X37334916Y29644505D01*
X37417049Y29521584D01*
X37521584Y29417049D01*
X37644505Y29334916D01*
X37781087Y29278342D01*
X37926082Y29249500D01*
X37926084Y29249500D01*
X38073916Y29249500D01*
X38073918Y29249500D01*
X38218913Y29278342D01*
X38355495Y29334916D01*
X38478416Y29417049D01*
X38582951Y29521584D01*
X38665084Y29644505D01*
X38721658Y29781087D01*
X38750500Y29926082D01*
X38750500Y30073918D01*
X38721658Y30218913D01*
X38665084Y30355495D01*
X38582951Y30478416D01*
X38488193Y30573174D01*
X38466519Y30625500D01*
X38488193Y30677826D01*
X38540519Y30699500D01*
X40459481Y30699500D01*
X40511807Y30677826D01*
X40533481Y30625500D01*
X40511807Y30573174D01*
X40417050Y30478417D01*
X40417048Y30478416D01*
X40334915Y30355495D01*
X40278343Y30218918D01*
X40278340Y30218908D01*
X40256238Y30107790D01*
X40249500Y30073918D01*
X40249500Y29926082D01*
X40259026Y29878189D01*
X40278340Y29781093D01*
X40278343Y29781083D01*
X40334915Y29644506D01*
X40334916Y29644505D01*
X40417049Y29521584D01*
X40521584Y29417049D01*
X40644505Y29334916D01*
X40781087Y29278342D01*
X40926082Y29249500D01*
X40926084Y29249500D01*
X41073916Y29249500D01*
X41073918Y29249500D01*
X41218913Y29278342D01*
X41355495Y29334916D01*
X41478416Y29417049D01*
X41582951Y29521584D01*
X41665084Y29644505D01*
X41721658Y29781087D01*
X41750500Y29926082D01*
X41750500Y30073918D01*
X41721658Y30218913D01*
X41665084Y30355495D01*
X41582951Y30478416D01*
X41488193Y30573174D01*
X41466519Y30625500D01*
X41488193Y30677826D01*
X41540519Y30699500D01*
X43459481Y30699500D01*
X43511807Y30677826D01*
X43533481Y30625500D01*
X43511807Y30573174D01*
X43417050Y30478417D01*
X43417048Y30478416D01*
X43334915Y30355495D01*
X43278343Y30218918D01*
X43278340Y30218908D01*
X43256238Y30107790D01*
X43249500Y30073918D01*
X43249500Y29926082D01*
X43259026Y29878189D01*
X43278340Y29781093D01*
X43278343Y29781083D01*
X43334915Y29644506D01*
X43334916Y29644505D01*
X43417049Y29521584D01*
X43521584Y29417049D01*
X43644505Y29334916D01*
X43781087Y29278342D01*
X43926082Y29249500D01*
X43926084Y29249500D01*
X44073916Y29249500D01*
X44073918Y29249500D01*
X44218913Y29278342D01*
X44355495Y29334916D01*
X44478416Y29417049D01*
X44582951Y29521584D01*
X44665084Y29644505D01*
X44721658Y29781087D01*
X44750500Y29926082D01*
X44750500Y30073918D01*
X44721658Y30218913D01*
X44665084Y30355495D01*
X44582951Y30478416D01*
X44488193Y30573174D01*
X44466519Y30625500D01*
X44488193Y30677826D01*
X44540519Y30699500D01*
X46459481Y30699500D01*
X46511807Y30677826D01*
X46533481Y30625500D01*
X46511807Y30573174D01*
X46417050Y30478417D01*
X46417048Y30478416D01*
X46334915Y30355495D01*
X46278343Y30218918D01*
X46278340Y30218908D01*
X46256238Y30107790D01*
X46249500Y30073918D01*
X46249500Y29926082D01*
X46259026Y29878189D01*
X46278340Y29781093D01*
X46278343Y29781083D01*
X46334915Y29644506D01*
X46334916Y29644505D01*
X46417049Y29521584D01*
X46521584Y29417049D01*
X46644505Y29334916D01*
X46781087Y29278342D01*
X46926082Y29249500D01*
X46926084Y29249500D01*
X47073916Y29249500D01*
X47073918Y29249500D01*
X47218913Y29278342D01*
X47355495Y29334916D01*
X47478416Y29417049D01*
X47582951Y29521584D01*
X47665084Y29644505D01*
X47721658Y29781087D01*
X47750500Y29926082D01*
X47750500Y30073918D01*
X47721658Y30218913D01*
X47665084Y30355495D01*
X47582951Y30478416D01*
X47488193Y30573174D01*
X47466519Y30625500D01*
X47488193Y30677826D01*
X47540519Y30699500D01*
X51952405Y30699500D01*
X51997917Y30699500D01*
X52002065Y30699385D01*
X52298112Y30682759D01*
X52306329Y30681833D01*
X52433629Y30660204D01*
X52481582Y30630073D01*
X52494186Y30574856D01*
X52473557Y30534926D01*
X52417054Y30478423D01*
X52417048Y30478416D01*
X52334915Y30355495D01*
X52278343Y30218918D01*
X52278340Y30218908D01*
X52256238Y30107790D01*
X52249500Y30073918D01*
X52249500Y29926082D01*
X52259026Y29878189D01*
X52278340Y29781093D01*
X52278343Y29781083D01*
X52334915Y29644506D01*
X52334916Y29644505D01*
X52417049Y29521584D01*
X52521584Y29417049D01*
X52644505Y29334916D01*
X52781087Y29278342D01*
X52926082Y29249500D01*
X52926084Y29249500D01*
X53073916Y29249500D01*
X53073918Y29249500D01*
X53218913Y29278342D01*
X53355495Y29334916D01*
X53478416Y29417049D01*
X53582951Y29521584D01*
X53665084Y29644505D01*
X53721658Y29781087D01*
X53746207Y29904505D01*
X53757120Y29920836D01*
X53763608Y29939376D01*
X53772307Y29943566D01*
X53777673Y29951595D01*
X53796937Y29955427D01*
X53814636Y29963950D01*
X53823751Y29960761D01*
X53833222Y29962644D01*
X53868093Y29945244D01*
X53889536Y29926082D01*
X53905731Y29911609D01*
X53911599Y29905742D01*
X54107789Y29686205D01*
X54112962Y29679717D01*
X54283324Y29439615D01*
X54287740Y29432588D01*
X54430155Y29174905D01*
X54433755Y29167429D01*
X54546422Y28895429D01*
X54549163Y28887596D01*
X54621660Y28635953D01*
X54615319Y28579672D01*
X54571038Y28544359D01*
X54514757Y28550700D01*
X54498226Y28563141D01*
X54478415Y28582952D01*
X54355494Y28665085D01*
X54218917Y28721657D01*
X54218907Y28721660D01*
X54121811Y28740974D01*
X54073918Y28750500D01*
X53926082Y28750500D01*
X53884977Y28742324D01*
X53781092Y28721660D01*
X53781082Y28721657D01*
X53644505Y28665085D01*
X53521584Y28582952D01*
X53521583Y28582950D01*
X53417050Y28478417D01*
X53417048Y28478416D01*
X53334915Y28355495D01*
X53278343Y28218918D01*
X53278340Y28218908D01*
X53249500Y28073917D01*
X53249500Y27926084D01*
X53278340Y27781093D01*
X53278343Y27781083D01*
X53334915Y27644506D01*
X53409100Y27533481D01*
X53417049Y27521584D01*
X53521584Y27417049D01*
X53644505Y27334916D01*
X53781087Y27278342D01*
X53926082Y27249500D01*
X53926084Y27249500D01*
X54073916Y27249500D01*
X54073918Y27249500D01*
X54218913Y27278342D01*
X54355495Y27334916D01*
X54478416Y27417049D01*
X54573174Y27511807D01*
X54625500Y27533481D01*
X54677826Y27511807D01*
X54699500Y27459481D01*
X54699500Y24540519D01*
X54677826Y24488193D01*
X54625500Y24466519D01*
X54573174Y24488193D01*
X54478415Y24582952D01*
X54355494Y24665085D01*
X54218917Y24721657D01*
X54218907Y24721660D01*
X54121811Y24740974D01*
X54073918Y24750500D01*
X53926082Y24750500D01*
X53899066Y24745126D01*
X53781092Y24721660D01*
X53781082Y24721657D01*
X53644505Y24665085D01*
X53521584Y24582952D01*
X53521583Y24582950D01*
X53417050Y24478417D01*
X53417048Y24478416D01*
X53334915Y24355495D01*
X53278343Y24218918D01*
X53278340Y24218908D01*
X53254263Y24097865D01*
X53249500Y24073918D01*
X53249500Y23926082D01*
X53252647Y23910261D01*
X53278340Y23781093D01*
X53278343Y23781083D01*
X53334915Y23644506D01*
X53417048Y23521585D01*
X53521584Y23417049D01*
X53644505Y23334916D01*
X53704027Y23310261D01*
X53781087Y23278342D01*
X53926082Y23249500D01*
X53926084Y23249500D01*
X54073916Y23249500D01*
X54073918Y23249500D01*
X54218913Y23278342D01*
X54355495Y23334916D01*
X54478416Y23417049D01*
X54573174Y23511807D01*
X54625500Y23533481D01*
X54677826Y23511807D01*
X54699500Y23459481D01*
X54699500Y20540519D01*
X54677826Y20488193D01*
X54625500Y20466519D01*
X54573174Y20488193D01*
X54478415Y20582952D01*
X54355494Y20665085D01*
X54218917Y20721657D01*
X54218907Y20721660D01*
X54121811Y20740974D01*
X54073918Y20750500D01*
X53926082Y20750500D01*
X53884977Y20742324D01*
X53781092Y20721660D01*
X53781082Y20721657D01*
X53644505Y20665085D01*
X53521584Y20582952D01*
X53521583Y20582950D01*
X53417050Y20478417D01*
X53417048Y20478416D01*
X53334915Y20355495D01*
X53278343Y20218918D01*
X53278340Y20218908D01*
X53249500Y20073917D01*
X53249500Y19926084D01*
X53278340Y19781093D01*
X53278343Y19781083D01*
X53334915Y19644506D01*
X53409100Y19533481D01*
X53417049Y19521584D01*
X53521584Y19417049D01*
X53644505Y19334916D01*
X53781087Y19278342D01*
X53926082Y19249500D01*
X53926084Y19249500D01*
X54073916Y19249500D01*
X54073918Y19249500D01*
X54218913Y19278342D01*
X54355495Y19334916D01*
X54478416Y19417049D01*
X54573174Y19511807D01*
X54625500Y19533481D01*
X54677826Y19511807D01*
X54699500Y19459481D01*
X54699500Y16540519D01*
X54677826Y16488193D01*
X54625500Y16466519D01*
X54573174Y16488193D01*
X54478415Y16582952D01*
X54355494Y16665085D01*
X54218917Y16721657D01*
X54218907Y16721660D01*
X54121811Y16740974D01*
X54073918Y16750500D01*
X53926082Y16750500D01*
X53884977Y16742324D01*
X53781092Y16721660D01*
X53781082Y16721657D01*
X53644505Y16665085D01*
X53521584Y16582952D01*
X53521583Y16582950D01*
X53417050Y16478417D01*
X53417048Y16478416D01*
X53334915Y16355495D01*
X53278343Y16218918D01*
X53278340Y16218908D01*
X53260721Y16130330D01*
X53249500Y16073918D01*
X53249500Y15926082D01*
X53250810Y15919498D01*
X53278340Y15781093D01*
X53278343Y15781083D01*
X53334915Y15644506D01*
X53409100Y15533481D01*
X53417049Y15521584D01*
X53521584Y15417049D01*
X53644505Y15334916D01*
X53781087Y15278342D01*
X53926082Y15249500D01*
X53926084Y15249500D01*
X54073916Y15249500D01*
X54073918Y15249500D01*
X54218913Y15278342D01*
X54355495Y15334916D01*
X54478416Y15417049D01*
X54573174Y15511807D01*
X54625500Y15533481D01*
X54677826Y15511807D01*
X54699500Y15459481D01*
X54699500Y12540519D01*
X54677826Y12488193D01*
X54625500Y12466519D01*
X54573174Y12488193D01*
X54478415Y12582952D01*
X54355494Y12665085D01*
X54218917Y12721657D01*
X54218907Y12721660D01*
X54121811Y12740974D01*
X54073918Y12750500D01*
X53926082Y12750500D01*
X53884977Y12742324D01*
X53781092Y12721660D01*
X53781082Y12721657D01*
X53644505Y12665085D01*
X53521584Y12582952D01*
X53521583Y12582950D01*
X53417050Y12478417D01*
X53417048Y12478416D01*
X53334915Y12355495D01*
X53278343Y12218918D01*
X53278340Y12218908D01*
X53249500Y12073917D01*
X53249500Y11926084D01*
X53278340Y11781093D01*
X53278343Y11781083D01*
X53334915Y11644506D01*
X53409100Y11533481D01*
X53417049Y11521584D01*
X53521584Y11417049D01*
X53644505Y11334916D01*
X53781087Y11278342D01*
X53926082Y11249500D01*
X53926084Y11249500D01*
X54073916Y11249500D01*
X54073918Y11249500D01*
X54218913Y11278342D01*
X54355495Y11334916D01*
X54478416Y11417049D01*
X54573174Y11511807D01*
X54625500Y11533481D01*
X54677826Y11511807D01*
X54699500Y11459481D01*
X54699500Y8540519D01*
X54677826Y8488193D01*
X54625500Y8466519D01*
X54573174Y8488193D01*
X54478415Y8582952D01*
X54355494Y8665085D01*
X54218917Y8721657D01*
X54218907Y8721660D01*
X54121811Y8740974D01*
X54073918Y8750500D01*
X53926082Y8750500D01*
X53884977Y8742324D01*
X53781092Y8721660D01*
X53781082Y8721657D01*
X53644505Y8665085D01*
X53521584Y8582952D01*
X53521583Y8582950D01*
X53417050Y8478417D01*
X53417048Y8478416D01*
X53334915Y8355495D01*
X53278343Y8218918D01*
X53278340Y8218908D01*
X53259661Y8125000D01*
X53249500Y8073918D01*
X53249500Y7926082D01*
X53259026Y7878189D01*
X53278340Y7781093D01*
X53278343Y7781083D01*
X53334915Y7644506D01*
X53409100Y7533481D01*
X53417049Y7521584D01*
X53521584Y7417049D01*
X53644505Y7334916D01*
X53781087Y7278342D01*
X53926082Y7249500D01*
X53926084Y7249500D01*
X54073916Y7249500D01*
X54073918Y7249500D01*
X54218913Y7278342D01*
X54355495Y7334916D01*
X54478416Y7417049D01*
X54573174Y7511807D01*
X54625500Y7533481D01*
X54677826Y7511807D01*
X54699500Y7459481D01*
X54699500Y4540519D01*
X54677826Y4488193D01*
X54625500Y4466519D01*
X54573174Y4488193D01*
X54478415Y4582952D01*
X54355494Y4665085D01*
X54218917Y4721657D01*
X54218907Y4721660D01*
X54121811Y4740974D01*
X54073918Y4750500D01*
X53926082Y4750500D01*
X53884977Y4742324D01*
X53781092Y4721660D01*
X53781082Y4721657D01*
X53644505Y4665085D01*
X53521584Y4582952D01*
X53521583Y4582950D01*
X53417050Y4478417D01*
X53417048Y4478416D01*
X53334915Y4355495D01*
X53278343Y4218918D01*
X53278340Y4218908D01*
X53249500Y4073917D01*
X53249500Y3926084D01*
X53278340Y3781093D01*
X53278343Y3781083D01*
X53334915Y3644506D01*
X53409100Y3533481D01*
X53417049Y3521584D01*
X53521584Y3417049D01*
X53644505Y3334916D01*
X53781087Y3278342D01*
X53926082Y3249500D01*
X53926084Y3249500D01*
X54073916Y3249500D01*
X54073918Y3249500D01*
X54218913Y3278342D01*
X54355495Y3334916D01*
X54478416Y3417049D01*
X54573174Y3511807D01*
X54625500Y3533481D01*
X54677826Y3511807D01*
X54699500Y3459481D01*
X54699500Y3002084D01*
X54699384Y2997935D01*
X54682758Y2701894D01*
X54681828Y2693648D01*
X54632515Y2403409D01*
X54630669Y2395318D01*
X54549163Y2112405D01*
X54546422Y2104572D01*
X54433755Y1832572D01*
X54430155Y1825096D01*
X54287740Y1567413D01*
X54283324Y1560386D01*
X54112962Y1320284D01*
X54107789Y1313796D01*
X53911600Y1094260D01*
X53905732Y1088393D01*
X53868095Y1054758D01*
X53814636Y1036051D01*
X53763608Y1060625D01*
X53746207Y1095498D01*
X53721659Y1218908D01*
X53721658Y1218909D01*
X53721658Y1218913D01*
X53665084Y1355495D01*
X53582951Y1478416D01*
X53478416Y1582951D01*
X53355495Y1665084D01*
X53355496Y1665084D01*
X53355494Y1665085D01*
X53218917Y1721657D01*
X53218907Y1721660D01*
X53121811Y1740974D01*
X53073918Y1750500D01*
X52926082Y1750500D01*
X52884977Y1742324D01*
X52781092Y1721660D01*
X52781082Y1721657D01*
X52644505Y1665085D01*
X52521584Y1582952D01*
X52521583Y1582950D01*
X52417050Y1478417D01*
X52417048Y1478416D01*
X52334915Y1355495D01*
X52278343Y1218918D01*
X52278340Y1218908D01*
X52254263Y1097865D01*
X52249500Y1073918D01*
X52249500Y926082D01*
X52253201Y907478D01*
X52278340Y781093D01*
X52278343Y781083D01*
X52334915Y644506D01*
X52417048Y521585D01*
X52473556Y465077D01*
X52482186Y444243D01*
X52494184Y425147D01*
X52492731Y418783D01*
X52495230Y412751D01*
X52486599Y391917D01*
X52481582Y369929D01*
X52476053Y366456D01*
X52473556Y360425D01*
X52433626Y339797D01*
X52306352Y318172D01*
X52298105Y317242D01*
X52002066Y300616D01*
X51997917Y300500D01*
X47540519Y300500D01*
X47488193Y322174D01*
X47466519Y374500D01*
X47488193Y426826D01*
X47582950Y521583D01*
X47582951Y521584D01*
X47665084Y644505D01*
X47721658Y781087D01*
X47750500Y926082D01*
X47750500Y1073918D01*
X47721658Y1218913D01*
X47665084Y1355495D01*
X47582951Y1478416D01*
X47478416Y1582951D01*
X47355495Y1665084D01*
X47355496Y1665084D01*
X47355494Y1665085D01*
X47218917Y1721657D01*
X47218907Y1721660D01*
X47121811Y1740974D01*
X47073918Y1750500D01*
X46926082Y1750500D01*
X46884977Y1742324D01*
X46781092Y1721660D01*
X46781082Y1721657D01*
X46644505Y1665085D01*
X46521584Y1582952D01*
X46521583Y1582950D01*
X46417050Y1478417D01*
X46417048Y1478416D01*
X46334915Y1355495D01*
X46278343Y1218918D01*
X46278340Y1218908D01*
X46254263Y1097865D01*
X46249500Y1073918D01*
X46249500Y926082D01*
X46253201Y907478D01*
X46278340Y781093D01*
X46278343Y781083D01*
X46334915Y644506D01*
X46417048Y521585D01*
X46511807Y426826D01*
X46533481Y374500D01*
X46511807Y322174D01*
X46459481Y300500D01*
X44540519Y300500D01*
X44488193Y322174D01*
X44466519Y374500D01*
X44488193Y426826D01*
X44582950Y521583D01*
X44582951Y521584D01*
X44665084Y644505D01*
X44721658Y781087D01*
X44750500Y926082D01*
X44750500Y1073918D01*
X44721658Y1218913D01*
X44665084Y1355495D01*
X44582951Y1478416D01*
X44478416Y1582951D01*
X44355495Y1665084D01*
X44355496Y1665084D01*
X44355494Y1665085D01*
X44218917Y1721657D01*
X44218907Y1721660D01*
X44121811Y1740974D01*
X44073918Y1750500D01*
X43926082Y1750500D01*
X43884977Y1742324D01*
X43781092Y1721660D01*
X43781082Y1721657D01*
X43644505Y1665085D01*
X43521584Y1582952D01*
X43521583Y1582950D01*
X43417050Y1478417D01*
X43417048Y1478416D01*
X43334915Y1355495D01*
X43278343Y1218918D01*
X43278340Y1218908D01*
X43254263Y1097865D01*
X43249500Y1073918D01*
X43249500Y926082D01*
X43253201Y907478D01*
X43278340Y781093D01*
X43278343Y781083D01*
X43334915Y644506D01*
X43417048Y521585D01*
X43511807Y426826D01*
X43533481Y374500D01*
X43511807Y322174D01*
X43459481Y300500D01*
X41540519Y300500D01*
X41488193Y322174D01*
X41466519Y374500D01*
X41488193Y426826D01*
X41582950Y521583D01*
X41582951Y521584D01*
X41665084Y644505D01*
X41721658Y781087D01*
X41750500Y926082D01*
X41750500Y1073918D01*
X41721658Y1218913D01*
X41665084Y1355495D01*
X41582951Y1478416D01*
X41478416Y1582951D01*
X41355495Y1665084D01*
X41355496Y1665084D01*
X41355494Y1665085D01*
X41218917Y1721657D01*
X41218907Y1721660D01*
X41121811Y1740974D01*
X41073918Y1750500D01*
X40926082Y1750500D01*
X40884977Y1742324D01*
X40781092Y1721660D01*
X40781082Y1721657D01*
X40644505Y1665085D01*
X40521584Y1582952D01*
X40521583Y1582950D01*
X40417050Y1478417D01*
X40417048Y1478416D01*
X40334915Y1355495D01*
X40278343Y1218918D01*
X40278340Y1218908D01*
X40254263Y1097865D01*
X40249500Y1073918D01*
X40249500Y926082D01*
X40253201Y907478D01*
X40278340Y781093D01*
X40278343Y781083D01*
X40334915Y644506D01*
X40417048Y521585D01*
X40511807Y426826D01*
X40533481Y374500D01*
X40511807Y322174D01*
X40459481Y300500D01*
X38540519Y300500D01*
X38488193Y322174D01*
X38466519Y374500D01*
X38488193Y426826D01*
X38582950Y521583D01*
X38582951Y521584D01*
X38665084Y644505D01*
X38721658Y781087D01*
X38750500Y926082D01*
X38750500Y1073918D01*
X38721658Y1218913D01*
X38665084Y1355495D01*
X38582951Y1478416D01*
X38478416Y1582951D01*
X38355495Y1665084D01*
X38355496Y1665084D01*
X38355494Y1665085D01*
X38218917Y1721657D01*
X38218907Y1721660D01*
X38121811Y1740974D01*
X38073918Y1750500D01*
X37926082Y1750500D01*
X37884977Y1742324D01*
X37781092Y1721660D01*
X37781082Y1721657D01*
X37644505Y1665085D01*
X37521584Y1582952D01*
X37521583Y1582950D01*
X37417050Y1478417D01*
X37417048Y1478416D01*
X37334915Y1355495D01*
X37278343Y1218918D01*
X37278340Y1218908D01*
X37254263Y1097865D01*
X37249500Y1073918D01*
X37249500Y926082D01*
X37253201Y907478D01*
X37278340Y781093D01*
X37278343Y781083D01*
X37334915Y644506D01*
X37417048Y521585D01*
X37511807Y426826D01*
X37533481Y374500D01*
X37511807Y322174D01*
X37459481Y300500D01*
X35540519Y300500D01*
X35488193Y322174D01*
X35466519Y374500D01*
X35488193Y426826D01*
X35582950Y521583D01*
X35582951Y521584D01*
X35665084Y644505D01*
X35721658Y781087D01*
X35750500Y926082D01*
X35750500Y1073918D01*
X35721658Y1218913D01*
X35665084Y1355495D01*
X35582951Y1478416D01*
X35478416Y1582951D01*
X35355495Y1665084D01*
X35355496Y1665084D01*
X35355494Y1665085D01*
X35218917Y1721657D01*
X35218907Y1721660D01*
X35121811Y1740974D01*
X35073918Y1750500D01*
X34926082Y1750500D01*
X34884977Y1742324D01*
X34781092Y1721660D01*
X34781082Y1721657D01*
X34644505Y1665085D01*
X34521584Y1582952D01*
X34521583Y1582950D01*
X34417050Y1478417D01*
X34417048Y1478416D01*
X34334915Y1355495D01*
X34278343Y1218918D01*
X34278340Y1218908D01*
X34254263Y1097865D01*
X34249500Y1073918D01*
X34249500Y926082D01*
X34253201Y907478D01*
X34278340Y781093D01*
X34278343Y781083D01*
X34334915Y644506D01*
X34417048Y521585D01*
X34511807Y426826D01*
X34533481Y374500D01*
X34511807Y322174D01*
X34459481Y300500D01*
X32540519Y300500D01*
X32488193Y322174D01*
X32466519Y374500D01*
X32488193Y426826D01*
X32582950Y521583D01*
X32582951Y521584D01*
X32665084Y644505D01*
X32721658Y781087D01*
X32750500Y926082D01*
X32750500Y1073918D01*
X32721658Y1218913D01*
X32665084Y1355495D01*
X32582951Y1478416D01*
X32478416Y1582951D01*
X32355495Y1665084D01*
X32355496Y1665084D01*
X32355494Y1665085D01*
X32218917Y1721657D01*
X32218907Y1721660D01*
X32121811Y1740974D01*
X32073918Y1750500D01*
X31926082Y1750500D01*
X31884977Y1742324D01*
X31781092Y1721660D01*
X31781082Y1721657D01*
X31644505Y1665085D01*
X31521584Y1582952D01*
X31521583Y1582950D01*
X31417050Y1478417D01*
X31417048Y1478416D01*
X31334915Y1355495D01*
X31278343Y1218918D01*
X31278340Y1218908D01*
X31254263Y1097865D01*
X31249500Y1073918D01*
X31249500Y926082D01*
X31253201Y907478D01*
X31278340Y781093D01*
X31278343Y781083D01*
X31334915Y644506D01*
X31417048Y521585D01*
X31511807Y426826D01*
X31533481Y374500D01*
X31511807Y322174D01*
X31459481Y300500D01*
X29540519Y300500D01*
X29488193Y322174D01*
X29466519Y374500D01*
X29488193Y426826D01*
X29582950Y521583D01*
X29582951Y521584D01*
X29665084Y644505D01*
X29721658Y781087D01*
X29750500Y926082D01*
X29750500Y1073918D01*
X29721658Y1218913D01*
X29665084Y1355495D01*
X29582951Y1478416D01*
X29478416Y1582951D01*
X29355495Y1665084D01*
X29355496Y1665084D01*
X29355494Y1665085D01*
X29218917Y1721657D01*
X29218907Y1721660D01*
X29121811Y1740974D01*
X29073918Y1750500D01*
X28926082Y1750500D01*
X28884977Y1742324D01*
X28781092Y1721660D01*
X28781082Y1721657D01*
X28644505Y1665085D01*
X28521584Y1582952D01*
X28521583Y1582950D01*
X28417050Y1478417D01*
X28417048Y1478416D01*
X28334915Y1355495D01*
X28278343Y1218918D01*
X28278340Y1218908D01*
X28254263Y1097865D01*
X28249500Y1073918D01*
X28249500Y926082D01*
X28253201Y907478D01*
X28278340Y781093D01*
X28278343Y781083D01*
X28334915Y644506D01*
X28417048Y521585D01*
X28511807Y426826D01*
X28533481Y374500D01*
X28511807Y322174D01*
X28459481Y300500D01*
X25540519Y300500D01*
X25488193Y322174D01*
X25466519Y374500D01*
X25488193Y426826D01*
X25582950Y521583D01*
X25582951Y521584D01*
X25665084Y644505D01*
X25721658Y781087D01*
X25750500Y926082D01*
X25750500Y1073918D01*
X25721658Y1218913D01*
X25665084Y1355495D01*
X25582951Y1478416D01*
X25478416Y1582951D01*
X25355495Y1665084D01*
X25355496Y1665084D01*
X25355494Y1665085D01*
X25218917Y1721657D01*
X25218907Y1721660D01*
X25121811Y1740974D01*
X25073918Y1750500D01*
X24926082Y1750500D01*
X24884977Y1742324D01*
X24781092Y1721660D01*
X24781082Y1721657D01*
X24644505Y1665085D01*
X24521584Y1582952D01*
X24521583Y1582950D01*
X24417050Y1478417D01*
X24417048Y1478416D01*
X24334915Y1355495D01*
X24278343Y1218918D01*
X24278340Y1218908D01*
X24254263Y1097865D01*
X24249500Y1073918D01*
X24249500Y926082D01*
X24253201Y907478D01*
X24278340Y781093D01*
X24278343Y781083D01*
X24334915Y644506D01*
X24417048Y521585D01*
X24511807Y426826D01*
X24533481Y374500D01*
X24511807Y322174D01*
X24459481Y300500D01*
X21540519Y300500D01*
X21488193Y322174D01*
X21466519Y374500D01*
X21488193Y426826D01*
X21582950Y521583D01*
X21582951Y521584D01*
X21665084Y644505D01*
X21721658Y781087D01*
X21750500Y926082D01*
X21750500Y1073918D01*
X21721658Y1218913D01*
X21665084Y1355495D01*
X21582951Y1478416D01*
X21478416Y1582951D01*
X21355495Y1665084D01*
X21355496Y1665084D01*
X21355494Y1665085D01*
X21218917Y1721657D01*
X21218907Y1721660D01*
X21121811Y1740974D01*
X21073918Y1750500D01*
X20926082Y1750500D01*
X20884977Y1742324D01*
X20781092Y1721660D01*
X20781082Y1721657D01*
X20644505Y1665085D01*
X20521584Y1582952D01*
X20521583Y1582950D01*
X20417050Y1478417D01*
X20417048Y1478416D01*
X20334915Y1355495D01*
X20278343Y1218918D01*
X20278340Y1218908D01*
X20254263Y1097865D01*
X20249500Y1073918D01*
X20249500Y926082D01*
X20253201Y907478D01*
X20278340Y781093D01*
X20278343Y781083D01*
X20334915Y644506D01*
X20417048Y521585D01*
X20511807Y426826D01*
X20533481Y374500D01*
X20511807Y322174D01*
X20459481Y300500D01*
X18540519Y300500D01*
X18488193Y322174D01*
X18466519Y374500D01*
X18488193Y426826D01*
X18582950Y521583D01*
X18582951Y521584D01*
X18665084Y644505D01*
X18721658Y781087D01*
X18750500Y926082D01*
X18750500Y1073918D01*
X18721658Y1218913D01*
X18665084Y1355495D01*
X18582951Y1478416D01*
X18478416Y1582951D01*
X18355495Y1665084D01*
X18355496Y1665084D01*
X18355494Y1665085D01*
X18218917Y1721657D01*
X18218907Y1721660D01*
X18121811Y1740974D01*
X18073918Y1750500D01*
X17926082Y1750500D01*
X17884977Y1742324D01*
X17781092Y1721660D01*
X17781082Y1721657D01*
X17644505Y1665085D01*
X17521584Y1582952D01*
X17521583Y1582950D01*
X17417050Y1478417D01*
X17417048Y1478416D01*
X17334915Y1355495D01*
X17278343Y1218918D01*
X17278340Y1218908D01*
X17254263Y1097865D01*
X17249500Y1073918D01*
X17249500Y926082D01*
X17253201Y907478D01*
X17278340Y781093D01*
X17278343Y781083D01*
X17334915Y644506D01*
X17417048Y521585D01*
X17511807Y426826D01*
X17533481Y374500D01*
X17511807Y322174D01*
X17459481Y300500D01*
X10540519Y300500D01*
X10488193Y322174D01*
X10466519Y374500D01*
X10488193Y426826D01*
X10582950Y521583D01*
X10582951Y521584D01*
X10665084Y644505D01*
X10721658Y781087D01*
X10750500Y926082D01*
X10750500Y1073918D01*
X10721658Y1218913D01*
X10665084Y1355495D01*
X10582951Y1478416D01*
X10478416Y1582951D01*
X10355495Y1665084D01*
X10355496Y1665084D01*
X10355494Y1665085D01*
X10218917Y1721657D01*
X10218907Y1721660D01*
X10121811Y1740974D01*
X10073918Y1750500D01*
X9926082Y1750500D01*
X9884977Y1742324D01*
X9781092Y1721660D01*
X9781082Y1721657D01*
X9644505Y1665085D01*
X9521584Y1582952D01*
X9521583Y1582950D01*
X9417050Y1478417D01*
X9417048Y1478416D01*
X9334915Y1355495D01*
X9278343Y1218918D01*
X9278340Y1218908D01*
X9254263Y1097865D01*
X9249500Y1073918D01*
X9249500Y926082D01*
X9253201Y907478D01*
X9278340Y781093D01*
X9278343Y781083D01*
X9334915Y644506D01*
X9417048Y521585D01*
X9511807Y426826D01*
X9533481Y374500D01*
X9511807Y322174D01*
X9459481Y300500D01*
X7540519Y300500D01*
X7488193Y322174D01*
X7466519Y374500D01*
X7488193Y426826D01*
X7582950Y521583D01*
X7582951Y521584D01*
X7665084Y644505D01*
X7721658Y781087D01*
X7750500Y926082D01*
X7750500Y1073918D01*
X7721658Y1218913D01*
X7665084Y1355495D01*
X7582951Y1478416D01*
X7478416Y1582951D01*
X7355495Y1665084D01*
X7355496Y1665084D01*
X7355494Y1665085D01*
X7218917Y1721657D01*
X7218907Y1721660D01*
X7121811Y1740974D01*
X7073918Y1750500D01*
X6926082Y1750500D01*
X6884977Y1742324D01*
X6781092Y1721660D01*
X6781082Y1721657D01*
X6644505Y1665085D01*
X6521584Y1582952D01*
X6521583Y1582950D01*
X6417050Y1478417D01*
X6417048Y1478416D01*
X6334915Y1355495D01*
X6278343Y1218918D01*
X6278340Y1218908D01*
X6254263Y1097865D01*
X6249500Y1073918D01*
X6249500Y926082D01*
X6253201Y907478D01*
X6278340Y781093D01*
X6278343Y781083D01*
X6334915Y644506D01*
X6417048Y521585D01*
X6511807Y426826D01*
X6533481Y374500D01*
X6511807Y322174D01*
X6459481Y300500D01*
X4540519Y300500D01*
X4488193Y322174D01*
X4466519Y374500D01*
X4488193Y426826D01*
X4582950Y521583D01*
X4582951Y521584D01*
X4665084Y644505D01*
X4721658Y781087D01*
X4750500Y926082D01*
X4750500Y1073918D01*
X4721658Y1218913D01*
X4665084Y1355495D01*
X4582951Y1478416D01*
X4478416Y1582951D01*
X4355495Y1665084D01*
X4355496Y1665084D01*
X4355494Y1665085D01*
X4218917Y1721657D01*
X4218907Y1721660D01*
X4121811Y1740974D01*
X4073918Y1750500D01*
X3926082Y1750500D01*
X3884977Y1742324D01*
X3781092Y1721660D01*
X3781082Y1721657D01*
X3644505Y1665085D01*
X3521584Y1582952D01*
X3521583Y1582950D01*
X3417050Y1478417D01*
X3417048Y1478416D01*
X3334915Y1355495D01*
X3278343Y1218918D01*
X3278340Y1218908D01*
X3254263Y1097865D01*
X3249500Y1073918D01*
X3249500Y926082D01*
X3253201Y907478D01*
X3278340Y781093D01*
X3278343Y781083D01*
X3334915Y644506D01*
X3417048Y521585D01*
X3511807Y426826D01*
X3533481Y374500D01*
X3511807Y322174D01*
X3459481Y300500D01*
X3002083Y300500D01*
X2997934Y300616D01*
X2701893Y317242D01*
X2693647Y318172D01*
X2403408Y367485D01*
X2395317Y369331D01*
X2112404Y450837D01*
X2104571Y453578D01*
X1832571Y566245D01*
X1825095Y569845D01*
X1567412Y712260D01*
X1560385Y716676D01*
X1469606Y781087D01*
X1320283Y887038D01*
X1313795Y892211D01*
X1249499Y949669D01*
X1094258Y1088401D01*
X1088399Y1094260D01*
X892209Y1313797D01*
X887037Y1320284D01*
X716671Y1560392D01*
X712263Y1567406D01*
X569844Y1825096D01*
X566244Y1832572D01*
X453573Y2104582D01*
X450839Y2112395D01*
X378339Y2364049D01*
X384680Y2420329D01*
X428961Y2455642D01*
X485242Y2449301D01*
X501773Y2436860D01*
X521584Y2417049D01*
X644505Y2334916D01*
X781087Y2278342D01*
X926082Y2249500D01*
X926084Y2249500D01*
X1073916Y2249500D01*
X1073918Y2249500D01*
X1218913Y2278342D01*
X1355495Y2334916D01*
X1478416Y2417049D01*
X1582951Y2521584D01*
X1665084Y2644505D01*
X1721658Y2781087D01*
X1750500Y2926082D01*
X1750500Y3073918D01*
X1747216Y3090425D01*
X10699500Y3090425D01*
X10699500Y2809575D01*
X10711633Y2701894D01*
X10730945Y2530488D01*
X10730945Y2530487D01*
X10793437Y2256691D01*
X10793442Y2256675D01*
X10886198Y1991593D01*
X11008052Y1738560D01*
X11008054Y1738556D01*
X11008055Y1738555D01*
X11054220Y1665084D01*
X11157477Y1500752D01*
X11306569Y1313796D01*
X11332584Y1281175D01*
X11531175Y1082584D01*
X11750752Y907477D01*
X11988555Y758055D01*
X11988558Y758054D01*
X11988559Y758053D01*
X12079480Y714268D01*
X12241592Y636199D01*
X12506682Y543440D01*
X12506687Y543439D01*
X12506690Y543438D01*
X12780486Y480946D01*
X12780487Y480946D01*
X12780491Y480945D01*
X13059575Y449500D01*
X13059579Y449500D01*
X13340421Y449500D01*
X13340425Y449500D01*
X13619509Y480945D01*
X13893318Y543440D01*
X14158408Y636199D01*
X14411445Y758055D01*
X14649248Y907477D01*
X14868825Y1082584D01*
X15067416Y1281175D01*
X15242523Y1500752D01*
X15391945Y1738555D01*
X15513801Y1991592D01*
X15606560Y2256682D01*
X15669055Y2530491D01*
X15700500Y2809575D01*
X15700500Y3090425D01*
X47499500Y3090425D01*
X47499500Y2809575D01*
X47511633Y2701894D01*
X47530945Y2530488D01*
X47530945Y2530487D01*
X47593437Y2256691D01*
X47593442Y2256675D01*
X47686198Y1991593D01*
X47808052Y1738560D01*
X47808054Y1738556D01*
X47808055Y1738555D01*
X47854220Y1665084D01*
X47957477Y1500752D01*
X48106569Y1313796D01*
X48132584Y1281175D01*
X48331175Y1082584D01*
X48550752Y907477D01*
X48788555Y758055D01*
X48788558Y758054D01*
X48788559Y758053D01*
X48879480Y714268D01*
X49041592Y636199D01*
X49306682Y543440D01*
X49306687Y543439D01*
X49306690Y543438D01*
X49580486Y480946D01*
X49580487Y480946D01*
X49580491Y480945D01*
X49859575Y449500D01*
X49859579Y449500D01*
X50140421Y449500D01*
X50140425Y449500D01*
X50419509Y480945D01*
X50693318Y543440D01*
X50958408Y636199D01*
X51211445Y758055D01*
X51449248Y907477D01*
X51668825Y1082584D01*
X51867416Y1281175D01*
X52042523Y1500752D01*
X52191945Y1738555D01*
X52313801Y1991592D01*
X52406560Y2256682D01*
X52469055Y2530491D01*
X52500500Y2809575D01*
X52500500Y3090425D01*
X52469055Y3369509D01*
X52450360Y3451419D01*
X52406562Y3643310D01*
X52406557Y3643326D01*
X52406144Y3644505D01*
X52313801Y3908408D01*
X52191945Y4161445D01*
X52042523Y4399248D01*
X51867416Y4618825D01*
X51668825Y4817416D01*
X51449248Y4992523D01*
X51211445Y5141945D01*
X51211444Y5141946D01*
X51211440Y5141948D01*
X50958407Y5263802D01*
X50693325Y5356558D01*
X50693309Y5356563D01*
X50419513Y5419055D01*
X50279967Y5434778D01*
X50140425Y5450500D01*
X49859575Y5450500D01*
X49720033Y5434778D01*
X49580487Y5419055D01*
X49580486Y5419055D01*
X49306690Y5356563D01*
X49306674Y5356558D01*
X49041592Y5263802D01*
X48788559Y5141948D01*
X48550751Y4992523D01*
X48331175Y4817417D01*
X48132583Y4618825D01*
X47957477Y4399249D01*
X47808052Y4161441D01*
X47686198Y3908408D01*
X47593442Y3643326D01*
X47593437Y3643310D01*
X47530945Y3369514D01*
X47530945Y3369513D01*
X47530945Y3369509D01*
X47499500Y3090425D01*
X15700500Y3090425D01*
X15669055Y3369509D01*
X15650360Y3451419D01*
X15606562Y3643310D01*
X15606557Y3643326D01*
X15606144Y3644505D01*
X15513801Y3908408D01*
X15391945Y4161445D01*
X15242523Y4399248D01*
X15067416Y4618825D01*
X14868825Y4817416D01*
X14817775Y4858127D01*
X14649246Y4992525D01*
X14613644Y5014895D01*
X14613643Y5014895D01*
X14519710Y5073917D01*
X17249500Y5073917D01*
X17249500Y4926084D01*
X17278340Y4781093D01*
X17278343Y4781083D01*
X17334915Y4644506D01*
X17376046Y4582950D01*
X17417049Y4521584D01*
X17521584Y4417049D01*
X17644505Y4334916D01*
X17781087Y4278342D01*
X17926082Y4249500D01*
X17926084Y4249500D01*
X18073916Y4249500D01*
X18073918Y4249500D01*
X18218913Y4278342D01*
X18355495Y4334916D01*
X18478416Y4417049D01*
X18582951Y4521584D01*
X18665084Y4644505D01*
X18721658Y4781087D01*
X18750500Y4926082D01*
X18750500Y5073917D01*
X20249500Y5073917D01*
X20249500Y4926084D01*
X20278340Y4781093D01*
X20278343Y4781083D01*
X20334915Y4644506D01*
X20376046Y4582950D01*
X20417049Y4521584D01*
X20521584Y4417049D01*
X20644505Y4334916D01*
X20781087Y4278342D01*
X20926082Y4249500D01*
X20926084Y4249500D01*
X21073916Y4249500D01*
X21073918Y4249500D01*
X21218913Y4278342D01*
X21355495Y4334916D01*
X21478416Y4417049D01*
X21582951Y4521584D01*
X21665084Y4644505D01*
X21721658Y4781087D01*
X21750500Y4926082D01*
X21750500Y5073917D01*
X29249500Y5073917D01*
X29249500Y4926084D01*
X29278340Y4781093D01*
X29278343Y4781083D01*
X29334915Y4644506D01*
X29376046Y4582950D01*
X29417049Y4521584D01*
X29521584Y4417049D01*
X29644505Y4334916D01*
X29781087Y4278342D01*
X29926082Y4249500D01*
X29926084Y4249500D01*
X30073916Y4249500D01*
X30073918Y4249500D01*
X30218913Y4278342D01*
X30355495Y4334916D01*
X30478416Y4417049D01*
X30582951Y4521584D01*
X30644747Y4614069D01*
X36839500Y4614069D01*
X36839500Y4485931D01*
X36845293Y4456809D01*
X36864497Y4360261D01*
X36864498Y4360258D01*
X36910375Y4249500D01*
X36913535Y4241873D01*
X36984724Y4135331D01*
X37075331Y4044724D01*
X37181873Y3973535D01*
X37300256Y3924499D01*
X37300258Y3924499D01*
X37300260Y3924498D01*
X37319495Y3920672D01*
X37425931Y3899500D01*
X37425933Y3899500D01*
X37554067Y3899500D01*
X37554069Y3899500D01*
X37679744Y3924499D01*
X37798127Y3973535D01*
X37904669Y4044724D01*
X37995276Y4135331D01*
X38066465Y4241873D01*
X38115501Y4360256D01*
X38140500Y4485931D01*
X38140500Y4614069D01*
X38115501Y4739744D01*
X38066465Y4858127D01*
X37995276Y4964669D01*
X37904669Y5055276D01*
X37876771Y5073917D01*
X40249500Y5073917D01*
X40249500Y4926084D01*
X40278340Y4781093D01*
X40278343Y4781083D01*
X40334915Y4644506D01*
X40376046Y4582950D01*
X40417049Y4521584D01*
X40521584Y4417049D01*
X40644505Y4334916D01*
X40781087Y4278342D01*
X40926082Y4249500D01*
X40926084Y4249500D01*
X41073916Y4249500D01*
X41073918Y4249500D01*
X41218913Y4278342D01*
X41355495Y4334916D01*
X41478416Y4417049D01*
X41582951Y4521584D01*
X41665084Y4644505D01*
X41721658Y4781087D01*
X41750500Y4926082D01*
X41750500Y5073917D01*
X43249500Y5073917D01*
X43249500Y4926084D01*
X43278340Y4781093D01*
X43278343Y4781083D01*
X43334915Y4644506D01*
X43376046Y4582950D01*
X43417049Y4521584D01*
X43521584Y4417049D01*
X43644505Y4334916D01*
X43781087Y4278342D01*
X43926082Y4249500D01*
X43926084Y4249500D01*
X44073916Y4249500D01*
X44073918Y4249500D01*
X44218913Y4278342D01*
X44355495Y4334916D01*
X44478416Y4417049D01*
X44582951Y4521584D01*
X44665084Y4644505D01*
X44721658Y4781087D01*
X44750500Y4926082D01*
X44750500Y5073918D01*
X44721658Y5218913D01*
X44708988Y5249500D01*
X44665084Y5355495D01*
X44582951Y5478416D01*
X44478415Y5582952D01*
X44355494Y5665085D01*
X44218917Y5721657D01*
X44218907Y5721660D01*
X44121811Y5740974D01*
X44073918Y5750500D01*
X43926082Y5750500D01*
X43884977Y5742324D01*
X43781092Y5721660D01*
X43781082Y5721657D01*
X43644505Y5665085D01*
X43521584Y5582952D01*
X43521583Y5582950D01*
X43417050Y5478417D01*
X43417048Y5478416D01*
X43334915Y5355495D01*
X43278343Y5218918D01*
X43278340Y5218908D01*
X43249500Y5073917D01*
X41750500Y5073917D01*
X41750500Y5073918D01*
X41721658Y5218913D01*
X41708988Y5249500D01*
X41665084Y5355495D01*
X41582951Y5478416D01*
X41478415Y5582952D01*
X41355494Y5665085D01*
X41218917Y5721657D01*
X41218907Y5721660D01*
X41121811Y5740974D01*
X41073918Y5750500D01*
X40926082Y5750500D01*
X40884977Y5742324D01*
X40781092Y5721660D01*
X40781082Y5721657D01*
X40644505Y5665085D01*
X40521584Y5582952D01*
X40521583Y5582950D01*
X40417050Y5478417D01*
X40417048Y5478416D01*
X40334915Y5355495D01*
X40278343Y5218918D01*
X40278340Y5218908D01*
X40249500Y5073917D01*
X37876771Y5073917D01*
X37798127Y5126465D01*
X37798124Y5126467D01*
X37798123Y5126467D01*
X37679742Y5175502D01*
X37679739Y5175503D01*
X37589696Y5193414D01*
X37554069Y5200500D01*
X37425931Y5200500D01*
X37394726Y5194293D01*
X37300260Y5175503D01*
X37300257Y5175502D01*
X37181876Y5126467D01*
X37075331Y5055277D01*
X37075330Y5055275D01*
X36984725Y4964670D01*
X36984723Y4964669D01*
X36913533Y4858124D01*
X36864498Y4739743D01*
X36864497Y4739740D01*
X36845857Y4646028D01*
X36839500Y4614069D01*
X30644747Y4614069D01*
X30665084Y4644505D01*
X30673609Y4665085D01*
X30697042Y4721658D01*
X30721658Y4781087D01*
X30750500Y4926082D01*
X30750500Y5073918D01*
X30721658Y5218913D01*
X30708988Y5249500D01*
X30665084Y5355495D01*
X30582951Y5478416D01*
X30478415Y5582952D01*
X30355494Y5665085D01*
X30218917Y5721657D01*
X30218907Y5721660D01*
X30121811Y5740974D01*
X30073918Y5750500D01*
X29926082Y5750500D01*
X29884977Y5742324D01*
X29781092Y5721660D01*
X29781082Y5721657D01*
X29644505Y5665085D01*
X29521584Y5582952D01*
X29521583Y5582950D01*
X29417050Y5478417D01*
X29417048Y5478416D01*
X29334915Y5355495D01*
X29278343Y5218918D01*
X29278340Y5218908D01*
X29249500Y5073917D01*
X21750500Y5073917D01*
X21750500Y5073918D01*
X21721658Y5218913D01*
X21708988Y5249500D01*
X21665084Y5355495D01*
X21582951Y5478416D01*
X21478415Y5582952D01*
X21355494Y5665085D01*
X21218917Y5721657D01*
X21218907Y5721660D01*
X21121811Y5740974D01*
X21073918Y5750500D01*
X20926082Y5750500D01*
X20884977Y5742324D01*
X20781092Y5721660D01*
X20781082Y5721657D01*
X20644505Y5665085D01*
X20521584Y5582952D01*
X20521583Y5582950D01*
X20417050Y5478417D01*
X20417048Y5478416D01*
X20334915Y5355495D01*
X20278343Y5218918D01*
X20278340Y5218908D01*
X20249500Y5073917D01*
X18750500Y5073917D01*
X18750500Y5073918D01*
X18721658Y5218913D01*
X18708988Y5249500D01*
X18665084Y5355495D01*
X18582951Y5478416D01*
X18478415Y5582952D01*
X18355494Y5665085D01*
X18218917Y5721657D01*
X18218907Y5721660D01*
X18121811Y5740974D01*
X18073918Y5750500D01*
X17926082Y5750500D01*
X17884977Y5742324D01*
X17781092Y5721660D01*
X17781082Y5721657D01*
X17644505Y5665085D01*
X17521584Y5582952D01*
X17521583Y5582950D01*
X17417050Y5478417D01*
X17417048Y5478416D01*
X17334915Y5355495D01*
X17278343Y5218918D01*
X17278340Y5218908D01*
X17249500Y5073917D01*
X14519710Y5073917D01*
X14411445Y5141945D01*
X14411444Y5141946D01*
X14411440Y5141948D01*
X14158407Y5263802D01*
X13893325Y5356558D01*
X13893309Y5356563D01*
X13619513Y5419055D01*
X13479967Y5434778D01*
X13340425Y5450500D01*
X13059575Y5450500D01*
X12920033Y5434778D01*
X12780487Y5419055D01*
X12780486Y5419055D01*
X12506690Y5356563D01*
X12506674Y5356558D01*
X12241592Y5263802D01*
X11988559Y5141948D01*
X11750751Y4992523D01*
X11531175Y4817417D01*
X11332583Y4618825D01*
X11157477Y4399249D01*
X11008052Y4161441D01*
X10886198Y3908408D01*
X10793442Y3643326D01*
X10793437Y3643310D01*
X10730945Y3369514D01*
X10730945Y3369513D01*
X10730945Y3369509D01*
X10699500Y3090425D01*
X1747216Y3090425D01*
X1721658Y3218913D01*
X1708988Y3249500D01*
X1665084Y3355495D01*
X1582951Y3478416D01*
X1478415Y3582952D01*
X1355494Y3665085D01*
X1218917Y3721657D01*
X1218907Y3721660D01*
X1121811Y3740974D01*
X1073918Y3750500D01*
X926082Y3750500D01*
X884977Y3742324D01*
X781092Y3721660D01*
X781082Y3721657D01*
X644505Y3665085D01*
X521584Y3582952D01*
X521583Y3582950D01*
X426826Y3488193D01*
X374500Y3466519D01*
X322174Y3488193D01*
X300500Y3540519D01*
X300500Y5459481D01*
X322174Y5511807D01*
X374500Y5533481D01*
X426826Y5511807D01*
X521584Y5417049D01*
X644505Y5334916D01*
X781087Y5278342D01*
X926082Y5249500D01*
X926084Y5249500D01*
X1073916Y5249500D01*
X1073918Y5249500D01*
X1218913Y5278342D01*
X1355495Y5334916D01*
X1478416Y5417049D01*
X1582951Y5521584D01*
X1665084Y5644505D01*
X1721658Y5781087D01*
X1750500Y5926082D01*
X1750500Y6073918D01*
X1721658Y6218913D01*
X1708988Y6249500D01*
X1665084Y6355495D01*
X1582951Y6478416D01*
X1478415Y6582952D01*
X1355494Y6665085D01*
X1218917Y6721657D01*
X1218907Y6721660D01*
X1121811Y6740974D01*
X1073918Y6750500D01*
X926082Y6750500D01*
X884977Y6742324D01*
X781092Y6721660D01*
X781082Y6721657D01*
X644505Y6665085D01*
X521584Y6582952D01*
X521583Y6582950D01*
X426826Y6488193D01*
X374500Y6466519D01*
X322174Y6488193D01*
X300500Y6540519D01*
X300500Y8114322D01*
X4650000Y8114322D01*
X4650000Y8000000D01*
X5481178Y8000000D01*
X5450000Y7924728D01*
X5450000Y7825272D01*
X5481178Y7750000D01*
X4650001Y7750000D01*
X4650001Y7635679D01*
X4665443Y7518372D01*
X4665444Y7518368D01*
X4725900Y7372413D01*
X4822075Y7247076D01*
X4901875Y7185843D01*
X4930193Y7136794D01*
X4915534Y7082086D01*
X4909156Y7074814D01*
X4905893Y7071552D01*
X4905885Y7071542D01*
X4829223Y6956809D01*
X4776421Y6829333D01*
X4776418Y6829323D01*
X4760740Y6750500D01*
X4749500Y6693993D01*
X4749500Y6556007D01*
X4758391Y6511306D01*
X4776418Y6420678D01*
X4776421Y6420668D01*
X4829223Y6293192D01*
X4829224Y6293190D01*
X4829225Y6293189D01*
X4905886Y6178458D01*
X5003458Y6080886D01*
X5003461Y6080884D01*
X5003463Y6080882D01*
X5032428Y6061528D01*
X5063893Y6014436D01*
X5052843Y5958887D01*
X5032428Y5938472D01*
X5003463Y5919119D01*
X4905883Y5821539D01*
X4829223Y5706809D01*
X4776421Y5579333D01*
X4776418Y5579323D01*
X4749500Y5443992D01*
X4749500Y5306009D01*
X4776418Y5170678D01*
X4776421Y5170668D01*
X4829223Y5043192D01*
X4881690Y4964669D01*
X4905886Y4928458D01*
X5003458Y4830886D01*
X5003461Y4830884D01*
X5003463Y4830882D01*
X5032428Y4811528D01*
X5063893Y4764436D01*
X5052843Y4708887D01*
X5032428Y4688472D01*
X5003463Y4669119D01*
X4905883Y4571539D01*
X4829223Y4456809D01*
X4776421Y4329333D01*
X4776418Y4329323D01*
X4760541Y4249500D01*
X4749500Y4193993D01*
X4749500Y4056007D01*
X4758391Y4011306D01*
X4776418Y3920678D01*
X4776421Y3920668D01*
X4829223Y3793192D01*
X4877020Y3721658D01*
X4905886Y3678458D01*
X5003458Y3580886D01*
X5118189Y3504225D01*
X5118190Y3504225D01*
X5118191Y3504224D01*
X5226211Y3459481D01*
X5245672Y3451420D01*
X5381007Y3424500D01*
X5381009Y3424500D01*
X6018991Y3424500D01*
X6018993Y3424500D01*
X6154328Y3451420D01*
X6281811Y3504225D01*
X6396542Y3580886D01*
X6494114Y3678458D01*
X6570775Y3793189D01*
X6623580Y3920672D01*
X6650500Y4056007D01*
X6650500Y4193993D01*
X6623580Y4329328D01*
X6610769Y4360256D01*
X6570776Y4456809D01*
X6551317Y4485931D01*
X6494114Y4571542D01*
X6396542Y4669114D01*
X6367571Y4688472D01*
X6336106Y4735563D01*
X6347155Y4791112D01*
X6367572Y4811529D01*
X6396542Y4830886D01*
X6494114Y4928458D01*
X6570775Y5043189D01*
X6623580Y5170672D01*
X6650500Y5306007D01*
X6650500Y5443993D01*
X6623580Y5579328D01*
X6596583Y5644505D01*
X6570776Y5706809D01*
X6560854Y5721658D01*
X6494114Y5821542D01*
X6396542Y5919114D01*
X6367571Y5938472D01*
X6336106Y5985563D01*
X6347155Y6041112D01*
X6367572Y6061529D01*
X6396542Y6080886D01*
X6494114Y6178458D01*
X6570775Y6293189D01*
X6623580Y6420672D01*
X6650500Y6556007D01*
X6650500Y6693993D01*
X6623580Y6829328D01*
X6613154Y6854499D01*
X6570776Y6956809D01*
X6561333Y6970941D01*
X6494114Y7071542D01*
X6494104Y7071552D01*
X6490843Y7074814D01*
X6469173Y7127141D01*
X6490852Y7179465D01*
X6498125Y7185843D01*
X6577922Y7247074D01*
X6577923Y7247075D01*
X6674099Y7372413D01*
X6734556Y7518370D01*
X6750000Y7635679D01*
X6750000Y7750000D01*
X5918822Y7750000D01*
X5950000Y7825272D01*
X5950000Y7924728D01*
X5918822Y8000000D01*
X6749999Y8000000D01*
X6749999Y8114322D01*
X6734556Y8231629D01*
X6734555Y8231633D01*
X6674099Y8377588D01*
X6577924Y8502925D01*
X6452587Y8599100D01*
X6306630Y8659557D01*
X6189321Y8675000D01*
X5825000Y8675000D01*
X5825000Y8093822D01*
X5749728Y8125000D01*
X5650272Y8125000D01*
X5575000Y8093822D01*
X5575000Y8675000D01*
X5210678Y8675000D01*
X5093371Y8659557D01*
X5093367Y8659556D01*
X4947412Y8599100D01*
X4822075Y8502925D01*
X4725900Y8377588D01*
X4665443Y8231631D01*
X4650000Y8114322D01*
X300500Y8114322D01*
X300500Y9073917D01*
X7249500Y9073917D01*
X7249500Y8926084D01*
X7278340Y8781093D01*
X7278343Y8781083D01*
X7334915Y8644506D01*
X7376046Y8582950D01*
X7417049Y8521584D01*
X7521584Y8417049D01*
X7644505Y8334916D01*
X7781087Y8278342D01*
X7926082Y8249500D01*
X7926084Y8249500D01*
X8073916Y8249500D01*
X8073918Y8249500D01*
X8218913Y8278342D01*
X8355495Y8334916D01*
X8478416Y8417049D01*
X8582951Y8521584D01*
X8665084Y8644505D01*
X8721658Y8781087D01*
X8750500Y8926082D01*
X8750500Y9073917D01*
X10249500Y9073917D01*
X10249500Y8926084D01*
X10278340Y8781093D01*
X10278343Y8781083D01*
X10334915Y8644506D01*
X10376046Y8582950D01*
X10417049Y8521584D01*
X10521584Y8417049D01*
X10644505Y8334916D01*
X10781087Y8278342D01*
X10926082Y8249500D01*
X10926084Y8249500D01*
X11073916Y8249500D01*
X11073918Y8249500D01*
X11218913Y8278342D01*
X11355495Y8334916D01*
X11478416Y8417049D01*
X11582951Y8521584D01*
X11665084Y8644505D01*
X11721658Y8781087D01*
X11750500Y8926082D01*
X11750500Y9073918D01*
X11721658Y9218913D01*
X11708988Y9249500D01*
X11665084Y9355495D01*
X11582951Y9478416D01*
X11478415Y9582952D01*
X11355494Y9665085D01*
X11218917Y9721657D01*
X11218907Y9721660D01*
X11121811Y9740974D01*
X11073918Y9750500D01*
X10926082Y9750500D01*
X10884977Y9742324D01*
X10781092Y9721660D01*
X10781082Y9721657D01*
X10644505Y9665085D01*
X10521584Y9582952D01*
X10521583Y9582950D01*
X10417050Y9478417D01*
X10417048Y9478416D01*
X10334915Y9355495D01*
X10278343Y9218918D01*
X10278340Y9218908D01*
X10249500Y9073917D01*
X8750500Y9073917D01*
X8750500Y9073918D01*
X8721658Y9218913D01*
X8708988Y9249500D01*
X8665084Y9355495D01*
X8582951Y9478416D01*
X8478415Y9582952D01*
X8355494Y9665085D01*
X8218917Y9721657D01*
X8218907Y9721660D01*
X8121811Y9740974D01*
X8073918Y9750500D01*
X7926082Y9750500D01*
X7884977Y9742324D01*
X7781092Y9721660D01*
X7781082Y9721657D01*
X7644505Y9665085D01*
X7521584Y9582952D01*
X7521583Y9582950D01*
X7417050Y9478417D01*
X7417048Y9478416D01*
X7334915Y9355495D01*
X7278343Y9218918D01*
X7278340Y9218908D01*
X7249500Y9073917D01*
X300500Y9073917D01*
X300500Y9459481D01*
X322174Y9511807D01*
X374500Y9533481D01*
X426826Y9511807D01*
X521584Y9417049D01*
X644505Y9334916D01*
X781087Y9278342D01*
X926082Y9249500D01*
X926084Y9249500D01*
X1073916Y9249500D01*
X1073918Y9249500D01*
X1218913Y9278342D01*
X1355495Y9334916D01*
X1478416Y9417049D01*
X1582951Y9521584D01*
X1665084Y9644505D01*
X1721658Y9781087D01*
X1750500Y9926082D01*
X1750500Y10073917D01*
X19249500Y10073917D01*
X19249500Y9926084D01*
X19278340Y9781093D01*
X19278343Y9781083D01*
X19334915Y9644506D01*
X19409100Y9533481D01*
X19417049Y9521584D01*
X19521584Y9417049D01*
X19644505Y9334916D01*
X19781087Y9278342D01*
X19926082Y9249500D01*
X19926084Y9249500D01*
X20073916Y9249500D01*
X20073918Y9249500D01*
X20218913Y9278342D01*
X20355495Y9334916D01*
X20478416Y9417049D01*
X20582951Y9521584D01*
X20665084Y9644505D01*
X20720818Y9779060D01*
X29899500Y9779060D01*
X29899500Y9620941D01*
X29940421Y9468221D01*
X29940422Y9468219D01*
X29940423Y9468216D01*
X30019480Y9331284D01*
X30131284Y9219480D01*
X30268216Y9140423D01*
X30420940Y9099501D01*
X30420941Y9099500D01*
X30420943Y9099500D01*
X30579059Y9099500D01*
X30579059Y9099501D01*
X30731784Y9140423D01*
X30868716Y9219480D01*
X30980520Y9331284D01*
X31059577Y9468216D01*
X31077852Y9536421D01*
X31112330Y9581352D01*
X31168483Y9588745D01*
X31213416Y9554266D01*
X31220808Y9536419D01*
X31240421Y9463221D01*
X31240422Y9463219D01*
X31240423Y9463216D01*
X31302615Y9355495D01*
X31319480Y9326284D01*
X31382826Y9262938D01*
X31404500Y9210612D01*
X31404500Y8152069D01*
X31404500Y8047931D01*
X31412891Y8016614D01*
X31431452Y7947341D01*
X31439091Y7934112D01*
X31439092Y7934108D01*
X31439093Y7934108D01*
X31483518Y7857161D01*
X31483519Y7857160D01*
X31483521Y7857157D01*
X31557157Y7783521D01*
X31561372Y7779306D01*
X31561378Y7779301D01*
X32333519Y7007160D01*
X32333521Y7007157D01*
X32407157Y6933521D01*
X32420042Y6926082D01*
X32497342Y6881452D01*
X32497343Y6881452D01*
X32497345Y6881451D01*
X32547637Y6867976D01*
X32597929Y6854500D01*
X32597930Y6854499D01*
X32597932Y6854499D01*
X32706599Y6854499D01*
X32706615Y6854500D01*
X32856455Y6854500D01*
X32908781Y6832826D01*
X32930455Y6780500D01*
X32908781Y6728174D01*
X32893455Y6716414D01*
X32831283Y6680520D01*
X32719480Y6568717D01*
X32640424Y6431786D01*
X32640421Y6431780D01*
X32599500Y6279060D01*
X32599500Y6120941D01*
X32640421Y5968221D01*
X32640422Y5968219D01*
X32640423Y5968216D01*
X32719480Y5831284D01*
X32831284Y5719480D01*
X32968216Y5640423D01*
X33120940Y5599501D01*
X33120941Y5599500D01*
X33120943Y5599500D01*
X33279059Y5599500D01*
X33279059Y5599501D01*
X33431784Y5640423D01*
X33568716Y5719480D01*
X33680520Y5831284D01*
X33759577Y5968216D01*
X33800499Y6120941D01*
X33800500Y6120941D01*
X33800500Y6279059D01*
X33800499Y6279060D01*
X33796712Y6293192D01*
X33759577Y6431784D01*
X33680520Y6568716D01*
X33568716Y6680520D01*
X33506544Y6716415D01*
X33472067Y6761347D01*
X33479459Y6817500D01*
X33524392Y6851978D01*
X33543545Y6854500D01*
X34226751Y6854500D01*
X34279077Y6832826D01*
X34290834Y6817504D01*
X34369480Y6681284D01*
X34481284Y6569480D01*
X34618216Y6490423D01*
X34770940Y6449501D01*
X34770941Y6449500D01*
X34770943Y6449500D01*
X34929059Y6449500D01*
X34929059Y6449501D01*
X35081784Y6490423D01*
X35218716Y6569480D01*
X35330520Y6681284D01*
X35409577Y6818216D01*
X35450499Y6970941D01*
X35450500Y6970941D01*
X35450500Y7073918D01*
X46249500Y7073918D01*
X46249500Y6926082D01*
X46258378Y6881452D01*
X46278340Y6781093D01*
X46278343Y6781083D01*
X46334915Y6644506D01*
X46417048Y6521585D01*
X46521584Y6417049D01*
X46644505Y6334916D01*
X46779353Y6279060D01*
X46781087Y6278342D01*
X46926082Y6249500D01*
X46926084Y6249500D01*
X47073916Y6249500D01*
X47073918Y6249500D01*
X47218913Y6278342D01*
X47355495Y6334916D01*
X47478416Y6417049D01*
X47582951Y6521584D01*
X47665084Y6644505D01*
X47721658Y6781087D01*
X47750500Y6926082D01*
X47750500Y7073918D01*
X47721658Y7218913D01*
X47708988Y7249500D01*
X47665084Y7355495D01*
X47582951Y7478416D01*
X47478415Y7582952D01*
X47355494Y7665085D01*
X47218917Y7721657D01*
X47218907Y7721660D01*
X47121811Y7740974D01*
X47073918Y7750500D01*
X46926082Y7750500D01*
X46884977Y7742324D01*
X46781092Y7721660D01*
X46781082Y7721657D01*
X46644505Y7665085D01*
X46521584Y7582952D01*
X46521583Y7582950D01*
X46417050Y7478417D01*
X46417048Y7478416D01*
X46334915Y7355495D01*
X46278343Y7218918D01*
X46278340Y7218908D01*
X46260468Y7129059D01*
X46249500Y7073918D01*
X35450500Y7073918D01*
X35450500Y7129059D01*
X35450499Y7129060D01*
X35426424Y7218908D01*
X35409577Y7281784D01*
X35330520Y7418716D01*
X35218716Y7530520D01*
X35081784Y7609577D01*
X35081781Y7609578D01*
X35081779Y7609579D01*
X34929059Y7650500D01*
X34929057Y7650500D01*
X34770943Y7650500D01*
X34770942Y7650500D01*
X34746325Y7643905D01*
X34708027Y7643904D01*
X34702069Y7645500D01*
X32844473Y7645500D01*
X32792147Y7667174D01*
X32217174Y8242147D01*
X32195500Y8294473D01*
X32195500Y9073917D01*
X37249500Y9073917D01*
X37249500Y8926084D01*
X37278340Y8781093D01*
X37278343Y8781083D01*
X37334915Y8644506D01*
X37376046Y8582950D01*
X37417049Y8521584D01*
X37521584Y8417049D01*
X37644505Y8334916D01*
X37781087Y8278342D01*
X37926082Y8249500D01*
X37926084Y8249500D01*
X38073916Y8249500D01*
X38073918Y8249500D01*
X38218913Y8278342D01*
X38355495Y8334916D01*
X38478416Y8417049D01*
X38582951Y8521584D01*
X38665084Y8644505D01*
X38721658Y8781087D01*
X38750500Y8926082D01*
X38750500Y9073918D01*
X38721658Y9218913D01*
X38708988Y9249500D01*
X38665084Y9355495D01*
X38582951Y9478416D01*
X38478415Y9582952D01*
X38355494Y9665085D01*
X38218917Y9721657D01*
X38218907Y9721660D01*
X38121811Y9740974D01*
X38073918Y9750500D01*
X37926082Y9750500D01*
X37884977Y9742324D01*
X37781092Y9721660D01*
X37781082Y9721657D01*
X37644505Y9665085D01*
X37521584Y9582952D01*
X37521583Y9582950D01*
X37417050Y9478417D01*
X37417048Y9478416D01*
X37334915Y9355495D01*
X37278343Y9218918D01*
X37278340Y9218908D01*
X37249500Y9073917D01*
X32195500Y9073917D01*
X32195500Y9210612D01*
X32217174Y9262938D01*
X32232580Y9278344D01*
X32280520Y9326284D01*
X32359577Y9463216D01*
X32400499Y9615941D01*
X32400500Y9615941D01*
X32400500Y9774059D01*
X32400499Y9774060D01*
X32359764Y9926084D01*
X32359577Y9926784D01*
X32280520Y10063716D01*
X32270319Y10073917D01*
X41249500Y10073917D01*
X41249500Y9926084D01*
X41278340Y9781093D01*
X41278343Y9781083D01*
X41334915Y9644506D01*
X41409100Y9533481D01*
X41417049Y9521584D01*
X41521584Y9417049D01*
X41644505Y9334916D01*
X41781087Y9278342D01*
X41926082Y9249500D01*
X41926084Y9249500D01*
X42073916Y9249500D01*
X42073918Y9249500D01*
X42218913Y9278342D01*
X42355495Y9334916D01*
X42478416Y9417049D01*
X42582951Y9521584D01*
X42665084Y9644505D01*
X42721658Y9781087D01*
X42750500Y9926082D01*
X42750500Y10073917D01*
X44249500Y10073917D01*
X44249500Y9926084D01*
X44278340Y9781093D01*
X44278343Y9781083D01*
X44334915Y9644506D01*
X44409100Y9533481D01*
X44417049Y9521584D01*
X44521584Y9417049D01*
X44644505Y9334916D01*
X44781087Y9278342D01*
X44926082Y9249500D01*
X44926084Y9249500D01*
X45073916Y9249500D01*
X45073918Y9249500D01*
X45218913Y9278342D01*
X45355495Y9334916D01*
X45478416Y9417049D01*
X45582951Y9521584D01*
X45665084Y9644505D01*
X45721658Y9781087D01*
X45750500Y9926082D01*
X45750500Y10073917D01*
X49249500Y10073917D01*
X49249500Y9926084D01*
X49278340Y9781093D01*
X49278343Y9781083D01*
X49334915Y9644506D01*
X49409100Y9533481D01*
X49417049Y9521584D01*
X49521584Y9417049D01*
X49644505Y9334916D01*
X49781087Y9278342D01*
X49926082Y9249500D01*
X49926084Y9249500D01*
X50073916Y9249500D01*
X50073918Y9249500D01*
X50218913Y9278342D01*
X50355495Y9334916D01*
X50478416Y9417049D01*
X50582951Y9521584D01*
X50665084Y9644505D01*
X50721658Y9781087D01*
X50750500Y9926082D01*
X50750500Y10073918D01*
X50721658Y10218913D01*
X50704814Y10259577D01*
X50665084Y10355495D01*
X50582951Y10478416D01*
X50478415Y10582952D01*
X50355494Y10665085D01*
X50218917Y10721657D01*
X50218907Y10721660D01*
X50121811Y10740974D01*
X50073918Y10750500D01*
X49926082Y10750500D01*
X49884977Y10742324D01*
X49781092Y10721660D01*
X49781082Y10721657D01*
X49644505Y10665085D01*
X49521584Y10582952D01*
X49521583Y10582950D01*
X49417050Y10478417D01*
X49417048Y10478416D01*
X49334915Y10355495D01*
X49278343Y10218918D01*
X49278340Y10218908D01*
X49249500Y10073917D01*
X45750500Y10073917D01*
X45750500Y10073918D01*
X45721658Y10218913D01*
X45704814Y10259577D01*
X45665084Y10355495D01*
X45582951Y10478416D01*
X45478415Y10582952D01*
X45355494Y10665085D01*
X45218917Y10721657D01*
X45218907Y10721660D01*
X45121811Y10740974D01*
X45073918Y10750500D01*
X44926082Y10750500D01*
X44884977Y10742324D01*
X44781092Y10721660D01*
X44781082Y10721657D01*
X44644505Y10665085D01*
X44521584Y10582952D01*
X44521583Y10582950D01*
X44417050Y10478417D01*
X44417048Y10478416D01*
X44334915Y10355495D01*
X44278343Y10218918D01*
X44278340Y10218908D01*
X44249500Y10073917D01*
X42750500Y10073917D01*
X42750500Y10073918D01*
X42721658Y10218913D01*
X42704814Y10259577D01*
X42665084Y10355495D01*
X42582951Y10478416D01*
X42478415Y10582952D01*
X42355494Y10665085D01*
X42218917Y10721657D01*
X42218907Y10721660D01*
X42121811Y10740974D01*
X42073918Y10750500D01*
X41926082Y10750500D01*
X41884977Y10742324D01*
X41781092Y10721660D01*
X41781082Y10721657D01*
X41644505Y10665085D01*
X41521584Y10582952D01*
X41521583Y10582950D01*
X41417050Y10478417D01*
X41417048Y10478416D01*
X41334915Y10355495D01*
X41278343Y10218918D01*
X41278340Y10218908D01*
X41249500Y10073917D01*
X32270319Y10073917D01*
X32168716Y10175520D01*
X32031784Y10254577D01*
X32031781Y10254578D01*
X32031779Y10254579D01*
X31879059Y10295500D01*
X31879057Y10295500D01*
X31720943Y10295500D01*
X31720941Y10295500D01*
X31568220Y10254579D01*
X31568214Y10254576D01*
X31431283Y10175520D01*
X31319480Y10063717D01*
X31240424Y9926786D01*
X31240422Y9926781D01*
X31222147Y9858581D01*
X31187668Y9813649D01*
X31131515Y9806257D01*
X31086583Y9840736D01*
X31079193Y9858576D01*
X31059577Y9931784D01*
X30980520Y10068716D01*
X30868716Y10180520D01*
X30731784Y10259577D01*
X30731781Y10259578D01*
X30731779Y10259579D01*
X30579059Y10300500D01*
X30579057Y10300500D01*
X30420943Y10300500D01*
X30420941Y10300500D01*
X30268220Y10259579D01*
X30268214Y10259576D01*
X30131283Y10180520D01*
X30019480Y10068717D01*
X29940424Y9931786D01*
X29940421Y9931780D01*
X29899500Y9779060D01*
X20720818Y9779060D01*
X20721658Y9781087D01*
X20750500Y9926082D01*
X20750500Y10073918D01*
X20721658Y10218913D01*
X20704814Y10259577D01*
X20665084Y10355495D01*
X20582951Y10478416D01*
X20478415Y10582952D01*
X20355494Y10665085D01*
X20218917Y10721657D01*
X20218907Y10721660D01*
X20121811Y10740974D01*
X20073918Y10750500D01*
X19926082Y10750500D01*
X19884977Y10742324D01*
X19781092Y10721660D01*
X19781082Y10721657D01*
X19644505Y10665085D01*
X19521584Y10582952D01*
X19521583Y10582950D01*
X19417050Y10478417D01*
X19417048Y10478416D01*
X19334915Y10355495D01*
X19278343Y10218918D01*
X19278340Y10218908D01*
X19249500Y10073917D01*
X1750500Y10073917D01*
X1750500Y10073918D01*
X1721658Y10218913D01*
X1704814Y10259577D01*
X1665084Y10355495D01*
X1582951Y10478416D01*
X1478415Y10582952D01*
X1355494Y10665085D01*
X1218917Y10721657D01*
X1218907Y10721660D01*
X1121811Y10740974D01*
X1073918Y10750500D01*
X926082Y10750500D01*
X884977Y10742324D01*
X781092Y10721660D01*
X781082Y10721657D01*
X644505Y10665085D01*
X521584Y10582952D01*
X521583Y10582950D01*
X426826Y10488193D01*
X374500Y10466519D01*
X322174Y10488193D01*
X300500Y10540519D01*
X300500Y11164068D01*
X16099500Y11164068D01*
X16099500Y11035933D01*
X16124497Y10910261D01*
X16124498Y10910258D01*
X16150728Y10846932D01*
X16173535Y10791873D01*
X16244724Y10685331D01*
X16335331Y10594724D01*
X16441873Y10523535D01*
X16560256Y10474499D01*
X16560258Y10474499D01*
X16560260Y10474498D01*
X16600373Y10466519D01*
X16685931Y10449500D01*
X16685933Y10449500D01*
X16814067Y10449500D01*
X16814069Y10449500D01*
X16939744Y10474499D01*
X17058127Y10523535D01*
X17164669Y10594724D01*
X17255276Y10685331D01*
X17326465Y10791873D01*
X17375501Y10910256D01*
X17388393Y10975069D01*
X27349500Y10975069D01*
X27349500Y10846934D01*
X27374497Y10721262D01*
X27374498Y10721259D01*
X27397766Y10665084D01*
X27423535Y10602874D01*
X27436848Y10582950D01*
X27476547Y10523535D01*
X27494724Y10496332D01*
X27585331Y10405725D01*
X27691873Y10334536D01*
X27810256Y10285500D01*
X27810258Y10285500D01*
X27810260Y10285499D01*
X27852903Y10277017D01*
X27935931Y10260501D01*
X27935933Y10260501D01*
X28064067Y10260501D01*
X28064069Y10260501D01*
X28189744Y10285500D01*
X28308127Y10334536D01*
X28414669Y10405725D01*
X28505276Y10496332D01*
X28576465Y10602874D01*
X28625501Y10721257D01*
X28650500Y10846932D01*
X28650500Y10975070D01*
X28625501Y11100745D01*
X28576465Y11219128D01*
X28505276Y11325670D01*
X28414669Y11416277D01*
X28413512Y11417050D01*
X28379473Y11439794D01*
X28308127Y11487466D01*
X28308124Y11487468D01*
X28308123Y11487468D01*
X28189742Y11536503D01*
X28189739Y11536504D01*
X28099696Y11554415D01*
X28064069Y11561501D01*
X27935931Y11561501D01*
X27904726Y11555294D01*
X27810260Y11536504D01*
X27810257Y11536503D01*
X27691876Y11487468D01*
X27585331Y11416278D01*
X27585330Y11416276D01*
X27494725Y11325671D01*
X27494723Y11325670D01*
X27423533Y11219125D01*
X27374498Y11100744D01*
X27374497Y11100741D01*
X27349500Y10975069D01*
X17388393Y10975069D01*
X17400500Y11035931D01*
X17400500Y11164069D01*
X17375501Y11289744D01*
X17326465Y11408127D01*
X17255276Y11514669D01*
X17164669Y11605276D01*
X17058127Y11676465D01*
X17058124Y11676467D01*
X17058123Y11676467D01*
X16939742Y11725502D01*
X16939739Y11725503D01*
X16849696Y11743414D01*
X16814069Y11750500D01*
X16685931Y11750500D01*
X16654726Y11744293D01*
X16560260Y11725503D01*
X16560257Y11725502D01*
X16441876Y11676467D01*
X16335331Y11605277D01*
X16335330Y11605275D01*
X16244725Y11514670D01*
X16244723Y11514669D01*
X16173533Y11408124D01*
X16124498Y11289743D01*
X16124497Y11289740D01*
X16099500Y11164068D01*
X300500Y11164068D01*
X300500Y13438842D01*
X799500Y13438842D01*
X799500Y13281158D01*
X803609Y13260500D01*
X830261Y13126509D01*
X830264Y13126499D01*
X890603Y12980826D01*
X890605Y12980823D01*
X890606Y12980821D01*
X978211Y12849711D01*
X1089711Y12738211D01*
X1220821Y12650606D01*
X1220826Y12650604D01*
X1220825Y12650604D01*
X1299240Y12618124D01*
X1366503Y12590263D01*
X1521158Y12559500D01*
X1521160Y12559500D01*
X2478840Y12559500D01*
X2478842Y12559500D01*
X2633497Y12590263D01*
X2779179Y12650606D01*
X2910289Y12738211D01*
X3021789Y12849711D01*
X3109394Y12980821D01*
X3169737Y13126503D01*
X3200500Y13281158D01*
X3200500Y13438842D01*
X4829500Y13438842D01*
X4829500Y13281158D01*
X4833609Y13260500D01*
X4860261Y13126509D01*
X4860264Y13126499D01*
X4920603Y12980826D01*
X4920605Y12980823D01*
X4920606Y12980821D01*
X5008211Y12849711D01*
X5119711Y12738211D01*
X5250821Y12650606D01*
X5250826Y12650604D01*
X5250825Y12650604D01*
X5329240Y12618124D01*
X5396503Y12590263D01*
X5551158Y12559500D01*
X5551160Y12559500D01*
X6808840Y12559500D01*
X6808842Y12559500D01*
X6963497Y12590263D01*
X7109179Y12650606D01*
X7240289Y12738211D01*
X7351789Y12849711D01*
X7439394Y12980821D01*
X7477956Y13073918D01*
X8249500Y13073918D01*
X8249500Y12926082D01*
X8251083Y12918124D01*
X8278340Y12781093D01*
X8278343Y12781083D01*
X8334915Y12644506D01*
X8417048Y12521585D01*
X8521584Y12417049D01*
X8644505Y12334916D01*
X8748410Y12291877D01*
X8781087Y12278342D01*
X8926082Y12249500D01*
X8926084Y12249500D01*
X9073916Y12249500D01*
X9073918Y12249500D01*
X9218913Y12278342D01*
X9355495Y12334916D01*
X9478416Y12417049D01*
X9582951Y12521584D01*
X9665084Y12644505D01*
X9721658Y12781087D01*
X9738165Y12864069D01*
X11499500Y12864069D01*
X11499500Y12735931D01*
X11506586Y12700304D01*
X11524497Y12610261D01*
X11524498Y12610258D01*
X11570274Y12499744D01*
X11573535Y12491873D01*
X11644724Y12385331D01*
X11735331Y12294724D01*
X11841873Y12223535D01*
X11960256Y12174499D01*
X11960258Y12174499D01*
X11960260Y12174498D01*
X12002903Y12166016D01*
X12085931Y12149500D01*
X12085933Y12149500D01*
X12214067Y12149500D01*
X12214069Y12149500D01*
X12339744Y12174499D01*
X12458127Y12223535D01*
X12564669Y12294724D01*
X12655276Y12385331D01*
X12726465Y12491873D01*
X12775501Y12610256D01*
X12800500Y12735931D01*
X12800500Y12864069D01*
X12775501Y12989744D01*
X12740635Y13073918D01*
X22249500Y13073918D01*
X22249500Y12926082D01*
X22251083Y12918124D01*
X22278340Y12781093D01*
X22278343Y12781083D01*
X22334915Y12644506D01*
X22417048Y12521585D01*
X22521584Y12417049D01*
X22644505Y12334916D01*
X22748410Y12291877D01*
X22781087Y12278342D01*
X22926082Y12249500D01*
X22926084Y12249500D01*
X23073916Y12249500D01*
X23073918Y12249500D01*
X23218913Y12278342D01*
X23355495Y12334916D01*
X23478416Y12417049D01*
X23582951Y12521584D01*
X23665084Y12644505D01*
X23673187Y12664068D01*
X28834500Y12664068D01*
X28834500Y12535933D01*
X28859497Y12410261D01*
X28859498Y12410258D01*
X28907353Y12294725D01*
X28908535Y12291873D01*
X28954197Y12223535D01*
X28973041Y12195332D01*
X28979724Y12185331D01*
X29070331Y12094724D01*
X29176873Y12023535D01*
X29295256Y11974499D01*
X29295258Y11974499D01*
X29295260Y11974498D01*
X29337903Y11966016D01*
X29420931Y11949500D01*
X29420933Y11949500D01*
X29549067Y11949500D01*
X29549069Y11949500D01*
X29674744Y11974499D01*
X29793127Y12023535D01*
X29899669Y12094724D01*
X29990276Y12185331D01*
X30061465Y12291873D01*
X30110501Y12410256D01*
X30135500Y12535931D01*
X30135500Y12664069D01*
X30133511Y12674068D01*
X31999500Y12674068D01*
X31999500Y12545933D01*
X32024497Y12420261D01*
X32024498Y12420258D01*
X32030394Y12406023D01*
X32073535Y12301873D01*
X32144724Y12195331D01*
X32235331Y12104724D01*
X32341873Y12033535D01*
X32460256Y11984499D01*
X32460258Y11984499D01*
X32460260Y11984498D01*
X32502903Y11976016D01*
X32585931Y11959500D01*
X32585933Y11959500D01*
X32714067Y11959500D01*
X32714069Y11959500D01*
X32839744Y11984499D01*
X32958127Y12033535D01*
X33064669Y12104724D01*
X33155276Y12195331D01*
X33226465Y12301873D01*
X33256369Y12374068D01*
X35299500Y12374068D01*
X35299500Y12245933D01*
X35324497Y12120261D01*
X35324498Y12120258D01*
X35364562Y12023534D01*
X35373535Y12001873D01*
X35421207Y11930527D01*
X35424175Y11926084D01*
X35444724Y11895331D01*
X35535331Y11804724D01*
X35641873Y11733535D01*
X35760256Y11684499D01*
X35760258Y11684499D01*
X35760260Y11684498D01*
X35802903Y11676016D01*
X35885931Y11659500D01*
X35885933Y11659500D01*
X36014067Y11659500D01*
X36014069Y11659500D01*
X36139744Y11684499D01*
X36258127Y11733535D01*
X36364669Y11804724D01*
X36455276Y11895331D01*
X36526465Y12001873D01*
X36575501Y12120256D01*
X36600500Y12245931D01*
X36600500Y12374069D01*
X36575501Y12499744D01*
X36526465Y12618127D01*
X36455276Y12724669D01*
X36364669Y12815276D01*
X36258127Y12886465D01*
X36258124Y12886467D01*
X36258123Y12886467D01*
X36139742Y12935502D01*
X36139739Y12935503D01*
X36049696Y12953414D01*
X36014069Y12960500D01*
X35885931Y12960500D01*
X35854726Y12954293D01*
X35760260Y12935503D01*
X35760257Y12935502D01*
X35641876Y12886467D01*
X35535331Y12815277D01*
X35535330Y12815275D01*
X35444725Y12724670D01*
X35444723Y12724669D01*
X35373533Y12618124D01*
X35324498Y12499743D01*
X35324497Y12499740D01*
X35299500Y12374068D01*
X33256369Y12374068D01*
X33275501Y12420256D01*
X33300500Y12545931D01*
X33300500Y12674069D01*
X33277491Y12789740D01*
X33275502Y12799740D01*
X33275501Y12799743D01*
X33269067Y12815275D01*
X33226465Y12918127D01*
X33155276Y13024669D01*
X33106027Y13073918D01*
X45249500Y13073918D01*
X45249500Y12926082D01*
X45251083Y12918124D01*
X45278340Y12781093D01*
X45278343Y12781083D01*
X45334915Y12644506D01*
X45417048Y12521585D01*
X45521584Y12417049D01*
X45644505Y12334916D01*
X45748410Y12291877D01*
X45781087Y12278342D01*
X45926082Y12249500D01*
X45926084Y12249500D01*
X46073916Y12249500D01*
X46073918Y12249500D01*
X46218913Y12278342D01*
X46355495Y12334916D01*
X46478416Y12417049D01*
X46582951Y12521584D01*
X46665084Y12644505D01*
X46721658Y12781087D01*
X46750500Y12926082D01*
X46750500Y13073918D01*
X49249500Y13073918D01*
X49249500Y12926082D01*
X49251083Y12918124D01*
X49278340Y12781093D01*
X49278343Y12781083D01*
X49334915Y12644506D01*
X49417048Y12521585D01*
X49521584Y12417049D01*
X49644505Y12334916D01*
X49748410Y12291877D01*
X49781087Y12278342D01*
X49926082Y12249500D01*
X49926084Y12249500D01*
X50073916Y12249500D01*
X50073918Y12249500D01*
X50218913Y12278342D01*
X50355495Y12334916D01*
X50478416Y12417049D01*
X50582951Y12521584D01*
X50665084Y12644505D01*
X50721658Y12781087D01*
X50750500Y12926082D01*
X50750500Y13073918D01*
X50721658Y13218913D01*
X50708988Y13249500D01*
X50665084Y13355495D01*
X50582951Y13478416D01*
X50478415Y13582952D01*
X50355494Y13665085D01*
X50218917Y13721657D01*
X50218907Y13721660D01*
X50121811Y13740974D01*
X50073918Y13750500D01*
X49926082Y13750500D01*
X49884977Y13742324D01*
X49781092Y13721660D01*
X49781082Y13721657D01*
X49644505Y13665085D01*
X49521584Y13582952D01*
X49521583Y13582950D01*
X49417050Y13478417D01*
X49417048Y13478416D01*
X49334915Y13355495D01*
X49278343Y13218918D01*
X49278340Y13218908D01*
X49256305Y13108127D01*
X49249500Y13073918D01*
X46750500Y13073918D01*
X46721658Y13218913D01*
X46708988Y13249500D01*
X46665084Y13355495D01*
X46582951Y13478416D01*
X46478415Y13582952D01*
X46355494Y13665085D01*
X46218917Y13721657D01*
X46218907Y13721660D01*
X46121811Y13740974D01*
X46073918Y13750500D01*
X45926082Y13750500D01*
X45884977Y13742324D01*
X45781092Y13721660D01*
X45781082Y13721657D01*
X45644505Y13665085D01*
X45521584Y13582952D01*
X45521583Y13582950D01*
X45417050Y13478417D01*
X45417048Y13478416D01*
X45334915Y13355495D01*
X45278343Y13218918D01*
X45278340Y13218908D01*
X45256305Y13108127D01*
X45249500Y13073918D01*
X33106027Y13073918D01*
X33064669Y13115276D01*
X32958127Y13186465D01*
X32958124Y13186467D01*
X32958123Y13186467D01*
X32839742Y13235502D01*
X32839739Y13235503D01*
X32749696Y13253414D01*
X32714069Y13260500D01*
X32585931Y13260500D01*
X32554726Y13254293D01*
X32460260Y13235503D01*
X32460257Y13235502D01*
X32341876Y13186467D01*
X32235331Y13115277D01*
X32235330Y13115275D01*
X32144725Y13024670D01*
X32144723Y13024669D01*
X32073533Y12918124D01*
X32024498Y12799743D01*
X32024497Y12799740D01*
X31999500Y12674068D01*
X30133511Y12674068D01*
X30110501Y12789744D01*
X30061465Y12908127D01*
X29990276Y13014669D01*
X29899669Y13105276D01*
X29898777Y13105872D01*
X29864473Y13128793D01*
X29793127Y13176465D01*
X29793124Y13176467D01*
X29793123Y13176467D01*
X29674742Y13225502D01*
X29674739Y13225503D01*
X29584696Y13243414D01*
X29549069Y13250500D01*
X29420931Y13250500D01*
X29389726Y13244293D01*
X29295260Y13225503D01*
X29295257Y13225502D01*
X29176876Y13176467D01*
X29070331Y13105277D01*
X29070330Y13105275D01*
X28979725Y13014670D01*
X28979723Y13014669D01*
X28908533Y12908124D01*
X28859498Y12789743D01*
X28859497Y12789740D01*
X28834500Y12664068D01*
X23673187Y12664068D01*
X23721658Y12781087D01*
X23750500Y12926082D01*
X23750500Y13073918D01*
X23721658Y13218913D01*
X23708988Y13249500D01*
X23665084Y13355495D01*
X23582951Y13478416D01*
X23478415Y13582952D01*
X23355494Y13665085D01*
X23218917Y13721657D01*
X23218907Y13721660D01*
X23121811Y13740974D01*
X23073918Y13750500D01*
X22926082Y13750500D01*
X22884977Y13742324D01*
X22781092Y13721660D01*
X22781082Y13721657D01*
X22644505Y13665085D01*
X22521584Y13582952D01*
X22521583Y13582950D01*
X22417050Y13478417D01*
X22417048Y13478416D01*
X22334915Y13355495D01*
X22278343Y13218918D01*
X22278340Y13218908D01*
X22256305Y13108127D01*
X22249500Y13073918D01*
X12740635Y13073918D01*
X12726467Y13108123D01*
X12726466Y13108125D01*
X12726465Y13108127D01*
X12655276Y13214669D01*
X12564669Y13305276D01*
X12458127Y13376465D01*
X12458124Y13376467D01*
X12458123Y13376467D01*
X12339742Y13425502D01*
X12339739Y13425503D01*
X12249696Y13443414D01*
X12214069Y13450500D01*
X12085931Y13450500D01*
X12054726Y13444293D01*
X11960260Y13425503D01*
X11960257Y13425502D01*
X11841876Y13376467D01*
X11735331Y13305277D01*
X11735330Y13305275D01*
X11644725Y13214670D01*
X11644723Y13214669D01*
X11573533Y13108124D01*
X11524498Y12989743D01*
X11524497Y12989740D01*
X11508264Y12908127D01*
X11499500Y12864069D01*
X9738165Y12864069D01*
X9750500Y12926082D01*
X9750500Y13073918D01*
X9721658Y13218913D01*
X9708988Y13249500D01*
X9665084Y13355495D01*
X9582951Y13478416D01*
X9478415Y13582952D01*
X9355494Y13665085D01*
X9218917Y13721657D01*
X9218907Y13721660D01*
X9121811Y13740974D01*
X9073918Y13750500D01*
X8926082Y13750500D01*
X8884977Y13742324D01*
X8781092Y13721660D01*
X8781082Y13721657D01*
X8644505Y13665085D01*
X8521584Y13582952D01*
X8521583Y13582950D01*
X8417050Y13478417D01*
X8417048Y13478416D01*
X8334915Y13355495D01*
X8278343Y13218918D01*
X8278340Y13218908D01*
X8256305Y13108127D01*
X8249500Y13073918D01*
X7477956Y13073918D01*
X7499737Y13126503D01*
X7530500Y13281158D01*
X7530500Y13438842D01*
X7499737Y13593497D01*
X7446652Y13721657D01*
X7439396Y13739175D01*
X7439395Y13739177D01*
X7439394Y13739179D01*
X7351789Y13870289D01*
X7240289Y13981789D01*
X7109179Y14069394D01*
X7109175Y14069396D01*
X7109173Y14069397D01*
X7109174Y14069397D01*
X7098262Y14073917D01*
X16249500Y14073917D01*
X16249500Y13926084D01*
X16278340Y13781093D01*
X16278343Y13781083D01*
X16334915Y13644506D01*
X16417048Y13521585D01*
X16521584Y13417049D01*
X16644505Y13334916D01*
X16774288Y13281158D01*
X16781087Y13278342D01*
X16926082Y13249500D01*
X16926084Y13249500D01*
X17073916Y13249500D01*
X17073918Y13249500D01*
X17218913Y13278342D01*
X17355495Y13334916D01*
X17478416Y13417049D01*
X17582951Y13521584D01*
X17665084Y13644505D01*
X17721658Y13781087D01*
X17750500Y13926082D01*
X17750500Y14073918D01*
X17721658Y14218913D01*
X17665084Y14355495D01*
X17582951Y14478416D01*
X17478416Y14582951D01*
X17425600Y14618242D01*
X17355494Y14665085D01*
X17218917Y14721657D01*
X17218907Y14721660D01*
X17121811Y14740974D01*
X17073918Y14750500D01*
X16926082Y14750500D01*
X16884977Y14742324D01*
X16781092Y14721660D01*
X16781082Y14721657D01*
X16644505Y14665085D01*
X16521584Y14582952D01*
X16521583Y14582950D01*
X16417050Y14478417D01*
X16417048Y14478416D01*
X16334915Y14355495D01*
X16278343Y14218918D01*
X16278340Y14218908D01*
X16249500Y14073917D01*
X7098262Y14073917D01*
X6963501Y14129736D01*
X6963491Y14129739D01*
X6859925Y14150339D01*
X6808842Y14160500D01*
X5551158Y14160500D01*
X5507315Y14151780D01*
X5396508Y14129739D01*
X5396498Y14129736D01*
X5250825Y14069397D01*
X5119711Y13981790D01*
X5119710Y13981788D01*
X5008212Y13870290D01*
X5008210Y13870289D01*
X4920603Y13739175D01*
X4860264Y13593502D01*
X4860261Y13593492D01*
X4845958Y13521583D01*
X4829500Y13438842D01*
X3200500Y13438842D01*
X3169737Y13593497D01*
X3116652Y13721657D01*
X3109396Y13739175D01*
X3109395Y13739177D01*
X3109394Y13739179D01*
X3021789Y13870289D01*
X2910289Y13981789D01*
X2779179Y14069394D01*
X2779175Y14069396D01*
X2779173Y14069397D01*
X2779174Y14069397D01*
X2633501Y14129736D01*
X2633491Y14129739D01*
X2529925Y14150339D01*
X2478842Y14160500D01*
X1521158Y14160500D01*
X1477315Y14151780D01*
X1366508Y14129739D01*
X1366498Y14129736D01*
X1220825Y14069397D01*
X1089711Y13981790D01*
X1089710Y13981788D01*
X978212Y13870290D01*
X978210Y13870289D01*
X890603Y13739175D01*
X830264Y13593502D01*
X830261Y13593492D01*
X815958Y13521583D01*
X799500Y13438842D01*
X300500Y13438842D01*
X300500Y14846021D01*
X5254500Y14846021D01*
X5254500Y14733980D01*
X5283495Y14625768D01*
X5283499Y14625759D01*
X5308215Y14582950D01*
X5339515Y14528737D01*
X5418737Y14449515D01*
X5515763Y14393497D01*
X5623979Y14364501D01*
X5623980Y14364500D01*
X5623982Y14364500D01*
X5736020Y14364500D01*
X5736020Y14364501D01*
X5844237Y14393497D01*
X5941263Y14449515D01*
X6020485Y14528737D01*
X6076503Y14625763D01*
X6105499Y14733980D01*
X6105500Y14733980D01*
X6105500Y14846020D01*
X6105499Y14846021D01*
X6076504Y14954233D01*
X6076503Y14954237D01*
X6020485Y15051263D01*
X5941263Y15130485D01*
X5866865Y15173439D01*
X5866860Y15173442D01*
X20848200Y15173442D01*
X20848200Y15016559D01*
X20888801Y14865033D01*
X20888803Y14865030D01*
X20967241Y14729170D01*
X21078170Y14618241D01*
X21214030Y14539803D01*
X21214032Y14539802D01*
X21320542Y14511263D01*
X21365558Y14499201D01*
X21365559Y14499200D01*
X21365561Y14499200D01*
X21522441Y14499200D01*
X21522441Y14499201D01*
X21632672Y14528737D01*
X21673967Y14539802D01*
X21673967Y14539803D01*
X21673970Y14539803D01*
X21809830Y14618241D01*
X21920759Y14729170D01*
X21999197Y14865030D01*
X22039799Y15016559D01*
X22039800Y15016559D01*
X22039800Y15173442D01*
X22880200Y15173442D01*
X22880200Y15016559D01*
X22920801Y14865033D01*
X22920803Y14865030D01*
X22999241Y14729170D01*
X23110170Y14618241D01*
X23246030Y14539803D01*
X23246032Y14539802D01*
X23352542Y14511263D01*
X23397558Y14499201D01*
X23397559Y14499200D01*
X23397561Y14499200D01*
X23554441Y14499200D01*
X23554441Y14499201D01*
X23664672Y14528737D01*
X23705967Y14539802D01*
X23705967Y14539803D01*
X23705970Y14539803D01*
X23841830Y14618241D01*
X23952759Y14729170D01*
X24031197Y14865030D01*
X24071799Y15016559D01*
X24071800Y15016559D01*
X24071800Y15173442D01*
X24031198Y15324968D01*
X23978910Y15415534D01*
X23952759Y15460830D01*
X23841830Y15571759D01*
X23715829Y15644505D01*
X23705967Y15650199D01*
X23554441Y15690800D01*
X23554439Y15690800D01*
X23397561Y15690800D01*
X23397559Y15690800D01*
X23246032Y15650199D01*
X23110169Y15571759D01*
X22999241Y15460831D01*
X22920801Y15324968D01*
X22880200Y15173442D01*
X22039800Y15173442D01*
X21999198Y15324968D01*
X21946910Y15415534D01*
X21920759Y15460830D01*
X21809830Y15571759D01*
X21683829Y15644505D01*
X21673967Y15650199D01*
X21522441Y15690800D01*
X21522439Y15690800D01*
X21365561Y15690800D01*
X21365559Y15690800D01*
X21214032Y15650199D01*
X21078169Y15571759D01*
X20967241Y15460831D01*
X20888801Y15324968D01*
X20848200Y15173442D01*
X5866860Y15173442D01*
X5844241Y15186501D01*
X5844232Y15186505D01*
X5736020Y15215500D01*
X5736018Y15215500D01*
X5623982Y15215500D01*
X5623980Y15215500D01*
X5515767Y15186505D01*
X5515758Y15186501D01*
X5418736Y15130485D01*
X5339515Y15051264D01*
X5283499Y14954242D01*
X5283495Y14954233D01*
X5254500Y14846021D01*
X300500Y14846021D01*
X300500Y15459481D01*
X322174Y15511807D01*
X374500Y15533481D01*
X426826Y15511807D01*
X521584Y15417049D01*
X644505Y15334916D01*
X781087Y15278342D01*
X926082Y15249500D01*
X926084Y15249500D01*
X1073916Y15249500D01*
X1073918Y15249500D01*
X1218913Y15278342D01*
X1355495Y15334916D01*
X1478416Y15417049D01*
X1582951Y15521584D01*
X1665084Y15644505D01*
X1721658Y15781087D01*
X1750500Y15926082D01*
X1750500Y16073918D01*
X1721658Y16218913D01*
X1714857Y16235331D01*
X1665084Y16355495D01*
X1582951Y16478416D01*
X1478415Y16582952D01*
X1355494Y16665085D01*
X1218917Y16721657D01*
X1218907Y16721660D01*
X1121811Y16740974D01*
X1073918Y16750500D01*
X926082Y16750500D01*
X884977Y16742324D01*
X781092Y16721660D01*
X781082Y16721657D01*
X644505Y16665085D01*
X521584Y16582952D01*
X521583Y16582950D01*
X426826Y16488193D01*
X374500Y16466519D01*
X322174Y16488193D01*
X300500Y16540519D01*
X300500Y17064069D01*
X10749500Y17064069D01*
X10749500Y16935931D01*
X10755031Y16908127D01*
X10774497Y16810261D01*
X10774498Y16810258D01*
X10820829Y16698404D01*
X10823535Y16691873D01*
X10841435Y16665084D01*
X10894321Y16585933D01*
X10894724Y16585331D01*
X10985331Y16494724D01*
X11091873Y16423535D01*
X11210256Y16374499D01*
X11210258Y16374499D01*
X11210260Y16374498D01*
X11252903Y16366016D01*
X11335931Y16349500D01*
X11335933Y16349500D01*
X11464067Y16349500D01*
X11464069Y16349500D01*
X11589744Y16374499D01*
X11708127Y16423535D01*
X11814669Y16494724D01*
X11905276Y16585331D01*
X11976465Y16691873D01*
X12025501Y16810256D01*
X12050500Y16935931D01*
X12050500Y17064069D01*
X12046628Y17083535D01*
X12045375Y17089835D01*
X12043081Y17101365D01*
X18632050Y17101365D01*
X18632050Y16898636D01*
X18663762Y16698407D01*
X18663765Y16698394D01*
X18726406Y16505607D01*
X18818445Y16324967D01*
X18937313Y16161360D01*
X18937606Y16160957D01*
X19080957Y16017606D01*
X19080960Y16017604D01*
X19080961Y16017603D01*
X19244966Y15898446D01*
X19312436Y15864069D01*
X19425599Y15806410D01*
X19425602Y15806410D01*
X19425606Y15806407D01*
X19618393Y15743766D01*
X19618399Y15743765D01*
X19618404Y15743763D01*
X19751892Y15722621D01*
X19818635Y15712050D01*
X19818636Y15712050D01*
X20021365Y15712050D01*
X20071422Y15719979D01*
X20221596Y15743763D01*
X20221603Y15743766D01*
X20221606Y15743766D01*
X20414393Y15806407D01*
X20414395Y15806409D01*
X20414401Y15806410D01*
X20595033Y15898446D01*
X20759043Y16017606D01*
X20902394Y16160957D01*
X21021554Y16324967D01*
X21113590Y16505599D01*
X21123447Y16535933D01*
X21176234Y16698394D01*
X21176235Y16698398D01*
X21176237Y16698404D01*
X21207950Y16898636D01*
X21207950Y17101364D01*
X21207950Y17101365D01*
X23712050Y17101365D01*
X23712050Y16898636D01*
X23743762Y16698407D01*
X23743765Y16698394D01*
X23806406Y16505607D01*
X23898445Y16324967D01*
X24017313Y16161360D01*
X24017606Y16160957D01*
X24160957Y16017606D01*
X24160960Y16017604D01*
X24160961Y16017603D01*
X24324966Y15898446D01*
X24392436Y15864069D01*
X24505599Y15806410D01*
X24505602Y15806410D01*
X24505606Y15806407D01*
X24698393Y15743766D01*
X24698399Y15743765D01*
X24698404Y15743763D01*
X24831892Y15722621D01*
X24898635Y15712050D01*
X24898636Y15712050D01*
X25101365Y15712050D01*
X25151422Y15719979D01*
X25301596Y15743763D01*
X25301603Y15743766D01*
X25301606Y15743766D01*
X25494393Y15806407D01*
X25494395Y15806409D01*
X25494401Y15806410D01*
X25675033Y15898446D01*
X25839043Y16017606D01*
X25982394Y16160957D01*
X26101554Y16324967D01*
X26193590Y16505599D01*
X26203446Y16535931D01*
X26212589Y16564069D01*
X26799500Y16564069D01*
X26799500Y16435931D01*
X26801575Y16425502D01*
X26824497Y16310261D01*
X26824498Y16310258D01*
X26864092Y16214669D01*
X26873535Y16191873D01*
X26944724Y16085331D01*
X27035331Y15994724D01*
X27141873Y15923535D01*
X27260256Y15874499D01*
X27260258Y15874499D01*
X27260260Y15874498D01*
X27302903Y15866016D01*
X27385931Y15849500D01*
X27385933Y15849500D01*
X27514067Y15849500D01*
X27514069Y15849500D01*
X27639744Y15874499D01*
X27758127Y15923535D01*
X27864669Y15994724D01*
X27945174Y16075229D01*
X27997500Y16096903D01*
X28049826Y16075229D01*
X28085331Y16039724D01*
X28191873Y15968535D01*
X28310256Y15919499D01*
X28310258Y15919499D01*
X28310260Y15919498D01*
X28352903Y15911016D01*
X28435931Y15894500D01*
X28435933Y15894500D01*
X28564067Y15894500D01*
X28564069Y15894500D01*
X28689744Y15919499D01*
X28808127Y15968535D01*
X28914669Y16039724D01*
X28931014Y16056069D01*
X30695500Y16056069D01*
X30695500Y15927931D01*
X30701365Y15898446D01*
X30720497Y15802261D01*
X30720498Y15802258D01*
X30766665Y15690800D01*
X30769535Y15683873D01*
X30840724Y15577331D01*
X30931331Y15486724D01*
X31037873Y15415535D01*
X31156256Y15366499D01*
X31156258Y15366499D01*
X31156260Y15366498D01*
X31198903Y15358016D01*
X31281931Y15341500D01*
X31281933Y15341500D01*
X31410067Y15341500D01*
X31410069Y15341500D01*
X31535744Y15366499D01*
X31654127Y15415535D01*
X31760669Y15486724D01*
X31851276Y15577331D01*
X31922465Y15683873D01*
X31971501Y15802256D01*
X31996500Y15927931D01*
X31996500Y16056069D01*
X32981500Y16056069D01*
X32981500Y15927931D01*
X32987365Y15898446D01*
X33006497Y15802261D01*
X33006498Y15802258D01*
X33052665Y15690800D01*
X33055535Y15683873D01*
X33126724Y15577331D01*
X33217331Y15486724D01*
X33323873Y15415535D01*
X33442256Y15366499D01*
X33442258Y15366499D01*
X33442260Y15366498D01*
X33484903Y15358016D01*
X33567931Y15341500D01*
X33567933Y15341500D01*
X33696067Y15341500D01*
X33696069Y15341500D01*
X33821744Y15366499D01*
X33940127Y15415535D01*
X34046669Y15486724D01*
X34137276Y15577331D01*
X34208465Y15683873D01*
X34257501Y15802256D01*
X34282500Y15927931D01*
X34282500Y16056069D01*
X34278026Y16078558D01*
X34289074Y16134104D01*
X34336165Y16165571D01*
X34378922Y16161360D01*
X34458253Y16128500D01*
X34458260Y16128498D01*
X34494386Y16121312D01*
X34583931Y16103500D01*
X34583933Y16103500D01*
X34712067Y16103500D01*
X34712069Y16103500D01*
X34837744Y16128499D01*
X34917077Y16161360D01*
X34973713Y16161360D01*
X35013762Y16121312D01*
X35017973Y16078557D01*
X35017311Y16075229D01*
X35013500Y16056069D01*
X35013500Y15927931D01*
X35019365Y15898446D01*
X35038497Y15802261D01*
X35038498Y15802258D01*
X35084665Y15690800D01*
X35087535Y15683873D01*
X35158724Y15577331D01*
X35249331Y15486724D01*
X35355873Y15415535D01*
X35474256Y15366499D01*
X35474258Y15366499D01*
X35474260Y15366498D01*
X35516903Y15358016D01*
X35599931Y15341500D01*
X35599933Y15341500D01*
X35728067Y15341500D01*
X35728069Y15341500D01*
X35853744Y15366499D01*
X35972127Y15415535D01*
X36078669Y15486724D01*
X36169276Y15577331D01*
X36240465Y15683873D01*
X36289501Y15802256D01*
X36301797Y15864068D01*
X37749500Y15864068D01*
X37749500Y15735933D01*
X37774497Y15610261D01*
X37774498Y15610258D01*
X37811228Y15521583D01*
X37823535Y15491873D01*
X37894724Y15385331D01*
X37985331Y15294724D01*
X38091873Y15223535D01*
X38210256Y15174499D01*
X38210258Y15174499D01*
X38210260Y15174498D01*
X38252903Y15166016D01*
X38335931Y15149500D01*
X38335933Y15149500D01*
X38464067Y15149500D01*
X38464069Y15149500D01*
X38589744Y15174499D01*
X38708127Y15223535D01*
X38814669Y15294724D01*
X38905276Y15385331D01*
X38976465Y15491873D01*
X39025501Y15610256D01*
X39050500Y15735931D01*
X39050500Y15864069D01*
X39025501Y15989744D01*
X38990635Y16073918D01*
X41249500Y16073918D01*
X41249500Y15926082D01*
X41250810Y15919498D01*
X41278340Y15781093D01*
X41278343Y15781083D01*
X41334915Y15644506D01*
X41409100Y15533481D01*
X41417049Y15521584D01*
X41521584Y15417049D01*
X41644505Y15334916D01*
X41781087Y15278342D01*
X41926082Y15249500D01*
X41926084Y15249500D01*
X42073916Y15249500D01*
X42073918Y15249500D01*
X42218913Y15278342D01*
X42355495Y15334916D01*
X42478416Y15417049D01*
X42582951Y15521584D01*
X42665084Y15644505D01*
X42721658Y15781087D01*
X42750500Y15926082D01*
X42750500Y16073918D01*
X42721658Y16218913D01*
X42714857Y16235331D01*
X42665084Y16355495D01*
X42582951Y16478416D01*
X42478415Y16582952D01*
X42368828Y16656175D01*
X42368827Y16656176D01*
X42355495Y16665085D01*
X42237236Y16714069D01*
X48649500Y16714069D01*
X48649500Y16585931D01*
X48653811Y16564261D01*
X48674497Y16460261D01*
X48674498Y16460258D01*
X48720375Y16349500D01*
X48723535Y16341873D01*
X48747989Y16305275D01*
X48794720Y16235336D01*
X48794724Y16235331D01*
X48885331Y16144724D01*
X48991873Y16073535D01*
X49110256Y16024499D01*
X49110258Y16024499D01*
X49110260Y16024498D01*
X49152903Y16016016D01*
X49235931Y15999500D01*
X49235933Y15999500D01*
X49364067Y15999500D01*
X49364069Y15999500D01*
X49489744Y16024499D01*
X49608127Y16073535D01*
X49714669Y16144724D01*
X49805276Y16235331D01*
X49876465Y16341873D01*
X49925501Y16460256D01*
X49950500Y16585931D01*
X49950500Y16714069D01*
X50149500Y16714069D01*
X50149500Y16585931D01*
X50153811Y16564261D01*
X50174497Y16460261D01*
X50174498Y16460258D01*
X50220375Y16349500D01*
X50223535Y16341873D01*
X50247989Y16305275D01*
X50294720Y16235336D01*
X50294724Y16235331D01*
X50385331Y16144724D01*
X50491873Y16073535D01*
X50610256Y16024499D01*
X50610258Y16024499D01*
X50610260Y16024498D01*
X50652903Y16016016D01*
X50735931Y15999500D01*
X50735933Y15999500D01*
X50864067Y15999500D01*
X50864069Y15999500D01*
X50989744Y16024499D01*
X51108127Y16073535D01*
X51214669Y16144724D01*
X51305276Y16235331D01*
X51376465Y16341873D01*
X51376467Y16341879D01*
X51377552Y16343502D01*
X51424643Y16374969D01*
X51480192Y16363920D01*
X51507448Y16330710D01*
X51517983Y16305275D01*
X51523535Y16291873D01*
X51594724Y16185331D01*
X51685331Y16094724D01*
X51791873Y16023535D01*
X51910256Y15974499D01*
X51910258Y15974499D01*
X51910260Y15974498D01*
X51940238Y15968535D01*
X52035931Y15949500D01*
X52035933Y15949500D01*
X52164067Y15949500D01*
X52164069Y15949500D01*
X52289744Y15974499D01*
X52408127Y16023535D01*
X52514669Y16094724D01*
X52605276Y16185331D01*
X52676465Y16291873D01*
X52725501Y16410256D01*
X52750500Y16535931D01*
X52750500Y16664069D01*
X52736442Y16734743D01*
X52725502Y16789740D01*
X52725501Y16789743D01*
X52717887Y16808124D01*
X52676465Y16908127D01*
X52605276Y17014669D01*
X52514669Y17105276D01*
X52490440Y17121465D01*
X52446986Y17150500D01*
X52408127Y17176465D01*
X52408124Y17176467D01*
X52408123Y17176467D01*
X52289742Y17225502D01*
X52289739Y17225503D01*
X52199696Y17243414D01*
X52164069Y17250500D01*
X52035931Y17250500D01*
X52004726Y17244293D01*
X51910260Y17225503D01*
X51910257Y17225502D01*
X51791876Y17176467D01*
X51685331Y17105277D01*
X51685330Y17105275D01*
X51594725Y17014670D01*
X51594723Y17014669D01*
X51564724Y16969771D01*
X51527907Y16914669D01*
X51522447Y16906498D01*
X51475355Y16875032D01*
X51419806Y16886081D01*
X51392551Y16919292D01*
X51376467Y16958123D01*
X51376466Y16958125D01*
X51376465Y16958127D01*
X51305276Y17064669D01*
X51214669Y17155276D01*
X51194623Y17168670D01*
X51154469Y17195500D01*
X51108127Y17226465D01*
X51108124Y17226467D01*
X51108123Y17226467D01*
X50989742Y17275502D01*
X50989739Y17275503D01*
X50899696Y17293414D01*
X50864069Y17300500D01*
X50735931Y17300500D01*
X50704726Y17294293D01*
X50610260Y17275503D01*
X50610257Y17275502D01*
X50491876Y17226467D01*
X50385331Y17155277D01*
X50385330Y17155275D01*
X50294725Y17064670D01*
X50294723Y17064669D01*
X50223533Y16958124D01*
X50174498Y16839743D01*
X50174497Y16839740D01*
X50164552Y16789740D01*
X50149500Y16714069D01*
X49950500Y16714069D01*
X49925501Y16839744D01*
X49876465Y16958127D01*
X49805276Y17064669D01*
X49714669Y17155276D01*
X49694623Y17168670D01*
X49654469Y17195500D01*
X49608127Y17226465D01*
X49608124Y17226467D01*
X49608123Y17226467D01*
X49489742Y17275502D01*
X49489739Y17275503D01*
X49399696Y17293414D01*
X49364069Y17300500D01*
X49235931Y17300500D01*
X49204726Y17294293D01*
X49110260Y17275503D01*
X49110257Y17275502D01*
X48991876Y17226467D01*
X48885331Y17155277D01*
X48885330Y17155275D01*
X48794725Y17064670D01*
X48794723Y17064669D01*
X48723533Y16958124D01*
X48674498Y16839743D01*
X48674497Y16839740D01*
X48664552Y16789740D01*
X48649500Y16714069D01*
X42237236Y16714069D01*
X42218917Y16721657D01*
X42218907Y16721660D01*
X42121811Y16740974D01*
X42073918Y16750500D01*
X41926082Y16750500D01*
X41884977Y16742324D01*
X41781092Y16721660D01*
X41781082Y16721657D01*
X41644505Y16665085D01*
X41521584Y16582952D01*
X41521583Y16582950D01*
X41417050Y16478417D01*
X41417048Y16478416D01*
X41334915Y16355495D01*
X41278343Y16218918D01*
X41278340Y16218908D01*
X41260721Y16130330D01*
X41249500Y16073918D01*
X38990635Y16073918D01*
X38988715Y16078554D01*
X38976467Y16108123D01*
X38976466Y16108125D01*
X38976465Y16108127D01*
X38905276Y16214669D01*
X38814669Y16305276D01*
X38807208Y16310261D01*
X38776604Y16330710D01*
X38708127Y16376465D01*
X38708124Y16376467D01*
X38708123Y16376467D01*
X38589742Y16425502D01*
X38589739Y16425503D01*
X38499696Y16443414D01*
X38464069Y16450500D01*
X38335931Y16450500D01*
X38304726Y16444293D01*
X38210260Y16425503D01*
X38210257Y16425502D01*
X38091876Y16376467D01*
X37985331Y16305277D01*
X37985330Y16305275D01*
X37894725Y16214670D01*
X37894723Y16214669D01*
X37823533Y16108124D01*
X37774498Y15989743D01*
X37774497Y15989740D01*
X37749500Y15864068D01*
X36301797Y15864068D01*
X36314500Y15927931D01*
X36314500Y16056069D01*
X36292718Y16165571D01*
X36289502Y16181740D01*
X36289501Y16181743D01*
X36288015Y16185330D01*
X36240465Y16300127D01*
X36169276Y16406669D01*
X36078669Y16497276D01*
X35972127Y16568465D01*
X35972124Y16568467D01*
X35972123Y16568467D01*
X35853742Y16617502D01*
X35853739Y16617503D01*
X35763696Y16635414D01*
X35728069Y16642500D01*
X35599931Y16642500D01*
X35568726Y16636293D01*
X35474260Y16617503D01*
X35474253Y16617501D01*
X35394922Y16584641D01*
X35338285Y16584641D01*
X35298237Y16624690D01*
X35294026Y16667442D01*
X35298500Y16689931D01*
X35298500Y16818069D01*
X35280681Y16907650D01*
X35273502Y16943740D01*
X35273501Y16943743D01*
X35267544Y16958124D01*
X35224465Y17062127D01*
X35153276Y17168669D01*
X35062669Y17259276D01*
X34956127Y17330465D01*
X34956124Y17330467D01*
X34956123Y17330467D01*
X34837742Y17379502D01*
X34837739Y17379503D01*
X34742237Y17398499D01*
X34712069Y17404500D01*
X34583931Y17404500D01*
X34553763Y17398499D01*
X34458260Y17379503D01*
X34458257Y17379502D01*
X34339876Y17330467D01*
X34233331Y17259277D01*
X34233330Y17259275D01*
X34142725Y17168670D01*
X34142723Y17168669D01*
X34071533Y17062124D01*
X34022498Y16943743D01*
X34022497Y16943740D01*
X34004473Y16853124D01*
X33997500Y16818069D01*
X33997500Y16689931D01*
X34001973Y16667445D01*
X33990924Y16611896D01*
X33943832Y16580430D01*
X33901077Y16584641D01*
X33821746Y16617501D01*
X33821739Y16617503D01*
X33731696Y16635414D01*
X33696069Y16642500D01*
X33567931Y16642500D01*
X33536726Y16636293D01*
X33442260Y16617503D01*
X33442257Y16617502D01*
X33323876Y16568467D01*
X33217331Y16497277D01*
X33217330Y16497275D01*
X33126725Y16406670D01*
X33126723Y16406669D01*
X33055533Y16300124D01*
X33006498Y16181743D01*
X33006497Y16181740D01*
X32989189Y16094725D01*
X32981500Y16056069D01*
X31996500Y16056069D01*
X31992026Y16078558D01*
X32003074Y16134104D01*
X32050165Y16165571D01*
X32092922Y16161360D01*
X32172253Y16128500D01*
X32172260Y16128498D01*
X32208386Y16121312D01*
X32297931Y16103500D01*
X32297933Y16103500D01*
X32426067Y16103500D01*
X32426069Y16103500D01*
X32551744Y16128499D01*
X32670127Y16177535D01*
X32776669Y16248724D01*
X32867276Y16339331D01*
X32938465Y16445873D01*
X32987501Y16564256D01*
X33012500Y16689931D01*
X33012500Y16818069D01*
X32994681Y16907650D01*
X32987502Y16943740D01*
X32987501Y16943743D01*
X32981544Y16958124D01*
X32938465Y17062127D01*
X32867276Y17168669D01*
X32776669Y17259276D01*
X32670127Y17330465D01*
X32670124Y17330467D01*
X32670123Y17330467D01*
X32551742Y17379502D01*
X32551739Y17379503D01*
X32456237Y17398499D01*
X32426069Y17404500D01*
X32297931Y17404500D01*
X32267763Y17398499D01*
X32172260Y17379503D01*
X32172257Y17379502D01*
X32053876Y17330467D01*
X31947331Y17259277D01*
X31947330Y17259275D01*
X31856725Y17168670D01*
X31856723Y17168669D01*
X31785533Y17062124D01*
X31736498Y16943743D01*
X31736497Y16943740D01*
X31718473Y16853124D01*
X31711500Y16818069D01*
X31711500Y16689931D01*
X31715973Y16667445D01*
X31704924Y16611896D01*
X31657832Y16580430D01*
X31615077Y16584641D01*
X31535746Y16617501D01*
X31535739Y16617503D01*
X31445696Y16635414D01*
X31410069Y16642500D01*
X31281931Y16642500D01*
X31250726Y16636293D01*
X31156260Y16617503D01*
X31156257Y16617502D01*
X31037876Y16568467D01*
X30931331Y16497277D01*
X30931330Y16497275D01*
X30840725Y16406670D01*
X30840723Y16406669D01*
X30769533Y16300124D01*
X30720498Y16181743D01*
X30720497Y16181740D01*
X30703189Y16094725D01*
X30695500Y16056069D01*
X28931014Y16056069D01*
X29005276Y16130331D01*
X29076465Y16236873D01*
X29125501Y16355256D01*
X29150500Y16480931D01*
X29150500Y16609069D01*
X29125501Y16734744D01*
X29076465Y16853127D01*
X29005276Y16959669D01*
X28914669Y17050276D01*
X28900864Y17059500D01*
X28863452Y17084498D01*
X28808127Y17121465D01*
X28808124Y17121467D01*
X28808123Y17121467D01*
X28689742Y17170502D01*
X28689739Y17170503D01*
X28599696Y17188414D01*
X28564069Y17195500D01*
X28435931Y17195500D01*
X28406974Y17189740D01*
X28310260Y17170503D01*
X28310257Y17170502D01*
X28191876Y17121467D01*
X28085331Y17050277D01*
X28085330Y17050275D01*
X28004826Y16969771D01*
X27952500Y16948097D01*
X27900174Y16969771D01*
X27864668Y17005277D01*
X27797323Y17050275D01*
X27758127Y17076465D01*
X27758124Y17076467D01*
X27758123Y17076467D01*
X27639742Y17125502D01*
X27639739Y17125503D01*
X27549696Y17143414D01*
X27514069Y17150500D01*
X27385931Y17150500D01*
X27354726Y17144293D01*
X27260260Y17125503D01*
X27260257Y17125502D01*
X27141876Y17076467D01*
X27035331Y17005277D01*
X27035330Y17005275D01*
X26944725Y16914670D01*
X26944723Y16914669D01*
X26873533Y16808124D01*
X26824498Y16689743D01*
X26824497Y16689740D01*
X26808451Y16609069D01*
X26799500Y16564069D01*
X26212589Y16564069D01*
X26221200Y16590571D01*
X26221200Y16590572D01*
X26256235Y16698398D01*
X26256234Y16698398D01*
X26256237Y16698404D01*
X26287950Y16898636D01*
X26287950Y17101364D01*
X26287330Y17105276D01*
X26271580Y17204724D01*
X26256237Y17301596D01*
X26256235Y17301601D01*
X26256234Y17301607D01*
X26193593Y17494394D01*
X26193590Y17494398D01*
X26193590Y17494401D01*
X26126791Y17625503D01*
X26101554Y17675034D01*
X25982397Y17839039D01*
X25982396Y17839040D01*
X25982394Y17839043D01*
X25839043Y17982394D01*
X25748899Y18047888D01*
X25693595Y18088069D01*
X30695500Y18088069D01*
X30695500Y17959931D01*
X30698569Y17944505D01*
X30720497Y17834261D01*
X30720498Y17834258D01*
X30766140Y17724068D01*
X30769535Y17715873D01*
X30813216Y17650500D01*
X30829919Y17625501D01*
X30840724Y17609331D01*
X30931331Y17518724D01*
X31037873Y17447535D01*
X31156256Y17398499D01*
X31156258Y17398499D01*
X31156260Y17398498D01*
X31198903Y17390016D01*
X31281931Y17373500D01*
X31281933Y17373500D01*
X31410067Y17373500D01*
X31410069Y17373500D01*
X31535744Y17398499D01*
X31654127Y17447535D01*
X31760669Y17518724D01*
X31851276Y17609331D01*
X31922465Y17715873D01*
X31971501Y17834256D01*
X31996500Y17959931D01*
X31996500Y18088069D01*
X35013500Y18088069D01*
X35013500Y17959931D01*
X35016569Y17944505D01*
X35038497Y17834261D01*
X35038498Y17834258D01*
X35084140Y17724068D01*
X35087535Y17715873D01*
X35131216Y17650500D01*
X35147919Y17625501D01*
X35158724Y17609331D01*
X35249331Y17518724D01*
X35355873Y17447535D01*
X35474256Y17398499D01*
X35474258Y17398499D01*
X35474260Y17398498D01*
X35516903Y17390016D01*
X35599931Y17373500D01*
X35599933Y17373500D01*
X35728067Y17373500D01*
X35728069Y17373500D01*
X35853744Y17398499D01*
X35972127Y17447535D01*
X36078669Y17518724D01*
X36169276Y17609331D01*
X36240465Y17715873D01*
X36243860Y17724069D01*
X40099500Y17724069D01*
X40099500Y17595931D01*
X40102999Y17578342D01*
X40124497Y17470261D01*
X40124498Y17470258D01*
X40164576Y17373500D01*
X40173535Y17351873D01*
X40211315Y17295331D01*
X40235405Y17259277D01*
X40244724Y17245331D01*
X40335331Y17154724D01*
X40441873Y17083535D01*
X40560256Y17034499D01*
X40560258Y17034499D01*
X40560260Y17034498D01*
X40602903Y17026016D01*
X40685931Y17009500D01*
X40685933Y17009500D01*
X40814067Y17009500D01*
X40814069Y17009500D01*
X40939744Y17034499D01*
X41058127Y17083535D01*
X41164669Y17154724D01*
X41255276Y17245331D01*
X41326465Y17351873D01*
X41375501Y17470256D01*
X41400500Y17595931D01*
X41400500Y17724069D01*
X41390554Y17774068D01*
X41390554Y17774069D01*
X43599500Y17774069D01*
X43599500Y17645931D01*
X43603564Y17625502D01*
X43624497Y17520261D01*
X43624498Y17520258D01*
X43668234Y17414669D01*
X43673535Y17401873D01*
X43706941Y17351877D01*
X43740530Y17301607D01*
X43744724Y17295331D01*
X43835331Y17204724D01*
X43941873Y17133535D01*
X44060256Y17084499D01*
X44060258Y17084499D01*
X44060260Y17084498D01*
X44102903Y17076016D01*
X44185931Y17059500D01*
X44185933Y17059500D01*
X44314067Y17059500D01*
X44314069Y17059500D01*
X44439744Y17084499D01*
X44558127Y17133535D01*
X44664669Y17204724D01*
X44755276Y17295331D01*
X44826465Y17401873D01*
X44875501Y17520256D01*
X44900500Y17645931D01*
X44900500Y17774069D01*
X44875501Y17899744D01*
X44826465Y18018127D01*
X44755276Y18124669D01*
X44664669Y18215276D01*
X44558127Y18286465D01*
X44558123Y18286467D01*
X44558121Y18286468D01*
X44558122Y18286468D01*
X44503274Y18309186D01*
X44447890Y18332127D01*
X44439742Y18335502D01*
X44439739Y18335503D01*
X44349696Y18353414D01*
X44314069Y18360500D01*
X44185931Y18360500D01*
X44154726Y18354293D01*
X44060260Y18335503D01*
X44060257Y18335502D01*
X43941876Y18286467D01*
X43835331Y18215277D01*
X43835330Y18215275D01*
X43744725Y18124670D01*
X43744723Y18124669D01*
X43673533Y18018124D01*
X43624498Y17899743D01*
X43624497Y17899740D01*
X43608951Y17821583D01*
X43599500Y17774069D01*
X41390554Y17774069D01*
X41375502Y17849740D01*
X41375501Y17849743D01*
X41354790Y17899743D01*
X41326465Y17968127D01*
X41255276Y18074669D01*
X41164669Y18165276D01*
X41058127Y18236465D01*
X41058124Y18236467D01*
X41058123Y18236467D01*
X40939742Y18285502D01*
X40939739Y18285503D01*
X40849696Y18303414D01*
X40814069Y18310500D01*
X40685931Y18310500D01*
X40654726Y18304293D01*
X40560260Y18285503D01*
X40560257Y18285502D01*
X40441876Y18236467D01*
X40335331Y18165277D01*
X40335330Y18165275D01*
X40244725Y18074670D01*
X40244723Y18074669D01*
X40173533Y17968124D01*
X40124498Y17849743D01*
X40124497Y17849740D01*
X40107297Y17763268D01*
X40099500Y17724069D01*
X36243860Y17724069D01*
X36289501Y17834256D01*
X36314500Y17959931D01*
X36314500Y18088069D01*
X36289501Y18213744D01*
X36240465Y18332127D01*
X36212541Y18373918D01*
X46149500Y18373918D01*
X46149500Y18226082D01*
X46155963Y18193590D01*
X46178340Y18081093D01*
X46178343Y18081083D01*
X46234915Y17944506D01*
X46308581Y17834258D01*
X46317049Y17821584D01*
X46421584Y17717049D01*
X46544505Y17634916D01*
X46681087Y17578342D01*
X46826082Y17549500D01*
X46826084Y17549500D01*
X46973916Y17549500D01*
X46973918Y17549500D01*
X47118913Y17578342D01*
X47255495Y17634916D01*
X47378416Y17717049D01*
X47482951Y17821584D01*
X47565084Y17944505D01*
X47621658Y18081087D01*
X47650500Y18226082D01*
X47650500Y18373918D01*
X47621658Y18518913D01*
X47608781Y18550000D01*
X49710000Y18550000D01*
X51800000Y18550000D01*
X51800000Y20450000D01*
X49710000Y20450000D01*
X49710000Y18550000D01*
X47608781Y18550000D01*
X47565084Y18655495D01*
X47482951Y18778416D01*
X47378416Y18882951D01*
X47372282Y18887050D01*
X47255494Y18965085D01*
X47118917Y19021657D01*
X47118907Y19021660D01*
X47021811Y19040974D01*
X46973918Y19050500D01*
X46826082Y19050500D01*
X46784977Y19042324D01*
X46681092Y19021660D01*
X46681082Y19021657D01*
X46544505Y18965085D01*
X46421584Y18882952D01*
X46421583Y18882950D01*
X46317050Y18778417D01*
X46317048Y18778416D01*
X46234915Y18655495D01*
X46178343Y18518918D01*
X46178340Y18518908D01*
X46162380Y18438670D01*
X46149500Y18373918D01*
X36212541Y18373918D01*
X36169276Y18438669D01*
X36078669Y18529276D01*
X35972127Y18600465D01*
X35972124Y18600467D01*
X35972123Y18600467D01*
X35853742Y18649502D01*
X35853739Y18649503D01*
X35763696Y18667414D01*
X35728069Y18674500D01*
X35599931Y18674500D01*
X35568726Y18668293D01*
X35474260Y18649503D01*
X35474257Y18649502D01*
X35355876Y18600467D01*
X35249331Y18529277D01*
X35249330Y18529275D01*
X35158725Y18438670D01*
X35158723Y18438669D01*
X35087533Y18332124D01*
X35038498Y18213743D01*
X35038497Y18213740D01*
X35020780Y18124669D01*
X35013500Y18088069D01*
X31996500Y18088069D01*
X31971501Y18213744D01*
X31922465Y18332127D01*
X31851276Y18438669D01*
X31760669Y18529276D01*
X31654127Y18600465D01*
X31654124Y18600467D01*
X31654123Y18600467D01*
X31535742Y18649502D01*
X31535739Y18649503D01*
X31445696Y18667414D01*
X31410069Y18674500D01*
X31281931Y18674500D01*
X31250726Y18668293D01*
X31156260Y18649503D01*
X31156257Y18649502D01*
X31037876Y18600467D01*
X30931331Y18529277D01*
X30931330Y18529275D01*
X30840725Y18438670D01*
X30840723Y18438669D01*
X30769533Y18332124D01*
X30720498Y18213743D01*
X30720497Y18213740D01*
X30702780Y18124669D01*
X30695500Y18088069D01*
X25693595Y18088069D01*
X25675033Y18101555D01*
X25494393Y18193594D01*
X25301606Y18256235D01*
X25301593Y18256238D01*
X25101365Y18287950D01*
X25101364Y18287950D01*
X24898636Y18287950D01*
X24898635Y18287950D01*
X24698406Y18256238D01*
X24698393Y18256235D01*
X24505606Y18193594D01*
X24324966Y18101555D01*
X24160961Y17982398D01*
X24017602Y17839039D01*
X23898445Y17675034D01*
X23806406Y17494394D01*
X23743765Y17301607D01*
X23743762Y17301594D01*
X23712050Y17101365D01*
X21207950Y17101365D01*
X21207330Y17105276D01*
X21191580Y17204724D01*
X21176237Y17301596D01*
X21176235Y17301601D01*
X21176234Y17301607D01*
X21113593Y17494394D01*
X21113590Y17494398D01*
X21113590Y17494401D01*
X21046791Y17625503D01*
X21021554Y17675034D01*
X20902397Y17839039D01*
X20902396Y17839040D01*
X20902394Y17839043D01*
X20759043Y17982394D01*
X20759040Y17982397D01*
X20759038Y17982398D01*
X20595033Y18101555D01*
X20414393Y18193594D01*
X20221606Y18256235D01*
X20221593Y18256238D01*
X20021365Y18287950D01*
X20021364Y18287950D01*
X19818636Y18287950D01*
X19818635Y18287950D01*
X19618406Y18256238D01*
X19618393Y18256235D01*
X19425606Y18193594D01*
X19244966Y18101555D01*
X19080961Y17982398D01*
X18937602Y17839039D01*
X18818445Y17675034D01*
X18726406Y17494394D01*
X18663765Y17301607D01*
X18663762Y17301594D01*
X18632050Y17101365D01*
X12043081Y17101365D01*
X12025502Y17189740D01*
X12025501Y17189743D01*
X12023116Y17195500D01*
X11976465Y17308127D01*
X11905276Y17414669D01*
X11814669Y17505276D01*
X11792242Y17520261D01*
X11748483Y17549500D01*
X11708127Y17576465D01*
X11708124Y17576467D01*
X11708123Y17576467D01*
X11589742Y17625502D01*
X11589739Y17625503D01*
X11487028Y17645933D01*
X11464069Y17650500D01*
X11335931Y17650500D01*
X11312972Y17645933D01*
X11210260Y17625503D01*
X11210257Y17625502D01*
X11091876Y17576467D01*
X10985331Y17505277D01*
X10985330Y17505275D01*
X10894725Y17414670D01*
X10894723Y17414669D01*
X10823533Y17308124D01*
X10774498Y17189743D01*
X10774497Y17189740D01*
X10754625Y17089835D01*
X10749500Y17064069D01*
X300500Y17064069D01*
X300500Y18459481D01*
X322174Y18511807D01*
X374500Y18533481D01*
X426826Y18511807D01*
X521584Y18417049D01*
X644505Y18334916D01*
X763803Y18285501D01*
X781087Y18278342D01*
X926082Y18249500D01*
X926084Y18249500D01*
X1073916Y18249500D01*
X1073918Y18249500D01*
X1218913Y18278342D01*
X1355495Y18334916D01*
X1478416Y18417049D01*
X1582951Y18521584D01*
X1665084Y18644505D01*
X1721658Y18781087D01*
X1750500Y18926082D01*
X1750500Y19073918D01*
X1721658Y19218913D01*
X1718915Y19225534D01*
X1665084Y19355495D01*
X1582951Y19478416D01*
X1478415Y19582952D01*
X1355494Y19665085D01*
X1218917Y19721657D01*
X1218907Y19721660D01*
X1121811Y19740974D01*
X1073918Y19750500D01*
X926082Y19750500D01*
X884977Y19742324D01*
X781092Y19721660D01*
X781082Y19721657D01*
X644505Y19665085D01*
X521584Y19582952D01*
X521583Y19582950D01*
X426826Y19488193D01*
X374500Y19466519D01*
X322174Y19488193D01*
X300500Y19540519D01*
X300500Y20626021D01*
X5254500Y20626021D01*
X5254500Y20513980D01*
X5283495Y20405768D01*
X5283499Y20405759D01*
X5339515Y20308737D01*
X5418737Y20229515D01*
X5515763Y20173497D01*
X5623979Y20144501D01*
X5623980Y20144500D01*
X5623982Y20144500D01*
X5736020Y20144500D01*
X5736020Y20144501D01*
X5844237Y20173497D01*
X5941263Y20229515D01*
X6020485Y20308737D01*
X6076503Y20405763D01*
X6105499Y20513980D01*
X6105500Y20513980D01*
X6105500Y20626020D01*
X6105499Y20626021D01*
X6093877Y20669394D01*
X6076503Y20734237D01*
X6020485Y20831263D01*
X5941263Y20910485D01*
X5871955Y20950500D01*
X5844241Y20966501D01*
X5844232Y20966505D01*
X5736020Y20995500D01*
X5736018Y20995500D01*
X5623982Y20995500D01*
X5623980Y20995500D01*
X5515767Y20966505D01*
X5515758Y20966501D01*
X5418736Y20910485D01*
X5339515Y20831264D01*
X5283499Y20734242D01*
X5283495Y20734233D01*
X5254500Y20626021D01*
X300500Y20626021D01*
X300500Y21073918D01*
X14249500Y21073918D01*
X14249500Y20926082D01*
X14259026Y20878189D01*
X14278340Y20781093D01*
X14278343Y20781083D01*
X14334915Y20644506D01*
X14417048Y20521585D01*
X14521584Y20417049D01*
X14644505Y20334916D01*
X14717817Y20304549D01*
X14781087Y20278342D01*
X14926082Y20249500D01*
X14926084Y20249500D01*
X15073916Y20249500D01*
X15073918Y20249500D01*
X15208974Y20276365D01*
X18632050Y20276365D01*
X18632050Y20073636D01*
X18663762Y19873407D01*
X18663765Y19873394D01*
X18726406Y19680607D01*
X18818445Y19499967D01*
X18937602Y19335962D01*
X18937606Y19335957D01*
X19080957Y19192606D01*
X19080960Y19192604D01*
X19080961Y19192603D01*
X19244966Y19073446D01*
X19290001Y19050500D01*
X19425599Y18981410D01*
X19425602Y18981410D01*
X19425606Y18981407D01*
X19618393Y18918766D01*
X19618399Y18918765D01*
X19618404Y18918763D01*
X19751892Y18897621D01*
X19818635Y18887050D01*
X19818636Y18887050D01*
X20021365Y18887050D01*
X20071422Y18894979D01*
X20221596Y18918763D01*
X20221603Y18918766D01*
X20221606Y18918766D01*
X20414393Y18981407D01*
X20414395Y18981409D01*
X20414401Y18981410D01*
X20595033Y19073446D01*
X20759043Y19192606D01*
X20902394Y19335957D01*
X21021554Y19499967D01*
X21113590Y19680599D01*
X21119323Y19698241D01*
X21176234Y19873394D01*
X21176236Y19873402D01*
X21176237Y19873404D01*
X21207950Y20073636D01*
X21207950Y20253442D01*
X21864200Y20253442D01*
X21864200Y20096559D01*
X21904801Y19945033D01*
X21937407Y19888557D01*
X21983241Y19809170D01*
X22094170Y19698241D01*
X22230030Y19619803D01*
X22230032Y19619802D01*
X22336542Y19591263D01*
X22381558Y19579201D01*
X22381559Y19579200D01*
X22381561Y19579200D01*
X22538441Y19579200D01*
X22538441Y19579201D01*
X22644951Y19607741D01*
X22689967Y19619802D01*
X22689967Y19619803D01*
X22689970Y19619803D01*
X22825830Y19698241D01*
X22936759Y19809170D01*
X23015197Y19945030D01*
X23055799Y20096559D01*
X23055800Y20096559D01*
X23055800Y20253441D01*
X23055799Y20253442D01*
X23054011Y20260118D01*
X23049658Y20276365D01*
X23712050Y20276365D01*
X23712050Y20073636D01*
X23743762Y19873407D01*
X23743765Y19873394D01*
X23806406Y19680607D01*
X23898445Y19499967D01*
X24017602Y19335962D01*
X24017606Y19335957D01*
X24160957Y19192606D01*
X24160960Y19192604D01*
X24160961Y19192603D01*
X24324966Y19073446D01*
X24370001Y19050500D01*
X24505599Y18981410D01*
X24505602Y18981410D01*
X24505606Y18981407D01*
X24698393Y18918766D01*
X24698399Y18918765D01*
X24698404Y18918763D01*
X24831892Y18897621D01*
X24898635Y18887050D01*
X24898636Y18887050D01*
X25101365Y18887050D01*
X25151422Y18894979D01*
X25301596Y18918763D01*
X25301603Y18918766D01*
X25301606Y18918766D01*
X25494393Y18981407D01*
X25494395Y18981409D01*
X25494401Y18981410D01*
X25675033Y19073446D01*
X25839043Y19192606D01*
X25982394Y19335957D01*
X26101554Y19499967D01*
X26193590Y19680599D01*
X26199323Y19698241D01*
X26249954Y19854068D01*
X26249954Y19854069D01*
X26849500Y19854069D01*
X26849500Y19725931D01*
X26855008Y19698242D01*
X26874497Y19600261D01*
X26874498Y19600258D01*
X26918562Y19493877D01*
X26923535Y19481873D01*
X26938497Y19459481D01*
X26986706Y19387330D01*
X26994724Y19375331D01*
X27085331Y19284724D01*
X27191873Y19213535D01*
X27310256Y19164499D01*
X27310258Y19164499D01*
X27310260Y19164498D01*
X27352903Y19156016D01*
X27435931Y19139500D01*
X27435933Y19139500D01*
X27564067Y19139500D01*
X27564069Y19139500D01*
X27689744Y19164499D01*
X27808127Y19213535D01*
X27914669Y19284724D01*
X28005276Y19375331D01*
X28076465Y19481873D01*
X28125501Y19600256D01*
X28150500Y19725931D01*
X28150500Y19854069D01*
X28133705Y19938500D01*
X28125502Y19979740D01*
X28125501Y19979743D01*
X28122273Y19987535D01*
X28076465Y20098127D01*
X28005276Y20204669D01*
X27914669Y20295276D01*
X27900789Y20304550D01*
X27855343Y20334916D01*
X27808127Y20366465D01*
X27808124Y20366467D01*
X27808123Y20366467D01*
X27689742Y20415502D01*
X27689739Y20415503D01*
X27593277Y20434690D01*
X27564069Y20440500D01*
X27435931Y20440500D01*
X27406723Y20434690D01*
X27310260Y20415503D01*
X27310257Y20415502D01*
X27191876Y20366467D01*
X27085331Y20295277D01*
X27085330Y20295275D01*
X26994725Y20204670D01*
X26994723Y20204669D01*
X26923533Y20098124D01*
X26874498Y19979743D01*
X26874497Y19979740D01*
X26855718Y19885330D01*
X26849500Y19854069D01*
X26249954Y19854069D01*
X26256237Y19873404D01*
X26287950Y20073636D01*
X26287950Y20276364D01*
X26287636Y20278344D01*
X26271197Y20382142D01*
X26256237Y20476596D01*
X26256233Y20476607D01*
X26213269Y20608836D01*
X26213269Y20608837D01*
X26207020Y20628069D01*
X30695500Y20628069D01*
X30695500Y20499931D01*
X30699973Y20477445D01*
X30720497Y20374261D01*
X30720498Y20374258D01*
X30767776Y20260118D01*
X30769535Y20255873D01*
X30840724Y20149331D01*
X30931331Y20058724D01*
X31037873Y19987535D01*
X31156256Y19938499D01*
X31156258Y19938499D01*
X31156260Y19938498D01*
X31192386Y19931312D01*
X31281931Y19913500D01*
X31281933Y19913500D01*
X31410067Y19913500D01*
X31410069Y19913500D01*
X31535744Y19938499D01*
X31615077Y19971360D01*
X31671713Y19971360D01*
X31711762Y19931312D01*
X31715973Y19888557D01*
X31715331Y19885330D01*
X31711500Y19866069D01*
X31711500Y19737931D01*
X31713887Y19725933D01*
X31736497Y19612261D01*
X31736498Y19612258D01*
X31783010Y19499967D01*
X31785535Y19493873D01*
X31856724Y19387331D01*
X31947331Y19296724D01*
X32053873Y19225535D01*
X32172256Y19176499D01*
X32172258Y19176499D01*
X32172260Y19176498D01*
X32214903Y19168016D01*
X32297931Y19151500D01*
X32297933Y19151500D01*
X32426067Y19151500D01*
X32426069Y19151500D01*
X32551744Y19176499D01*
X32670127Y19225535D01*
X32776669Y19296724D01*
X32867276Y19387331D01*
X32938465Y19493873D01*
X32987501Y19612256D01*
X33012500Y19737931D01*
X33012500Y19866069D01*
X32989888Y19979744D01*
X32987502Y19991740D01*
X32987501Y19991743D01*
X32987447Y19991873D01*
X32938465Y20110127D01*
X32867276Y20216669D01*
X32776669Y20307276D01*
X32774482Y20308737D01*
X32704504Y20355495D01*
X32670127Y20378465D01*
X32670124Y20378467D01*
X32670123Y20378467D01*
X32551742Y20427502D01*
X32551739Y20427503D01*
X32461696Y20445414D01*
X32426069Y20452500D01*
X32297931Y20452500D01*
X32266726Y20446293D01*
X32172260Y20427503D01*
X32172253Y20427501D01*
X32092922Y20394641D01*
X32036285Y20394641D01*
X31996237Y20434690D01*
X31992026Y20477442D01*
X31996500Y20499931D01*
X31996500Y20628069D01*
X32981500Y20628069D01*
X32981500Y20499931D01*
X32985973Y20477445D01*
X33006497Y20374261D01*
X33006498Y20374258D01*
X33053776Y20260118D01*
X33055535Y20255873D01*
X33126724Y20149331D01*
X33217331Y20058724D01*
X33323873Y19987535D01*
X33442256Y19938499D01*
X33442258Y19938499D01*
X33442260Y19938498D01*
X33478386Y19931312D01*
X33567931Y19913500D01*
X33567933Y19913500D01*
X33696067Y19913500D01*
X33696069Y19913500D01*
X33821744Y19938499D01*
X33901077Y19971360D01*
X33957713Y19971360D01*
X33997762Y19931312D01*
X34001973Y19888557D01*
X34001331Y19885330D01*
X33997500Y19866069D01*
X33997500Y19737931D01*
X33999887Y19725933D01*
X34022497Y19612261D01*
X34022498Y19612258D01*
X34069010Y19499967D01*
X34071535Y19493873D01*
X34142724Y19387331D01*
X34233331Y19296724D01*
X34339873Y19225535D01*
X34458256Y19176499D01*
X34458258Y19176499D01*
X34458260Y19176498D01*
X34500903Y19168016D01*
X34583931Y19151500D01*
X34583933Y19151500D01*
X34712067Y19151500D01*
X34712069Y19151500D01*
X34837744Y19176499D01*
X34956127Y19225535D01*
X35062669Y19296724D01*
X35153276Y19387331D01*
X35224465Y19493873D01*
X35273501Y19612256D01*
X35298500Y19737931D01*
X35298500Y19866069D01*
X35294026Y19888558D01*
X35305074Y19944104D01*
X35352165Y19975571D01*
X35394922Y19971360D01*
X35474253Y19938500D01*
X35474260Y19938498D01*
X35510386Y19931312D01*
X35599931Y19913500D01*
X35599933Y19913500D01*
X35728067Y19913500D01*
X35728069Y19913500D01*
X35853744Y19938499D01*
X35972127Y19987535D01*
X36078669Y20058724D01*
X36169276Y20149331D01*
X36240465Y20255873D01*
X36285281Y20364069D01*
X38339500Y20364069D01*
X38339500Y20235931D01*
X38342884Y20218918D01*
X38364497Y20110261D01*
X38364498Y20110258D01*
X38379667Y20073636D01*
X38413535Y19991873D01*
X38484724Y19885331D01*
X38575331Y19794724D01*
X38681873Y19723535D01*
X38800256Y19674499D01*
X38800258Y19674499D01*
X38800260Y19674498D01*
X38842903Y19666016D01*
X38925931Y19649500D01*
X38925933Y19649500D01*
X39054067Y19649500D01*
X39054069Y19649500D01*
X39179744Y19674499D01*
X39298127Y19723535D01*
X39404669Y19794724D01*
X39495276Y19885331D01*
X39566465Y19991873D01*
X39615501Y20110256D01*
X39640500Y20235931D01*
X39640500Y20364069D01*
X39623407Y20450000D01*
X39615502Y20489740D01*
X39615501Y20489743D01*
X39611280Y20499933D01*
X39566465Y20608127D01*
X39495276Y20714669D01*
X39404669Y20805276D01*
X39392235Y20813584D01*
X39337685Y20850033D01*
X39298127Y20876465D01*
X39298124Y20876467D01*
X39298123Y20876467D01*
X39249309Y20896686D01*
X39249308Y20896687D01*
X39179746Y20925501D01*
X39179739Y20925503D01*
X39089696Y20943414D01*
X39054069Y20950500D01*
X38925931Y20950500D01*
X38894726Y20944293D01*
X38800260Y20925503D01*
X38800257Y20925502D01*
X38681876Y20876467D01*
X38575331Y20805277D01*
X38575330Y20805275D01*
X38484725Y20714670D01*
X38484723Y20714669D01*
X38413533Y20608124D01*
X38364498Y20489743D01*
X38364497Y20489740D01*
X38345581Y20394641D01*
X38339500Y20364069D01*
X36285281Y20364069D01*
X36289501Y20374256D01*
X36314500Y20499931D01*
X36314500Y20628069D01*
X36295884Y20721657D01*
X36289502Y20753740D01*
X36289501Y20753743D01*
X36278176Y20781083D01*
X36240465Y20872127D01*
X36180803Y20961418D01*
X46137000Y20961418D01*
X46137000Y20813582D01*
X46143463Y20781093D01*
X46165840Y20668593D01*
X46165843Y20668583D01*
X46222415Y20532006D01*
X46304548Y20409085D01*
X46409084Y20304549D01*
X46532005Y20222416D01*
X46650108Y20173496D01*
X46668587Y20165842D01*
X46813582Y20137000D01*
X46813584Y20137000D01*
X46961416Y20137000D01*
X46961418Y20137000D01*
X47106413Y20165842D01*
X47242995Y20222416D01*
X47365916Y20304549D01*
X47470451Y20409084D01*
X47552584Y20532005D01*
X47609158Y20668587D01*
X47638000Y20813582D01*
X47638000Y20961418D01*
X47609158Y21106413D01*
X47574741Y21189502D01*
X47552584Y21242995D01*
X47470451Y21365916D01*
X47365915Y21470452D01*
X47242994Y21552585D01*
X47106417Y21609157D01*
X47106407Y21609160D01*
X47009311Y21628474D01*
X46961418Y21638000D01*
X46813582Y21638000D01*
X46772477Y21629824D01*
X46668592Y21609160D01*
X46668582Y21609157D01*
X46532005Y21552585D01*
X46409084Y21470452D01*
X46409083Y21470450D01*
X46304550Y21365917D01*
X46304548Y21365916D01*
X46222415Y21242995D01*
X46165843Y21106418D01*
X46165840Y21106408D01*
X46147469Y21014048D01*
X46137000Y20961418D01*
X36180803Y20961418D01*
X36169276Y20978669D01*
X36078669Y21069276D01*
X36071723Y21073917D01*
X36023082Y21106418D01*
X35972127Y21140465D01*
X35972124Y21140467D01*
X35972123Y21140467D01*
X35853742Y21189502D01*
X35853739Y21189503D01*
X35763696Y21207414D01*
X35728069Y21214500D01*
X35599931Y21214500D01*
X35568726Y21208293D01*
X35474260Y21189503D01*
X35474257Y21189502D01*
X35355876Y21140467D01*
X35249331Y21069277D01*
X35249330Y21069275D01*
X35158725Y20978670D01*
X35158723Y20978669D01*
X35087533Y20872124D01*
X35038498Y20753743D01*
X35038497Y20753740D01*
X35021559Y20668583D01*
X35013500Y20628069D01*
X35013500Y20499931D01*
X35017973Y20477445D01*
X35006924Y20421896D01*
X34959832Y20390430D01*
X34917077Y20394641D01*
X34837746Y20427501D01*
X34837739Y20427503D01*
X34747696Y20445414D01*
X34712069Y20452500D01*
X34583931Y20452500D01*
X34552726Y20446293D01*
X34458260Y20427503D01*
X34458253Y20427501D01*
X34378922Y20394641D01*
X34322285Y20394641D01*
X34282237Y20434690D01*
X34278026Y20477442D01*
X34282500Y20499931D01*
X34282500Y20628069D01*
X34263884Y20721657D01*
X34257502Y20753740D01*
X34257501Y20753743D01*
X34246176Y20781083D01*
X34208465Y20872127D01*
X34137276Y20978669D01*
X34046669Y21069276D01*
X34039723Y21073917D01*
X33991082Y21106418D01*
X33940127Y21140465D01*
X33940124Y21140467D01*
X33940123Y21140467D01*
X33821742Y21189502D01*
X33821739Y21189503D01*
X33731696Y21207414D01*
X33696069Y21214500D01*
X33567931Y21214500D01*
X33536726Y21208293D01*
X33442260Y21189503D01*
X33442257Y21189502D01*
X33323876Y21140467D01*
X33217331Y21069277D01*
X33217330Y21069275D01*
X33126725Y20978670D01*
X33126723Y20978669D01*
X33055533Y20872124D01*
X33006498Y20753743D01*
X33006497Y20753740D01*
X32989559Y20668583D01*
X32981500Y20628069D01*
X31996500Y20628069D01*
X31977884Y20721657D01*
X31971502Y20753740D01*
X31971501Y20753743D01*
X31960176Y20781083D01*
X31922465Y20872127D01*
X31851276Y20978669D01*
X31760669Y21069276D01*
X31753723Y21073917D01*
X31705082Y21106418D01*
X31654127Y21140465D01*
X31654124Y21140467D01*
X31654123Y21140467D01*
X31535742Y21189502D01*
X31535739Y21189503D01*
X31445696Y21207414D01*
X31410069Y21214500D01*
X31281931Y21214500D01*
X31250726Y21208293D01*
X31156260Y21189503D01*
X31156257Y21189502D01*
X31037876Y21140467D01*
X30931331Y21069277D01*
X30931330Y21069275D01*
X30840725Y20978670D01*
X30840723Y20978669D01*
X30769533Y20872124D01*
X30720498Y20753743D01*
X30720497Y20753740D01*
X30703559Y20668583D01*
X30695500Y20628069D01*
X26207020Y20628069D01*
X26193593Y20669394D01*
X26193590Y20669398D01*
X26193590Y20669401D01*
X26136684Y20781087D01*
X26101554Y20850034D01*
X25982397Y21014039D01*
X25982396Y21014040D01*
X25982394Y21014043D01*
X25839043Y21157394D01*
X25839040Y21157397D01*
X25839038Y21157398D01*
X25675033Y21276555D01*
X25494393Y21368594D01*
X25301606Y21431235D01*
X25301593Y21431238D01*
X25101365Y21462950D01*
X25101364Y21462950D01*
X24898636Y21462950D01*
X24898635Y21462950D01*
X24698406Y21431238D01*
X24698393Y21431235D01*
X24505606Y21368594D01*
X24324966Y21276555D01*
X24160961Y21157398D01*
X24017602Y21014039D01*
X23898445Y20850034D01*
X23806406Y20669394D01*
X23743765Y20476607D01*
X23743762Y20476594D01*
X23712050Y20276365D01*
X23049658Y20276365D01*
X23015198Y20404968D01*
X22973840Y20476603D01*
X22936759Y20540830D01*
X22825830Y20651759D01*
X22802750Y20665084D01*
X22689967Y20730199D01*
X22538441Y20770800D01*
X22538439Y20770800D01*
X22381561Y20770800D01*
X22381559Y20770800D01*
X22230032Y20730199D01*
X22094169Y20651759D01*
X21983241Y20540831D01*
X21904801Y20404968D01*
X21864200Y20253442D01*
X21207950Y20253442D01*
X21207950Y20276364D01*
X21207636Y20278344D01*
X21191197Y20382142D01*
X21176237Y20476596D01*
X21176235Y20476603D01*
X21176234Y20476607D01*
X21113593Y20669394D01*
X21113590Y20669398D01*
X21113590Y20669401D01*
X21056684Y20781087D01*
X21021554Y20850034D01*
X20902397Y21014039D01*
X20902396Y21014040D01*
X20902394Y21014043D01*
X20759043Y21157394D01*
X20759040Y21157397D01*
X20759038Y21157398D01*
X20595033Y21276555D01*
X20414393Y21368594D01*
X20221606Y21431235D01*
X20221593Y21431238D01*
X20021365Y21462950D01*
X20021364Y21462950D01*
X19818636Y21462950D01*
X19818635Y21462950D01*
X19618406Y21431238D01*
X19618393Y21431235D01*
X19425606Y21368594D01*
X19244966Y21276555D01*
X19080961Y21157398D01*
X18937602Y21014039D01*
X18818445Y20850034D01*
X18726406Y20669394D01*
X18663765Y20476607D01*
X18663762Y20476594D01*
X18632050Y20276365D01*
X15208974Y20276365D01*
X15218913Y20278342D01*
X15355495Y20334916D01*
X15478416Y20417049D01*
X15582951Y20521584D01*
X15665084Y20644505D01*
X15721658Y20781087D01*
X15750500Y20926082D01*
X15750500Y21073918D01*
X15721658Y21218913D01*
X15708988Y21249500D01*
X15665084Y21355495D01*
X15582951Y21478416D01*
X15478415Y21582952D01*
X15355494Y21665085D01*
X15218917Y21721657D01*
X15218907Y21721660D01*
X15121811Y21740974D01*
X15073918Y21750500D01*
X14926082Y21750500D01*
X14884977Y21742324D01*
X14781092Y21721660D01*
X14781082Y21721657D01*
X14644505Y21665085D01*
X14521584Y21582952D01*
X14521583Y21582950D01*
X14417050Y21478417D01*
X14417048Y21478416D01*
X14334915Y21355495D01*
X14278343Y21218918D01*
X14278340Y21218908D01*
X14262737Y21140465D01*
X14249500Y21073918D01*
X300500Y21073918D01*
X300500Y22078841D01*
X799500Y22078841D01*
X799500Y21921160D01*
X830261Y21766509D01*
X830264Y21766499D01*
X890603Y21620826D01*
X890605Y21620823D01*
X890606Y21620821D01*
X978211Y21489711D01*
X1089711Y21378211D01*
X1220821Y21290606D01*
X1220826Y21290604D01*
X1220825Y21290604D01*
X1320060Y21249500D01*
X1366503Y21230263D01*
X1521158Y21199500D01*
X1521160Y21199500D01*
X2478840Y21199500D01*
X2478842Y21199500D01*
X2633497Y21230263D01*
X2779179Y21290606D01*
X2910289Y21378211D01*
X3021789Y21489711D01*
X3109394Y21620821D01*
X3169737Y21766503D01*
X3200500Y21921158D01*
X3200500Y22078841D01*
X4829500Y22078841D01*
X4829500Y21921160D01*
X4860261Y21766509D01*
X4860264Y21766499D01*
X4920603Y21620826D01*
X4920605Y21620823D01*
X4920606Y21620821D01*
X5008211Y21489711D01*
X5119711Y21378211D01*
X5250821Y21290606D01*
X5250826Y21290604D01*
X5250825Y21290604D01*
X5350060Y21249500D01*
X5396503Y21230263D01*
X5551158Y21199500D01*
X5551160Y21199500D01*
X6808840Y21199500D01*
X6808842Y21199500D01*
X6963497Y21230263D01*
X7109179Y21290606D01*
X7240289Y21378211D01*
X7351789Y21489711D01*
X7439394Y21620821D01*
X7499737Y21766503D01*
X7530500Y21921158D01*
X7530500Y22073918D01*
X9249500Y22073918D01*
X9249500Y21926082D01*
X9259026Y21878189D01*
X9278340Y21781093D01*
X9278343Y21781083D01*
X9334915Y21644506D01*
X9396336Y21552584D01*
X9417049Y21521584D01*
X9521584Y21417049D01*
X9644505Y21334916D01*
X9781087Y21278342D01*
X9926082Y21249500D01*
X9926084Y21249500D01*
X10073916Y21249500D01*
X10073918Y21249500D01*
X10218913Y21278342D01*
X10355495Y21334916D01*
X10478416Y21417049D01*
X10582951Y21521584D01*
X10665084Y21644505D01*
X10721658Y21781087D01*
X10750500Y21926082D01*
X10750500Y22073918D01*
X10721658Y22218913D01*
X10693897Y22285933D01*
X10665084Y22355495D01*
X10582951Y22478416D01*
X10497299Y22564068D01*
X37049500Y22564068D01*
X37049500Y22435933D01*
X37074497Y22310261D01*
X37074498Y22310258D01*
X37112336Y22218908D01*
X37123535Y22191873D01*
X37144661Y22160256D01*
X37188665Y22094398D01*
X37194724Y22085331D01*
X37285331Y21994724D01*
X37391873Y21923535D01*
X37510256Y21874499D01*
X37510258Y21874499D01*
X37510260Y21874498D01*
X37552903Y21866016D01*
X37635931Y21849500D01*
X37635933Y21849500D01*
X37764067Y21849500D01*
X37764069Y21849500D01*
X37889744Y21874499D01*
X38008127Y21923535D01*
X38114669Y21994724D01*
X38193863Y22073918D01*
X43249500Y22073918D01*
X43249500Y21926082D01*
X43259026Y21878189D01*
X43278340Y21781093D01*
X43278343Y21781083D01*
X43334915Y21644506D01*
X43396336Y21552584D01*
X43417049Y21521584D01*
X43521584Y21417049D01*
X43644505Y21334916D01*
X43781087Y21278342D01*
X43926082Y21249500D01*
X43926084Y21249500D01*
X44073916Y21249500D01*
X44073918Y21249500D01*
X44218913Y21278342D01*
X44355495Y21334916D01*
X44478416Y21417049D01*
X44582951Y21521584D01*
X44665084Y21644505D01*
X44721658Y21781087D01*
X44750500Y21926082D01*
X44750500Y22073918D01*
X44721658Y22218913D01*
X44665084Y22355495D01*
X44665083Y22355497D01*
X44650991Y22376588D01*
X44650988Y22376592D01*
X44625947Y22414068D01*
X48849500Y22414068D01*
X48849500Y22285933D01*
X48874497Y22160261D01*
X48874498Y22160258D01*
X48918555Y22053894D01*
X48923535Y22041873D01*
X48994724Y21935331D01*
X49085331Y21844724D01*
X49191873Y21773535D01*
X49310256Y21724499D01*
X49310258Y21724499D01*
X49310260Y21724498D01*
X49324528Y21721660D01*
X49435931Y21699500D01*
X49435933Y21699500D01*
X49564067Y21699500D01*
X49564069Y21699500D01*
X49689744Y21724499D01*
X49808127Y21773535D01*
X49914669Y21844724D01*
X50005276Y21935331D01*
X50063473Y22022430D01*
X50110563Y22053894D01*
X50166112Y22042845D01*
X50186525Y22022432D01*
X50244724Y21935331D01*
X50335331Y21844724D01*
X50441873Y21773535D01*
X50560256Y21724499D01*
X50560258Y21724499D01*
X50560260Y21724498D01*
X50574528Y21721660D01*
X50685931Y21699500D01*
X50685933Y21699500D01*
X50814067Y21699500D01*
X50814069Y21699500D01*
X50939744Y21724499D01*
X51058127Y21773535D01*
X51164669Y21844724D01*
X51255276Y21935331D01*
X51326465Y22041873D01*
X51327592Y22044595D01*
X51331633Y22054349D01*
X51371681Y22094398D01*
X51428318Y22094398D01*
X51468367Y22054350D01*
X51468367Y22054349D01*
X51473532Y22041878D01*
X51473533Y22041877D01*
X51473535Y22041873D01*
X51544724Y21935331D01*
X51635331Y21844724D01*
X51741873Y21773535D01*
X51860256Y21724499D01*
X51860258Y21724499D01*
X51860260Y21724498D01*
X51874528Y21721660D01*
X51985931Y21699500D01*
X51985933Y21699500D01*
X52114067Y21699500D01*
X52114069Y21699500D01*
X52239744Y21724499D01*
X52358127Y21773535D01*
X52464669Y21844724D01*
X52555276Y21935331D01*
X52626465Y22041873D01*
X52675501Y22160256D01*
X52700500Y22285931D01*
X52700500Y22414069D01*
X52675501Y22539744D01*
X52626465Y22658127D01*
X52555276Y22764669D01*
X52464669Y22855276D01*
X52358127Y22926465D01*
X52358124Y22926467D01*
X52358123Y22926467D01*
X52239742Y22975502D01*
X52239739Y22975503D01*
X52143101Y22994725D01*
X52114069Y23000500D01*
X51985931Y23000500D01*
X51956899Y22994725D01*
X51860260Y22975503D01*
X51860257Y22975502D01*
X51741876Y22926467D01*
X51635331Y22855277D01*
X51635330Y22855275D01*
X51544725Y22764670D01*
X51544723Y22764669D01*
X51473534Y22658126D01*
X51468367Y22645650D01*
X51428317Y22605602D01*
X51371680Y22605603D01*
X51331633Y22645650D01*
X51326465Y22658126D01*
X51326465Y22658127D01*
X51255276Y22764669D01*
X51164669Y22855276D01*
X51058127Y22926465D01*
X51058124Y22926467D01*
X51058123Y22926467D01*
X50939742Y22975502D01*
X50939739Y22975503D01*
X50843101Y22994725D01*
X50814069Y23000500D01*
X50685931Y23000500D01*
X50656899Y22994725D01*
X50560260Y22975503D01*
X50560257Y22975502D01*
X50441876Y22926467D01*
X50335331Y22855277D01*
X50335330Y22855275D01*
X50244725Y22764670D01*
X50244723Y22764669D01*
X50215986Y22721660D01*
X50186527Y22677573D01*
X50139437Y22646107D01*
X50083888Y22657156D01*
X50063472Y22677572D01*
X50005276Y22764669D01*
X49914669Y22855276D01*
X49808127Y22926465D01*
X49808124Y22926467D01*
X49808123Y22926467D01*
X49689742Y22975502D01*
X49689739Y22975503D01*
X49593101Y22994725D01*
X49564069Y23000500D01*
X49435931Y23000500D01*
X49406899Y22994725D01*
X49310260Y22975503D01*
X49310257Y22975502D01*
X49191876Y22926467D01*
X49085331Y22855277D01*
X49085330Y22855275D01*
X48994725Y22764670D01*
X48994723Y22764669D01*
X48923533Y22658124D01*
X48874498Y22539743D01*
X48874497Y22539740D01*
X48849500Y22414068D01*
X44625947Y22414068D01*
X44582951Y22478416D01*
X44478415Y22582952D01*
X44355494Y22665085D01*
X44218917Y22721657D01*
X44218907Y22721660D01*
X44121811Y22740974D01*
X44073918Y22750500D01*
X43926082Y22750500D01*
X43884977Y22742324D01*
X43781092Y22721660D01*
X43781082Y22721657D01*
X43644505Y22665085D01*
X43521584Y22582952D01*
X43521583Y22582950D01*
X43417050Y22478417D01*
X43417048Y22478416D01*
X43334915Y22355495D01*
X43278343Y22218918D01*
X43278340Y22218908D01*
X43258401Y22118665D01*
X43249500Y22073918D01*
X38193863Y22073918D01*
X38205276Y22085331D01*
X38276465Y22191873D01*
X38325501Y22310256D01*
X38350500Y22435931D01*
X38350500Y22564069D01*
X38325501Y22689744D01*
X38276465Y22808127D01*
X38205276Y22914669D01*
X38114669Y23005276D01*
X38008127Y23076465D01*
X38008124Y23076467D01*
X38008123Y23076467D01*
X37889742Y23125502D01*
X37889739Y23125503D01*
X37799696Y23143414D01*
X37764069Y23150500D01*
X37635931Y23150500D01*
X37604726Y23144293D01*
X37510260Y23125503D01*
X37510257Y23125502D01*
X37391876Y23076467D01*
X37285331Y23005277D01*
X37285330Y23005275D01*
X37194725Y22914670D01*
X37194723Y22914669D01*
X37123533Y22808124D01*
X37074498Y22689743D01*
X37074497Y22689740D01*
X37049500Y22564068D01*
X10497299Y22564068D01*
X10478415Y22582952D01*
X10355494Y22665085D01*
X10218917Y22721657D01*
X10218907Y22721660D01*
X10121811Y22740974D01*
X10073918Y22750500D01*
X9926082Y22750500D01*
X9884977Y22742324D01*
X9781092Y22721660D01*
X9781082Y22721657D01*
X9644505Y22665085D01*
X9521584Y22582952D01*
X9521583Y22582950D01*
X9417050Y22478417D01*
X9417048Y22478416D01*
X9334915Y22355495D01*
X9278343Y22218918D01*
X9278340Y22218908D01*
X9258401Y22118665D01*
X9249500Y22073918D01*
X7530500Y22073918D01*
X7530500Y22078842D01*
X7499737Y22233497D01*
X7478018Y22285931D01*
X7439396Y22379175D01*
X7439395Y22379177D01*
X7439394Y22379179D01*
X7351789Y22510289D01*
X7240289Y22621789D01*
X7109179Y22709394D01*
X7109175Y22709396D01*
X7109173Y22709397D01*
X7109174Y22709397D01*
X6963501Y22769736D01*
X6963491Y22769739D01*
X6859925Y22790339D01*
X6808842Y22800500D01*
X5551158Y22800500D01*
X5507315Y22791780D01*
X5396508Y22769739D01*
X5396498Y22769736D01*
X5250825Y22709397D01*
X5119711Y22621790D01*
X5119710Y22621788D01*
X5008212Y22510290D01*
X5008210Y22510289D01*
X4920603Y22379175D01*
X4860264Y22233502D01*
X4860261Y22233492D01*
X4829500Y22078841D01*
X3200500Y22078841D01*
X3200500Y22078842D01*
X3169737Y22233497D01*
X3148018Y22285931D01*
X3109396Y22379175D01*
X3109395Y22379177D01*
X3109394Y22379179D01*
X3021789Y22510289D01*
X2910289Y22621789D01*
X2779179Y22709394D01*
X2779175Y22709396D01*
X2779173Y22709397D01*
X2779174Y22709397D01*
X2633501Y22769736D01*
X2633491Y22769739D01*
X2529925Y22790339D01*
X2478842Y22800500D01*
X1521158Y22800500D01*
X1477315Y22791780D01*
X1366508Y22769739D01*
X1366498Y22769736D01*
X1220825Y22709397D01*
X1089711Y22621790D01*
X1089710Y22621788D01*
X978212Y22510290D01*
X978210Y22510289D01*
X890603Y22379175D01*
X830264Y22233502D01*
X830261Y22233492D01*
X799500Y22078841D01*
X300500Y22078841D01*
X300500Y24073918D01*
X15249500Y24073918D01*
X15249500Y23926082D01*
X15252647Y23910261D01*
X15278340Y23781093D01*
X15278343Y23781083D01*
X15334915Y23644506D01*
X15417048Y23521585D01*
X15521584Y23417049D01*
X15644505Y23334916D01*
X15704027Y23310261D01*
X15781087Y23278342D01*
X15926082Y23249500D01*
X15926084Y23249500D01*
X16073916Y23249500D01*
X16073918Y23249500D01*
X16218913Y23278342D01*
X16355495Y23334916D01*
X16478416Y23417049D01*
X16582951Y23521584D01*
X16665084Y23644505D01*
X16721658Y23781087D01*
X16750500Y23926082D01*
X16750500Y24073918D01*
X16721658Y24218913D01*
X16708988Y24249500D01*
X16665084Y24355495D01*
X16582951Y24478416D01*
X16478415Y24582952D01*
X16355494Y24665085D01*
X16218917Y24721657D01*
X16218907Y24721660D01*
X16128996Y24739544D01*
X16073918Y24750500D01*
X15926082Y24750500D01*
X15899066Y24745126D01*
X15781092Y24721660D01*
X15781082Y24721657D01*
X15644505Y24665085D01*
X15521584Y24582952D01*
X15521583Y24582950D01*
X15417050Y24478417D01*
X15417048Y24478416D01*
X15334915Y24355495D01*
X15278343Y24218918D01*
X15278340Y24218908D01*
X15254263Y24097865D01*
X15249500Y24073918D01*
X300500Y24073918D01*
X300500Y24459481D01*
X322174Y24511807D01*
X374500Y24533481D01*
X426826Y24511807D01*
X521584Y24417049D01*
X644505Y24334916D01*
X781087Y24278342D01*
X926082Y24249500D01*
X926084Y24249500D01*
X1073916Y24249500D01*
X1073918Y24249500D01*
X1218913Y24278342D01*
X1355495Y24334916D01*
X1478416Y24417049D01*
X1582951Y24521584D01*
X1665084Y24644505D01*
X1721658Y24781087D01*
X1750500Y24926082D01*
X1750500Y25073917D01*
X8249500Y25073917D01*
X8249500Y24926084D01*
X8278340Y24781093D01*
X8278343Y24781083D01*
X8334915Y24644506D01*
X8416321Y24522674D01*
X8417049Y24521584D01*
X8521584Y24417049D01*
X8644505Y24334916D01*
X8781087Y24278342D01*
X8926082Y24249500D01*
X8926084Y24249500D01*
X9073916Y24249500D01*
X9073918Y24249500D01*
X9218913Y24278342D01*
X9355495Y24334916D01*
X9478416Y24417049D01*
X9582951Y24521584D01*
X9665084Y24644505D01*
X9721658Y24781087D01*
X9728219Y24814069D01*
X28709500Y24814069D01*
X28709500Y24685931D01*
X28713647Y24665085D01*
X28734497Y24560261D01*
X28734498Y24560258D01*
X28776241Y24459481D01*
X28783535Y24441873D01*
X28854724Y24335331D01*
X28945331Y24244724D01*
X29051873Y24173535D01*
X29051876Y24173534D01*
X29054896Y24171516D01*
X29054185Y24170453D01*
X29087411Y24129955D01*
X29081852Y24073592D01*
X29057708Y24046956D01*
X28995333Y24005279D01*
X28995330Y24005275D01*
X28904725Y23914670D01*
X28904723Y23914669D01*
X28833533Y23808124D01*
X28784498Y23689743D01*
X28784497Y23689740D01*
X28759500Y23564068D01*
X28759500Y23435933D01*
X28784497Y23310261D01*
X28784498Y23310258D01*
X28797718Y23278341D01*
X28833535Y23191873D01*
X28904724Y23085331D01*
X28995331Y22994724D01*
X29101873Y22923535D01*
X29220256Y22874499D01*
X29220258Y22874499D01*
X29220260Y22874498D01*
X29262903Y22866016D01*
X29345931Y22849500D01*
X29345933Y22849500D01*
X29474067Y22849500D01*
X29474069Y22849500D01*
X29599744Y22874499D01*
X29718127Y22923535D01*
X29824669Y22994724D01*
X29915276Y23085331D01*
X29986465Y23191873D01*
X30035501Y23310256D01*
X30060500Y23435931D01*
X30060500Y23564069D01*
X30035501Y23689744D01*
X29986465Y23808127D01*
X29915276Y23914669D01*
X29824669Y24005276D01*
X29718127Y24076465D01*
X29718123Y24076467D01*
X29715104Y24078484D01*
X29715812Y24079545D01*
X29682585Y24120055D01*
X29688151Y24176418D01*
X29712289Y24203044D01*
X29774669Y24244724D01*
X29865276Y24335331D01*
X29936465Y24441873D01*
X29985501Y24560256D01*
X30010500Y24685931D01*
X30010500Y24814069D01*
X29985501Y24939744D01*
X29936465Y25058127D01*
X29865678Y25164068D01*
X35599500Y25164068D01*
X35599500Y25035933D01*
X35624497Y24910261D01*
X35624498Y24910258D01*
X35664341Y24814068D01*
X35673535Y24791873D01*
X35720450Y24721660D01*
X35744723Y24685332D01*
X35802729Y24627326D01*
X35824403Y24575000D01*
X35802729Y24522674D01*
X35794725Y24514670D01*
X35794723Y24514669D01*
X35723533Y24408124D01*
X35674498Y24289743D01*
X35674497Y24289740D01*
X35649500Y24164068D01*
X35649500Y24035933D01*
X35674497Y23910261D01*
X35674498Y23910258D01*
X35716803Y23808124D01*
X35723535Y23791873D01*
X35794724Y23685331D01*
X35885331Y23594724D01*
X35991873Y23523535D01*
X36110256Y23474499D01*
X36110258Y23474499D01*
X36110260Y23474498D01*
X36152903Y23466016D01*
X36235931Y23449500D01*
X36235933Y23449500D01*
X36364067Y23449500D01*
X36364069Y23449500D01*
X36489744Y23474499D01*
X36608127Y23523535D01*
X36714669Y23594724D01*
X36805276Y23685331D01*
X36876465Y23791873D01*
X36925501Y23910256D01*
X36950500Y24035931D01*
X36950500Y24073918D01*
X41249500Y24073918D01*
X41249500Y23926082D01*
X41252647Y23910261D01*
X41278340Y23781093D01*
X41278343Y23781083D01*
X41334915Y23644506D01*
X41417048Y23521585D01*
X41521584Y23417049D01*
X41644505Y23334916D01*
X41704027Y23310261D01*
X41781087Y23278342D01*
X41926082Y23249500D01*
X41926084Y23249500D01*
X42073916Y23249500D01*
X42073918Y23249500D01*
X42218913Y23278342D01*
X42355495Y23334916D01*
X42478416Y23417049D01*
X42582951Y23521584D01*
X42665084Y23644505D01*
X42721658Y23781087D01*
X42750500Y23926082D01*
X42750500Y24073918D01*
X45249500Y24073918D01*
X45249500Y23926082D01*
X45252647Y23910261D01*
X45278340Y23781093D01*
X45278343Y23781083D01*
X45334915Y23644506D01*
X45417048Y23521585D01*
X45521584Y23417049D01*
X45644505Y23334916D01*
X45704027Y23310261D01*
X45781087Y23278342D01*
X45926082Y23249500D01*
X45926084Y23249500D01*
X46073916Y23249500D01*
X46073918Y23249500D01*
X46218913Y23278342D01*
X46355495Y23334916D01*
X46478416Y23417049D01*
X46582951Y23521584D01*
X46665084Y23644505D01*
X46721658Y23781087D01*
X46750500Y23926082D01*
X46750500Y24073918D01*
X46721658Y24218913D01*
X46708988Y24249500D01*
X46665084Y24355495D01*
X46582951Y24478416D01*
X46478415Y24582952D01*
X46355494Y24665085D01*
X46218917Y24721657D01*
X46218907Y24721660D01*
X46121811Y24740974D01*
X46073918Y24750500D01*
X45926082Y24750500D01*
X45899066Y24745126D01*
X45781092Y24721660D01*
X45781082Y24721657D01*
X45644505Y24665085D01*
X45521584Y24582952D01*
X45521583Y24582950D01*
X45417050Y24478417D01*
X45417048Y24478416D01*
X45334915Y24355495D01*
X45278343Y24218918D01*
X45278340Y24218908D01*
X45254263Y24097865D01*
X45249500Y24073918D01*
X42750500Y24073918D01*
X42721658Y24218913D01*
X42708988Y24249500D01*
X42665084Y24355495D01*
X42582951Y24478416D01*
X42478415Y24582952D01*
X42355494Y24665085D01*
X42218917Y24721657D01*
X42218907Y24721660D01*
X42121811Y24740974D01*
X42073918Y24750500D01*
X41926082Y24750500D01*
X41899066Y24745126D01*
X41781092Y24721660D01*
X41781082Y24721657D01*
X41644505Y24665085D01*
X41521584Y24582952D01*
X41521583Y24582950D01*
X41417050Y24478417D01*
X41417048Y24478416D01*
X41334915Y24355495D01*
X41278343Y24218918D01*
X41278340Y24218908D01*
X41254263Y24097865D01*
X41249500Y24073918D01*
X36950500Y24073918D01*
X36950500Y24164069D01*
X36933506Y24249500D01*
X36925502Y24289740D01*
X36925501Y24289743D01*
X36906618Y24335330D01*
X36876465Y24408127D01*
X36805276Y24514669D01*
X36747270Y24572675D01*
X36725596Y24625001D01*
X36747268Y24677324D01*
X36755276Y24685331D01*
X36826465Y24791873D01*
X36875501Y24910256D01*
X36900500Y25035931D01*
X36900500Y25164069D01*
X36888168Y25226061D01*
X36875502Y25289740D01*
X36875501Y25289743D01*
X36860290Y25326465D01*
X36826465Y25408127D01*
X36755276Y25514669D01*
X36664669Y25605276D01*
X36637342Y25623535D01*
X36629473Y25628793D01*
X36558127Y25676465D01*
X36558124Y25676467D01*
X36558123Y25676467D01*
X36439742Y25725502D01*
X36439739Y25725503D01*
X36349696Y25743414D01*
X36314069Y25750500D01*
X36185931Y25750500D01*
X36154726Y25744293D01*
X36060260Y25725503D01*
X36060257Y25725502D01*
X35941876Y25676467D01*
X35835331Y25605277D01*
X35835330Y25605275D01*
X35744725Y25514670D01*
X35744723Y25514669D01*
X35673533Y25408124D01*
X35624498Y25289743D01*
X35624497Y25289740D01*
X35611520Y25224498D01*
X35599620Y25164669D01*
X35599500Y25164068D01*
X29865678Y25164068D01*
X29865276Y25164669D01*
X29774669Y25255276D01*
X29747342Y25273535D01*
X29723084Y25289744D01*
X29668127Y25326465D01*
X29668124Y25326467D01*
X29668123Y25326467D01*
X29549742Y25375502D01*
X29549739Y25375503D01*
X29459696Y25393414D01*
X29424069Y25400500D01*
X29295931Y25400500D01*
X29264726Y25394293D01*
X29170260Y25375503D01*
X29170257Y25375502D01*
X29051876Y25326467D01*
X28945331Y25255277D01*
X28945330Y25255275D01*
X28854725Y25164670D01*
X28854723Y25164669D01*
X28783533Y25058124D01*
X28734498Y24939743D01*
X28734497Y24939740D01*
X28713043Y24831883D01*
X28709500Y24814069D01*
X9728219Y24814069D01*
X9750500Y24926082D01*
X9750500Y25073918D01*
X9721658Y25218913D01*
X9665084Y25355495D01*
X9582951Y25478416D01*
X9478416Y25582951D01*
X9445005Y25605276D01*
X9355494Y25665085D01*
X9218917Y25721657D01*
X9218907Y25721660D01*
X9121811Y25740974D01*
X9073918Y25750500D01*
X8926082Y25750500D01*
X8884977Y25742324D01*
X8781092Y25721660D01*
X8781082Y25721657D01*
X8644505Y25665085D01*
X8521584Y25582952D01*
X8521583Y25582950D01*
X8417050Y25478417D01*
X8417048Y25478416D01*
X8334915Y25355495D01*
X8278343Y25218918D01*
X8278340Y25218908D01*
X8249500Y25073917D01*
X1750500Y25073917D01*
X1750500Y25073918D01*
X1721658Y25218913D01*
X1665084Y25355495D01*
X1582951Y25478416D01*
X1478416Y25582951D01*
X1445005Y25605276D01*
X1355494Y25665085D01*
X1218917Y25721657D01*
X1218907Y25721660D01*
X1121811Y25740974D01*
X1073918Y25750500D01*
X926082Y25750500D01*
X884977Y25742324D01*
X781092Y25721660D01*
X781082Y25721657D01*
X644505Y25665085D01*
X521584Y25582952D01*
X521583Y25582950D01*
X426826Y25488193D01*
X374500Y25466519D01*
X322174Y25488193D01*
X300500Y25540519D01*
X300500Y27459481D01*
X322174Y27511807D01*
X374500Y27533481D01*
X426826Y27511807D01*
X521584Y27417049D01*
X644505Y27334916D01*
X781087Y27278342D01*
X926082Y27249500D01*
X926084Y27249500D01*
X1073916Y27249500D01*
X1073918Y27249500D01*
X1218913Y27278342D01*
X1355495Y27334916D01*
X1478416Y27417049D01*
X1582951Y27521584D01*
X1665084Y27644505D01*
X1721658Y27781087D01*
X1750500Y27926082D01*
X1750500Y28073917D01*
X6249500Y28073917D01*
X6249500Y27926084D01*
X6278340Y27781093D01*
X6278343Y27781083D01*
X6334915Y27644506D01*
X6409100Y27533481D01*
X6417049Y27521584D01*
X6521584Y27417049D01*
X6644505Y27334916D01*
X6781087Y27278342D01*
X6926082Y27249500D01*
X6926084Y27249500D01*
X7073916Y27249500D01*
X7073918Y27249500D01*
X7218913Y27278342D01*
X7355495Y27334916D01*
X7478416Y27417049D01*
X7582951Y27521584D01*
X7665084Y27644505D01*
X7721658Y27781087D01*
X7750500Y27926082D01*
X7750500Y27990425D01*
X10699500Y27990425D01*
X10699500Y27709575D01*
X10706832Y27644505D01*
X10730945Y27430488D01*
X10730945Y27430487D01*
X10793437Y27156691D01*
X10793442Y27156675D01*
X10886198Y26891593D01*
X11008052Y26638560D01*
X11008054Y26638556D01*
X11008055Y26638555D01*
X11094801Y26500500D01*
X11157477Y26400752D01*
X11278096Y26249500D01*
X11332584Y26181175D01*
X11531175Y25982584D01*
X11750752Y25807477D01*
X11988555Y25658055D01*
X12241592Y25536199D01*
X12506682Y25443440D01*
X12506687Y25443439D01*
X12506690Y25443438D01*
X12780486Y25380946D01*
X12780487Y25380946D01*
X12780491Y25380945D01*
X13059575Y25349500D01*
X13059579Y25349500D01*
X13340421Y25349500D01*
X13340425Y25349500D01*
X13619509Y25380945D01*
X13893318Y25443440D01*
X14158408Y25536199D01*
X14411445Y25658055D01*
X14649248Y25807477D01*
X14782910Y25914069D01*
X25974500Y25914069D01*
X25974500Y25785931D01*
X25974620Y25785330D01*
X25999497Y25660261D01*
X25999498Y25660258D01*
X26045375Y25549500D01*
X26048535Y25541873D01*
X26084403Y25488193D01*
X26114305Y25443440D01*
X26119724Y25435331D01*
X26210331Y25344724D01*
X26316873Y25273535D01*
X26435256Y25224499D01*
X26435258Y25224499D01*
X26435260Y25224498D01*
X26463338Y25218913D01*
X26560931Y25199500D01*
X26560933Y25199500D01*
X26689067Y25199500D01*
X26689069Y25199500D01*
X26814744Y25224499D01*
X26933127Y25273535D01*
X27039669Y25344724D01*
X27130276Y25435331D01*
X27201465Y25541873D01*
X27250501Y25660256D01*
X27275500Y25785931D01*
X27275500Y25914069D01*
X27250501Y26039744D01*
X27201465Y26158127D01*
X27130276Y26264669D01*
X27039669Y26355276D01*
X26933127Y26426465D01*
X26933124Y26426467D01*
X26933123Y26426467D01*
X26814742Y26475502D01*
X26814739Y26475503D01*
X26724696Y26493414D01*
X26689069Y26500500D01*
X26560931Y26500500D01*
X26529726Y26494293D01*
X26435260Y26475503D01*
X26435257Y26475502D01*
X26316876Y26426467D01*
X26210331Y26355277D01*
X26210330Y26355275D01*
X26119725Y26264670D01*
X26119723Y26264669D01*
X26048533Y26158124D01*
X25999498Y26039743D01*
X25999497Y26039740D01*
X25978043Y25931883D01*
X25974500Y25914069D01*
X14782910Y25914069D01*
X14868825Y25982584D01*
X15067416Y26181175D01*
X15242523Y26400752D01*
X15391945Y26638555D01*
X15513801Y26891592D01*
X15577600Y27073918D01*
X16249500Y27073918D01*
X16249500Y26926082D01*
X16256361Y26891592D01*
X16278340Y26781093D01*
X16278343Y26781083D01*
X16334915Y26644506D01*
X16403490Y26541877D01*
X16417049Y26521584D01*
X16521584Y26417049D01*
X16644505Y26334916D01*
X16781087Y26278342D01*
X16926082Y26249500D01*
X16926084Y26249500D01*
X17073916Y26249500D01*
X17073918Y26249500D01*
X17218913Y26278342D01*
X17355495Y26334916D01*
X17478416Y26417049D01*
X17582951Y26521584D01*
X17665084Y26644505D01*
X17721658Y26781087D01*
X17750500Y26926082D01*
X17750500Y27073918D01*
X19249500Y27073918D01*
X19249500Y26926082D01*
X19256361Y26891592D01*
X19278340Y26781093D01*
X19278343Y26781083D01*
X19334915Y26644506D01*
X19403490Y26541877D01*
X19417049Y26521584D01*
X19521584Y26417049D01*
X19644505Y26334916D01*
X19781087Y26278342D01*
X19926082Y26249500D01*
X19926084Y26249500D01*
X20073916Y26249500D01*
X20073918Y26249500D01*
X20218913Y26278342D01*
X20355495Y26334916D01*
X20478416Y26417049D01*
X20582951Y26521584D01*
X20665084Y26644505D01*
X20721658Y26781087D01*
X20750500Y26926082D01*
X20750500Y27073918D01*
X22249500Y27073918D01*
X22249500Y26926082D01*
X22256361Y26891592D01*
X22278340Y26781093D01*
X22278343Y26781083D01*
X22334915Y26644506D01*
X22403490Y26541877D01*
X22417049Y26521584D01*
X22521584Y26417049D01*
X22644505Y26334916D01*
X22781087Y26278342D01*
X22926082Y26249500D01*
X22926084Y26249500D01*
X23073916Y26249500D01*
X23073918Y26249500D01*
X23218913Y26278342D01*
X23355495Y26334916D01*
X23478416Y26417049D01*
X23582951Y26521584D01*
X23665084Y26644505D01*
X23721658Y26781087D01*
X23748110Y26914069D01*
X27299500Y26914069D01*
X27299500Y26785931D01*
X27301383Y26776467D01*
X27324497Y26660261D01*
X27324498Y26660258D01*
X27324499Y26660256D01*
X27373535Y26541873D01*
X27444724Y26435331D01*
X27535331Y26344724D01*
X27641873Y26273535D01*
X27760256Y26224499D01*
X27760258Y26224499D01*
X27760260Y26224498D01*
X27802903Y26216016D01*
X27885931Y26199500D01*
X27885933Y26199500D01*
X28014067Y26199500D01*
X28014069Y26199500D01*
X28139744Y26224499D01*
X28235272Y26264068D01*
X38999500Y26264068D01*
X38999500Y26135933D01*
X39024497Y26010261D01*
X39024498Y26010258D01*
X39064341Y25914068D01*
X39073535Y25891873D01*
X39121207Y25820527D01*
X39144321Y25785933D01*
X39144724Y25785331D01*
X39235331Y25694724D01*
X39341873Y25623535D01*
X39460256Y25574499D01*
X39460258Y25574499D01*
X39460260Y25574498D01*
X39502903Y25566016D01*
X39585931Y25549500D01*
X39585933Y25549500D01*
X39714067Y25549500D01*
X39714069Y25549500D01*
X39839744Y25574499D01*
X39958127Y25623535D01*
X40064669Y25694724D01*
X40155276Y25785331D01*
X40226465Y25891873D01*
X40275501Y26010256D01*
X40300500Y26135931D01*
X40300500Y26264069D01*
X40284456Y26344725D01*
X40275502Y26389740D01*
X40275501Y26389743D01*
X40264190Y26417049D01*
X40226465Y26508127D01*
X40155276Y26614669D01*
X40064669Y26705276D01*
X39958127Y26776465D01*
X39958124Y26776467D01*
X39958123Y26776467D01*
X39839742Y26825502D01*
X39839739Y26825503D01*
X39749696Y26843414D01*
X39714069Y26850500D01*
X39585931Y26850500D01*
X39554726Y26844293D01*
X39460260Y26825503D01*
X39460257Y26825502D01*
X39341876Y26776467D01*
X39235331Y26705277D01*
X39235330Y26705275D01*
X39144725Y26614670D01*
X39144723Y26614669D01*
X39073533Y26508124D01*
X39024498Y26389743D01*
X39024497Y26389740D01*
X39012462Y26329233D01*
X38999620Y26264669D01*
X38999500Y26264068D01*
X28235272Y26264068D01*
X28258127Y26273535D01*
X28364669Y26344724D01*
X28455276Y26435331D01*
X28526465Y26541873D01*
X28575501Y26660256D01*
X28600500Y26785931D01*
X28600500Y26914069D01*
X28575501Y27039744D01*
X28526465Y27158127D01*
X28455276Y27264669D01*
X28364669Y27355276D01*
X28364341Y27355495D01*
X28329473Y27378793D01*
X28258127Y27426465D01*
X28258124Y27426467D01*
X28258123Y27426467D01*
X28139742Y27475502D01*
X28139739Y27475503D01*
X28049696Y27493414D01*
X28014069Y27500500D01*
X27885931Y27500500D01*
X27854726Y27494293D01*
X27760260Y27475503D01*
X27760257Y27475502D01*
X27641876Y27426467D01*
X27535331Y27355277D01*
X27535330Y27355275D01*
X27444725Y27264670D01*
X27444723Y27264669D01*
X27373533Y27158124D01*
X27324498Y27039743D01*
X27324497Y27039740D01*
X27303043Y26931883D01*
X27299500Y26914069D01*
X23748110Y26914069D01*
X23750500Y26926082D01*
X23750500Y27073918D01*
X23721658Y27218913D01*
X23708988Y27249500D01*
X23665084Y27355495D01*
X23582951Y27478416D01*
X23478415Y27582952D01*
X23355494Y27665085D01*
X23218917Y27721657D01*
X23218907Y27721660D01*
X23121811Y27740974D01*
X23073918Y27750500D01*
X22926082Y27750500D01*
X22884977Y27742324D01*
X22781092Y27721660D01*
X22781082Y27721657D01*
X22644505Y27665085D01*
X22521584Y27582952D01*
X22521583Y27582950D01*
X22417050Y27478417D01*
X22417048Y27478416D01*
X22334915Y27355495D01*
X22278343Y27218918D01*
X22278340Y27218908D01*
X22255085Y27101994D01*
X22249500Y27073918D01*
X20750500Y27073918D01*
X20721658Y27218913D01*
X20708988Y27249500D01*
X20665084Y27355495D01*
X20582951Y27478416D01*
X20478415Y27582952D01*
X20355494Y27665085D01*
X20218917Y27721657D01*
X20218907Y27721660D01*
X20121811Y27740974D01*
X20073918Y27750500D01*
X19926082Y27750500D01*
X19884977Y27742324D01*
X19781092Y27721660D01*
X19781082Y27721657D01*
X19644505Y27665085D01*
X19521584Y27582952D01*
X19521583Y27582950D01*
X19417050Y27478417D01*
X19417048Y27478416D01*
X19334915Y27355495D01*
X19278343Y27218918D01*
X19278340Y27218908D01*
X19255085Y27101994D01*
X19249500Y27073918D01*
X17750500Y27073918D01*
X17721658Y27218913D01*
X17708988Y27249500D01*
X17665084Y27355495D01*
X17582951Y27478416D01*
X17478415Y27582952D01*
X17355494Y27665085D01*
X17218917Y27721657D01*
X17218907Y27721660D01*
X17121811Y27740974D01*
X17073918Y27750500D01*
X16926082Y27750500D01*
X16884977Y27742324D01*
X16781092Y27721660D01*
X16781082Y27721657D01*
X16644505Y27665085D01*
X16521584Y27582952D01*
X16521583Y27582950D01*
X16417050Y27478417D01*
X16417048Y27478416D01*
X16334915Y27355495D01*
X16278343Y27218918D01*
X16278340Y27218908D01*
X16255085Y27101994D01*
X16249500Y27073918D01*
X15577600Y27073918D01*
X15606560Y27156682D01*
X15669055Y27430491D01*
X15700500Y27709575D01*
X15700500Y27990425D01*
X15691093Y28073917D01*
X37249500Y28073917D01*
X37249500Y27926084D01*
X37278340Y27781093D01*
X37278343Y27781083D01*
X37334915Y27644506D01*
X37409100Y27533481D01*
X37417049Y27521584D01*
X37521584Y27417049D01*
X37644505Y27334916D01*
X37781087Y27278342D01*
X37926082Y27249500D01*
X37926084Y27249500D01*
X38073916Y27249500D01*
X38073918Y27249500D01*
X38218913Y27278342D01*
X38355495Y27334916D01*
X38478416Y27417049D01*
X38582951Y27521584D01*
X38665084Y27644505D01*
X38721658Y27781087D01*
X38750500Y27926082D01*
X38750500Y28073917D01*
X40249500Y28073917D01*
X40249500Y27926084D01*
X40278340Y27781093D01*
X40278343Y27781083D01*
X40334915Y27644506D01*
X40409100Y27533481D01*
X40417049Y27521584D01*
X40521584Y27417049D01*
X40644505Y27334916D01*
X40781087Y27278342D01*
X40926082Y27249500D01*
X40926084Y27249500D01*
X41073916Y27249500D01*
X41073918Y27249500D01*
X41218913Y27278342D01*
X41355495Y27334916D01*
X41478416Y27417049D01*
X41582951Y27521584D01*
X41665084Y27644505D01*
X41721658Y27781087D01*
X41750500Y27926082D01*
X41750500Y27990425D01*
X47549500Y27990425D01*
X47549500Y27709575D01*
X47556832Y27644505D01*
X47580945Y27430488D01*
X47580945Y27430487D01*
X47643437Y27156691D01*
X47643442Y27156675D01*
X47736198Y26891593D01*
X47858052Y26638560D01*
X47858054Y26638556D01*
X47858055Y26638555D01*
X47944801Y26500500D01*
X48007477Y26400752D01*
X48128096Y26249500D01*
X48182584Y26181175D01*
X48381175Y25982584D01*
X48600752Y25807477D01*
X48838555Y25658055D01*
X49091592Y25536199D01*
X49356682Y25443440D01*
X49356687Y25443439D01*
X49356690Y25443438D01*
X49630486Y25380946D01*
X49630487Y25380946D01*
X49630491Y25380945D01*
X49909575Y25349500D01*
X49909579Y25349500D01*
X50190421Y25349500D01*
X50190425Y25349500D01*
X50469509Y25380945D01*
X50743318Y25443440D01*
X51008408Y25536199D01*
X51261445Y25658055D01*
X51499248Y25807477D01*
X51718825Y25982584D01*
X51917416Y26181175D01*
X52092523Y26400752D01*
X52241945Y26638555D01*
X52363801Y26891592D01*
X52456560Y27156682D01*
X52519055Y27430491D01*
X52550500Y27709575D01*
X52550500Y27990425D01*
X52519055Y28269509D01*
X52499429Y28355495D01*
X52456562Y28543310D01*
X52456557Y28543326D01*
X52449623Y28563141D01*
X52363801Y28808408D01*
X52241945Y29061445D01*
X52092523Y29299248D01*
X51917416Y29518825D01*
X51718825Y29717416D01*
X51499248Y29892523D01*
X51261445Y30041945D01*
X51261444Y30041946D01*
X51261440Y30041948D01*
X51008407Y30163802D01*
X50743325Y30256558D01*
X50743309Y30256563D01*
X50469513Y30319055D01*
X50329967Y30334778D01*
X50190425Y30350500D01*
X49909575Y30350500D01*
X49770033Y30334778D01*
X49630487Y30319055D01*
X49630486Y30319055D01*
X49356690Y30256563D01*
X49356674Y30256558D01*
X49091592Y30163802D01*
X48838559Y30041948D01*
X48600751Y29892523D01*
X48381175Y29717417D01*
X48182583Y29518825D01*
X48007477Y29299249D01*
X47858052Y29061441D01*
X47736198Y28808408D01*
X47643442Y28543326D01*
X47643437Y28543310D01*
X47580945Y28269514D01*
X47580945Y28269513D01*
X47570068Y28172972D01*
X47549500Y27990425D01*
X41750500Y27990425D01*
X41750500Y28073918D01*
X41721658Y28218913D01*
X41700700Y28269509D01*
X41665084Y28355495D01*
X41582951Y28478416D01*
X41478415Y28582952D01*
X41355494Y28665085D01*
X41218917Y28721657D01*
X41218907Y28721660D01*
X41121811Y28740974D01*
X41073918Y28750500D01*
X40926082Y28750500D01*
X40884977Y28742324D01*
X40781092Y28721660D01*
X40781082Y28721657D01*
X40644505Y28665085D01*
X40521584Y28582952D01*
X40521583Y28582950D01*
X40417050Y28478417D01*
X40417048Y28478416D01*
X40334915Y28355495D01*
X40278343Y28218918D01*
X40278340Y28218908D01*
X40249500Y28073917D01*
X38750500Y28073917D01*
X38750500Y28073918D01*
X38721658Y28218913D01*
X38700700Y28269509D01*
X38665084Y28355495D01*
X38582951Y28478416D01*
X38478415Y28582952D01*
X38355494Y28665085D01*
X38218917Y28721657D01*
X38218907Y28721660D01*
X38121811Y28740974D01*
X38073918Y28750500D01*
X37926082Y28750500D01*
X37884977Y28742324D01*
X37781092Y28721660D01*
X37781082Y28721657D01*
X37644505Y28665085D01*
X37521584Y28582952D01*
X37521583Y28582950D01*
X37417050Y28478417D01*
X37417048Y28478416D01*
X37334915Y28355495D01*
X37278343Y28218918D01*
X37278340Y28218908D01*
X37249500Y28073917D01*
X15691093Y28073917D01*
X15669055Y28269509D01*
X15649429Y28355495D01*
X15606562Y28543310D01*
X15606557Y28543326D01*
X15599623Y28563141D01*
X15513801Y28808408D01*
X15391945Y29061445D01*
X15242523Y29299248D01*
X15067416Y29518825D01*
X14868825Y29717416D01*
X14649248Y29892523D01*
X14411445Y30041945D01*
X14411444Y30041946D01*
X14411440Y30041948D01*
X14158407Y30163802D01*
X13893325Y30256558D01*
X13893309Y30256563D01*
X13619513Y30319055D01*
X13479967Y30334778D01*
X13340425Y30350500D01*
X13059575Y30350500D01*
X12920033Y30334778D01*
X12780487Y30319055D01*
X12780486Y30319055D01*
X12506690Y30256563D01*
X12506674Y30256558D01*
X12241592Y30163802D01*
X11988559Y30041948D01*
X11750751Y29892523D01*
X11531175Y29717417D01*
X11332583Y29518825D01*
X11157477Y29299249D01*
X11008052Y29061441D01*
X10886198Y28808408D01*
X10793442Y28543326D01*
X10793437Y28543310D01*
X10730945Y28269514D01*
X10730945Y28269513D01*
X10720068Y28172972D01*
X10699500Y27990425D01*
X7750500Y27990425D01*
X7750500Y28073918D01*
X7721658Y28218913D01*
X7700700Y28269509D01*
X7665084Y28355495D01*
X7582951Y28478416D01*
X7478415Y28582952D01*
X7355494Y28665085D01*
X7218917Y28721657D01*
X7218907Y28721660D01*
X7121811Y28740974D01*
X7073918Y28750500D01*
X6926082Y28750500D01*
X6884977Y28742324D01*
X6781092Y28721660D01*
X6781082Y28721657D01*
X6644505Y28665085D01*
X6521584Y28582952D01*
X6521583Y28582950D01*
X6417050Y28478417D01*
X6417048Y28478416D01*
X6334915Y28355495D01*
X6278343Y28218918D01*
X6278340Y28218908D01*
X6249500Y28073917D01*
X1750500Y28073917D01*
X1750500Y28073918D01*
X1721658Y28218913D01*
X1700700Y28269509D01*
X1665084Y28355495D01*
X1582951Y28478416D01*
X1478415Y28582952D01*
X1355494Y28665085D01*
X1218917Y28721657D01*
X1218907Y28721660D01*
X1121811Y28740974D01*
X1073918Y28750500D01*
X926082Y28750500D01*
X884977Y28742324D01*
X781092Y28721660D01*
X781082Y28721657D01*
X644505Y28665085D01*
X521584Y28582952D01*
X501772Y28563140D01*
X449445Y28541467D01*
X397120Y28563142D01*
X375447Y28615469D01*
X378338Y28635949D01*
X450841Y28887611D01*
X453571Y28895414D01*
X566246Y29167436D01*
X569840Y29174898D01*
X712268Y29432603D01*
X716665Y29439601D01*
X887044Y29679727D01*
X892202Y29686196D01*
X1088408Y29905751D01*
X1094249Y29911592D01*
X1313804Y30107798D01*
X1320273Y30112956D01*
X1560399Y30283335D01*
X1567397Y30287732D01*
X1825102Y30430160D01*
X1832564Y30433754D01*
X2104586Y30546429D01*
X2112389Y30549159D01*
X2364048Y30621661D01*
X2420328Y30615320D01*
X2455641Y30571039D01*
X2449300Y30514758D01*
X2436860Y30498228D01*
X2417048Y30478416D01*
X2334915Y30355495D01*
X2278343Y30218918D01*
X2278340Y30218908D01*
X2256238Y30107790D01*
X2249500Y30073918D01*
X2249500Y29926082D01*
X2259026Y29878189D01*
X2278340Y29781093D01*
X2278343Y29781083D01*
X2334915Y29644506D01*
X2334916Y29644505D01*
X2417049Y29521584D01*
X2521584Y29417049D01*
X2644505Y29334916D01*
X2781087Y29278342D01*
X2926082Y29249500D01*
X2926084Y29249500D01*
X3073916Y29249500D01*
X3073918Y29249500D01*
X3218913Y29278342D01*
X3355495Y29334916D01*
X3478416Y29417049D01*
X3582951Y29521584D01*
X3665084Y29644505D01*
X3721658Y29781087D01*
X3750500Y29926082D01*
X3750500Y30073918D01*
X3721658Y30218913D01*
X3665084Y30355495D01*
X3582951Y30478416D01*
X3488193Y30573174D01*
X3466519Y30625500D01*
X3488193Y30677826D01*
X3540519Y30699500D01*
X6459481Y30699500D01*
X6511807Y30677826D01*
G37*
%TD.AperFunction*%
%TD*%
M02*
