%TF.GenerationSoftware,KiCad,Pcbnew,9.0.2*%
%TF.CreationDate,2026-09-16T01:00:39+02:00*%
%TF.ProjectId,Stm32,53746d33-322e-46b6-9963-61645f706362,rev?*%
%TF.SameCoordinates,PX42c1d80PY4c4b400*%
%TF.FileFunction,Drillmap*%
%TF.FilePolarity,Positive*%
%FSLAX45Y45*%
G04 Gerber Fmt 4.5, Leading zero omitted, Abs format (unit mm)*
G04 Created by KiCad (PCBNEW 9.0.2) date 2026-09-16 01:00:39*
%MOMM*%
%LPD*%
G01*
G04 APERTURE LIST*
%ADD10C,0.050000*%
%ADD11C,0.200000*%
%ADD12C,0.100000*%
%ADD13C,0.220000*%
G04 APERTURE END LIST*
D10*
X0Y2800000D02*
G75*
G02*
X300000Y3100000I300000J0D01*
G01*
X5200000Y0D02*
X300000Y0D01*
X5500000Y2800000D02*
X5500000Y300000D01*
X0Y300000D02*
X0Y2800000D01*
X300000Y0D02*
G75*
G02*
X0Y300000I0J300000D01*
G01*
X5200000Y3100000D02*
G75*
G02*
X5500000Y2800000I0J-300000D01*
G01*
X300000Y3100000D02*
X2200000Y3100000D01*
X5500000Y300000D02*
G75*
G02*
X5200000Y0I-300000J0D01*
G01*
X2200000Y3100000D02*
X5200000Y3100000D01*
D11*
D12*
X1125000Y1715000D02*
X1155000Y1685000D01*
X1155000Y1715000D02*
X1125000Y1685000D01*
X1200000Y1295000D02*
X1230000Y1265000D01*
X1230000Y1295000D02*
X1200000Y1265000D01*
X1655000Y745000D02*
X1685000Y715000D01*
X1685000Y745000D02*
X1655000Y715000D01*
X1660000Y1125000D02*
X1690000Y1095000D01*
X1690000Y1125000D02*
X1660000Y1095000D01*
X2135000Y2135000D02*
X2165000Y2105000D01*
X2165000Y2135000D02*
X2135000Y2105000D01*
X2385000Y645000D02*
X2415000Y615000D01*
X2415000Y645000D02*
X2385000Y615000D01*
X2385000Y465000D02*
X2415000Y435000D01*
X2415000Y465000D02*
X2385000Y435000D01*
X2385000Y285000D02*
X2415000Y255000D01*
X2415000Y285000D02*
X2385000Y255000D01*
X2515000Y1177500D02*
X2545000Y1147500D01*
X2545000Y1177500D02*
X2515000Y1147500D01*
X2535000Y1325000D02*
X2565000Y1295000D01*
X2565000Y1325000D02*
X2535000Y1295000D01*
X2647500Y2600000D02*
X2677500Y2570000D01*
X2677500Y2600000D02*
X2647500Y2570000D01*
X2685000Y1395000D02*
X2715000Y1365000D01*
X2715000Y1395000D02*
X2685000Y1365000D01*
X2730000Y1665000D02*
X2760000Y1635000D01*
X2760000Y1665000D02*
X2730000Y1635000D01*
X2735000Y1994000D02*
X2765000Y1964000D01*
X2765000Y1994000D02*
X2735000Y1964000D01*
X2780000Y2700000D02*
X2810000Y2670000D01*
X2810000Y2700000D02*
X2780000Y2670000D01*
X2785000Y1106100D02*
X2815000Y1076100D01*
X2815000Y1106100D02*
X2785000Y1076100D01*
X2825000Y2005000D02*
X2855000Y1975000D01*
X2855000Y2005000D02*
X2825000Y1975000D01*
X2835000Y1669500D02*
X2865000Y1639500D01*
X2865000Y1669500D02*
X2835000Y1639500D01*
X2835000Y1395000D02*
X2865000Y1365000D01*
X2865000Y1395000D02*
X2835000Y1365000D01*
X2905000Y2780000D02*
X2935000Y2750000D01*
X2935000Y2780000D02*
X2905000Y2750000D01*
X2921000Y2490000D02*
X2951000Y2460000D01*
X2951000Y2490000D02*
X2921000Y2460000D01*
X2926000Y2365000D02*
X2956000Y2335000D01*
X2956000Y2365000D02*
X2926000Y2335000D01*
X2933500Y1275000D02*
X2963500Y1245000D01*
X2963500Y1275000D02*
X2933500Y1245000D01*
X3032500Y2780000D02*
X3062500Y2750000D01*
X3062500Y2780000D02*
X3032500Y2750000D01*
X3035000Y985000D02*
X3065000Y955000D01*
X3065000Y985000D02*
X3035000Y955000D01*
X3119600Y2071400D02*
X3149600Y2041400D01*
X3149600Y2071400D02*
X3119600Y2041400D01*
X3119600Y1817400D02*
X3149600Y1787400D01*
X3149600Y1817400D02*
X3119600Y1787400D01*
X3119600Y1614200D02*
X3149600Y1584200D01*
X3149600Y1614200D02*
X3119600Y1584200D01*
X3165000Y984500D02*
X3195000Y954500D01*
X3195000Y984500D02*
X3165000Y954500D01*
X3221200Y1995200D02*
X3251200Y1965200D01*
X3251200Y1995200D02*
X3221200Y1965200D01*
X3221200Y1690400D02*
X3251200Y1660400D01*
X3251200Y1690400D02*
X3221200Y1660400D01*
X3250000Y1276000D02*
X3280000Y1246000D01*
X3280000Y1276000D02*
X3250000Y1246000D01*
X3305000Y635000D02*
X3335000Y605000D01*
X3335000Y635000D02*
X3305000Y605000D01*
X3348200Y2071400D02*
X3378200Y2041400D01*
X3378200Y2071400D02*
X3348200Y2041400D01*
X3348200Y1614200D02*
X3378200Y1584200D01*
X3378200Y1614200D02*
X3348200Y1584200D01*
X3449800Y1995200D02*
X3479800Y1965200D01*
X3479800Y1995200D02*
X3449800Y1965200D01*
X3449800Y1690400D02*
X3479800Y1660400D01*
X3479800Y1690400D02*
X3449800Y1660400D01*
X3470000Y720000D02*
X3500000Y690000D01*
X3500000Y720000D02*
X3470000Y690000D01*
X3485000Y1235000D02*
X3515000Y1205000D01*
X3515000Y1235000D02*
X3485000Y1205000D01*
X3551400Y2071400D02*
X3581400Y2041400D01*
X3581400Y2071400D02*
X3551400Y2041400D01*
X3551400Y1817400D02*
X3581400Y1787400D01*
X3581400Y1817400D02*
X3551400Y1787400D01*
X3551400Y1614200D02*
X3581400Y1584200D01*
X3581400Y1614200D02*
X3551400Y1584200D01*
X3580000Y1246000D02*
X3610000Y1216000D01*
X3610000Y1246000D02*
X3580000Y1216000D01*
X3610000Y2525000D02*
X3640000Y2495000D01*
X3640000Y2525000D02*
X3610000Y2495000D01*
X3615000Y2425000D02*
X3645000Y2395000D01*
X3645000Y2425000D02*
X3615000Y2395000D01*
X3734000Y470000D02*
X3764000Y440000D01*
X3764000Y470000D02*
X3734000Y440000D01*
X3755000Y2265000D02*
X3785000Y2235000D01*
X3785000Y2265000D02*
X3755000Y2235000D01*
X3825000Y1595000D02*
X3855000Y1565000D01*
X3855000Y1595000D02*
X3825000Y1565000D01*
X3884000Y2045000D02*
X3914000Y2015000D01*
X3914000Y2045000D02*
X3884000Y2015000D01*
X3884500Y2135000D02*
X3914500Y2105000D01*
X3914500Y2135000D02*
X3884500Y2105000D01*
X3925000Y1785000D02*
X3955000Y1755000D01*
X3955000Y1785000D02*
X3925000Y1755000D01*
X3950000Y2635000D02*
X3980000Y2605000D01*
X3980000Y2635000D02*
X3950000Y2605000D01*
X4060000Y1781000D02*
X4090000Y1751000D01*
X4090000Y1781000D02*
X4060000Y1751000D01*
X4410000Y1786000D02*
X4440000Y1756000D01*
X4440000Y1786000D02*
X4410000Y1756000D01*
X4915000Y1680000D02*
X4945000Y1650000D01*
X4945000Y1680000D02*
X4915000Y1650000D01*
X4935000Y2250000D02*
X4965000Y2220000D01*
X4965000Y2250000D02*
X4935000Y2220000D01*
X5060000Y2250000D02*
X5090000Y2220000D01*
X5090000Y2250000D02*
X5060000Y2220000D01*
X5065000Y1680000D02*
X5095000Y1650000D01*
X5095000Y1680000D02*
X5065000Y1650000D01*
X5190000Y2250000D02*
X5220000Y2220000D01*
X5220000Y2250000D02*
X5190000Y2220000D01*
X5195000Y1675000D02*
X5225000Y1645000D01*
X5225000Y1675000D02*
X5195000Y1645000D01*
X120000Y2800000D02*
G75*
G02*
X80000Y2800000I-20000J0D01*
G01*
X80000Y2800000D02*
G75*
G02*
X120000Y2800000I20000J0D01*
G01*
X120000Y2500000D02*
G75*
G02*
X80000Y2500000I-20000J0D01*
G01*
X80000Y2500000D02*
G75*
G02*
X120000Y2500000I20000J0D01*
G01*
X120000Y1900000D02*
G75*
G02*
X80000Y1900000I-20000J0D01*
G01*
X80000Y1900000D02*
G75*
G02*
X120000Y1900000I20000J0D01*
G01*
X120000Y1600000D02*
G75*
G02*
X80000Y1600000I-20000J0D01*
G01*
X80000Y1600000D02*
G75*
G02*
X120000Y1600000I20000J0D01*
G01*
X120000Y1000000D02*
G75*
G02*
X80000Y1000000I-20000J0D01*
G01*
X80000Y1000000D02*
G75*
G02*
X120000Y1000000I20000J0D01*
G01*
X120000Y600000D02*
G75*
G02*
X80000Y600000I-20000J0D01*
G01*
X80000Y600000D02*
G75*
G02*
X120000Y600000I20000J0D01*
G01*
X120000Y300000D02*
G75*
G02*
X80000Y300000I-20000J0D01*
G01*
X80000Y300000D02*
G75*
G02*
X120000Y300000I20000J0D01*
G01*
X320000Y3000000D02*
G75*
G02*
X280000Y3000000I-20000J0D01*
G01*
X280000Y3000000D02*
G75*
G02*
X320000Y3000000I20000J0D01*
G01*
X420000Y100000D02*
G75*
G02*
X380000Y100000I-20000J0D01*
G01*
X380000Y100000D02*
G75*
G02*
X420000Y100000I20000J0D01*
G01*
X720000Y3000000D02*
G75*
G02*
X680000Y3000000I-20000J0D01*
G01*
X680000Y3000000D02*
G75*
G02*
X720000Y3000000I20000J0D01*
G01*
X720000Y2800000D02*
G75*
G02*
X680000Y2800000I-20000J0D01*
G01*
X680000Y2800000D02*
G75*
G02*
X720000Y2800000I20000J0D01*
G01*
X720000Y100000D02*
G75*
G02*
X680000Y100000I-20000J0D01*
G01*
X680000Y100000D02*
G75*
G02*
X720000Y100000I20000J0D01*
G01*
X820000Y900000D02*
G75*
G02*
X780000Y900000I-20000J0D01*
G01*
X780000Y900000D02*
G75*
G02*
X820000Y900000I20000J0D01*
G01*
X920000Y2500000D02*
G75*
G02*
X880000Y2500000I-20000J0D01*
G01*
X880000Y2500000D02*
G75*
G02*
X920000Y2500000I20000J0D01*
G01*
X920000Y1300000D02*
G75*
G02*
X880000Y1300000I-20000J0D01*
G01*
X880000Y1300000D02*
G75*
G02*
X920000Y1300000I20000J0D01*
G01*
X1020000Y3000000D02*
G75*
G02*
X980000Y3000000I-20000J0D01*
G01*
X980000Y3000000D02*
G75*
G02*
X1020000Y3000000I20000J0D01*
G01*
X1020000Y2200000D02*
G75*
G02*
X980000Y2200000I-20000J0D01*
G01*
X980000Y2200000D02*
G75*
G02*
X1020000Y2200000I20000J0D01*
G01*
X1020000Y100000D02*
G75*
G02*
X980000Y100000I-20000J0D01*
G01*
X980000Y100000D02*
G75*
G02*
X1020000Y100000I20000J0D01*
G01*
X1120000Y900000D02*
G75*
G02*
X1080000Y900000I-20000J0D01*
G01*
X1080000Y900000D02*
G75*
G02*
X1120000Y900000I20000J0D01*
G01*
X1520000Y2100000D02*
G75*
G02*
X1480000Y2100000I-20000J0D01*
G01*
X1480000Y2100000D02*
G75*
G02*
X1520000Y2100000I20000J0D01*
G01*
X1620000Y2400000D02*
G75*
G02*
X1580000Y2400000I-20000J0D01*
G01*
X1580000Y2400000D02*
G75*
G02*
X1620000Y2400000I20000J0D01*
G01*
X1720000Y3000000D02*
G75*
G02*
X1680000Y3000000I-20000J0D01*
G01*
X1680000Y3000000D02*
G75*
G02*
X1720000Y3000000I20000J0D01*
G01*
X1720000Y2700000D02*
G75*
G02*
X1680000Y2700000I-20000J0D01*
G01*
X1680000Y2700000D02*
G75*
G02*
X1720000Y2700000I20000J0D01*
G01*
X1720000Y1400000D02*
G75*
G02*
X1680000Y1400000I-20000J0D01*
G01*
X1680000Y1400000D02*
G75*
G02*
X1720000Y1400000I20000J0D01*
G01*
X1820000Y500000D02*
G75*
G02*
X1780000Y500000I-20000J0D01*
G01*
X1780000Y500000D02*
G75*
G02*
X1820000Y500000I20000J0D01*
G01*
X1820000Y100000D02*
G75*
G02*
X1780000Y100000I-20000J0D01*
G01*
X1780000Y100000D02*
G75*
G02*
X1820000Y100000I20000J0D01*
G01*
X2020000Y3000000D02*
G75*
G02*
X1980000Y3000000I-20000J0D01*
G01*
X1980000Y3000000D02*
G75*
G02*
X2020000Y3000000I20000J0D01*
G01*
X2020000Y2700000D02*
G75*
G02*
X1980000Y2700000I-20000J0D01*
G01*
X1980000Y2700000D02*
G75*
G02*
X2020000Y2700000I20000J0D01*
G01*
X2020000Y1000000D02*
G75*
G02*
X1980000Y1000000I-20000J0D01*
G01*
X1980000Y1000000D02*
G75*
G02*
X2020000Y1000000I20000J0D01*
G01*
X2120000Y500000D02*
G75*
G02*
X2080000Y500000I-20000J0D01*
G01*
X2080000Y500000D02*
G75*
G02*
X2120000Y500000I20000J0D01*
G01*
X2120000Y100000D02*
G75*
G02*
X2080000Y100000I-20000J0D01*
G01*
X2080000Y100000D02*
G75*
G02*
X2120000Y100000I20000J0D01*
G01*
X2320000Y3000000D02*
G75*
G02*
X2280000Y3000000I-20000J0D01*
G01*
X2280000Y3000000D02*
G75*
G02*
X2320000Y3000000I20000J0D01*
G01*
X2320000Y2700000D02*
G75*
G02*
X2280000Y2700000I-20000J0D01*
G01*
X2280000Y2700000D02*
G75*
G02*
X2320000Y2700000I20000J0D01*
G01*
X2320000Y1300000D02*
G75*
G02*
X2280000Y1300000I-20000J0D01*
G01*
X2280000Y1300000D02*
G75*
G02*
X2320000Y1300000I20000J0D01*
G01*
X2520000Y100000D02*
G75*
G02*
X2480000Y100000I-20000J0D01*
G01*
X2480000Y100000D02*
G75*
G02*
X2520000Y100000I20000J0D01*
G01*
X2620000Y3000000D02*
G75*
G02*
X2580000Y3000000I-20000J0D01*
G01*
X2580000Y3000000D02*
G75*
G02*
X2620000Y3000000I20000J0D01*
G01*
X2920000Y3000000D02*
G75*
G02*
X2880000Y3000000I-20000J0D01*
G01*
X2880000Y3000000D02*
G75*
G02*
X2920000Y3000000I20000J0D01*
G01*
X2920000Y100000D02*
G75*
G02*
X2880000Y100000I-20000J0D01*
G01*
X2880000Y100000D02*
G75*
G02*
X2920000Y100000I20000J0D01*
G01*
X3020000Y500000D02*
G75*
G02*
X2980000Y500000I-20000J0D01*
G01*
X2980000Y500000D02*
G75*
G02*
X3020000Y500000I20000J0D01*
G01*
X3220000Y3000000D02*
G75*
G02*
X3180000Y3000000I-20000J0D01*
G01*
X3180000Y3000000D02*
G75*
G02*
X3220000Y3000000I20000J0D01*
G01*
X3220000Y100000D02*
G75*
G02*
X3180000Y100000I-20000J0D01*
G01*
X3180000Y100000D02*
G75*
G02*
X3220000Y100000I20000J0D01*
G01*
X3520000Y3000000D02*
G75*
G02*
X3480000Y3000000I-20000J0D01*
G01*
X3480000Y3000000D02*
G75*
G02*
X3520000Y3000000I20000J0D01*
G01*
X3520000Y100000D02*
G75*
G02*
X3480000Y100000I-20000J0D01*
G01*
X3480000Y100000D02*
G75*
G02*
X3520000Y100000I20000J0D01*
G01*
X3820000Y3000000D02*
G75*
G02*
X3780000Y3000000I-20000J0D01*
G01*
X3780000Y3000000D02*
G75*
G02*
X3820000Y3000000I20000J0D01*
G01*
X3820000Y2800000D02*
G75*
G02*
X3780000Y2800000I-20000J0D01*
G01*
X3780000Y2800000D02*
G75*
G02*
X3820000Y2800000I20000J0D01*
G01*
X3820000Y900000D02*
G75*
G02*
X3780000Y900000I-20000J0D01*
G01*
X3780000Y900000D02*
G75*
G02*
X3820000Y900000I20000J0D01*
G01*
X3820000Y100000D02*
G75*
G02*
X3780000Y100000I-20000J0D01*
G01*
X3780000Y100000D02*
G75*
G02*
X3820000Y100000I20000J0D01*
G01*
X4120000Y3000000D02*
G75*
G02*
X4080000Y3000000I-20000J0D01*
G01*
X4080000Y3000000D02*
G75*
G02*
X4120000Y3000000I20000J0D01*
G01*
X4120000Y2800000D02*
G75*
G02*
X4080000Y2800000I-20000J0D01*
G01*
X4080000Y2800000D02*
G75*
G02*
X4120000Y2800000I20000J0D01*
G01*
X4120000Y500000D02*
G75*
G02*
X4080000Y500000I-20000J0D01*
G01*
X4080000Y500000D02*
G75*
G02*
X4120000Y500000I20000J0D01*
G01*
X4120000Y100000D02*
G75*
G02*
X4080000Y100000I-20000J0D01*
G01*
X4080000Y100000D02*
G75*
G02*
X4120000Y100000I20000J0D01*
G01*
X4220000Y2400000D02*
G75*
G02*
X4180000Y2400000I-20000J0D01*
G01*
X4180000Y2400000D02*
G75*
G02*
X4220000Y2400000I20000J0D01*
G01*
X4220000Y1600000D02*
G75*
G02*
X4180000Y1600000I-20000J0D01*
G01*
X4180000Y1600000D02*
G75*
G02*
X4220000Y1600000I20000J0D01*
G01*
X4220000Y1000000D02*
G75*
G02*
X4180000Y1000000I-20000J0D01*
G01*
X4180000Y1000000D02*
G75*
G02*
X4220000Y1000000I20000J0D01*
G01*
X4420000Y3000000D02*
G75*
G02*
X4380000Y3000000I-20000J0D01*
G01*
X4380000Y3000000D02*
G75*
G02*
X4420000Y3000000I20000J0D01*
G01*
X4420000Y2200000D02*
G75*
G02*
X4380000Y2200000I-20000J0D01*
G01*
X4380000Y2200000D02*
G75*
G02*
X4420000Y2200000I20000J0D01*
G01*
X4420000Y500000D02*
G75*
G02*
X4380000Y500000I-20000J0D01*
G01*
X4380000Y500000D02*
G75*
G02*
X4420000Y500000I20000J0D01*
G01*
X4420000Y100000D02*
G75*
G02*
X4380000Y100000I-20000J0D01*
G01*
X4380000Y100000D02*
G75*
G02*
X4420000Y100000I20000J0D01*
G01*
X4520000Y1000000D02*
G75*
G02*
X4480000Y1000000I-20000J0D01*
G01*
X4480000Y1000000D02*
G75*
G02*
X4520000Y1000000I20000J0D01*
G01*
X4620000Y2400000D02*
G75*
G02*
X4580000Y2400000I-20000J0D01*
G01*
X4580000Y2400000D02*
G75*
G02*
X4620000Y2400000I20000J0D01*
G01*
X4620000Y1300000D02*
G75*
G02*
X4580000Y1300000I-20000J0D01*
G01*
X4580000Y1300000D02*
G75*
G02*
X4620000Y1300000I20000J0D01*
G01*
X4708750Y2088750D02*
G75*
G02*
X4668750Y2088750I-20000J0D01*
G01*
X4668750Y2088750D02*
G75*
G02*
X4708750Y2088750I20000J0D01*
G01*
X4710000Y1830000D02*
G75*
G02*
X4670000Y1830000I-20000J0D01*
G01*
X4670000Y1830000D02*
G75*
G02*
X4710000Y1830000I20000J0D01*
G01*
X4720000Y3000000D02*
G75*
G02*
X4680000Y3000000I-20000J0D01*
G01*
X4680000Y3000000D02*
G75*
G02*
X4720000Y3000000I20000J0D01*
G01*
X4720000Y700000D02*
G75*
G02*
X4680000Y700000I-20000J0D01*
G01*
X4680000Y700000D02*
G75*
G02*
X4720000Y700000I20000J0D01*
G01*
X4720000Y100000D02*
G75*
G02*
X4680000Y100000I-20000J0D01*
G01*
X4680000Y100000D02*
G75*
G02*
X4720000Y100000I20000J0D01*
G01*
X5020000Y1300000D02*
G75*
G02*
X4980000Y1300000I-20000J0D01*
G01*
X4980000Y1300000D02*
G75*
G02*
X5020000Y1300000I20000J0D01*
G01*
X5020000Y1000000D02*
G75*
G02*
X4980000Y1000000I-20000J0D01*
G01*
X4980000Y1000000D02*
G75*
G02*
X5020000Y1000000I20000J0D01*
G01*
X5320000Y3000000D02*
G75*
G02*
X5280000Y3000000I-20000J0D01*
G01*
X5280000Y3000000D02*
G75*
G02*
X5320000Y3000000I20000J0D01*
G01*
X5320000Y100000D02*
G75*
G02*
X5280000Y100000I-20000J0D01*
G01*
X5280000Y100000D02*
G75*
G02*
X5320000Y100000I20000J0D01*
G01*
X5420000Y2800000D02*
G75*
G02*
X5380000Y2800000I-20000J0D01*
G01*
X5380000Y2800000D02*
G75*
G02*
X5420000Y2800000I20000J0D01*
G01*
X5420000Y2400000D02*
G75*
G02*
X5380000Y2400000I-20000J0D01*
G01*
X5380000Y2400000D02*
G75*
G02*
X5420000Y2400000I20000J0D01*
G01*
X5420000Y2000000D02*
G75*
G02*
X5380000Y2000000I-20000J0D01*
G01*
X5380000Y2000000D02*
G75*
G02*
X5420000Y2000000I20000J0D01*
G01*
X5420000Y1600000D02*
G75*
G02*
X5380000Y1600000I-20000J0D01*
G01*
X5380000Y1600000D02*
G75*
G02*
X5420000Y1600000I20000J0D01*
G01*
X5420000Y1200000D02*
G75*
G02*
X5380000Y1200000I-20000J0D01*
G01*
X5380000Y1200000D02*
G75*
G02*
X5420000Y1200000I20000J0D01*
G01*
X5420000Y800000D02*
G75*
G02*
X5380000Y800000I-20000J0D01*
G01*
X5380000Y800000D02*
G75*
G02*
X5420000Y800000I20000J0D01*
G01*
X5420000Y400000D02*
G75*
G02*
X5380000Y400000I-20000J0D01*
G01*
X5380000Y400000D02*
G75*
G02*
X5420000Y400000I20000J0D01*
G01*
X1155000Y2805000D02*
X1155000Y2765000D01*
X1135000Y2785000D02*
X1175000Y2785000D01*
X1155000Y315000D02*
X1155000Y275000D01*
X1135000Y295000D02*
X1175000Y295000D01*
X1203327Y2921673D02*
X1203327Y2881673D01*
X1183327Y2901673D02*
X1223327Y2901673D01*
X1203327Y2688327D02*
X1203327Y2648327D01*
X1183327Y2668327D02*
X1223327Y2668327D01*
X1203327Y431673D02*
X1203327Y391673D01*
X1183327Y411673D02*
X1223327Y411673D01*
X1203327Y198327D02*
X1203327Y158327D01*
X1183327Y178327D02*
X1223327Y178327D01*
X1320000Y2970000D02*
X1320000Y2930000D01*
X1300000Y2950000D02*
X1340000Y2950000D01*
X1320000Y2640000D02*
X1320000Y2600000D01*
X1300000Y2620000D02*
X1340000Y2620000D01*
X1320000Y480000D02*
X1320000Y440000D01*
X1300000Y460000D02*
X1340000Y460000D01*
X1320000Y150000D02*
X1320000Y110000D01*
X1300000Y130000D02*
X1340000Y130000D01*
X1436673Y2921673D02*
X1436673Y2881673D01*
X1416673Y2901673D02*
X1456673Y2901673D01*
X1436673Y2688327D02*
X1436673Y2648327D01*
X1416673Y2668327D02*
X1456673Y2668327D01*
X1436673Y431673D02*
X1436673Y391673D01*
X1416673Y411673D02*
X1456673Y411673D01*
X1436673Y198327D02*
X1436673Y158327D01*
X1416673Y178327D02*
X1456673Y178327D01*
X1485000Y2805000D02*
X1485000Y2765000D01*
X1465000Y2785000D02*
X1505000Y2785000D01*
X1485000Y315000D02*
X1485000Y275000D01*
X1465000Y295000D02*
X1505000Y295000D01*
X4835000Y315000D02*
X4835000Y275000D01*
X4815000Y295000D02*
X4855000Y295000D01*
X4840000Y2805000D02*
X4840000Y2765000D01*
X4820000Y2785000D02*
X4860000Y2785000D01*
X4883327Y431673D02*
X4883327Y391673D01*
X4863327Y411673D02*
X4903327Y411673D01*
X4883327Y198327D02*
X4883327Y158327D01*
X4863327Y178327D02*
X4903327Y178327D01*
X4888327Y2921673D02*
X4888327Y2881673D01*
X4868327Y2901673D02*
X4908327Y2901673D01*
X4888327Y2688327D02*
X4888327Y2648327D01*
X4868327Y2668327D02*
X4908327Y2668327D01*
X5000000Y480000D02*
X5000000Y440000D01*
X4980000Y460000D02*
X5020000Y460000D01*
X5000000Y150000D02*
X5000000Y110000D01*
X4980000Y130000D02*
X5020000Y130000D01*
X5005000Y2970000D02*
X5005000Y2930000D01*
X4985000Y2950000D02*
X5025000Y2950000D01*
X5005000Y2640000D02*
X5005000Y2600000D01*
X4985000Y2620000D02*
X5025000Y2620000D01*
X5116673Y431673D02*
X5116673Y391673D01*
X5096673Y411673D02*
X5136673Y411673D01*
X5116673Y198327D02*
X5116673Y158327D01*
X5096673Y178327D02*
X5136673Y178327D01*
X5121673Y2921673D02*
X5121673Y2881673D01*
X5101673Y2901673D02*
X5141673Y2901673D01*
X5121673Y2688327D02*
X5121673Y2648327D01*
X5101673Y2668327D02*
X5141673Y2668327D01*
X5165000Y315000D02*
X5165000Y275000D01*
X5145000Y295000D02*
X5185000Y295000D01*
X5170000Y2805000D02*
X5170000Y2765000D01*
X5150000Y2785000D02*
X5190000Y2785000D01*
X587678Y769822D02*
X587678Y805178D01*
X552322Y805178D01*
X552322Y769822D01*
X587678Y769822D01*
X587678Y644822D02*
X587678Y680178D01*
X552322Y680178D01*
X552322Y644822D01*
X587678Y644822D01*
X587678Y519822D02*
X587678Y555178D01*
X552322Y555178D01*
X552322Y519822D01*
X587678Y519822D01*
X587678Y394822D02*
X587678Y430178D01*
X552322Y430178D01*
X552322Y394822D01*
X587678Y394822D01*
X200000Y2170000D02*
X230000Y2200000D01*
X200000Y2230000D01*
X170000Y2200000D01*
X200000Y2170000D01*
X240000Y2230000D02*
X160000Y2230000D01*
X160000Y2170000D02*
G75*
G02*
X160000Y2230000I0J30000D01*
G01*
X160000Y2170000D02*
X240000Y2170000D01*
X240000Y2170000D02*
G75*
G03*
X240000Y2230000I0J30000D01*
G01*
X200000Y1306000D02*
X230000Y1336000D01*
X200000Y1366000D01*
X170000Y1336000D01*
X200000Y1306000D01*
X240000Y1366000D02*
X160000Y1366000D01*
X160000Y1306000D02*
G75*
G02*
X160000Y1366000I0J30000D01*
G01*
X160000Y1306000D02*
X240000Y1306000D01*
X240000Y1306000D02*
G75*
G03*
X240000Y1366000I0J30000D01*
G01*
X618000Y2170000D02*
X648000Y2200000D01*
X618000Y2230000D01*
X588000Y2200000D01*
X618000Y2170000D01*
X673000Y2230000D02*
X563000Y2230000D01*
X563000Y2170000D02*
G75*
G02*
X563000Y2230000I0J30000D01*
G01*
X563000Y2170000D02*
X673000Y2170000D01*
X673000Y2170000D02*
G75*
G03*
X673000Y2230000I0J30000D01*
G01*
X618000Y1306000D02*
X648000Y1336000D01*
X618000Y1366000D01*
X588000Y1336000D01*
X618000Y1306000D01*
X673000Y1366000D02*
X563000Y1366000D01*
X563000Y1306000D02*
G75*
G02*
X563000Y1366000I0J30000D01*
G01*
X563000Y1306000D02*
X673000Y1306000D01*
X673000Y1306000D02*
G75*
G03*
X673000Y1366000I0J30000D01*
G01*
D13*
X1210000Y2895000D02*
X1430000Y2675000D01*
X1430000Y2895000D02*
X1210000Y2675000D01*
X1430000Y2785000D02*
G75*
G02*
X1210000Y2785000I-110000J0D01*
G01*
X1210000Y2785000D02*
G75*
G02*
X1430000Y2785000I110000J0D01*
G01*
X1210000Y405000D02*
X1430000Y185000D01*
X1430000Y405000D02*
X1210000Y185000D01*
X1430000Y295000D02*
G75*
G02*
X1210000Y295000I-110000J0D01*
G01*
X1210000Y295000D02*
G75*
G02*
X1430000Y295000I110000J0D01*
G01*
X4890000Y405000D02*
X5110000Y185000D01*
X5110000Y405000D02*
X4890000Y185000D01*
X5110000Y295000D02*
G75*
G02*
X4890000Y295000I-110000J0D01*
G01*
X4890000Y295000D02*
G75*
G02*
X5110000Y295000I110000J0D01*
G01*
X4895000Y2895000D02*
X5115000Y2675000D01*
X5115000Y2895000D02*
X4895000Y2675000D01*
X5115000Y2785000D02*
G75*
G02*
X4895000Y2785000I-110000J0D01*
G01*
X4895000Y2785000D02*
G75*
G02*
X5115000Y2785000I110000J0D01*
G01*
D11*
X258277Y-313984D02*
X258277Y-113984D01*
X258277Y-113984D02*
X305896Y-113984D01*
X305896Y-113984D02*
X334467Y-123508D01*
X334467Y-123508D02*
X353515Y-142555D01*
X353515Y-142555D02*
X363039Y-161603D01*
X363039Y-161603D02*
X372562Y-199698D01*
X372562Y-199698D02*
X372562Y-228269D01*
X372562Y-228269D02*
X363039Y-266365D01*
X363039Y-266365D02*
X353515Y-285412D01*
X353515Y-285412D02*
X334467Y-304460D01*
X334467Y-304460D02*
X305896Y-313984D01*
X305896Y-313984D02*
X258277Y-313984D01*
X458277Y-313984D02*
X458277Y-180650D01*
X458277Y-218746D02*
X467801Y-199698D01*
X467801Y-199698D02*
X477324Y-190174D01*
X477324Y-190174D02*
X496372Y-180650D01*
X496372Y-180650D02*
X515420Y-180650D01*
X582086Y-313984D02*
X582086Y-180650D01*
X582086Y-113984D02*
X572563Y-123508D01*
X572563Y-123508D02*
X582086Y-133031D01*
X582086Y-133031D02*
X591610Y-123508D01*
X591610Y-123508D02*
X582086Y-113984D01*
X582086Y-113984D02*
X582086Y-133031D01*
X705896Y-313984D02*
X686848Y-304460D01*
X686848Y-304460D02*
X677324Y-285412D01*
X677324Y-285412D02*
X677324Y-113984D01*
X810658Y-313984D02*
X791610Y-304460D01*
X791610Y-304460D02*
X782086Y-285412D01*
X782086Y-285412D02*
X782086Y-113984D01*
X1039229Y-313984D02*
X1039229Y-113984D01*
X1039229Y-113984D02*
X1105896Y-256841D01*
X1105896Y-256841D02*
X1172563Y-113984D01*
X1172563Y-113984D02*
X1172563Y-313984D01*
X1353515Y-313984D02*
X1353515Y-209222D01*
X1353515Y-209222D02*
X1343991Y-190174D01*
X1343991Y-190174D02*
X1324944Y-180650D01*
X1324944Y-180650D02*
X1286848Y-180650D01*
X1286848Y-180650D02*
X1267801Y-190174D01*
X1353515Y-304460D02*
X1334467Y-313984D01*
X1334467Y-313984D02*
X1286848Y-313984D01*
X1286848Y-313984D02*
X1267801Y-304460D01*
X1267801Y-304460D02*
X1258277Y-285412D01*
X1258277Y-285412D02*
X1258277Y-266365D01*
X1258277Y-266365D02*
X1267801Y-247317D01*
X1267801Y-247317D02*
X1286848Y-237793D01*
X1286848Y-237793D02*
X1334467Y-237793D01*
X1334467Y-237793D02*
X1353515Y-228269D01*
X1448753Y-180650D02*
X1448753Y-380650D01*
X1448753Y-190174D02*
X1467801Y-180650D01*
X1467801Y-180650D02*
X1505896Y-180650D01*
X1505896Y-180650D02*
X1524943Y-190174D01*
X1524943Y-190174D02*
X1534467Y-199698D01*
X1534467Y-199698D02*
X1543991Y-218746D01*
X1543991Y-218746D02*
X1543991Y-275889D01*
X1543991Y-275889D02*
X1534467Y-294936D01*
X1534467Y-294936D02*
X1524943Y-304460D01*
X1524943Y-304460D02*
X1505896Y-313984D01*
X1505896Y-313984D02*
X1467801Y-313984D01*
X1467801Y-313984D02*
X1448753Y-304460D01*
X1629705Y-294936D02*
X1639229Y-304460D01*
X1639229Y-304460D02*
X1629705Y-313984D01*
X1629705Y-313984D02*
X1620182Y-304460D01*
X1620182Y-304460D02*
X1629705Y-294936D01*
X1629705Y-294936D02*
X1629705Y-313984D01*
X1629705Y-190174D02*
X1639229Y-199698D01*
X1639229Y-199698D02*
X1629705Y-209222D01*
X1629705Y-209222D02*
X1620182Y-199698D01*
X1620182Y-199698D02*
X1629705Y-190174D01*
X1629705Y-190174D02*
X1629705Y-209222D01*
D12*
X-32500Y-627500D02*
X-2500Y-657500D01*
X-2500Y-627500D02*
X-32500Y-657500D01*
D11*
X296372Y-533984D02*
X315420Y-533984D01*
X315420Y-533984D02*
X334467Y-543508D01*
X334467Y-543508D02*
X343991Y-553031D01*
X343991Y-553031D02*
X353515Y-572079D01*
X353515Y-572079D02*
X363039Y-610174D01*
X363039Y-610174D02*
X363039Y-657793D01*
X363039Y-657793D02*
X353515Y-695889D01*
X353515Y-695889D02*
X343991Y-714936D01*
X343991Y-714936D02*
X334467Y-724460D01*
X334467Y-724460D02*
X315420Y-733984D01*
X315420Y-733984D02*
X296372Y-733984D01*
X296372Y-733984D02*
X277324Y-724460D01*
X277324Y-724460D02*
X267801Y-714936D01*
X267801Y-714936D02*
X258277Y-695889D01*
X258277Y-695889D02*
X248753Y-657793D01*
X248753Y-657793D02*
X248753Y-610174D01*
X248753Y-610174D02*
X258277Y-572079D01*
X258277Y-572079D02*
X267801Y-553031D01*
X267801Y-553031D02*
X277324Y-543508D01*
X277324Y-543508D02*
X296372Y-533984D01*
X448753Y-714936D02*
X458277Y-724460D01*
X458277Y-724460D02*
X448753Y-733984D01*
X448753Y-733984D02*
X439229Y-724460D01*
X439229Y-724460D02*
X448753Y-714936D01*
X448753Y-714936D02*
X448753Y-733984D01*
X524944Y-533984D02*
X648753Y-533984D01*
X648753Y-533984D02*
X582086Y-610174D01*
X582086Y-610174D02*
X610658Y-610174D01*
X610658Y-610174D02*
X629705Y-619698D01*
X629705Y-619698D02*
X639229Y-629222D01*
X639229Y-629222D02*
X648753Y-648270D01*
X648753Y-648270D02*
X648753Y-695889D01*
X648753Y-695889D02*
X639229Y-714936D01*
X639229Y-714936D02*
X629705Y-724460D01*
X629705Y-724460D02*
X610658Y-733984D01*
X610658Y-733984D02*
X553515Y-733984D01*
X553515Y-733984D02*
X534467Y-724460D01*
X534467Y-724460D02*
X524944Y-714936D01*
X772562Y-533984D02*
X791610Y-533984D01*
X791610Y-533984D02*
X810658Y-543508D01*
X810658Y-543508D02*
X820182Y-553031D01*
X820182Y-553031D02*
X829705Y-572079D01*
X829705Y-572079D02*
X839229Y-610174D01*
X839229Y-610174D02*
X839229Y-657793D01*
X839229Y-657793D02*
X829705Y-695889D01*
X829705Y-695889D02*
X820182Y-714936D01*
X820182Y-714936D02*
X810658Y-724460D01*
X810658Y-724460D02*
X791610Y-733984D01*
X791610Y-733984D02*
X772562Y-733984D01*
X772562Y-733984D02*
X753515Y-724460D01*
X753515Y-724460D02*
X743991Y-714936D01*
X743991Y-714936D02*
X734467Y-695889D01*
X734467Y-695889D02*
X724943Y-657793D01*
X724943Y-657793D02*
X724943Y-610174D01*
X724943Y-610174D02*
X734467Y-572079D01*
X734467Y-572079D02*
X743991Y-553031D01*
X743991Y-553031D02*
X753515Y-543508D01*
X753515Y-543508D02*
X772562Y-533984D01*
X963039Y-533984D02*
X982086Y-533984D01*
X982086Y-533984D02*
X1001134Y-543508D01*
X1001134Y-543508D02*
X1010658Y-553031D01*
X1010658Y-553031D02*
X1020182Y-572079D01*
X1020182Y-572079D02*
X1029705Y-610174D01*
X1029705Y-610174D02*
X1029705Y-657793D01*
X1029705Y-657793D02*
X1020182Y-695889D01*
X1020182Y-695889D02*
X1010658Y-714936D01*
X1010658Y-714936D02*
X1001134Y-724460D01*
X1001134Y-724460D02*
X982086Y-733984D01*
X982086Y-733984D02*
X963039Y-733984D01*
X963039Y-733984D02*
X943991Y-724460D01*
X943991Y-724460D02*
X934467Y-714936D01*
X934467Y-714936D02*
X924943Y-695889D01*
X924943Y-695889D02*
X915420Y-657793D01*
X915420Y-657793D02*
X915420Y-610174D01*
X915420Y-610174D02*
X924943Y-572079D01*
X924943Y-572079D02*
X934467Y-553031D01*
X934467Y-553031D02*
X943991Y-543508D01*
X943991Y-543508D02*
X963039Y-533984D01*
X1115420Y-733984D02*
X1115420Y-600650D01*
X1115420Y-619698D02*
X1124944Y-610174D01*
X1124944Y-610174D02*
X1143991Y-600650D01*
X1143991Y-600650D02*
X1172563Y-600650D01*
X1172563Y-600650D02*
X1191610Y-610174D01*
X1191610Y-610174D02*
X1201134Y-629222D01*
X1201134Y-629222D02*
X1201134Y-733984D01*
X1201134Y-629222D02*
X1210658Y-610174D01*
X1210658Y-610174D02*
X1229705Y-600650D01*
X1229705Y-600650D02*
X1258277Y-600650D01*
X1258277Y-600650D02*
X1277325Y-610174D01*
X1277325Y-610174D02*
X1286848Y-629222D01*
X1286848Y-629222D02*
X1286848Y-733984D01*
X1382086Y-733984D02*
X1382086Y-600650D01*
X1382086Y-619698D02*
X1391610Y-610174D01*
X1391610Y-610174D02*
X1410658Y-600650D01*
X1410658Y-600650D02*
X1439229Y-600650D01*
X1439229Y-600650D02*
X1458277Y-610174D01*
X1458277Y-610174D02*
X1467801Y-629222D01*
X1467801Y-629222D02*
X1467801Y-733984D01*
X1467801Y-629222D02*
X1477324Y-610174D01*
X1477324Y-610174D02*
X1496372Y-600650D01*
X1496372Y-600650D02*
X1524943Y-600650D01*
X1524943Y-600650D02*
X1543991Y-610174D01*
X1543991Y-610174D02*
X1553515Y-629222D01*
X1553515Y-629222D02*
X1553515Y-733984D01*
X1943991Y-524460D02*
X1772563Y-781603D01*
X2201134Y-533984D02*
X2220182Y-533984D01*
X2220182Y-533984D02*
X2239229Y-543508D01*
X2239229Y-543508D02*
X2248753Y-553031D01*
X2248753Y-553031D02*
X2258277Y-572079D01*
X2258277Y-572079D02*
X2267801Y-610174D01*
X2267801Y-610174D02*
X2267801Y-657793D01*
X2267801Y-657793D02*
X2258277Y-695889D01*
X2258277Y-695889D02*
X2248753Y-714936D01*
X2248753Y-714936D02*
X2239229Y-724460D01*
X2239229Y-724460D02*
X2220182Y-733984D01*
X2220182Y-733984D02*
X2201134Y-733984D01*
X2201134Y-733984D02*
X2182087Y-724460D01*
X2182087Y-724460D02*
X2172563Y-714936D01*
X2172563Y-714936D02*
X2163039Y-695889D01*
X2163039Y-695889D02*
X2153515Y-657793D01*
X2153515Y-657793D02*
X2153515Y-610174D01*
X2153515Y-610174D02*
X2163039Y-572079D01*
X2163039Y-572079D02*
X2172563Y-553031D01*
X2172563Y-553031D02*
X2182087Y-543508D01*
X2182087Y-543508D02*
X2201134Y-533984D01*
X2353515Y-714936D02*
X2363039Y-724460D01*
X2363039Y-724460D02*
X2353515Y-733984D01*
X2353515Y-733984D02*
X2343991Y-724460D01*
X2343991Y-724460D02*
X2353515Y-714936D01*
X2353515Y-714936D02*
X2353515Y-733984D01*
X2486848Y-533984D02*
X2505896Y-533984D01*
X2505896Y-533984D02*
X2524944Y-543508D01*
X2524944Y-543508D02*
X2534468Y-553031D01*
X2534468Y-553031D02*
X2543991Y-572079D01*
X2543991Y-572079D02*
X2553515Y-610174D01*
X2553515Y-610174D02*
X2553515Y-657793D01*
X2553515Y-657793D02*
X2543991Y-695889D01*
X2543991Y-695889D02*
X2534468Y-714936D01*
X2534468Y-714936D02*
X2524944Y-724460D01*
X2524944Y-724460D02*
X2505896Y-733984D01*
X2505896Y-733984D02*
X2486848Y-733984D01*
X2486848Y-733984D02*
X2467801Y-724460D01*
X2467801Y-724460D02*
X2458277Y-714936D01*
X2458277Y-714936D02*
X2448753Y-695889D01*
X2448753Y-695889D02*
X2439229Y-657793D01*
X2439229Y-657793D02*
X2439229Y-610174D01*
X2439229Y-610174D02*
X2448753Y-572079D01*
X2448753Y-572079D02*
X2458277Y-553031D01*
X2458277Y-553031D02*
X2467801Y-543508D01*
X2467801Y-543508D02*
X2486848Y-533984D01*
X2743991Y-733984D02*
X2629706Y-733984D01*
X2686848Y-733984D02*
X2686848Y-533984D01*
X2686848Y-533984D02*
X2667801Y-562555D01*
X2667801Y-562555D02*
X2648753Y-581603D01*
X2648753Y-581603D02*
X2629706Y-591127D01*
X2934467Y-733984D02*
X2820182Y-733984D01*
X2877325Y-733984D02*
X2877325Y-533984D01*
X2877325Y-533984D02*
X2858277Y-562555D01*
X2858277Y-562555D02*
X2839229Y-581603D01*
X2839229Y-581603D02*
X2820182Y-591127D01*
X3048753Y-619698D02*
X3029706Y-610174D01*
X3029706Y-610174D02*
X3020182Y-600650D01*
X3020182Y-600650D02*
X3010658Y-581603D01*
X3010658Y-581603D02*
X3010658Y-572079D01*
X3010658Y-572079D02*
X3020182Y-553031D01*
X3020182Y-553031D02*
X3029706Y-543508D01*
X3029706Y-543508D02*
X3048753Y-533984D01*
X3048753Y-533984D02*
X3086848Y-533984D01*
X3086848Y-533984D02*
X3105896Y-543508D01*
X3105896Y-543508D02*
X3115420Y-553031D01*
X3115420Y-553031D02*
X3124944Y-572079D01*
X3124944Y-572079D02*
X3124944Y-581603D01*
X3124944Y-581603D02*
X3115420Y-600650D01*
X3115420Y-600650D02*
X3105896Y-610174D01*
X3105896Y-610174D02*
X3086848Y-619698D01*
X3086848Y-619698D02*
X3048753Y-619698D01*
X3048753Y-619698D02*
X3029706Y-629222D01*
X3029706Y-629222D02*
X3020182Y-638746D01*
X3020182Y-638746D02*
X3010658Y-657793D01*
X3010658Y-657793D02*
X3010658Y-695889D01*
X3010658Y-695889D02*
X3020182Y-714936D01*
X3020182Y-714936D02*
X3029706Y-724460D01*
X3029706Y-724460D02*
X3048753Y-733984D01*
X3048753Y-733984D02*
X3086848Y-733984D01*
X3086848Y-733984D02*
X3105896Y-724460D01*
X3105896Y-724460D02*
X3115420Y-714936D01*
X3115420Y-714936D02*
X3124944Y-695889D01*
X3124944Y-695889D02*
X3124944Y-657793D01*
X3124944Y-657793D02*
X3115420Y-638746D01*
X3115420Y-638746D02*
X3105896Y-629222D01*
X3105896Y-629222D02*
X3086848Y-619698D01*
X3201134Y-533984D02*
X3201134Y-572079D01*
X3277325Y-533984D02*
X3277325Y-572079D01*
X3572563Y-810174D02*
X3563039Y-800650D01*
X3563039Y-800650D02*
X3543991Y-772079D01*
X3543991Y-772079D02*
X3534468Y-753031D01*
X3534468Y-753031D02*
X3524944Y-724460D01*
X3524944Y-724460D02*
X3515420Y-676841D01*
X3515420Y-676841D02*
X3515420Y-638746D01*
X3515420Y-638746D02*
X3524944Y-591127D01*
X3524944Y-591127D02*
X3534468Y-562555D01*
X3534468Y-562555D02*
X3543991Y-543508D01*
X3543991Y-543508D02*
X3563039Y-514936D01*
X3563039Y-514936D02*
X3572563Y-505412D01*
X3734468Y-533984D02*
X3696372Y-533984D01*
X3696372Y-533984D02*
X3677325Y-543508D01*
X3677325Y-543508D02*
X3667801Y-553031D01*
X3667801Y-553031D02*
X3648753Y-581603D01*
X3648753Y-581603D02*
X3639229Y-619698D01*
X3639229Y-619698D02*
X3639229Y-695889D01*
X3639229Y-695889D02*
X3648753Y-714936D01*
X3648753Y-714936D02*
X3658277Y-724460D01*
X3658277Y-724460D02*
X3677325Y-733984D01*
X3677325Y-733984D02*
X3715420Y-733984D01*
X3715420Y-733984D02*
X3734468Y-724460D01*
X3734468Y-724460D02*
X3743991Y-714936D01*
X3743991Y-714936D02*
X3753515Y-695889D01*
X3753515Y-695889D02*
X3753515Y-648270D01*
X3753515Y-648270D02*
X3743991Y-629222D01*
X3743991Y-629222D02*
X3734468Y-619698D01*
X3734468Y-619698D02*
X3715420Y-610174D01*
X3715420Y-610174D02*
X3677325Y-610174D01*
X3677325Y-610174D02*
X3658277Y-619698D01*
X3658277Y-619698D02*
X3648753Y-629222D01*
X3648753Y-629222D02*
X3639229Y-648270D01*
X3877325Y-533984D02*
X3896372Y-533984D01*
X3896372Y-533984D02*
X3915420Y-543508D01*
X3915420Y-543508D02*
X3924944Y-553031D01*
X3924944Y-553031D02*
X3934468Y-572079D01*
X3934468Y-572079D02*
X3943991Y-610174D01*
X3943991Y-610174D02*
X3943991Y-657793D01*
X3943991Y-657793D02*
X3934468Y-695889D01*
X3934468Y-695889D02*
X3924944Y-714936D01*
X3924944Y-714936D02*
X3915420Y-724460D01*
X3915420Y-724460D02*
X3896372Y-733984D01*
X3896372Y-733984D02*
X3877325Y-733984D01*
X3877325Y-733984D02*
X3858277Y-724460D01*
X3858277Y-724460D02*
X3848753Y-714936D01*
X3848753Y-714936D02*
X3839229Y-695889D01*
X3839229Y-695889D02*
X3829706Y-657793D01*
X3829706Y-657793D02*
X3829706Y-610174D01*
X3829706Y-610174D02*
X3839229Y-572079D01*
X3839229Y-572079D02*
X3848753Y-553031D01*
X3848753Y-553031D02*
X3858277Y-543508D01*
X3858277Y-543508D02*
X3877325Y-533984D01*
X4182087Y-733984D02*
X4182087Y-533984D01*
X4267801Y-733984D02*
X4267801Y-629222D01*
X4267801Y-629222D02*
X4258277Y-610174D01*
X4258277Y-610174D02*
X4239230Y-600650D01*
X4239230Y-600650D02*
X4210658Y-600650D01*
X4210658Y-600650D02*
X4191610Y-610174D01*
X4191610Y-610174D02*
X4182087Y-619698D01*
X4391611Y-733984D02*
X4372563Y-724460D01*
X4372563Y-724460D02*
X4363039Y-714936D01*
X4363039Y-714936D02*
X4353515Y-695889D01*
X4353515Y-695889D02*
X4353515Y-638746D01*
X4353515Y-638746D02*
X4363039Y-619698D01*
X4363039Y-619698D02*
X4372563Y-610174D01*
X4372563Y-610174D02*
X4391611Y-600650D01*
X4391611Y-600650D02*
X4420182Y-600650D01*
X4420182Y-600650D02*
X4439230Y-610174D01*
X4439230Y-610174D02*
X4448753Y-619698D01*
X4448753Y-619698D02*
X4458277Y-638746D01*
X4458277Y-638746D02*
X4458277Y-695889D01*
X4458277Y-695889D02*
X4448753Y-714936D01*
X4448753Y-714936D02*
X4439230Y-724460D01*
X4439230Y-724460D02*
X4420182Y-733984D01*
X4420182Y-733984D02*
X4391611Y-733984D01*
X4572563Y-733984D02*
X4553515Y-724460D01*
X4553515Y-724460D02*
X4543992Y-705412D01*
X4543992Y-705412D02*
X4543992Y-533984D01*
X4724944Y-724460D02*
X4705896Y-733984D01*
X4705896Y-733984D02*
X4667801Y-733984D01*
X4667801Y-733984D02*
X4648753Y-724460D01*
X4648753Y-724460D02*
X4639230Y-705412D01*
X4639230Y-705412D02*
X4639230Y-629222D01*
X4639230Y-629222D02*
X4648753Y-610174D01*
X4648753Y-610174D02*
X4667801Y-600650D01*
X4667801Y-600650D02*
X4705896Y-600650D01*
X4705896Y-600650D02*
X4724944Y-610174D01*
X4724944Y-610174D02*
X4734468Y-629222D01*
X4734468Y-629222D02*
X4734468Y-648270D01*
X4734468Y-648270D02*
X4639230Y-667317D01*
X4810658Y-724460D02*
X4829706Y-733984D01*
X4829706Y-733984D02*
X4867801Y-733984D01*
X4867801Y-733984D02*
X4886849Y-724460D01*
X4886849Y-724460D02*
X4896373Y-705412D01*
X4896373Y-705412D02*
X4896373Y-695889D01*
X4896373Y-695889D02*
X4886849Y-676841D01*
X4886849Y-676841D02*
X4867801Y-667317D01*
X4867801Y-667317D02*
X4839230Y-667317D01*
X4839230Y-667317D02*
X4820182Y-657793D01*
X4820182Y-657793D02*
X4810658Y-638746D01*
X4810658Y-638746D02*
X4810658Y-629222D01*
X4810658Y-629222D02*
X4820182Y-610174D01*
X4820182Y-610174D02*
X4839230Y-600650D01*
X4839230Y-600650D02*
X4867801Y-600650D01*
X4867801Y-600650D02*
X4886849Y-610174D01*
X4963039Y-810174D02*
X4972563Y-800650D01*
X4972563Y-800650D02*
X4991611Y-772079D01*
X4991611Y-772079D02*
X5001134Y-753031D01*
X5001134Y-753031D02*
X5010658Y-724460D01*
X5010658Y-724460D02*
X5020182Y-676841D01*
X5020182Y-676841D02*
X5020182Y-638746D01*
X5020182Y-638746D02*
X5010658Y-591127D01*
X5010658Y-591127D02*
X5001134Y-562555D01*
X5001134Y-562555D02*
X4991611Y-543508D01*
X4991611Y-543508D02*
X4972563Y-514936D01*
X4972563Y-514936D02*
X4963039Y-505412D01*
D12*
X-2500Y-906500D02*
G75*
G02*
X-42500Y-906500I-20000J0D01*
G01*
X-42500Y-906500D02*
G75*
G02*
X-2500Y-906500I20000J0D01*
G01*
D11*
X296372Y-797984D02*
X315420Y-797984D01*
X315420Y-797984D02*
X334467Y-807508D01*
X334467Y-807508D02*
X343991Y-817031D01*
X343991Y-817031D02*
X353515Y-836079D01*
X353515Y-836079D02*
X363039Y-874174D01*
X363039Y-874174D02*
X363039Y-921793D01*
X363039Y-921793D02*
X353515Y-959888D01*
X353515Y-959888D02*
X343991Y-978936D01*
X343991Y-978936D02*
X334467Y-988460D01*
X334467Y-988460D02*
X315420Y-997984D01*
X315420Y-997984D02*
X296372Y-997984D01*
X296372Y-997984D02*
X277324Y-988460D01*
X277324Y-988460D02*
X267801Y-978936D01*
X267801Y-978936D02*
X258277Y-959888D01*
X258277Y-959888D02*
X248753Y-921793D01*
X248753Y-921793D02*
X248753Y-874174D01*
X248753Y-874174D02*
X258277Y-836079D01*
X258277Y-836079D02*
X267801Y-817031D01*
X267801Y-817031D02*
X277324Y-807508D01*
X277324Y-807508D02*
X296372Y-797984D01*
X448753Y-978936D02*
X458277Y-988460D01*
X458277Y-988460D02*
X448753Y-997984D01*
X448753Y-997984D02*
X439229Y-988460D01*
X439229Y-988460D02*
X448753Y-978936D01*
X448753Y-978936D02*
X448753Y-997984D01*
X629705Y-864650D02*
X629705Y-997984D01*
X582086Y-788460D02*
X534467Y-931317D01*
X534467Y-931317D02*
X658277Y-931317D01*
X772562Y-797984D02*
X791610Y-797984D01*
X791610Y-797984D02*
X810658Y-807508D01*
X810658Y-807508D02*
X820182Y-817031D01*
X820182Y-817031D02*
X829705Y-836079D01*
X829705Y-836079D02*
X839229Y-874174D01*
X839229Y-874174D02*
X839229Y-921793D01*
X839229Y-921793D02*
X829705Y-959888D01*
X829705Y-959888D02*
X820182Y-978936D01*
X820182Y-978936D02*
X810658Y-988460D01*
X810658Y-988460D02*
X791610Y-997984D01*
X791610Y-997984D02*
X772562Y-997984D01*
X772562Y-997984D02*
X753515Y-988460D01*
X753515Y-988460D02*
X743991Y-978936D01*
X743991Y-978936D02*
X734467Y-959888D01*
X734467Y-959888D02*
X724943Y-921793D01*
X724943Y-921793D02*
X724943Y-874174D01*
X724943Y-874174D02*
X734467Y-836079D01*
X734467Y-836079D02*
X743991Y-817031D01*
X743991Y-817031D02*
X753515Y-807508D01*
X753515Y-807508D02*
X772562Y-797984D01*
X963039Y-797984D02*
X982086Y-797984D01*
X982086Y-797984D02*
X1001134Y-807508D01*
X1001134Y-807508D02*
X1010658Y-817031D01*
X1010658Y-817031D02*
X1020182Y-836079D01*
X1020182Y-836079D02*
X1029705Y-874174D01*
X1029705Y-874174D02*
X1029705Y-921793D01*
X1029705Y-921793D02*
X1020182Y-959888D01*
X1020182Y-959888D02*
X1010658Y-978936D01*
X1010658Y-978936D02*
X1001134Y-988460D01*
X1001134Y-988460D02*
X982086Y-997984D01*
X982086Y-997984D02*
X963039Y-997984D01*
X963039Y-997984D02*
X943991Y-988460D01*
X943991Y-988460D02*
X934467Y-978936D01*
X934467Y-978936D02*
X924943Y-959888D01*
X924943Y-959888D02*
X915420Y-921793D01*
X915420Y-921793D02*
X915420Y-874174D01*
X915420Y-874174D02*
X924943Y-836079D01*
X924943Y-836079D02*
X934467Y-817031D01*
X934467Y-817031D02*
X943991Y-807508D01*
X943991Y-807508D02*
X963039Y-797984D01*
X1115420Y-997984D02*
X1115420Y-864650D01*
X1115420Y-883698D02*
X1124944Y-874174D01*
X1124944Y-874174D02*
X1143991Y-864650D01*
X1143991Y-864650D02*
X1172563Y-864650D01*
X1172563Y-864650D02*
X1191610Y-874174D01*
X1191610Y-874174D02*
X1201134Y-893222D01*
X1201134Y-893222D02*
X1201134Y-997984D01*
X1201134Y-893222D02*
X1210658Y-874174D01*
X1210658Y-874174D02*
X1229705Y-864650D01*
X1229705Y-864650D02*
X1258277Y-864650D01*
X1258277Y-864650D02*
X1277325Y-874174D01*
X1277325Y-874174D02*
X1286848Y-893222D01*
X1286848Y-893222D02*
X1286848Y-997984D01*
X1382086Y-997984D02*
X1382086Y-864650D01*
X1382086Y-883698D02*
X1391610Y-874174D01*
X1391610Y-874174D02*
X1410658Y-864650D01*
X1410658Y-864650D02*
X1439229Y-864650D01*
X1439229Y-864650D02*
X1458277Y-874174D01*
X1458277Y-874174D02*
X1467801Y-893222D01*
X1467801Y-893222D02*
X1467801Y-997984D01*
X1467801Y-893222D02*
X1477324Y-874174D01*
X1477324Y-874174D02*
X1496372Y-864650D01*
X1496372Y-864650D02*
X1524943Y-864650D01*
X1524943Y-864650D02*
X1543991Y-874174D01*
X1543991Y-874174D02*
X1553515Y-893222D01*
X1553515Y-893222D02*
X1553515Y-997984D01*
X1943991Y-788460D02*
X1772563Y-1045603D01*
X2201134Y-797984D02*
X2220182Y-797984D01*
X2220182Y-797984D02*
X2239229Y-807508D01*
X2239229Y-807508D02*
X2248753Y-817031D01*
X2248753Y-817031D02*
X2258277Y-836079D01*
X2258277Y-836079D02*
X2267801Y-874174D01*
X2267801Y-874174D02*
X2267801Y-921793D01*
X2267801Y-921793D02*
X2258277Y-959888D01*
X2258277Y-959888D02*
X2248753Y-978936D01*
X2248753Y-978936D02*
X2239229Y-988460D01*
X2239229Y-988460D02*
X2220182Y-997984D01*
X2220182Y-997984D02*
X2201134Y-997984D01*
X2201134Y-997984D02*
X2182087Y-988460D01*
X2182087Y-988460D02*
X2172563Y-978936D01*
X2172563Y-978936D02*
X2163039Y-959888D01*
X2163039Y-959888D02*
X2153515Y-921793D01*
X2153515Y-921793D02*
X2153515Y-874174D01*
X2153515Y-874174D02*
X2163039Y-836079D01*
X2163039Y-836079D02*
X2172563Y-817031D01*
X2172563Y-817031D02*
X2182087Y-807508D01*
X2182087Y-807508D02*
X2201134Y-797984D01*
X2353515Y-978936D02*
X2363039Y-988460D01*
X2363039Y-988460D02*
X2353515Y-997984D01*
X2353515Y-997984D02*
X2343991Y-988460D01*
X2343991Y-988460D02*
X2353515Y-978936D01*
X2353515Y-978936D02*
X2353515Y-997984D01*
X2486848Y-797984D02*
X2505896Y-797984D01*
X2505896Y-797984D02*
X2524944Y-807508D01*
X2524944Y-807508D02*
X2534468Y-817031D01*
X2534468Y-817031D02*
X2543991Y-836079D01*
X2543991Y-836079D02*
X2553515Y-874174D01*
X2553515Y-874174D02*
X2553515Y-921793D01*
X2553515Y-921793D02*
X2543991Y-959888D01*
X2543991Y-959888D02*
X2534468Y-978936D01*
X2534468Y-978936D02*
X2524944Y-988460D01*
X2524944Y-988460D02*
X2505896Y-997984D01*
X2505896Y-997984D02*
X2486848Y-997984D01*
X2486848Y-997984D02*
X2467801Y-988460D01*
X2467801Y-988460D02*
X2458277Y-978936D01*
X2458277Y-978936D02*
X2448753Y-959888D01*
X2448753Y-959888D02*
X2439229Y-921793D01*
X2439229Y-921793D02*
X2439229Y-874174D01*
X2439229Y-874174D02*
X2448753Y-836079D01*
X2448753Y-836079D02*
X2458277Y-817031D01*
X2458277Y-817031D02*
X2467801Y-807508D01*
X2467801Y-807508D02*
X2486848Y-797984D01*
X2743991Y-997984D02*
X2629706Y-997984D01*
X2686848Y-997984D02*
X2686848Y-797984D01*
X2686848Y-797984D02*
X2667801Y-826555D01*
X2667801Y-826555D02*
X2648753Y-845603D01*
X2648753Y-845603D02*
X2629706Y-855127D01*
X2924944Y-797984D02*
X2829706Y-797984D01*
X2829706Y-797984D02*
X2820182Y-893222D01*
X2820182Y-893222D02*
X2829706Y-883698D01*
X2829706Y-883698D02*
X2848753Y-874174D01*
X2848753Y-874174D02*
X2896372Y-874174D01*
X2896372Y-874174D02*
X2915420Y-883698D01*
X2915420Y-883698D02*
X2924944Y-893222D01*
X2924944Y-893222D02*
X2934467Y-912269D01*
X2934467Y-912269D02*
X2934467Y-959888D01*
X2934467Y-959888D02*
X2924944Y-978936D01*
X2924944Y-978936D02*
X2915420Y-988460D01*
X2915420Y-988460D02*
X2896372Y-997984D01*
X2896372Y-997984D02*
X2848753Y-997984D01*
X2848753Y-997984D02*
X2829706Y-988460D01*
X2829706Y-988460D02*
X2820182Y-978936D01*
X3001134Y-797984D02*
X3134467Y-797984D01*
X3134467Y-797984D02*
X3048753Y-997984D01*
X3201134Y-797984D02*
X3201134Y-836079D01*
X3277325Y-797984D02*
X3277325Y-836079D01*
X3572563Y-1074174D02*
X3563039Y-1064650D01*
X3563039Y-1064650D02*
X3543991Y-1036079D01*
X3543991Y-1036079D02*
X3534468Y-1017031D01*
X3534468Y-1017031D02*
X3524944Y-988460D01*
X3524944Y-988460D02*
X3515420Y-940841D01*
X3515420Y-940841D02*
X3515420Y-902746D01*
X3515420Y-902746D02*
X3524944Y-855127D01*
X3524944Y-855127D02*
X3534468Y-826555D01*
X3534468Y-826555D02*
X3543991Y-807508D01*
X3543991Y-807508D02*
X3563039Y-778936D01*
X3563039Y-778936D02*
X3572563Y-769412D01*
X3629706Y-797984D02*
X3763039Y-797984D01*
X3763039Y-797984D02*
X3677325Y-997984D01*
X3820182Y-797984D02*
X3953515Y-797984D01*
X3953515Y-797984D02*
X3867801Y-997984D01*
X4182087Y-997984D02*
X4182087Y-797984D01*
X4267801Y-997984D02*
X4267801Y-893222D01*
X4267801Y-893222D02*
X4258277Y-874174D01*
X4258277Y-874174D02*
X4239230Y-864650D01*
X4239230Y-864650D02*
X4210658Y-864650D01*
X4210658Y-864650D02*
X4191610Y-874174D01*
X4191610Y-874174D02*
X4182087Y-883698D01*
X4391611Y-997984D02*
X4372563Y-988460D01*
X4372563Y-988460D02*
X4363039Y-978936D01*
X4363039Y-978936D02*
X4353515Y-959888D01*
X4353515Y-959888D02*
X4353515Y-902746D01*
X4353515Y-902746D02*
X4363039Y-883698D01*
X4363039Y-883698D02*
X4372563Y-874174D01*
X4372563Y-874174D02*
X4391611Y-864650D01*
X4391611Y-864650D02*
X4420182Y-864650D01*
X4420182Y-864650D02*
X4439230Y-874174D01*
X4439230Y-874174D02*
X4448753Y-883698D01*
X4448753Y-883698D02*
X4458277Y-902746D01*
X4458277Y-902746D02*
X4458277Y-959888D01*
X4458277Y-959888D02*
X4448753Y-978936D01*
X4448753Y-978936D02*
X4439230Y-988460D01*
X4439230Y-988460D02*
X4420182Y-997984D01*
X4420182Y-997984D02*
X4391611Y-997984D01*
X4572563Y-997984D02*
X4553515Y-988460D01*
X4553515Y-988460D02*
X4543992Y-969412D01*
X4543992Y-969412D02*
X4543992Y-797984D01*
X4724944Y-988460D02*
X4705896Y-997984D01*
X4705896Y-997984D02*
X4667801Y-997984D01*
X4667801Y-997984D02*
X4648753Y-988460D01*
X4648753Y-988460D02*
X4639230Y-969412D01*
X4639230Y-969412D02*
X4639230Y-893222D01*
X4639230Y-893222D02*
X4648753Y-874174D01*
X4648753Y-874174D02*
X4667801Y-864650D01*
X4667801Y-864650D02*
X4705896Y-864650D01*
X4705896Y-864650D02*
X4724944Y-874174D01*
X4724944Y-874174D02*
X4734468Y-893222D01*
X4734468Y-893222D02*
X4734468Y-912269D01*
X4734468Y-912269D02*
X4639230Y-931317D01*
X4810658Y-988460D02*
X4829706Y-997984D01*
X4829706Y-997984D02*
X4867801Y-997984D01*
X4867801Y-997984D02*
X4886849Y-988460D01*
X4886849Y-988460D02*
X4896373Y-969412D01*
X4896373Y-969412D02*
X4896373Y-959888D01*
X4896373Y-959888D02*
X4886849Y-940841D01*
X4886849Y-940841D02*
X4867801Y-931317D01*
X4867801Y-931317D02*
X4839230Y-931317D01*
X4839230Y-931317D02*
X4820182Y-921793D01*
X4820182Y-921793D02*
X4810658Y-902746D01*
X4810658Y-902746D02*
X4810658Y-893222D01*
X4810658Y-893222D02*
X4820182Y-874174D01*
X4820182Y-874174D02*
X4839230Y-864650D01*
X4839230Y-864650D02*
X4867801Y-864650D01*
X4867801Y-864650D02*
X4886849Y-874174D01*
X4963039Y-1074174D02*
X4972563Y-1064650D01*
X4972563Y-1064650D02*
X4991611Y-1036079D01*
X4991611Y-1036079D02*
X5001134Y-1017031D01*
X5001134Y-1017031D02*
X5010658Y-988460D01*
X5010658Y-988460D02*
X5020182Y-940841D01*
X5020182Y-940841D02*
X5020182Y-902746D01*
X5020182Y-902746D02*
X5010658Y-855127D01*
X5010658Y-855127D02*
X5001134Y-826555D01*
X5001134Y-826555D02*
X4991611Y-807508D01*
X4991611Y-807508D02*
X4972563Y-778936D01*
X4972563Y-778936D02*
X4963039Y-769412D01*
D12*
X-22500Y-1150500D02*
X-22500Y-1190500D01*
X-42500Y-1170500D02*
X-2500Y-1170500D01*
D11*
X296372Y-1061984D02*
X315420Y-1061984D01*
X315420Y-1061984D02*
X334467Y-1071508D01*
X334467Y-1071508D02*
X343991Y-1081031D01*
X343991Y-1081031D02*
X353515Y-1100079D01*
X353515Y-1100079D02*
X363039Y-1138174D01*
X363039Y-1138174D02*
X363039Y-1185793D01*
X363039Y-1185793D02*
X353515Y-1223889D01*
X353515Y-1223889D02*
X343991Y-1242936D01*
X343991Y-1242936D02*
X334467Y-1252460D01*
X334467Y-1252460D02*
X315420Y-1261984D01*
X315420Y-1261984D02*
X296372Y-1261984D01*
X296372Y-1261984D02*
X277324Y-1252460D01*
X277324Y-1252460D02*
X267801Y-1242936D01*
X267801Y-1242936D02*
X258277Y-1223889D01*
X258277Y-1223889D02*
X248753Y-1185793D01*
X248753Y-1185793D02*
X248753Y-1138174D01*
X248753Y-1138174D02*
X258277Y-1100079D01*
X258277Y-1100079D02*
X267801Y-1081031D01*
X267801Y-1081031D02*
X277324Y-1071508D01*
X277324Y-1071508D02*
X296372Y-1061984D01*
X448753Y-1242936D02*
X458277Y-1252460D01*
X458277Y-1252460D02*
X448753Y-1261984D01*
X448753Y-1261984D02*
X439229Y-1252460D01*
X439229Y-1252460D02*
X448753Y-1242936D01*
X448753Y-1242936D02*
X448753Y-1261984D01*
X629705Y-1128650D02*
X629705Y-1261984D01*
X582086Y-1052460D02*
X534467Y-1195317D01*
X534467Y-1195317D02*
X658277Y-1195317D01*
X772562Y-1061984D02*
X791610Y-1061984D01*
X791610Y-1061984D02*
X810658Y-1071508D01*
X810658Y-1071508D02*
X820182Y-1081031D01*
X820182Y-1081031D02*
X829705Y-1100079D01*
X829705Y-1100079D02*
X839229Y-1138174D01*
X839229Y-1138174D02*
X839229Y-1185793D01*
X839229Y-1185793D02*
X829705Y-1223889D01*
X829705Y-1223889D02*
X820182Y-1242936D01*
X820182Y-1242936D02*
X810658Y-1252460D01*
X810658Y-1252460D02*
X791610Y-1261984D01*
X791610Y-1261984D02*
X772562Y-1261984D01*
X772562Y-1261984D02*
X753515Y-1252460D01*
X753515Y-1252460D02*
X743991Y-1242936D01*
X743991Y-1242936D02*
X734467Y-1223889D01*
X734467Y-1223889D02*
X724943Y-1185793D01*
X724943Y-1185793D02*
X724943Y-1138174D01*
X724943Y-1138174D02*
X734467Y-1100079D01*
X734467Y-1100079D02*
X743991Y-1081031D01*
X743991Y-1081031D02*
X753515Y-1071508D01*
X753515Y-1071508D02*
X772562Y-1061984D01*
X963039Y-1061984D02*
X982086Y-1061984D01*
X982086Y-1061984D02*
X1001134Y-1071508D01*
X1001134Y-1071508D02*
X1010658Y-1081031D01*
X1010658Y-1081031D02*
X1020182Y-1100079D01*
X1020182Y-1100079D02*
X1029705Y-1138174D01*
X1029705Y-1138174D02*
X1029705Y-1185793D01*
X1029705Y-1185793D02*
X1020182Y-1223889D01*
X1020182Y-1223889D02*
X1010658Y-1242936D01*
X1010658Y-1242936D02*
X1001134Y-1252460D01*
X1001134Y-1252460D02*
X982086Y-1261984D01*
X982086Y-1261984D02*
X963039Y-1261984D01*
X963039Y-1261984D02*
X943991Y-1252460D01*
X943991Y-1252460D02*
X934467Y-1242936D01*
X934467Y-1242936D02*
X924943Y-1223889D01*
X924943Y-1223889D02*
X915420Y-1185793D01*
X915420Y-1185793D02*
X915420Y-1138174D01*
X915420Y-1138174D02*
X924943Y-1100079D01*
X924943Y-1100079D02*
X934467Y-1081031D01*
X934467Y-1081031D02*
X943991Y-1071508D01*
X943991Y-1071508D02*
X963039Y-1061984D01*
X1115420Y-1261984D02*
X1115420Y-1128650D01*
X1115420Y-1147698D02*
X1124944Y-1138174D01*
X1124944Y-1138174D02*
X1143991Y-1128650D01*
X1143991Y-1128650D02*
X1172563Y-1128650D01*
X1172563Y-1128650D02*
X1191610Y-1138174D01*
X1191610Y-1138174D02*
X1201134Y-1157222D01*
X1201134Y-1157222D02*
X1201134Y-1261984D01*
X1201134Y-1157222D02*
X1210658Y-1138174D01*
X1210658Y-1138174D02*
X1229705Y-1128650D01*
X1229705Y-1128650D02*
X1258277Y-1128650D01*
X1258277Y-1128650D02*
X1277325Y-1138174D01*
X1277325Y-1138174D02*
X1286848Y-1157222D01*
X1286848Y-1157222D02*
X1286848Y-1261984D01*
X1382086Y-1261984D02*
X1382086Y-1128650D01*
X1382086Y-1147698D02*
X1391610Y-1138174D01*
X1391610Y-1138174D02*
X1410658Y-1128650D01*
X1410658Y-1128650D02*
X1439229Y-1128650D01*
X1439229Y-1128650D02*
X1458277Y-1138174D01*
X1458277Y-1138174D02*
X1467801Y-1157222D01*
X1467801Y-1157222D02*
X1467801Y-1261984D01*
X1467801Y-1157222D02*
X1477324Y-1138174D01*
X1477324Y-1138174D02*
X1496372Y-1128650D01*
X1496372Y-1128650D02*
X1524943Y-1128650D01*
X1524943Y-1128650D02*
X1543991Y-1138174D01*
X1543991Y-1138174D02*
X1553515Y-1157222D01*
X1553515Y-1157222D02*
X1553515Y-1261984D01*
X1943991Y-1052460D02*
X1772563Y-1309603D01*
X2201134Y-1061984D02*
X2220182Y-1061984D01*
X2220182Y-1061984D02*
X2239229Y-1071508D01*
X2239229Y-1071508D02*
X2248753Y-1081031D01*
X2248753Y-1081031D02*
X2258277Y-1100079D01*
X2258277Y-1100079D02*
X2267801Y-1138174D01*
X2267801Y-1138174D02*
X2267801Y-1185793D01*
X2267801Y-1185793D02*
X2258277Y-1223889D01*
X2258277Y-1223889D02*
X2248753Y-1242936D01*
X2248753Y-1242936D02*
X2239229Y-1252460D01*
X2239229Y-1252460D02*
X2220182Y-1261984D01*
X2220182Y-1261984D02*
X2201134Y-1261984D01*
X2201134Y-1261984D02*
X2182087Y-1252460D01*
X2182087Y-1252460D02*
X2172563Y-1242936D01*
X2172563Y-1242936D02*
X2163039Y-1223889D01*
X2163039Y-1223889D02*
X2153515Y-1185793D01*
X2153515Y-1185793D02*
X2153515Y-1138174D01*
X2153515Y-1138174D02*
X2163039Y-1100079D01*
X2163039Y-1100079D02*
X2172563Y-1081031D01*
X2172563Y-1081031D02*
X2182087Y-1071508D01*
X2182087Y-1071508D02*
X2201134Y-1061984D01*
X2353515Y-1242936D02*
X2363039Y-1252460D01*
X2363039Y-1252460D02*
X2353515Y-1261984D01*
X2353515Y-1261984D02*
X2343991Y-1252460D01*
X2343991Y-1252460D02*
X2353515Y-1242936D01*
X2353515Y-1242936D02*
X2353515Y-1261984D01*
X2486848Y-1061984D02*
X2505896Y-1061984D01*
X2505896Y-1061984D02*
X2524944Y-1071508D01*
X2524944Y-1071508D02*
X2534468Y-1081031D01*
X2534468Y-1081031D02*
X2543991Y-1100079D01*
X2543991Y-1100079D02*
X2553515Y-1138174D01*
X2553515Y-1138174D02*
X2553515Y-1185793D01*
X2553515Y-1185793D02*
X2543991Y-1223889D01*
X2543991Y-1223889D02*
X2534468Y-1242936D01*
X2534468Y-1242936D02*
X2524944Y-1252460D01*
X2524944Y-1252460D02*
X2505896Y-1261984D01*
X2505896Y-1261984D02*
X2486848Y-1261984D01*
X2486848Y-1261984D02*
X2467801Y-1252460D01*
X2467801Y-1252460D02*
X2458277Y-1242936D01*
X2458277Y-1242936D02*
X2448753Y-1223889D01*
X2448753Y-1223889D02*
X2439229Y-1185793D01*
X2439229Y-1185793D02*
X2439229Y-1138174D01*
X2439229Y-1138174D02*
X2448753Y-1100079D01*
X2448753Y-1100079D02*
X2458277Y-1081031D01*
X2458277Y-1081031D02*
X2467801Y-1071508D01*
X2467801Y-1071508D02*
X2486848Y-1061984D01*
X2743991Y-1261984D02*
X2629706Y-1261984D01*
X2686848Y-1261984D02*
X2686848Y-1061984D01*
X2686848Y-1061984D02*
X2667801Y-1090555D01*
X2667801Y-1090555D02*
X2648753Y-1109603D01*
X2648753Y-1109603D02*
X2629706Y-1119127D01*
X2924944Y-1061984D02*
X2829706Y-1061984D01*
X2829706Y-1061984D02*
X2820182Y-1157222D01*
X2820182Y-1157222D02*
X2829706Y-1147698D01*
X2829706Y-1147698D02*
X2848753Y-1138174D01*
X2848753Y-1138174D02*
X2896372Y-1138174D01*
X2896372Y-1138174D02*
X2915420Y-1147698D01*
X2915420Y-1147698D02*
X2924944Y-1157222D01*
X2924944Y-1157222D02*
X2934467Y-1176270D01*
X2934467Y-1176270D02*
X2934467Y-1223889D01*
X2934467Y-1223889D02*
X2924944Y-1242936D01*
X2924944Y-1242936D02*
X2915420Y-1252460D01*
X2915420Y-1252460D02*
X2896372Y-1261984D01*
X2896372Y-1261984D02*
X2848753Y-1261984D01*
X2848753Y-1261984D02*
X2829706Y-1252460D01*
X2829706Y-1252460D02*
X2820182Y-1242936D01*
X3001134Y-1061984D02*
X3134467Y-1061984D01*
X3134467Y-1061984D02*
X3048753Y-1261984D01*
X3201134Y-1061984D02*
X3201134Y-1100079D01*
X3277325Y-1061984D02*
X3277325Y-1100079D01*
X3572563Y-1338174D02*
X3563039Y-1328650D01*
X3563039Y-1328650D02*
X3543991Y-1300079D01*
X3543991Y-1300079D02*
X3534468Y-1281031D01*
X3534468Y-1281031D02*
X3524944Y-1252460D01*
X3524944Y-1252460D02*
X3515420Y-1204841D01*
X3515420Y-1204841D02*
X3515420Y-1166746D01*
X3515420Y-1166746D02*
X3524944Y-1119127D01*
X3524944Y-1119127D02*
X3534468Y-1090555D01*
X3534468Y-1090555D02*
X3543991Y-1071508D01*
X3543991Y-1071508D02*
X3563039Y-1042936D01*
X3563039Y-1042936D02*
X3572563Y-1033412D01*
X3629706Y-1061984D02*
X3753515Y-1061984D01*
X3753515Y-1061984D02*
X3686848Y-1138174D01*
X3686848Y-1138174D02*
X3715420Y-1138174D01*
X3715420Y-1138174D02*
X3734468Y-1147698D01*
X3734468Y-1147698D02*
X3743991Y-1157222D01*
X3743991Y-1157222D02*
X3753515Y-1176270D01*
X3753515Y-1176270D02*
X3753515Y-1223889D01*
X3753515Y-1223889D02*
X3743991Y-1242936D01*
X3743991Y-1242936D02*
X3734468Y-1252460D01*
X3734468Y-1252460D02*
X3715420Y-1261984D01*
X3715420Y-1261984D02*
X3658277Y-1261984D01*
X3658277Y-1261984D02*
X3639229Y-1252460D01*
X3639229Y-1252460D02*
X3629706Y-1242936D01*
X3829706Y-1081031D02*
X3839229Y-1071508D01*
X3839229Y-1071508D02*
X3858277Y-1061984D01*
X3858277Y-1061984D02*
X3905896Y-1061984D01*
X3905896Y-1061984D02*
X3924944Y-1071508D01*
X3924944Y-1071508D02*
X3934468Y-1081031D01*
X3934468Y-1081031D02*
X3943991Y-1100079D01*
X3943991Y-1100079D02*
X3943991Y-1119127D01*
X3943991Y-1119127D02*
X3934468Y-1147698D01*
X3934468Y-1147698D02*
X3820182Y-1261984D01*
X3820182Y-1261984D02*
X3943991Y-1261984D01*
X4182087Y-1261984D02*
X4182087Y-1061984D01*
X4267801Y-1261984D02*
X4267801Y-1157222D01*
X4267801Y-1157222D02*
X4258277Y-1138174D01*
X4258277Y-1138174D02*
X4239230Y-1128650D01*
X4239230Y-1128650D02*
X4210658Y-1128650D01*
X4210658Y-1128650D02*
X4191610Y-1138174D01*
X4191610Y-1138174D02*
X4182087Y-1147698D01*
X4391611Y-1261984D02*
X4372563Y-1252460D01*
X4372563Y-1252460D02*
X4363039Y-1242936D01*
X4363039Y-1242936D02*
X4353515Y-1223889D01*
X4353515Y-1223889D02*
X4353515Y-1166746D01*
X4353515Y-1166746D02*
X4363039Y-1147698D01*
X4363039Y-1147698D02*
X4372563Y-1138174D01*
X4372563Y-1138174D02*
X4391611Y-1128650D01*
X4391611Y-1128650D02*
X4420182Y-1128650D01*
X4420182Y-1128650D02*
X4439230Y-1138174D01*
X4439230Y-1138174D02*
X4448753Y-1147698D01*
X4448753Y-1147698D02*
X4458277Y-1166746D01*
X4458277Y-1166746D02*
X4458277Y-1223889D01*
X4458277Y-1223889D02*
X4448753Y-1242936D01*
X4448753Y-1242936D02*
X4439230Y-1252460D01*
X4439230Y-1252460D02*
X4420182Y-1261984D01*
X4420182Y-1261984D02*
X4391611Y-1261984D01*
X4572563Y-1261984D02*
X4553515Y-1252460D01*
X4553515Y-1252460D02*
X4543992Y-1233412D01*
X4543992Y-1233412D02*
X4543992Y-1061984D01*
X4724944Y-1252460D02*
X4705896Y-1261984D01*
X4705896Y-1261984D02*
X4667801Y-1261984D01*
X4667801Y-1261984D02*
X4648753Y-1252460D01*
X4648753Y-1252460D02*
X4639230Y-1233412D01*
X4639230Y-1233412D02*
X4639230Y-1157222D01*
X4639230Y-1157222D02*
X4648753Y-1138174D01*
X4648753Y-1138174D02*
X4667801Y-1128650D01*
X4667801Y-1128650D02*
X4705896Y-1128650D01*
X4705896Y-1128650D02*
X4724944Y-1138174D01*
X4724944Y-1138174D02*
X4734468Y-1157222D01*
X4734468Y-1157222D02*
X4734468Y-1176270D01*
X4734468Y-1176270D02*
X4639230Y-1195317D01*
X4810658Y-1252460D02*
X4829706Y-1261984D01*
X4829706Y-1261984D02*
X4867801Y-1261984D01*
X4867801Y-1261984D02*
X4886849Y-1252460D01*
X4886849Y-1252460D02*
X4896373Y-1233412D01*
X4896373Y-1233412D02*
X4896373Y-1223889D01*
X4896373Y-1223889D02*
X4886849Y-1204841D01*
X4886849Y-1204841D02*
X4867801Y-1195317D01*
X4867801Y-1195317D02*
X4839230Y-1195317D01*
X4839230Y-1195317D02*
X4820182Y-1185793D01*
X4820182Y-1185793D02*
X4810658Y-1166746D01*
X4810658Y-1166746D02*
X4810658Y-1157222D01*
X4810658Y-1157222D02*
X4820182Y-1138174D01*
X4820182Y-1138174D02*
X4839230Y-1128650D01*
X4839230Y-1128650D02*
X4867801Y-1128650D01*
X4867801Y-1128650D02*
X4886849Y-1138174D01*
X4963039Y-1338174D02*
X4972563Y-1328650D01*
X4972563Y-1328650D02*
X4991611Y-1300079D01*
X4991611Y-1300079D02*
X5001134Y-1281031D01*
X5001134Y-1281031D02*
X5010658Y-1252460D01*
X5010658Y-1252460D02*
X5020182Y-1204841D01*
X5020182Y-1204841D02*
X5020182Y-1166746D01*
X5020182Y-1166746D02*
X5010658Y-1119127D01*
X5010658Y-1119127D02*
X5001134Y-1090555D01*
X5001134Y-1090555D02*
X4991611Y-1071508D01*
X4991611Y-1071508D02*
X4972563Y-1042936D01*
X4972563Y-1042936D02*
X4963039Y-1033412D01*
D12*
X-9822Y-1452178D02*
X-9822Y-1416822D01*
X-45178Y-1416822D01*
X-45178Y-1452178D01*
X-9822Y-1452178D01*
D11*
X296372Y-1325984D02*
X315420Y-1325984D01*
X315420Y-1325984D02*
X334467Y-1335508D01*
X334467Y-1335508D02*
X343991Y-1345031D01*
X343991Y-1345031D02*
X353515Y-1364079D01*
X353515Y-1364079D02*
X363039Y-1402174D01*
X363039Y-1402174D02*
X363039Y-1449793D01*
X363039Y-1449793D02*
X353515Y-1487888D01*
X353515Y-1487888D02*
X343991Y-1506936D01*
X343991Y-1506936D02*
X334467Y-1516460D01*
X334467Y-1516460D02*
X315420Y-1525984D01*
X315420Y-1525984D02*
X296372Y-1525984D01*
X296372Y-1525984D02*
X277324Y-1516460D01*
X277324Y-1516460D02*
X267801Y-1506936D01*
X267801Y-1506936D02*
X258277Y-1487888D01*
X258277Y-1487888D02*
X248753Y-1449793D01*
X248753Y-1449793D02*
X248753Y-1402174D01*
X248753Y-1402174D02*
X258277Y-1364079D01*
X258277Y-1364079D02*
X267801Y-1345031D01*
X267801Y-1345031D02*
X277324Y-1335508D01*
X277324Y-1335508D02*
X296372Y-1325984D01*
X448753Y-1506936D02*
X458277Y-1516460D01*
X458277Y-1516460D02*
X448753Y-1525984D01*
X448753Y-1525984D02*
X439229Y-1516460D01*
X439229Y-1516460D02*
X448753Y-1506936D01*
X448753Y-1506936D02*
X448753Y-1525984D01*
X639229Y-1325984D02*
X543991Y-1325984D01*
X543991Y-1325984D02*
X534467Y-1421222D01*
X534467Y-1421222D02*
X543991Y-1411698D01*
X543991Y-1411698D02*
X563039Y-1402174D01*
X563039Y-1402174D02*
X610658Y-1402174D01*
X610658Y-1402174D02*
X629705Y-1411698D01*
X629705Y-1411698D02*
X639229Y-1421222D01*
X639229Y-1421222D02*
X648753Y-1440269D01*
X648753Y-1440269D02*
X648753Y-1487888D01*
X648753Y-1487888D02*
X639229Y-1506936D01*
X639229Y-1506936D02*
X629705Y-1516460D01*
X629705Y-1516460D02*
X610658Y-1525984D01*
X610658Y-1525984D02*
X563039Y-1525984D01*
X563039Y-1525984D02*
X543991Y-1516460D01*
X543991Y-1516460D02*
X534467Y-1506936D01*
X772562Y-1325984D02*
X791610Y-1325984D01*
X791610Y-1325984D02*
X810658Y-1335508D01*
X810658Y-1335508D02*
X820182Y-1345031D01*
X820182Y-1345031D02*
X829705Y-1364079D01*
X829705Y-1364079D02*
X839229Y-1402174D01*
X839229Y-1402174D02*
X839229Y-1449793D01*
X839229Y-1449793D02*
X829705Y-1487888D01*
X829705Y-1487888D02*
X820182Y-1506936D01*
X820182Y-1506936D02*
X810658Y-1516460D01*
X810658Y-1516460D02*
X791610Y-1525984D01*
X791610Y-1525984D02*
X772562Y-1525984D01*
X772562Y-1525984D02*
X753515Y-1516460D01*
X753515Y-1516460D02*
X743991Y-1506936D01*
X743991Y-1506936D02*
X734467Y-1487888D01*
X734467Y-1487888D02*
X724943Y-1449793D01*
X724943Y-1449793D02*
X724943Y-1402174D01*
X724943Y-1402174D02*
X734467Y-1364079D01*
X734467Y-1364079D02*
X743991Y-1345031D01*
X743991Y-1345031D02*
X753515Y-1335508D01*
X753515Y-1335508D02*
X772562Y-1325984D01*
X963039Y-1325984D02*
X982086Y-1325984D01*
X982086Y-1325984D02*
X1001134Y-1335508D01*
X1001134Y-1335508D02*
X1010658Y-1345031D01*
X1010658Y-1345031D02*
X1020182Y-1364079D01*
X1020182Y-1364079D02*
X1029705Y-1402174D01*
X1029705Y-1402174D02*
X1029705Y-1449793D01*
X1029705Y-1449793D02*
X1020182Y-1487888D01*
X1020182Y-1487888D02*
X1010658Y-1506936D01*
X1010658Y-1506936D02*
X1001134Y-1516460D01*
X1001134Y-1516460D02*
X982086Y-1525984D01*
X982086Y-1525984D02*
X963039Y-1525984D01*
X963039Y-1525984D02*
X943991Y-1516460D01*
X943991Y-1516460D02*
X934467Y-1506936D01*
X934467Y-1506936D02*
X924943Y-1487888D01*
X924943Y-1487888D02*
X915420Y-1449793D01*
X915420Y-1449793D02*
X915420Y-1402174D01*
X915420Y-1402174D02*
X924943Y-1364079D01*
X924943Y-1364079D02*
X934467Y-1345031D01*
X934467Y-1345031D02*
X943991Y-1335508D01*
X943991Y-1335508D02*
X963039Y-1325984D01*
X1115420Y-1525984D02*
X1115420Y-1392650D01*
X1115420Y-1411698D02*
X1124944Y-1402174D01*
X1124944Y-1402174D02*
X1143991Y-1392650D01*
X1143991Y-1392650D02*
X1172563Y-1392650D01*
X1172563Y-1392650D02*
X1191610Y-1402174D01*
X1191610Y-1402174D02*
X1201134Y-1421222D01*
X1201134Y-1421222D02*
X1201134Y-1525984D01*
X1201134Y-1421222D02*
X1210658Y-1402174D01*
X1210658Y-1402174D02*
X1229705Y-1392650D01*
X1229705Y-1392650D02*
X1258277Y-1392650D01*
X1258277Y-1392650D02*
X1277325Y-1402174D01*
X1277325Y-1402174D02*
X1286848Y-1421222D01*
X1286848Y-1421222D02*
X1286848Y-1525984D01*
X1382086Y-1525984D02*
X1382086Y-1392650D01*
X1382086Y-1411698D02*
X1391610Y-1402174D01*
X1391610Y-1402174D02*
X1410658Y-1392650D01*
X1410658Y-1392650D02*
X1439229Y-1392650D01*
X1439229Y-1392650D02*
X1458277Y-1402174D01*
X1458277Y-1402174D02*
X1467801Y-1421222D01*
X1467801Y-1421222D02*
X1467801Y-1525984D01*
X1467801Y-1421222D02*
X1477324Y-1402174D01*
X1477324Y-1402174D02*
X1496372Y-1392650D01*
X1496372Y-1392650D02*
X1524943Y-1392650D01*
X1524943Y-1392650D02*
X1543991Y-1402174D01*
X1543991Y-1402174D02*
X1553515Y-1421222D01*
X1553515Y-1421222D02*
X1553515Y-1525984D01*
X1943991Y-1316460D02*
X1772563Y-1573603D01*
X2201134Y-1325984D02*
X2220182Y-1325984D01*
X2220182Y-1325984D02*
X2239229Y-1335508D01*
X2239229Y-1335508D02*
X2248753Y-1345031D01*
X2248753Y-1345031D02*
X2258277Y-1364079D01*
X2258277Y-1364079D02*
X2267801Y-1402174D01*
X2267801Y-1402174D02*
X2267801Y-1449793D01*
X2267801Y-1449793D02*
X2258277Y-1487888D01*
X2258277Y-1487888D02*
X2248753Y-1506936D01*
X2248753Y-1506936D02*
X2239229Y-1516460D01*
X2239229Y-1516460D02*
X2220182Y-1525984D01*
X2220182Y-1525984D02*
X2201134Y-1525984D01*
X2201134Y-1525984D02*
X2182087Y-1516460D01*
X2182087Y-1516460D02*
X2172563Y-1506936D01*
X2172563Y-1506936D02*
X2163039Y-1487888D01*
X2163039Y-1487888D02*
X2153515Y-1449793D01*
X2153515Y-1449793D02*
X2153515Y-1402174D01*
X2153515Y-1402174D02*
X2163039Y-1364079D01*
X2163039Y-1364079D02*
X2172563Y-1345031D01*
X2172563Y-1345031D02*
X2182087Y-1335508D01*
X2182087Y-1335508D02*
X2201134Y-1325984D01*
X2353515Y-1506936D02*
X2363039Y-1516460D01*
X2363039Y-1516460D02*
X2353515Y-1525984D01*
X2353515Y-1525984D02*
X2343991Y-1516460D01*
X2343991Y-1516460D02*
X2353515Y-1506936D01*
X2353515Y-1506936D02*
X2353515Y-1525984D01*
X2486848Y-1325984D02*
X2505896Y-1325984D01*
X2505896Y-1325984D02*
X2524944Y-1335508D01*
X2524944Y-1335508D02*
X2534468Y-1345031D01*
X2534468Y-1345031D02*
X2543991Y-1364079D01*
X2543991Y-1364079D02*
X2553515Y-1402174D01*
X2553515Y-1402174D02*
X2553515Y-1449793D01*
X2553515Y-1449793D02*
X2543991Y-1487888D01*
X2543991Y-1487888D02*
X2534468Y-1506936D01*
X2534468Y-1506936D02*
X2524944Y-1516460D01*
X2524944Y-1516460D02*
X2505896Y-1525984D01*
X2505896Y-1525984D02*
X2486848Y-1525984D01*
X2486848Y-1525984D02*
X2467801Y-1516460D01*
X2467801Y-1516460D02*
X2458277Y-1506936D01*
X2458277Y-1506936D02*
X2448753Y-1487888D01*
X2448753Y-1487888D02*
X2439229Y-1449793D01*
X2439229Y-1449793D02*
X2439229Y-1402174D01*
X2439229Y-1402174D02*
X2448753Y-1364079D01*
X2448753Y-1364079D02*
X2458277Y-1345031D01*
X2458277Y-1345031D02*
X2467801Y-1335508D01*
X2467801Y-1335508D02*
X2486848Y-1325984D01*
X2743991Y-1525984D02*
X2629706Y-1525984D01*
X2686848Y-1525984D02*
X2686848Y-1325984D01*
X2686848Y-1325984D02*
X2667801Y-1354555D01*
X2667801Y-1354555D02*
X2648753Y-1373603D01*
X2648753Y-1373603D02*
X2629706Y-1383127D01*
X2839229Y-1525984D02*
X2877325Y-1525984D01*
X2877325Y-1525984D02*
X2896372Y-1516460D01*
X2896372Y-1516460D02*
X2905896Y-1506936D01*
X2905896Y-1506936D02*
X2924944Y-1478365D01*
X2924944Y-1478365D02*
X2934467Y-1440269D01*
X2934467Y-1440269D02*
X2934467Y-1364079D01*
X2934467Y-1364079D02*
X2924944Y-1345031D01*
X2924944Y-1345031D02*
X2915420Y-1335508D01*
X2915420Y-1335508D02*
X2896372Y-1325984D01*
X2896372Y-1325984D02*
X2858277Y-1325984D01*
X2858277Y-1325984D02*
X2839229Y-1335508D01*
X2839229Y-1335508D02*
X2829706Y-1345031D01*
X2829706Y-1345031D02*
X2820182Y-1364079D01*
X2820182Y-1364079D02*
X2820182Y-1411698D01*
X2820182Y-1411698D02*
X2829706Y-1430746D01*
X2829706Y-1430746D02*
X2839229Y-1440269D01*
X2839229Y-1440269D02*
X2858277Y-1449793D01*
X2858277Y-1449793D02*
X2896372Y-1449793D01*
X2896372Y-1449793D02*
X2915420Y-1440269D01*
X2915420Y-1440269D02*
X2924944Y-1430746D01*
X2924944Y-1430746D02*
X2934467Y-1411698D01*
X3001134Y-1325984D02*
X3134467Y-1325984D01*
X3134467Y-1325984D02*
X3048753Y-1525984D01*
X3201134Y-1325984D02*
X3201134Y-1364079D01*
X3277325Y-1325984D02*
X3277325Y-1364079D01*
X3572563Y-1602174D02*
X3563039Y-1592650D01*
X3563039Y-1592650D02*
X3543991Y-1564079D01*
X3543991Y-1564079D02*
X3534468Y-1545031D01*
X3534468Y-1545031D02*
X3524944Y-1516460D01*
X3524944Y-1516460D02*
X3515420Y-1468841D01*
X3515420Y-1468841D02*
X3515420Y-1430746D01*
X3515420Y-1430746D02*
X3524944Y-1383127D01*
X3524944Y-1383127D02*
X3534468Y-1354555D01*
X3534468Y-1354555D02*
X3543991Y-1335508D01*
X3543991Y-1335508D02*
X3563039Y-1306936D01*
X3563039Y-1306936D02*
X3572563Y-1297412D01*
X3734468Y-1392650D02*
X3734468Y-1525984D01*
X3686848Y-1316460D02*
X3639229Y-1459317D01*
X3639229Y-1459317D02*
X3763039Y-1459317D01*
X3991610Y-1525984D02*
X3991610Y-1325984D01*
X4077325Y-1525984D02*
X4077325Y-1421222D01*
X4077325Y-1421222D02*
X4067801Y-1402174D01*
X4067801Y-1402174D02*
X4048753Y-1392650D01*
X4048753Y-1392650D02*
X4020182Y-1392650D01*
X4020182Y-1392650D02*
X4001134Y-1402174D01*
X4001134Y-1402174D02*
X3991610Y-1411698D01*
X4201134Y-1525984D02*
X4182087Y-1516460D01*
X4182087Y-1516460D02*
X4172563Y-1506936D01*
X4172563Y-1506936D02*
X4163039Y-1487888D01*
X4163039Y-1487888D02*
X4163039Y-1430746D01*
X4163039Y-1430746D02*
X4172563Y-1411698D01*
X4172563Y-1411698D02*
X4182087Y-1402174D01*
X4182087Y-1402174D02*
X4201134Y-1392650D01*
X4201134Y-1392650D02*
X4229706Y-1392650D01*
X4229706Y-1392650D02*
X4248753Y-1402174D01*
X4248753Y-1402174D02*
X4258277Y-1411698D01*
X4258277Y-1411698D02*
X4267801Y-1430746D01*
X4267801Y-1430746D02*
X4267801Y-1487888D01*
X4267801Y-1487888D02*
X4258277Y-1506936D01*
X4258277Y-1506936D02*
X4248753Y-1516460D01*
X4248753Y-1516460D02*
X4229706Y-1525984D01*
X4229706Y-1525984D02*
X4201134Y-1525984D01*
X4382087Y-1525984D02*
X4363039Y-1516460D01*
X4363039Y-1516460D02*
X4353515Y-1497412D01*
X4353515Y-1497412D02*
X4353515Y-1325984D01*
X4534468Y-1516460D02*
X4515420Y-1525984D01*
X4515420Y-1525984D02*
X4477325Y-1525984D01*
X4477325Y-1525984D02*
X4458277Y-1516460D01*
X4458277Y-1516460D02*
X4448753Y-1497412D01*
X4448753Y-1497412D02*
X4448753Y-1421222D01*
X4448753Y-1421222D02*
X4458277Y-1402174D01*
X4458277Y-1402174D02*
X4477325Y-1392650D01*
X4477325Y-1392650D02*
X4515420Y-1392650D01*
X4515420Y-1392650D02*
X4534468Y-1402174D01*
X4534468Y-1402174D02*
X4543992Y-1421222D01*
X4543992Y-1421222D02*
X4543992Y-1440269D01*
X4543992Y-1440269D02*
X4448753Y-1459317D01*
X4620182Y-1516460D02*
X4639230Y-1525984D01*
X4639230Y-1525984D02*
X4677325Y-1525984D01*
X4677325Y-1525984D02*
X4696373Y-1516460D01*
X4696373Y-1516460D02*
X4705896Y-1497412D01*
X4705896Y-1497412D02*
X4705896Y-1487888D01*
X4705896Y-1487888D02*
X4696373Y-1468841D01*
X4696373Y-1468841D02*
X4677325Y-1459317D01*
X4677325Y-1459317D02*
X4648753Y-1459317D01*
X4648753Y-1459317D02*
X4629706Y-1449793D01*
X4629706Y-1449793D02*
X4620182Y-1430746D01*
X4620182Y-1430746D02*
X4620182Y-1421222D01*
X4620182Y-1421222D02*
X4629706Y-1402174D01*
X4629706Y-1402174D02*
X4648753Y-1392650D01*
X4648753Y-1392650D02*
X4677325Y-1392650D01*
X4677325Y-1392650D02*
X4696373Y-1402174D01*
X4772563Y-1602174D02*
X4782087Y-1592650D01*
X4782087Y-1592650D02*
X4801134Y-1564079D01*
X4801134Y-1564079D02*
X4810658Y-1545031D01*
X4810658Y-1545031D02*
X4820182Y-1516460D01*
X4820182Y-1516460D02*
X4829706Y-1468841D01*
X4829706Y-1468841D02*
X4829706Y-1430746D01*
X4829706Y-1430746D02*
X4820182Y-1383127D01*
X4820182Y-1383127D02*
X4810658Y-1354555D01*
X4810658Y-1354555D02*
X4801134Y-1335508D01*
X4801134Y-1335508D02*
X4782087Y-1306936D01*
X4782087Y-1306936D02*
X4772563Y-1297412D01*
D12*
X-32500Y-1728500D02*
X-2500Y-1698500D01*
X-32500Y-1668500D01*
X-62500Y-1698500D01*
X-32500Y-1728500D01*
D11*
X296372Y-1589984D02*
X315420Y-1589984D01*
X315420Y-1589984D02*
X334467Y-1599508D01*
X334467Y-1599508D02*
X343991Y-1609031D01*
X343991Y-1609031D02*
X353515Y-1628079D01*
X353515Y-1628079D02*
X363039Y-1666174D01*
X363039Y-1666174D02*
X363039Y-1713793D01*
X363039Y-1713793D02*
X353515Y-1751888D01*
X353515Y-1751888D02*
X343991Y-1770936D01*
X343991Y-1770936D02*
X334467Y-1780460D01*
X334467Y-1780460D02*
X315420Y-1789984D01*
X315420Y-1789984D02*
X296372Y-1789984D01*
X296372Y-1789984D02*
X277324Y-1780460D01*
X277324Y-1780460D02*
X267801Y-1770936D01*
X267801Y-1770936D02*
X258277Y-1751888D01*
X258277Y-1751888D02*
X248753Y-1713793D01*
X248753Y-1713793D02*
X248753Y-1666174D01*
X248753Y-1666174D02*
X258277Y-1628079D01*
X258277Y-1628079D02*
X267801Y-1609031D01*
X267801Y-1609031D02*
X277324Y-1599508D01*
X277324Y-1599508D02*
X296372Y-1589984D01*
X448753Y-1770936D02*
X458277Y-1780460D01*
X458277Y-1780460D02*
X448753Y-1789984D01*
X448753Y-1789984D02*
X439229Y-1780460D01*
X439229Y-1780460D02*
X448753Y-1770936D01*
X448753Y-1770936D02*
X448753Y-1789984D01*
X629705Y-1589984D02*
X591610Y-1589984D01*
X591610Y-1589984D02*
X572563Y-1599508D01*
X572563Y-1599508D02*
X563039Y-1609031D01*
X563039Y-1609031D02*
X543991Y-1637603D01*
X543991Y-1637603D02*
X534467Y-1675698D01*
X534467Y-1675698D02*
X534467Y-1751888D01*
X534467Y-1751888D02*
X543991Y-1770936D01*
X543991Y-1770936D02*
X553515Y-1780460D01*
X553515Y-1780460D02*
X572563Y-1789984D01*
X572563Y-1789984D02*
X610658Y-1789984D01*
X610658Y-1789984D02*
X629705Y-1780460D01*
X629705Y-1780460D02*
X639229Y-1770936D01*
X639229Y-1770936D02*
X648753Y-1751888D01*
X648753Y-1751888D02*
X648753Y-1704269D01*
X648753Y-1704269D02*
X639229Y-1685222D01*
X639229Y-1685222D02*
X629705Y-1675698D01*
X629705Y-1675698D02*
X610658Y-1666174D01*
X610658Y-1666174D02*
X572563Y-1666174D01*
X572563Y-1666174D02*
X553515Y-1675698D01*
X553515Y-1675698D02*
X543991Y-1685222D01*
X543991Y-1685222D02*
X534467Y-1704269D01*
X772562Y-1589984D02*
X791610Y-1589984D01*
X791610Y-1589984D02*
X810658Y-1599508D01*
X810658Y-1599508D02*
X820182Y-1609031D01*
X820182Y-1609031D02*
X829705Y-1628079D01*
X829705Y-1628079D02*
X839229Y-1666174D01*
X839229Y-1666174D02*
X839229Y-1713793D01*
X839229Y-1713793D02*
X829705Y-1751888D01*
X829705Y-1751888D02*
X820182Y-1770936D01*
X820182Y-1770936D02*
X810658Y-1780460D01*
X810658Y-1780460D02*
X791610Y-1789984D01*
X791610Y-1789984D02*
X772562Y-1789984D01*
X772562Y-1789984D02*
X753515Y-1780460D01*
X753515Y-1780460D02*
X743991Y-1770936D01*
X743991Y-1770936D02*
X734467Y-1751888D01*
X734467Y-1751888D02*
X724943Y-1713793D01*
X724943Y-1713793D02*
X724943Y-1666174D01*
X724943Y-1666174D02*
X734467Y-1628079D01*
X734467Y-1628079D02*
X743991Y-1609031D01*
X743991Y-1609031D02*
X753515Y-1599508D01*
X753515Y-1599508D02*
X772562Y-1589984D01*
X963039Y-1589984D02*
X982086Y-1589984D01*
X982086Y-1589984D02*
X1001134Y-1599508D01*
X1001134Y-1599508D02*
X1010658Y-1609031D01*
X1010658Y-1609031D02*
X1020182Y-1628079D01*
X1020182Y-1628079D02*
X1029705Y-1666174D01*
X1029705Y-1666174D02*
X1029705Y-1713793D01*
X1029705Y-1713793D02*
X1020182Y-1751888D01*
X1020182Y-1751888D02*
X1010658Y-1770936D01*
X1010658Y-1770936D02*
X1001134Y-1780460D01*
X1001134Y-1780460D02*
X982086Y-1789984D01*
X982086Y-1789984D02*
X963039Y-1789984D01*
X963039Y-1789984D02*
X943991Y-1780460D01*
X943991Y-1780460D02*
X934467Y-1770936D01*
X934467Y-1770936D02*
X924943Y-1751888D01*
X924943Y-1751888D02*
X915420Y-1713793D01*
X915420Y-1713793D02*
X915420Y-1666174D01*
X915420Y-1666174D02*
X924943Y-1628079D01*
X924943Y-1628079D02*
X934467Y-1609031D01*
X934467Y-1609031D02*
X943991Y-1599508D01*
X943991Y-1599508D02*
X963039Y-1589984D01*
X1115420Y-1789984D02*
X1115420Y-1656650D01*
X1115420Y-1675698D02*
X1124944Y-1666174D01*
X1124944Y-1666174D02*
X1143991Y-1656650D01*
X1143991Y-1656650D02*
X1172563Y-1656650D01*
X1172563Y-1656650D02*
X1191610Y-1666174D01*
X1191610Y-1666174D02*
X1201134Y-1685222D01*
X1201134Y-1685222D02*
X1201134Y-1789984D01*
X1201134Y-1685222D02*
X1210658Y-1666174D01*
X1210658Y-1666174D02*
X1229705Y-1656650D01*
X1229705Y-1656650D02*
X1258277Y-1656650D01*
X1258277Y-1656650D02*
X1277325Y-1666174D01*
X1277325Y-1666174D02*
X1286848Y-1685222D01*
X1286848Y-1685222D02*
X1286848Y-1789984D01*
X1382086Y-1789984D02*
X1382086Y-1656650D01*
X1382086Y-1675698D02*
X1391610Y-1666174D01*
X1391610Y-1666174D02*
X1410658Y-1656650D01*
X1410658Y-1656650D02*
X1439229Y-1656650D01*
X1439229Y-1656650D02*
X1458277Y-1666174D01*
X1458277Y-1666174D02*
X1467801Y-1685222D01*
X1467801Y-1685222D02*
X1467801Y-1789984D01*
X1467801Y-1685222D02*
X1477324Y-1666174D01*
X1477324Y-1666174D02*
X1496372Y-1656650D01*
X1496372Y-1656650D02*
X1524943Y-1656650D01*
X1524943Y-1656650D02*
X1543991Y-1666174D01*
X1543991Y-1666174D02*
X1553515Y-1685222D01*
X1553515Y-1685222D02*
X1553515Y-1789984D01*
X1943991Y-1580460D02*
X1772563Y-1837603D01*
X2201134Y-1589984D02*
X2220182Y-1589984D01*
X2220182Y-1589984D02*
X2239229Y-1599508D01*
X2239229Y-1599508D02*
X2248753Y-1609031D01*
X2248753Y-1609031D02*
X2258277Y-1628079D01*
X2258277Y-1628079D02*
X2267801Y-1666174D01*
X2267801Y-1666174D02*
X2267801Y-1713793D01*
X2267801Y-1713793D02*
X2258277Y-1751888D01*
X2258277Y-1751888D02*
X2248753Y-1770936D01*
X2248753Y-1770936D02*
X2239229Y-1780460D01*
X2239229Y-1780460D02*
X2220182Y-1789984D01*
X2220182Y-1789984D02*
X2201134Y-1789984D01*
X2201134Y-1789984D02*
X2182087Y-1780460D01*
X2182087Y-1780460D02*
X2172563Y-1770936D01*
X2172563Y-1770936D02*
X2163039Y-1751888D01*
X2163039Y-1751888D02*
X2153515Y-1713793D01*
X2153515Y-1713793D02*
X2153515Y-1666174D01*
X2153515Y-1666174D02*
X2163039Y-1628079D01*
X2163039Y-1628079D02*
X2172563Y-1609031D01*
X2172563Y-1609031D02*
X2182087Y-1599508D01*
X2182087Y-1599508D02*
X2201134Y-1589984D01*
X2353515Y-1770936D02*
X2363039Y-1780460D01*
X2363039Y-1780460D02*
X2353515Y-1789984D01*
X2353515Y-1789984D02*
X2343991Y-1780460D01*
X2343991Y-1780460D02*
X2353515Y-1770936D01*
X2353515Y-1770936D02*
X2353515Y-1789984D01*
X2486848Y-1589984D02*
X2505896Y-1589984D01*
X2505896Y-1589984D02*
X2524944Y-1599508D01*
X2524944Y-1599508D02*
X2534468Y-1609031D01*
X2534468Y-1609031D02*
X2543991Y-1628079D01*
X2543991Y-1628079D02*
X2553515Y-1666174D01*
X2553515Y-1666174D02*
X2553515Y-1713793D01*
X2553515Y-1713793D02*
X2543991Y-1751888D01*
X2543991Y-1751888D02*
X2534468Y-1770936D01*
X2534468Y-1770936D02*
X2524944Y-1780460D01*
X2524944Y-1780460D02*
X2505896Y-1789984D01*
X2505896Y-1789984D02*
X2486848Y-1789984D01*
X2486848Y-1789984D02*
X2467801Y-1780460D01*
X2467801Y-1780460D02*
X2458277Y-1770936D01*
X2458277Y-1770936D02*
X2448753Y-1751888D01*
X2448753Y-1751888D02*
X2439229Y-1713793D01*
X2439229Y-1713793D02*
X2439229Y-1666174D01*
X2439229Y-1666174D02*
X2448753Y-1628079D01*
X2448753Y-1628079D02*
X2458277Y-1609031D01*
X2458277Y-1609031D02*
X2467801Y-1599508D01*
X2467801Y-1599508D02*
X2486848Y-1589984D01*
X2629706Y-1609031D02*
X2639229Y-1599508D01*
X2639229Y-1599508D02*
X2658277Y-1589984D01*
X2658277Y-1589984D02*
X2705896Y-1589984D01*
X2705896Y-1589984D02*
X2724944Y-1599508D01*
X2724944Y-1599508D02*
X2734468Y-1609031D01*
X2734468Y-1609031D02*
X2743991Y-1628079D01*
X2743991Y-1628079D02*
X2743991Y-1647127D01*
X2743991Y-1647127D02*
X2734468Y-1675698D01*
X2734468Y-1675698D02*
X2620182Y-1789984D01*
X2620182Y-1789984D02*
X2743991Y-1789984D01*
X2810658Y-1589984D02*
X2934467Y-1589984D01*
X2934467Y-1589984D02*
X2867801Y-1666174D01*
X2867801Y-1666174D02*
X2896372Y-1666174D01*
X2896372Y-1666174D02*
X2915420Y-1675698D01*
X2915420Y-1675698D02*
X2924944Y-1685222D01*
X2924944Y-1685222D02*
X2934467Y-1704269D01*
X2934467Y-1704269D02*
X2934467Y-1751888D01*
X2934467Y-1751888D02*
X2924944Y-1770936D01*
X2924944Y-1770936D02*
X2915420Y-1780460D01*
X2915420Y-1780460D02*
X2896372Y-1789984D01*
X2896372Y-1789984D02*
X2839229Y-1789984D01*
X2839229Y-1789984D02*
X2820182Y-1780460D01*
X2820182Y-1780460D02*
X2810658Y-1770936D01*
X3105896Y-1589984D02*
X3067801Y-1589984D01*
X3067801Y-1589984D02*
X3048753Y-1599508D01*
X3048753Y-1599508D02*
X3039229Y-1609031D01*
X3039229Y-1609031D02*
X3020182Y-1637603D01*
X3020182Y-1637603D02*
X3010658Y-1675698D01*
X3010658Y-1675698D02*
X3010658Y-1751888D01*
X3010658Y-1751888D02*
X3020182Y-1770936D01*
X3020182Y-1770936D02*
X3029706Y-1780460D01*
X3029706Y-1780460D02*
X3048753Y-1789984D01*
X3048753Y-1789984D02*
X3086848Y-1789984D01*
X3086848Y-1789984D02*
X3105896Y-1780460D01*
X3105896Y-1780460D02*
X3115420Y-1770936D01*
X3115420Y-1770936D02*
X3124944Y-1751888D01*
X3124944Y-1751888D02*
X3124944Y-1704269D01*
X3124944Y-1704269D02*
X3115420Y-1685222D01*
X3115420Y-1685222D02*
X3105896Y-1675698D01*
X3105896Y-1675698D02*
X3086848Y-1666174D01*
X3086848Y-1666174D02*
X3048753Y-1666174D01*
X3048753Y-1666174D02*
X3029706Y-1675698D01*
X3029706Y-1675698D02*
X3020182Y-1685222D01*
X3020182Y-1685222D02*
X3010658Y-1704269D01*
X3201134Y-1589984D02*
X3201134Y-1628079D01*
X3277325Y-1589984D02*
X3277325Y-1628079D01*
X3572563Y-1866174D02*
X3563039Y-1856650D01*
X3563039Y-1856650D02*
X3543991Y-1828079D01*
X3543991Y-1828079D02*
X3534468Y-1809031D01*
X3534468Y-1809031D02*
X3524944Y-1780460D01*
X3524944Y-1780460D02*
X3515420Y-1732841D01*
X3515420Y-1732841D02*
X3515420Y-1694746D01*
X3515420Y-1694746D02*
X3524944Y-1647127D01*
X3524944Y-1647127D02*
X3534468Y-1618555D01*
X3534468Y-1618555D02*
X3543991Y-1599508D01*
X3543991Y-1599508D02*
X3563039Y-1570936D01*
X3563039Y-1570936D02*
X3572563Y-1561412D01*
X3686848Y-1589984D02*
X3705896Y-1589984D01*
X3705896Y-1589984D02*
X3724944Y-1599508D01*
X3724944Y-1599508D02*
X3734468Y-1609031D01*
X3734468Y-1609031D02*
X3743991Y-1628079D01*
X3743991Y-1628079D02*
X3753515Y-1666174D01*
X3753515Y-1666174D02*
X3753515Y-1713793D01*
X3753515Y-1713793D02*
X3743991Y-1751888D01*
X3743991Y-1751888D02*
X3734468Y-1770936D01*
X3734468Y-1770936D02*
X3724944Y-1780460D01*
X3724944Y-1780460D02*
X3705896Y-1789984D01*
X3705896Y-1789984D02*
X3686848Y-1789984D01*
X3686848Y-1789984D02*
X3667801Y-1780460D01*
X3667801Y-1780460D02*
X3658277Y-1770936D01*
X3658277Y-1770936D02*
X3648753Y-1751888D01*
X3648753Y-1751888D02*
X3639229Y-1713793D01*
X3639229Y-1713793D02*
X3639229Y-1666174D01*
X3639229Y-1666174D02*
X3648753Y-1628079D01*
X3648753Y-1628079D02*
X3658277Y-1609031D01*
X3658277Y-1609031D02*
X3667801Y-1599508D01*
X3667801Y-1599508D02*
X3686848Y-1589984D01*
X3991610Y-1789984D02*
X3991610Y-1589984D01*
X4077325Y-1789984D02*
X4077325Y-1685222D01*
X4077325Y-1685222D02*
X4067801Y-1666174D01*
X4067801Y-1666174D02*
X4048753Y-1656650D01*
X4048753Y-1656650D02*
X4020182Y-1656650D01*
X4020182Y-1656650D02*
X4001134Y-1666174D01*
X4001134Y-1666174D02*
X3991610Y-1675698D01*
X4201134Y-1789984D02*
X4182087Y-1780460D01*
X4182087Y-1780460D02*
X4172563Y-1770936D01*
X4172563Y-1770936D02*
X4163039Y-1751888D01*
X4163039Y-1751888D02*
X4163039Y-1694746D01*
X4163039Y-1694746D02*
X4172563Y-1675698D01*
X4172563Y-1675698D02*
X4182087Y-1666174D01*
X4182087Y-1666174D02*
X4201134Y-1656650D01*
X4201134Y-1656650D02*
X4229706Y-1656650D01*
X4229706Y-1656650D02*
X4248753Y-1666174D01*
X4248753Y-1666174D02*
X4258277Y-1675698D01*
X4258277Y-1675698D02*
X4267801Y-1694746D01*
X4267801Y-1694746D02*
X4267801Y-1751888D01*
X4267801Y-1751888D02*
X4258277Y-1770936D01*
X4258277Y-1770936D02*
X4248753Y-1780460D01*
X4248753Y-1780460D02*
X4229706Y-1789984D01*
X4229706Y-1789984D02*
X4201134Y-1789984D01*
X4382087Y-1789984D02*
X4363039Y-1780460D01*
X4363039Y-1780460D02*
X4353515Y-1761412D01*
X4353515Y-1761412D02*
X4353515Y-1589984D01*
X4534468Y-1780460D02*
X4515420Y-1789984D01*
X4515420Y-1789984D02*
X4477325Y-1789984D01*
X4477325Y-1789984D02*
X4458277Y-1780460D01*
X4458277Y-1780460D02*
X4448753Y-1761412D01*
X4448753Y-1761412D02*
X4448753Y-1685222D01*
X4448753Y-1685222D02*
X4458277Y-1666174D01*
X4458277Y-1666174D02*
X4477325Y-1656650D01*
X4477325Y-1656650D02*
X4515420Y-1656650D01*
X4515420Y-1656650D02*
X4534468Y-1666174D01*
X4534468Y-1666174D02*
X4543992Y-1685222D01*
X4543992Y-1685222D02*
X4543992Y-1704269D01*
X4543992Y-1704269D02*
X4448753Y-1723317D01*
X4620182Y-1780460D02*
X4639230Y-1789984D01*
X4639230Y-1789984D02*
X4677325Y-1789984D01*
X4677325Y-1789984D02*
X4696373Y-1780460D01*
X4696373Y-1780460D02*
X4705896Y-1761412D01*
X4705896Y-1761412D02*
X4705896Y-1751888D01*
X4705896Y-1751888D02*
X4696373Y-1732841D01*
X4696373Y-1732841D02*
X4677325Y-1723317D01*
X4677325Y-1723317D02*
X4648753Y-1723317D01*
X4648753Y-1723317D02*
X4629706Y-1713793D01*
X4629706Y-1713793D02*
X4620182Y-1694746D01*
X4620182Y-1694746D02*
X4620182Y-1685222D01*
X4620182Y-1685222D02*
X4629706Y-1666174D01*
X4629706Y-1666174D02*
X4648753Y-1656650D01*
X4648753Y-1656650D02*
X4677325Y-1656650D01*
X4677325Y-1656650D02*
X4696373Y-1666174D01*
X4943992Y-1713793D02*
X5096373Y-1713793D01*
X5020182Y-1789984D02*
X5020182Y-1637603D01*
X5429706Y-1656650D02*
X5429706Y-1789984D01*
X5382087Y-1580460D02*
X5334468Y-1723317D01*
X5334468Y-1723317D02*
X5458277Y-1723317D01*
X5677325Y-1780460D02*
X5696373Y-1789984D01*
X5696373Y-1789984D02*
X5734468Y-1789984D01*
X5734468Y-1789984D02*
X5753515Y-1780460D01*
X5753515Y-1780460D02*
X5763039Y-1761412D01*
X5763039Y-1761412D02*
X5763039Y-1751888D01*
X5763039Y-1751888D02*
X5753515Y-1732841D01*
X5753515Y-1732841D02*
X5734468Y-1723317D01*
X5734468Y-1723317D02*
X5705896Y-1723317D01*
X5705896Y-1723317D02*
X5686849Y-1713793D01*
X5686849Y-1713793D02*
X5677325Y-1694746D01*
X5677325Y-1694746D02*
X5677325Y-1685222D01*
X5677325Y-1685222D02*
X5686849Y-1666174D01*
X5686849Y-1666174D02*
X5705896Y-1656650D01*
X5705896Y-1656650D02*
X5734468Y-1656650D01*
X5734468Y-1656650D02*
X5753515Y-1666174D01*
X5877325Y-1789984D02*
X5858277Y-1780460D01*
X5858277Y-1780460D02*
X5848754Y-1761412D01*
X5848754Y-1761412D02*
X5848754Y-1589984D01*
X5982087Y-1789984D02*
X5963039Y-1780460D01*
X5963039Y-1780460D02*
X5953515Y-1770936D01*
X5953515Y-1770936D02*
X5943992Y-1751888D01*
X5943992Y-1751888D02*
X5943992Y-1694746D01*
X5943992Y-1694746D02*
X5953515Y-1675698D01*
X5953515Y-1675698D02*
X5963039Y-1666174D01*
X5963039Y-1666174D02*
X5982087Y-1656650D01*
X5982087Y-1656650D02*
X6010658Y-1656650D01*
X6010658Y-1656650D02*
X6029706Y-1666174D01*
X6029706Y-1666174D02*
X6039230Y-1675698D01*
X6039230Y-1675698D02*
X6048754Y-1694746D01*
X6048754Y-1694746D02*
X6048754Y-1751888D01*
X6048754Y-1751888D02*
X6039230Y-1770936D01*
X6039230Y-1770936D02*
X6029706Y-1780460D01*
X6029706Y-1780460D02*
X6010658Y-1789984D01*
X6010658Y-1789984D02*
X5982087Y-1789984D01*
X6105896Y-1656650D02*
X6182087Y-1656650D01*
X6134468Y-1589984D02*
X6134468Y-1761412D01*
X6134468Y-1761412D02*
X6143992Y-1780460D01*
X6143992Y-1780460D02*
X6163039Y-1789984D01*
X6163039Y-1789984D02*
X6182087Y-1789984D01*
X6239230Y-1780460D02*
X6258277Y-1789984D01*
X6258277Y-1789984D02*
X6296373Y-1789984D01*
X6296373Y-1789984D02*
X6315420Y-1780460D01*
X6315420Y-1780460D02*
X6324944Y-1761412D01*
X6324944Y-1761412D02*
X6324944Y-1751888D01*
X6324944Y-1751888D02*
X6315420Y-1732841D01*
X6315420Y-1732841D02*
X6296373Y-1723317D01*
X6296373Y-1723317D02*
X6267801Y-1723317D01*
X6267801Y-1723317D02*
X6248754Y-1713793D01*
X6248754Y-1713793D02*
X6239230Y-1694746D01*
X6239230Y-1694746D02*
X6239230Y-1685222D01*
X6239230Y-1685222D02*
X6248754Y-1666174D01*
X6248754Y-1666174D02*
X6267801Y-1656650D01*
X6267801Y-1656650D02*
X6296373Y-1656650D01*
X6296373Y-1656650D02*
X6315420Y-1666174D01*
X6391611Y-1866174D02*
X6401135Y-1856650D01*
X6401135Y-1856650D02*
X6420182Y-1828079D01*
X6420182Y-1828079D02*
X6429706Y-1809031D01*
X6429706Y-1809031D02*
X6439230Y-1780460D01*
X6439230Y-1780460D02*
X6448754Y-1732841D01*
X6448754Y-1732841D02*
X6448754Y-1694746D01*
X6448754Y-1694746D02*
X6439230Y-1647127D01*
X6439230Y-1647127D02*
X6429706Y-1618555D01*
X6429706Y-1618555D02*
X6420182Y-1599508D01*
X6420182Y-1599508D02*
X6401135Y-1570936D01*
X6401135Y-1570936D02*
X6391611Y-1561412D01*
X-202500Y-1862500D02*
X-2500Y-2062500D01*
X-2500Y-1862500D02*
X-202500Y-2062500D01*
X-2500Y-1962500D02*
G75*
G02*
X-202500Y-1962500I-100000J0D01*
G01*
X-202500Y-1962500D02*
G75*
G02*
X-2500Y-1962500I100000J0D01*
G01*
X248753Y-1873031D02*
X258277Y-1863508D01*
X258277Y-1863508D02*
X277324Y-1853984D01*
X277324Y-1853984D02*
X324944Y-1853984D01*
X324944Y-1853984D02*
X343991Y-1863508D01*
X343991Y-1863508D02*
X353515Y-1873031D01*
X353515Y-1873031D02*
X363039Y-1892079D01*
X363039Y-1892079D02*
X363039Y-1911127D01*
X363039Y-1911127D02*
X353515Y-1939698D01*
X353515Y-1939698D02*
X239229Y-2053984D01*
X239229Y-2053984D02*
X363039Y-2053984D01*
X448753Y-2034936D02*
X458277Y-2044460D01*
X458277Y-2044460D02*
X448753Y-2053984D01*
X448753Y-2053984D02*
X439229Y-2044460D01*
X439229Y-2044460D02*
X448753Y-2034936D01*
X448753Y-2034936D02*
X448753Y-2053984D01*
X534467Y-1873031D02*
X543991Y-1863508D01*
X543991Y-1863508D02*
X563039Y-1853984D01*
X563039Y-1853984D02*
X610658Y-1853984D01*
X610658Y-1853984D02*
X629705Y-1863508D01*
X629705Y-1863508D02*
X639229Y-1873031D01*
X639229Y-1873031D02*
X648753Y-1892079D01*
X648753Y-1892079D02*
X648753Y-1911127D01*
X648753Y-1911127D02*
X639229Y-1939698D01*
X639229Y-1939698D02*
X524944Y-2053984D01*
X524944Y-2053984D02*
X648753Y-2053984D01*
X772562Y-1853984D02*
X791610Y-1853984D01*
X791610Y-1853984D02*
X810658Y-1863508D01*
X810658Y-1863508D02*
X820182Y-1873031D01*
X820182Y-1873031D02*
X829705Y-1892079D01*
X829705Y-1892079D02*
X839229Y-1930174D01*
X839229Y-1930174D02*
X839229Y-1977793D01*
X839229Y-1977793D02*
X829705Y-2015888D01*
X829705Y-2015888D02*
X820182Y-2034936D01*
X820182Y-2034936D02*
X810658Y-2044460D01*
X810658Y-2044460D02*
X791610Y-2053984D01*
X791610Y-2053984D02*
X772562Y-2053984D01*
X772562Y-2053984D02*
X753515Y-2044460D01*
X753515Y-2044460D02*
X743991Y-2034936D01*
X743991Y-2034936D02*
X734467Y-2015888D01*
X734467Y-2015888D02*
X724943Y-1977793D01*
X724943Y-1977793D02*
X724943Y-1930174D01*
X724943Y-1930174D02*
X734467Y-1892079D01*
X734467Y-1892079D02*
X743991Y-1873031D01*
X743991Y-1873031D02*
X753515Y-1863508D01*
X753515Y-1863508D02*
X772562Y-1853984D01*
X963039Y-1853984D02*
X982086Y-1853984D01*
X982086Y-1853984D02*
X1001134Y-1863508D01*
X1001134Y-1863508D02*
X1010658Y-1873031D01*
X1010658Y-1873031D02*
X1020182Y-1892079D01*
X1020182Y-1892079D02*
X1029705Y-1930174D01*
X1029705Y-1930174D02*
X1029705Y-1977793D01*
X1029705Y-1977793D02*
X1020182Y-2015888D01*
X1020182Y-2015888D02*
X1010658Y-2034936D01*
X1010658Y-2034936D02*
X1001134Y-2044460D01*
X1001134Y-2044460D02*
X982086Y-2053984D01*
X982086Y-2053984D02*
X963039Y-2053984D01*
X963039Y-2053984D02*
X943991Y-2044460D01*
X943991Y-2044460D02*
X934467Y-2034936D01*
X934467Y-2034936D02*
X924943Y-2015888D01*
X924943Y-2015888D02*
X915420Y-1977793D01*
X915420Y-1977793D02*
X915420Y-1930174D01*
X915420Y-1930174D02*
X924943Y-1892079D01*
X924943Y-1892079D02*
X934467Y-1873031D01*
X934467Y-1873031D02*
X943991Y-1863508D01*
X943991Y-1863508D02*
X963039Y-1853984D01*
X1115420Y-2053984D02*
X1115420Y-1920650D01*
X1115420Y-1939698D02*
X1124944Y-1930174D01*
X1124944Y-1930174D02*
X1143991Y-1920650D01*
X1143991Y-1920650D02*
X1172563Y-1920650D01*
X1172563Y-1920650D02*
X1191610Y-1930174D01*
X1191610Y-1930174D02*
X1201134Y-1949222D01*
X1201134Y-1949222D02*
X1201134Y-2053984D01*
X1201134Y-1949222D02*
X1210658Y-1930174D01*
X1210658Y-1930174D02*
X1229705Y-1920650D01*
X1229705Y-1920650D02*
X1258277Y-1920650D01*
X1258277Y-1920650D02*
X1277325Y-1930174D01*
X1277325Y-1930174D02*
X1286848Y-1949222D01*
X1286848Y-1949222D02*
X1286848Y-2053984D01*
X1382086Y-2053984D02*
X1382086Y-1920650D01*
X1382086Y-1939698D02*
X1391610Y-1930174D01*
X1391610Y-1930174D02*
X1410658Y-1920650D01*
X1410658Y-1920650D02*
X1439229Y-1920650D01*
X1439229Y-1920650D02*
X1458277Y-1930174D01*
X1458277Y-1930174D02*
X1467801Y-1949222D01*
X1467801Y-1949222D02*
X1467801Y-2053984D01*
X1467801Y-1949222D02*
X1477324Y-1930174D01*
X1477324Y-1930174D02*
X1496372Y-1920650D01*
X1496372Y-1920650D02*
X1524943Y-1920650D01*
X1524943Y-1920650D02*
X1543991Y-1930174D01*
X1543991Y-1930174D02*
X1553515Y-1949222D01*
X1553515Y-1949222D02*
X1553515Y-2053984D01*
X1943991Y-1844460D02*
X1772563Y-2101603D01*
X2201134Y-1853984D02*
X2220182Y-1853984D01*
X2220182Y-1853984D02*
X2239229Y-1863508D01*
X2239229Y-1863508D02*
X2248753Y-1873031D01*
X2248753Y-1873031D02*
X2258277Y-1892079D01*
X2258277Y-1892079D02*
X2267801Y-1930174D01*
X2267801Y-1930174D02*
X2267801Y-1977793D01*
X2267801Y-1977793D02*
X2258277Y-2015888D01*
X2258277Y-2015888D02*
X2248753Y-2034936D01*
X2248753Y-2034936D02*
X2239229Y-2044460D01*
X2239229Y-2044460D02*
X2220182Y-2053984D01*
X2220182Y-2053984D02*
X2201134Y-2053984D01*
X2201134Y-2053984D02*
X2182087Y-2044460D01*
X2182087Y-2044460D02*
X2172563Y-2034936D01*
X2172563Y-2034936D02*
X2163039Y-2015888D01*
X2163039Y-2015888D02*
X2153515Y-1977793D01*
X2153515Y-1977793D02*
X2153515Y-1930174D01*
X2153515Y-1930174D02*
X2163039Y-1892079D01*
X2163039Y-1892079D02*
X2172563Y-1873031D01*
X2172563Y-1873031D02*
X2182087Y-1863508D01*
X2182087Y-1863508D02*
X2201134Y-1853984D01*
X2353515Y-2034936D02*
X2363039Y-2044460D01*
X2363039Y-2044460D02*
X2353515Y-2053984D01*
X2353515Y-2053984D02*
X2343991Y-2044460D01*
X2343991Y-2044460D02*
X2353515Y-2034936D01*
X2353515Y-2034936D02*
X2353515Y-2053984D01*
X2486848Y-1853984D02*
X2505896Y-1853984D01*
X2505896Y-1853984D02*
X2524944Y-1863508D01*
X2524944Y-1863508D02*
X2534468Y-1873031D01*
X2534468Y-1873031D02*
X2543991Y-1892079D01*
X2543991Y-1892079D02*
X2553515Y-1930174D01*
X2553515Y-1930174D02*
X2553515Y-1977793D01*
X2553515Y-1977793D02*
X2543991Y-2015888D01*
X2543991Y-2015888D02*
X2534468Y-2034936D01*
X2534468Y-2034936D02*
X2524944Y-2044460D01*
X2524944Y-2044460D02*
X2505896Y-2053984D01*
X2505896Y-2053984D02*
X2486848Y-2053984D01*
X2486848Y-2053984D02*
X2467801Y-2044460D01*
X2467801Y-2044460D02*
X2458277Y-2034936D01*
X2458277Y-2034936D02*
X2448753Y-2015888D01*
X2448753Y-2015888D02*
X2439229Y-1977793D01*
X2439229Y-1977793D02*
X2439229Y-1930174D01*
X2439229Y-1930174D02*
X2448753Y-1892079D01*
X2448753Y-1892079D02*
X2458277Y-1873031D01*
X2458277Y-1873031D02*
X2467801Y-1863508D01*
X2467801Y-1863508D02*
X2486848Y-1853984D01*
X2667801Y-1939698D02*
X2648753Y-1930174D01*
X2648753Y-1930174D02*
X2639229Y-1920650D01*
X2639229Y-1920650D02*
X2629706Y-1901603D01*
X2629706Y-1901603D02*
X2629706Y-1892079D01*
X2629706Y-1892079D02*
X2639229Y-1873031D01*
X2639229Y-1873031D02*
X2648753Y-1863508D01*
X2648753Y-1863508D02*
X2667801Y-1853984D01*
X2667801Y-1853984D02*
X2705896Y-1853984D01*
X2705896Y-1853984D02*
X2724944Y-1863508D01*
X2724944Y-1863508D02*
X2734468Y-1873031D01*
X2734468Y-1873031D02*
X2743991Y-1892079D01*
X2743991Y-1892079D02*
X2743991Y-1901603D01*
X2743991Y-1901603D02*
X2734468Y-1920650D01*
X2734468Y-1920650D02*
X2724944Y-1930174D01*
X2724944Y-1930174D02*
X2705896Y-1939698D01*
X2705896Y-1939698D02*
X2667801Y-1939698D01*
X2667801Y-1939698D02*
X2648753Y-1949222D01*
X2648753Y-1949222D02*
X2639229Y-1958746D01*
X2639229Y-1958746D02*
X2629706Y-1977793D01*
X2629706Y-1977793D02*
X2629706Y-2015888D01*
X2629706Y-2015888D02*
X2639229Y-2034936D01*
X2639229Y-2034936D02*
X2648753Y-2044460D01*
X2648753Y-2044460D02*
X2667801Y-2053984D01*
X2667801Y-2053984D02*
X2705896Y-2053984D01*
X2705896Y-2053984D02*
X2724944Y-2044460D01*
X2724944Y-2044460D02*
X2734468Y-2034936D01*
X2734468Y-2034936D02*
X2743991Y-2015888D01*
X2743991Y-2015888D02*
X2743991Y-1977793D01*
X2743991Y-1977793D02*
X2734468Y-1958746D01*
X2734468Y-1958746D02*
X2724944Y-1949222D01*
X2724944Y-1949222D02*
X2705896Y-1939698D01*
X2915420Y-1853984D02*
X2877325Y-1853984D01*
X2877325Y-1853984D02*
X2858277Y-1863508D01*
X2858277Y-1863508D02*
X2848753Y-1873031D01*
X2848753Y-1873031D02*
X2829706Y-1901603D01*
X2829706Y-1901603D02*
X2820182Y-1939698D01*
X2820182Y-1939698D02*
X2820182Y-2015888D01*
X2820182Y-2015888D02*
X2829706Y-2034936D01*
X2829706Y-2034936D02*
X2839229Y-2044460D01*
X2839229Y-2044460D02*
X2858277Y-2053984D01*
X2858277Y-2053984D02*
X2896372Y-2053984D01*
X2896372Y-2053984D02*
X2915420Y-2044460D01*
X2915420Y-2044460D02*
X2924944Y-2034936D01*
X2924944Y-2034936D02*
X2934467Y-2015888D01*
X2934467Y-2015888D02*
X2934467Y-1968269D01*
X2934467Y-1968269D02*
X2924944Y-1949222D01*
X2924944Y-1949222D02*
X2915420Y-1939698D01*
X2915420Y-1939698D02*
X2896372Y-1930174D01*
X2896372Y-1930174D02*
X2858277Y-1930174D01*
X2858277Y-1930174D02*
X2839229Y-1939698D01*
X2839229Y-1939698D02*
X2829706Y-1949222D01*
X2829706Y-1949222D02*
X2820182Y-1968269D01*
X3105896Y-1853984D02*
X3067801Y-1853984D01*
X3067801Y-1853984D02*
X3048753Y-1863508D01*
X3048753Y-1863508D02*
X3039229Y-1873031D01*
X3039229Y-1873031D02*
X3020182Y-1901603D01*
X3020182Y-1901603D02*
X3010658Y-1939698D01*
X3010658Y-1939698D02*
X3010658Y-2015888D01*
X3010658Y-2015888D02*
X3020182Y-2034936D01*
X3020182Y-2034936D02*
X3029706Y-2044460D01*
X3029706Y-2044460D02*
X3048753Y-2053984D01*
X3048753Y-2053984D02*
X3086848Y-2053984D01*
X3086848Y-2053984D02*
X3105896Y-2044460D01*
X3105896Y-2044460D02*
X3115420Y-2034936D01*
X3115420Y-2034936D02*
X3124944Y-2015888D01*
X3124944Y-2015888D02*
X3124944Y-1968269D01*
X3124944Y-1968269D02*
X3115420Y-1949222D01*
X3115420Y-1949222D02*
X3105896Y-1939698D01*
X3105896Y-1939698D02*
X3086848Y-1930174D01*
X3086848Y-1930174D02*
X3048753Y-1930174D01*
X3048753Y-1930174D02*
X3029706Y-1939698D01*
X3029706Y-1939698D02*
X3020182Y-1949222D01*
X3020182Y-1949222D02*
X3010658Y-1968269D01*
X3201134Y-1853984D02*
X3201134Y-1892079D01*
X3277325Y-1853984D02*
X3277325Y-1892079D01*
X3572563Y-2130174D02*
X3563039Y-2120650D01*
X3563039Y-2120650D02*
X3543991Y-2092079D01*
X3543991Y-2092079D02*
X3534468Y-2073031D01*
X3534468Y-2073031D02*
X3524944Y-2044460D01*
X3524944Y-2044460D02*
X3515420Y-1996841D01*
X3515420Y-1996841D02*
X3515420Y-1958746D01*
X3515420Y-1958746D02*
X3524944Y-1911127D01*
X3524944Y-1911127D02*
X3534468Y-1882555D01*
X3534468Y-1882555D02*
X3543991Y-1863508D01*
X3543991Y-1863508D02*
X3563039Y-1834936D01*
X3563039Y-1834936D02*
X3572563Y-1825412D01*
X3734468Y-1920650D02*
X3734468Y-2053984D01*
X3686848Y-1844460D02*
X3639229Y-1987317D01*
X3639229Y-1987317D02*
X3763039Y-1987317D01*
X3991610Y-2053984D02*
X3991610Y-1853984D01*
X4077325Y-2053984D02*
X4077325Y-1949222D01*
X4077325Y-1949222D02*
X4067801Y-1930174D01*
X4067801Y-1930174D02*
X4048753Y-1920650D01*
X4048753Y-1920650D02*
X4020182Y-1920650D01*
X4020182Y-1920650D02*
X4001134Y-1930174D01*
X4001134Y-1930174D02*
X3991610Y-1939698D01*
X4201134Y-2053984D02*
X4182087Y-2044460D01*
X4182087Y-2044460D02*
X4172563Y-2034936D01*
X4172563Y-2034936D02*
X4163039Y-2015888D01*
X4163039Y-2015888D02*
X4163039Y-1958746D01*
X4163039Y-1958746D02*
X4172563Y-1939698D01*
X4172563Y-1939698D02*
X4182087Y-1930174D01*
X4182087Y-1930174D02*
X4201134Y-1920650D01*
X4201134Y-1920650D02*
X4229706Y-1920650D01*
X4229706Y-1920650D02*
X4248753Y-1930174D01*
X4248753Y-1930174D02*
X4258277Y-1939698D01*
X4258277Y-1939698D02*
X4267801Y-1958746D01*
X4267801Y-1958746D02*
X4267801Y-2015888D01*
X4267801Y-2015888D02*
X4258277Y-2034936D01*
X4258277Y-2034936D02*
X4248753Y-2044460D01*
X4248753Y-2044460D02*
X4229706Y-2053984D01*
X4229706Y-2053984D02*
X4201134Y-2053984D01*
X4382087Y-2053984D02*
X4363039Y-2044460D01*
X4363039Y-2044460D02*
X4353515Y-2025412D01*
X4353515Y-2025412D02*
X4353515Y-1853984D01*
X4534468Y-2044460D02*
X4515420Y-2053984D01*
X4515420Y-2053984D02*
X4477325Y-2053984D01*
X4477325Y-2053984D02*
X4458277Y-2044460D01*
X4458277Y-2044460D02*
X4448753Y-2025412D01*
X4448753Y-2025412D02*
X4448753Y-1949222D01*
X4448753Y-1949222D02*
X4458277Y-1930174D01*
X4458277Y-1930174D02*
X4477325Y-1920650D01*
X4477325Y-1920650D02*
X4515420Y-1920650D01*
X4515420Y-1920650D02*
X4534468Y-1930174D01*
X4534468Y-1930174D02*
X4543992Y-1949222D01*
X4543992Y-1949222D02*
X4543992Y-1968269D01*
X4543992Y-1968269D02*
X4448753Y-1987317D01*
X4620182Y-2044460D02*
X4639230Y-2053984D01*
X4639230Y-2053984D02*
X4677325Y-2053984D01*
X4677325Y-2053984D02*
X4696373Y-2044460D01*
X4696373Y-2044460D02*
X4705896Y-2025412D01*
X4705896Y-2025412D02*
X4705896Y-2015888D01*
X4705896Y-2015888D02*
X4696373Y-1996841D01*
X4696373Y-1996841D02*
X4677325Y-1987317D01*
X4677325Y-1987317D02*
X4648753Y-1987317D01*
X4648753Y-1987317D02*
X4629706Y-1977793D01*
X4629706Y-1977793D02*
X4620182Y-1958746D01*
X4620182Y-1958746D02*
X4620182Y-1949222D01*
X4620182Y-1949222D02*
X4629706Y-1930174D01*
X4629706Y-1930174D02*
X4648753Y-1920650D01*
X4648753Y-1920650D02*
X4677325Y-1920650D01*
X4677325Y-1920650D02*
X4696373Y-1930174D01*
X4772563Y-2130174D02*
X4782087Y-2120650D01*
X4782087Y-2120650D02*
X4801134Y-2092079D01*
X4801134Y-2092079D02*
X4810658Y-2073031D01*
X4810658Y-2073031D02*
X4820182Y-2044460D01*
X4820182Y-2044460D02*
X4829706Y-1996841D01*
X4829706Y-1996841D02*
X4829706Y-1958746D01*
X4829706Y-1958746D02*
X4820182Y-1911127D01*
X4820182Y-1911127D02*
X4810658Y-1882555D01*
X4810658Y-1882555D02*
X4801134Y-1863508D01*
X4801134Y-1863508D02*
X4782087Y-1834936D01*
X4782087Y-1834936D02*
X4772563Y-1825412D01*
M02*
