M48
; DRILL file {KiCad 9.0.2} date 2026-09-16T01:00:39+0200
; FORMAT={-:-/ absolute / metric / decimal}
; #@! TF.CreationDate,2026-09-16T01:00:39+02:00
; #@! TF.GenerationSoftware,Kicad,Pcbnew,9.0.2
; #@! TF.FileFunction,Plated,1,4,PTH
FMAT,2
METRIC
; #@! TA.AperFunction,Plated,PTH,ViaDrill
T1C0.300
; #@! TA.AperFunction,Plated,PTH,ViaDrill
T2C0.400
; #@! TA.AperFunction,Plated,PTH,ComponentDrill
T3C0.400
; #@! TA.AperFunction,Plated,PTH,ComponentDrill
T4C0.500
; #@! TA.AperFunction,Plated,PTH,ComponentDrill
T5C0.600
; #@! TA.AperFunction,Plated,PTH,ComponentDrill
T6C2.200
%
G90
G05
T1
X11.4Y17.0
X12.15Y12.8
X16.7Y7.3
X16.75Y11.1
X21.5Y21.2
X24.0Y6.3
X24.0Y4.5
X24.0Y2.7
X25.3Y11.625
X25.5Y13.1
X26.625Y25.85
X27.0Y13.8
X27.45Y16.5
X27.5Y19.79
X27.95Y26.85
X28.0Y10.911
X28.4Y19.9
X28.5Y16.545
X28.5Y13.8
X29.2Y27.65
X29.36Y24.75
X29.41Y23.5
X29.485Y12.6
X30.475Y27.65
X30.5Y9.7
X31.346Y20.564
X31.346Y18.024
X31.346Y15.992
X31.8Y9.695
X32.362Y19.802
X32.362Y16.754
X32.65Y12.61
X33.2Y6.2
X33.632Y20.564
X33.632Y15.992
X34.648Y19.802
X34.648Y16.754
X34.85Y7.05
X35.0Y12.2
X35.664Y20.564
X35.664Y18.024
X35.664Y15.992
X35.95Y12.31
X36.25Y25.1
X36.3Y24.1
X37.49Y4.55
X37.7Y22.5
X38.4Y15.8
X38.99Y20.3
X38.995Y21.2
X39.4Y17.7
X39.65Y26.2
X40.75Y17.66
X44.25Y17.71
X49.3Y16.65
X49.5Y22.35
X50.75Y22.35
X50.8Y16.65
X52.05Y22.35
X52.1Y16.6
T2
X1.0Y28.0
X1.0Y25.0
X1.0Y19.0
X1.0Y16.0
X1.0Y10.0
X1.0Y6.0
X1.0Y3.0
X3.0Y30.0
X4.0Y1.0
X7.0Y30.0
X7.0Y28.0
X7.0Y1.0
X8.0Y9.0
X9.0Y25.0
X9.0Y13.0
X10.0Y30.0
X10.0Y22.0
X10.0Y1.0
X11.0Y9.0
X15.0Y21.0
X16.0Y24.0
X17.0Y30.0
X17.0Y27.0
X17.0Y14.0
X18.0Y5.0
X18.0Y1.0
X20.0Y30.0
X20.0Y27.0
X20.0Y10.0
X21.0Y5.0
X21.0Y1.0
X23.0Y30.0
X23.0Y27.0
X23.0Y13.0
X25.0Y1.0
X26.0Y30.0
X29.0Y30.0
X29.0Y1.0
X30.0Y5.0
X32.0Y30.0
X32.0Y1.0
X35.0Y30.0
X35.0Y1.0
X38.0Y30.0
X38.0Y28.0
X38.0Y9.0
X38.0Y1.0
X41.0Y30.0
X41.0Y28.0
X41.0Y5.0
X41.0Y1.0
X42.0Y24.0
X42.0Y16.0
X42.0Y10.0
X44.0Y30.0
X44.0Y22.0
X44.0Y5.0
X44.0Y1.0
X45.0Y10.0
X46.0Y24.0
X46.0Y13.0
X46.887Y20.887
X46.9Y18.3
X47.0Y30.0
X47.0Y7.0
X47.0Y1.0
X50.0Y13.0
X50.0Y10.0
X53.0Y30.0
X53.0Y1.0
X54.0Y28.0
X54.0Y24.0
X54.0Y20.0
X54.0Y16.0
X54.0Y12.0
X54.0Y8.0
X54.0Y4.0
T3
X11.55Y27.85
X11.55Y2.95
X12.033Y29.017
X12.033Y26.683
X12.033Y4.117
X12.033Y1.783
X13.2Y29.5
X13.2Y26.2
X13.2Y4.6
X13.2Y1.3
X14.367Y29.017
X14.367Y26.683
X14.367Y4.117
X14.367Y1.783
X14.85Y27.85
X14.85Y2.95
X48.35Y2.95
X48.4Y27.85
X48.833Y4.117
X48.833Y1.783
X48.883Y29.017
X48.883Y26.683
X50.0Y4.6
X50.0Y1.3
X50.05Y29.5
X50.05Y26.2
X51.167Y4.117
X51.167Y1.783
X51.217Y29.017
X51.217Y26.683
X51.65Y2.95
X51.7Y27.85
T4
X5.7Y7.875
X5.7Y6.625
X5.7Y5.375
X5.7Y4.125
T6
X13.2Y27.85
X13.2Y2.95
X50.0Y2.95
X50.05Y27.85
T5
G00X2.4Y22.0
M15
G01X1.6Y22.0
M16
G05
G00X2.4Y13.36
M15
G01X1.6Y13.36
M16
G05
G00X6.73Y22.0
M15
G01X5.63Y22.0
M16
G05
G00X6.73Y13.36
M15
G01X5.63Y13.36
M16
G05
M30
