%TF.GenerationSoftware,KiCad,Pcbnew,9.0.2*%
%TF.CreationDate,2026-09-16T01:01:10+02:00*%
%TF.ProjectId,Stm32,53746d33-322e-46b6-9963-61645f706362,rev?*%
%TF.SameCoordinates,PX42c1d80PY4c4b400*%
%TF.FileFunction,Copper,L1,Top*%
%TF.FilePolarity,Positive*%
%FSLAX46Y46*%
G04 Gerber Fmt 4.6, Leading zero omitted, Abs format (unit mm)*
G04 Created by KiCad (PCBNEW 9.0.2) date 2026-09-16 01:01:10*
%MOMM*%
%LPD*%
G01*
G04 APERTURE LIST*
G04 Aperture macros list*
%AMRoundRect*
0 Rectangle with rounded corners*
0 $1 Rounding radius*
0 $2 $3 $4 $5 $6 $7 $8 $9 X,Y pos of 4 corners*
0 Add a 4 corners polygon primitive as box body*
4,1,4,$2,$3,$4,$5,$6,$7,$8,$9,$2,$3,0*
0 Add four circle primitives for the rounded corners*
1,1,$1+$1,$2,$3*
1,1,$1+$1,$4,$5*
1,1,$1+$1,$6,$7*
1,1,$1+$1,$8,$9*
0 Add four rect primitives between the rounded corners*
20,1,$1+$1,$2,$3,$4,$5,0*
20,1,$1+$1,$4,$5,$6,$7,0*
20,1,$1+$1,$6,$7,$8,$9,0*
20,1,$1+$1,$8,$9,$2,$3,0*%
G04 Aperture macros list end*
%TA.AperFunction,SMDPad,CuDef*%
%ADD10RoundRect,0.140000X0.140000X0.170000X-0.140000X0.170000X-0.140000X-0.170000X0.140000X-0.170000X0*%
%TD*%
%TA.AperFunction,SMDPad,CuDef*%
%ADD11RoundRect,0.150000X0.150000X0.400000X-0.150000X0.400000X-0.150000X-0.400000X0.150000X-0.400000X0*%
%TD*%
%TA.AperFunction,SMDPad,CuDef*%
%ADD12R,1.500000X1.500000*%
%TD*%
%TA.AperFunction,SMDPad,CuDef*%
%ADD13RoundRect,0.140000X0.170000X-0.140000X0.170000X0.140000X-0.170000X0.140000X-0.170000X-0.140000X0*%
%TD*%
%TA.AperFunction,SMDPad,CuDef*%
%ADD14RoundRect,0.150000X-0.425000X0.150000X-0.425000X-0.150000X0.425000X-0.150000X0.425000X0.150000X0*%
%TD*%
%TA.AperFunction,SMDPad,CuDef*%
%ADD15RoundRect,0.075000X-0.500000X0.075000X-0.500000X-0.075000X0.500000X-0.075000X0.500000X0.075000X0*%
%TD*%
%TA.AperFunction,HeatsinkPad*%
%ADD16O,2.100000X1.000000*%
%TD*%
%TA.AperFunction,HeatsinkPad*%
%ADD17O,1.800000X1.000000*%
%TD*%
%TA.AperFunction,ComponentPad*%
%ADD18C,0.700000*%
%TD*%
%TA.AperFunction,ComponentPad*%
%ADD19C,4.400000*%
%TD*%
%TA.AperFunction,SMDPad,CuDef*%
%ADD20RoundRect,0.200000X0.200000X-0.250000X0.200000X0.250000X-0.200000X0.250000X-0.200000X-0.250000X0*%
%TD*%
%TA.AperFunction,SMDPad,CuDef*%
%ADD21RoundRect,0.135000X0.135000X0.185000X-0.135000X0.185000X-0.135000X-0.185000X0.135000X-0.185000X0*%
%TD*%
%TA.AperFunction,SMDPad,CuDef*%
%ADD22RoundRect,0.135000X-0.185000X0.135000X-0.185000X-0.135000X0.185000X-0.135000X0.185000X0.135000X0*%
%TD*%
%TA.AperFunction,SMDPad,CuDef*%
%ADD23C,1.000000*%
%TD*%
%TA.AperFunction,SMDPad,CuDef*%
%ADD24RoundRect,0.140000X-0.170000X0.140000X-0.170000X-0.140000X0.170000X-0.140000X0.170000X0.140000X0*%
%TD*%
%TA.AperFunction,ConnectorPad*%
%ADD25C,0.787400*%
%TD*%
%TA.AperFunction,SMDPad,CuDef*%
%ADD26RoundRect,0.225000X0.225000X0.250000X-0.225000X0.250000X-0.225000X-0.250000X0.225000X-0.250000X0*%
%TD*%
%TA.AperFunction,ComponentPad*%
%ADD27RoundRect,0.200000X-0.450000X0.200000X-0.450000X-0.200000X0.450000X-0.200000X0.450000X0.200000X0*%
%TD*%
%TA.AperFunction,ComponentPad*%
%ADD28O,1.300000X0.800000*%
%TD*%
%TA.AperFunction,SMDPad,CuDef*%
%ADD29RoundRect,0.150000X-0.150000X0.512500X-0.150000X-0.512500X0.150000X-0.512500X0.150000X0.512500X0*%
%TD*%
%TA.AperFunction,SMDPad,CuDef*%
%ADD30RoundRect,0.218750X-0.218750X-0.381250X0.218750X-0.381250X0.218750X0.381250X-0.218750X0.381250X0*%
%TD*%
%TA.AperFunction,SMDPad,CuDef*%
%ADD31RoundRect,0.062500X0.062500X-0.375000X0.062500X0.375000X-0.062500X0.375000X-0.062500X-0.375000X0*%
%TD*%
%TA.AperFunction,SMDPad,CuDef*%
%ADD32RoundRect,0.062500X0.375000X-0.062500X0.375000X0.062500X-0.375000X0.062500X-0.375000X-0.062500X0*%
%TD*%
%TA.AperFunction,HeatsinkPad*%
%ADD33R,5.600000X5.600000*%
%TD*%
%TA.AperFunction,SMDPad,CuDef*%
%ADD34RoundRect,0.147500X0.172500X-0.147500X0.172500X0.147500X-0.172500X0.147500X-0.172500X-0.147500X0*%
%TD*%
%TA.AperFunction,SMDPad,CuDef*%
%ADD35RoundRect,0.135000X0.185000X-0.135000X0.185000X0.135000X-0.185000X0.135000X-0.185000X-0.135000X0*%
%TD*%
%TA.AperFunction,SMDPad,CuDef*%
%ADD36RoundRect,0.140000X-0.140000X-0.170000X0.140000X-0.170000X0.140000X0.170000X-0.140000X0.170000X0*%
%TD*%
%TA.AperFunction,SMDPad,CuDef*%
%ADD37RoundRect,0.150000X-0.512500X-0.150000X0.512500X-0.150000X0.512500X0.150000X-0.512500X0.150000X0*%
%TD*%
%TA.AperFunction,SMDPad,CuDef*%
%ADD38RoundRect,0.225000X-0.250000X0.225000X-0.250000X-0.225000X0.250000X-0.225000X0.250000X0.225000X0*%
%TD*%
%TA.AperFunction,SMDPad,CuDef*%
%ADD39RoundRect,0.250000X-0.275000X-0.250000X0.275000X-0.250000X0.275000X0.250000X-0.275000X0.250000X0*%
%TD*%
%TA.AperFunction,SMDPad,CuDef*%
%ADD40RoundRect,0.250000X-0.850000X-0.275000X0.850000X-0.275000X0.850000X0.275000X-0.850000X0.275000X0*%
%TD*%
%TA.AperFunction,SMDPad,CuDef*%
%ADD41RoundRect,0.068750X-0.068750X-0.281250X0.068750X-0.281250X0.068750X0.281250X-0.068750X0.281250X0*%
%TD*%
%TA.AperFunction,SMDPad,CuDef*%
%ADD42RoundRect,0.061250X-0.163750X-0.061250X0.163750X-0.061250X0.163750X0.061250X-0.163750X0.061250X0*%
%TD*%
%TA.AperFunction,SMDPad,CuDef*%
%ADD43RoundRect,0.225000X0.250000X-0.225000X0.250000X0.225000X-0.250000X0.225000X-0.250000X-0.225000X0*%
%TD*%
%TA.AperFunction,SMDPad,CuDef*%
%ADD44RoundRect,0.225000X-0.225000X-0.250000X0.225000X-0.250000X0.225000X0.250000X-0.225000X0.250000X0*%
%TD*%
%TA.AperFunction,SMDPad,CuDef*%
%ADD45RoundRect,0.135000X-0.135000X-0.185000X0.135000X-0.185000X0.135000X0.185000X-0.135000X0.185000X0*%
%TD*%
%TA.AperFunction,SMDPad,CuDef*%
%ADD46RoundRect,0.147500X-0.147500X-0.172500X0.147500X-0.172500X0.147500X0.172500X-0.147500X0.172500X0*%
%TD*%
%TA.AperFunction,ViaPad*%
%ADD47C,0.900000*%
%TD*%
%TA.AperFunction,ViaPad*%
%ADD48C,0.700000*%
%TD*%
%TA.AperFunction,ViaPad*%
%ADD49C,0.600000*%
%TD*%
%TA.AperFunction,Conductor*%
%ADD50C,0.500000*%
%TD*%
%TA.AperFunction,Conductor*%
%ADD51C,0.190000*%
%TD*%
%TA.AperFunction,Conductor*%
%ADD52C,0.250000*%
%TD*%
%TA.AperFunction,Conductor*%
%ADD53C,0.300000*%
%TD*%
%TA.AperFunction,Conductor*%
%ADD54C,0.200000*%
%TD*%
G04 APERTURE END LIST*
D10*
%TO.P,C4,1*%
%TO.N,+3V3*%
X28460000Y19000000D03*
%TO.P,C4,2*%
%TO.N,GND*%
X27500000Y19000000D03*
%TD*%
D11*
%TO.P,X1,1,1*%
%TO.N,/LSE_OUT*%
X32200000Y11050000D03*
%TO.P,X1,2,2*%
%TO.N,/LSE_IN*%
X30800000Y11050000D03*
%TD*%
D12*
%TO.P,SW1,1,1*%
%TO.N,Net-(R7-Pad2)*%
X33350000Y4500000D03*
%TO.P,SW1,2,2*%
%TO.N,+3V3*%
X25550000Y4500000D03*
%TD*%
D13*
%TO.P,C9,1*%
%TO.N,+3V3*%
X28500000Y14770000D03*
%TO.P,C9,2*%
%TO.N,GND*%
X28500000Y15730000D03*
%TD*%
D14*
%TO.P,J1,A1,GND*%
%TO.N,GND*%
X6755000Y20880000D03*
%TO.P,J1,A4,VBUS*%
%TO.N,+5V*%
X6755000Y20080000D03*
D15*
%TO.P,J1,A5,CC1*%
%TO.N,Net-(J1-CC1)*%
X6755000Y18930000D03*
%TO.P,J1,A6,D+*%
%TO.N,/USB_D+_CONN*%
X6755000Y17930000D03*
%TO.P,J1,A7,D-*%
%TO.N,/USB_D-_CONN*%
X6755000Y17430000D03*
%TO.P,J1,A8,SBU1*%
%TO.N,unconnected-(J1-SBU1-PadA8)*%
X6755000Y16430000D03*
D14*
%TO.P,J1,A9,VBUS*%
%TO.N,+5V*%
X6755000Y15280000D03*
%TO.P,J1,A12,GND*%
%TO.N,GND*%
X6755000Y14480000D03*
%TO.P,J1,B1,GND*%
X6755000Y14480000D03*
%TO.P,J1,B4,VBUS*%
%TO.N,+5V*%
X6755000Y15280000D03*
D15*
%TO.P,J1,B5,CC2*%
%TO.N,Net-(J1-CC2)*%
X6755000Y15930000D03*
%TO.P,J1,B6,D+*%
%TO.N,/USB_D+_CONN*%
X6755000Y16930000D03*
%TO.P,J1,B7,D-*%
%TO.N,/USB_D-_CONN*%
X6755000Y18430000D03*
%TO.P,J1,B8,SBU2*%
%TO.N,unconnected-(J1-SBU2-PadB8)*%
X6755000Y19430000D03*
D14*
%TO.P,J1,B9,VBUS*%
%TO.N,+5V*%
X6755000Y20080000D03*
%TO.P,J1,B12,GND*%
%TO.N,GND*%
X6755000Y20880000D03*
D16*
%TO.P,J1,S1,SHIELD*%
X6180000Y22000000D03*
D17*
X2000000Y22000000D03*
D16*
X6180000Y13360000D03*
D17*
X2000000Y13360000D03*
%TD*%
D18*
%TO.P,H1,1,1*%
%TO.N,GND*%
X11550000Y27850000D03*
X12033274Y29016726D03*
X12033274Y26683274D03*
X13200000Y29500000D03*
D19*
X13200000Y27850000D03*
D18*
X13200000Y26200000D03*
X14366726Y29016726D03*
X14366726Y26683274D03*
X14850000Y27850000D03*
%TD*%
D20*
%TO.P,X2,1,1*%
%TO.N,/HSE_OUT*%
X39250000Y23650000D03*
%TO.P,X2,2,2*%
%TO.N,GND*%
X39250000Y25050000D03*
%TO.P,X2,3,3*%
%TO.N,/HSE_IN*%
X38150000Y25050000D03*
%TO.P,X2,4,4*%
%TO.N,GND*%
X38150000Y23650000D03*
%TD*%
D21*
%TO.P,R2,1*%
%TO.N,Net-(J1-CC1)*%
X6500000Y23750000D03*
%TO.P,R2,2*%
%TO.N,GND*%
X5480000Y23750000D03*
%TD*%
D22*
%TO.P,R7,1*%
%TO.N,/Boot0*%
X35450000Y5510000D03*
%TO.P,R7,2*%
%TO.N,Net-(R7-Pad2)*%
X35450000Y4490000D03*
%TD*%
D10*
%TO.P,C7,1*%
%TO.N,+3V3*%
X31110000Y24750000D03*
%TO.P,C7,2*%
%TO.N,GND*%
X30150000Y24750000D03*
%TD*%
D23*
%TO.P,FM1,*%
%TO.N,*%
X2600000Y27550000D03*
%TD*%
%TO.P,FM2,*%
%TO.N,*%
X45700000Y27550000D03*
%TD*%
D24*
%TO.P,C19,1*%
%TO.N,/Boot0*%
X36700000Y5480000D03*
%TO.P,C19,2*%
%TO.N,GND*%
X36700000Y4520000D03*
%TD*%
%TO.P,C15,1*%
%TO.N,/RF*%
X40750000Y19460000D03*
%TO.P,C15,2*%
%TO.N,GND*%
X40750000Y18500000D03*
%TD*%
D21*
%TO.P,R1,1*%
%TO.N,Net-(J1-CC2)*%
X6250000Y11000000D03*
%TO.P,R1,2*%
%TO.N,GND*%
X5230000Y11000000D03*
%TD*%
D18*
%TO.P,H3,1,1*%
%TO.N,GND*%
X48400000Y27850000D03*
X48883274Y29016726D03*
X48883274Y26683274D03*
X50050000Y29500000D03*
D19*
X50050000Y27850000D03*
D18*
X50050000Y26200000D03*
X51216726Y29016726D03*
X51216726Y26683274D03*
X51700000Y27850000D03*
%TD*%
D25*
%TO.P,J3,1,VCC*%
%TO.N,+3V3*%
X21825000Y18905000D03*
%TO.P,J3,2,SWDIO*%
%TO.N,/SWD_DIO*%
X23095000Y18905000D03*
%TO.P,J3,3,~{RESET}*%
%TO.N,/SWD_NRST*%
X21825000Y17635000D03*
%TO.P,J3,4,SWCLK*%
%TO.N,/SWD_CLK*%
X23095000Y17635000D03*
%TO.P,J3,5,GND*%
%TO.N,GND*%
X21825000Y16365000D03*
%TO.P,J3,6,SWO*%
%TO.N,/SWD_TRC*%
X23095000Y16365000D03*
%TD*%
D10*
%TO.P,C18,1*%
%TO.N,/LSE_IN*%
X30460000Y13400000D03*
%TO.P,C18,2*%
%TO.N,GND*%
X29500000Y13400000D03*
%TD*%
D18*
%TO.P,H4,1,1*%
%TO.N,GND*%
X48350000Y2950000D03*
X48833274Y4116726D03*
X48833274Y1783274D03*
X50000000Y4600000D03*
D19*
X50000000Y2950000D03*
D18*
X50000000Y1300000D03*
X51166726Y4116726D03*
X51166726Y1783274D03*
X51650000Y2950000D03*
%TD*%
D26*
%TO.P,C1,1*%
%TO.N,+5V*%
X14800000Y12750000D03*
%TO.P,C1,2*%
%TO.N,GND*%
X13250000Y12750000D03*
%TD*%
D27*
%TO.P,J2,1,Pin_1*%
%TO.N,+3V3*%
X5700000Y7875000D03*
D28*
%TO.P,J2,2,Pin_2*%
%TO.N,/UART_TXC*%
X5700000Y6625000D03*
%TO.P,J2,3,Pin_3*%
%TO.N,/UART_RXC*%
X5700000Y5375000D03*
%TO.P,J2,4,Pin_4*%
%TO.N,GND*%
X5700000Y4125000D03*
%TD*%
D29*
%TO.P,U3,1,VIN*%
%TO.N,+5V*%
X14900000Y10775000D03*
%TO.P,U3,2,GND*%
%TO.N,GND*%
X13950000Y10775000D03*
%TO.P,U3,3,EN*%
%TO.N,+5V*%
X13000000Y10775000D03*
%TO.P,U3,4,NC*%
%TO.N,unconnected-(U3-NC-Pad4)*%
X13000000Y8500000D03*
%TO.P,U3,5,VOUT*%
%TO.N,+3V3*%
X14900000Y8500000D03*
%TD*%
D30*
%TO.P,L2,1,1*%
%TO.N,/SMPSLXL*%
X32275000Y26500000D03*
%TO.P,L2,2,2*%
%TO.N,/SMPSFB*%
X34400000Y26500000D03*
%TD*%
D31*
%TO.P,U1,1,VBAT*%
%TO.N,+3V3*%
X30687500Y14812500D03*
%TO.P,U1,2,PC14*%
%TO.N,/LSE_IN*%
X31187500Y14812500D03*
%TO.P,U1,3,PC15*%
%TO.N,/LSE_OUT*%
X31687500Y14812500D03*
%TO.P,U1,4,PH3*%
%TO.N,/Boot0*%
X32187500Y14812500D03*
%TO.P,U1,5,PB8*%
%TO.N,unconnected-(U1-PB8-Pad5)*%
X32687500Y14812500D03*
%TO.P,U1,6,PB9*%
%TO.N,unconnected-(U1-PB9-Pad6)*%
X33187500Y14812500D03*
%TO.P,U1,7,NRST*%
%TO.N,/SWD_NRST*%
X33687500Y14812500D03*
%TO.P,U1,8,VDDA*%
%TO.N,+3V3*%
X34187500Y14812500D03*
%TO.P,U1,9,PA0*%
%TO.N,unconnected-(U1-PA0-Pad9)*%
X34687500Y14812500D03*
%TO.P,U1,10,PA1*%
%TO.N,unconnected-(U1-PA1-Pad10)*%
X35187500Y14812500D03*
%TO.P,U1,11,PA2*%
%TO.N,/UART_TX*%
X35687500Y14812500D03*
%TO.P,U1,12,PA3*%
%TO.N,/UART_RX*%
X36187500Y14812500D03*
D32*
%TO.P,U1,13,PA4*%
%TO.N,unconnected-(U1-PA4-Pad13)*%
X36875000Y15500000D03*
%TO.P,U1,14,PA5*%
%TO.N,unconnected-(U1-PA5-Pad14)*%
X36875000Y16000000D03*
%TO.P,U1,15,PA6*%
%TO.N,unconnected-(U1-PA6-Pad15)*%
X36875000Y16500000D03*
%TO.P,U1,16,PA7*%
%TO.N,/LED_A*%
X36875000Y17000000D03*
%TO.P,U1,17,PA8*%
%TO.N,unconnected-(U1-PA8-Pad17)*%
X36875000Y17500000D03*
%TO.P,U1,18,PA9*%
%TO.N,unconnected-(U1-PA9-Pad18)*%
X36875000Y18000000D03*
%TO.P,U1,19,PB2*%
%TO.N,unconnected-(U1-PB2-Pad19)*%
X36875000Y18500000D03*
%TO.P,U1,20,VDD*%
%TO.N,+3V3*%
X36875000Y19000000D03*
%TO.P,U1,21,RF1*%
%TO.N,/RF*%
X36875000Y19500000D03*
%TO.P,U1,22,VSSRF*%
%TO.N,GND*%
X36875000Y20000000D03*
%TO.P,U1,23,VDDRF*%
%TO.N,+3V3*%
X36875000Y20500000D03*
%TO.P,U1,24,OSC_OUT*%
%TO.N,/HSE_OUT*%
X36875000Y21000000D03*
D31*
%TO.P,U1,25,OSC_IN*%
%TO.N,/HSE_IN*%
X36187500Y21687500D03*
%TO.P,U1,26,AT0*%
%TO.N,unconnected-(U1-AT0-Pad26)*%
X35687500Y21687500D03*
%TO.P,U1,27,AT1*%
%TO.N,unconnected-(U1-AT1-Pad27)*%
X35187500Y21687500D03*
%TO.P,U1,28,PB0*%
%TO.N,unconnected-(U1-PB0-Pad28)*%
X34687500Y21687500D03*
%TO.P,U1,29,PB1*%
%TO.N,unconnected-(U1-PB1-Pad29)*%
X34187500Y21687500D03*
%TO.P,U1,30,PE4*%
%TO.N,unconnected-(U1-PE4-Pad30)*%
X33687500Y21687500D03*
%TO.P,U1,31,VFBSMPS*%
%TO.N,/SMPSFB*%
X33187500Y21687500D03*
%TO.P,U1,32,VSSSMPS*%
%TO.N,GND*%
X32687500Y21687500D03*
%TO.P,U1,33,VLXSMPS*%
%TO.N,/SMPSLX*%
X32187500Y21687500D03*
%TO.P,U1,34,VDDSMPS*%
%TO.N,+3V3*%
X31687500Y21687500D03*
%TO.P,U1,35,VDD*%
X31187500Y21687500D03*
%TO.P,U1,36,PA10*%
%TO.N,unconnected-(U1-PA10-Pad36)*%
X30687500Y21687500D03*
D32*
%TO.P,U1,37,PA11*%
%TO.N,/USB_D-*%
X30000000Y21000000D03*
%TO.P,U1,38,PA12*%
%TO.N,/USB_D+*%
X30000000Y20500000D03*
%TO.P,U1,39,PA13*%
%TO.N,/SWD_DIO*%
X30000000Y20000000D03*
%TO.P,U1,40,VDDUSB*%
%TO.N,+3V3*%
X30000000Y19500000D03*
%TO.P,U1,41,PA14*%
%TO.N,/SWD_CLK*%
X30000000Y19000000D03*
%TO.P,U1,42,PA15*%
%TO.N,unconnected-(U1-PA15-Pad42)*%
X30000000Y18500000D03*
%TO.P,U1,43,PB3*%
%TO.N,/SWD_TRC*%
X30000000Y18000000D03*
%TO.P,U1,44,PB4*%
%TO.N,unconnected-(U1-PB4-Pad44)*%
X30000000Y17500000D03*
%TO.P,U1,45,PB5*%
%TO.N,unconnected-(U1-PB5-Pad45)*%
X30000000Y17000000D03*
%TO.P,U1,46,PB6*%
%TO.N,unconnected-(U1-PB6-Pad46)*%
X30000000Y16500000D03*
%TO.P,U1,47,PB7*%
%TO.N,unconnected-(U1-PB7-Pad47)*%
X30000000Y16000000D03*
%TO.P,U1,48,VDD*%
%TO.N,+3V3*%
X30000000Y15500000D03*
D33*
%TO.P,U1,49,VSS*%
%TO.N,GND*%
X33437500Y18250000D03*
%TD*%
D34*
%TO.P,D1,1,K*%
%TO.N,/LED_K*%
X40450000Y12130000D03*
%TO.P,D1,2,A*%
%TO.N,/LED_A*%
X40450000Y13100000D03*
%TD*%
%TO.P,L1,1,1*%
%TO.N,/SMPSLX*%
X32200000Y23600000D03*
%TO.P,L1,2,2*%
%TO.N,/SMPSLXL*%
X32200000Y24570000D03*
%TD*%
D35*
%TO.P,R3,1*%
%TO.N,/UART_TXC*%
X37450000Y12120000D03*
%TO.P,R3,2*%
%TO.N,/UART_TX*%
X37450000Y13140000D03*
%TD*%
D10*
%TO.P,C11,1*%
%TO.N,+3V3*%
X31150000Y23500000D03*
%TO.P,C11,2*%
%TO.N,GND*%
X30190000Y23500000D03*
%TD*%
D36*
%TO.P,C17,1*%
%TO.N,/LSE_OUT*%
X31700000Y13400000D03*
%TO.P,C17,2*%
%TO.N,GND*%
X32660000Y13400000D03*
%TD*%
D26*
%TO.P,C10,1*%
%TO.N,+3V3*%
X30600000Y26300000D03*
%TO.P,C10,2*%
%TO.N,GND*%
X29050000Y26300000D03*
%TD*%
D24*
%TO.P,C12,1*%
%TO.N,+3V3*%
X38250000Y21250000D03*
%TO.P,C12,2*%
%TO.N,GND*%
X38250000Y20290000D03*
%TD*%
D37*
%TO.P,U2,1,I/O1*%
%TO.N,/USB_D-_CONN*%
X12725000Y17950000D03*
%TO.P,U2,2,GND*%
%TO.N,GND*%
X12725000Y17000000D03*
%TO.P,U2,3,I/O2*%
%TO.N,/USB_D+_CONN*%
X12725000Y16050000D03*
%TO.P,U2,4,I/O2*%
%TO.N,/USB_D+*%
X15000000Y16050000D03*
%TO.P,U2,5,VBUS*%
%TO.N,+5V*%
X15000000Y17000000D03*
%TO.P,U2,6,I/O1*%
%TO.N,/USB_D-*%
X15000000Y17950000D03*
%TD*%
D38*
%TO.P,C3,1*%
%TO.N,+3V3*%
X26600000Y12150000D03*
%TO.P,C3,2*%
%TO.N,GND*%
X26600000Y10600000D03*
%TD*%
D13*
%TO.P,C6,1*%
%TO.N,+3V3*%
X27450000Y14750000D03*
%TO.P,C6,2*%
%TO.N,GND*%
X27450000Y15710000D03*
%TD*%
D35*
%TO.P,R4,1*%
%TO.N,/UART_RXC*%
X38950000Y12100000D03*
%TO.P,R4,2*%
%TO.N,/UART_RX*%
X38950000Y13120000D03*
%TD*%
D39*
%TO.P,J4,1,In*%
%TO.N,/RF_Antenna*%
X49175000Y19500000D03*
D40*
%TO.P,J4,2,Ext*%
%TO.N,GND*%
X50700000Y20975000D03*
X50700000Y18025000D03*
%TD*%
D18*
%TO.P,H2,1,1*%
%TO.N,GND*%
X11550000Y2950000D03*
X12033274Y4116726D03*
X12033274Y1783274D03*
X13200000Y4600000D03*
D19*
X13200000Y2950000D03*
D18*
X13200000Y1300000D03*
X14366726Y4116726D03*
X14366726Y1783274D03*
X14850000Y2950000D03*
%TD*%
D41*
%TO.P,FLT1,1,IN*%
%TO.N,/RF_Match*%
X46275500Y19500000D03*
D42*
%TO.P,FLT1,2,GND*%
%TO.N,GND*%
X46887500Y19272500D03*
D41*
%TO.P,FLT1,3,OUT*%
%TO.N,/RF_Antenna*%
X47500000Y19500000D03*
D42*
%TO.P,FLT1,4,GND*%
%TO.N,GND*%
X46887500Y19727500D03*
%TD*%
D22*
%TO.P,R5,1*%
%TO.N,GND*%
X41700000Y13120000D03*
%TO.P,R5,2*%
%TO.N,/LED_K*%
X41700000Y12100000D03*
%TD*%
D43*
%TO.P,C2,1*%
%TO.N,+3V3*%
X16750000Y8450000D03*
%TO.P,C2,2*%
%TO.N,GND*%
X16750000Y10000000D03*
%TD*%
D44*
%TO.P,C14,1*%
%TO.N,/SMPSFB*%
X33625000Y24200000D03*
%TO.P,C14,2*%
%TO.N,GND*%
X35175000Y24200000D03*
%TD*%
D24*
%TO.P,C8,1*%
%TO.N,+3V3*%
X38400000Y17670000D03*
%TO.P,C8,2*%
%TO.N,GND*%
X38400000Y16710000D03*
%TD*%
D13*
%TO.P,C13,1*%
%TO.N,/SWD_NRST*%
X28000000Y9100000D03*
%TO.P,C13,2*%
%TO.N,GND*%
X28000000Y10060000D03*
%TD*%
D23*
%TO.P,FM3,*%
%TO.N,*%
X45700000Y2300000D03*
%TD*%
D36*
%TO.P,C5,1*%
%TO.N,+3V3*%
X34990000Y13100000D03*
%TO.P,C5,2*%
%TO.N,GND*%
X35950000Y13100000D03*
%TD*%
D24*
%TO.P,C16,1*%
%TO.N,/RF_Match*%
X44250000Y19500000D03*
%TO.P,C16,2*%
%TO.N,GND*%
X44250000Y18540000D03*
%TD*%
D45*
%TO.P,R6,1*%
%TO.N,/Boot0*%
X35950000Y7050000D03*
%TO.P,R6,2*%
%TO.N,GND*%
X36970000Y7050000D03*
%TD*%
D46*
%TO.P,L3,1,1*%
%TO.N,/RF*%
X42030000Y19500000D03*
%TO.P,L3,2,2*%
%TO.N,/RF_Match*%
X43000000Y19500000D03*
%TD*%
D47*
%TO.N,GND*%
X54000000Y4000000D03*
X46887500Y20887500D03*
X29000000Y1000000D03*
X42000000Y10000000D03*
X17000000Y30000000D03*
D48*
X49300000Y16650000D03*
X29360000Y24750000D03*
X26625000Y25850000D03*
D47*
X23000000Y27000000D03*
D48*
X34648000Y19802000D03*
D47*
X30000000Y5000000D03*
X21000000Y5000000D03*
D48*
X50750000Y22350000D03*
X35664000Y15992000D03*
D47*
X50000000Y10000000D03*
D48*
X33632000Y20564000D03*
X33632000Y15992000D03*
D47*
X41000000Y5000000D03*
X29000000Y30000000D03*
D49*
X33200000Y6200000D03*
D47*
X38000000Y30000000D03*
D48*
X36300000Y24100000D03*
D47*
X20000000Y27000000D03*
X9000000Y13000000D03*
X54000000Y28000000D03*
X16000000Y24000000D03*
X53000000Y30000000D03*
D48*
X29485000Y12600000D03*
X28500000Y16545000D03*
X38990000Y20300000D03*
D47*
X35000000Y1000000D03*
D48*
X35664000Y18024000D03*
D47*
X47000000Y7000000D03*
X1000000Y16000000D03*
X41000000Y28000000D03*
X18000000Y1000000D03*
D48*
X29410000Y23500000D03*
D47*
X9000000Y25000000D03*
X42000000Y24000000D03*
X8000000Y9000000D03*
D48*
X35664000Y20564000D03*
D47*
X4000000Y1000000D03*
X41000000Y30000000D03*
X44000000Y30000000D03*
X44000000Y22000000D03*
X1000000Y25000000D03*
X46900000Y18300000D03*
X17000000Y14000000D03*
D48*
X40750000Y17660000D03*
X28000000Y10911001D03*
D47*
X21000000Y1000000D03*
X10000000Y22000000D03*
D48*
X39650000Y26200000D03*
D47*
X47000000Y30000000D03*
X38000000Y28000000D03*
D48*
X32362000Y19802000D03*
D47*
X32000000Y30000000D03*
X26000000Y30000000D03*
X44000000Y5000000D03*
X54000000Y16000000D03*
D48*
X52050000Y22350000D03*
D47*
X41000000Y1000000D03*
X17000000Y27000000D03*
D48*
X31346000Y15992000D03*
D47*
X1000000Y6000000D03*
X1000000Y3000000D03*
X47000000Y1000000D03*
X18000000Y5000000D03*
X46000000Y24000000D03*
X20000000Y10000000D03*
X54000000Y24000000D03*
D48*
X36250000Y25100000D03*
X52100000Y16600000D03*
X32650000Y12610000D03*
D47*
X54000000Y12000000D03*
X1000000Y28000000D03*
X7000000Y1000000D03*
D48*
X50800000Y16650000D03*
D47*
X38000000Y1000000D03*
D48*
X34648000Y16754000D03*
D47*
X50000000Y13000000D03*
D48*
X37490000Y4550000D03*
D47*
X23000000Y30000000D03*
X54000000Y8000000D03*
D48*
X49500000Y22350000D03*
X12150000Y12800000D03*
X35950000Y12310000D03*
D47*
X35000000Y30000000D03*
X44000000Y1000000D03*
D48*
X44250000Y17710000D03*
D49*
X30500000Y9700000D03*
D47*
X54000000Y20000000D03*
X53000000Y1000000D03*
X32000000Y1000000D03*
D48*
X27950000Y26850000D03*
D47*
X7000000Y30000000D03*
X1000000Y10000000D03*
X10000000Y30000000D03*
D48*
X38400000Y15800000D03*
D47*
X38000000Y9000000D03*
X23000000Y13000000D03*
X11000000Y9000000D03*
D48*
X32362000Y16754000D03*
D47*
X10000000Y1000000D03*
X42000000Y16000000D03*
X46000000Y13000000D03*
D48*
X27450000Y16500000D03*
X16750000Y11100000D03*
D47*
X1000000Y19000000D03*
X25000000Y1000000D03*
X20000000Y30000000D03*
D48*
X11400000Y17000000D03*
X27500000Y19790000D03*
X31346000Y20564000D03*
D47*
X15000000Y21000000D03*
X3000000Y30000000D03*
D48*
X31346000Y18024000D03*
D47*
X7000000Y28000000D03*
D48*
X37700000Y22500000D03*
D47*
X45000000Y10000000D03*
D48*
%TO.N,+3V3*%
X21500000Y21200000D03*
X24000000Y2700000D03*
X28400000Y19900000D03*
X38995000Y21200000D03*
X29200000Y27650000D03*
X28500000Y13800000D03*
X25300000Y11625000D03*
X35000000Y12200000D03*
X30475000Y27650000D03*
X24000000Y6300000D03*
X24000000Y4500000D03*
X25500000Y13100000D03*
X39400000Y17700000D03*
X27000000Y13800000D03*
D49*
X16700000Y7300000D03*
%TO.N,/Boot0*%
X34850000Y7050000D03*
X31800000Y9695000D03*
%TD*%
D50*
%TO.N,GND*%
X29485000Y13390000D02*
X29485000Y12600000D01*
X40750000Y18450000D02*
X40750000Y17660000D01*
X28000000Y10121001D02*
X28000000Y10911001D01*
D51*
X46887500Y18312500D02*
X46900000Y18300000D01*
D50*
X27500000Y19000000D02*
X27500000Y19790000D01*
D51*
X37960000Y20000000D02*
X38250000Y20290000D01*
X46887500Y19727500D02*
X46887500Y20887500D01*
D50*
X32650000Y13400000D02*
X32650000Y12610000D01*
X36700000Y4550000D02*
X37490000Y4550000D01*
D51*
X46887500Y19272500D02*
X46887500Y18312500D01*
D50*
X28500000Y15755000D02*
X28500000Y16545000D01*
X27450000Y15710000D02*
X27450000Y16500000D01*
D51*
X36875000Y20000000D02*
X37960000Y20000000D01*
D52*
X32687500Y19000000D02*
X33437500Y18250000D01*
D50*
X30150000Y24750000D02*
X29360000Y24750000D01*
X38200000Y20300000D02*
X38990000Y20300000D01*
X30200000Y23500000D02*
X29410000Y23500000D01*
D51*
X46887500Y20887500D02*
X47000000Y21000000D01*
D50*
X44250000Y18500000D02*
X44250000Y17710000D01*
X35950000Y13100000D02*
X35950000Y12310000D01*
D52*
X32687500Y21687500D02*
X32687500Y19000000D01*
D50*
X38400000Y16700000D02*
X38400000Y15840000D01*
%TO.N,+5V*%
X13850000Y18341600D02*
X13850000Y16416600D01*
D51*
X14468040Y12750000D02*
X14800000Y12750000D01*
X13000000Y10775000D02*
X13000000Y11281960D01*
D50*
X6755000Y15280000D02*
X10570000Y15280000D01*
X15000000Y17000000D02*
X14433400Y17000000D01*
D51*
X13000000Y11281960D02*
X14468040Y12750000D01*
D50*
X6755000Y20080000D02*
X12111600Y20080000D01*
X13850000Y16416600D02*
X13850000Y14350000D01*
X14300000Y14350000D02*
X14800000Y13850000D01*
X14800000Y13850000D02*
X14800000Y12750000D01*
X14433400Y17000000D02*
X13850000Y16416600D01*
X11500000Y14350000D02*
X13850000Y14350000D01*
X13850000Y14350000D02*
X14300000Y14350000D01*
X12111600Y20080000D02*
X13850000Y18341600D01*
X14900000Y10775000D02*
X14900000Y12650000D01*
X10570000Y15280000D02*
X11500000Y14350000D01*
X14900000Y12650000D02*
X14800000Y12750000D01*
D53*
%TO.N,+3V3*%
X36875000Y19000000D02*
X37900000Y19000000D01*
X31150000Y24710000D02*
X31110000Y24750000D01*
X31187500Y21687500D02*
X31187500Y23462500D01*
X31110000Y24750000D02*
X31110000Y25790000D01*
X36875000Y20500000D02*
X37399010Y20500000D01*
D50*
X24000000Y4500000D02*
X24000000Y2700000D01*
D53*
X34187500Y13902500D02*
X34990000Y13100000D01*
X31687500Y21687500D02*
X31187500Y21687500D01*
D50*
X28460000Y19000000D02*
X28460000Y19500000D01*
X28460000Y19840000D02*
X28400000Y19900000D01*
D53*
X38149010Y21250000D02*
X38250000Y21250000D01*
X31110000Y25790000D02*
X30600000Y26300000D01*
X37900000Y19000000D02*
X38400000Y18500000D01*
D50*
X27400000Y14200000D02*
X27000000Y13800000D01*
D53*
X21553700Y21146300D02*
X21500000Y21200000D01*
X37399010Y20500000D02*
X38149010Y21250000D01*
X30600000Y26300000D02*
X30600000Y27525000D01*
D50*
X28460000Y19500000D02*
X28460000Y19840000D01*
D53*
X38400000Y18500000D02*
X38400000Y17670000D01*
X21825000Y18905000D02*
X21553700Y19176300D01*
X30000000Y19500000D02*
X28460000Y19500000D01*
D50*
X39370000Y17670000D02*
X39400000Y17700000D01*
X34990000Y13100000D02*
X34990000Y12210000D01*
D53*
X21553700Y19176300D02*
X21553700Y21146300D01*
D50*
X38205000Y21200000D02*
X38995000Y21200000D01*
X38400000Y17670000D02*
X39370000Y17670000D01*
X34990000Y12210000D02*
X35000000Y12200000D01*
D53*
X31187500Y23462500D02*
X31150000Y23500000D01*
X34187500Y14812500D02*
X34187500Y13902500D01*
X31150000Y23500000D02*
X31150000Y24710000D01*
D50*
X27400000Y14700000D02*
X27400000Y14200000D01*
X24000000Y4500000D02*
X24000000Y6300000D01*
X24000000Y4500000D02*
X25550000Y4500000D01*
X28500000Y14770000D02*
X28500000Y13800000D01*
X27450000Y14750000D02*
X27400000Y14700000D01*
D53*
X30600000Y27525000D02*
X30475000Y27650000D01*
D51*
%TO.N,/SWD_NRST*%
X28141001Y9050000D02*
X28000000Y9191001D01*
X18050000Y17750000D02*
X18900000Y18600000D01*
X18050000Y15700000D02*
X18050000Y17750000D01*
X32893958Y8991000D02*
X32538042Y8991000D01*
X20860000Y18600000D02*
X21825000Y17635000D01*
X33687500Y9784542D02*
X32893958Y8991000D01*
X33687500Y14812500D02*
X33687500Y9784542D01*
X24650000Y9100000D02*
X18050000Y15700000D01*
X32347042Y8800000D02*
X28300000Y8800000D01*
X28000000Y9100000D02*
X24650000Y9100000D01*
X18900000Y18600000D02*
X20860000Y18600000D01*
X28300000Y8800000D02*
X28000000Y9100000D01*
X32538042Y8991000D02*
X32347042Y8800000D01*
%TO.N,/RF*%
X36875000Y19500000D02*
X42030000Y19500000D01*
%TO.N,/RF_Match*%
X43000000Y19500000D02*
X44250000Y19500000D01*
X44250000Y19500000D02*
X46275500Y19500000D01*
%TO.N,/LSE_OUT*%
X31687500Y13412500D02*
X31700000Y13400000D01*
X31687500Y14812500D02*
X31687500Y13412500D01*
X31700000Y12300000D02*
X32200000Y11800000D01*
X32200000Y11800000D02*
X32200000Y11300000D01*
X31700000Y13400000D02*
X31700000Y12300000D01*
%TO.N,/LSE_IN*%
X30500000Y13440000D02*
X30460000Y13400000D01*
X31187500Y14812500D02*
X31187500Y14366272D01*
X31187500Y14366272D02*
X30721228Y13900000D01*
X30460000Y12540000D02*
X30800000Y12200000D01*
X30721228Y13900000D02*
X30500000Y13900000D01*
X30460000Y13400000D02*
X30460000Y12540000D01*
X30500000Y13360000D02*
X30460000Y13400000D01*
X30500000Y13900000D02*
X30500000Y13440000D01*
X30800000Y12200000D02*
X30800000Y11300000D01*
%TO.N,/Boot0*%
X35950000Y7050000D02*
X34850000Y7050000D01*
X33296000Y13804000D02*
X33296000Y9946000D01*
X32900000Y9550000D02*
X32250000Y9550000D01*
X36670000Y5510000D02*
X36700000Y5480000D01*
X32105000Y9695000D02*
X31800000Y9695000D01*
X32250000Y9550000D02*
X32105000Y9695000D01*
X32400000Y14100000D02*
X32450000Y14050000D01*
X33050000Y14050000D02*
X33296000Y13804000D01*
X35450000Y6550000D02*
X35950000Y7050000D01*
X35450000Y5510000D02*
X35450000Y6550000D01*
X32187500Y14812500D02*
X32187500Y14312500D01*
X33296000Y9946000D02*
X32900000Y9550000D01*
X35450000Y5510000D02*
X36670000Y5510000D01*
X32187500Y14312500D02*
X32400000Y14100000D01*
X32450000Y14050000D02*
X33050000Y14050000D01*
%TO.N,/LED_A*%
X39650000Y14900000D02*
X40450000Y14100000D01*
X36875000Y17000000D02*
X37321228Y17000000D01*
X37850000Y14900000D02*
X39650000Y14900000D01*
X40450000Y14100000D02*
X40450000Y13100000D01*
X37321228Y17000000D02*
X37608500Y16712728D01*
X37608500Y15141500D02*
X37850000Y14900000D01*
X37608500Y16712728D02*
X37608500Y15141500D01*
%TO.N,/LED_K*%
X41670000Y12130000D02*
X41700000Y12100000D01*
X40450000Y12130000D02*
X41670000Y12130000D01*
%TO.N,/RF_Antenna*%
X47500000Y19500000D02*
X49175000Y19500000D01*
D54*
%TO.N,Net-(J1-CC1)*%
X5129000Y23129000D02*
X5879000Y23129000D01*
X4350000Y20726176D02*
X4350000Y22350000D01*
X4350000Y22350000D02*
X5129000Y23129000D01*
X6755000Y18930000D02*
X6680000Y18930000D01*
X6176176Y18900000D02*
X4350000Y20726176D01*
X6650000Y18900000D02*
X6176176Y18900000D01*
X6680000Y18930000D02*
X6650000Y18900000D01*
X5879000Y23129000D02*
X6500000Y23750000D01*
%TO.N,Net-(J1-CC2)*%
X6755000Y15930000D02*
X5849849Y15930000D01*
X4550000Y14630151D02*
X4550000Y12350000D01*
X5849849Y15930000D02*
X4550000Y14630151D01*
X4550000Y12350000D02*
X4900000Y12350000D01*
X4900000Y12350000D02*
X6250000Y11000000D01*
D51*
%TO.N,/UART_TXC*%
X17275000Y6625000D02*
X5700000Y6625000D01*
X32700000Y8600000D02*
X32400000Y8300000D01*
X32400000Y8300000D02*
X18950000Y8300000D01*
X33930000Y8600000D02*
X32700000Y8600000D01*
X37450000Y12120000D02*
X33930000Y8600000D01*
X18950000Y8300000D02*
X17275000Y6625000D01*
%TO.N,/UART_RXC*%
X7750000Y5350000D02*
X5725000Y5350000D01*
X17750000Y6150000D02*
X8550000Y6150000D01*
X38950000Y12100000D02*
X38950000Y11850000D01*
X5725000Y5350000D02*
X5700000Y5375000D01*
X34966000Y7866000D02*
X19466000Y7866000D01*
X8550000Y6150000D02*
X7750000Y5350000D01*
X38950000Y11850000D02*
X34966000Y7866000D01*
X19466000Y7866000D02*
X17750000Y6150000D01*
%TO.N,/SWD_DIO*%
X27600000Y21000000D02*
X26800000Y21800000D01*
X26800000Y21800000D02*
X24200000Y21800000D01*
X24200000Y21800000D02*
X23456550Y21056550D01*
X23456550Y19266550D02*
X23095000Y18905000D01*
X28400000Y21000000D02*
X27600000Y21000000D01*
X29400000Y20000000D02*
X28400000Y21000000D01*
X23456550Y21056550D02*
X23456550Y19266550D01*
X30000000Y20000000D02*
X29400000Y20000000D01*
%TO.N,/SWD_CLK*%
X26600000Y18600000D02*
X24060000Y18600000D01*
X27000000Y18200000D02*
X26600000Y18600000D01*
X29400000Y19000000D02*
X28600000Y18200000D01*
X28600000Y18200000D02*
X27000000Y18200000D01*
X30000000Y19000000D02*
X29400000Y19000000D01*
X24060000Y18600000D02*
X23095000Y17635000D01*
D50*
%TO.N,/SMPSLXL*%
X32200000Y24570000D02*
X32200000Y26425000D01*
X32200000Y26425000D02*
X32275000Y26500000D01*
D52*
%TO.N,/SMPSLX*%
X32187500Y21687500D02*
X32187500Y22587500D01*
X32187500Y22587500D02*
X32200000Y22600000D01*
D50*
X32200000Y22600000D02*
X32200000Y23600000D01*
D51*
%TO.N,/UART_TX*%
X36303772Y13750000D02*
X37000000Y13750000D01*
X35687500Y14366272D02*
X36303772Y13750000D01*
X35687500Y14812500D02*
X35687500Y14366272D01*
X37450000Y13300000D02*
X37450000Y13140000D01*
X37000000Y13750000D02*
X37450000Y13300000D01*
%TO.N,/UART_RX*%
X36187500Y14812500D02*
X36800000Y14200000D01*
X36800000Y14200000D02*
X38650000Y14200000D01*
X38950000Y13900000D02*
X38950000Y13120000D01*
X38650000Y14200000D02*
X38950000Y13900000D01*
%TO.N,/HSE_IN*%
X37200000Y24700000D02*
X37200000Y23800000D01*
X38150000Y25050000D02*
X37550000Y25050000D01*
X36187500Y22787500D02*
X36187500Y21687500D01*
X37200000Y23800000D02*
X36187500Y22787500D01*
X37550000Y25050000D02*
X37200000Y24700000D01*
D54*
%TO.N,/USB_D+*%
X15349000Y16399000D02*
X15980346Y16399000D01*
X15980346Y16399000D02*
X16030346Y16349000D01*
X16569654Y16349000D02*
X16951000Y16730346D01*
X16030346Y16349000D02*
X16569654Y16349000D01*
X16585327Y17635327D02*
X17625000Y18675000D01*
X19293198Y23175000D02*
X26855883Y23175000D01*
X17625000Y21506802D02*
X19293198Y23175000D01*
X26855883Y23175000D02*
X29505884Y20524999D01*
X16951000Y17269654D02*
X16585327Y17635327D01*
X29505884Y20524999D02*
X29975001Y20524999D01*
X17625000Y18675000D02*
X17625000Y21506802D01*
X15000000Y16050000D02*
X15349000Y16399000D01*
X29975001Y20524999D02*
X30000000Y20500000D01*
X16951000Y16730346D02*
X16951000Y17269654D01*
%TO.N,/USB_D-*%
X29692278Y20975001D02*
X29975001Y20975001D01*
X19106802Y23625000D02*
X27042279Y23625000D01*
X15000000Y17950000D02*
X16263603Y17950000D01*
X16263603Y17950000D02*
X17175000Y18861397D01*
X29975001Y20975001D02*
X30000000Y21000000D01*
X17175000Y18861397D02*
X17175000Y21693198D01*
X27042279Y23625000D02*
X29692278Y20975001D01*
X17175000Y21693198D02*
X19106802Y23625000D01*
D51*
%TO.N,/HSE_OUT*%
X39250000Y23050000D02*
X39250000Y23650000D01*
X37701000Y21826000D02*
X38026000Y21826000D01*
X36875000Y21000000D02*
X37701000Y21826000D01*
X38026000Y21826000D02*
X39250000Y23050000D01*
%TO.N,/SWD_TRC*%
X28600000Y17200000D02*
X27200000Y17200000D01*
X24600000Y15200000D02*
X23435000Y16365000D01*
X26800000Y16800000D02*
X26800000Y16000000D01*
X26800000Y16000000D02*
X26000000Y15200000D01*
X29400000Y18000000D02*
X28600000Y17200000D01*
X26000000Y15200000D02*
X24600000Y15200000D01*
X30000000Y18000000D02*
X29400000Y18000000D01*
X23435000Y16365000D02*
X23095000Y16365000D01*
X27200000Y17200000D02*
X26800000Y16800000D01*
D54*
%TO.N,/USB_D+_CONN*%
X11432249Y16349000D02*
X11130346Y16349000D01*
X10706802Y16772544D02*
X10706802Y16775000D01*
X9526802Y17955000D02*
X8800000Y17955000D01*
X12725000Y16050000D02*
X11731249Y16050000D01*
D51*
X8530000Y16930000D02*
X8800000Y17200000D01*
D54*
X11731249Y16050000D02*
X11432249Y16349000D01*
D51*
X6755000Y16930000D02*
X8530000Y16930000D01*
D54*
X11130346Y16349000D02*
X10706802Y16772544D01*
X10706802Y16775000D02*
X9526802Y17955000D01*
X7642501Y17955000D02*
X7617501Y17930000D01*
X8800000Y17955000D02*
X7642501Y17955000D01*
X7617501Y17930000D02*
X6755000Y17930000D01*
D51*
X8800000Y17200000D02*
X8800000Y17955000D01*
D54*
%TO.N,/USB_D-_CONN*%
X7642501Y18405000D02*
X7617501Y18430000D01*
X12725000Y17950000D02*
X11429346Y17950000D01*
X6755000Y18430000D02*
X5430000Y18430000D01*
X9713198Y18405000D02*
X7642501Y18405000D01*
X5200000Y17600000D02*
X5370000Y17430000D01*
X10798772Y17319426D02*
X9713198Y18405000D01*
X7617501Y18430000D02*
X6755000Y18430000D01*
X5200000Y18200000D02*
X5200000Y17600000D01*
X5370000Y17430000D02*
X6755000Y17430000D01*
X11429346Y17950000D02*
X10798772Y17319426D01*
X5430000Y18430000D02*
X5200000Y18200000D01*
D51*
%TO.N,Net-(R7-Pad2)*%
X35440000Y4500000D02*
X35450000Y4490000D01*
X33350000Y4500000D02*
X35440000Y4500000D01*
%TD*%
%TA.AperFunction,Conductor*%
%TO.N,+3V3*%
G36*
X30793039Y28080315D02*
G01*
X30838794Y28027511D01*
X30850000Y27976000D01*
X30850000Y26825000D01*
X31070266Y26684831D01*
X31116255Y26632233D01*
X31127593Y26585174D01*
X31149999Y26025000D01*
X31323316Y25909456D01*
X31368177Y25855891D01*
X31378352Y25812975D01*
X31424759Y24954451D01*
X31424920Y24945544D01*
X31374999Y22150001D01*
X31375000Y22150000D01*
X31644878Y22135007D01*
X31710722Y22111634D01*
X31753478Y22056374D01*
X31762000Y22011198D01*
X31762000Y21499000D01*
X31742315Y21431961D01*
X31689511Y21386206D01*
X31638000Y21375000D01*
X31236999Y21375000D01*
X31169960Y21394685D01*
X31124205Y21447489D01*
X31112999Y21499000D01*
X31112999Y22096951D01*
X31102720Y22167507D01*
X31102720Y22167509D01*
X31049512Y22276347D01*
X31049510Y22276349D01*
X31049510Y22276350D01*
X31021593Y22304266D01*
X30988107Y22365588D01*
X30985287Y22390135D01*
X30975000Y23100000D01*
X30889570Y23100000D01*
X30822531Y23119685D01*
X30776776Y23172489D01*
X30767118Y23239658D01*
X30767006Y23239668D01*
X30767049Y23240134D01*
X30766832Y23241647D01*
X30767578Y23245772D01*
X30770500Y23276930D01*
X30770500Y23723071D01*
X30767710Y23752815D01*
X30767710Y23752819D01*
X30767708Y23752823D01*
X30767708Y23752827D01*
X30723852Y23878158D01*
X30722139Y23881399D01*
X30707794Y23936790D01*
X30698477Y24389953D01*
X30705409Y24433450D01*
X30727710Y24497181D01*
X30730500Y24526934D01*
X30730500Y24973066D01*
X30727710Y25002819D01*
X30727708Y25002823D01*
X30727708Y25002827D01*
X30689791Y25111186D01*
X30682858Y25149587D01*
X30670000Y25775000D01*
X30669999Y25775001D01*
X30670000Y25775001D01*
X30034853Y25796314D01*
X29968512Y25818236D01*
X29924553Y25872544D01*
X29915478Y25909502D01*
X29825000Y26950000D01*
X29824999Y26950001D01*
X29613671Y26988424D01*
X29580754Y26994409D01*
X29542160Y27008324D01*
X29534977Y27012363D01*
X29534975Y27012364D01*
X29465545Y27039744D01*
X29400588Y27065360D01*
X29357242Y27070565D01*
X29316144Y27075500D01*
X29145931Y27075500D01*
X29123749Y27077500D01*
X28701818Y27154215D01*
X28639381Y27185575D01*
X28603810Y27245712D01*
X28600000Y27276215D01*
X28600000Y27976000D01*
X28619685Y28043039D01*
X28672489Y28088794D01*
X28724000Y28100000D01*
X30726000Y28100000D01*
X30793039Y28080315D01*
G37*
%TD.AperFunction*%
%TD*%
%TA.AperFunction,Conductor*%
%TO.N,+3V3*%
G36*
X16757441Y9205315D02*
G01*
X16787230Y9178462D01*
X17040820Y8861474D01*
X17421207Y8385991D01*
X17447715Y8321346D01*
X17448294Y8303940D01*
X17413698Y7369878D01*
X17391546Y7303613D01*
X17377465Y7286787D01*
X17262482Y7171803D01*
X17147496Y7056818D01*
X17086176Y7023334D01*
X17059817Y7020500D01*
X15976752Y7020500D01*
X15909713Y7040185D01*
X15909698Y7040194D01*
X14690049Y7824254D01*
X14644301Y7877064D01*
X14637474Y7895928D01*
X14521451Y8321346D01*
X14504369Y8383982D01*
X14500000Y8416608D01*
X14500000Y9017333D01*
X14505596Y9036393D01*
X14506264Y9056246D01*
X14515238Y9069231D01*
X14519685Y9084372D01*
X14534695Y9097379D01*
X14545992Y9113722D01*
X14570237Y9128177D01*
X14572489Y9130127D01*
X14576308Y9131795D01*
X14777109Y9215462D01*
X14824801Y9225000D01*
X16690402Y9225000D01*
X16757441Y9205315D01*
G37*
%TD.AperFunction*%
%TD*%
%TA.AperFunction,Conductor*%
%TO.N,/SMPSFB*%
G36*
X34815677Y27180315D02*
G01*
X34836319Y27163681D01*
X34963681Y27036319D01*
X34997166Y26974996D01*
X35000000Y26948638D01*
X35000000Y26051362D01*
X34991355Y26021922D01*
X34984832Y25991935D01*
X34981077Y25986920D01*
X34980315Y25984323D01*
X34963681Y25963681D01*
X34836319Y25836319D01*
X34774996Y25802834D01*
X34748638Y25800000D01*
X34199999Y25800000D01*
X34000000Y25600001D01*
X34000000Y23676637D01*
X33980315Y23609598D01*
X33931455Y23565728D01*
X33599999Y23400000D01*
X33400000Y23000001D01*
X33400000Y22236765D01*
X33395104Y22220095D01*
X33395235Y22202722D01*
X33380930Y22171824D01*
X33380315Y22169726D01*
X33379719Y22169206D01*
X33379104Y22167877D01*
X33377260Y22165119D01*
X33377258Y22165113D01*
X33362000Y22088406D01*
X33362000Y22088404D01*
X33362000Y22088402D01*
X33362000Y22088401D01*
X33362000Y21730353D01*
X33362001Y21374500D01*
X33359450Y21365814D01*
X33360739Y21356853D01*
X33349761Y21332817D01*
X33342317Y21307461D01*
X33335474Y21301533D01*
X33331714Y21293297D01*
X33309482Y21279011D01*
X33289513Y21261706D01*
X33278997Y21259419D01*
X33272936Y21255523D01*
X33238001Y21250500D01*
X33137000Y21250500D01*
X33069961Y21270185D01*
X33024206Y21322989D01*
X33013000Y21374500D01*
X33013000Y21740342D01*
X33012999Y21740356D01*
X33012999Y22088400D01*
X33002382Y22141780D01*
X33000000Y22165969D01*
X33000000Y24548638D01*
X33019685Y24615677D01*
X33036319Y24636319D01*
X33600000Y25200000D01*
X33600000Y26948638D01*
X33608644Y26978079D01*
X33615168Y27008065D01*
X33618922Y27013081D01*
X33619685Y27015677D01*
X33636319Y27036319D01*
X33763681Y27163681D01*
X33825004Y27197166D01*
X33851362Y27200000D01*
X34748638Y27200000D01*
X34815677Y27180315D01*
G37*
%TD.AperFunction*%
%TD*%
%TA.AperFunction,Conductor*%
%TO.N,+3V3*%
G36*
X29401924Y15642500D02*
G01*
X29519988Y15584781D01*
X29519989Y15584781D01*
X29519991Y15584780D01*
X29590551Y15574500D01*
X30213000Y15574501D01*
X30280039Y15554817D01*
X30325794Y15502013D01*
X30337000Y15450504D01*
X30337000Y15405144D01*
X30337002Y15405119D01*
X30339914Y15380012D01*
X30339915Y15380009D01*
X30385293Y15277236D01*
X30385294Y15277235D01*
X30464735Y15197794D01*
X30567509Y15152415D01*
X30592635Y15149500D01*
X30637999Y15149501D01*
X30646684Y15146951D01*
X30655647Y15148239D01*
X30679684Y15137262D01*
X30705037Y15129818D01*
X30710966Y15122976D01*
X30719203Y15119214D01*
X30733489Y15096984D01*
X30750793Y15077015D01*
X30753080Y15066499D01*
X30756977Y15060436D01*
X30762000Y15025501D01*
X30762000Y14859049D01*
X30758536Y14829946D01*
X30756811Y14822803D01*
X30741231Y14524394D01*
X30732094Y14498380D01*
X30726233Y14471434D01*
X30719446Y14462368D01*
X30718078Y14458472D01*
X30705082Y14443179D01*
X30593726Y14331820D01*
X30532404Y14298334D01*
X30506044Y14295500D01*
X30447931Y14295500D01*
X30347343Y14268548D01*
X30347341Y14268548D01*
X30347341Y14268547D01*
X30347336Y14268546D01*
X30311922Y14248100D01*
X30257661Y14231730D01*
X28949999Y14150000D01*
X28934044Y13703282D01*
X28933505Y13695340D01*
X28932033Y13680666D01*
X28922290Y13652819D01*
X28919500Y13623066D01*
X28919500Y13555632D01*
X28918882Y13549467D01*
X28907980Y13522606D01*
X28899815Y13494796D01*
X28895002Y13490627D01*
X28892608Y13484725D01*
X28868913Y13468020D01*
X28847011Y13449041D01*
X28838888Y13446851D01*
X28835504Y13444465D01*
X28829003Y13444187D01*
X28807666Y13438433D01*
X27150000Y13275000D01*
X27127022Y11459753D01*
X27106491Y11392969D01*
X27053112Y11347886D01*
X26983833Y11338818D01*
X26977290Y11340155D01*
X26962397Y11341944D01*
X26891144Y11350500D01*
X26308856Y11350500D01*
X26270841Y11345935D01*
X26224411Y11340360D01*
X26090023Y11287364D01*
X26042852Y11251593D01*
X25977540Y11226771D01*
X25975827Y11226650D01*
X24936766Y11160327D01*
X24868609Y11175701D01*
X24819583Y11225483D01*
X24804946Y11288501D01*
X24807067Y11347886D01*
X24871583Y13154337D01*
X24893648Y13220629D01*
X24948051Y13264470D01*
X24968406Y13270912D01*
X26550000Y13625000D01*
X27021564Y14921804D01*
X27062972Y14978077D01*
X27128233Y15003032D01*
X27133122Y15003325D01*
X28925000Y15075000D01*
X29120915Y15450504D01*
X29191878Y15586515D01*
X29200211Y15595170D01*
X29204733Y15606301D01*
X29223996Y15619873D01*
X29240340Y15636846D01*
X29253455Y15640627D01*
X29261851Y15646541D01*
X29296536Y15653045D01*
X29342194Y15654988D01*
X29401924Y15642500D01*
G37*
%TD.AperFunction*%
%TD*%
%TA.AperFunction,Conductor*%
%TO.N,+3V3*%
G36*
X28506356Y20330315D02*
G01*
X28526998Y20313681D01*
X28766414Y20074265D01*
X28799780Y20013484D01*
X28874999Y19675001D01*
X28875000Y19675000D01*
X29158415Y19665858D01*
X29177867Y19659458D01*
X29198285Y19657902D01*
X29216405Y19649315D01*
X29247342Y19631452D01*
X29290922Y19619775D01*
X29350583Y19583410D01*
X29381112Y19520563D01*
X29372817Y19451188D01*
X29328332Y19397310D01*
X29290923Y19380225D01*
X29247340Y19368548D01*
X29247337Y19368546D01*
X29241844Y19365374D01*
X29200689Y19341613D01*
X29138689Y19325000D01*
X28775000Y19325000D01*
X28762731Y18969217D01*
X28740748Y18902895D01*
X28726486Y18885809D01*
X28500542Y18659865D01*
X28470138Y18643264D01*
X28439527Y18626447D01*
X28439312Y18626432D01*
X28439219Y18626380D01*
X28404330Y18623840D01*
X28195110Y18638269D01*
X28129583Y18662519D01*
X28087570Y18718346D01*
X28080183Y18773557D01*
X28080500Y18776937D01*
X28080500Y19223071D01*
X28077710Y19252820D01*
X28071146Y19271578D01*
X28069964Y19280024D01*
X28067363Y19284649D01*
X28064400Y19319811D01*
X28072287Y19453890D01*
X28081512Y19494058D01*
X28092491Y19520563D01*
X28125501Y19600256D01*
X28137277Y19659458D01*
X28150500Y19725929D01*
X28150500Y19854072D01*
X28125502Y19979740D01*
X28125500Y19979746D01*
X28116888Y20000537D01*
X28114858Y20012581D01*
X28110625Y20020105D01*
X28107662Y20055266D01*
X28118134Y20233283D01*
X28141722Y20299050D01*
X28197122Y20341625D01*
X28241920Y20350000D01*
X28439317Y20350000D01*
X28506356Y20330315D01*
G37*
%TD.AperFunction*%
%TD*%
%TA.AperFunction,Conductor*%
%TO.N,GND*%
G36*
X29603326Y13378326D02*
G01*
X29625000Y13326000D01*
X29625000Y12690001D01*
X29682278Y12690001D01*
X29682279Y12690002D01*
X29769048Y12700420D01*
X29769052Y12700421D01*
X29911857Y12756735D01*
X29912831Y12754263D01*
X29960435Y12760000D01*
X30004987Y12725032D01*
X30014500Y12688736D01*
X30014500Y12481347D01*
X30028105Y12430575D01*
X30028105Y12430573D01*
X30044858Y12368048D01*
X30044862Y12368039D01*
X30069421Y12325500D01*
X30069422Y12325500D01*
X30094857Y12281444D01*
X30103511Y12266456D01*
X30238959Y12131009D01*
X30324418Y12045550D01*
X30346092Y11993224D01*
X30338462Y11960498D01*
X30207197Y11694288D01*
X30207198Y11694287D01*
X30206291Y11692450D01*
X30206204Y11692331D01*
X30206109Y11692080D01*
X30204482Y11688778D01*
X30204481Y11688776D01*
X30195470Y11670500D01*
X30195462Y11670483D01*
X30185214Y11646198D01*
X30179216Y11631986D01*
X30178306Y11629416D01*
X30169533Y11595202D01*
X30167187Y11587724D01*
X30155909Y11557484D01*
X30149500Y11497874D01*
X30149500Y10602127D01*
X30155909Y10542515D01*
X30206202Y10407671D01*
X30206203Y10407670D01*
X30206204Y10407669D01*
X30292454Y10292454D01*
X30371734Y10233105D01*
X30407669Y10206204D01*
X30407670Y10206203D01*
X30518605Y10164828D01*
X30542517Y10155909D01*
X30602127Y10149500D01*
X30997872Y10149501D01*
X31057483Y10155909D01*
X31111060Y10175892D01*
X31197290Y10208053D01*
X31198000Y10206148D01*
X31247123Y10211429D01*
X31291224Y10175892D01*
X31297279Y10119579D01*
X31287805Y10099314D01*
X31223533Y10003124D01*
X31174498Y9884743D01*
X31174497Y9884740D01*
X31156532Y9794421D01*
X31149500Y9759069D01*
X31149500Y9630931D01*
X31153150Y9612581D01*
X31174497Y9505261D01*
X31174498Y9505258D01*
X31218154Y9399862D01*
X31223535Y9386873D01*
X31241083Y9360610D01*
X31252132Y9305063D01*
X31220666Y9257971D01*
X31179554Y9245500D01*
X28761232Y9245500D01*
X28752034Y9249310D01*
X28742167Y9247998D01*
X28726792Y9259766D01*
X28708906Y9267174D01*
X28697192Y9282421D01*
X28692874Y9289879D01*
X28645483Y9371731D01*
X28640195Y9382936D01*
X28604929Y9477489D01*
X28599315Y9484988D01*
X28592246Y9494432D01*
X28578239Y9549310D01*
X28592523Y9583492D01*
X28645122Y9652853D01*
X28699578Y9790945D01*
X28710000Y9877722D01*
X28710000Y9935000D01*
X28074000Y9935000D01*
X28021674Y9956674D01*
X28000000Y10009000D01*
X28000000Y10060000D01*
X27949000Y10060000D01*
X27896674Y10081674D01*
X27875000Y10134000D01*
X27875000Y10185000D01*
X28125000Y10185000D01*
X28709999Y10185000D01*
X28709999Y10242278D01*
X28709998Y10242280D01*
X28699580Y10329049D01*
X28699579Y10329053D01*
X28645122Y10467148D01*
X28555428Y10585428D01*
X28555427Y10585429D01*
X28437147Y10675123D01*
X28299055Y10729579D01*
X28212278Y10740000D01*
X28125000Y10740000D01*
X28125000Y10185000D01*
X27875000Y10185000D01*
X27875000Y10740000D01*
X27787721Y10740000D01*
X27787719Y10739999D01*
X27700951Y10729581D01*
X27700947Y10729580D01*
X27576147Y10680365D01*
X27519518Y10681332D01*
X27480159Y10722059D01*
X27475000Y10749206D01*
X27475000Y10888111D01*
X27472210Y10923552D01*
X27428154Y11075192D01*
X27400716Y11121587D01*
X27392736Y11177659D01*
X27398219Y11192340D01*
X27446296Y11288505D01*
X27466827Y11355289D01*
X27482494Y11455253D01*
X27500606Y12886220D01*
X27522941Y12938264D01*
X27567337Y12958923D01*
X28781458Y13078626D01*
X28835656Y13062190D01*
X28857558Y13032130D01*
X28884877Y12962853D01*
X28974571Y12844573D01*
X28974572Y12844572D01*
X29092852Y12754878D01*
X29230944Y12700422D01*
X29317721Y12690001D01*
X29374999Y12690002D01*
X29375000Y12690002D01*
X29375000Y13326000D01*
X29396674Y13378326D01*
X29449000Y13400000D01*
X29551000Y13400000D01*
X29603326Y13378326D01*
G37*
%TD.AperFunction*%
%TA.AperFunction,Conductor*%
G36*
X36713799Y13247085D02*
G01*
X36736777Y13240971D01*
X36739373Y13236492D01*
X36744158Y13234510D01*
X36763178Y13195430D01*
X36765183Y13191972D01*
X36765242Y13191527D01*
X36775819Y13104166D01*
X36776087Y13102011D01*
X36778069Y13095414D01*
X36778850Y13089564D01*
X36779500Y13079776D01*
X36779500Y12958557D01*
X36779501Y12958556D01*
X36785716Y12900738D01*
X36834504Y12769932D01*
X36834506Y12769929D01*
X36906058Y12674346D01*
X36920065Y12619468D01*
X36906058Y12585654D01*
X36834506Y12490072D01*
X36834504Y12490069D01*
X36785716Y12359264D01*
X36785715Y12359261D01*
X36779500Y12301445D01*
X36779500Y12282297D01*
X36773421Y12252924D01*
X36642276Y11949668D01*
X36626681Y11926715D01*
X34213350Y9513384D01*
X34161024Y9491710D01*
X34108698Y9513384D01*
X34087024Y9565710D01*
X34096940Y9602713D01*
X34102640Y9612585D01*
X34132999Y9725889D01*
X34133000Y9725889D01*
X34133000Y12987785D01*
X34154674Y13040111D01*
X34207000Y13061785D01*
X34259326Y13040111D01*
X34270472Y13025829D01*
X34347986Y12896506D01*
X34358326Y12863734D01*
X34380376Y12555037D01*
X34374931Y12521447D01*
X34326421Y12404333D01*
X34326418Y12404323D01*
X34303945Y12291344D01*
X34301977Y12281443D01*
X34299500Y12268992D01*
X34299500Y12131009D01*
X34326418Y11995678D01*
X34326421Y11995668D01*
X34379223Y11868192D01*
X34447350Y11766232D01*
X34455886Y11753458D01*
X34553458Y11655886D01*
X34668189Y11579225D01*
X34668190Y11579225D01*
X34668191Y11579224D01*
X34793130Y11527473D01*
X34795672Y11526420D01*
X34931007Y11499500D01*
X34931009Y11499500D01*
X35068991Y11499500D01*
X35068993Y11499500D01*
X35204328Y11526420D01*
X35331811Y11579225D01*
X35446542Y11655886D01*
X35544114Y11753458D01*
X35620775Y11868189D01*
X35673580Y11995672D01*
X35700500Y12131007D01*
X35700500Y12268993D01*
X35694021Y12301565D01*
X35705070Y12357113D01*
X35752163Y12388579D01*
X35766598Y12390001D01*
X36075000Y12390001D01*
X36132278Y12390001D01*
X36132279Y12390002D01*
X36219048Y12400420D01*
X36219052Y12400421D01*
X36357147Y12454878D01*
X36475427Y12544572D01*
X36475428Y12544573D01*
X36565122Y12662853D01*
X36619578Y12800945D01*
X36630000Y12887722D01*
X36630000Y12975000D01*
X36075000Y12975000D01*
X36075000Y12390001D01*
X35766598Y12390001D01*
X35825000Y12390002D01*
X35825000Y13026000D01*
X35846674Y13078326D01*
X35899000Y13100000D01*
X35950000Y13100000D01*
X35950000Y13151000D01*
X35971674Y13203326D01*
X36024000Y13225000D01*
X36629998Y13225000D01*
X36639506Y13234508D01*
X36661472Y13243608D01*
X36682044Y13255533D01*
X36687048Y13254202D01*
X36691832Y13256183D01*
X36713799Y13247085D01*
G37*
%TD.AperFunction*%
%TA.AperFunction,Conductor*%
G36*
X18621826Y16872844D02*
G01*
X18642589Y16832094D01*
X18663762Y16698407D01*
X18663765Y16698394D01*
X18726406Y16505607D01*
X18726409Y16505600D01*
X18726410Y16505599D01*
X18728375Y16501742D01*
X18818445Y16324967D01*
X18937602Y16160962D01*
X18937606Y16160957D01*
X19080957Y16017606D01*
X19080960Y16017604D01*
X19080961Y16017603D01*
X19244966Y15898446D01*
X19314811Y15862859D01*
X19425599Y15806410D01*
X19425602Y15806410D01*
X19425606Y15806407D01*
X19618393Y15743766D01*
X19618399Y15743765D01*
X19618404Y15743763D01*
X19727672Y15726457D01*
X19818635Y15712050D01*
X19818636Y15712050D01*
X20021365Y15712050D01*
X20083991Y15721969D01*
X20221596Y15743763D01*
X20221603Y15743766D01*
X20221606Y15743766D01*
X20414393Y15806407D01*
X20414395Y15806409D01*
X20414401Y15806410D01*
X20595033Y15898446D01*
X20759043Y16017606D01*
X20902394Y16160957D01*
X20923810Y16190435D01*
X20972098Y16220027D01*
X21027171Y16206806D01*
X21056254Y16161376D01*
X21061801Y16133490D01*
X21061802Y16133486D01*
X21121633Y15989042D01*
X21181966Y15898747D01*
X21684285Y16401063D01*
X21736611Y16422737D01*
X21788937Y16401063D01*
X21825000Y16365000D01*
X21971124Y16365000D01*
X22023450Y16343326D01*
X22468031Y15898746D01*
X22470311Y15898970D01*
X22524509Y15882529D01*
X22529890Y15877652D01*
X22620600Y15786942D01*
X22742489Y15705498D01*
X22742490Y15705498D01*
X22742491Y15705497D01*
X22875998Y15650197D01*
X22877925Y15649399D01*
X23000612Y15624996D01*
X23047704Y15593531D01*
X23058754Y15537982D01*
X23038503Y15500093D01*
X22999241Y15460831D01*
X22920801Y15324968D01*
X22880200Y15173442D01*
X22880200Y15016559D01*
X22920801Y14865033D01*
X22956013Y14804043D01*
X22999241Y14729170D01*
X23110170Y14618241D01*
X23246030Y14539803D01*
X23246032Y14539802D01*
X23352542Y14511263D01*
X23397558Y14499201D01*
X23397559Y14499200D01*
X23397561Y14499200D01*
X23554441Y14499200D01*
X23554441Y14499201D01*
X23664672Y14528737D01*
X23705967Y14539802D01*
X23705967Y14539803D01*
X23705970Y14539803D01*
X23841830Y14618241D01*
X23952759Y14729170D01*
X24031197Y14865030D01*
X24055872Y14957121D01*
X24090350Y15002052D01*
X24146502Y15009445D01*
X24179676Y14990292D01*
X24243511Y14926457D01*
X24326457Y14843511D01*
X24428043Y14784860D01*
X24428044Y14784860D01*
X24428046Y14784859D01*
X24474335Y14772455D01*
X24474343Y14772454D01*
X24541345Y14754501D01*
X24541346Y14754500D01*
X24541348Y14754500D01*
X26058654Y14754500D01*
X26058654Y14754501D01*
X26125657Y14772454D01*
X26125659Y14772454D01*
X26171953Y14784859D01*
X26171952Y14784859D01*
X26171957Y14784860D01*
X26248510Y14829058D01*
X26273544Y14843511D01*
X26580652Y15150620D01*
X26632974Y15172292D01*
X26685300Y15150618D01*
X26706974Y15098292D01*
X26698213Y15063366D01*
X26687469Y15043299D01*
X26296257Y13967466D01*
X26258005Y13925697D01*
X26242879Y13920543D01*
X25657170Y13789415D01*
X25626568Y13789049D01*
X25568994Y13800500D01*
X25568993Y13800500D01*
X25431007Y13800500D01*
X25392642Y13792869D01*
X25295677Y13773582D01*
X25295667Y13773579D01*
X25168189Y13720776D01*
X25087754Y13667031D01*
X25062809Y13656348D01*
X24890741Y13617826D01*
X24861151Y13609847D01*
X24840787Y13603402D01*
X24826948Y13598708D01*
X24724983Y13541276D01*
X24670582Y13497436D01*
X24611069Y13436338D01*
X24556343Y13332903D01*
X24534276Y13266606D01*
X24516310Y13167027D01*
X24516309Y13167015D01*
X24453942Y11420710D01*
X24450724Y11330603D01*
X24449673Y11301188D01*
X24449673Y11301184D01*
X24458662Y11208077D01*
X24458663Y11208070D01*
X24473300Y11145053D01*
X24499021Y11071794D01*
X24564683Y10978326D01*
X24566291Y10976037D01*
X24615317Y10926255D01*
X24679641Y10875000D01*
X24682021Y10873104D01*
X24682022Y10873103D01*
X24790385Y10828914D01*
X24790387Y10828914D01*
X24790391Y10828912D01*
X24837272Y10818338D01*
X24858542Y10813540D01*
X24959411Y10805549D01*
X25646288Y10849393D01*
X25699886Y10831096D01*
X25724850Y10780257D01*
X25725000Y10775543D01*
X25725000Y10725000D01*
X26526000Y10725000D01*
X26578326Y10703326D01*
X26600000Y10651000D01*
X26600000Y10600000D01*
X26651000Y10600000D01*
X26703326Y10578326D01*
X26725000Y10526000D01*
X26725000Y9750000D01*
X26913110Y9750000D01*
X26948551Y9752790D01*
X27100191Y9796846D01*
X27188862Y9849286D01*
X27244934Y9857266D01*
X27290226Y9823260D01*
X27300002Y9794421D01*
X27300418Y9790957D01*
X27300420Y9790948D01*
X27356735Y9648143D01*
X27354271Y9647172D01*
X27359989Y9599529D01*
X27324998Y9554994D01*
X27288735Y9545500D01*
X24865184Y9545500D01*
X24812858Y9567174D01*
X24068142Y10311890D01*
X25725000Y10311890D01*
X25727789Y10276449D01*
X25771845Y10124809D01*
X25852228Y9988889D01*
X25963888Y9877229D01*
X26099808Y9796846D01*
X26251448Y9752790D01*
X26286890Y9750000D01*
X26475000Y9750000D01*
X26475000Y10475000D01*
X25725000Y10475000D01*
X25725000Y10311890D01*
X24068142Y10311890D01*
X23926706Y10453326D01*
X21660802Y12719230D01*
X19206591Y15173442D01*
X20848200Y15173442D01*
X20848200Y15016559D01*
X20888801Y14865033D01*
X20924013Y14804043D01*
X20967241Y14729170D01*
X21078170Y14618241D01*
X21214030Y14539803D01*
X21214032Y14539802D01*
X21320542Y14511263D01*
X21365558Y14499201D01*
X21365559Y14499200D01*
X21365561Y14499200D01*
X21522441Y14499200D01*
X21522441Y14499201D01*
X21632672Y14528737D01*
X21673967Y14539802D01*
X21673967Y14539803D01*
X21673970Y14539803D01*
X21809830Y14618241D01*
X21920759Y14729170D01*
X21999197Y14865030D01*
X22039799Y15016559D01*
X22039800Y15016559D01*
X22039800Y15173441D01*
X22039799Y15173442D01*
X21999198Y15324968D01*
X21967153Y15380472D01*
X21920759Y15460830D01*
X21920758Y15460831D01*
X21920757Y15460833D01*
X21917806Y15464679D01*
X21920097Y15466438D01*
X21901920Y15510321D01*
X21923594Y15562647D01*
X21961483Y15582899D01*
X22056508Y15601801D01*
X22056514Y15601803D01*
X22200957Y15661633D01*
X22291254Y15721968D01*
X22291254Y15721969D01*
X21825000Y16188224D01*
X21341239Y15704464D01*
X21339307Y15698097D01*
X21301265Y15673573D01*
X21214032Y15650199D01*
X21078169Y15571759D01*
X20967241Y15460831D01*
X20888801Y15324968D01*
X20848200Y15173442D01*
X19206591Y15173442D01*
X18517174Y15862859D01*
X18495500Y15915185D01*
X18495500Y16820518D01*
X18517174Y16872844D01*
X18569500Y16894518D01*
X18621826Y16872844D01*
G37*
%TD.AperFunction*%
%TA.AperFunction,Conductor*%
G36*
X32763326Y13378326D02*
G01*
X32785000Y13326000D01*
X32785000Y12690001D01*
X32791010Y12683991D01*
X32828826Y12668327D01*
X32850500Y12616001D01*
X32850500Y11848660D01*
X32828826Y11796334D01*
X32776500Y11774660D01*
X32724174Y11796334D01*
X32715305Y11807053D01*
X32652449Y11899500D01*
X32629956Y11932584D01*
X32619675Y11955032D01*
X32615140Y11971957D01*
X32556489Y12073543D01*
X32481660Y12148372D01*
X32478401Y12152713D01*
X32477003Y12154404D01*
X32438336Y12194353D01*
X32431265Y12198767D01*
X32296358Y12333674D01*
X32167174Y12462859D01*
X32145500Y12515185D01*
X32145500Y12688736D01*
X32167174Y12741062D01*
X32219500Y12762736D01*
X32247604Y12755370D01*
X32248143Y12756735D01*
X32390944Y12700422D01*
X32477721Y12690001D01*
X32534999Y12690002D01*
X32535000Y12690002D01*
X32535000Y13326000D01*
X32556674Y13378326D01*
X32609000Y13400000D01*
X32711000Y13400000D01*
X32763326Y13378326D01*
G37*
%TD.AperFunction*%
%TA.AperFunction,Conductor*%
G36*
X32697471Y21144202D02*
G01*
X32710304Y21143192D01*
X32728607Y21126254D01*
X32735387Y21122346D01*
X32737792Y21119216D01*
X32755537Y21090186D01*
X32795853Y21043659D01*
X32797177Y21041936D01*
X32812500Y20996847D01*
X32812500Y20850639D01*
X32812501Y20850638D01*
X32836955Y20852930D01*
X32836959Y20852931D01*
X32968550Y20898976D01*
X32973454Y20901568D01*
X32974626Y20899351D01*
X33019903Y20910978D01*
X33020733Y20910867D01*
X33092497Y20899500D01*
X33105362Y20899501D01*
X33110262Y20898843D01*
X33110354Y20898790D01*
X33110941Y20898748D01*
X33130275Y20895968D01*
X33136992Y20895001D01*
X33136994Y20895001D01*
X33137000Y20895000D01*
X33137003Y20895000D01*
X33238010Y20895000D01*
X33238010Y20895001D01*
X33288595Y20898619D01*
X33323530Y20903642D01*
X33357647Y20910263D01*
X33357655Y20910267D01*
X33358952Y20910666D01*
X33363921Y20912397D01*
X33379215Y20914818D01*
X33397199Y20923983D01*
X33401961Y20925640D01*
X33402386Y20925616D01*
X33404510Y20926477D01*
X33418483Y20930779D01*
X33473856Y20925992D01*
X33495785Y20914818D01*
X33592497Y20899500D01*
X33782502Y20899501D01*
X33879215Y20914818D01*
X33903906Y20927400D01*
X33960366Y20931844D01*
X33971079Y20927407D01*
X33995785Y20914818D01*
X34092497Y20899500D01*
X34282502Y20899501D01*
X34379215Y20914818D01*
X34403906Y20927400D01*
X34460366Y20931844D01*
X34471079Y20927407D01*
X34495785Y20914818D01*
X34592497Y20899500D01*
X34782502Y20899501D01*
X34879215Y20914818D01*
X34903906Y20927400D01*
X34960366Y20931844D01*
X34971079Y20927407D01*
X34995785Y20914818D01*
X35092497Y20899500D01*
X35282502Y20899501D01*
X35379215Y20914818D01*
X35403906Y20927400D01*
X35460366Y20931844D01*
X35471079Y20927407D01*
X35495785Y20914818D01*
X35592497Y20899500D01*
X35782502Y20899501D01*
X35879215Y20914818D01*
X35903907Y20927400D01*
X35958930Y20932294D01*
X35965224Y20930390D01*
X35995785Y20914818D01*
X36039655Y20907870D01*
X36044503Y20906403D01*
X36062784Y20891422D01*
X36082940Y20879071D01*
X36085552Y20872764D01*
X36088310Y20870504D01*
X36088883Y20864723D01*
X36096162Y20847151D01*
X36102318Y20808284D01*
X36102319Y20808279D01*
X36114897Y20783593D01*
X36119340Y20727131D01*
X36114897Y20716407D01*
X36102319Y20691722D01*
X36102318Y20691717D01*
X36087000Y20595004D01*
X36087000Y20404998D01*
X36102318Y20308285D01*
X36161711Y20191719D01*
X36254220Y20099210D01*
X36319527Y20065934D01*
X36356310Y20022867D01*
X36351866Y19966405D01*
X36319527Y19934066D01*
X36254220Y19900791D01*
X36161711Y19808282D01*
X36102317Y19691715D01*
X36087000Y19595005D01*
X36087000Y19404998D01*
X36102318Y19308285D01*
X36102319Y19308279D01*
X36114897Y19283593D01*
X36119340Y19227131D01*
X36114897Y19216407D01*
X36102319Y19191722D01*
X36102318Y19191717D01*
X36087000Y19095004D01*
X36087000Y18904998D01*
X36102318Y18808285D01*
X36102319Y18808279D01*
X36114897Y18783593D01*
X36119340Y18727131D01*
X36114897Y18716407D01*
X36102319Y18691722D01*
X36102318Y18691717D01*
X36087000Y18595004D01*
X36087000Y18404998D01*
X36102318Y18308285D01*
X36102319Y18308279D01*
X36114897Y18283593D01*
X36119340Y18227131D01*
X36114897Y18216407D01*
X36102319Y18191722D01*
X36102318Y18191717D01*
X36087000Y18095004D01*
X36087000Y17904998D01*
X36102318Y17808285D01*
X36102319Y17808279D01*
X36114897Y17783593D01*
X36119340Y17727131D01*
X36114897Y17716407D01*
X36102319Y17691722D01*
X36102318Y17691717D01*
X36087000Y17595004D01*
X36087000Y17404998D01*
X36102318Y17308285D01*
X36102319Y17308279D01*
X36114897Y17283593D01*
X36119340Y17227131D01*
X36114897Y17216407D01*
X36102319Y17191722D01*
X36102318Y17191717D01*
X36087000Y17095004D01*
X36087000Y16904998D01*
X36102318Y16808285D01*
X36102319Y16808279D01*
X36114897Y16783593D01*
X36119340Y16727131D01*
X36114897Y16716407D01*
X36102319Y16691722D01*
X36102318Y16691717D01*
X36087000Y16595005D01*
X36087000Y16404998D01*
X36102318Y16308285D01*
X36102319Y16308279D01*
X36114897Y16283593D01*
X36119340Y16227131D01*
X36114897Y16216407D01*
X36102319Y16191722D01*
X36102318Y16191717D01*
X36087000Y16095004D01*
X36087000Y15904998D01*
X36102318Y15808285D01*
X36102319Y15808279D01*
X36114897Y15783593D01*
X36119791Y15728571D01*
X36117882Y15722263D01*
X36102318Y15691715D01*
X36095371Y15647858D01*
X36093901Y15642998D01*
X36078919Y15624715D01*
X36066566Y15604558D01*
X36060262Y15601947D01*
X36058003Y15599190D01*
X36052221Y15598617D01*
X36034649Y15591338D01*
X35995783Y15585182D01*
X35995778Y15585181D01*
X35971093Y15572603D01*
X35914631Y15568160D01*
X35903907Y15572603D01*
X35879221Y15585181D01*
X35879216Y15585182D01*
X35782503Y15600500D01*
X35592497Y15600500D01*
X35495784Y15585182D01*
X35495778Y15585181D01*
X35471093Y15572603D01*
X35414631Y15568160D01*
X35403907Y15572603D01*
X35379221Y15585181D01*
X35379216Y15585182D01*
X35282503Y15600500D01*
X35092497Y15600500D01*
X34995784Y15585182D01*
X34995778Y15585181D01*
X34971093Y15572603D01*
X34914631Y15568160D01*
X34903907Y15572603D01*
X34879221Y15585181D01*
X34879216Y15585182D01*
X34782503Y15600500D01*
X34592497Y15600500D01*
X34495784Y15585182D01*
X34495778Y15585181D01*
X34471093Y15572603D01*
X34414631Y15568160D01*
X34403907Y15572603D01*
X34379221Y15585181D01*
X34379216Y15585182D01*
X34282503Y15600500D01*
X34092497Y15600500D01*
X33995784Y15585182D01*
X33995778Y15585181D01*
X33971093Y15572603D01*
X33914631Y15568160D01*
X33903907Y15572603D01*
X33879221Y15585181D01*
X33879216Y15585182D01*
X33782503Y15600500D01*
X33592497Y15600500D01*
X33495784Y15585182D01*
X33495778Y15585181D01*
X33471093Y15572603D01*
X33414631Y15568160D01*
X33403907Y15572603D01*
X33379221Y15585181D01*
X33379216Y15585182D01*
X33282503Y15600500D01*
X33092497Y15600500D01*
X32995784Y15585182D01*
X32995778Y15585181D01*
X32971093Y15572603D01*
X32914631Y15568160D01*
X32903907Y15572603D01*
X32879221Y15585181D01*
X32879216Y15585182D01*
X32782503Y15600500D01*
X32592497Y15600500D01*
X32495784Y15585182D01*
X32495778Y15585181D01*
X32471093Y15572603D01*
X32414631Y15568160D01*
X32403907Y15572603D01*
X32379221Y15585181D01*
X32379216Y15585182D01*
X32282503Y15600500D01*
X32092497Y15600500D01*
X31995784Y15585182D01*
X31995778Y15585181D01*
X31971093Y15572603D01*
X31914631Y15568160D01*
X31903907Y15572603D01*
X31879221Y15585181D01*
X31879216Y15585182D01*
X31782503Y15600500D01*
X31592497Y15600500D01*
X31495784Y15585182D01*
X31495778Y15585181D01*
X31471093Y15572603D01*
X31414631Y15568160D01*
X31403907Y15572603D01*
X31379221Y15585181D01*
X31379216Y15585182D01*
X31282503Y15600500D01*
X31092497Y15600500D01*
X30995784Y15585182D01*
X30995778Y15585181D01*
X30971093Y15572603D01*
X30916071Y15567709D01*
X30909762Y15569618D01*
X30879215Y15585182D01*
X30835354Y15592130D01*
X30830496Y15593599D01*
X30812215Y15608580D01*
X30792057Y15620933D01*
X30789445Y15627239D01*
X30786689Y15629497D01*
X30786115Y15635279D01*
X30778836Y15652852D01*
X30772682Y15691715D01*
X30760100Y15716407D01*
X30755656Y15772866D01*
X30760093Y15783580D01*
X30772682Y15808285D01*
X30788000Y15904997D01*
X30787999Y16095002D01*
X30772682Y16191715D01*
X30760100Y16216407D01*
X30755656Y16272866D01*
X30760093Y16283580D01*
X30772682Y16308285D01*
X30788000Y16404997D01*
X30787999Y16595002D01*
X30787184Y16600147D01*
X30778254Y16656535D01*
X30772682Y16691715D01*
X30760100Y16716407D01*
X30755656Y16772866D01*
X30760093Y16783580D01*
X30772682Y16808285D01*
X30788000Y16904997D01*
X30787999Y17095002D01*
X30787207Y17100000D01*
X30780658Y17141351D01*
X30772682Y17191715D01*
X30760100Y17216407D01*
X30755656Y17272866D01*
X30760093Y17283580D01*
X30772682Y17308285D01*
X30788000Y17404997D01*
X30787999Y17595002D01*
X30772682Y17691715D01*
X30760100Y17716407D01*
X30755656Y17772866D01*
X30760093Y17783580D01*
X30772682Y17808285D01*
X30788000Y17904997D01*
X30787999Y18095002D01*
X30772682Y18191715D01*
X30760100Y18216407D01*
X30755656Y18272866D01*
X30760093Y18283580D01*
X30772682Y18308285D01*
X30788000Y18404997D01*
X30787999Y18595002D01*
X30787128Y18600499D01*
X30781754Y18634433D01*
X30772682Y18691715D01*
X30760100Y18716407D01*
X30755656Y18772866D01*
X30760093Y18783580D01*
X30772682Y18808285D01*
X30788000Y18904997D01*
X30787999Y19095002D01*
X30787412Y19098706D01*
X30782286Y19131076D01*
X30772682Y19191715D01*
X30760100Y19216407D01*
X30755656Y19272866D01*
X30760093Y19283580D01*
X30772682Y19308285D01*
X30788000Y19404997D01*
X30787999Y19595002D01*
X30772682Y19691715D01*
X30760100Y19716407D01*
X30755656Y19772866D01*
X30760093Y19783580D01*
X30772682Y19808285D01*
X30788000Y19904997D01*
X30787999Y20095002D01*
X30787332Y20099211D01*
X30777052Y20164123D01*
X30772682Y20191715D01*
X30760100Y20216407D01*
X30755656Y20272866D01*
X30760093Y20283580D01*
X30772682Y20308285D01*
X30788000Y20404997D01*
X30787999Y20595002D01*
X30772682Y20691715D01*
X30760100Y20716408D01*
X30755206Y20771430D01*
X30757110Y20777725D01*
X30772682Y20808285D01*
X30779630Y20852159D01*
X30781097Y20857005D01*
X30796080Y20875290D01*
X30808429Y20895441D01*
X30814733Y20898053D01*
X30816995Y20900812D01*
X30822781Y20901387D01*
X30840348Y20908663D01*
X30879215Y20914818D01*
X30903904Y20927399D01*
X30960366Y20931843D01*
X30971087Y20927402D01*
X30995785Y20914818D01*
X31092497Y20899500D01*
X31282502Y20899501D01*
X31379215Y20914818D01*
X31403906Y20927400D01*
X31460366Y20931844D01*
X31471079Y20927407D01*
X31495785Y20914818D01*
X31592497Y20899500D01*
X31782502Y20899501D01*
X31879215Y20914818D01*
X31903906Y20927400D01*
X31960366Y20931844D01*
X31971079Y20927407D01*
X31995785Y20914818D01*
X32092497Y20899500D01*
X32282502Y20899501D01*
X32353369Y20910725D01*
X32400411Y20899431D01*
X32401542Y20901570D01*
X32406447Y20898978D01*
X32538037Y20852932D01*
X32538043Y20852931D01*
X32562500Y20850638D01*
X32562500Y21010278D01*
X32584174Y21062604D01*
X32588289Y21066719D01*
X32610775Y21110852D01*
X32623356Y21121598D01*
X32631621Y21135934D01*
X32644053Y21139275D01*
X32653842Y21147635D01*
X32670337Y21146337D01*
X32686318Y21150631D01*
X32697471Y21144202D01*
G37*
%TD.AperFunction*%
%TA.AperFunction,Conductor*%
G36*
X29190326Y17055644D02*
G01*
X29212000Y17003319D01*
X29212000Y16904998D01*
X29227318Y16808285D01*
X29227319Y16808279D01*
X29239897Y16783593D01*
X29244340Y16727131D01*
X29239897Y16716407D01*
X29227319Y16691722D01*
X29227318Y16691717D01*
X29212000Y16595005D01*
X29212000Y16404998D01*
X29227318Y16308285D01*
X29227319Y16308279D01*
X29239897Y16283593D01*
X29240375Y16277511D01*
X29244340Y16272869D01*
X29242540Y16250000D01*
X29244340Y16227131D01*
X29239897Y16216407D01*
X29239897Y16216406D01*
X29231238Y16199411D01*
X29188172Y16162627D01*
X29131709Y16167070D01*
X29106339Y16188291D01*
X29055426Y16255430D01*
X28937147Y16345123D01*
X28799055Y16399579D01*
X28712278Y16410000D01*
X28625000Y16410000D01*
X28625000Y15804000D01*
X28603326Y15751674D01*
X28551000Y15730000D01*
X28500000Y15730000D01*
X28500000Y15679000D01*
X28478326Y15626674D01*
X28426000Y15605000D01*
X28237633Y15605000D01*
X28189348Y15585000D01*
X27524000Y15585000D01*
X27471674Y15606674D01*
X27450000Y15659000D01*
X27450000Y15710000D01*
X27399000Y15710000D01*
X27346674Y15731674D01*
X27325000Y15784000D01*
X27325000Y16376716D01*
X27300636Y16390000D01*
X27575000Y16390000D01*
X27575000Y15835000D01*
X27712367Y15835000D01*
X27760652Y15855000D01*
X28375000Y15855000D01*
X28375000Y16410000D01*
X28287721Y16410000D01*
X28287719Y16409999D01*
X28200951Y16399581D01*
X28200947Y16399580D01*
X28062853Y16345123D01*
X28006524Y16302409D01*
X27951734Y16288063D01*
X27917099Y16302410D01*
X27887147Y16325123D01*
X27749055Y16379579D01*
X27662278Y16390000D01*
X27575000Y16390000D01*
X27300636Y16390000D01*
X27284075Y16399030D01*
X27277235Y16407507D01*
X27267174Y16411674D01*
X27260106Y16428737D01*
X27248510Y16443109D01*
X27249667Y16453939D01*
X27245500Y16464000D01*
X27245500Y16584816D01*
X27267174Y16637142D01*
X27362858Y16732826D01*
X27415184Y16754500D01*
X28658654Y16754500D01*
X28658654Y16754501D01*
X28721645Y16771379D01*
X28771957Y16784860D01*
X28830741Y16818799D01*
X28873544Y16843511D01*
X29085677Y17055646D01*
X29138000Y17077318D01*
X29190326Y17055644D01*
G37*
%TD.AperFunction*%
%TA.AperFunction,Conductor*%
G36*
X11686328Y17492204D02*
G01*
X11995972Y17343468D01*
X12017065Y17334165D01*
X12018480Y17333595D01*
X12018483Y17333594D01*
X12018488Y17333592D01*
X12032488Y17328966D01*
X12061519Y17319373D01*
X12061523Y17319373D01*
X12065679Y17318510D01*
X12065658Y17318413D01*
X12080592Y17315020D01*
X12105017Y17305909D01*
X12164627Y17299500D01*
X13175500Y17299501D01*
X13227826Y17277827D01*
X13249500Y17225501D01*
X13249500Y16774500D01*
X13227826Y16722174D01*
X13175500Y16700500D01*
X12164626Y16700500D01*
X12109863Y16694612D01*
X12105017Y16694091D01*
X12105015Y16694091D01*
X12105013Y16694090D01*
X12036176Y16668417D01*
X12030946Y16666685D01*
X11995974Y16656535D01*
X11995961Y16656530D01*
X11885074Y16603266D01*
X11828523Y16600147D01*
X11800709Y16617643D01*
X11708863Y16709489D01*
X11708861Y16709491D01*
X11606140Y16768797D01*
X11606138Y16768798D01*
X11606136Y16768799D01*
X11601725Y16769981D01*
X11581923Y16775288D01*
X11581923Y16775287D01*
X11491558Y16799500D01*
X11347602Y16799500D01*
X11295276Y16821174D01*
X11168775Y16947675D01*
X11147101Y17000001D01*
X11168775Y17052327D01*
X11366449Y17250000D01*
X11594275Y17477826D01*
X11646601Y17499500D01*
X11654287Y17499500D01*
X11686328Y17492204D01*
G37*
%TD.AperFunction*%
%TA.AperFunction,Conductor*%
G36*
X26637141Y21332826D02*
G01*
X26952794Y21017174D01*
X27243511Y20726457D01*
X27326457Y20643511D01*
X27326459Y20643510D01*
X27326460Y20643509D01*
X27361113Y20623502D01*
X27428043Y20584860D01*
X27430103Y20584308D01*
X27470133Y20573582D01*
X27470135Y20573582D01*
X27470141Y20573580D01*
X27508499Y20563302D01*
X27541347Y20554500D01*
X27541348Y20554500D01*
X27541349Y20554500D01*
X27756657Y20554500D01*
X27808983Y20532826D01*
X27830657Y20480500D01*
X27821250Y20444393D01*
X27807097Y20419075D01*
X27807091Y20419062D01*
X27783506Y20353304D01*
X27763247Y20254158D01*
X27759803Y20195606D01*
X27754298Y20171634D01*
X27726421Y20104333D01*
X27726418Y20104323D01*
X27705568Y19999500D01*
X27699500Y19968993D01*
X27699500Y19831007D01*
X27704021Y19808281D01*
X27705979Y19798437D01*
X27694930Y19742888D01*
X27647838Y19711422D01*
X27633401Y19710000D01*
X27625000Y19710000D01*
X27625000Y19074000D01*
X27603326Y19021674D01*
X27551000Y19000000D01*
X27449000Y19000000D01*
X27396674Y19021674D01*
X27375000Y19074000D01*
X27375000Y19710000D01*
X27374999Y19710001D01*
X27317722Y19710000D01*
X27317719Y19709999D01*
X27230951Y19699581D01*
X27230947Y19699580D01*
X27092852Y19645123D01*
X26974572Y19555429D01*
X26974571Y19555428D01*
X26884877Y19437148D01*
X26830421Y19299056D01*
X26820000Y19212279D01*
X26820000Y19098706D01*
X26816173Y19089469D01*
X26817479Y19079555D01*
X26805719Y19064229D01*
X26798326Y19046380D01*
X26789087Y19042554D01*
X26783001Y19034621D01*
X26763848Y19032100D01*
X26746000Y19024706D01*
X26726849Y19027227D01*
X26726848Y19027228D01*
X26726848Y19027227D01*
X26703033Y19033608D01*
X26703031Y19033609D01*
X26658654Y19045500D01*
X26658652Y19045500D01*
X26658651Y19045500D01*
X25864317Y19045500D01*
X25811991Y19067174D01*
X25790317Y19119500D01*
X25811991Y19171826D01*
X25820821Y19179367D01*
X25835263Y19189860D01*
X25839043Y19192606D01*
X25982394Y19335957D01*
X26101554Y19499967D01*
X26193590Y19680599D01*
X26199323Y19698241D01*
X26256234Y19873394D01*
X26256234Y19873397D01*
X26256237Y19873404D01*
X26287950Y20073636D01*
X26287950Y20276364D01*
X26286804Y20283597D01*
X26267577Y20404998D01*
X26256237Y20476596D01*
X26256235Y20476601D01*
X26256234Y20476607D01*
X26193593Y20669394D01*
X26193590Y20669398D01*
X26193590Y20669401D01*
X26111118Y20831263D01*
X26101554Y20850034D01*
X25982397Y21014039D01*
X25982396Y21014040D01*
X25982394Y21014043D01*
X25839043Y21157394D01*
X25839040Y21157397D01*
X25839038Y21157398D01*
X25752002Y21220633D01*
X25722409Y21268924D01*
X25735631Y21323996D01*
X25783922Y21353589D01*
X25795498Y21354500D01*
X26584815Y21354500D01*
X26637141Y21332826D01*
G37*
%TD.AperFunction*%
%TA.AperFunction,Conductor*%
G36*
X37746642Y24288436D02*
G01*
X37818436Y24260123D01*
X37887928Y24251779D01*
X37906896Y24249500D01*
X37906898Y24249500D01*
X38393103Y24249500D01*
X38401283Y24250483D01*
X38481564Y24260123D01*
X38481568Y24260125D01*
X38482978Y24260294D01*
X38537515Y24245014D01*
X38565274Y24195646D01*
X38560643Y24159675D01*
X38510123Y24031565D01*
X38501048Y23955991D01*
X38499500Y23943102D01*
X38499500Y23356898D01*
X38499500Y23356896D01*
X38499499Y23356896D01*
X38510123Y23268437D01*
X38510123Y23268435D01*
X38526789Y23226172D01*
X38530659Y23212780D01*
X38534376Y23193129D01*
X38579532Y23070297D01*
X38577244Y23013706D01*
X38562403Y22992438D01*
X37863141Y22293174D01*
X37810815Y22271500D01*
X37759651Y22271500D01*
X37642348Y22271500D01*
X37545315Y22245501D01*
X37529046Y22241141D01*
X37529038Y22241138D01*
X37427459Y22182491D01*
X37427457Y22182490D01*
X37427448Y22182480D01*
X36812479Y21567514D01*
X36802876Y21559419D01*
X36799400Y21556962D01*
X36793420Y21553689D01*
X36781252Y21544130D01*
X36779722Y21543047D01*
X36753787Y21537172D01*
X36728179Y21529996D01*
X36726435Y21530976D01*
X36724485Y21530534D01*
X36701992Y21544718D01*
X36678809Y21557752D01*
X36678107Y21559781D01*
X36676578Y21560745D01*
X36674307Y21570770D01*
X36662999Y21603468D01*
X36662999Y22009154D01*
X36664489Y22023930D01*
X36664597Y22024459D01*
X36665930Y22031000D01*
X36666380Y22036539D01*
X36663082Y22121491D01*
X36635111Y22296313D01*
X36635069Y22296487D01*
X36635027Y22296835D01*
X36634653Y22299176D01*
X36634747Y22299192D01*
X36633000Y22313864D01*
X36633000Y22572316D01*
X36654674Y22624642D01*
X37103162Y23073130D01*
X37556488Y23526456D01*
X37561704Y23535489D01*
X37615140Y23628043D01*
X37645499Y23741347D01*
X37645500Y23741347D01*
X37645500Y24219594D01*
X37650900Y24232633D01*
X37650660Y24246743D01*
X37661309Y24257762D01*
X37667174Y24271920D01*
X37680213Y24277321D01*
X37690020Y24287468D01*
X37705341Y24287730D01*
X37719500Y24293594D01*
X37746642Y24288436D01*
G37*
%TD.AperFunction*%
%TA.AperFunction,Conductor*%
G36*
X52002065Y30699385D02*
G01*
X52298112Y30682759D01*
X52306346Y30681830D01*
X52596603Y30632514D01*
X52604671Y30630673D01*
X52887605Y30549161D01*
X52895418Y30546427D01*
X53167428Y30433756D01*
X53174904Y30430156D01*
X53432594Y30287737D01*
X53439608Y30283329D01*
X53679716Y30112963D01*
X53686203Y30107791D01*
X53905741Y29911600D01*
X53911604Y29905737D01*
X54107789Y29686205D01*
X54112962Y29679717D01*
X54283324Y29439615D01*
X54287740Y29432588D01*
X54430155Y29174905D01*
X54433755Y29167429D01*
X54546422Y28895429D01*
X54549163Y28887596D01*
X54630669Y28604683D01*
X54632515Y28596592D01*
X54681828Y28306353D01*
X54682758Y28298107D01*
X54699384Y28002066D01*
X54699500Y27997917D01*
X54699500Y3002084D01*
X54699384Y2997935D01*
X54682758Y2701894D01*
X54681828Y2693648D01*
X54632515Y2403409D01*
X54630669Y2395318D01*
X54549163Y2112405D01*
X54546422Y2104572D01*
X54433755Y1832572D01*
X54430155Y1825096D01*
X54287740Y1567413D01*
X54283324Y1560386D01*
X54112962Y1320284D01*
X54107789Y1313796D01*
X53911604Y1094264D01*
X53905736Y1088396D01*
X53686204Y892211D01*
X53679716Y887038D01*
X53439614Y716676D01*
X53432587Y712260D01*
X53174904Y569845D01*
X53167428Y566245D01*
X52895428Y453578D01*
X52887595Y450837D01*
X52604682Y369331D01*
X52596591Y367485D01*
X52306352Y318172D01*
X52298106Y317242D01*
X52002066Y300616D01*
X51997917Y300500D01*
X3002083Y300500D01*
X2997934Y300616D01*
X2701893Y317242D01*
X2693647Y318172D01*
X2403408Y367485D01*
X2395317Y369331D01*
X2112404Y450837D01*
X2104571Y453578D01*
X1832571Y566245D01*
X1825095Y569845D01*
X1567412Y712260D01*
X1560385Y716676D01*
X1320283Y887038D01*
X1313795Y892211D01*
X1282612Y920078D01*
X1094258Y1088401D01*
X1088400Y1094259D01*
X892209Y1313797D01*
X887037Y1320284D01*
X795353Y1449500D01*
X716671Y1560392D01*
X712263Y1567406D01*
X569844Y1825096D01*
X566244Y1832572D01*
X497100Y1999500D01*
X453573Y2104582D01*
X450839Y2112395D01*
X369327Y2395329D01*
X367486Y2403397D01*
X318170Y2693654D01*
X317241Y2701894D01*
X305872Y2904333D01*
X300616Y2997935D01*
X300500Y3002084D01*
X300500Y9060374D01*
X12349500Y9060374D01*
X12349500Y7939627D01*
X12355909Y7880015D01*
X12406202Y7745171D01*
X12406203Y7745170D01*
X12406204Y7745169D01*
X12492454Y7629954D01*
X12605995Y7544957D01*
X12607669Y7543704D01*
X12607670Y7543703D01*
X12718605Y7502328D01*
X12742517Y7493409D01*
X12802127Y7487000D01*
X13197872Y7487001D01*
X13257483Y7493409D01*
X13324907Y7518557D01*
X13392329Y7543703D01*
X13392329Y7543704D01*
X13392331Y7543704D01*
X13507546Y7629954D01*
X13593796Y7745169D01*
X13599207Y7759675D01*
X13612882Y7796341D01*
X13644091Y7880017D01*
X13650500Y7939627D01*
X13650499Y9060372D01*
X13650485Y9060499D01*
X13647803Y9085451D01*
X13644091Y9119983D01*
X13644089Y9119988D01*
X13593797Y9254830D01*
X13593796Y9254831D01*
X13584556Y9267174D01*
X13507546Y9370046D01*
X13401699Y9449283D01*
X13392330Y9456297D01*
X13392329Y9456298D01*
X13257487Y9506590D01*
X13257484Y9506591D01*
X13257483Y9506591D01*
X13197873Y9513000D01*
X12802127Y9513000D01*
X12742514Y9506591D01*
X12607670Y9456298D01*
X12607669Y9456297D01*
X12492454Y9370046D01*
X12406203Y9254831D01*
X12406202Y9254830D01*
X12355910Y9119988D01*
X12355909Y9119983D01*
X12349500Y9060374D01*
X300500Y9060374D01*
X300500Y10773115D01*
X4560000Y10773115D01*
X4570325Y10687142D01*
X4624276Y10550327D01*
X4713140Y10433142D01*
X4713141Y10433141D01*
X4830326Y10344277D01*
X4967141Y10290326D01*
X5053115Y10280000D01*
X5105000Y10280000D01*
X5105000Y10875000D01*
X4560000Y10875000D01*
X4560000Y10773115D01*
X300500Y10773115D01*
X300500Y13485001D01*
X707231Y13485001D01*
X707232Y13485000D01*
X1325758Y13485000D01*
X1320444Y13475796D01*
X1300000Y13399496D01*
X1300000Y13320504D01*
X1320444Y13244204D01*
X1325758Y13235000D01*
X707231Y13235000D01*
X734584Y13097487D01*
X734587Y13097476D01*
X802427Y12933695D01*
X900923Y12786284D01*
X1026283Y12660924D01*
X1173695Y12562428D01*
X1173694Y12562428D01*
X1337475Y12494588D01*
X1337486Y12494585D01*
X1511359Y12460000D01*
X1875000Y12460000D01*
X1875000Y13060000D01*
X2125000Y13060000D01*
X2125000Y12460000D01*
X2488641Y12460000D01*
X2662513Y12494585D01*
X2662524Y12494588D01*
X2826305Y12562428D01*
X2973716Y12660924D01*
X2973718Y12660925D01*
X3099075Y12786282D01*
X3099076Y12786284D01*
X3197572Y12933695D01*
X3265412Y13097476D01*
X3265415Y13097487D01*
X3292768Y13235000D01*
X2674242Y13235000D01*
X2679556Y13244204D01*
X2700000Y13320504D01*
X2700000Y13399496D01*
X2679556Y13475796D01*
X2674242Y13485000D01*
X3292768Y13485000D01*
X3292768Y13485001D01*
X3265415Y13622514D01*
X3265412Y13622525D01*
X3197572Y13786306D01*
X3099076Y13933717D01*
X2973716Y14059077D01*
X2826304Y14157573D01*
X2826305Y14157573D01*
X2662524Y14225413D01*
X2662513Y14225416D01*
X2488641Y14260000D01*
X2125000Y14260000D01*
X2125000Y13660000D01*
X1875000Y13660000D01*
X1875000Y14260000D01*
X1511359Y14260000D01*
X1337486Y14225416D01*
X1337475Y14225413D01*
X1173694Y14157573D01*
X1026283Y14059077D01*
X1026282Y14059075D01*
X900925Y13933718D01*
X900923Y13933717D01*
X802427Y13786306D01*
X734587Y13622525D01*
X734584Y13622514D01*
X707231Y13485001D01*
X300500Y13485001D01*
X300500Y22125001D01*
X707231Y22125001D01*
X707232Y22125000D01*
X1325758Y22125000D01*
X1320444Y22115796D01*
X1300000Y22039496D01*
X1300000Y21960504D01*
X1320444Y21884204D01*
X1325758Y21875000D01*
X707231Y21875000D01*
X734584Y21737487D01*
X734587Y21737476D01*
X802427Y21573695D01*
X900923Y21426284D01*
X1026283Y21300924D01*
X1173695Y21202428D01*
X1173694Y21202428D01*
X1337475Y21134588D01*
X1337486Y21134585D01*
X1511359Y21100000D01*
X1875000Y21100000D01*
X1875000Y21700000D01*
X2125000Y21700000D01*
X2125000Y21100000D01*
X2488641Y21100000D01*
X2662513Y21134585D01*
X2662524Y21134588D01*
X2826305Y21202428D01*
X2973716Y21300924D01*
X2973718Y21300925D01*
X3099075Y21426282D01*
X3099076Y21426284D01*
X3197572Y21573695D01*
X3265412Y21737476D01*
X3265415Y21737487D01*
X3292768Y21875000D01*
X2674242Y21875000D01*
X2679556Y21884204D01*
X2700000Y21960504D01*
X2700000Y22039496D01*
X2679556Y22115796D01*
X2674242Y22125000D01*
X3292768Y22125000D01*
X3292768Y22125001D01*
X3265415Y22262514D01*
X3265413Y22262521D01*
X3214333Y22385840D01*
X3214333Y22385841D01*
X3204611Y22409312D01*
X3899500Y22409312D01*
X3899500Y20666865D01*
X3921621Y20584310D01*
X3921621Y20584309D01*
X3930199Y20552294D01*
X3930203Y20552285D01*
X3989508Y20449566D01*
X3989509Y20449565D01*
X3989511Y20449562D01*
X4722670Y19716403D01*
X5432247Y19006826D01*
X5453921Y18954500D01*
X5432247Y18902174D01*
X5379921Y18880500D01*
X5370689Y18880500D01*
X5284363Y18857369D01*
X5256117Y18849801D01*
X5256108Y18849797D01*
X5153389Y18790492D01*
X4839508Y18476611D01*
X4780201Y18373888D01*
X4778976Y18369315D01*
X4778975Y18369313D01*
X4749500Y18259312D01*
X4749500Y17540692D01*
X4773712Y17450328D01*
X4780200Y17426117D01*
X4780203Y17426109D01*
X4839508Y17323390D01*
X4839509Y17323389D01*
X4839511Y17323386D01*
X5093386Y17069511D01*
X5144816Y17039818D01*
X5196114Y17010201D01*
X5196115Y17010201D01*
X5196117Y17010200D01*
X5234184Y17000000D01*
X5310688Y16979501D01*
X5310689Y16979500D01*
X5310691Y16979500D01*
X5755500Y16979500D01*
X5807826Y16957826D01*
X5829500Y16905500D01*
X5829500Y16821512D01*
X5845281Y16721873D01*
X5849500Y16713592D01*
X5853941Y16657129D01*
X5849500Y16646408D01*
X5845281Y16638128D01*
X5829500Y16538489D01*
X5829500Y16447722D01*
X5807826Y16395396D01*
X5774653Y16376244D01*
X5700931Y16356491D01*
X5700932Y16356490D01*
X5675964Y16349800D01*
X5675957Y16349797D01*
X5573238Y16290492D01*
X4189508Y14906762D01*
X4130203Y14804043D01*
X4130200Y14804035D01*
X4124685Y14783455D01*
X4103731Y14705248D01*
X4099500Y14689459D01*
X4099500Y12290689D01*
X4130199Y12176118D01*
X4130201Y12176113D01*
X4189508Y12073391D01*
X4189509Y12073390D01*
X4189511Y12073387D01*
X4273387Y11989511D01*
X4273389Y11989510D01*
X4273390Y11989509D01*
X4376112Y11930202D01*
X4376114Y11930201D01*
X4376115Y11930201D01*
X4376117Y11930200D01*
X4433402Y11914851D01*
X4490688Y11899501D01*
X4490689Y11899500D01*
X4490691Y11899500D01*
X4682745Y11899500D01*
X4735071Y11877826D01*
X4842518Y11770379D01*
X4864192Y11718053D01*
X4842518Y11665727D01*
X4833998Y11659257D01*
X4834359Y11658781D01*
X4713141Y11566860D01*
X4713140Y11566859D01*
X4624276Y11449674D01*
X4570325Y11312859D01*
X4560000Y11226886D01*
X4560000Y11125000D01*
X5156000Y11125000D01*
X5208326Y11103326D01*
X5230000Y11051000D01*
X5230000Y11000000D01*
X5281000Y11000000D01*
X5333326Y10978326D01*
X5355000Y10926000D01*
X5355000Y10280000D01*
X5406885Y10280000D01*
X5492858Y10290326D01*
X5629671Y10344276D01*
X5736264Y10425108D01*
X5791054Y10439455D01*
X5825321Y10425386D01*
X5879932Y10384505D01*
X5879933Y10384505D01*
X5879934Y10384504D01*
X5945335Y10360111D01*
X6010738Y10335716D01*
X6068557Y10329500D01*
X6431442Y10329501D01*
X6431443Y10329501D01*
X6431443Y10329502D01*
X6489262Y10335716D01*
X6620068Y10384505D01*
X6731831Y10468169D01*
X6815495Y10579932D01*
X6864284Y10710738D01*
X6870500Y10768557D01*
X6870499Y11231442D01*
X6864284Y11289262D01*
X6815495Y11420068D01*
X6731831Y11531831D01*
X6620068Y11615495D01*
X6620067Y11615496D01*
X6620068Y11615496D01*
X6489263Y11664284D01*
X6489260Y11664285D01*
X6431445Y11670500D01*
X6431443Y11670500D01*
X6414187Y11670500D01*
X6384148Y11676871D01*
X6356577Y11689117D01*
X6264687Y11729932D01*
X6083819Y11810268D01*
X6061532Y11825571D01*
X5553429Y12333674D01*
X5531755Y12386000D01*
X5553429Y12438326D01*
X5605755Y12460000D01*
X6055000Y12460000D01*
X6055000Y13060000D01*
X6305000Y13060000D01*
X6305000Y12460000D01*
X6818641Y12460000D01*
X6992513Y12494585D01*
X6992524Y12494588D01*
X7156305Y12562428D01*
X7303716Y12660924D01*
X7303718Y12660925D01*
X7429075Y12786282D01*
X7429076Y12786284D01*
X7527572Y12933695D01*
X7595412Y13097476D01*
X7595415Y13097487D01*
X7622768Y13235000D01*
X7004242Y13235000D01*
X7009556Y13244204D01*
X7030000Y13320504D01*
X7030000Y13399496D01*
X7009556Y13475796D01*
X7004242Y13485000D01*
X7622768Y13485000D01*
X7622768Y13485001D01*
X7595415Y13622514D01*
X7595412Y13622525D01*
X7527572Y13786306D01*
X7514407Y13806009D01*
X7503358Y13861558D01*
X7531223Y13906085D01*
X7572563Y13937434D01*
X7663922Y14057908D01*
X7719385Y14198557D01*
X7730000Y14286939D01*
X7730000Y14355000D01*
X6880000Y14355000D01*
X6880000Y13774000D01*
X6858326Y13721674D01*
X6806000Y13700000D01*
X6704000Y13700000D01*
X6651674Y13721674D01*
X6630000Y13774000D01*
X6630000Y14355000D01*
X6025400Y14355000D01*
X6002688Y14364408D01*
X5979090Y14371282D01*
X5977030Y14375036D01*
X5973074Y14376674D01*
X5963667Y14399385D01*
X5951841Y14420933D01*
X5953172Y14424721D01*
X5951400Y14429000D01*
X5967682Y14475310D01*
X5970214Y14478467D01*
X6020485Y14528737D01*
X6045982Y14572900D01*
X6049521Y14577310D01*
X6069765Y14588421D01*
X6088086Y14602478D01*
X6097682Y14603742D01*
X6099172Y14604559D01*
X6100640Y14604132D01*
X6107239Y14605000D01*
X7730000Y14605000D01*
X7730000Y14605500D01*
X7751674Y14657826D01*
X7804000Y14679500D01*
X10290613Y14679500D01*
X10342938Y14657827D01*
X11131284Y13869480D01*
X11238657Y13807489D01*
X11268218Y13790422D01*
X11352353Y13767878D01*
X11420940Y13749500D01*
X11420941Y13749499D01*
X11420943Y13749499D01*
X11583588Y13749499D01*
X11583604Y13749500D01*
X13770943Y13749500D01*
X14020613Y13749500D01*
X14072939Y13727826D01*
X14133836Y13666929D01*
X14155510Y13614603D01*
X14152181Y13592657D01*
X14030021Y13199267D01*
X14027251Y13185240D01*
X14023923Y13173547D01*
X14023479Y13172366D01*
X14014313Y13150236D01*
X14013854Y13146755D01*
X14010925Y13138959D01*
X14009542Y13137482D01*
X14004736Y13126301D01*
X13676898Y12591775D01*
X13666143Y12578138D01*
X13089105Y12001100D01*
X13072964Y11988877D01*
X13068944Y11986624D01*
X13068925Y11986611D01*
X12841223Y11803931D01*
X12802827Y11788075D01*
X12742514Y11781591D01*
X12607670Y11731298D01*
X12607669Y11731297D01*
X12492454Y11645046D01*
X12406203Y11529831D01*
X12406202Y11529830D01*
X12355910Y11394988D01*
X12355909Y11394983D01*
X12349500Y11335374D01*
X12349500Y10214627D01*
X12355909Y10155015D01*
X12406202Y10020171D01*
X12406203Y10020170D01*
X12406204Y10020169D01*
X12492454Y9904954D01*
X12556157Y9857266D01*
X12607669Y9818704D01*
X12607670Y9818703D01*
X12718605Y9777328D01*
X12742517Y9768409D01*
X12802127Y9762000D01*
X13197872Y9762001D01*
X13257483Y9768409D01*
X13333727Y9796846D01*
X13392329Y9818703D01*
X13392329Y9818704D01*
X13392331Y9818704D01*
X13507546Y9904954D01*
X13593796Y10020169D01*
X13644091Y10155017D01*
X13650500Y10214627D01*
X13650499Y10653266D01*
X13652553Y10670580D01*
X13653184Y10673203D01*
X13655340Y10687142D01*
X13765084Y11396803D01*
X13785887Y11437816D01*
X14155780Y11807709D01*
X14167829Y11812700D01*
X14176608Y11822344D01*
X14192970Y11823114D01*
X14208105Y11829382D01*
X14220155Y11824391D01*
X14233182Y11825003D01*
X14245295Y11813978D01*
X14260431Y11807708D01*
X14275067Y11786879D01*
X14284562Y11766693D01*
X14291147Y11727024D01*
X14247101Y11330612D01*
X14247101Y11330609D01*
X14247101Y11330607D01*
X14248042Y11311486D01*
X14249411Y11283668D01*
X14249500Y11280031D01*
X14249500Y10214627D01*
X14255909Y10155015D01*
X14306202Y10020171D01*
X14306203Y10020170D01*
X14306204Y10020169D01*
X14392454Y9904954D01*
X14456157Y9857266D01*
X14507669Y9818704D01*
X14507670Y9818703D01*
X14618605Y9777328D01*
X14642517Y9768409D01*
X14702127Y9762000D01*
X15097872Y9762001D01*
X15157483Y9768409D01*
X15233727Y9796846D01*
X15292329Y9818703D01*
X15292329Y9818704D01*
X15292331Y9818704D01*
X15407546Y9904954D01*
X15493796Y10020169D01*
X15544091Y10155017D01*
X15550500Y10214627D01*
X15550500Y10288111D01*
X15875000Y10288111D01*
X15875000Y10125000D01*
X16625000Y10125000D01*
X16875000Y10125000D01*
X17625000Y10125000D01*
X17625000Y10288111D01*
X17622210Y10323552D01*
X17578154Y10475192D01*
X17497771Y10611112D01*
X17386111Y10722772D01*
X17250191Y10803155D01*
X17098551Y10847211D01*
X17063110Y10850000D01*
X16875000Y10850000D01*
X16875000Y10125000D01*
X16625000Y10125000D01*
X16625000Y10850000D01*
X16436890Y10850000D01*
X16401448Y10847211D01*
X16249808Y10803155D01*
X16113888Y10722772D01*
X16002228Y10611112D01*
X15921845Y10475192D01*
X15877789Y10323552D01*
X15875000Y10288111D01*
X15550500Y10288111D01*
X15550499Y10749206D01*
X15550499Y11280067D01*
X15550589Y11283706D01*
X15552898Y11330603D01*
X15552898Y11330607D01*
X15552898Y11330609D01*
X15504482Y11766351D01*
X15504213Y11768699D01*
X15504212Y11768702D01*
X15503934Y11771133D01*
X15504253Y11790394D01*
X15505165Y11796547D01*
X15600477Y12439907D01*
X15603567Y12515053D01*
X15603248Y12519963D01*
X15602944Y12521447D01*
X15602001Y12526060D01*
X15600500Y12540889D01*
X15600500Y13037719D01*
X15595956Y13072238D01*
X15585687Y13150236D01*
X15575899Y13173866D01*
X15570947Y13192168D01*
X15569979Y13199261D01*
X15408031Y13720776D01*
X15403829Y13734309D01*
X15400500Y13756255D01*
X15400500Y13764971D01*
X15400501Y13764984D01*
X15400501Y13929059D01*
X15400500Y13929060D01*
X15398334Y13937142D01*
X15388343Y13974430D01*
X15359578Y14081782D01*
X15349800Y14098718D01*
X15280520Y14218716D01*
X14780521Y14718715D01*
X14780520Y14718716D01*
X14668716Y14830520D01*
X14561792Y14892252D01*
X14531785Y14909577D01*
X14500242Y14918030D01*
X14495379Y14920111D01*
X14479005Y14936875D01*
X14460413Y14951141D01*
X14458652Y14957712D01*
X14455804Y14960628D01*
X14455891Y14968019D01*
X14450500Y14988140D01*
X14450500Y15325501D01*
X14472174Y15377827D01*
X14524500Y15399501D01*
X15560372Y15399501D01*
X15619983Y15405909D01*
X15695747Y15434167D01*
X15754829Y15456203D01*
X15754829Y15456204D01*
X15754831Y15456204D01*
X15870046Y15542454D01*
X15956296Y15657669D01*
X15956793Y15659000D01*
X15988408Y15743766D01*
X16006591Y15792517D01*
X16010880Y15832412D01*
X16038024Y15882120D01*
X16084456Y15898500D01*
X16628963Y15898500D01*
X16719327Y15922714D01*
X16719328Y15922714D01*
X16730004Y15925575D01*
X16743541Y15929201D01*
X16846268Y15988511D01*
X17311490Y16453732D01*
X17370799Y16556459D01*
X17381126Y16595002D01*
X17401500Y16671037D01*
X17401500Y17328963D01*
X17401500Y17328965D01*
X17401499Y17328966D01*
X17400259Y17333592D01*
X17373859Y17432120D01*
X17370799Y17443541D01*
X17311490Y17546268D01*
X17274756Y17583002D01*
X17253082Y17635328D01*
X17274756Y17687654D01*
X17377592Y17790490D01*
X17485625Y17898524D01*
X17537949Y17920196D01*
X17590275Y17898522D01*
X17611949Y17846196D01*
X17609428Y17827045D01*
X17604500Y17808653D01*
X17604500Y17808651D01*
X17604500Y15758652D01*
X17604500Y15641348D01*
X17609225Y15623714D01*
X17617883Y15591401D01*
X17617882Y15591401D01*
X17634858Y15528047D01*
X17634860Y15528042D01*
X17650997Y15500093D01*
X17661928Y15481160D01*
X17693511Y15426456D01*
X21030418Y12089549D01*
X24248142Y8871826D01*
X24269816Y8819500D01*
X24248142Y8767174D01*
X24195816Y8745500D01*
X18891347Y8745500D01*
X18778047Y8715142D01*
X18778038Y8715138D01*
X18718582Y8680810D01*
X18676456Y8656489D01*
X17917291Y7897325D01*
X17864965Y7875651D01*
X17812639Y7897325D01*
X17790965Y7949651D01*
X17791016Y7952390D01*
X17791205Y7957480D01*
X17803550Y8290782D01*
X17803597Y8315759D01*
X17803018Y8333165D01*
X17802852Y8336798D01*
X17802609Y8342107D01*
X17802608Y8342113D01*
X17776636Y8456222D01*
X17771838Y8467922D01*
X17750132Y8520858D01*
X17750130Y8520860D01*
X17750128Y8520867D01*
X17698806Y8608070D01*
X17698799Y8608079D01*
X17580592Y8755838D01*
X17565009Y8792406D01*
X17560687Y8825236D01*
X17502698Y8965233D01*
X17410451Y9085451D01*
X17345586Y9135224D01*
X17317268Y9184274D01*
X17331927Y9238981D01*
X17352967Y9257627D01*
X17386109Y9277228D01*
X17386110Y9277228D01*
X17497771Y9388889D01*
X17578154Y9524809D01*
X17622210Y9676449D01*
X17625000Y9711890D01*
X17625000Y9875000D01*
X15875000Y9875000D01*
X15875000Y9711890D01*
X15877789Y9676447D01*
X15878169Y9675141D01*
X15878115Y9674661D01*
X15878469Y9672726D01*
X15877890Y9672621D01*
X15871950Y9618846D01*
X15827747Y9583437D01*
X15807106Y9580500D01*
X14824801Y9580500D01*
X14755094Y9573598D01*
X14755077Y9573596D01*
X14707394Y9564060D01*
X14640375Y9543615D01*
X14439575Y9459949D01*
X14434005Y9457572D01*
X14430203Y9455912D01*
X14430190Y9455905D01*
X14419692Y9449283D01*
X14412563Y9448060D01*
X14363945Y9419074D01*
X14335037Y9399867D01*
X14335031Y9399862D01*
X14306252Y9370194D01*
X14301602Y9365797D01*
X14286868Y9353029D01*
X14229604Y9289879D01*
X14229601Y9289875D01*
X14217956Y9265833D01*
X14214668Y9259781D01*
X14213816Y9258375D01*
X14174096Y9182916D01*
X14174096Y9182915D01*
X14165926Y9142407D01*
X14165927Y9142406D01*
X14164730Y9136472D01*
X14164494Y9136540D01*
X14158898Y9117480D01*
X14153921Y9082870D01*
X14153509Y9080826D01*
X14153508Y9080819D01*
X14150965Y9068202D01*
X14150964Y9068197D01*
X14150841Y9064532D01*
X14150130Y9056500D01*
X14144501Y9017342D01*
X14144500Y9017327D01*
X14144500Y8416605D01*
X14147645Y8369419D01*
X14147646Y8369412D01*
X14150602Y8347342D01*
X14152014Y8336798D01*
X14156270Y8315770D01*
X14161397Y8290434D01*
X14246893Y7976946D01*
X14249500Y7957480D01*
X14249500Y7939628D01*
X14249501Y7939626D01*
X14255909Y7880015D01*
X14306202Y7745171D01*
X14306203Y7745169D01*
X14346340Y7691555D01*
X14350237Y7685805D01*
X14362647Y7665496D01*
X14375600Y7644297D01*
X14421352Y7591483D01*
X14475032Y7544957D01*
X14497810Y7525215D01*
X14819863Y7318181D01*
X14993205Y7206747D01*
X15025500Y7160220D01*
X15015436Y7104484D01*
X14968909Y7072189D01*
X14953189Y7070500D01*
X6594499Y7070500D01*
X6542173Y7092174D01*
X6541074Y7093297D01*
X6536577Y7097989D01*
X6532951Y7103416D01*
X6495081Y7141286D01*
X6494552Y7141838D01*
X6484540Y7167539D01*
X6473977Y7193041D01*
X6474301Y7193824D01*
X6473994Y7194612D01*
X6485085Y7219861D01*
X6495651Y7245367D01*
X6496688Y7246272D01*
X6496774Y7246466D01*
X6497022Y7246563D01*
X6503258Y7252001D01*
X6542922Y7282078D01*
X6634361Y7402658D01*
X6689877Y7543436D01*
X6700500Y7631898D01*
X6700500Y8118102D01*
X6689877Y8206564D01*
X6634361Y8347342D01*
X6542922Y8467922D01*
X6422342Y8559361D01*
X6422341Y8559362D01*
X6298825Y8608070D01*
X6281564Y8614877D01*
X6252076Y8618418D01*
X6193104Y8625500D01*
X6193102Y8625500D01*
X5206898Y8625500D01*
X5206896Y8625500D01*
X5118436Y8614877D01*
X4977658Y8559362D01*
X4857078Y8467923D01*
X4857077Y8467922D01*
X4765638Y8347342D01*
X4743201Y8290444D01*
X4710123Y8206564D01*
X4699500Y8118102D01*
X4699500Y7631898D01*
X4699500Y7631896D01*
X4699499Y7631896D01*
X4704353Y7591483D01*
X4710123Y7543436D01*
X4726353Y7502279D01*
X4765638Y7402659D01*
X4857077Y7282079D01*
X4857078Y7282078D01*
X4896734Y7252006D01*
X4925332Y7203119D01*
X4910985Y7148329D01*
X4904348Y7140717D01*
X4867050Y7103418D01*
X4867048Y7103416D01*
X4784915Y6980495D01*
X4728343Y6843918D01*
X4728340Y6843908D01*
X4699500Y6698917D01*
X4699500Y6551084D01*
X4728340Y6406093D01*
X4728343Y6406083D01*
X4784915Y6269506D01*
X4867048Y6146585D01*
X4961307Y6052326D01*
X4982981Y6000000D01*
X4961307Y5947674D01*
X4867050Y5853417D01*
X4867048Y5853416D01*
X4784915Y5730495D01*
X4728343Y5593918D01*
X4728340Y5593908D01*
X4711772Y5510612D01*
X4699500Y5448918D01*
X4699500Y5301082D01*
X4705536Y5270738D01*
X4728340Y5156093D01*
X4728343Y5156083D01*
X4784915Y5019506D01*
X4867048Y4896585D01*
X4926305Y4837328D01*
X4947979Y4785002D01*
X4926305Y4732676D01*
X4828600Y4634971D01*
X4828598Y4634970D01*
X4741047Y4503939D01*
X4680743Y4358352D01*
X4680741Y4358345D01*
X4659190Y4250001D01*
X4659191Y4250000D01*
X5481178Y4250000D01*
X5450000Y4174728D01*
X5450000Y4075272D01*
X5481178Y4000000D01*
X4659190Y4000000D01*
X4680741Y3891656D01*
X4680743Y3891649D01*
X4741047Y3746062D01*
X4828598Y3615031D01*
X4940030Y3503599D01*
X5071061Y3416048D01*
X5216648Y3355744D01*
X5216655Y3355742D01*
X5371208Y3325000D01*
X5575000Y3325000D01*
X5575000Y3906179D01*
X5650272Y3875000D01*
X5749728Y3875000D01*
X5825000Y3906179D01*
X5825000Y3325000D01*
X6028792Y3325000D01*
X6183344Y3355742D01*
X6183351Y3355744D01*
X6328938Y3416048D01*
X6459969Y3503599D01*
X6459971Y3503600D01*
X6571400Y3615029D01*
X6571401Y3615031D01*
X6658952Y3746062D01*
X6719256Y3891649D01*
X6719258Y3891656D01*
X6740809Y4000000D01*
X5918822Y4000000D01*
X5950000Y4075272D01*
X5950000Y4174728D01*
X5918822Y4250000D01*
X6740809Y4250000D01*
X6740809Y4250001D01*
X6719258Y4358345D01*
X6719256Y4358352D01*
X6658952Y4503939D01*
X6571401Y4634970D01*
X6473695Y4732676D01*
X6452021Y4785002D01*
X6473695Y4837328D01*
X6519193Y4882826D01*
X6571519Y4904500D01*
X7808654Y4904500D01*
X7808654Y4904501D01*
X7910152Y4931697D01*
X7921957Y4934860D01*
X7976572Y4966392D01*
X8023544Y4993511D01*
X8712858Y5682827D01*
X8765184Y5704500D01*
X17808653Y5704500D01*
X17820971Y5707802D01*
X17905666Y5730495D01*
X17921957Y5734860D01*
X17974403Y5765140D01*
X18023544Y5793511D01*
X18599025Y6368992D01*
X23299500Y6368992D01*
X23299500Y6231009D01*
X23326418Y6095678D01*
X23326421Y6095668D01*
X23379224Y5968191D01*
X23379225Y5968189D01*
X23387027Y5956513D01*
X23399500Y5915399D01*
X23399500Y4884603D01*
X23387029Y4843491D01*
X23379224Y4831811D01*
X23326421Y4704333D01*
X23326418Y4704323D01*
X23299500Y4568992D01*
X23299500Y4431009D01*
X23326418Y4295678D01*
X23326421Y4295668D01*
X23379224Y4168191D01*
X23379225Y4168189D01*
X23387027Y4156513D01*
X23399500Y4115399D01*
X23399500Y3084603D01*
X23387029Y3043491D01*
X23379224Y3031811D01*
X23326421Y2904333D01*
X23326418Y2904323D01*
X23299500Y2768992D01*
X23299500Y2631009D01*
X23326418Y2495678D01*
X23326421Y2495668D01*
X23379223Y2368192D01*
X23379224Y2368190D01*
X23379225Y2368189D01*
X23455886Y2253458D01*
X23553458Y2155886D01*
X23668189Y2079225D01*
X23795672Y2026420D01*
X23931007Y1999500D01*
X23931009Y1999500D01*
X24068991Y1999500D01*
X24068993Y1999500D01*
X24204328Y2026420D01*
X24331811Y2079225D01*
X24446542Y2155886D01*
X24544114Y2253458D01*
X24620775Y2368189D01*
X24627228Y2383767D01*
X44849500Y2383767D01*
X44849500Y2216234D01*
X44882182Y2051925D01*
X44882184Y2051918D01*
X44946296Y1897138D01*
X44994433Y1825096D01*
X45039374Y1757838D01*
X45157838Y1639374D01*
X45297137Y1546297D01*
X45451918Y1482184D01*
X45616233Y1449500D01*
X45616234Y1449500D01*
X45783766Y1449500D01*
X45783767Y1449500D01*
X45948082Y1482184D01*
X46102863Y1546297D01*
X46242162Y1639374D01*
X46360626Y1757838D01*
X46453703Y1897137D01*
X46517816Y2051918D01*
X46550500Y2216233D01*
X46550500Y2383767D01*
X46517816Y2548082D01*
X46453703Y2702863D01*
X46360626Y2842162D01*
X46242162Y2960626D01*
X46242158Y2960629D01*
X46102862Y3053704D01*
X45948082Y3117816D01*
X45948075Y3117818D01*
X45824288Y3142440D01*
X45783767Y3150500D01*
X45616233Y3150500D01*
X45583728Y3144035D01*
X45451924Y3117818D01*
X45451917Y3117816D01*
X45297137Y3053704D01*
X45157841Y2960629D01*
X45039371Y2842159D01*
X44946296Y2702863D01*
X44882184Y2548083D01*
X44882182Y2548076D01*
X44849500Y2383767D01*
X24627228Y2383767D01*
X24673580Y2495672D01*
X24700500Y2631007D01*
X24700500Y2768993D01*
X24673580Y2904328D01*
X24620775Y3031811D01*
X24612971Y3043491D01*
X24600500Y3084603D01*
X24600500Y3339424D01*
X24622174Y3391750D01*
X24674500Y3413424D01*
X24682232Y3413019D01*
X24693730Y3411812D01*
X24698607Y3409427D01*
X24766740Y3399500D01*
X24810894Y3399500D01*
X24820277Y3398520D01*
X24820277Y3398521D01*
X24820280Y3398520D01*
X24826397Y3398895D01*
X24826405Y3398756D01*
X24832950Y3399500D01*
X26333254Y3399500D01*
X26333260Y3399500D01*
X26401393Y3409427D01*
X26506483Y3460802D01*
X26589198Y3543517D01*
X26640573Y3648607D01*
X26650500Y3716740D01*
X26650500Y5283260D01*
X26640573Y5351393D01*
X26589198Y5456483D01*
X26506483Y5539198D01*
X26506482Y5539199D01*
X26401394Y5590573D01*
X26333264Y5600500D01*
X26333260Y5600500D01*
X24766740Y5600500D01*
X24766735Y5600500D01*
X24698599Y5590572D01*
X24696338Y5589873D01*
X24694794Y5590018D01*
X24692920Y5589744D01*
X24692853Y5590199D01*
X24639946Y5595140D01*
X24603796Y5638739D01*
X24600500Y5660577D01*
X24600500Y5915399D01*
X24612973Y5956513D01*
X24613934Y5957951D01*
X24620775Y5968189D01*
X24673580Y6095672D01*
X24700500Y6231007D01*
X24700500Y6368993D01*
X24673580Y6504328D01*
X24667847Y6518169D01*
X24620776Y6631809D01*
X24544116Y6746539D01*
X24544114Y6746542D01*
X24446542Y6844114D01*
X24422376Y6860261D01*
X24331808Y6920777D01*
X24204332Y6973579D01*
X24204322Y6973582D01*
X24113694Y6991609D01*
X24068993Y7000500D01*
X23931007Y7000500D01*
X23892642Y6992869D01*
X23795677Y6973582D01*
X23795667Y6973579D01*
X23668191Y6920777D01*
X23553461Y6844117D01*
X23455883Y6746539D01*
X23379223Y6631809D01*
X23326421Y6504333D01*
X23326418Y6504323D01*
X23299500Y6368992D01*
X18599025Y6368992D01*
X18859965Y6629932D01*
X19628858Y7398826D01*
X19681184Y7420500D01*
X34188622Y7420500D01*
X34240948Y7398826D01*
X34262622Y7346500D01*
X34256989Y7318181D01*
X34224498Y7239743D01*
X34224497Y7239740D01*
X34211620Y7175000D01*
X34199500Y7114069D01*
X34199500Y6985931D01*
X34201957Y6973580D01*
X34224497Y6860261D01*
X34224498Y6860258D01*
X34231270Y6843908D01*
X34273535Y6741873D01*
X34344724Y6635331D01*
X34435331Y6544724D01*
X34541873Y6473535D01*
X34660256Y6424499D01*
X34660258Y6424499D01*
X34660260Y6424498D01*
X34695497Y6417489D01*
X34785931Y6399500D01*
X34785933Y6399500D01*
X34914070Y6399500D01*
X34916060Y6399896D01*
X34916732Y6399763D01*
X34917685Y6399856D01*
X34917713Y6399568D01*
X34971610Y6388850D01*
X35003077Y6341759D01*
X35004500Y6327319D01*
X35004500Y6173913D01*
X34994556Y6136862D01*
X34887370Y5951553D01*
X34882555Y5944259D01*
X34834504Y5880068D01*
X34785716Y5749264D01*
X34785715Y5749261D01*
X34779500Y5691445D01*
X34779500Y5328557D01*
X34779501Y5328551D01*
X34783010Y5295902D01*
X34767052Y5241560D01*
X34717341Y5214419D01*
X34662999Y5230377D01*
X34660772Y5232245D01*
X34412675Y5448917D01*
X34342032Y5510612D01*
X34334531Y5516980D01*
X34329082Y5520134D01*
X34329082Y5520135D01*
X34320686Y5524995D01*
X34306483Y5539198D01*
X34239958Y5571721D01*
X34237720Y5573016D01*
X34237710Y5573021D01*
X34235632Y5574224D01*
X34233244Y5575606D01*
X34231212Y5576369D01*
X34224751Y5579155D01*
X34215651Y5583604D01*
X34201393Y5590573D01*
X34178504Y5593908D01*
X34133264Y5600500D01*
X34133260Y5600500D01*
X34079109Y5600500D01*
X34078793Y5600533D01*
X34078650Y5600500D01*
X32566740Y5600500D01*
X32566735Y5600500D01*
X32498606Y5590573D01*
X32498605Y5590573D01*
X32393517Y5539199D01*
X32310801Y5456483D01*
X32259427Y5351395D01*
X32259427Y5351394D01*
X32249500Y5283265D01*
X32249500Y3716736D01*
X32259427Y3648607D01*
X32259427Y3648606D01*
X32310801Y3543518D01*
X32310802Y3543517D01*
X32393517Y3460802D01*
X32498607Y3409427D01*
X32566740Y3399500D01*
X34093936Y3399500D01*
X34097797Y3398834D01*
X34101927Y3399500D01*
X34133260Y3399500D01*
X34201393Y3409427D01*
X34229628Y3423231D01*
X34242464Y3428006D01*
X34254200Y3435243D01*
X34306483Y3460802D01*
X34317784Y3472105D01*
X34331271Y3482766D01*
X34342071Y3489425D01*
X34342070Y3489425D01*
X34342076Y3489428D01*
X34871533Y3951822D01*
X34925201Y3969915D01*
X34953011Y3962417D01*
X35047877Y3915506D01*
X35047882Y3915505D01*
X35047885Y3915503D01*
X35054940Y3913060D01*
X35132210Y3886301D01*
X35132214Y3886301D01*
X35133462Y3885868D01*
X35135081Y3885286D01*
X35160738Y3875716D01*
X35218557Y3869500D01*
X35681442Y3869501D01*
X35681443Y3869501D01*
X35681443Y3869502D01*
X35739262Y3875716D01*
X35870068Y3924505D01*
X35981831Y4008169D01*
X35998694Y4030697D01*
X36047402Y4059598D01*
X36102280Y4045592D01*
X36116898Y4031065D01*
X36144570Y3994574D01*
X36144572Y3994572D01*
X36262852Y3904878D01*
X36400944Y3850422D01*
X36487721Y3840001D01*
X36575000Y3840001D01*
X36825000Y3840001D01*
X36912278Y3840001D01*
X36912279Y3840002D01*
X36999048Y3850420D01*
X36999052Y3850421D01*
X37137147Y3904878D01*
X37255427Y3994572D01*
X37255428Y3994573D01*
X37345122Y4112853D01*
X37399578Y4250945D01*
X37410000Y4337722D01*
X37410000Y4395000D01*
X36825000Y4395000D01*
X36825000Y3840001D01*
X36575000Y3840001D01*
X36575000Y4446000D01*
X36596674Y4498326D01*
X36649000Y4520000D01*
X36700000Y4520000D01*
X36700000Y4571000D01*
X36721674Y4623326D01*
X36774000Y4645000D01*
X37409999Y4645000D01*
X37409999Y4702278D01*
X37409998Y4702280D01*
X37399580Y4789049D01*
X37399579Y4789053D01*
X37345122Y4927148D01*
X37292523Y4996511D01*
X37278176Y5051301D01*
X37292246Y5085569D01*
X37304929Y5102511D01*
X37354219Y5234665D01*
X37360500Y5293085D01*
X37360499Y5666914D01*
X37354219Y5725335D01*
X37304929Y5857489D01*
X37220403Y5970403D01*
X37107489Y6054929D01*
X37107488Y6054930D01*
X37107486Y6054931D01*
X36975339Y6104218D01*
X36975336Y6104219D01*
X36975335Y6104219D01*
X36916915Y6110500D01*
X36483084Y6110500D01*
X36429414Y6104730D01*
X36424665Y6104219D01*
X36424662Y6104219D01*
X36424662Y6104218D01*
X36374717Y6085591D01*
X36364280Y6082551D01*
X36338273Y6077010D01*
X36113431Y5988441D01*
X36112392Y5988460D01*
X36111626Y5987757D01*
X36084230Y5988951D01*
X36056803Y5989429D01*
X36055043Y5990222D01*
X35987463Y6021727D01*
X35954675Y6051745D01*
X35905443Y6136862D01*
X35895500Y6173912D01*
X35895500Y6243750D01*
X35917174Y6296076D01*
X35940126Y6311670D01*
X36012463Y6342953D01*
X36082922Y6373422D01*
X36112294Y6379501D01*
X36131444Y6379501D01*
X36131444Y6379502D01*
X36189262Y6385716D01*
X36293239Y6424498D01*
X36320066Y6434504D01*
X36320066Y6434505D01*
X36320068Y6434505D01*
X36374676Y6475384D01*
X36429551Y6489391D01*
X36463734Y6475108D01*
X36570326Y6394277D01*
X36707141Y6340326D01*
X36793115Y6330000D01*
X36845000Y6330000D01*
X37095000Y6330000D01*
X37146885Y6330000D01*
X37232858Y6340326D01*
X37369673Y6394277D01*
X37486858Y6483141D01*
X37486859Y6483142D01*
X37575723Y6600327D01*
X37629674Y6737142D01*
X37640000Y6823115D01*
X37640000Y6925000D01*
X37095000Y6925000D01*
X37095000Y6330000D01*
X36845000Y6330000D01*
X36845000Y7175000D01*
X37095000Y7175000D01*
X37640000Y7175000D01*
X37640000Y7276886D01*
X37629674Y7362859D01*
X37575723Y7499674D01*
X37486859Y7616859D01*
X37486858Y7616860D01*
X37369673Y7705724D01*
X37232858Y7759675D01*
X37146885Y7770000D01*
X37095000Y7770000D01*
X37095000Y7175000D01*
X36845000Y7175000D01*
X36845000Y7770000D01*
X36793115Y7770000D01*
X36707141Y7759675D01*
X36570326Y7705724D01*
X36463735Y7624893D01*
X36408945Y7610546D01*
X36374676Y7624617D01*
X36320068Y7665496D01*
X36189263Y7714284D01*
X36189260Y7714285D01*
X36131444Y7720500D01*
X35768556Y7720500D01*
X35768555Y7720499D01*
X35710735Y7714284D01*
X35604557Y7674681D01*
X35547956Y7676702D01*
X35509363Y7718155D01*
X35511384Y7774756D01*
X35526368Y7796338D01*
X39017874Y11287844D01*
X39033602Y11299832D01*
X39038744Y11302758D01*
X39275012Y11494900D01*
X39295830Y11506816D01*
X39370068Y11534505D01*
X39481831Y11618169D01*
X39565495Y11729932D01*
X39614284Y11860738D01*
X39620500Y11918557D01*
X39620499Y12281442D01*
X39614284Y12339262D01*
X39565495Y12470068D01*
X39493939Y12565657D01*
X39479933Y12620531D01*
X39493938Y12654343D01*
X39565495Y12749932D01*
X39614284Y12880738D01*
X39620500Y12938557D01*
X39620499Y13301442D01*
X39614284Y13359262D01*
X39608289Y13375335D01*
X39565496Y13490066D01*
X39559979Y13497436D01*
X39517436Y13554267D01*
X39512636Y13561538D01*
X39405442Y13746863D01*
X39395500Y13783912D01*
X39395500Y13958650D01*
X39395500Y13958651D01*
X39394894Y13960911D01*
X39394896Y13960928D01*
X39394890Y13960926D01*
X39375904Y14031785D01*
X39375904Y14031786D01*
X39365141Y14071954D01*
X39365139Y14071959D01*
X39325077Y14141348D01*
X39306489Y14173544D01*
X39151859Y14328174D01*
X39130185Y14380500D01*
X39151859Y14432826D01*
X39204185Y14454500D01*
X39434815Y14454500D01*
X39487141Y14432826D01*
X39982826Y13937142D01*
X40004500Y13884816D01*
X40004500Y13808979D01*
X39995414Y13773452D01*
X39851866Y13511162D01*
X39846194Y13502345D01*
X39835920Y13488621D01*
X39835919Y13488619D01*
X39785878Y13354451D01*
X39785877Y13354446D01*
X39779500Y13295133D01*
X39779500Y12904868D01*
X39785877Y12845555D01*
X39785878Y12845550D01*
X39835919Y12711382D01*
X39835922Y12711377D01*
X39874872Y12659346D01*
X39888879Y12604469D01*
X39874872Y12570654D01*
X39835922Y12518624D01*
X39835919Y12518619D01*
X39785878Y12384451D01*
X39785877Y12384446D01*
X39779540Y12325500D01*
X39779500Y12325132D01*
X39779500Y11934868D01*
X39785319Y11880740D01*
X39785877Y11875555D01*
X39785878Y11875550D01*
X39835919Y11741382D01*
X39835920Y11741381D01*
X39835921Y11741380D01*
X39921740Y11626740D01*
X40026325Y11548448D01*
X40036380Y11540921D01*
X40036381Y11540920D01*
X40127007Y11507119D01*
X40170554Y11490877D01*
X40224109Y11485120D01*
X40229867Y11484500D01*
X40229868Y11484500D01*
X40670133Y11484500D01*
X40681442Y11485716D01*
X40729446Y11490877D01*
X40808513Y11520369D01*
X40813252Y11521956D01*
X40843474Y11530955D01*
X41044636Y11629320D01*
X41101162Y11632834D01*
X41112818Y11627673D01*
X41273874Y11539040D01*
X41279932Y11534505D01*
X41352067Y11507600D01*
X41365109Y11502568D01*
X41370792Y11500375D01*
X41370795Y11500374D01*
X41370803Y11500371D01*
X41370811Y11500370D01*
X41372633Y11499804D01*
X41376547Y11498469D01*
X41410738Y11485716D01*
X41468557Y11479500D01*
X41931442Y11479501D01*
X41931443Y11479501D01*
X41931443Y11479502D01*
X41989262Y11485716D01*
X42120068Y11534505D01*
X42231831Y11618169D01*
X42315495Y11729932D01*
X42364284Y11860738D01*
X42370500Y11918557D01*
X42370499Y12281442D01*
X42364284Y12339262D01*
X42315495Y12470068D01*
X42274615Y12524678D01*
X42260609Y12579553D01*
X42274892Y12613736D01*
X42355724Y12720329D01*
X42409674Y12857142D01*
X42420000Y12943115D01*
X42420000Y12995000D01*
X41774000Y12995000D01*
X41721674Y13016674D01*
X41700000Y13069000D01*
X41700000Y13120000D01*
X41649000Y13120000D01*
X41596674Y13141674D01*
X41575000Y13194000D01*
X41575000Y13245000D01*
X41825000Y13245000D01*
X42420000Y13245000D01*
X42420000Y13296886D01*
X42409674Y13382859D01*
X42355723Y13519674D01*
X42266859Y13636859D01*
X42266858Y13636860D01*
X42149673Y13725724D01*
X42012858Y13779675D01*
X41926885Y13790000D01*
X41825000Y13790000D01*
X41825000Y13245000D01*
X41575000Y13245000D01*
X41575000Y13790000D01*
X41473115Y13790000D01*
X41387141Y13779675D01*
X41250326Y13725724D01*
X41133141Y13636860D01*
X41133137Y13636856D01*
X41112838Y13610088D01*
X41063950Y13581492D01*
X41009161Y13595841D01*
X40988962Y13619277D01*
X40904586Y13773451D01*
X40895500Y13808977D01*
X40895500Y14158650D01*
X40893760Y14165143D01*
X40873166Y14242003D01*
X40873166Y14242004D01*
X40869284Y14256492D01*
X40865140Y14271957D01*
X40811710Y14364500D01*
X40806491Y14373540D01*
X40806490Y14373541D01*
X40806489Y14373543D01*
X40723543Y14456489D01*
X39923544Y15256489D01*
X39852675Y15297405D01*
X39852674Y15297406D01*
X39847314Y15300500D01*
X39821957Y15315140D01*
X39765304Y15330320D01*
X39761901Y15331232D01*
X39761898Y15331233D01*
X39708654Y15345500D01*
X39708652Y15345500D01*
X39708651Y15345500D01*
X38128000Y15345500D01*
X38075674Y15367174D01*
X38054000Y15419500D01*
X38054000Y15962641D01*
X38075674Y16014967D01*
X38128000Y16036641D01*
X38136824Y16036113D01*
X38187721Y16030001D01*
X38275000Y16030001D01*
X38525000Y16030001D01*
X38612278Y16030001D01*
X38612279Y16030002D01*
X38699048Y16040420D01*
X38699052Y16040421D01*
X38837147Y16094878D01*
X38955427Y16184572D01*
X38955428Y16184573D01*
X39045122Y16302853D01*
X39099578Y16440945D01*
X39110000Y16527722D01*
X39110000Y16585000D01*
X38525000Y16585000D01*
X38525000Y16030001D01*
X38275000Y16030001D01*
X38275000Y16636000D01*
X38296674Y16688326D01*
X38349000Y16710000D01*
X38400000Y16710000D01*
X38400000Y16761000D01*
X38421674Y16813326D01*
X38474000Y16835000D01*
X39109999Y16835000D01*
X39109999Y16892278D01*
X39103557Y16945923D01*
X39118838Y17000460D01*
X39168206Y17028218D01*
X39191908Y17026130D01*
X39192107Y17027129D01*
X39205314Y17024502D01*
X39331007Y16999500D01*
X39331009Y16999500D01*
X39468991Y16999500D01*
X39468993Y16999500D01*
X39604328Y17026420D01*
X39731811Y17079225D01*
X39846542Y17155886D01*
X39944114Y17253458D01*
X40020775Y17368189D01*
X40073580Y17495672D01*
X40100500Y17631007D01*
X40100500Y17684359D01*
X49200000Y17684359D01*
X49202900Y17647507D01*
X49248718Y17489801D01*
X49332317Y17348444D01*
X49448443Y17232318D01*
X49589800Y17148719D01*
X49747508Y17102901D01*
X49747505Y17102901D01*
X49784359Y17100000D01*
X50575000Y17100000D01*
X50825000Y17100000D01*
X51615641Y17100000D01*
X51652493Y17102901D01*
X51810199Y17148719D01*
X51951556Y17232318D01*
X52067682Y17348444D01*
X52151281Y17489801D01*
X52197099Y17647507D01*
X52200000Y17684359D01*
X52200000Y17900000D01*
X50825000Y17900000D01*
X50825000Y17100000D01*
X50575000Y17100000D01*
X50575000Y17900000D01*
X49200000Y17900000D01*
X49200000Y17684359D01*
X40100500Y17684359D01*
X40100500Y17768993D01*
X40073662Y17903916D01*
X40084711Y17959465D01*
X40131803Y17990931D01*
X40187352Y17979882D01*
X40190953Y17977317D01*
X40312852Y17884878D01*
X40450944Y17830422D01*
X40537721Y17820001D01*
X40625000Y17820001D01*
X40875000Y17820001D01*
X40962278Y17820001D01*
X40962279Y17820002D01*
X41049048Y17830420D01*
X41049052Y17830421D01*
X41187147Y17884878D01*
X41305427Y17974572D01*
X41305428Y17974573D01*
X41395122Y18092853D01*
X41449578Y18230945D01*
X41460000Y18317722D01*
X41460000Y18357721D01*
X43540001Y18357721D01*
X43550419Y18270952D01*
X43550420Y18270948D01*
X43604877Y18132853D01*
X43694571Y18014573D01*
X43694572Y18014572D01*
X43812852Y17924878D01*
X43950944Y17870422D01*
X44037721Y17860001D01*
X44125000Y17860001D01*
X44375000Y17860001D01*
X44462278Y17860001D01*
X44462279Y17860002D01*
X44549048Y17870420D01*
X44549052Y17870421D01*
X44687147Y17924878D01*
X44772518Y17989616D01*
X44805427Y18014572D01*
X44805428Y18014573D01*
X44895122Y18132853D01*
X44949578Y18270945D01*
X44960000Y18357722D01*
X44960000Y18415000D01*
X44375000Y18415000D01*
X44375000Y17860001D01*
X44125000Y17860001D01*
X44125000Y18415000D01*
X43540001Y18415000D01*
X43540001Y18357721D01*
X41460000Y18357721D01*
X41460000Y18375000D01*
X40875000Y18375000D01*
X40875000Y17820001D01*
X40625000Y17820001D01*
X40625000Y18375000D01*
X40040001Y18375000D01*
X40040001Y18317721D01*
X40050934Y18226667D01*
X40035653Y18172130D01*
X39986284Y18144373D01*
X39931747Y18159654D01*
X39925144Y18165512D01*
X39846542Y18244114D01*
X39823801Y18259309D01*
X39731808Y18320777D01*
X39604332Y18373579D01*
X39604322Y18373582D01*
X39513694Y18391609D01*
X39468993Y18400500D01*
X39331007Y18400500D01*
X39292642Y18392869D01*
X39195677Y18373582D01*
X39195667Y18373579D01*
X39068189Y18320776D01*
X39021736Y18289737D01*
X38975345Y18277455D01*
X38969221Y18277893D01*
X38918575Y18303244D01*
X38900500Y18351704D01*
X38900500Y18565894D01*
X38900499Y18565895D01*
X38900497Y18565901D01*
X38866392Y18693186D01*
X38800500Y18807314D01*
X38707314Y18900500D01*
X38679640Y18928174D01*
X38657966Y18980500D01*
X38679640Y19032826D01*
X38731966Y19054500D01*
X40067632Y19054500D01*
X40119958Y19032826D01*
X40141632Y18980500D01*
X40126596Y18935786D01*
X40104876Y18907146D01*
X40050421Y18769056D01*
X40040000Y18682279D01*
X40040000Y18625000D01*
X41459999Y18625000D01*
X41459999Y18682278D01*
X41459998Y18682280D01*
X41449580Y18769049D01*
X41449579Y18769053D01*
X41411224Y18866314D01*
X41411285Y18869893D01*
X41409043Y18872680D01*
X41411760Y18897732D01*
X41412191Y18922942D01*
X41414765Y18925430D01*
X41415151Y18928987D01*
X41434790Y18944784D01*
X41452918Y18962302D01*
X41456496Y18962241D01*
X41459284Y18964483D01*
X41484335Y18961766D01*
X41509546Y18961335D01*
X41515588Y18958377D01*
X41618282Y18902174D01*
X41618820Y18901880D01*
X41627640Y18896207D01*
X41641380Y18885921D01*
X41641381Y18885920D01*
X41717931Y18857369D01*
X41775554Y18835877D01*
X41829109Y18830120D01*
X41834867Y18829500D01*
X41834868Y18829500D01*
X42225133Y18829500D01*
X42230381Y18830065D01*
X42284446Y18835877D01*
X42390254Y18875341D01*
X42418618Y18885920D01*
X42418618Y18885921D01*
X42418620Y18885921D01*
X42470653Y18924874D01*
X42525531Y18938880D01*
X42559346Y18924874D01*
X42593512Y18899297D01*
X42611380Y18885921D01*
X42611381Y18885920D01*
X42687931Y18857369D01*
X42745554Y18835877D01*
X42799109Y18830120D01*
X42804867Y18829500D01*
X42804868Y18829500D01*
X43195133Y18829500D01*
X43200381Y18830065D01*
X43254446Y18835877D01*
X43332035Y18864816D01*
X43388616Y18885919D01*
X43388617Y18885921D01*
X43388620Y18885921D01*
X43402357Y18896206D01*
X43411162Y18901870D01*
X43456036Y18926429D01*
X43512341Y18932536D01*
X43556475Y18897041D01*
X43562583Y18840734D01*
X43560402Y18834369D01*
X43550421Y18809059D01*
X43540000Y18722279D01*
X43540000Y18665000D01*
X44959999Y18665000D01*
X44959999Y18722278D01*
X44959998Y18722280D01*
X44949580Y18809049D01*
X44949579Y18809053D01*
X44893265Y18951857D01*
X44895728Y18952829D01*
X44890011Y19000471D01*
X44925002Y19045006D01*
X44961265Y19054500D01*
X45774557Y19054500D01*
X45826883Y19032826D01*
X45840491Y19014096D01*
X45863342Y18969249D01*
X45957250Y18875341D01*
X46016414Y18845196D01*
X46075579Y18815050D01*
X46075579Y18815049D01*
X46173753Y18799500D01*
X46173754Y18799500D01*
X46377247Y18799500D01*
X46481172Y18815960D01*
X46481428Y18814340D01*
X46531294Y18810422D01*
X46556275Y18781180D01*
X46637030Y18752923D01*
X46637026Y18752923D01*
X46668195Y18750001D01*
X46668197Y18750000D01*
X47106803Y18750000D01*
X47106804Y18750001D01*
X47137971Y18752923D01*
X47219660Y18781508D01*
X47237954Y18807292D01*
X47293791Y18816780D01*
X47300033Y18815057D01*
X47300078Y18815050D01*
X47300080Y18815049D01*
X47376478Y18802949D01*
X47398253Y18799500D01*
X47398254Y18799500D01*
X47601747Y18799500D01*
X47699920Y18815049D01*
X47818251Y18875342D01*
X47912158Y18969249D01*
X47935009Y19014096D01*
X47944061Y19021828D01*
X47948617Y19032826D01*
X47964776Y19039520D01*
X47978076Y19050878D01*
X48000943Y19054500D01*
X48024287Y19054500D01*
X48061884Y19044238D01*
X48576207Y18740855D01*
X48583654Y18735827D01*
X48597159Y18725464D01*
X48604849Y18722279D01*
X48611811Y18719395D01*
X48611814Y18719394D01*
X48614412Y18718318D01*
X48614820Y18718077D01*
X48617303Y18717120D01*
X48743238Y18664956D01*
X48860639Y18649500D01*
X49176104Y18649501D01*
X49228429Y18627827D01*
X49250103Y18575501D01*
X49247165Y18554856D01*
X49202900Y18402494D01*
X49200000Y18365642D01*
X49200000Y18150000D01*
X52200000Y18150000D01*
X52200000Y18365642D01*
X52197099Y18402494D01*
X52151281Y18560200D01*
X52067682Y18701557D01*
X51951557Y18817682D01*
X51836330Y18885828D01*
X51802325Y18931121D01*
X51800000Y18949523D01*
X51800000Y20050478D01*
X51821674Y20102804D01*
X51836331Y20114173D01*
X51951556Y20182318D01*
X52067682Y20298444D01*
X52151281Y20439801D01*
X52197099Y20597507D01*
X52200000Y20634359D01*
X52200000Y20850000D01*
X49200000Y20850000D01*
X49200000Y20634359D01*
X49202900Y20597507D01*
X49247165Y20445145D01*
X49240950Y20388850D01*
X49196748Y20353438D01*
X49176103Y20350500D01*
X48860640Y20350500D01*
X48743240Y20335045D01*
X48743236Y20335044D01*
X48618211Y20283257D01*
X48618202Y20283254D01*
X48617333Y20282893D01*
X48614821Y20281925D01*
X48614406Y20281682D01*
X48611809Y20280606D01*
X48597163Y20274539D01*
X48597155Y20274534D01*
X48583654Y20264175D01*
X48576208Y20259150D01*
X48261711Y20073636D01*
X48069508Y19960260D01*
X48061884Y19955763D01*
X48024287Y19945500D01*
X48000943Y19945500D01*
X47948617Y19967174D01*
X47935009Y19985904D01*
X47928081Y19999500D01*
X47912158Y20030751D01*
X47818251Y20124658D01*
X47818249Y20124660D01*
X47699920Y20184951D01*
X47699920Y20184952D01*
X47601747Y20200500D01*
X47601746Y20200500D01*
X47398254Y20200500D01*
X47398253Y20200500D01*
X47294328Y20184040D01*
X47294101Y20185468D01*
X47243731Y20189432D01*
X47218590Y20218868D01*
X47137975Y20247077D01*
X47106804Y20250000D01*
X46668195Y20250000D01*
X46637028Y20247078D01*
X46637020Y20247076D01*
X46555241Y20218461D01*
X46537077Y20192860D01*
X46481240Y20183373D01*
X46475663Y20184913D01*
X46377247Y20200500D01*
X46377246Y20200500D01*
X46173754Y20200500D01*
X46173753Y20200500D01*
X46075579Y20184952D01*
X46075579Y20184951D01*
X45957250Y20124660D01*
X45863342Y20030752D01*
X45840491Y19985904D01*
X45797424Y19949122D01*
X45774557Y19945500D01*
X44947478Y19945500D01*
X44915685Y19952678D01*
X44634519Y20086455D01*
X44634515Y20086457D01*
X44634512Y20086458D01*
X44634506Y20086460D01*
X44634498Y20086463D01*
X44579394Y20104144D01*
X44576145Y20105270D01*
X44525339Y20124218D01*
X44525336Y20124219D01*
X44525335Y20124219D01*
X44466915Y20130500D01*
X44033084Y20130500D01*
X43979414Y20124730D01*
X43974665Y20124219D01*
X43974663Y20124219D01*
X43974661Y20124218D01*
X43902313Y20097236D01*
X43896820Y20095428D01*
X43865484Y20086459D01*
X43668008Y19992500D01*
X43611445Y19989590D01*
X43600688Y19994408D01*
X43411168Y20098129D01*
X43402347Y20103803D01*
X43388619Y20114080D01*
X43388618Y20114081D01*
X43254450Y20164122D01*
X43254447Y20164123D01*
X43254446Y20164123D01*
X43224789Y20167312D01*
X43195133Y20170500D01*
X43195132Y20170500D01*
X42804868Y20170500D01*
X42804867Y20170500D01*
X42745554Y20164123D01*
X42745549Y20164122D01*
X42611381Y20114081D01*
X42611376Y20114078D01*
X42559346Y20075128D01*
X42504469Y20061121D01*
X42470654Y20075128D01*
X42418623Y20114078D01*
X42418618Y20114081D01*
X42284450Y20164122D01*
X42284447Y20164123D01*
X42284446Y20164123D01*
X42254789Y20167312D01*
X42225133Y20170500D01*
X42225132Y20170500D01*
X41834868Y20170500D01*
X41834867Y20170500D01*
X41775554Y20164123D01*
X41775549Y20164122D01*
X41641382Y20114081D01*
X41641378Y20114078D01*
X41627654Y20103806D01*
X41618840Y20098136D01*
X41356548Y19954586D01*
X41321021Y19945500D01*
X41301582Y19945500D01*
X41257236Y19960260D01*
X41157488Y20034930D01*
X41025339Y20084218D01*
X41025336Y20084219D01*
X41025335Y20084219D01*
X40966915Y20090500D01*
X40533084Y20090500D01*
X40483449Y20085164D01*
X40474665Y20084219D01*
X40342511Y20034929D01*
X40342510Y20034929D01*
X40342509Y20034928D01*
X40242764Y19960260D01*
X40198418Y19945500D01*
X39023937Y19945500D01*
X38971611Y19967174D01*
X38949937Y20019500D01*
X38950465Y20028323D01*
X38960000Y20107721D01*
X38960000Y20165000D01*
X38324000Y20165000D01*
X38271674Y20186674D01*
X38250000Y20239000D01*
X38250000Y20341000D01*
X38271674Y20393326D01*
X38324000Y20415000D01*
X38959999Y20415000D01*
X38959999Y20425500D01*
X38981673Y20477826D01*
X39033999Y20499500D01*
X39063991Y20499500D01*
X39063993Y20499500D01*
X39199328Y20526420D01*
X39326811Y20579225D01*
X39441542Y20655886D01*
X39539114Y20753458D01*
X39615775Y20868189D01*
X39668580Y20995672D01*
X39695500Y21131007D01*
X39695500Y21268993D01*
X39686221Y21315642D01*
X49200000Y21315642D01*
X49200000Y21100000D01*
X50575000Y21100000D01*
X50825000Y21100000D01*
X52200000Y21100000D01*
X52200000Y21315642D01*
X52197099Y21352494D01*
X52151281Y21510200D01*
X52067682Y21651557D01*
X51951556Y21767683D01*
X51810199Y21851282D01*
X51652491Y21897100D01*
X51652494Y21897100D01*
X51615641Y21900000D01*
X50825000Y21900000D01*
X50825000Y21100000D01*
X50575000Y21100000D01*
X50575000Y21900000D01*
X49784359Y21900000D01*
X49747506Y21897100D01*
X49589800Y21851282D01*
X49448443Y21767683D01*
X49332317Y21651557D01*
X49248718Y21510200D01*
X49202900Y21352494D01*
X49200000Y21315642D01*
X39686221Y21315642D01*
X39668580Y21404328D01*
X39624727Y21510200D01*
X39615776Y21531809D01*
X39607150Y21544718D01*
X39539114Y21646542D01*
X39441542Y21744114D01*
X39326811Y21820775D01*
X39326810Y21820776D01*
X39326808Y21820777D01*
X39199332Y21873579D01*
X39199322Y21873582D01*
X39108694Y21891609D01*
X39063993Y21900500D01*
X38926007Y21900500D01*
X38926006Y21900500D01*
X38921242Y21899553D01*
X38865695Y21910610D01*
X38834235Y21957706D01*
X38845292Y22013253D01*
X38854481Y22024450D01*
X39373250Y22543220D01*
X39381926Y22550647D01*
X39402741Y22565849D01*
X39806679Y22978592D01*
X39814837Y22985782D01*
X39842922Y23007078D01*
X39934361Y23127658D01*
X39989877Y23268436D01*
X39999080Y23345076D01*
X40000500Y23356896D01*
X40000500Y23943105D01*
X39995896Y23981443D01*
X39989877Y24031564D01*
X39934361Y24172342D01*
X39862312Y24267352D01*
X39847965Y24322141D01*
X39874807Y24368325D01*
X39874491Y24368641D01*
X39875686Y24369837D01*
X39876233Y24370777D01*
X39877922Y24372074D01*
X39974099Y24497413D01*
X40034556Y24643370D01*
X40050000Y24760679D01*
X40050000Y24925000D01*
X39324000Y24925000D01*
X39271674Y24946674D01*
X39250000Y24999000D01*
X39250000Y25050000D01*
X39199000Y25050000D01*
X39146674Y25071674D01*
X39125000Y25124000D01*
X39125000Y25175000D01*
X39375000Y25175000D01*
X40049999Y25175000D01*
X40049999Y25339322D01*
X40034556Y25456629D01*
X40034555Y25456633D01*
X39974099Y25602588D01*
X39877924Y25727925D01*
X39752587Y25824100D01*
X39606630Y25884557D01*
X39489321Y25900000D01*
X39375000Y25900000D01*
X39375000Y25175000D01*
X39125000Y25175000D01*
X39125000Y25900000D01*
X39010678Y25900000D01*
X38893371Y25884557D01*
X38893367Y25884556D01*
X38747412Y25824100D01*
X38703379Y25790312D01*
X38648671Y25775654D01*
X38627173Y25782816D01*
X38627051Y25782504D01*
X38583169Y25799809D01*
X38481564Y25839877D01*
X38452076Y25843418D01*
X38393104Y25850500D01*
X38393102Y25850500D01*
X37906898Y25850500D01*
X37906896Y25850500D01*
X37818436Y25839877D01*
X37677658Y25784362D01*
X37557078Y25692923D01*
X37557076Y25692921D01*
X37504622Y25623750D01*
X37496714Y25614898D01*
X37286909Y25414930D01*
X37286910Y25414929D01*
X37280513Y25408832D01*
X37276457Y25406489D01*
X37243937Y25373971D01*
X37243276Y25373340D01*
X37104681Y25241240D01*
X37100602Y25237289D01*
X37100467Y25237157D01*
X37083417Y25219157D01*
X37083414Y25219154D01*
X37078405Y25211130D01*
X37067962Y25197997D01*
X36843510Y24973544D01*
X36831476Y24952699D01*
X36831476Y24952698D01*
X36784862Y24871962D01*
X36784859Y24871954D01*
X36779337Y24851349D01*
X36779338Y24851348D01*
X36756237Y24765132D01*
X36756236Y24765130D01*
X36754500Y24758652D01*
X36754500Y24015185D01*
X36732826Y23962859D01*
X35831012Y23061046D01*
X35818594Y23039536D01*
X35772360Y22959459D01*
X35772358Y22959454D01*
X35760782Y22916252D01*
X35760783Y22916251D01*
X35743672Y22852390D01*
X35742000Y22846151D01*
X35742000Y22549500D01*
X35720326Y22497174D01*
X35668001Y22475500D01*
X35592497Y22475500D01*
X35495784Y22460182D01*
X35495778Y22460181D01*
X35471093Y22447603D01*
X35414631Y22443160D01*
X35403907Y22447603D01*
X35379221Y22460181D01*
X35379216Y22460182D01*
X35282503Y22475500D01*
X35092497Y22475500D01*
X34995784Y22460182D01*
X34995778Y22460181D01*
X34971093Y22447603D01*
X34914631Y22443160D01*
X34903907Y22447603D01*
X34879221Y22460181D01*
X34879216Y22460182D01*
X34782503Y22475500D01*
X34592497Y22475500D01*
X34495784Y22460182D01*
X34495778Y22460181D01*
X34471093Y22447603D01*
X34414631Y22443160D01*
X34403907Y22447603D01*
X34379221Y22460181D01*
X34379216Y22460182D01*
X34282503Y22475500D01*
X34092497Y22475500D01*
X33995784Y22460182D01*
X33995778Y22460181D01*
X33971093Y22447603D01*
X33918038Y22442143D01*
X33910685Y22444148D01*
X33879215Y22460182D01*
X33813936Y22470522D01*
X33810038Y22471584D01*
X33790598Y22486635D01*
X33769632Y22499483D01*
X33768162Y22504005D01*
X33765254Y22506257D01*
X33763852Y22517272D01*
X33755500Y22542979D01*
X33755500Y22898611D01*
X33763312Y22931705D01*
X33764536Y22934153D01*
X33853943Y23112968D01*
X33887034Y23146058D01*
X34090439Y23247759D01*
X34168961Y23301207D01*
X34217821Y23345077D01*
X34270411Y23404112D01*
X34321414Y23509439D01*
X34328327Y23532985D01*
X34363863Y23577083D01*
X34420175Y23583139D01*
X34451655Y23564462D01*
X34563888Y23452229D01*
X34699808Y23371846D01*
X34851448Y23327790D01*
X34886890Y23325000D01*
X35050000Y23325000D01*
X35300000Y23325000D01*
X35463110Y23325000D01*
X35498551Y23327790D01*
X35650191Y23371846D01*
X35786111Y23452229D01*
X35897771Y23563889D01*
X35978154Y23699809D01*
X36022210Y23851449D01*
X36025000Y23886890D01*
X36025000Y24075000D01*
X35300000Y24075000D01*
X35300000Y23325000D01*
X35050000Y23325000D01*
X35050000Y24325000D01*
X35300000Y24325000D01*
X36025000Y24325000D01*
X36025000Y24513111D01*
X36022210Y24548552D01*
X35978154Y24700192D01*
X35897771Y24836112D01*
X35786111Y24947772D01*
X35650191Y25028155D01*
X35498551Y25072211D01*
X35463110Y25075000D01*
X35300000Y25075000D01*
X35300000Y24325000D01*
X35050000Y24325000D01*
X35050000Y25075000D01*
X34886890Y25075000D01*
X34851448Y25072211D01*
X34699808Y25028155D01*
X34563888Y24947772D01*
X34481826Y24865709D01*
X34429500Y24844035D01*
X34377174Y24865709D01*
X34355500Y24918035D01*
X34355500Y25370500D01*
X34377174Y25422826D01*
X34429500Y25444500D01*
X34748620Y25444500D01*
X34748638Y25444500D01*
X34786642Y25446537D01*
X34813000Y25449371D01*
X34834827Y25452405D01*
X34945369Y25490819D01*
X35006692Y25524304D01*
X35087695Y25584943D01*
X35215057Y25712305D01*
X35240491Y25740619D01*
X35257125Y25761261D01*
X35270452Y25778895D01*
X35273054Y25784274D01*
X35288851Y25807672D01*
X35309805Y25860207D01*
X35321434Y25884233D01*
X35322196Y25886830D01*
X35322195Y25886831D01*
X35326141Y25900279D01*
X35326149Y25900304D01*
X35327127Y25903634D01*
X35332208Y25916371D01*
X35336029Y25933938D01*
X35341098Y25951199D01*
X35355500Y26051362D01*
X35355500Y26948638D01*
X35353463Y26986642D01*
X35350629Y27013000D01*
X35347595Y27034827D01*
X35309181Y27145369D01*
X35293612Y27173882D01*
X35275699Y27206688D01*
X35215057Y27287695D01*
X35087704Y27415048D01*
X35087693Y27415058D01*
X35059381Y27440491D01*
X35038739Y27457125D01*
X35038737Y27457127D01*
X35021160Y27470413D01*
X34915835Y27521415D01*
X34848801Y27541099D01*
X34848793Y27541100D01*
X34748642Y27555500D01*
X34748638Y27555500D01*
X33851362Y27555500D01*
X33851346Y27555500D01*
X33813367Y27553464D01*
X33813349Y27553463D01*
X33786978Y27550627D01*
X33765181Y27547597D01*
X33765173Y27547595D01*
X33654627Y27509180D01*
X33593312Y27475700D01*
X33512305Y27415058D01*
X33384952Y27287705D01*
X33384933Y27287685D01*
X33359507Y27259380D01*
X33342870Y27238734D01*
X33329645Y27221244D01*
X33329636Y27221230D01*
X33329352Y27220643D01*
X33329353Y27220642D01*
X33327049Y27215888D01*
X33311156Y27192339D01*
X33290279Y27140006D01*
X33289114Y27137601D01*
X33289114Y27137599D01*
X33278613Y27115926D01*
X33278609Y27115916D01*
X33273829Y27099656D01*
X33273830Y27099655D01*
X33272847Y27096307D01*
X33267795Y27083642D01*
X33263974Y27066085D01*
X33263228Y27063542D01*
X33258898Y27048790D01*
X33244500Y26948645D01*
X33244500Y25377905D01*
X33222826Y25325579D01*
X32942727Y25045481D01*
X32920434Y25036248D01*
X32899444Y25024362D01*
X32894827Y25025641D01*
X32890401Y25023807D01*
X32868109Y25033041D01*
X32844862Y25039479D01*
X32842501Y25043648D01*
X32838075Y25045481D01*
X32816957Y25088762D01*
X32804100Y25193177D01*
X32804068Y25193439D01*
X32803559Y25195154D01*
X32800500Y25216212D01*
X32800500Y25364425D01*
X32806219Y25392950D01*
X32826298Y25441014D01*
X32984006Y25818523D01*
X32989038Y25827189D01*
X32988561Y25827464D01*
X32990984Y25831664D01*
X32990989Y25831669D01*
X33048348Y25970146D01*
X33063000Y26081439D01*
X33062999Y26918560D01*
X33048348Y27029854D01*
X32990989Y27168331D01*
X32972567Y27192339D01*
X32899746Y27287242D01*
X32899741Y27287247D01*
X32780830Y27378490D01*
X32642356Y27435848D01*
X32642352Y27435849D01*
X32560363Y27446643D01*
X32531061Y27450500D01*
X32531059Y27450500D01*
X32018940Y27450500D01*
X31907648Y27435849D01*
X31907644Y27435848D01*
X31769169Y27378490D01*
X31650258Y27287247D01*
X31650253Y27287242D01*
X31559010Y27168331D01*
X31501652Y27029857D01*
X31501651Y27029853D01*
X31488877Y26932823D01*
X31460558Y26883774D01*
X31405851Y26869115D01*
X31359802Y26893774D01*
X31337893Y26918831D01*
X31316831Y26936917D01*
X31261130Y26984749D01*
X31261122Y26984755D01*
X31239769Y26998344D01*
X31207262Y27044723D01*
X31205500Y27060774D01*
X31205500Y27633767D01*
X44849500Y27633767D01*
X44849500Y27466233D01*
X44852630Y27450499D01*
X44882182Y27301925D01*
X44882184Y27301918D01*
X44946296Y27147138D01*
X45035763Y27013242D01*
X45039374Y27007838D01*
X45157838Y26889374D01*
X45297137Y26796297D01*
X45451918Y26732184D01*
X45616233Y26699500D01*
X45616234Y26699500D01*
X45783766Y26699500D01*
X45783767Y26699500D01*
X45948082Y26732184D01*
X46102863Y26796297D01*
X46242162Y26889374D01*
X46360626Y27007838D01*
X46453703Y27147137D01*
X46517816Y27301918D01*
X46550500Y27466233D01*
X46550500Y27633767D01*
X46517816Y27798082D01*
X46453703Y27952863D01*
X46360626Y28092162D01*
X46242162Y28210626D01*
X46242158Y28210629D01*
X46102862Y28303704D01*
X45948082Y28367816D01*
X45948075Y28367818D01*
X45824288Y28392440D01*
X45783767Y28400500D01*
X45616233Y28400500D01*
X45583728Y28394035D01*
X45451924Y28367818D01*
X45451917Y28367816D01*
X45297137Y28303704D01*
X45157841Y28210629D01*
X45039371Y28092159D01*
X44946296Y27952863D01*
X44882184Y27798083D01*
X44882182Y27798076D01*
X44849500Y27633767D01*
X31205500Y27633767D01*
X31205500Y27976001D01*
X31197375Y28051569D01*
X31192026Y28076156D01*
X31186169Y28103081D01*
X31186167Y28103086D01*
X31186166Y28103093D01*
X31186165Y28103096D01*
X31168498Y28160462D01*
X31107461Y28260317D01*
X31062933Y28311704D01*
X31061708Y28313118D01*
X31061706Y28313120D01*
X31061703Y28313123D01*
X30998526Y28370411D01*
X30971306Y28383592D01*
X30893198Y28421414D01*
X30890169Y28422304D01*
X30826163Y28441099D01*
X30826155Y28441100D01*
X30726004Y28455500D01*
X30726000Y28455500D01*
X28724000Y28455500D01*
X28723999Y28455500D01*
X28648431Y28447376D01*
X28596907Y28436167D01*
X28596904Y28436166D01*
X28539538Y28418499D01*
X28439683Y28357462D01*
X28386880Y28311707D01*
X28386877Y28311704D01*
X28329589Y28248527D01*
X28311238Y28210629D01*
X28278586Y28143198D01*
X28278584Y28143194D01*
X28278584Y28143192D01*
X28258901Y28076164D01*
X28258900Y28076156D01*
X28244500Y27976005D01*
X28244500Y27276194D01*
X28247239Y27232169D01*
X28247243Y27232130D01*
X28251048Y27201667D01*
X28255641Y27173887D01*
X28255642Y27173882D01*
X28297828Y27064729D01*
X28297829Y27064726D01*
X28328282Y27013242D01*
X28336266Y26957170D01*
X28328285Y26937899D01*
X28246845Y26800193D01*
X28202789Y26648552D01*
X28200000Y26613111D01*
X28200000Y26425000D01*
X28976000Y26425000D01*
X29028326Y26403326D01*
X29050000Y26351000D01*
X29050000Y26300000D01*
X29101000Y26300000D01*
X29153326Y26278326D01*
X29175000Y26226000D01*
X29175000Y25425000D01*
X29338110Y25425000D01*
X29373551Y25427790D01*
X29525192Y25471846D01*
X29658908Y25550925D01*
X29673175Y25552956D01*
X29685517Y25560399D01*
X29697808Y25556462D01*
X29714980Y25558905D01*
X29740495Y25546789D01*
X29744510Y25543829D01*
X29753413Y25535194D01*
X29763217Y25530034D01*
X29767718Y25526715D01*
X29779674Y25506890D01*
X29794475Y25489089D01*
X29793936Y25483244D01*
X29796969Y25478216D01*
X29791405Y25455744D01*
X29789284Y25432690D01*
X29784675Y25428559D01*
X29783359Y25423238D01*
X29769259Y25414735D01*
X29750951Y25398317D01*
X29742854Y25395124D01*
X29624572Y25305429D01*
X29624571Y25305428D01*
X29534877Y25187148D01*
X29480421Y25049056D01*
X29470000Y24962279D01*
X29470000Y24875000D01*
X30076000Y24875000D01*
X30128326Y24853326D01*
X30150000Y24801000D01*
X30150000Y24750000D01*
X30201000Y24750000D01*
X30253326Y24728326D01*
X30275000Y24676000D01*
X30275000Y24290000D01*
X30293326Y24271674D01*
X30315000Y24219348D01*
X30315000Y22790001D01*
X30372278Y22790001D01*
X30372279Y22790002D01*
X30459050Y22800420D01*
X30459056Y22800422D01*
X30523278Y22825748D01*
X30579907Y22824782D01*
X30619266Y22784056D01*
X30624418Y22757980D01*
X30627500Y22545319D01*
X30606587Y22492685D01*
X30565084Y22471158D01*
X30495784Y22460183D01*
X30379218Y22400789D01*
X30286711Y22308282D01*
X30227317Y22191715D01*
X30212000Y22095005D01*
X30212000Y21549500D01*
X30190326Y21497174D01*
X30138000Y21475500D01*
X30096665Y21475500D01*
X30076940Y21478177D01*
X29749157Y21568829D01*
X29716556Y21587826D01*
X28844199Y22460183D01*
X28016661Y23287721D01*
X29510001Y23287721D01*
X29520419Y23200952D01*
X29520420Y23200948D01*
X29574877Y23062853D01*
X29664571Y22944573D01*
X29664572Y22944572D01*
X29782852Y22854878D01*
X29920944Y22800422D01*
X30007721Y22790001D01*
X30064999Y22790002D01*
X30065000Y22790002D01*
X30065000Y23375000D01*
X29510001Y23375000D01*
X29510001Y23287721D01*
X28016661Y23287721D01*
X27318893Y23985489D01*
X27318890Y23985491D01*
X27318889Y23985492D01*
X27216170Y24044797D01*
X27216168Y24044798D01*
X27216166Y24044799D01*
X27214864Y24045148D01*
X27191953Y24051288D01*
X27191953Y24051287D01*
X27101588Y24075500D01*
X19047493Y24075500D01*
X19047491Y24075500D01*
X18932916Y24044800D01*
X18830188Y23985491D01*
X16814508Y21969809D01*
X16755201Y21867087D01*
X16755201Y21867086D01*
X16752942Y21858653D01*
X16752941Y21858651D01*
X16724500Y21752510D01*
X16724500Y19078652D01*
X16702826Y19026326D01*
X16106580Y18430081D01*
X16054254Y18408407D01*
X16022214Y18415703D01*
X15742630Y18550000D01*
X15729017Y18556539D01*
X15707790Y18565894D01*
X15707774Y18565901D01*
X15706357Y18566471D01*
X15663480Y18580628D01*
X15663477Y18580629D01*
X15659324Y18581490D01*
X15659343Y18581587D01*
X15644408Y18584982D01*
X15619983Y18594091D01*
X15560373Y18600500D01*
X14437646Y18600499D01*
X14437646Y18601582D01*
X14387170Y18619447D01*
X14372590Y18637448D01*
X14365632Y18649500D01*
X14330520Y18710316D01*
X14218716Y18822120D01*
X14216137Y18824699D01*
X14216126Y18824709D01*
X12596340Y20444495D01*
X12596338Y20444498D01*
X12480316Y20560520D01*
X12371227Y20623502D01*
X12371227Y20623503D01*
X12371225Y20623503D01*
X12343385Y20639577D01*
X12343383Y20639578D01*
X12343381Y20639579D01*
X12190659Y20680501D01*
X12190657Y20680501D01*
X12032543Y20680501D01*
X12028013Y20680501D01*
X12027997Y20680500D01*
X7804000Y20680500D01*
X7751674Y20702174D01*
X7730000Y20754500D01*
X7730000Y20755000D01*
X6880000Y20755000D01*
X6877174Y20752174D01*
X6824848Y20730500D01*
X6685152Y20730500D01*
X6632826Y20752174D01*
X6630000Y20755000D01*
X6107239Y20755000D01*
X6054913Y20776674D01*
X6043155Y20791998D01*
X6020485Y20831263D01*
X5973074Y20878674D01*
X5951400Y20931000D01*
X5973074Y20983326D01*
X6025400Y21005000D01*
X6630000Y21005000D01*
X6880000Y21005000D01*
X7730000Y21005000D01*
X7730000Y21073062D01*
X7719385Y21161444D01*
X7663922Y21302093D01*
X7572564Y21422565D01*
X7452092Y21513923D01*
X7311443Y21569386D01*
X7223061Y21580000D01*
X6880000Y21580000D01*
X6880000Y21005000D01*
X6630000Y21005000D01*
X6630000Y21580000D01*
X6286939Y21580000D01*
X6198556Y21569386D01*
X6057907Y21513923D01*
X5937435Y21422565D01*
X5846077Y21302093D01*
X5790614Y21161444D01*
X5780000Y21073062D01*
X5780000Y21069500D01*
X5758326Y21017174D01*
X5706000Y20995500D01*
X5623980Y20995500D01*
X5515767Y20966505D01*
X5515758Y20966501D01*
X5418736Y20910485D01*
X5339515Y20831264D01*
X5283499Y20734242D01*
X5283495Y20734233D01*
X5253244Y20621333D01*
X5251608Y20621772D01*
X5226306Y20577956D01*
X5171597Y20563302D01*
X5128937Y20584342D01*
X4822174Y20891105D01*
X4800500Y20943431D01*
X4800500Y22132745D01*
X4822174Y22185071D01*
X5293929Y22656826D01*
X5346255Y22678500D01*
X5938309Y22678500D01*
X6028673Y22702714D01*
X6028674Y22702714D01*
X6039350Y22705575D01*
X6052887Y22709201D01*
X6155614Y22768511D01*
X6311536Y22924435D01*
X6333818Y22939734D01*
X6634151Y23073131D01*
X6664189Y23079501D01*
X6681444Y23079501D01*
X6681444Y23079502D01*
X6739262Y23085716D01*
X6870068Y23134505D01*
X6981831Y23218169D01*
X7065495Y23329932D01*
X7114284Y23460738D01*
X7120500Y23518557D01*
X7120499Y23981442D01*
X7114284Y24039262D01*
X7065495Y24170068D01*
X6981831Y24281831D01*
X6870068Y24365495D01*
X6870067Y24365496D01*
X6870068Y24365496D01*
X6739263Y24414284D01*
X6739260Y24414285D01*
X6681444Y24420500D01*
X6318556Y24420500D01*
X6318555Y24420499D01*
X6260737Y24414284D01*
X6129932Y24365496D01*
X6075322Y24324617D01*
X6020444Y24310612D01*
X5986264Y24324894D01*
X5879673Y24405724D01*
X5742858Y24459675D01*
X5656885Y24470000D01*
X5605000Y24470000D01*
X5605000Y23824000D01*
X5583326Y23771674D01*
X5531000Y23750000D01*
X5480000Y23750000D01*
X5480000Y23699000D01*
X5458326Y23646674D01*
X5406000Y23625000D01*
X4810000Y23625000D01*
X4810000Y23523112D01*
X4813860Y23490967D01*
X4798579Y23436431D01*
X4792714Y23429819D01*
X3989508Y22626611D01*
X3930200Y22523886D01*
X3929411Y22520940D01*
X3899500Y22409312D01*
X3204611Y22409312D01*
X3197572Y22426306D01*
X3099076Y22573717D01*
X2973716Y22699077D01*
X2826304Y22797573D01*
X2826305Y22797573D01*
X2662524Y22865413D01*
X2662513Y22865416D01*
X2488641Y22900000D01*
X2125000Y22900000D01*
X2125000Y22300000D01*
X1875000Y22300000D01*
X1875000Y22900000D01*
X1511359Y22900000D01*
X1337486Y22865416D01*
X1337475Y22865413D01*
X1173694Y22797573D01*
X1026283Y22699077D01*
X1026282Y22699075D01*
X900925Y22573718D01*
X900923Y22573717D01*
X802427Y22426306D01*
X734587Y22262525D01*
X734584Y22262514D01*
X707231Y22125001D01*
X300500Y22125001D01*
X300500Y23976886D01*
X4810000Y23976886D01*
X4810000Y23875000D01*
X5355000Y23875000D01*
X5355000Y24470000D01*
X5303115Y24470000D01*
X5217141Y24459675D01*
X5080326Y24405724D01*
X4963141Y24316860D01*
X4963140Y24316859D01*
X4874276Y24199674D01*
X4820325Y24062859D01*
X4810000Y23976886D01*
X300500Y23976886D01*
X300500Y24537721D01*
X29470001Y24537721D01*
X29480419Y24450952D01*
X29480420Y24450948D01*
X29534877Y24312853D01*
X29624571Y24194573D01*
X29624572Y24194572D01*
X29658832Y24168592D01*
X29687430Y24119705D01*
X29673083Y24064915D01*
X29666450Y24057307D01*
X29664573Y24055431D01*
X29574877Y23937148D01*
X29520421Y23799056D01*
X29510000Y23712279D01*
X29510000Y23625000D01*
X30065000Y23625000D01*
X30065000Y23960000D01*
X30046674Y23978326D01*
X30025000Y24030652D01*
X30025000Y24625000D01*
X29470001Y24625000D01*
X29470001Y24537721D01*
X300500Y24537721D01*
X300500Y25986890D01*
X28200000Y25986890D01*
X28202789Y25951449D01*
X28246845Y25799809D01*
X28327228Y25663889D01*
X28438888Y25552229D01*
X28574808Y25471846D01*
X28726448Y25427790D01*
X28761890Y25425000D01*
X28925000Y25425000D01*
X28925000Y26175000D01*
X28200000Y26175000D01*
X28200000Y25986890D01*
X300500Y25986890D01*
X300500Y27633767D01*
X1749500Y27633767D01*
X1749500Y27466233D01*
X1752630Y27450499D01*
X1782182Y27301925D01*
X1782184Y27301918D01*
X1846296Y27147138D01*
X1935763Y27013242D01*
X1939374Y27007838D01*
X2057838Y26889374D01*
X2197137Y26796297D01*
X2351918Y26732184D01*
X2516233Y26699500D01*
X2516234Y26699500D01*
X2683766Y26699500D01*
X2683767Y26699500D01*
X2848082Y26732184D01*
X3002863Y26796297D01*
X3142162Y26889374D01*
X3260626Y27007838D01*
X3353703Y27147137D01*
X3417816Y27301918D01*
X3450500Y27466233D01*
X3450500Y27633767D01*
X3417816Y27798082D01*
X3353703Y27952863D01*
X3260626Y28092162D01*
X3142162Y28210626D01*
X3142158Y28210629D01*
X3002862Y28303704D01*
X2848082Y28367816D01*
X2848075Y28367818D01*
X2724288Y28392440D01*
X2683767Y28400500D01*
X2516233Y28400500D01*
X2483728Y28394035D01*
X2351924Y28367818D01*
X2351917Y28367816D01*
X2197137Y28303704D01*
X2057841Y28210629D01*
X1939371Y28092159D01*
X1846296Y27952863D01*
X1782184Y27798083D01*
X1782182Y27798076D01*
X1749500Y27633767D01*
X300500Y27633767D01*
X300500Y27997917D01*
X300616Y28002066D01*
X304777Y28076164D01*
X317241Y28298115D01*
X318171Y28306353D01*
X367487Y28596608D01*
X369326Y28604668D01*
X450841Y28887611D01*
X453571Y28895414D01*
X566246Y29167436D01*
X569840Y29174898D01*
X712268Y29432603D01*
X716665Y29439601D01*
X887044Y29679727D01*
X892202Y29686196D01*
X1088408Y29905751D01*
X1094249Y29911592D01*
X1313804Y30107798D01*
X1320273Y30112956D01*
X1560399Y30283335D01*
X1567397Y30287732D01*
X1825102Y30430160D01*
X1832564Y30433754D01*
X2104586Y30546429D01*
X2112389Y30549159D01*
X2395332Y30630674D01*
X2403392Y30632513D01*
X2693655Y30681830D01*
X2701885Y30682759D01*
X2997934Y30699385D01*
X3002083Y30699500D01*
X3047595Y30699500D01*
X21960438Y30699500D01*
X51952405Y30699500D01*
X51997917Y30699500D01*
X52002065Y30699385D01*
G37*
%TD.AperFunction*%
%TD*%
%TA.AperFunction,Conductor*%
%TO.N,+5V*%
G36*
X7185139Y15579429D02*
G01*
X7619593Y15531157D01*
X7627436Y15526838D01*
X7630000Y15519529D01*
X7630000Y15040472D01*
X7626573Y15032199D01*
X7619592Y15028844D01*
X7185148Y14980572D01*
X7183856Y14980500D01*
X7182997Y14980500D01*
X7176260Y14982634D01*
X6767583Y15270435D01*
X6762792Y15278000D01*
X6764754Y15286738D01*
X6767577Y15289562D01*
X7176261Y15577368D01*
X7182997Y15579501D01*
X7183848Y15579501D01*
X7185139Y15579429D01*
G37*
%TD.AperFunction*%
%TD*%
%TA.AperFunction,Conductor*%
%TO.N,+5V*%
G36*
X7185139Y15579429D02*
G01*
X7619593Y15531157D01*
X7627436Y15526838D01*
X7630000Y15519529D01*
X7630000Y15040472D01*
X7626573Y15032199D01*
X7619592Y15028844D01*
X7185148Y14980572D01*
X7183856Y14980500D01*
X7182997Y14980500D01*
X7176260Y14982634D01*
X6767583Y15270435D01*
X6762792Y15278000D01*
X6764754Y15286738D01*
X6767577Y15289562D01*
X7176261Y15577368D01*
X7182997Y15579501D01*
X7183848Y15579501D01*
X7185139Y15579429D01*
G37*
%TD.AperFunction*%
%TD*%
%TA.AperFunction,Conductor*%
%TO.N,+5V*%
G36*
X14362623Y13007910D02*
G01*
X14749654Y12780681D01*
X14795919Y12753518D01*
X14801318Y12746374D01*
X14801557Y12745219D01*
X14872384Y12288002D01*
X14870264Y12279302D01*
X14862613Y12274649D01*
X14861250Y12274519D01*
X14104073Y12246774D01*
X14095680Y12249895D01*
X14095372Y12250193D01*
X13971151Y12374414D01*
X13967724Y12382687D01*
X13969448Y12388800D01*
X14346728Y13003938D01*
X14353974Y13009197D01*
X14362623Y13007910D01*
G37*
%TD.AperFunction*%
%TD*%
%TA.AperFunction,Conductor*%
%TO.N,+5V*%
G36*
X13306992Y11708473D02*
G01*
X13429731Y11585734D01*
X13433158Y11577461D01*
X13433021Y11575673D01*
X13301860Y10727533D01*
X13297209Y10719881D01*
X13288509Y10717758D01*
X13288052Y10717838D01*
X13008089Y10772574D01*
X13000627Y10777525D01*
X12998663Y10783235D01*
X12953011Y11431389D01*
X12955848Y11439880D01*
X12957354Y11441330D01*
X13291398Y11709327D01*
X13299995Y11711830D01*
X13306992Y11708473D01*
G37*
%TD.AperFunction*%
%TD*%
%TA.AperFunction,Conductor*%
%TO.N,+5V*%
G36*
X7185148Y20379428D02*
G01*
X7619593Y20331157D01*
X7627436Y20326838D01*
X7630000Y20319529D01*
X7630000Y19840472D01*
X7626573Y19832199D01*
X7619592Y19828844D01*
X7185147Y19780572D01*
X7183855Y19780500D01*
X7182997Y19780500D01*
X7176260Y19782634D01*
X7061830Y19863218D01*
X6767582Y20070435D01*
X6762792Y20077999D01*
X6764754Y20086737D01*
X6767581Y20089565D01*
X7176260Y20377366D01*
X7182997Y20379500D01*
X7183856Y20379500D01*
X7185148Y20379428D01*
G37*
%TD.AperFunction*%
%TD*%
%TA.AperFunction,Conductor*%
%TO.N,+5V*%
G36*
X7185148Y20379428D02*
G01*
X7619593Y20331157D01*
X7627436Y20326838D01*
X7630000Y20319529D01*
X7630000Y19840472D01*
X7626573Y19832199D01*
X7619592Y19828844D01*
X7185147Y19780572D01*
X7183855Y19780500D01*
X7182997Y19780500D01*
X7176260Y19782634D01*
X7061830Y19863218D01*
X6767582Y20070435D01*
X6762792Y20077999D01*
X6764754Y20086737D01*
X6767581Y20089565D01*
X7176260Y20377366D01*
X7182997Y20379500D01*
X7183856Y20379500D01*
X7185148Y20379428D01*
G37*
%TD.AperFunction*%
%TD*%
%TA.AperFunction,Conductor*%
%TO.N,+5V*%
G36*
X15049655Y13671573D02*
G01*
X15052556Y13666770D01*
X15230472Y13093833D01*
X15229652Y13084916D01*
X15226487Y13081132D01*
X14807189Y12754599D01*
X14798556Y12752219D01*
X14792811Y12754599D01*
X14373512Y13081132D01*
X14369090Y13088919D01*
X14369527Y13093833D01*
X14547444Y13666770D01*
X14553171Y13673654D01*
X14558618Y13675000D01*
X15041382Y13675000D01*
X15049655Y13671573D01*
G37*
%TD.AperFunction*%
%TD*%
%TA.AperFunction,Conductor*%
%TO.N,+5V*%
G36*
X14992049Y17001807D02*
G01*
X14999823Y16997365D01*
X15002120Y16992095D01*
X15048310Y16710662D01*
X15046268Y16701943D01*
X15039571Y16697409D01*
X14432370Y16547371D01*
X14431250Y16547151D01*
X14386109Y16540574D01*
X14368060Y16531751D01*
X14365729Y16530905D01*
X14308555Y16516777D01*
X14299701Y16518119D01*
X14297475Y16519862D01*
X13959558Y16857779D01*
X13956131Y16866052D01*
X13959558Y16874325D01*
X13962147Y16876279D01*
X14170521Y16992095D01*
X14334148Y17083041D01*
X14341305Y17084420D01*
X14992049Y17001807D01*
G37*
%TD.AperFunction*%
%TD*%
%TA.AperFunction,Conductor*%
%TO.N,+5V*%
G36*
X14807256Y12746953D02*
G01*
X15242940Y12503938D01*
X15248496Y12496915D01*
X15248815Y12492005D01*
X15151479Y11834985D01*
X15146876Y11827304D01*
X15139905Y11825000D01*
X14657426Y11825000D01*
X14649153Y11828427D01*
X14646839Y11831720D01*
X14390721Y12376240D01*
X14390301Y12385183D01*
X14393537Y12389963D01*
X14793788Y12745483D01*
X14802248Y12748415D01*
X14807256Y12746953D01*
G37*
%TD.AperFunction*%
%TD*%
%TA.AperFunction,Conductor*%
%TO.N,+5V*%
G36*
X15147801Y11734073D02*
G01*
X15151156Y11727092D01*
X15199572Y11291350D01*
X15198046Y11284156D01*
X14910102Y10791292D01*
X14902970Y10785877D01*
X14894098Y10787092D01*
X14889898Y10791292D01*
X14774720Y10988438D01*
X14601952Y11284158D01*
X14600427Y11291348D01*
X14648844Y11727092D01*
X14653163Y11734936D01*
X14660472Y11737500D01*
X15139528Y11737500D01*
X15147801Y11734073D01*
G37*
%TD.AperFunction*%
%TD*%
%TA.AperFunction,Conductor*%
%TO.N,+3V3*%
G36*
X34654821Y13650635D02*
G01*
X35068098Y13414504D01*
X35073582Y13407424D01*
X35073577Y13401248D01*
X34992228Y13104836D01*
X34986734Y13097765D01*
X34985389Y13097110D01*
X34719306Y12987842D01*
X34710352Y12987869D01*
X34704827Y12992650D01*
X34642215Y13097110D01*
X34439628Y13435103D01*
X34438314Y13443961D01*
X34441388Y13449389D01*
X34640748Y13648749D01*
X34649020Y13652175D01*
X34654821Y13650635D01*
G37*
%TD.AperFunction*%
%TD*%
%TA.AperFunction,Conductor*%
%TO.N,+3V3*%
G36*
X37948225Y21358276D02*
G01*
X38245405Y21252593D01*
X38252052Y21246592D01*
X38252544Y21245390D01*
X38344213Y20980081D01*
X38343675Y20971142D01*
X38337979Y20965601D01*
X37868020Y20752844D01*
X37859070Y20752554D01*
X37854922Y20755230D01*
X37655594Y20954558D01*
X37652167Y20962831D01*
X37654414Y20969724D01*
X37934854Y21354149D01*
X37942497Y21358811D01*
X37948225Y21358276D01*
G37*
%TD.AperFunction*%
%TD*%
%TA.AperFunction,Conductor*%
%TO.N,+3V3*%
G36*
X38550242Y18226573D02*
G01*
X38552887Y18222506D01*
X38676918Y17900526D01*
X38676694Y17891574D01*
X38673299Y17887176D01*
X38407299Y17674827D01*
X38398696Y17672344D01*
X38392701Y17674827D01*
X38126700Y17887176D01*
X38122372Y17895016D01*
X38123080Y17900522D01*
X38247113Y18222507D01*
X38253285Y18228994D01*
X38258031Y18230000D01*
X38541969Y18230000D01*
X38550242Y18226573D01*
G37*
%TD.AperFunction*%
%TD*%
%TA.AperFunction,Conductor*%
%TO.N,+3V3*%
G36*
X34996098Y13097276D02*
G01*
X35263920Y12933713D01*
X35269195Y12926477D01*
X35269492Y12922894D01*
X35240776Y12520866D01*
X35236769Y12512858D01*
X35229106Y12510000D01*
X34750894Y12510000D01*
X34742621Y12513427D01*
X34739224Y12520866D01*
X34733480Y12601272D01*
X34710507Y12922896D01*
X34713335Y12931391D01*
X34716077Y12933712D01*
X34983902Y13097277D01*
X34992749Y13098664D01*
X34996098Y13097276D01*
G37*
%TD.AperFunction*%
%TD*%
%TA.AperFunction,Conductor*%
%TO.N,+3V3*%
G36*
X21701779Y19570051D02*
G01*
X21705095Y19563381D01*
X21718887Y19463612D01*
X21760329Y19393121D01*
X21821848Y19347803D01*
X21897266Y19313456D01*
X21897295Y19313443D01*
X21965848Y19283140D01*
X21967391Y19282315D01*
X22066833Y19219157D01*
X22069301Y19217059D01*
X22143435Y19133747D01*
X22146374Y19125288D01*
X22142472Y19117228D01*
X22141215Y19116255D01*
X21826956Y18905314D01*
X21822689Y18903547D01*
X21450889Y18830554D01*
X21442111Y18832323D01*
X21437154Y18839781D01*
X21437062Y18840313D01*
X21396746Y19111324D01*
X21396619Y19113103D01*
X21397615Y19318836D01*
X21397618Y19319011D01*
X21398307Y19347803D01*
X21403427Y19562059D01*
X21407051Y19570246D01*
X21415124Y19573478D01*
X21693506Y19573478D01*
X21701779Y19570051D01*
G37*
%TD.AperFunction*%
%TD*%
%TA.AperFunction,Conductor*%
%TO.N,+3V3*%
G36*
X38492480Y21509848D02*
G01*
X38830286Y21451673D01*
X38837857Y21446892D01*
X38840000Y21440143D01*
X38840000Y20962096D01*
X38836573Y20953823D01*
X38828300Y20950396D01*
X38827912Y20950402D01*
X38248980Y20969609D01*
X38240825Y20973309D01*
X38237674Y20981691D01*
X38248821Y21245765D01*
X38251852Y21253139D01*
X38481841Y21506187D01*
X38489940Y21510004D01*
X38492480Y21509848D01*
G37*
%TD.AperFunction*%
%TD*%
%TA.AperFunction,Conductor*%
%TO.N,+3V3*%
G36*
X38979135Y17920777D02*
G01*
X38987142Y17916770D01*
X38990000Y17909107D01*
X38990000Y17430894D01*
X38986573Y17422621D01*
X38979134Y17419224D01*
X38577106Y17390508D01*
X38568609Y17393336D01*
X38566287Y17396080D01*
X38402724Y17663902D01*
X38401336Y17672749D01*
X38402724Y17676098D01*
X38549706Y17916770D01*
X38566287Y17943922D01*
X38573523Y17949196D01*
X38577102Y17949493D01*
X38979135Y17920777D01*
G37*
%TD.AperFunction*%
%TD*%
%TA.AperFunction,Conductor*%
%TO.N,+3V3*%
G36*
X24806782Y5243227D02*
G01*
X25542709Y4508279D01*
X25546141Y4500008D01*
X25542720Y4491732D01*
X25542709Y4491721D01*
X24806782Y3756774D01*
X24798506Y3753353D01*
X24792024Y3755318D01*
X24055210Y4246527D01*
X24050227Y4253967D01*
X24050000Y4256262D01*
X24050000Y4743739D01*
X24053427Y4752012D01*
X24055205Y4753471D01*
X24792024Y5244684D01*
X24800809Y5246421D01*
X24806782Y5243227D01*
G37*
%TD.AperFunction*%
%TD*%
%TA.AperFunction,Conductor*%
%TO.N,/SWD_NRST*%
G36*
X21348966Y18246638D02*
G01*
X21442059Y18167741D01*
X21532024Y18119156D01*
X21615773Y18095261D01*
X21615776Y18095261D01*
X21615778Y18095260D01*
X21639501Y18091878D01*
X21698441Y18083472D01*
X21760784Y18075304D01*
X21762176Y18075034D01*
X21894576Y18040801D01*
X21896442Y18040144D01*
X21965242Y18009053D01*
X21966414Y18008442D01*
X22033173Y17968643D01*
X22038525Y17961463D01*
X22037232Y17952602D01*
X22036926Y17952117D01*
X21827011Y17636257D01*
X21823743Y17632989D01*
X21508063Y17423193D01*
X21499276Y17421468D01*
X21491843Y17426461D01*
X21491435Y17427121D01*
X21439628Y17517551D01*
X21438861Y17519165D01*
X21405168Y17606724D01*
X21404580Y17608807D01*
X21376536Y17761512D01*
X21376504Y17761703D01*
X21357316Y17877396D01*
X21310271Y17989834D01*
X21297318Y18008441D01*
X21267163Y18051758D01*
X21267158Y18051764D01*
X21213826Y18111001D01*
X21210837Y18119442D01*
X21214247Y18127101D01*
X21333131Y18245985D01*
X21341403Y18249411D01*
X21348966Y18246638D01*
G37*
%TD.AperFunction*%
%TD*%
%TA.AperFunction,Conductor*%
%TO.N,/SWD_NRST*%
G36*
X33697961Y14781653D02*
G01*
X33698603Y14780103D01*
X33811597Y14440214D01*
X33812047Y14434675D01*
X33784076Y14259852D01*
X33779385Y14252224D01*
X33772523Y14250000D01*
X33602477Y14250000D01*
X33594204Y14253427D01*
X33590924Y14259851D01*
X33562952Y14434674D01*
X33563402Y14440214D01*
X33676397Y14780103D01*
X33682259Y14786873D01*
X33691191Y14787515D01*
X33697961Y14781653D01*
G37*
%TD.AperFunction*%
%TD*%
%TA.AperFunction,Conductor*%
%TO.N,/SWD_NRST*%
G36*
X27782238Y9362370D02*
G01*
X27994752Y9107493D01*
X27997418Y9098944D01*
X27994752Y9092507D01*
X27782238Y8837631D01*
X27774308Y8833472D01*
X27768225Y8834559D01*
X27416673Y9001826D01*
X27410675Y9008475D01*
X27410000Y9012391D01*
X27410000Y9187610D01*
X27413427Y9195883D01*
X27416673Y9198175D01*
X27768225Y9365443D01*
X27777168Y9365902D01*
X27782238Y9362370D01*
G37*
%TD.AperFunction*%
%TD*%
%TA.AperFunction,Conductor*%
%TO.N,/SWD_NRST*%
G36*
X28314826Y9233332D02*
G01*
X28509144Y8897719D01*
X28510719Y8891859D01*
X28510719Y8719211D01*
X28507292Y8710938D01*
X28499019Y8707511D01*
X28496772Y8707729D01*
X27935312Y8817586D01*
X27927851Y8822537D01*
X27926077Y8831315D01*
X27926264Y8832118D01*
X27997566Y9094720D01*
X28003040Y9101804D01*
X28003955Y9102275D01*
X28299822Y9238102D01*
X28308769Y9238438D01*
X28314826Y9233332D01*
G37*
%TD.AperFunction*%
%TD*%
%TA.AperFunction,Conductor*%
%TO.N,/RF*%
G36*
X41811543Y19787022D02*
G01*
X42025565Y19507107D01*
X42027868Y19498453D01*
X42025565Y19492893D01*
X41811543Y19212979D01*
X41803796Y19208489D01*
X41796632Y19209823D01*
X41446083Y19401671D01*
X41440471Y19408648D01*
X41440000Y19411934D01*
X41440000Y19588067D01*
X41443427Y19596340D01*
X41446078Y19598327D01*
X41796632Y19790179D01*
X41805535Y19791144D01*
X41811543Y19787022D01*
G37*
%TD.AperFunction*%
%TD*%
%TA.AperFunction,Conductor*%
%TO.N,/RF*%
G36*
X37427649Y19596577D02*
G01*
X37435276Y19591886D01*
X37437500Y19585024D01*
X37437500Y19414977D01*
X37434073Y19406704D01*
X37427648Y19403424D01*
X37252825Y19375453D01*
X37247286Y19375903D01*
X36999283Y19458351D01*
X36907396Y19488898D01*
X36900627Y19494759D01*
X36899985Y19503691D01*
X36905847Y19510461D01*
X36907393Y19511102D01*
X37247287Y19624099D01*
X37252825Y19624548D01*
X37427649Y19596577D01*
G37*
%TD.AperFunction*%
%TD*%
%TA.AperFunction,Conductor*%
%TO.N,/RF_Match*%
G36*
X43233365Y19790180D02*
G01*
X43583919Y19598328D01*
X43589529Y19591353D01*
X43590000Y19588067D01*
X43590000Y19411934D01*
X43586573Y19403661D01*
X43583921Y19401674D01*
X43351906Y19274696D01*
X43233367Y19209822D01*
X43224464Y19208857D01*
X43218456Y19212979D01*
X43004434Y19492893D01*
X43002131Y19501547D01*
X43004434Y19507107D01*
X43066336Y19588067D01*
X43218457Y19787024D01*
X43226203Y19791512D01*
X43233365Y19790180D01*
G37*
%TD.AperFunction*%
%TD*%
%TA.AperFunction,Conductor*%
%TO.N,/RF_Match*%
G36*
X44032238Y19762370D02*
G01*
X44244752Y19507493D01*
X44247418Y19498944D01*
X44244752Y19492507D01*
X44032238Y19237631D01*
X44024308Y19233472D01*
X44018225Y19234559D01*
X43666673Y19401826D01*
X43660675Y19408475D01*
X43660000Y19412391D01*
X43660000Y19587610D01*
X43663427Y19595883D01*
X43666673Y19598175D01*
X44018225Y19765443D01*
X44027168Y19765902D01*
X44032238Y19762370D01*
G37*
%TD.AperFunction*%
%TD*%
%TA.AperFunction,Conductor*%
%TO.N,/RF_Match*%
G36*
X46140203Y19634595D02*
G01*
X46142985Y19632551D01*
X46268136Y19508303D01*
X46271593Y19500042D01*
X46268196Y19491757D01*
X46268136Y19491697D01*
X46142985Y19367450D01*
X46134700Y19364053D01*
X46131287Y19364575D01*
X46008745Y19402452D01*
X46001853Y19408169D01*
X46000500Y19413630D01*
X46000500Y19586371D01*
X46003927Y19594644D01*
X46008743Y19597548D01*
X46131289Y19635426D01*
X46140203Y19634595D01*
G37*
%TD.AperFunction*%
%TD*%
%TA.AperFunction,Conductor*%
%TO.N,/RF_Match*%
G36*
X44481774Y19765442D02*
G01*
X44833327Y19598175D01*
X44839325Y19591526D01*
X44840000Y19587610D01*
X44840000Y19412391D01*
X44836573Y19404118D01*
X44833327Y19401826D01*
X44481774Y19234559D01*
X44472831Y19234099D01*
X44467761Y19237631D01*
X44255246Y19492509D01*
X44252581Y19501056D01*
X44255246Y19507492D01*
X44467762Y19762371D01*
X44475691Y19766529D01*
X44481774Y19765442D01*
G37*
%TD.AperFunction*%
%TD*%
%TA.AperFunction,Conductor*%
%TO.N,/LSE_OUT*%
G36*
X31783606Y13986573D02*
G01*
X31785756Y13983615D01*
X31965100Y13631897D01*
X31965805Y13622970D01*
X31962170Y13617596D01*
X31707493Y13405248D01*
X31698944Y13402582D01*
X31692507Y13405248D01*
X31437429Y13617930D01*
X31433270Y13625860D01*
X31434218Y13631640D01*
X31589420Y13983028D01*
X31595898Y13989210D01*
X31600123Y13990000D01*
X31775333Y13990000D01*
X31783606Y13986573D01*
G37*
%TD.AperFunction*%
%TD*%
%TA.AperFunction,Conductor*%
%TO.N,/LSE_OUT*%
G36*
X31697961Y14781653D02*
G01*
X31698603Y14780103D01*
X31811597Y14440214D01*
X31812047Y14434675D01*
X31784076Y14259852D01*
X31779385Y14252224D01*
X31772523Y14250000D01*
X31602477Y14250000D01*
X31594204Y14253427D01*
X31590924Y14259851D01*
X31562952Y14434674D01*
X31563402Y14440214D01*
X31676397Y14780103D01*
X31682259Y14786873D01*
X31691191Y14787515D01*
X31697961Y14781653D01*
G37*
%TD.AperFunction*%
%TD*%
%TA.AperFunction,Conductor*%
%TO.N,/LSE_OUT*%
G36*
X32203013Y11927888D02*
G01*
X32204411Y11926197D01*
X32288936Y11801880D01*
X32452194Y11561761D01*
X32454012Y11552993D01*
X32452967Y11549918D01*
X32210009Y11067755D01*
X32203226Y11061909D01*
X32194296Y11062572D01*
X32189669Y11066772D01*
X31914969Y11501780D01*
X31913450Y11510605D01*
X31914433Y11513329D01*
X32061274Y11801884D01*
X32063423Y11804844D01*
X32186468Y11927889D01*
X32194740Y11931315D01*
X32203013Y11927888D01*
G37*
%TD.AperFunction*%
%TD*%
%TA.AperFunction,Conductor*%
%TO.N,/LSE_OUT*%
G36*
X31707491Y13394754D02*
G01*
X31962369Y13182239D01*
X31966528Y13174309D01*
X31965441Y13168226D01*
X31798175Y12816673D01*
X31791526Y12810675D01*
X31787610Y12810000D01*
X31612390Y12810000D01*
X31604117Y12813427D01*
X31601825Y12816673D01*
X31434558Y13168226D01*
X31434098Y13177169D01*
X31437628Y13182237D01*
X31692508Y13394754D01*
X31701056Y13397419D01*
X31707491Y13394754D01*
G37*
%TD.AperFunction*%
%TD*%
%TA.AperFunction,Conductor*%
%TO.N,/LSE_IN*%
G36*
X31178382Y14813616D02*
G01*
X31186505Y14809849D01*
X31189494Y14803457D01*
X31245615Y14378380D01*
X31244623Y14371912D01*
X31179515Y14232041D01*
X31172917Y14225986D01*
X31163971Y14226371D01*
X31160635Y14228705D01*
X31041791Y14347549D01*
X31038364Y14355822D01*
X31038379Y14356412D01*
X31061896Y14806873D01*
X31065749Y14814954D01*
X31074064Y14817951D01*
X31178382Y14813616D01*
G37*
%TD.AperFunction*%
%TD*%
%TA.AperFunction,Conductor*%
%TO.N,/LSE_IN*%
G36*
X30467491Y13394754D02*
G01*
X30722369Y13182239D01*
X30726528Y13174309D01*
X30725441Y13168226D01*
X30558175Y12816673D01*
X30551526Y12810675D01*
X30547610Y12810000D01*
X30372390Y12810000D01*
X30364117Y12813427D01*
X30361825Y12816673D01*
X30194558Y13168226D01*
X30194098Y13177169D01*
X30197628Y13182237D01*
X30452508Y13394754D01*
X30461056Y13397419D01*
X30467491Y13394754D01*
G37*
%TD.AperFunction*%
%TD*%
%TA.AperFunction,Conductor*%
%TO.N,/LSE_IN*%
G36*
X30587006Y13976587D02*
G01*
X30590000Y13968771D01*
X30590000Y13805001D01*
X30589999Y13805001D01*
X30722468Y13632527D01*
X30724790Y13623878D01*
X30720645Y13616384D01*
X30468419Y13407791D01*
X30459860Y13405159D01*
X30451947Y13409351D01*
X30451629Y13409753D01*
X30290031Y13623576D01*
X30250543Y13675826D01*
X30248290Y13684491D01*
X30252062Y13691585D01*
X30570484Y13977477D01*
X30578929Y13980454D01*
X30587006Y13976587D01*
G37*
%TD.AperFunction*%
%TD*%
%TA.AperFunction,Conductor*%
%TO.N,/LSE_IN*%
G36*
X30895997Y11896573D02*
G01*
X30898218Y11893474D01*
X31085688Y11513272D01*
X31086273Y11504337D01*
X31085095Y11501865D01*
X30809901Y11064728D01*
X30802594Y11059552D01*
X30793767Y11061060D01*
X30790099Y11064728D01*
X30514904Y11501865D01*
X30513396Y11510692D01*
X30514308Y11513266D01*
X30701782Y11893475D01*
X30708515Y11899379D01*
X30712276Y11900000D01*
X30887724Y11900000D01*
X30895997Y11896573D01*
G37*
%TD.AperFunction*%
%TD*%
%TA.AperFunction,Conductor*%
%TO.N,/Boot0*%
G36*
X35718890Y7312823D02*
G01*
X35944160Y7057745D01*
X35947068Y7049275D01*
X35944160Y7042255D01*
X35718890Y6787178D01*
X35710845Y6783245D01*
X35704262Y6784795D01*
X35415842Y6951621D01*
X35410396Y6958730D01*
X35410000Y6961749D01*
X35410000Y7138252D01*
X35413427Y7146525D01*
X35415837Y7148377D01*
X35704264Y7315207D01*
X35713139Y7316382D01*
X35718890Y7312823D01*
G37*
%TD.AperFunction*%
%TD*%
%TA.AperFunction,Conductor*%
%TO.N,/Boot0*%
G36*
X35690123Y7157682D02*
G01*
X35764973Y7126955D01*
X35944844Y7053114D01*
X35951195Y7046804D01*
X35951893Y7044483D01*
X36010082Y6739209D01*
X36008265Y6730440D01*
X36003233Y6726279D01*
X35583065Y6544576D01*
X35574111Y6544438D01*
X35570148Y6547042D01*
X35447336Y6669854D01*
X35443909Y6678127D01*
X35445104Y6683278D01*
X35675178Y7152016D01*
X35681899Y7157931D01*
X35690123Y7157682D01*
G37*
%TD.AperFunction*%
%TD*%
%TA.AperFunction,Conductor*%
%TO.N,/Boot0*%
G36*
X35546524Y6046573D02*
G01*
X35548379Y6044158D01*
X35715205Y5755738D01*
X35716381Y5746861D01*
X35712822Y5741110D01*
X35457745Y5515840D01*
X35449275Y5512932D01*
X35442255Y5515840D01*
X35187177Y5741110D01*
X35183244Y5749155D01*
X35184793Y5755735D01*
X35351621Y6044158D01*
X35358730Y6049604D01*
X35361749Y6050000D01*
X35538251Y6050000D01*
X35546524Y6046573D01*
G37*
%TD.AperFunction*%
%TD*%
%TA.AperFunction,Conductor*%
%TO.N,/Boot0*%
G36*
X32199200Y14774919D02*
G01*
X32200505Y14772224D01*
X32311638Y14440074D01*
X32312140Y14434813D01*
X32299393Y14339405D01*
X32296069Y14332681D01*
X32177394Y14214006D01*
X32169121Y14210579D01*
X32160848Y14214006D01*
X32158158Y14218191D01*
X32114419Y14335480D01*
X32098034Y14379417D01*
X32097545Y14385893D01*
X32177958Y14770906D01*
X32183003Y14778302D01*
X32191802Y14779965D01*
X32199200Y14774919D01*
G37*
%TD.AperFunction*%
%TD*%
%TA.AperFunction,Conductor*%
%TO.N,/Boot0*%
G36*
X35694442Y5766097D02*
G01*
X36033244Y5608150D01*
X36039294Y5601549D01*
X36040000Y5597546D01*
X36040000Y5422455D01*
X36036573Y5414182D01*
X36033244Y5411851D01*
X35694442Y5253904D01*
X35685495Y5253514D01*
X35680866Y5256610D01*
X35535930Y5415000D01*
X35456226Y5502103D01*
X35453170Y5510518D01*
X35456227Y5517898D01*
X35535930Y5605000D01*
X35680867Y5763392D01*
X35688980Y5767182D01*
X35694442Y5766097D01*
G37*
%TD.AperFunction*%
%TD*%
%TA.AperFunction,Conductor*%
%TO.N,/Boot0*%
G36*
X36477514Y5746090D02*
G01*
X36481835Y5742853D01*
X36694739Y5487509D01*
X36697405Y5478961D01*
X36694723Y5472505D01*
X36482017Y5218491D01*
X36474078Y5214349D01*
X36467350Y5215784D01*
X36116003Y5411654D01*
X36110445Y5418675D01*
X36110000Y5421873D01*
X36110000Y5597034D01*
X36113427Y5605307D01*
X36117411Y5607920D01*
X36468562Y5746246D01*
X36477514Y5746090D01*
G37*
%TD.AperFunction*%
%TD*%
%TA.AperFunction,Conductor*%
%TO.N,/LED_A*%
G36*
X37315588Y17057124D02*
G01*
X37455459Y16992016D01*
X37461514Y16985418D01*
X37461129Y16976472D01*
X37458795Y16973136D01*
X37339951Y16854292D01*
X37331678Y16850865D01*
X37331068Y16850881D01*
X36880629Y16874397D01*
X36872546Y16878250D01*
X36869549Y16886566D01*
X36873884Y16990884D01*
X36877651Y16999006D01*
X36884040Y17001994D01*
X37309120Y17058116D01*
X37315588Y17057124D01*
G37*
%TD.AperFunction*%
%TD*%
%TA.AperFunction,Conductor*%
%TO.N,/LED_A*%
G36*
X40546339Y13686573D02*
G01*
X40548329Y13683917D01*
X40740177Y13333369D01*
X40741143Y13324466D01*
X40737021Y13318458D01*
X40457107Y13104435D01*
X40448453Y13102132D01*
X40442893Y13104435D01*
X40162978Y13318458D01*
X40158488Y13326205D01*
X40159822Y13333369D01*
X40351671Y13683917D01*
X40358648Y13689529D01*
X40361934Y13690000D01*
X40538066Y13690000D01*
X40546339Y13686573D01*
G37*
%TD.AperFunction*%
%TD*%
%TA.AperFunction,Conductor*%
%TO.N,/LED_K*%
G36*
X40687312Y12409681D02*
G01*
X41058440Y12228208D01*
X41064366Y12221495D01*
X41065000Y12217697D01*
X41065000Y12042304D01*
X41061573Y12034031D01*
X41058440Y12031793D01*
X40687312Y11850320D01*
X40678374Y11849765D01*
X40673082Y11853465D01*
X40528579Y12031793D01*
X40454967Y12122636D01*
X40452422Y12131219D01*
X40454967Y12137364D01*
X40673082Y12406537D01*
X40680953Y12410806D01*
X40687312Y12409681D01*
G37*
%TD.AperFunction*%
%TD*%
%TA.AperFunction,Conductor*%
%TO.N,/LED_K*%
G36*
X41464857Y12356637D02*
G01*
X41468706Y12353857D01*
X41693715Y12107961D01*
X41696772Y12099545D01*
X41693652Y12092097D01*
X41467218Y11848520D01*
X41459075Y11844794D01*
X41453008Y11846236D01*
X41116059Y12031666D01*
X41110463Y12038657D01*
X41110000Y12041916D01*
X41110000Y12216940D01*
X41113427Y12225213D01*
X41117532Y12227872D01*
X41455907Y12356891D01*
X41464857Y12356637D01*
G37*
%TD.AperFunction*%
%TD*%
%TA.AperFunction,Conductor*%
%TO.N,/RF_Antenna*%
G36*
X47644208Y19635427D02*
G01*
X47766756Y19597549D01*
X47773647Y19591832D01*
X47775000Y19586371D01*
X47775000Y19413630D01*
X47771573Y19405357D01*
X47766755Y19402452D01*
X47644212Y19364575D01*
X47635296Y19365406D01*
X47632514Y19367450D01*
X47507363Y19491697D01*
X47503906Y19499958D01*
X47507303Y19508243D01*
X47507363Y19508303D01*
X47632515Y19632552D01*
X47640799Y19635948D01*
X47644208Y19635427D01*
G37*
%TD.AperFunction*%
%TD*%
%TA.AperFunction,Conductor*%
%TO.N,/RF_Antenna*%
G36*
X48810640Y19972803D02*
G01*
X49170471Y19507154D01*
X49172818Y19498512D01*
X49170471Y19492846D01*
X48810640Y19027198D01*
X48802870Y19022747D01*
X48795438Y19024275D01*
X48155756Y19401605D01*
X48150371Y19408759D01*
X48150000Y19411682D01*
X48150000Y19588319D01*
X48153427Y19596592D01*
X48155752Y19598394D01*
X48795439Y19975727D01*
X48804305Y19976978D01*
X48810640Y19972803D01*
G37*
%TD.AperFunction*%
%TD*%
%TA.AperFunction,Conductor*%
%TO.N,Net-(J1-CC1)*%
G36*
X6258302Y19079006D02*
G01*
X6706310Y18944161D01*
X6713244Y18938496D01*
X6714141Y18929586D01*
X6708475Y18922651D01*
X6704728Y18921396D01*
X6186610Y18841124D01*
X6179507Y18842261D01*
X6016452Y18925341D01*
X6010637Y18932150D01*
X6011339Y18941078D01*
X6013488Y18944036D01*
X6140354Y19070902D01*
X6148003Y19074311D01*
X6245317Y19079486D01*
X6245859Y19079501D01*
X6254943Y19079501D01*
X6258302Y19079006D01*
G37*
%TD.AperFunction*%
%TD*%
%TA.AperFunction,Conductor*%
%TO.N,Net-(J1-CC1)*%
G36*
X6240033Y23857719D02*
G01*
X6494844Y23753114D01*
X6501195Y23746804D01*
X6501893Y23744483D01*
X6560100Y23439117D01*
X6558283Y23430348D01*
X6553356Y23426233D01*
X6136646Y23241145D01*
X6127694Y23240919D01*
X6123624Y23243565D01*
X5993855Y23373334D01*
X5990428Y23381607D01*
X5991670Y23386851D01*
X6225135Y23852143D01*
X6231908Y23858000D01*
X6240033Y23857719D01*
G37*
%TD.AperFunction*%
%TD*%
%TA.AperFunction,Conductor*%
%TO.N,Net-(J1-CC2)*%
G36*
X6229107Y16073526D02*
G01*
X6714557Y15941289D01*
X6721639Y15935808D01*
X6722771Y15926925D01*
X6717290Y15919843D01*
X6714557Y15918711D01*
X6229107Y15786475D01*
X6223457Y15786351D01*
X6039125Y15827942D01*
X6031809Y15833106D01*
X6030000Y15839355D01*
X6030000Y16020646D01*
X6033427Y16028919D01*
X6039124Y16032059D01*
X6223457Y16073650D01*
X6229107Y16073526D01*
G37*
%TD.AperFunction*%
%TD*%
%TA.AperFunction,Conductor*%
%TO.N,Net-(J1-CC2)*%
G36*
X5886643Y11508857D02*
G01*
X6303356Y11323767D01*
X6309526Y11317278D01*
X6310100Y11310884D01*
X6251893Y11005518D01*
X6246978Y10998033D01*
X6244843Y10996886D01*
X5990035Y10892282D01*
X5981081Y10892310D01*
X5975135Y10897858D01*
X5767895Y11310884D01*
X5741670Y11363148D01*
X5741023Y11372078D01*
X5743853Y11376665D01*
X5873625Y11506437D01*
X5881897Y11509863D01*
X5886643Y11508857D01*
G37*
%TD.AperFunction*%
%TD*%
%TA.AperFunction,Conductor*%
%TO.N,/UART_TXC*%
G36*
X37444482Y12121894D02*
G01*
X37451967Y12116979D01*
X37453114Y12114844D01*
X37557681Y11860124D01*
X37557653Y11851169D01*
X37552013Y11845178D01*
X37083281Y11615107D01*
X37074345Y11614538D01*
X37069853Y11617337D01*
X36947041Y11740149D01*
X36943614Y11748422D01*
X36944575Y11753066D01*
X37126279Y12173236D01*
X37132707Y12179467D01*
X37139207Y12180083D01*
X37444482Y12121894D01*
G37*
%TD.AperFunction*%
%TD*%
%TA.AperFunction,Conductor*%
%TO.N,/UART_RXC*%
G36*
X38956026Y12092380D02*
G01*
X39118008Y11838793D01*
X39119574Y11829976D01*
X39115530Y11823418D01*
X38814447Y11578568D01*
X38805866Y11576007D01*
X38798792Y11579372D01*
X38674578Y11703586D01*
X38671303Y11709986D01*
X38631468Y11955935D01*
X38633528Y11964649D01*
X38638455Y11968578D01*
X38941608Y12096858D01*
X38950561Y12096925D01*
X38956026Y12092380D01*
G37*
%TD.AperFunction*%
%TD*%
%TA.AperFunction,Conductor*%
%TO.N,/SWD_DIO*%
G36*
X23547820Y19531650D02*
G01*
X23551247Y19523377D01*
X23551243Y19523078D01*
X23542521Y19181656D01*
X23542353Y19179954D01*
X23483344Y18839945D01*
X23478553Y18832380D01*
X23469815Y18830418D01*
X23469562Y18830465D01*
X23099780Y18903062D01*
X23092323Y18908019D01*
X22995982Y19052644D01*
X22883313Y19221781D01*
X22881578Y19230566D01*
X22886564Y19238004D01*
X22887363Y19238492D01*
X22945394Y19270626D01*
X22946984Y19271354D01*
X23014372Y19296248D01*
X23015966Y19296711D01*
X23144632Y19324304D01*
X23144758Y19324330D01*
X23181706Y19331556D01*
X23224540Y19339933D01*
X23224541Y19339934D01*
X23224543Y19339934D01*
X23297906Y19370852D01*
X23323269Y19394178D01*
X23342687Y19425641D01*
X23356692Y19472919D01*
X23356693Y19472921D01*
X23356693Y19472922D01*
X23360707Y19524288D01*
X23364768Y19532270D01*
X23372371Y19535077D01*
X23539547Y19535077D01*
X23547820Y19531650D01*
G37*
%TD.AperFunction*%
%TD*%
%TA.AperFunction,Conductor*%
%TO.N,/SWD_DIO*%
G36*
X29627713Y20124098D02*
G01*
X29967602Y20011103D01*
X29974372Y20005241D01*
X29975014Y19996309D01*
X29969152Y19989539D01*
X29967602Y19988897D01*
X29627713Y19875903D01*
X29622174Y19875453D01*
X29447352Y19903424D01*
X29439724Y19908115D01*
X29437500Y19914977D01*
X29437500Y20085024D01*
X29440927Y20093297D01*
X29447350Y20096577D01*
X29622174Y20124548D01*
X29627713Y20124098D01*
G37*
%TD.AperFunction*%
%TD*%
%TA.AperFunction,Conductor*%
%TO.N,/SWD_CLK*%
G36*
X29627713Y19124098D02*
G01*
X29967602Y19011103D01*
X29974372Y19005241D01*
X29975014Y18996309D01*
X29969152Y18989539D01*
X29967602Y18988897D01*
X29627713Y18875903D01*
X29622174Y18875453D01*
X29447352Y18903424D01*
X29439724Y18908115D01*
X29437500Y18914977D01*
X29437500Y19085024D01*
X29440927Y19093297D01*
X29447350Y19096577D01*
X29622174Y19124548D01*
X29627713Y19124098D01*
G37*
%TD.AperFunction*%
%TD*%
%TA.AperFunction,Conductor*%
%TO.N,/SWD_CLK*%
G36*
X23587101Y18245752D02*
G01*
X23705983Y18126870D01*
X23709410Y18118597D01*
X23706636Y18111033D01*
X23627742Y18017943D01*
X23579153Y17927972D01*
X23555259Y17844224D01*
X23555258Y17844221D01*
X23543470Y17761553D01*
X23535303Y17699224D01*
X23535030Y17697815D01*
X23500803Y17565436D01*
X23500137Y17563547D01*
X23469052Y17494758D01*
X23468440Y17493585D01*
X23428642Y17426827D01*
X23421462Y17421475D01*
X23412601Y17422768D01*
X23412116Y17423074D01*
X23096256Y17632989D01*
X23092988Y17636257D01*
X22883192Y17951937D01*
X22881467Y17960724D01*
X22886460Y17968157D01*
X22887120Y17968565D01*
X22977555Y18020375D01*
X22979158Y18021137D01*
X23066730Y18054835D01*
X23068802Y18055419D01*
X23221525Y18083466D01*
X23221645Y18083487D01*
X23337395Y18102684D01*
X23449833Y18149729D01*
X23511759Y18192839D01*
X23511760Y18192840D01*
X23511763Y18192842D01*
X23548451Y18225874D01*
X23571000Y18246175D01*
X23579441Y18249163D01*
X23587101Y18245752D01*
G37*
%TD.AperFunction*%
%TD*%
%TA.AperFunction,Conductor*%
%TO.N,/SMPSLXL*%
G36*
X32447926Y25156573D02*
G01*
X32451265Y25149730D01*
X32494180Y24801212D01*
X32491790Y24792582D01*
X32489675Y24790488D01*
X32207107Y24574435D01*
X32198453Y24572132D01*
X32192893Y24574435D01*
X31910324Y24790488D01*
X31905834Y24798235D01*
X31905819Y24801212D01*
X31948735Y25149730D01*
X31953147Y25157522D01*
X31960347Y25160000D01*
X32439653Y25160000D01*
X32447926Y25156573D01*
G37*
%TD.AperFunction*%
%TD*%
%TA.AperFunction,Conductor*%
%TO.N,/SMPSLXL*%
G36*
X32282409Y26491937D02*
G01*
X32282653Y26491648D01*
X32673617Y26013862D01*
X32676204Y26005290D01*
X32675358Y26001943D01*
X32453004Y25469690D01*
X32446653Y25463377D01*
X32442208Y25462500D01*
X31959865Y25462500D01*
X31951592Y25465927D01*
X31948333Y25472223D01*
X31838609Y26112281D01*
X31840589Y26121014D01*
X31842443Y26123069D01*
X32265901Y26493051D01*
X32274385Y26495913D01*
X32282409Y26491937D01*
G37*
%TD.AperFunction*%
%TD*%
%TA.AperFunction,Conductor*%
%TO.N,/SMPSLX*%
G36*
X32207107Y23595566D02*
G01*
X32489675Y23379514D01*
X32494165Y23371767D01*
X32494180Y23368790D01*
X32451265Y23020270D01*
X32446853Y23012478D01*
X32439653Y23010000D01*
X31960347Y23010000D01*
X31952074Y23013427D01*
X31948735Y23020270D01*
X31905819Y23368790D01*
X31908209Y23377420D01*
X31910324Y23379514D01*
X32192893Y23595566D01*
X32201547Y23597869D01*
X32207107Y23595566D01*
G37*
%TD.AperFunction*%
%TD*%
%TA.AperFunction,Conductor*%
%TO.N,/UART_TX*%
G36*
X35809342Y14814871D02*
G01*
X35813103Y14806871D01*
X35836619Y14356432D01*
X35833628Y14347991D01*
X35833208Y14347549D01*
X35714364Y14228705D01*
X35706091Y14225278D01*
X35697818Y14228705D01*
X35695484Y14232041D01*
X35630376Y14371912D01*
X35629384Y14378380D01*
X35685505Y14803459D01*
X35689985Y14811211D01*
X35696615Y14813616D01*
X35800934Y14817951D01*
X35809342Y14814871D01*
G37*
%TD.AperFunction*%
%TD*%
%TA.AperFunction,Conductor*%
%TO.N,/UART_TX*%
G36*
X37224261Y13662658D02*
G01*
X37587623Y13415929D01*
X37592542Y13408447D01*
X37591353Y13400707D01*
X37453987Y13145390D01*
X37447050Y13139728D01*
X37443786Y13139233D01*
X37140459Y13136601D01*
X37132156Y13139956D01*
X37128742Y13146894D01*
X37082591Y13528092D01*
X37084998Y13536716D01*
X37085925Y13537762D01*
X37209416Y13661253D01*
X37217688Y13664679D01*
X37224261Y13662658D01*
G37*
%TD.AperFunction*%
%TD*%
%TA.AperFunction,Conductor*%
%TO.N,/UART_RX*%
G36*
X36313293Y14860900D02*
G01*
X36317942Y14857349D01*
X36461649Y14674448D01*
X36464066Y14665826D01*
X36460722Y14658947D01*
X36333713Y14531938D01*
X36333713Y14531937D01*
X36328649Y14526873D01*
X36324865Y14523089D01*
X36316591Y14519663D01*
X36308318Y14523090D01*
X36305789Y14526871D01*
X36191318Y14802317D01*
X36191308Y14811271D01*
X36197633Y14817610D01*
X36197697Y14817637D01*
X36304340Y14860961D01*
X36313293Y14860900D01*
G37*
%TD.AperFunction*%
%TD*%
%TA.AperFunction,Conductor*%
%TO.N,/UART_RX*%
G36*
X39046524Y13656573D02*
G01*
X39048379Y13654158D01*
X39215205Y13365738D01*
X39216381Y13356861D01*
X39212822Y13351110D01*
X38957745Y13125840D01*
X38949275Y13122932D01*
X38942255Y13125840D01*
X38687177Y13351110D01*
X38683244Y13359155D01*
X38684793Y13365735D01*
X38851621Y13654158D01*
X38858730Y13659604D01*
X38861749Y13660000D01*
X39038251Y13660000D01*
X39046524Y13656573D01*
G37*
%TD.AperFunction*%
%TD*%
%TA.AperFunction,Conductor*%
%TO.N,/HSE_IN*%
G36*
X37779101Y25378179D02*
G01*
X38143196Y25057326D01*
X38147138Y25049285D01*
X38145331Y25042265D01*
X37879440Y24624614D01*
X37872106Y24619475D01*
X37863786Y24620727D01*
X37477126Y24840624D01*
X37474637Y24842521D01*
X37349877Y24967281D01*
X37346450Y24975554D01*
X37349877Y24983827D01*
X37350006Y24983954D01*
X37763295Y25377871D01*
X37771647Y25381098D01*
X37779101Y25378179D01*
G37*
%TD.AperFunction*%
%TD*%
%TA.AperFunction,Conductor*%
%TO.N,/HSE_IN*%
G36*
X36280796Y22246573D02*
G01*
X36284076Y22240148D01*
X36312047Y22065326D01*
X36311597Y22059787D01*
X36198603Y21719898D01*
X36192741Y21713128D01*
X36183809Y21712486D01*
X36177039Y21718348D01*
X36176397Y21719898D01*
X36063402Y22059787D01*
X36062952Y22065327D01*
X36090924Y22240149D01*
X36095615Y22247776D01*
X36102477Y22250000D01*
X36272523Y22250000D01*
X36280796Y22246573D01*
G37*
%TD.AperFunction*%
%TD*%
%TA.AperFunction,Conductor*%
%TO.N,/USB_D+*%
G36*
X29533354Y20643860D02*
G01*
X29992475Y20625462D01*
X30000603Y20621707D01*
X30003701Y20613465D01*
X30000963Y20509081D01*
X29997320Y20500901D01*
X29991027Y20497821D01*
X29566567Y20433233D01*
X29560502Y20433921D01*
X29403384Y20496090D01*
X29396952Y20502320D01*
X29396810Y20511274D01*
X29399414Y20515240D01*
X29524616Y20640442D01*
X29532888Y20643868D01*
X29533354Y20643860D01*
G37*
%TD.AperFunction*%
%TD*%
%TA.AperFunction,Conductor*%
%TO.N,/USB_D-*%
G36*
X15575103Y18236085D02*
G01*
X15955866Y18053187D01*
X15961840Y18046516D01*
X15962500Y18042641D01*
X15962500Y17857360D01*
X15959073Y17849087D01*
X15955866Y17846814D01*
X15575101Y17663916D01*
X15566160Y17663422D01*
X15564757Y17664020D01*
X15019657Y17939558D01*
X15013819Y17946349D01*
X15014493Y17955278D01*
X15019657Y17960442D01*
X15564757Y18235981D01*
X15573686Y18236655D01*
X15575103Y18236085D01*
G37*
%TD.AperFunction*%
%TD*%
%TA.AperFunction,Conductor*%
%TO.N,/USB_D-*%
G36*
X29561600Y21251854D02*
G01*
X30010239Y21127779D01*
X30017299Y21122271D01*
X30018681Y21114701D01*
X30002333Y21009735D01*
X29997673Y21002088D01*
X29990154Y20999852D01*
X29565419Y21022329D01*
X29559996Y21023993D01*
X29507784Y21055471D01*
X29426411Y21104530D01*
X29421096Y21111735D01*
X29422433Y21120590D01*
X29424176Y21122818D01*
X29550209Y21248851D01*
X29558481Y21252277D01*
X29561600Y21251854D01*
G37*
%TD.AperFunction*%
%TD*%
%TA.AperFunction,Conductor*%
%TO.N,/HSE_OUT*%
G36*
X39257887Y23641456D02*
G01*
X39258204Y23641067D01*
X39561620Y23250925D01*
X39563994Y23242290D01*
X39560746Y23235558D01*
X39148670Y22814502D01*
X39140434Y22810987D01*
X39132124Y22814324D01*
X39007868Y22938580D01*
X39005160Y22942816D01*
X38868043Y23315795D01*
X38868404Y23324742D01*
X38871450Y23328749D01*
X39241396Y23642804D01*
X39249921Y23645545D01*
X39257887Y23641456D01*
G37*
%TD.AperFunction*%
%TD*%
%TA.AperFunction,Conductor*%
%TO.N,/HSE_OUT*%
G36*
X37028553Y21273223D02*
G01*
X37164410Y21137366D01*
X37167837Y21129093D01*
X37164410Y21120820D01*
X37160627Y21118289D01*
X36885184Y21003820D01*
X36876229Y21003809D01*
X36869890Y21010134D01*
X36869854Y21010220D01*
X36826539Y21116839D01*
X36826600Y21125794D01*
X36830151Y21130443D01*
X36838963Y21137366D01*
X36886918Y21175047D01*
X37013052Y21274150D01*
X37021674Y21276567D01*
X37028553Y21273223D01*
G37*
%TD.AperFunction*%
%TD*%
%TA.AperFunction,Conductor*%
%TO.N,/SWD_TRC*%
G36*
X23428928Y16574546D02*
G01*
X23576597Y16368407D01*
X23585234Y16356351D01*
X23745287Y16188530D01*
X23745297Y16188520D01*
X23818370Y16115926D01*
X23821824Y16107664D01*
X23818424Y16099380D01*
X23699564Y15980520D01*
X23691291Y15977093D01*
X23684217Y15979475D01*
X23598297Y16044712D01*
X23598296Y16044713D01*
X23598295Y16044714D01*
X23555360Y16061073D01*
X23555357Y16061074D01*
X23514127Y16067083D01*
X23433775Y16055654D01*
X23433767Y16055652D01*
X23351148Y16025662D01*
X23272592Y15996335D01*
X23270889Y15995842D01*
X23151137Y15970868D01*
X23148009Y15970646D01*
X23123302Y15972210D01*
X23031509Y15978022D01*
X23023469Y15981965D01*
X23020571Y15990438D01*
X23020768Y15991957D01*
X23093351Y16360923D01*
X23098309Y16368377D01*
X23412943Y16577477D01*
X23421728Y16579201D01*
X23428928Y16574546D01*
G37*
%TD.AperFunction*%
%TD*%
%TA.AperFunction,Conductor*%
%TO.N,/SWD_TRC*%
G36*
X29627713Y18124098D02*
G01*
X29967602Y18011103D01*
X29974372Y18005241D01*
X29975014Y17996309D01*
X29969152Y17989539D01*
X29967602Y17988897D01*
X29627713Y17875903D01*
X29622174Y17875453D01*
X29447352Y17903424D01*
X29439724Y17908115D01*
X29437500Y17914977D01*
X29437500Y18085024D01*
X29440927Y18093297D01*
X29447350Y18096577D01*
X29622174Y18124548D01*
X29627713Y18124098D01*
G37*
%TD.AperFunction*%
%TD*%
%TA.AperFunction,Conductor*%
%TO.N,/USB_D+_CONN*%
G36*
X12160242Y16335981D02*
G01*
X12705342Y16060442D01*
X12711180Y16053651D01*
X12710506Y16044722D01*
X12705342Y16039558D01*
X12160242Y15764020D01*
X12151313Y15763346D01*
X12149898Y15763916D01*
X11769134Y15946814D01*
X11763160Y15953485D01*
X11762500Y15957360D01*
X11762500Y16142641D01*
X11765927Y16150914D01*
X11769132Y16153186D01*
X12149898Y16336086D01*
X12158839Y16336579D01*
X12160242Y16335981D01*
G37*
%TD.AperFunction*%
%TD*%
%TA.AperFunction,Conductor*%
%TO.N,/USB_D+_CONN*%
G36*
X7471150Y17027223D02*
G01*
X7478339Y17021884D01*
X7480000Y17015875D01*
X7480000Y16844126D01*
X7476573Y16835853D01*
X7471149Y16832778D01*
X7286670Y16786455D01*
X7280746Y16786514D01*
X7069249Y16844126D01*
X6795441Y16918712D01*
X6788360Y16924192D01*
X6787228Y16933075D01*
X6792709Y16940157D01*
X6795440Y16941289D01*
X7280749Y17073488D01*
X7286668Y17073546D01*
X7471150Y17027223D01*
G37*
%TD.AperFunction*%
%TD*%
%TA.AperFunction,Conductor*%
%TO.N,/USB_D+_CONN*%
G36*
X7470875Y18032059D02*
G01*
X7478191Y18026895D01*
X7480000Y18020646D01*
X7480000Y17839355D01*
X7476573Y17831082D01*
X7470875Y17827942D01*
X7286542Y17786351D01*
X7280892Y17786475D01*
X6875931Y17896786D01*
X6795441Y17918712D01*
X6788360Y17924192D01*
X6787228Y17933075D01*
X6792709Y17940157D01*
X6795440Y17941289D01*
X7280892Y18073527D01*
X7286542Y18073650D01*
X7470875Y18032059D01*
G37*
%TD.AperFunction*%
%TD*%
%TA.AperFunction,Conductor*%
%TO.N,/USB_D-_CONN*%
G36*
X12160242Y18235981D02*
G01*
X12705342Y17960442D01*
X12711180Y17953651D01*
X12710506Y17944722D01*
X12705342Y17939558D01*
X12160242Y17664020D01*
X12151313Y17663346D01*
X12149898Y17663916D01*
X11769134Y17846814D01*
X11763160Y17853485D01*
X11762500Y17857360D01*
X11762500Y18042641D01*
X11765927Y18050914D01*
X11769132Y18053186D01*
X12149898Y18236086D01*
X12158839Y18236579D01*
X12160242Y18235981D01*
G37*
%TD.AperFunction*%
%TD*%
%TA.AperFunction,Conductor*%
%TO.N,/USB_D-_CONN*%
G36*
X6229107Y18573526D02*
G01*
X6714557Y18441289D01*
X6721639Y18435808D01*
X6722771Y18426925D01*
X6717290Y18419843D01*
X6714557Y18418711D01*
X6229107Y18286475D01*
X6223457Y18286351D01*
X6039125Y18327942D01*
X6031809Y18333106D01*
X6030000Y18339355D01*
X6030000Y18520646D01*
X6033427Y18528919D01*
X6039124Y18532059D01*
X6223457Y18573650D01*
X6229107Y18573526D01*
G37*
%TD.AperFunction*%
%TD*%
%TA.AperFunction,Conductor*%
%TO.N,/USB_D-_CONN*%
G36*
X7470875Y18532059D02*
G01*
X7478191Y18526895D01*
X7480000Y18520646D01*
X7480000Y18339355D01*
X7476573Y18331082D01*
X7470875Y18327942D01*
X7286542Y18286351D01*
X7280892Y18286475D01*
X6875931Y18396786D01*
X6795441Y18418712D01*
X6788360Y18424192D01*
X6787228Y18433075D01*
X6792709Y18440157D01*
X6795440Y18441289D01*
X7280892Y18573527D01*
X7286542Y18573650D01*
X7470875Y18532059D01*
G37*
%TD.AperFunction*%
%TD*%
%TA.AperFunction,Conductor*%
%TO.N,/USB_D-_CONN*%
G36*
X6229107Y17573526D02*
G01*
X6714557Y17441289D01*
X6721639Y17435808D01*
X6722771Y17426925D01*
X6717290Y17419843D01*
X6714557Y17418711D01*
X6229107Y17286475D01*
X6223457Y17286351D01*
X6039125Y17327942D01*
X6031809Y17333106D01*
X6030000Y17339355D01*
X6030000Y17520646D01*
X6033427Y17528919D01*
X6039124Y17532059D01*
X6223457Y17573650D01*
X6229107Y17573526D01*
G37*
%TD.AperFunction*%
%TD*%
%TA.AperFunction,Conductor*%
%TO.N,Net-(R7-Pad2)*%
G36*
X34108231Y5242811D02*
G01*
X34845996Y4598497D01*
X34849973Y4590474D01*
X34850000Y4589685D01*
X34850000Y4410316D01*
X34846573Y4402043D01*
X34845996Y4401504D01*
X34108231Y3757190D01*
X34099746Y3754329D01*
X34092267Y3757723D01*
X33357290Y4491721D01*
X33353858Y4499992D01*
X33357279Y4508268D01*
X33357290Y4508279D01*
X34092268Y5242279D01*
X34100543Y5245699D01*
X34108231Y5242811D01*
G37*
%TD.AperFunction*%
%TD*%
%TA.AperFunction,Conductor*%
%TO.N,Net-(R7-Pad2)*%
G36*
X35218991Y4743546D02*
G01*
X35443772Y4497898D01*
X35446829Y4489482D01*
X35443772Y4482102D01*
X35219274Y4236764D01*
X35211160Y4232973D01*
X35205456Y4234174D01*
X34866514Y4401779D01*
X34860617Y4408518D01*
X34860000Y4412267D01*
X34860000Y4587352D01*
X34863427Y4595625D01*
X34867004Y4598068D01*
X35205667Y4746366D01*
X35214619Y4746545D01*
X35218991Y4743546D01*
G37*
%TD.AperFunction*%
%TD*%
M02*
