%TF.GenerationSoftware,KiCad,Pcbnew,9.0.2*%
%TF.CreationDate,2026-09-16T01:01:10+02:00*%
%TF.ProjectId,Stm32,53746d33-322e-46b6-9963-61645f706362,rev?*%
%TF.SameCoordinates,PX42c1d80PY4c4b400*%
%TF.FileFunction,Copper,L2,Inr*%
%TF.FilePolarity,Positive*%
%FSLAX46Y46*%
G04 Gerber Fmt 4.6, Leading zero omitted, Abs format (unit mm)*
G04 Created by KiCad (PCBNEW 9.0.2) date 2026-09-16 01:01:10*
%MOMM*%
%LPD*%
G01*
G04 APERTURE LIST*
%TA.AperFunction,HeatsinkPad*%
%ADD10O,2.100000X1.000000*%
%TD*%
%TA.AperFunction,HeatsinkPad*%
%ADD11O,1.800000X1.000000*%
%TD*%
%TA.AperFunction,ComponentPad*%
%ADD12C,0.700000*%
%TD*%
%TA.AperFunction,ComponentPad*%
%ADD13C,4.400000*%
%TD*%
%TA.AperFunction,ComponentPad*%
%ADD14O,1.300000X0.800000*%
%TD*%
%TA.AperFunction,ViaPad*%
%ADD15C,0.900000*%
%TD*%
%TA.AperFunction,ViaPad*%
%ADD16C,0.700000*%
%TD*%
%TA.AperFunction,ViaPad*%
%ADD17C,0.600000*%
%TD*%
G04 APERTURE END LIST*
D10*
%TO.N,GND*%
%TO.C,J1*%
X6180000Y22000000D03*
D11*
X2000000Y22000000D03*
D10*
X6180000Y13360000D03*
D11*
X2000000Y13360000D03*
%TD*%
D12*
%TO.N,GND*%
%TO.C,H1*%
X11550000Y27850000D03*
X12033274Y29016726D03*
X12033274Y26683274D03*
X13200000Y29500000D03*
D13*
X13200000Y27850000D03*
D12*
X13200000Y26200000D03*
X14366726Y29016726D03*
X14366726Y26683274D03*
X14850000Y27850000D03*
%TD*%
%TO.N,GND*%
%TO.C,H3*%
X48400000Y27850000D03*
X48883274Y29016726D03*
X48883274Y26683274D03*
X50050000Y29500000D03*
D13*
X50050000Y27850000D03*
D12*
X50050000Y26200000D03*
X51216726Y29016726D03*
X51216726Y26683274D03*
X51700000Y27850000D03*
%TD*%
%TO.N,GND*%
%TO.C,H4*%
X48350000Y2950000D03*
X48833274Y4116726D03*
X48833274Y1783274D03*
X50000000Y4600000D03*
D13*
X50000000Y2950000D03*
D12*
X50000000Y1300000D03*
X51166726Y4116726D03*
X51166726Y1783274D03*
X51650000Y2950000D03*
%TD*%
D14*
%TO.N,GND*%
%TO.C,J2*%
X5700000Y4125000D03*
%TD*%
D12*
%TO.N,GND*%
%TO.C,H2*%
X11550000Y2950000D03*
X12033274Y4116726D03*
X12033274Y1783274D03*
X13200000Y4600000D03*
D13*
X13200000Y2950000D03*
D12*
X13200000Y1300000D03*
X14366726Y4116726D03*
X14366726Y1783274D03*
X14850000Y2950000D03*
%TD*%
D15*
%TO.N,GND*%
X54000000Y4000000D03*
X46887500Y20887500D03*
X29000000Y1000000D03*
X42000000Y10000000D03*
X17000000Y30000000D03*
D16*
X49300000Y16650000D03*
X29360000Y24750000D03*
X26625000Y25850000D03*
D15*
X23000000Y27000000D03*
D16*
X34648000Y19802000D03*
D15*
X30000000Y5000000D03*
X21000000Y5000000D03*
D16*
X50750000Y22350000D03*
X35664000Y15992000D03*
D15*
X50000000Y10000000D03*
D16*
X33632000Y20564000D03*
X33632000Y15992000D03*
D15*
X41000000Y5000000D03*
X29000000Y30000000D03*
D17*
X33200000Y6200000D03*
D15*
X38000000Y30000000D03*
D16*
X36300000Y24100000D03*
D15*
X20000000Y27000000D03*
X9000000Y13000000D03*
X54000000Y28000000D03*
X16000000Y24000000D03*
X53000000Y30000000D03*
D16*
X29485000Y12600000D03*
X28500000Y16545000D03*
X38990000Y20300000D03*
D15*
X35000000Y1000000D03*
D16*
X35664000Y18024000D03*
D15*
X47000000Y7000000D03*
X1000000Y16000000D03*
X41000000Y28000000D03*
X18000000Y1000000D03*
D16*
X29410000Y23500000D03*
D15*
X9000000Y25000000D03*
X42000000Y24000000D03*
X8000000Y9000000D03*
D16*
X35664000Y20564000D03*
D15*
X4000000Y1000000D03*
X41000000Y30000000D03*
X44000000Y30000000D03*
X44000000Y22000000D03*
X1000000Y25000000D03*
X46900000Y18300000D03*
X17000000Y14000000D03*
D16*
X40750000Y17660000D03*
X28000000Y10911001D03*
D15*
X21000000Y1000000D03*
X10000000Y22000000D03*
D16*
X39650000Y26200000D03*
D15*
X47000000Y30000000D03*
X38000000Y28000000D03*
D16*
X32362000Y19802000D03*
D15*
X32000000Y30000000D03*
X26000000Y30000000D03*
X44000000Y5000000D03*
X54000000Y16000000D03*
D16*
X52050000Y22350000D03*
D15*
X41000000Y1000000D03*
X17000000Y27000000D03*
D16*
X31346000Y15992000D03*
D15*
X1000000Y6000000D03*
X1000000Y3000000D03*
X47000000Y1000000D03*
X18000000Y5000000D03*
X46000000Y24000000D03*
X20000000Y10000000D03*
X54000000Y24000000D03*
D16*
X36250000Y25100000D03*
X52100000Y16600000D03*
X32650000Y12610000D03*
D15*
X54000000Y12000000D03*
X1000000Y28000000D03*
X7000000Y1000000D03*
D16*
X50800000Y16650000D03*
D15*
X38000000Y1000000D03*
D16*
X34648000Y16754000D03*
D15*
X50000000Y13000000D03*
D16*
X37490000Y4550000D03*
D15*
X23000000Y30000000D03*
X54000000Y8000000D03*
D16*
X49500000Y22350000D03*
X12150000Y12800000D03*
X35950000Y12310000D03*
D15*
X35000000Y30000000D03*
X44000000Y1000000D03*
D16*
X44250000Y17710000D03*
D17*
X30500000Y9700000D03*
D15*
X54000000Y20000000D03*
X53000000Y1000000D03*
X32000000Y1000000D03*
D16*
X27950000Y26850000D03*
D15*
X7000000Y30000000D03*
X1000000Y10000000D03*
X10000000Y30000000D03*
D16*
X38400000Y15800000D03*
D15*
X38000000Y9000000D03*
X23000000Y13000000D03*
X11000000Y9000000D03*
D16*
X32362000Y16754000D03*
D15*
X10000000Y1000000D03*
X42000000Y16000000D03*
X46000000Y13000000D03*
D16*
X27450000Y16500000D03*
X16750000Y11100000D03*
D15*
X1000000Y19000000D03*
X25000000Y1000000D03*
X20000000Y30000000D03*
D16*
X11400000Y17000000D03*
X27500000Y19790000D03*
X31346000Y20564000D03*
D15*
X15000000Y21000000D03*
X3000000Y30000000D03*
D16*
X31346000Y18024000D03*
D15*
X7000000Y28000000D03*
D16*
X37700000Y22500000D03*
D15*
X45000000Y10000000D03*
%TD*%
%TA.AperFunction,Conductor*%
%TO.N,GND*%
G36*
X52002065Y30699385D02*
G01*
X52298112Y30682759D01*
X52306346Y30681830D01*
X52596603Y30632514D01*
X52604671Y30630673D01*
X52887605Y30549161D01*
X52895418Y30546427D01*
X53167428Y30433756D01*
X53174904Y30430156D01*
X53432594Y30287737D01*
X53439608Y30283329D01*
X53679716Y30112963D01*
X53686203Y30107791D01*
X53905741Y29911600D01*
X53911604Y29905737D01*
X54107789Y29686205D01*
X54112962Y29679717D01*
X54283324Y29439615D01*
X54287740Y29432588D01*
X54430155Y29174905D01*
X54433755Y29167429D01*
X54546422Y28895429D01*
X54549163Y28887596D01*
X54630669Y28604683D01*
X54632515Y28596592D01*
X54681828Y28306353D01*
X54682758Y28298107D01*
X54699384Y28002066D01*
X54699500Y27997917D01*
X54699500Y3002084D01*
X54699384Y2997935D01*
X54682758Y2701894D01*
X54681828Y2693648D01*
X54632515Y2403409D01*
X54630669Y2395318D01*
X54549163Y2112405D01*
X54546422Y2104572D01*
X54433755Y1832572D01*
X54430155Y1825096D01*
X54287740Y1567413D01*
X54283324Y1560386D01*
X54112962Y1320284D01*
X54107789Y1313796D01*
X53911604Y1094264D01*
X53905736Y1088396D01*
X53686204Y892211D01*
X53679716Y887038D01*
X53439614Y716676D01*
X53432587Y712260D01*
X53174904Y569845D01*
X53167428Y566245D01*
X52895428Y453578D01*
X52887595Y450837D01*
X52604682Y369331D01*
X52596591Y367485D01*
X52306352Y318172D01*
X52298106Y317242D01*
X52002066Y300616D01*
X51997917Y300500D01*
X3002083Y300500D01*
X2997934Y300616D01*
X2701893Y317242D01*
X2693647Y318172D01*
X2403408Y367485D01*
X2395317Y369331D01*
X2112404Y450837D01*
X2104571Y453578D01*
X1832571Y566245D01*
X1825095Y569845D01*
X1567412Y712260D01*
X1560385Y716676D01*
X1320283Y887038D01*
X1313795Y892211D01*
X1282612Y920078D01*
X1094258Y1088401D01*
X1088400Y1094259D01*
X892209Y1313797D01*
X887037Y1320284D01*
X716675Y1560386D01*
X712263Y1567406D01*
X569844Y1825096D01*
X566244Y1832572D01*
X453573Y2104582D01*
X450839Y2112395D01*
X369327Y2395329D01*
X367486Y2403397D01*
X318170Y2693654D01*
X317241Y2701894D01*
X313647Y2765895D01*
X23499500Y2765895D01*
X23499500Y2634106D01*
X23533606Y2506819D01*
X23533610Y2506810D01*
X23597980Y2395318D01*
X23599500Y2392686D01*
X23692686Y2299500D01*
X23806814Y2233608D01*
X23934105Y2199501D01*
X23934106Y2199500D01*
X23934108Y2199500D01*
X24065894Y2199500D01*
X24065894Y2199501D01*
X24193186Y2233608D01*
X24307314Y2299500D01*
X24400500Y2392686D01*
X24466392Y2506814D01*
X24500499Y2634106D01*
X24500500Y2634106D01*
X24500500Y2765894D01*
X24500499Y2765895D01*
X24466393Y2893182D01*
X24466392Y2893186D01*
X24400500Y3007314D01*
X24307314Y3100500D01*
X24193190Y3166390D01*
X24193181Y3166394D01*
X24065894Y3200500D01*
X24065892Y3200500D01*
X23934108Y3200500D01*
X23934106Y3200500D01*
X23806818Y3166394D01*
X23806809Y3166390D01*
X23692685Y3100500D01*
X23599500Y3007315D01*
X23533610Y2893191D01*
X23533606Y2893182D01*
X23499500Y2765895D01*
X313647Y2765895D01*
X313608Y2766593D01*
X300616Y2997935D01*
X300500Y3002084D01*
X300500Y4250001D01*
X4659190Y4250001D01*
X4659191Y4250000D01*
X5481178Y4250000D01*
X5450000Y4174728D01*
X5450000Y4075272D01*
X5481178Y4000000D01*
X4659190Y4000000D01*
X4680741Y3891656D01*
X4680743Y3891649D01*
X4741047Y3746062D01*
X4828598Y3615031D01*
X4940030Y3503599D01*
X5071061Y3416048D01*
X5216648Y3355744D01*
X5216655Y3355742D01*
X5371208Y3325000D01*
X5575000Y3325000D01*
X5575000Y3906179D01*
X5650272Y3875000D01*
X5749728Y3875000D01*
X5825000Y3906179D01*
X5825000Y3325000D01*
X6028792Y3325000D01*
X6183344Y3355742D01*
X6183351Y3355744D01*
X6328938Y3416048D01*
X6459969Y3503599D01*
X6459971Y3503600D01*
X6571400Y3615029D01*
X6571401Y3615031D01*
X6658952Y3746062D01*
X6719256Y3891649D01*
X6719258Y3891656D01*
X6740809Y4000000D01*
X5918822Y4000000D01*
X5950000Y4075272D01*
X5950000Y4174728D01*
X5918822Y4250000D01*
X6740809Y4250000D01*
X6740809Y4250001D01*
X6719258Y4358345D01*
X6719256Y4358352D01*
X6658952Y4503939D01*
X6641786Y4529630D01*
X6617555Y4565895D01*
X23499500Y4565895D01*
X23499500Y4434106D01*
X23533606Y4306819D01*
X23533610Y4306810D01*
X23566409Y4250001D01*
X23599500Y4192686D01*
X23692686Y4099500D01*
X23806814Y4033608D01*
X23934105Y3999501D01*
X23934106Y3999500D01*
X23934108Y3999500D01*
X24065894Y3999500D01*
X24065894Y3999501D01*
X24193186Y4033608D01*
X24307314Y4099500D01*
X24400500Y4192686D01*
X24466392Y4306814D01*
X24500499Y4434106D01*
X24500500Y4434106D01*
X24500500Y4565894D01*
X24500499Y4565895D01*
X24481990Y4634971D01*
X24466392Y4693186D01*
X24400500Y4807314D01*
X24307314Y4900500D01*
X24193190Y4966390D01*
X24193181Y4966394D01*
X24065894Y5000500D01*
X24065892Y5000500D01*
X23934108Y5000500D01*
X23934106Y5000500D01*
X23806818Y4966394D01*
X23806809Y4966390D01*
X23692685Y4900500D01*
X23599500Y4807315D01*
X23533610Y4693191D01*
X23533606Y4693182D01*
X23499500Y4565895D01*
X6617555Y4565895D01*
X6571401Y4634970D01*
X6459969Y4746402D01*
X6328938Y4833953D01*
X6204451Y4885517D01*
X6164403Y4925566D01*
X6164403Y4982203D01*
X6177805Y5002258D01*
X6177569Y5002439D01*
X6180342Y5006053D01*
X6180449Y5006214D01*
X6180520Y5006284D01*
X6259577Y5143216D01*
X6300499Y5295941D01*
X6300500Y5295941D01*
X6300500Y5454059D01*
X6300499Y5454060D01*
X6259578Y5606780D01*
X6259577Y5606784D01*
X6180520Y5743716D01*
X6068716Y5855520D01*
X5931784Y5934577D01*
X5931781Y5934578D01*
X5929467Y5935914D01*
X5894989Y5980847D01*
X5902381Y6037000D01*
X5929467Y6064086D01*
X5931781Y6065423D01*
X5931784Y6065423D01*
X6068716Y6144480D01*
X6180520Y6256284D01*
X6243803Y6365895D01*
X23499500Y6365895D01*
X23499500Y6234106D01*
X23533606Y6106819D01*
X23533607Y6106816D01*
X23533608Y6106814D01*
X23599500Y5992686D01*
X23692686Y5899500D01*
X23806814Y5833608D01*
X23934105Y5799501D01*
X23934106Y5799500D01*
X23934108Y5799500D01*
X24065894Y5799500D01*
X24065894Y5799501D01*
X24193186Y5833608D01*
X24307314Y5899500D01*
X24400500Y5992686D01*
X24466392Y6106814D01*
X24500499Y6234106D01*
X24500500Y6234106D01*
X24500500Y6365894D01*
X24500499Y6365895D01*
X24493178Y6393216D01*
X24466392Y6493186D01*
X24400500Y6607314D01*
X24307314Y6700500D01*
X24234246Y6742686D01*
X24193190Y6766390D01*
X24193181Y6766394D01*
X24065894Y6800500D01*
X24065892Y6800500D01*
X23934108Y6800500D01*
X23934106Y6800500D01*
X23806818Y6766394D01*
X23806809Y6766390D01*
X23692685Y6700500D01*
X23599500Y6607315D01*
X23533610Y6493191D01*
X23533606Y6493182D01*
X23499500Y6365895D01*
X6243803Y6365895D01*
X6259577Y6393216D01*
X6300499Y6545941D01*
X6300500Y6545941D01*
X6300500Y6704059D01*
X6300499Y6704060D01*
X6259578Y6856780D01*
X6259577Y6856784D01*
X6180520Y6993716D01*
X6068716Y7105520D01*
X5931784Y7184577D01*
X5931781Y7184578D01*
X5929467Y7185914D01*
X5894989Y7230847D01*
X5902381Y7287000D01*
X5929467Y7314086D01*
X5931781Y7315423D01*
X5931784Y7315423D01*
X6019205Y7365895D01*
X16199500Y7365895D01*
X16199500Y7234106D01*
X16233606Y7106819D01*
X16233607Y7106816D01*
X16233608Y7106814D01*
X16299500Y6992686D01*
X16392686Y6899500D01*
X16506814Y6833608D01*
X16634105Y6799501D01*
X16634106Y6799500D01*
X16634108Y6799500D01*
X16765894Y6799500D01*
X16765894Y6799501D01*
X16893186Y6833608D01*
X17007314Y6899500D01*
X17100500Y6992686D01*
X17166392Y7106814D01*
X17168825Y7115895D01*
X34349500Y7115895D01*
X34349500Y6984106D01*
X34383606Y6856819D01*
X34383610Y6856810D01*
X34416121Y6800500D01*
X34449500Y6742686D01*
X34542686Y6649500D01*
X34656814Y6583608D01*
X34784105Y6549501D01*
X34784106Y6549500D01*
X34784108Y6549500D01*
X34915894Y6549500D01*
X34915894Y6549501D01*
X35043186Y6583608D01*
X35157314Y6649500D01*
X35250500Y6742686D01*
X35316392Y6856814D01*
X35350499Y6984106D01*
X35350500Y6984106D01*
X35350500Y7115894D01*
X35350499Y7115895D01*
X35316393Y7243182D01*
X35316392Y7243186D01*
X35250500Y7357314D01*
X35157314Y7450500D01*
X35083380Y7493186D01*
X35043190Y7516390D01*
X35043181Y7516394D01*
X34915894Y7550500D01*
X34915892Y7550500D01*
X34784108Y7550500D01*
X34784106Y7550500D01*
X34656818Y7516394D01*
X34656809Y7516390D01*
X34542685Y7450500D01*
X34449500Y7357315D01*
X34383610Y7243191D01*
X34383606Y7243182D01*
X34349500Y7115895D01*
X17168825Y7115895D01*
X17200499Y7234106D01*
X17200500Y7234106D01*
X17200500Y7365894D01*
X17200499Y7365895D01*
X17177829Y7450500D01*
X17166392Y7493186D01*
X17100500Y7607314D01*
X17007314Y7700500D01*
X16893190Y7766390D01*
X16893181Y7766394D01*
X16765894Y7800500D01*
X16765892Y7800500D01*
X16634108Y7800500D01*
X16634106Y7800500D01*
X16506818Y7766394D01*
X16506809Y7766390D01*
X16392685Y7700500D01*
X16299500Y7607315D01*
X16233610Y7493191D01*
X16233606Y7493182D01*
X16199500Y7365895D01*
X6019205Y7365895D01*
X6068716Y7394480D01*
X6180520Y7506284D01*
X6259577Y7643216D01*
X6300499Y7795941D01*
X6300500Y7795941D01*
X6300500Y7954059D01*
X6300499Y7954060D01*
X6259578Y8106780D01*
X6259577Y8106784D01*
X6180520Y8243716D01*
X6068716Y8355520D01*
X5931784Y8434577D01*
X5931781Y8434578D01*
X5931779Y8434579D01*
X5779059Y8475500D01*
X5779057Y8475500D01*
X5620943Y8475500D01*
X5620941Y8475500D01*
X5468220Y8434579D01*
X5468214Y8434576D01*
X5331283Y8355520D01*
X5219480Y8243717D01*
X5140424Y8106786D01*
X5140421Y8106780D01*
X5099500Y7954060D01*
X5099500Y7795941D01*
X5140421Y7643221D01*
X5140422Y7643219D01*
X5140423Y7643216D01*
X5219480Y7506284D01*
X5331284Y7394480D01*
X5395658Y7357314D01*
X5470532Y7314086D01*
X5505010Y7269153D01*
X5497618Y7213000D01*
X5470532Y7185914D01*
X5331283Y7105520D01*
X5219480Y6993717D01*
X5140424Y6856786D01*
X5140421Y6856780D01*
X5099500Y6704060D01*
X5099500Y6545941D01*
X5140421Y6393221D01*
X5140422Y6393220D01*
X5140423Y6393216D01*
X5219480Y6256284D01*
X5331284Y6144480D01*
X5396531Y6106810D01*
X5470532Y6064086D01*
X5505010Y6019153D01*
X5497618Y5963000D01*
X5470532Y5935914D01*
X5331283Y5855520D01*
X5219480Y5743717D01*
X5140424Y5606786D01*
X5140421Y5606780D01*
X5099500Y5454060D01*
X5099500Y5295941D01*
X5140421Y5143221D01*
X5140422Y5143219D01*
X5140423Y5143216D01*
X5140424Y5143215D01*
X5219480Y5006284D01*
X5219554Y5006210D01*
X5219574Y5006161D01*
X5222433Y5002435D01*
X5221434Y5001670D01*
X5241228Y4953884D01*
X5219554Y4901558D01*
X5195547Y4885517D01*
X5071061Y4833953D01*
X4940030Y4746402D01*
X4940029Y4746400D01*
X4828600Y4634971D01*
X4828598Y4634970D01*
X4741047Y4503939D01*
X4680743Y4358352D01*
X4680741Y4358345D01*
X4659190Y4250001D01*
X300500Y4250001D01*
X300500Y9760895D01*
X31299500Y9760895D01*
X31299500Y9629106D01*
X31333606Y9501819D01*
X31333607Y9501816D01*
X31333608Y9501814D01*
X31399500Y9387686D01*
X31492686Y9294500D01*
X31606814Y9228608D01*
X31734105Y9194501D01*
X31734106Y9194500D01*
X31734108Y9194500D01*
X31865894Y9194500D01*
X31865894Y9194501D01*
X31993186Y9228608D01*
X32107314Y9294500D01*
X32200500Y9387686D01*
X32266392Y9501814D01*
X32300499Y9629106D01*
X32300500Y9629106D01*
X32300500Y9760894D01*
X32300499Y9760895D01*
X32266393Y9888182D01*
X32266392Y9888186D01*
X32200500Y10002314D01*
X32107314Y10095500D01*
X31993190Y10161390D01*
X31993181Y10161394D01*
X31865894Y10195500D01*
X31865892Y10195500D01*
X31734108Y10195500D01*
X31734106Y10195500D01*
X31606818Y10161394D01*
X31606809Y10161390D01*
X31492685Y10095500D01*
X31399500Y10002315D01*
X31333610Y9888191D01*
X31333606Y9888182D01*
X31299500Y9760895D01*
X300500Y9760895D01*
X300500Y11690895D01*
X24799500Y11690895D01*
X24799500Y11559106D01*
X24833606Y11431819D01*
X24833607Y11431816D01*
X24833608Y11431814D01*
X24899500Y11317686D01*
X24992686Y11224500D01*
X25106814Y11158608D01*
X25234105Y11124501D01*
X25234106Y11124500D01*
X25234108Y11124500D01*
X25365894Y11124500D01*
X25365894Y11124501D01*
X25493186Y11158608D01*
X25607314Y11224500D01*
X25700500Y11317686D01*
X25766392Y11431814D01*
X25800499Y11559106D01*
X25800500Y11559106D01*
X25800500Y11690894D01*
X25800499Y11690895D01*
X25798193Y11699500D01*
X25766392Y11818186D01*
X25700500Y11932314D01*
X25607314Y12025500D01*
X25493190Y12091390D01*
X25493181Y12091394D01*
X25365894Y12125500D01*
X25365892Y12125500D01*
X25234108Y12125500D01*
X25234106Y12125500D01*
X25106818Y12091394D01*
X25106809Y12091390D01*
X24992685Y12025500D01*
X24899500Y11932315D01*
X24833610Y11818191D01*
X24833606Y11818182D01*
X24799500Y11690895D01*
X300500Y11690895D01*
X300500Y12265895D01*
X34499500Y12265895D01*
X34499500Y12134106D01*
X34533606Y12006819D01*
X34533607Y12006816D01*
X34533608Y12006814D01*
X34599500Y11892686D01*
X34692686Y11799500D01*
X34806814Y11733608D01*
X34934105Y11699501D01*
X34934106Y11699500D01*
X34934108Y11699500D01*
X35065894Y11699500D01*
X35065894Y11699501D01*
X35193186Y11733608D01*
X35307314Y11799500D01*
X35400500Y11892686D01*
X35466392Y12006814D01*
X35500499Y12134106D01*
X35500500Y12134106D01*
X35500500Y12265894D01*
X35500499Y12265895D01*
X35466393Y12393182D01*
X35466392Y12393186D01*
X35400500Y12507314D01*
X35307314Y12600500D01*
X35249971Y12633607D01*
X35193190Y12666390D01*
X35193181Y12666394D01*
X35065894Y12700500D01*
X35065892Y12700500D01*
X34934108Y12700500D01*
X34934106Y12700500D01*
X34806818Y12666394D01*
X34806809Y12666390D01*
X34692685Y12600500D01*
X34599500Y12507315D01*
X34533610Y12393191D01*
X34533606Y12393182D01*
X34499500Y12265895D01*
X300500Y12265895D01*
X300500Y13485001D01*
X707231Y13485001D01*
X707232Y13485000D01*
X1325758Y13485000D01*
X1320444Y13475796D01*
X1300000Y13399496D01*
X1300000Y13320504D01*
X1320444Y13244204D01*
X1325758Y13235000D01*
X707231Y13235000D01*
X734584Y13097487D01*
X734587Y13097476D01*
X802427Y12933695D01*
X900923Y12786284D01*
X1026283Y12660924D01*
X1173695Y12562428D01*
X1173694Y12562428D01*
X1337475Y12494588D01*
X1337486Y12494585D01*
X1511359Y12460000D01*
X1875000Y12460000D01*
X1875000Y13060000D01*
X2125000Y13060000D01*
X2125000Y12460000D01*
X2488641Y12460000D01*
X2662513Y12494585D01*
X2662524Y12494588D01*
X2826305Y12562428D01*
X2973716Y12660924D01*
X2973718Y12660925D01*
X3099075Y12786282D01*
X3099076Y12786284D01*
X3197572Y12933695D01*
X3265412Y13097476D01*
X3265415Y13097487D01*
X3292768Y13235000D01*
X2674242Y13235000D01*
X2679556Y13244204D01*
X2700000Y13320504D01*
X2700000Y13399496D01*
X2679556Y13475796D01*
X2674242Y13485000D01*
X3292768Y13485000D01*
X3292768Y13485001D01*
X4737231Y13485001D01*
X4737232Y13485000D01*
X5355758Y13485000D01*
X5350444Y13475796D01*
X5330000Y13399496D01*
X5330000Y13320504D01*
X5350444Y13244204D01*
X5355758Y13235000D01*
X4737231Y13235000D01*
X4764584Y13097487D01*
X4764587Y13097476D01*
X4832427Y12933695D01*
X4930923Y12786284D01*
X5056283Y12660924D01*
X5203695Y12562428D01*
X5203694Y12562428D01*
X5367475Y12494588D01*
X5367486Y12494585D01*
X5541359Y12460000D01*
X6055000Y12460000D01*
X6055000Y13060000D01*
X6305000Y13060000D01*
X6305000Y12460000D01*
X6818641Y12460000D01*
X6992513Y12494585D01*
X6992524Y12494588D01*
X7156305Y12562428D01*
X7303716Y12660924D01*
X7303718Y12660925D01*
X7429075Y12786282D01*
X7429076Y12786284D01*
X7527572Y12933695D01*
X7595412Y13097476D01*
X7595415Y13097487D01*
X7609022Y13165895D01*
X24999500Y13165895D01*
X24999500Y13034106D01*
X25033606Y12906819D01*
X25033607Y12906816D01*
X25033608Y12906814D01*
X25099500Y12792686D01*
X25192686Y12699500D01*
X25306814Y12633608D01*
X25434105Y12599501D01*
X25434106Y12599500D01*
X25434108Y12599500D01*
X25565894Y12599500D01*
X25565894Y12599501D01*
X25693186Y12633608D01*
X25807314Y12699500D01*
X25900500Y12792686D01*
X25966392Y12906814D01*
X26000499Y13034106D01*
X26000500Y13034106D01*
X26000500Y13165894D01*
X26000499Y13165895D01*
X25997846Y13175795D01*
X25966392Y13293186D01*
X25900500Y13407314D01*
X25807314Y13500500D01*
X25731615Y13544205D01*
X25693190Y13566390D01*
X25693181Y13566394D01*
X25565894Y13600500D01*
X25565892Y13600500D01*
X25434108Y13600500D01*
X25434106Y13600500D01*
X25306818Y13566394D01*
X25306809Y13566390D01*
X25192685Y13500500D01*
X25099500Y13407315D01*
X25033610Y13293191D01*
X25033606Y13293182D01*
X24999500Y13165895D01*
X7609022Y13165895D01*
X7612858Y13185178D01*
X7612858Y13185179D01*
X7622767Y13235000D01*
X7004242Y13235000D01*
X7009556Y13244204D01*
X7030000Y13320504D01*
X7030000Y13399496D01*
X7009556Y13475796D01*
X7004242Y13485000D01*
X7622768Y13485000D01*
X7622768Y13485001D01*
X7595415Y13622514D01*
X7595412Y13622525D01*
X7527572Y13786306D01*
X7498624Y13829630D01*
X7474393Y13865895D01*
X26499500Y13865895D01*
X26499500Y13734106D01*
X26533606Y13606819D01*
X26533610Y13606810D01*
X26556946Y13566392D01*
X26599500Y13492686D01*
X26692686Y13399500D01*
X26806814Y13333608D01*
X26934105Y13299501D01*
X26934106Y13299500D01*
X26934108Y13299500D01*
X27065894Y13299500D01*
X27065894Y13299501D01*
X27193186Y13333608D01*
X27307314Y13399500D01*
X27400500Y13492686D01*
X27466392Y13606814D01*
X27500499Y13734106D01*
X27500500Y13734106D01*
X27500500Y13865894D01*
X27500499Y13865895D01*
X27999500Y13865895D01*
X27999500Y13734106D01*
X28033606Y13606819D01*
X28033610Y13606810D01*
X28056946Y13566392D01*
X28099500Y13492686D01*
X28192686Y13399500D01*
X28306814Y13333608D01*
X28434105Y13299501D01*
X28434106Y13299500D01*
X28434108Y13299500D01*
X28565894Y13299500D01*
X28565894Y13299501D01*
X28693186Y13333608D01*
X28807314Y13399500D01*
X28900500Y13492686D01*
X28966392Y13606814D01*
X29000499Y13734106D01*
X29000500Y13734106D01*
X29000500Y13865894D01*
X29000499Y13865895D01*
X28982326Y13933717D01*
X28966392Y13993186D01*
X28900500Y14107314D01*
X28807314Y14200500D01*
X28764164Y14225413D01*
X28693190Y14266390D01*
X28693181Y14266394D01*
X28565894Y14300500D01*
X28565892Y14300500D01*
X28434108Y14300500D01*
X28434106Y14300500D01*
X28306818Y14266394D01*
X28306809Y14266390D01*
X28192685Y14200500D01*
X28099500Y14107315D01*
X28033610Y13993191D01*
X28033606Y13993182D01*
X27999500Y13865895D01*
X27500499Y13865895D01*
X27482326Y13933717D01*
X27466392Y13993186D01*
X27400500Y14107314D01*
X27307314Y14200500D01*
X27264164Y14225413D01*
X27193190Y14266390D01*
X27193181Y14266394D01*
X27065894Y14300500D01*
X27065892Y14300500D01*
X26934108Y14300500D01*
X26934106Y14300500D01*
X26806818Y14266394D01*
X26806809Y14266390D01*
X26692685Y14200500D01*
X26599500Y14107315D01*
X26533610Y13993191D01*
X26533606Y13993182D01*
X26499500Y13865895D01*
X7474393Y13865895D01*
X7429076Y13933717D01*
X7303716Y14059077D01*
X7156304Y14157573D01*
X7156305Y14157573D01*
X6992524Y14225413D01*
X6992513Y14225416D01*
X6818641Y14260000D01*
X6305000Y14260000D01*
X6305000Y13660000D01*
X6055000Y13660000D01*
X6055000Y14260000D01*
X5889186Y14260000D01*
X5836860Y14281674D01*
X5815186Y14334000D01*
X5836860Y14386326D01*
X5852186Y14398086D01*
X5875685Y14411654D01*
X5941263Y14449515D01*
X6020485Y14528737D01*
X6076503Y14625763D01*
X6105499Y14733980D01*
X6105500Y14733980D01*
X6105500Y14846020D01*
X6105499Y14846021D01*
X6076504Y14954233D01*
X6076503Y14954237D01*
X6020485Y15051263D01*
X5941263Y15130485D01*
X5866861Y15173441D01*
X5866859Y15173442D01*
X20848200Y15173442D01*
X20848200Y15016559D01*
X20888801Y14865033D01*
X20888803Y14865030D01*
X20967241Y14729170D01*
X21078170Y14618241D01*
X21214030Y14539803D01*
X21214032Y14539802D01*
X21320542Y14511263D01*
X21365558Y14499201D01*
X21365559Y14499200D01*
X21365561Y14499200D01*
X21522441Y14499200D01*
X21522441Y14499201D01*
X21632672Y14528737D01*
X21673967Y14539802D01*
X21673967Y14539803D01*
X21673970Y14539803D01*
X21809830Y14618241D01*
X21920759Y14729170D01*
X21999197Y14865030D01*
X22039799Y15016559D01*
X22039800Y15016559D01*
X22039800Y15173441D01*
X22039799Y15173442D01*
X22880200Y15173442D01*
X22880200Y15016559D01*
X22920801Y14865033D01*
X22920803Y14865030D01*
X22999241Y14729170D01*
X23110170Y14618241D01*
X23246030Y14539803D01*
X23246032Y14539802D01*
X23352542Y14511263D01*
X23397558Y14499201D01*
X23397559Y14499200D01*
X23397561Y14499200D01*
X23554441Y14499200D01*
X23554441Y14499201D01*
X23664672Y14528737D01*
X23705967Y14539802D01*
X23705967Y14539803D01*
X23705970Y14539803D01*
X23841830Y14618241D01*
X23952759Y14729170D01*
X24031197Y14865030D01*
X24071799Y15016559D01*
X24071800Y15016559D01*
X24071800Y15173441D01*
X24071799Y15173442D01*
X24031198Y15324968D01*
X23952758Y15460831D01*
X23841830Y15571759D01*
X23705967Y15650199D01*
X23554441Y15690800D01*
X23554439Y15690800D01*
X23397561Y15690800D01*
X23397559Y15690800D01*
X23246032Y15650199D01*
X23110169Y15571759D01*
X22999241Y15460831D01*
X22920801Y15324968D01*
X22880200Y15173442D01*
X22039799Y15173442D01*
X21999198Y15324968D01*
X21920758Y15460831D01*
X21809830Y15571759D01*
X21673967Y15650199D01*
X21522441Y15690800D01*
X21522439Y15690800D01*
X21365561Y15690800D01*
X21365559Y15690800D01*
X21214032Y15650199D01*
X21078169Y15571759D01*
X20967241Y15460831D01*
X20888801Y15324968D01*
X20848200Y15173442D01*
X5866859Y15173442D01*
X5844241Y15186501D01*
X5844232Y15186505D01*
X5736020Y15215500D01*
X5736018Y15215500D01*
X5623982Y15215500D01*
X5623980Y15215500D01*
X5515767Y15186505D01*
X5515758Y15186501D01*
X5418736Y15130485D01*
X5339515Y15051264D01*
X5283499Y14954242D01*
X5283495Y14954233D01*
X5254500Y14846021D01*
X5254500Y14733980D01*
X5283495Y14625768D01*
X5283496Y14625765D01*
X5283497Y14625763D01*
X5339515Y14528737D01*
X5418737Y14449515D01*
X5507815Y14398086D01*
X5515763Y14393497D01*
X5516417Y14393226D01*
X5516669Y14392974D01*
X5519963Y14391072D01*
X5519453Y14390190D01*
X5556469Y14353181D01*
X5556473Y14296544D01*
X5516428Y14256492D01*
X5502540Y14252279D01*
X5367486Y14225416D01*
X5367475Y14225413D01*
X5203694Y14157573D01*
X5056283Y14059077D01*
X5056282Y14059075D01*
X4930925Y13933718D01*
X4930923Y13933717D01*
X4832427Y13786306D01*
X4764587Y13622525D01*
X4764584Y13622514D01*
X4737231Y13485001D01*
X3292768Y13485001D01*
X3265415Y13622514D01*
X3265412Y13622525D01*
X3197572Y13786306D01*
X3099076Y13933717D01*
X2973716Y14059077D01*
X2826304Y14157573D01*
X2826305Y14157573D01*
X2662524Y14225413D01*
X2662513Y14225416D01*
X2488641Y14260000D01*
X2125000Y14260000D01*
X2125000Y13660000D01*
X1875000Y13660000D01*
X1875000Y14260000D01*
X1511359Y14260000D01*
X1337486Y14225416D01*
X1337475Y14225413D01*
X1173694Y14157573D01*
X1026283Y14059077D01*
X1026282Y14059075D01*
X900925Y13933718D01*
X900923Y13933717D01*
X802427Y13786306D01*
X734587Y13622525D01*
X734584Y13622514D01*
X707231Y13485001D01*
X300500Y13485001D01*
X300500Y17101365D01*
X18632050Y17101365D01*
X18632050Y16898636D01*
X18663762Y16698407D01*
X18663765Y16698394D01*
X18726406Y16505607D01*
X18818445Y16324967D01*
X18937602Y16160962D01*
X18937606Y16160957D01*
X19080957Y16017606D01*
X19080960Y16017604D01*
X19080961Y16017603D01*
X19244966Y15898446D01*
X19330491Y15854870D01*
X19425599Y15806410D01*
X19425602Y15806410D01*
X19425606Y15806407D01*
X19618393Y15743766D01*
X19618399Y15743765D01*
X19618404Y15743763D01*
X19751892Y15722621D01*
X19818635Y15712050D01*
X19818636Y15712050D01*
X20021365Y15712050D01*
X20071422Y15719979D01*
X20221596Y15743763D01*
X20221603Y15743766D01*
X20221606Y15743766D01*
X20414393Y15806407D01*
X20414395Y15806409D01*
X20414401Y15806410D01*
X20595033Y15898446D01*
X20759043Y16017606D01*
X20902394Y16160957D01*
X21021554Y16324967D01*
X21113590Y16505599D01*
X21176237Y16698404D01*
X21207950Y16898636D01*
X21207950Y17101364D01*
X21207950Y17101365D01*
X23712050Y17101365D01*
X23712050Y16898636D01*
X23743762Y16698407D01*
X23743765Y16698394D01*
X23806406Y16505607D01*
X23898445Y16324967D01*
X24017602Y16160962D01*
X24017606Y16160957D01*
X24160957Y16017606D01*
X24160960Y16017604D01*
X24160961Y16017603D01*
X24324966Y15898446D01*
X24410491Y15854870D01*
X24505599Y15806410D01*
X24505602Y15806410D01*
X24505606Y15806407D01*
X24698393Y15743766D01*
X24698399Y15743765D01*
X24698404Y15743763D01*
X24831892Y15722621D01*
X24898635Y15712050D01*
X24898636Y15712050D01*
X25101365Y15712050D01*
X25151422Y15719979D01*
X25301596Y15743763D01*
X25301603Y15743766D01*
X25301606Y15743766D01*
X25494393Y15806407D01*
X25494395Y15806409D01*
X25494401Y15806410D01*
X25675033Y15898446D01*
X25839043Y16017606D01*
X25982394Y16160957D01*
X26101554Y16324967D01*
X26193590Y16505599D01*
X26256237Y16698404D01*
X26287950Y16898636D01*
X26287950Y17101364D01*
X26256237Y17301596D01*
X26256235Y17301601D01*
X26256234Y17301607D01*
X26193593Y17494394D01*
X26193590Y17494398D01*
X26193590Y17494401D01*
X26122406Y17634108D01*
X26101554Y17675034D01*
X26063619Y17727246D01*
X26035541Y17765892D01*
X26035539Y17765895D01*
X38899500Y17765895D01*
X38899500Y17634106D01*
X38933606Y17506819D01*
X38933610Y17506810D01*
X38999500Y17392686D01*
X39092686Y17299500D01*
X39206814Y17233608D01*
X39334105Y17199501D01*
X39334106Y17199500D01*
X39334108Y17199500D01*
X39465894Y17199500D01*
X39465894Y17199501D01*
X39593186Y17233608D01*
X39707314Y17299500D01*
X39800500Y17392686D01*
X39866392Y17506814D01*
X39900499Y17634106D01*
X39900500Y17634106D01*
X39900500Y17765894D01*
X39900499Y17765895D01*
X39880900Y17839039D01*
X39866392Y17893186D01*
X39800500Y18007314D01*
X39707314Y18100500D01*
X39705487Y18101555D01*
X39593190Y18166390D01*
X39593181Y18166394D01*
X39465894Y18200500D01*
X39465892Y18200500D01*
X39334108Y18200500D01*
X39334106Y18200500D01*
X39206818Y18166394D01*
X39206809Y18166390D01*
X39092685Y18100500D01*
X38999500Y18007315D01*
X38933610Y17893191D01*
X38933606Y17893182D01*
X38899500Y17765895D01*
X26035539Y17765895D01*
X25982394Y17839043D01*
X25839043Y17982394D01*
X25839040Y17982397D01*
X25839038Y17982398D01*
X25675033Y18101555D01*
X25494393Y18193594D01*
X25301606Y18256235D01*
X25301593Y18256238D01*
X25101365Y18287950D01*
X25101364Y18287950D01*
X24898636Y18287950D01*
X24898635Y18287950D01*
X24698406Y18256238D01*
X24698393Y18256235D01*
X24505606Y18193594D01*
X24324966Y18101555D01*
X24160961Y17982398D01*
X24017602Y17839039D01*
X23898445Y17675034D01*
X23806406Y17494394D01*
X23743765Y17301607D01*
X23743762Y17301594D01*
X23712050Y17101365D01*
X21207950Y17101365D01*
X21176237Y17301596D01*
X21176235Y17301601D01*
X21176234Y17301607D01*
X21113593Y17494394D01*
X21113590Y17494398D01*
X21113590Y17494401D01*
X21042406Y17634108D01*
X21021554Y17675034D01*
X20902397Y17839039D01*
X20902396Y17839040D01*
X20902394Y17839043D01*
X20759043Y17982394D01*
X20759040Y17982397D01*
X20759038Y17982398D01*
X20595033Y18101555D01*
X20414393Y18193594D01*
X20221606Y18256235D01*
X20221593Y18256238D01*
X20021365Y18287950D01*
X20021364Y18287950D01*
X19818636Y18287950D01*
X19818635Y18287950D01*
X19618406Y18256238D01*
X19618393Y18256235D01*
X19425606Y18193594D01*
X19244966Y18101555D01*
X19080961Y17982398D01*
X18937602Y17839039D01*
X18818445Y17675034D01*
X18726406Y17494394D01*
X18663765Y17301607D01*
X18663762Y17301594D01*
X18632050Y17101365D01*
X300500Y17101365D01*
X300500Y18550000D01*
X49710000Y18550000D01*
X51800000Y18550000D01*
X51800000Y20450000D01*
X49710000Y20450000D01*
X49710000Y18550000D01*
X300500Y18550000D01*
X300500Y20626021D01*
X5254500Y20626021D01*
X5254500Y20513980D01*
X5283495Y20405768D01*
X5283499Y20405759D01*
X5335164Y20316273D01*
X5339515Y20308737D01*
X5418737Y20229515D01*
X5515763Y20173497D01*
X5623979Y20144501D01*
X5623980Y20144500D01*
X5623982Y20144500D01*
X5736020Y20144500D01*
X5736020Y20144501D01*
X5844237Y20173497D01*
X5941263Y20229515D01*
X5988113Y20276365D01*
X18632050Y20276365D01*
X18632050Y20073636D01*
X18663762Y19873407D01*
X18663765Y19873394D01*
X18726406Y19680607D01*
X18818445Y19499967D01*
X18891439Y19399500D01*
X18937606Y19335957D01*
X19080957Y19192606D01*
X19080960Y19192604D01*
X19080961Y19192603D01*
X19244966Y19073446D01*
X19330491Y19029870D01*
X19425599Y18981410D01*
X19425602Y18981410D01*
X19425606Y18981407D01*
X19618393Y18918766D01*
X19618399Y18918765D01*
X19618404Y18918763D01*
X19751892Y18897621D01*
X19818635Y18887050D01*
X19818636Y18887050D01*
X20021365Y18887050D01*
X20071422Y18894979D01*
X20221596Y18918763D01*
X20221603Y18918766D01*
X20221606Y18918766D01*
X20414393Y18981407D01*
X20414395Y18981409D01*
X20414401Y18981410D01*
X20595033Y19073446D01*
X20759043Y19192606D01*
X20902394Y19335957D01*
X21021554Y19499967D01*
X21113590Y19680599D01*
X21119323Y19698241D01*
X21176234Y19873394D01*
X21176234Y19873397D01*
X21176237Y19873404D01*
X21207950Y20073636D01*
X21207950Y20253442D01*
X21864200Y20253442D01*
X21864200Y20096559D01*
X21904801Y19945033D01*
X21904803Y19945030D01*
X21983241Y19809170D01*
X22094170Y19698241D01*
X22230030Y19619803D01*
X22230032Y19619802D01*
X22331231Y19592686D01*
X22381558Y19579201D01*
X22381559Y19579200D01*
X22381561Y19579200D01*
X22538441Y19579200D01*
X22538441Y19579201D01*
X22644951Y19607741D01*
X22689967Y19619802D01*
X22689967Y19619803D01*
X22689970Y19619803D01*
X22825830Y19698241D01*
X22936759Y19809170D01*
X23015197Y19945030D01*
X23055799Y20096559D01*
X23055800Y20096559D01*
X23055800Y20253441D01*
X23055799Y20253442D01*
X23054011Y20260118D01*
X23049658Y20276365D01*
X23712050Y20276365D01*
X23712050Y20073636D01*
X23743762Y19873407D01*
X23743765Y19873394D01*
X23806406Y19680607D01*
X23898445Y19499967D01*
X23971439Y19399500D01*
X24017606Y19335957D01*
X24160957Y19192606D01*
X24160960Y19192604D01*
X24160961Y19192603D01*
X24324966Y19073446D01*
X24410491Y19029870D01*
X24505599Y18981410D01*
X24505602Y18981410D01*
X24505606Y18981407D01*
X24698393Y18918766D01*
X24698399Y18918765D01*
X24698404Y18918763D01*
X24831892Y18897621D01*
X24898635Y18887050D01*
X24898636Y18887050D01*
X25101365Y18887050D01*
X25151422Y18894979D01*
X25301596Y18918763D01*
X25301603Y18918766D01*
X25301606Y18918766D01*
X25494393Y18981407D01*
X25494395Y18981409D01*
X25494401Y18981410D01*
X25675033Y19073446D01*
X25839043Y19192606D01*
X25982394Y19335957D01*
X26101554Y19499967D01*
X26193590Y19680599D01*
X26199323Y19698241D01*
X26256234Y19873394D01*
X26256234Y19873397D01*
X26256237Y19873404D01*
X26270886Y19965895D01*
X27899500Y19965895D01*
X27899500Y19834106D01*
X27933606Y19706819D01*
X27933610Y19706810D01*
X27999500Y19592686D01*
X28092686Y19499500D01*
X28206814Y19433608D01*
X28334105Y19399501D01*
X28334106Y19399500D01*
X28334108Y19399500D01*
X28465894Y19399500D01*
X28465894Y19399501D01*
X28593186Y19433608D01*
X28707314Y19499500D01*
X28800500Y19592686D01*
X28866392Y19706814D01*
X28900499Y19834106D01*
X28900500Y19834106D01*
X28900500Y19965894D01*
X28900499Y19965895D01*
X28866393Y20093182D01*
X28866392Y20093186D01*
X28800500Y20207314D01*
X28707314Y20300500D01*
X28693047Y20308737D01*
X28593190Y20366390D01*
X28593181Y20366394D01*
X28465894Y20400500D01*
X28465892Y20400500D01*
X28334108Y20400500D01*
X28334106Y20400500D01*
X28206818Y20366394D01*
X28206809Y20366390D01*
X28092685Y20300500D01*
X27999500Y20207315D01*
X27933610Y20093191D01*
X27933606Y20093182D01*
X27899500Y19965895D01*
X26270886Y19965895D01*
X26287950Y20073636D01*
X26287950Y20276364D01*
X26256237Y20476596D01*
X26256234Y20476603D01*
X26256234Y20476607D01*
X26193593Y20669394D01*
X26193590Y20669398D01*
X26193590Y20669401D01*
X26111118Y20831263D01*
X26101554Y20850034D01*
X25982397Y21014039D01*
X25982396Y21014040D01*
X25982394Y21014043D01*
X25839043Y21157394D01*
X25839040Y21157397D01*
X25839038Y21157398D01*
X25765433Y21210875D01*
X25689705Y21265895D01*
X38494500Y21265895D01*
X38494500Y21134106D01*
X38528606Y21006819D01*
X38528610Y21006810D01*
X38551883Y20966501D01*
X38594500Y20892686D01*
X38687686Y20799500D01*
X38801814Y20733608D01*
X38929105Y20699501D01*
X38929106Y20699500D01*
X38929108Y20699500D01*
X39060894Y20699500D01*
X39060894Y20699501D01*
X39188186Y20733608D01*
X39302314Y20799500D01*
X39395500Y20892686D01*
X39461392Y21006814D01*
X39495499Y21134106D01*
X39495500Y21134106D01*
X39495500Y21265894D01*
X39495499Y21265895D01*
X39461393Y21393182D01*
X39461392Y21393186D01*
X39395500Y21507314D01*
X39302314Y21600500D01*
X39188190Y21666390D01*
X39188181Y21666394D01*
X39060894Y21700500D01*
X39060892Y21700500D01*
X38929108Y21700500D01*
X38929106Y21700500D01*
X38801818Y21666394D01*
X38801809Y21666390D01*
X38687685Y21600500D01*
X38594500Y21507315D01*
X38528610Y21393191D01*
X38528606Y21393182D01*
X38494500Y21265895D01*
X25689705Y21265895D01*
X25675033Y21276555D01*
X25494393Y21368594D01*
X25301606Y21431235D01*
X25301593Y21431238D01*
X25101365Y21462950D01*
X25101364Y21462950D01*
X24898636Y21462950D01*
X24898635Y21462950D01*
X24698406Y21431238D01*
X24698393Y21431235D01*
X24505606Y21368594D01*
X24324966Y21276555D01*
X24160961Y21157398D01*
X24017602Y21014039D01*
X23898445Y20850034D01*
X23806406Y20669394D01*
X23743765Y20476607D01*
X23743762Y20476594D01*
X23712050Y20276365D01*
X23049658Y20276365D01*
X23015198Y20404968D01*
X22989199Y20450000D01*
X22936759Y20540830D01*
X22825830Y20651759D01*
X22749496Y20695830D01*
X22689967Y20730199D01*
X22538441Y20770800D01*
X22538439Y20770800D01*
X22381561Y20770800D01*
X22381559Y20770800D01*
X22230032Y20730199D01*
X22094169Y20651759D01*
X21983241Y20540831D01*
X21904801Y20404968D01*
X21864200Y20253442D01*
X21207950Y20253442D01*
X21207950Y20276364D01*
X21176237Y20476596D01*
X21176235Y20476601D01*
X21176234Y20476607D01*
X21113592Y20669396D01*
X21113590Y20669399D01*
X21113590Y20669401D01*
X21100122Y20695832D01*
X21095678Y20752292D01*
X21132461Y20795360D01*
X21188923Y20799805D01*
X21203057Y20793512D01*
X21274452Y20752292D01*
X21306814Y20733608D01*
X21434105Y20699501D01*
X21434106Y20699500D01*
X21434108Y20699500D01*
X21565894Y20699500D01*
X21565894Y20699501D01*
X21693186Y20733608D01*
X21807314Y20799500D01*
X21900500Y20892686D01*
X21966392Y21006814D01*
X22000499Y21134106D01*
X22000500Y21134106D01*
X22000500Y21265894D01*
X22000499Y21265895D01*
X21966393Y21393182D01*
X21966392Y21393186D01*
X21900500Y21507314D01*
X21807314Y21600500D01*
X21693190Y21666390D01*
X21693181Y21666394D01*
X21565894Y21700500D01*
X21565892Y21700500D01*
X21434108Y21700500D01*
X21434106Y21700500D01*
X21306818Y21666394D01*
X21306809Y21666390D01*
X21192685Y21600500D01*
X21099500Y21507315D01*
X21033610Y21393191D01*
X21033606Y21393182D01*
X20999500Y21265895D01*
X20999500Y21134109D01*
X21007511Y21104209D01*
X21000117Y21048056D01*
X20955184Y21013578D01*
X20899031Y21020972D01*
X20883706Y21032731D01*
X20759048Y21157389D01*
X20759043Y21157394D01*
X20759040Y21157397D01*
X20759038Y21157398D01*
X20595033Y21276555D01*
X20414393Y21368594D01*
X20221606Y21431235D01*
X20221593Y21431238D01*
X20021365Y21462950D01*
X20021364Y21462950D01*
X19818636Y21462950D01*
X19818635Y21462950D01*
X19618406Y21431238D01*
X19618393Y21431235D01*
X19425606Y21368594D01*
X19244966Y21276555D01*
X19080961Y21157398D01*
X18937602Y21014039D01*
X18818445Y20850034D01*
X18726406Y20669394D01*
X18663765Y20476607D01*
X18663762Y20476594D01*
X18632050Y20276365D01*
X5988113Y20276365D01*
X6020485Y20308737D01*
X6076503Y20405763D01*
X6105499Y20513980D01*
X6105500Y20513980D01*
X6105500Y20626020D01*
X6105499Y20626021D01*
X6093877Y20669394D01*
X6076503Y20734237D01*
X6020485Y20831263D01*
X5941263Y20910485D01*
X5844241Y20966501D01*
X5844232Y20966505D01*
X5736020Y20995500D01*
X5736018Y20995500D01*
X5623982Y20995500D01*
X5623980Y20995500D01*
X5515767Y20966505D01*
X5515758Y20966501D01*
X5418736Y20910485D01*
X5339515Y20831264D01*
X5283499Y20734242D01*
X5283495Y20734233D01*
X5254500Y20626021D01*
X300500Y20626021D01*
X300500Y22125001D01*
X707231Y22125001D01*
X707232Y22125000D01*
X1325758Y22125000D01*
X1320444Y22115796D01*
X1300000Y22039496D01*
X1300000Y21960504D01*
X1320444Y21884204D01*
X1325758Y21875000D01*
X707231Y21875000D01*
X734584Y21737487D01*
X734587Y21737476D01*
X802427Y21573695D01*
X900923Y21426284D01*
X1026283Y21300924D01*
X1173695Y21202428D01*
X1173694Y21202428D01*
X1337475Y21134588D01*
X1337486Y21134585D01*
X1511359Y21100000D01*
X1875000Y21100000D01*
X1875000Y21700000D01*
X2125000Y21700000D01*
X2125000Y21100000D01*
X2488641Y21100000D01*
X2662513Y21134585D01*
X2662524Y21134588D01*
X2826305Y21202428D01*
X2973716Y21300924D01*
X2973718Y21300925D01*
X3099075Y21426282D01*
X3099076Y21426284D01*
X3197572Y21573695D01*
X3265412Y21737476D01*
X3265415Y21737487D01*
X3292768Y21875000D01*
X2674242Y21875000D01*
X2679556Y21884204D01*
X2700000Y21960504D01*
X2700000Y22039496D01*
X2679556Y22115796D01*
X2674242Y22125000D01*
X3292768Y22125000D01*
X3292768Y22125001D01*
X3265415Y22262514D01*
X3265412Y22262525D01*
X3197572Y22426306D01*
X3099076Y22573717D01*
X2973716Y22699077D01*
X2826304Y22797573D01*
X2826305Y22797573D01*
X2662524Y22865413D01*
X2662513Y22865416D01*
X2488641Y22900000D01*
X2125000Y22900000D01*
X2125000Y22300000D01*
X1875000Y22300000D01*
X1875000Y22900000D01*
X1511359Y22900000D01*
X1337486Y22865416D01*
X1337475Y22865413D01*
X1173694Y22797573D01*
X1026283Y22699077D01*
X1026282Y22699075D01*
X900925Y22573718D01*
X900923Y22573717D01*
X802427Y22426306D01*
X734587Y22262525D01*
X734584Y22262514D01*
X707231Y22125001D01*
X300500Y22125001D01*
X300500Y27715895D01*
X28699500Y27715895D01*
X28699500Y27584106D01*
X28733606Y27456819D01*
X28733607Y27456816D01*
X28733608Y27456814D01*
X28799500Y27342686D01*
X28892686Y27249500D01*
X29006814Y27183608D01*
X29134105Y27149501D01*
X29134106Y27149500D01*
X29134108Y27149500D01*
X29265894Y27149500D01*
X29265894Y27149501D01*
X29393186Y27183608D01*
X29507314Y27249500D01*
X29600500Y27342686D01*
X29666392Y27456814D01*
X29700499Y27584106D01*
X29700500Y27584106D01*
X29700500Y27715894D01*
X29700499Y27715895D01*
X29974500Y27715895D01*
X29974500Y27584106D01*
X30008606Y27456819D01*
X30008607Y27456816D01*
X30008608Y27456814D01*
X30074500Y27342686D01*
X30167686Y27249500D01*
X30281814Y27183608D01*
X30409105Y27149501D01*
X30409106Y27149500D01*
X30409108Y27149500D01*
X30540894Y27149500D01*
X30540894Y27149501D01*
X30668186Y27183608D01*
X30782314Y27249500D01*
X30875500Y27342686D01*
X30941392Y27456814D01*
X30975499Y27584106D01*
X30975500Y27584106D01*
X30975500Y27715894D01*
X30975499Y27715895D01*
X30941393Y27843182D01*
X30941392Y27843186D01*
X30875500Y27957314D01*
X30782314Y28050500D01*
X30668190Y28116390D01*
X30668181Y28116394D01*
X30540894Y28150500D01*
X30540892Y28150500D01*
X30409108Y28150500D01*
X30409106Y28150500D01*
X30281818Y28116394D01*
X30281809Y28116390D01*
X30167685Y28050500D01*
X30074500Y27957315D01*
X30008610Y27843191D01*
X30008606Y27843182D01*
X29974500Y27715895D01*
X29700499Y27715895D01*
X29666393Y27843182D01*
X29666392Y27843186D01*
X29600500Y27957314D01*
X29507314Y28050500D01*
X29393190Y28116390D01*
X29393181Y28116394D01*
X29265894Y28150500D01*
X29265892Y28150500D01*
X29134108Y28150500D01*
X29134106Y28150500D01*
X29006818Y28116394D01*
X29006809Y28116390D01*
X28892685Y28050500D01*
X28799500Y27957315D01*
X28733610Y27843191D01*
X28733606Y27843182D01*
X28699500Y27715895D01*
X300500Y27715895D01*
X300500Y27997917D01*
X300616Y28002066D01*
X307036Y28116392D01*
X317241Y28298115D01*
X318171Y28306353D01*
X367487Y28596608D01*
X369326Y28604668D01*
X450841Y28887611D01*
X453571Y28895414D01*
X566246Y29167436D01*
X569840Y29174898D01*
X712268Y29432603D01*
X716665Y29439601D01*
X887044Y29679727D01*
X892202Y29686196D01*
X1088408Y29905751D01*
X1094249Y29911592D01*
X1313804Y30107798D01*
X1320273Y30112956D01*
X1560399Y30283335D01*
X1567397Y30287732D01*
X1825102Y30430160D01*
X1832564Y30433754D01*
X2104586Y30546429D01*
X2112389Y30549159D01*
X2395332Y30630674D01*
X2403392Y30632513D01*
X2693655Y30681830D01*
X2701885Y30682759D01*
X2997934Y30699385D01*
X3002083Y30699500D01*
X3047595Y30699500D01*
X21960438Y30699500D01*
X51952405Y30699500D01*
X51997917Y30699500D01*
X52002065Y30699385D01*
G37*
%TD.AperFunction*%
%TD*%
M02*
