%TF.GenerationSoftware,Altium Limited,Altium Designer,26.10.1 (5)*%
G04 Layer_Color=16711935*
G04 Board_Origin=0|0*
%FSLAX45Y45*%
%MOMM*%
%TF.SameCoordinates,5047FA09-4319-4642-AD64-BF5BD6B7FE86*%
%TF.FilePolarity,Positive*%
%TF.FileFunction,Keep-out,Top*%
%TF.Part,Single*%
G01*
G75*
G36*
X11733650Y8993500D02*
X11685350D01*
X11684594Y8985823D01*
X11678718Y8971638D01*
X11667862Y8960781D01*
X11653677Y8954906D01*
X11638323D01*
X11624138Y8960781D01*
X11613282Y8971638D01*
X11607406Y8985823D01*
X11606650Y8993500D01*
D01*
X11558350Y8993500D01*
X11557594Y8985823D01*
X11551719Y8971638D01*
X11540862Y8960781D01*
X11526677Y8954906D01*
X11519000Y8954150D01*
Y8954150D01*
Y8905850D01*
X11526677Y8905094D01*
X11540862Y8899218D01*
X11551719Y8888362D01*
X11557594Y8874177D01*
X11558350Y8866500D01*
D01*
X11606650D01*
X11607406Y8874177D01*
X11613282Y8888361D01*
X11624138Y8899218D01*
X11638323Y8905094D01*
X11653677D01*
X11667862Y8899218D01*
X11678718Y8888361D01*
X11684594Y8874177D01*
X11685350Y8866500D01*
D01*
X11733650D01*
X11734406Y8874177D01*
X11740281Y8888362D01*
X11751138Y8899218D01*
X11765323Y8905094D01*
X11773000Y8905850D01*
X11773000D01*
X11773000Y8954150D01*
X11765323Y8954906D01*
X11751138Y8960781D01*
X11740281Y8971638D01*
X11734406Y8985823D01*
X11733650Y8993500D01*
X11733650Y8993500D01*
D02*
G37*
%TF.MD5,876f71528fa2bd9856715f916578dc7c*%
M02*
