%TF.GenerationSoftware,Altium Limited,Altium Designer,26.10.1 (5)*%
G04 Layer_Color=0*
G04 Board_Origin=0|0*
%FSLAX45Y45*%
%MOMM*%
%TF.SameCoordinates,5047FA09-4319-4642-AD64-BF5BD6B7FE86*%
%TF.FilePolarity,Positive*%
%TF.FileFunction,Other,Top_Component_Center*%
%TF.Part,Single*%
G01*
G75*
%TA.AperFunction,NonConductor*%
%ADD67C,0.10000*%
D67*
X9115000Y8850000D02*
Y8950000D01*
X9065000Y8900000D02*
X9165000D01*
X11646000Y8880000D02*
Y8980000D01*
X11596000Y8930000D02*
X11696000D01*
X10550000Y7390000D02*
Y7490000D01*
X10500000Y7440000D02*
X10600000D01*
X10215000Y6572500D02*
X10315000D01*
X10265000Y6522500D02*
Y6622500D01*
X9390000Y7690000D02*
X9490000D01*
X9440000Y7640000D02*
Y7740000D01*
X12450000Y6715000D02*
X12550000D01*
X12500000Y6665000D02*
Y6765000D01*
X12772500Y8111250D02*
X12872501D01*
X12822501Y8061250D02*
Y8161250D01*
X11640000Y6780000D02*
X11740000D01*
X11690000Y6730000D02*
Y6830000D01*
X12167500Y7845000D02*
Y7945000D01*
X12117500Y7895000D02*
X12217500D01*
X12160000Y6767376D02*
X12260000D01*
X12210000Y6717376D02*
Y6817375D01*
X12450000Y6990000D02*
X12550000D01*
X12500000Y6940000D02*
Y7040000D01*
X11707376Y7340000D02*
Y7440000D01*
X11657376Y7390000D02*
X11757376D01*
X11997500Y7685000D02*
X12097500D01*
X12047500Y7635000D02*
Y7735000D01*
X12277500Y7685000D02*
X12377500D01*
X12327500Y7635000D02*
Y7735000D01*
X9835000Y8630000D02*
X9935000D01*
X9885000Y8580000D02*
Y8680000D01*
X9065000Y8690000D02*
X9165000D01*
X9115000Y8640000D02*
Y8740000D01*
X9415000Y8310000D02*
Y8410000D01*
X9365000Y8360000D02*
X9465000D01*
X10480000Y8950000D02*
Y9050000D01*
X10430000Y9000000D02*
X10530000D01*
X10680000Y8950000D02*
Y9050000D01*
X10630000Y9000000D02*
X10730000D01*
X11090000Y7710000D02*
Y7810000D01*
X11040000Y7760000D02*
X11140000D01*
X11110000Y7530000D02*
Y7630000D01*
X11060000Y7580000D02*
X11160000D01*
X9710000Y7830000D02*
Y7930000D01*
X9660000Y7880000D02*
X9760000D01*
X9570000Y7355000D02*
Y7455000D01*
X9520000Y7405000D02*
X9620000D01*
X11480000Y9370000D02*
Y9470000D01*
X11430000Y9420000D02*
X11530000D01*
X10220000Y8520000D02*
Y8620000D01*
X10170000Y8570000D02*
X10270000D01*
X10982500Y8322500D02*
X11082500D01*
X11032500Y8272500D02*
Y8372500D01*
X10810000Y7390000D02*
Y7490000D01*
X10760000Y7440000D02*
X10860000D01*
X9927500Y7770000D02*
X10027500D01*
X9977500Y7720000D02*
Y7820000D01*
X9930000Y8215000D02*
X10030000D01*
X9980000Y8165000D02*
Y8265000D01*
X9690000Y8200000D02*
X9790000D01*
X9740000Y8150000D02*
Y8250000D01*
X9700000Y7630000D02*
Y7730000D01*
X9650000Y7680000D02*
X9750000D01*
%TF.MD5,7fda5a0b958debd1b01463f7cbc93247*%
M02*
