%TF.GenerationSoftware,Altium Limited,Altium Designer,26.10.1 (5)*%
G04 Layer_Color=32768*
G04 Board_Origin=0|0*
%FSLAX45Y45*%
%MOMM*%
%TF.SameCoordinates,5047FA09-4319-4642-AD64-BF5BD6B7FE86*%
%TF.FilePolarity,Positive*%
%TF.FileFunction,Other,Top_Courtyard*%
%TF.Part,Single*%
G01*
G75*
%TA.AperFunction,NonConductor*%
%ADD62C,0.20000*%
%ADD67C,0.10000*%
%ADD68C,0.05000*%
D62*
X9162500Y8812500D02*
Y8987500D01*
X9067500Y8812500D02*
X9162500D01*
X9067500D02*
Y8987500D01*
X9162500D01*
X12151300Y8615200D02*
Y9244800D01*
X11140700D02*
X12151300D01*
X11140700Y8615200D02*
Y9244800D01*
Y8615200D02*
X12151300D01*
X10670000Y7380000D02*
Y7500000D01*
X10430000D02*
X10670000D01*
X10430000Y7380000D02*
Y7500000D01*
Y7380000D02*
X10670000D01*
X9635000Y6832500D02*
X10895000D01*
Y6062500D02*
Y6832500D01*
X9635000Y6062500D02*
X10895000D01*
X9635000D02*
Y6832500D01*
X9352500Y7642500D02*
X9527500D01*
X9352500D02*
Y7737500D01*
X9527500D01*
Y7642500D02*
Y7737500D01*
X12460000Y6805000D02*
X12540000D01*
X12460000Y6625000D02*
Y6805000D01*
Y6625000D02*
X12540000D01*
Y6805000D01*
X12477500Y7681250D02*
X13070500D01*
Y8541250D01*
X12477500D02*
X13070500D01*
X12477500Y7681250D02*
Y8541250D01*
X11354750Y7169715D02*
X12025250D01*
X11354750Y6390285D02*
Y7169715D01*
Y6390285D02*
X12025250D01*
Y7169715D01*
X12084589Y6554465D02*
X12335411D01*
Y6980287D01*
X12084589D02*
X12335411D01*
X12084589Y6554465D02*
Y6980287D01*
X12462500Y7063624D02*
X12537500D01*
X12462500Y6916376D02*
Y7063624D01*
Y6916376D02*
X12537500D01*
Y7063624D01*
X11494465Y7264589D02*
Y7515411D01*
Y7264589D02*
X11920287D01*
Y7515411D01*
X11494465D02*
X11920287D01*
X12000000Y7772500D02*
X12095000D01*
X12000000Y7597500D02*
Y7772500D01*
Y7597500D02*
X12095000D01*
Y7772500D01*
X12280000Y7772500D02*
X12375000D01*
X12280000Y7597500D02*
Y7772500D01*
Y7597500D02*
X12375000D01*
Y7772500D01*
X9837500Y8717500D02*
X9932500D01*
X9837500Y8542500D02*
Y8717500D01*
Y8542500D02*
X9932500D01*
Y8717500D01*
X9067500Y8777500D02*
X9162500D01*
X9067500Y8602500D02*
Y8777500D01*
Y8602500D02*
X9162500D01*
Y8777500D01*
X9327500Y8312500D02*
Y8407500D01*
Y8312500D02*
X9502500D01*
Y8407500D01*
X9327500D02*
X9502500D01*
X10553624Y8962500D02*
Y9037500D01*
X10406376D02*
X10553624D01*
X10406376Y8962500D02*
Y9037500D01*
Y8962500D02*
X10553624D01*
X10606376D02*
Y9037500D01*
Y8962500D02*
X10753624D01*
Y9037500D01*
X10606376D02*
X10753624D01*
X11185000Y7718250D02*
Y7801750D01*
X10995000D02*
X11185000D01*
X10995000Y7718250D02*
Y7801750D01*
Y7718250D02*
X11185000D01*
X11036376Y7542500D02*
Y7617500D01*
Y7542500D02*
X11183624D01*
Y7617500D01*
X11036376D02*
X11183624D01*
X9606376Y7826376D02*
Y7933623D01*
Y7826376D02*
X9813624D01*
Y7933623D01*
X9606376D02*
X9813624D01*
X9445000Y7300000D02*
Y7510000D01*
Y7300000D02*
X9695000D01*
Y7510000D01*
X9445000D02*
X9695000D01*
X11567500Y9372500D02*
Y9467500D01*
X11392500D02*
X11567500D01*
X11392500Y9372500D02*
Y9467500D01*
Y9372500D02*
X11567500D01*
X10132500Y8522500D02*
Y8617500D01*
Y8522500D02*
X10307500D01*
Y8617500D01*
X10132500D02*
X10307500D01*
X10985000Y8410000D02*
X11080000D01*
X10985000Y8235000D02*
Y8410000D01*
Y8235000D02*
X11080000D01*
Y8410000D01*
X10897500Y7392500D02*
Y7487500D01*
X10722500D02*
X10897500D01*
X10722500Y7392500D02*
Y7487500D01*
Y7392500D02*
X10897500D01*
X9930000Y7682500D02*
X10025000D01*
Y7857500D01*
X9930000D02*
X10025000D01*
X9930000Y7682500D02*
Y7857500D01*
X9932500Y8302500D02*
X10027500D01*
X9932500Y8127500D02*
Y8302500D01*
Y8127500D02*
X10027500D01*
Y8302500D01*
X9680000Y8320000D02*
X9800000D01*
X9680000Y8080000D02*
Y8320000D01*
Y8080000D02*
X9800000D01*
Y8320000D01*
X9612500Y7632500D02*
Y7727500D01*
Y7632500D02*
X9787500D01*
Y7727500D01*
X9612500D02*
X9787500D01*
D67*
X10452900Y7988300D02*
X10552900D01*
X10502900Y7938300D02*
Y8038300D01*
X9445000Y8760000D02*
X9545000D01*
X9495000Y8710000D02*
Y8810000D01*
X11682500Y9410000D02*
X11737500D01*
X11710000Y9382500D02*
Y9437500D01*
X10430000Y8762500D02*
Y8817500D01*
X10402500Y8790000D02*
X10457500D01*
D68*
X10112900Y7598300D02*
Y8378300D01*
X10892900Y7598300D02*
Y8378300D01*
X10112900D02*
X10892900D01*
X10112900Y7598300D02*
X10892900D01*
X9245000Y9010000D02*
X9745000D01*
X9245000Y8510000D02*
Y9010000D01*
Y8510000D02*
X9745000D01*
Y9010000D01*
X12387500Y7805000D02*
Y7985000D01*
X11947500D02*
X12387500D01*
X11947500Y7805000D02*
Y7985000D01*
Y7805000D02*
X12387500D01*
X11605000Y9355000D02*
Y9465000D01*
X11815000Y9355000D02*
Y9465000D01*
X11605000D02*
X11815000D01*
X11605000Y9355000D02*
X11815000D01*
X10375000Y8895000D02*
X10485000D01*
X10375000Y8685000D02*
X10485000D01*
Y8895000D01*
X10375000Y8685000D02*
Y8895000D01*
%TF.MD5,9ff8c392de3abf58550bcea99b4cd301*%
M02*
