%TF.GenerationSoftware,Altium Limited,Altium Designer,26.10.1 (5)*%
G04 Layer_Color=128*
G04 Board_Origin=0|0*
%FSLAX45Y45*%
%MOMM*%
%TF.SameCoordinates,5047FA09-4319-4642-AD64-BF5BD6B7FE86*%
%TF.FilePolarity,Positive*%
%TF.FileFunction,Drillmap*%
%TF.Part,Single*%
G01*
G75*
%TA.AperFunction,NonConductor*%
%ADD79C,0.12700*%
D79*
X11850450Y8930000D02*
X11949550D01*
X11900000Y8880450D02*
Y8979550D01*
X11342450Y9031600D02*
X11441550D01*
X11392000Y8982050D02*
Y9081150D01*
X11342450Y8828400D02*
X11441550D01*
X11392000Y8778850D02*
Y8877950D01*
X12450000Y9280000D02*
X12770000D01*
X12610000Y9120000D02*
Y9440000D01*
X12450000Y6300000D02*
X12770000D01*
X12610000Y6140000D02*
Y6460000D01*
X9070000Y6300000D02*
X9390000D01*
X9230000Y6140000D02*
Y6460000D01*
X9070000Y9280000D02*
X9390000D01*
X9230000Y9120000D02*
Y9440000D01*
X11637500Y9310000D02*
X11662500D01*
X11650000Y9297500D02*
Y9322500D01*
X10137500Y8380000D02*
X10162500D01*
X10150000Y8367500D02*
Y8392500D01*
X10717500Y8880000D02*
X10742500D01*
X10730000Y8867500D02*
Y8892500D01*
X10347500Y8950000D02*
X10372500D01*
X10360000Y8937500D02*
Y8962500D01*
X10857500Y8650000D02*
X10882500D01*
X10870000Y8637500D02*
Y8662500D01*
X10857500Y8310000D02*
X10882500D01*
X10870000Y8297500D02*
Y8322500D01*
X10327500Y8830000D02*
X10352500D01*
X10340000Y8817500D02*
Y8842500D01*
X9157500Y8140000D02*
X9182500D01*
X9170000Y8127500D02*
Y8152500D01*
X9257500Y8300000D02*
X9282500D01*
X9270000Y8287500D02*
Y8312500D01*
X9767500Y6340000D02*
X9792500D01*
X9780000Y6327500D02*
Y6352500D01*
X10917500Y6090000D02*
X10942500D01*
X10930000Y6077500D02*
Y6102500D01*
X11417500Y9350000D02*
X11442500D01*
X11430000Y9337500D02*
Y9362500D01*
X9637463Y8090037D02*
X9662463D01*
X9649963Y8077537D02*
Y8102537D01*
X10787500Y6870000D02*
X10812500D01*
X10800000Y6857500D02*
Y6882500D01*
X12377500Y7030000D02*
X12402500D01*
X12390000Y7017500D02*
Y7042500D01*
X12197500Y6990000D02*
X12222500D01*
X12210000Y6977500D02*
Y7002500D01*
X11907500Y7210000D02*
X11932500D01*
X11920000Y7197500D02*
Y7222500D01*
X12310000Y7572500D02*
X12335000D01*
X12322500Y7560000D02*
Y7585000D01*
X12037500Y7550000D02*
X12062500D01*
X12050000Y7537500D02*
Y7562500D01*
X11967500Y7400000D02*
X11992500D01*
X11980000Y7387500D02*
Y7412500D01*
X12417500Y8240000D02*
X12442500D01*
X12430000Y8227500D02*
Y8252500D01*
X11497500Y9090000D02*
X11522500D01*
X11510000Y9077500D02*
Y9102500D01*
X11067500Y8270000D02*
X11092500D01*
X11080000Y8257500D02*
Y8282500D01*
X11057500Y7520000D02*
X11082500D01*
X11070000Y7507500D02*
Y7532500D01*
X10747500Y7360000D02*
X10772500D01*
X10760000Y7347500D02*
Y7372500D01*
X10477500Y7350000D02*
X10502500D01*
X10490000Y7337500D02*
Y7362500D01*
X9907500Y7820000D02*
X9932500D01*
X9920000Y7807500D02*
Y7832500D01*
X9697500Y7350000D02*
X9722500D01*
X9710000Y7337500D02*
Y7362500D01*
X9797500Y7680000D02*
X9822500D01*
X9810000Y7667500D02*
Y7692500D01*
X9317500Y7690000D02*
X9342500D01*
X9330000Y7677500D02*
Y7702500D01*
X9477500Y7530000D02*
X9502500D01*
X9490000Y7517500D02*
Y7542500D01*
X9872500Y8505000D02*
X9897500D01*
X9885000Y8492500D02*
Y8517500D01*
X9067500Y8840000D02*
X9092500D01*
X9080000Y8827500D02*
Y8852500D01*
X9607500Y9090000D02*
X9632500D01*
X9620000Y9077500D02*
Y9102500D01*
X9607500Y8480000D02*
X9632500D01*
X9620000Y8467500D02*
Y8492500D01*
X9487500Y8400000D02*
X9512500D01*
X9500000Y8387500D02*
Y8412500D01*
X9087500Y8600000D02*
X9112500D01*
X9100000Y8587500D02*
Y8612500D01*
X10272900Y7878300D02*
X10292900D01*
X10282900Y7868300D02*
Y7888300D01*
X10272900Y7768300D02*
X10292900D01*
X10282900Y7758300D02*
Y7778300D01*
X10272900Y8208300D02*
X10292900D01*
X10282900Y8198300D02*
Y8218300D01*
X10272900Y8098300D02*
X10292900D01*
X10282900Y8088300D02*
Y8108300D01*
X10272900Y7988300D02*
X10292900D01*
X10282900Y7978300D02*
Y7998300D01*
X9430000Y8815000D02*
X9450000D01*
X9440000Y8805000D02*
Y8825000D01*
X9540000Y8705000D02*
X9560000D01*
X9550000Y8695000D02*
Y8715000D01*
X9430000Y8705000D02*
X9450000D01*
X9440000Y8695000D02*
Y8715000D01*
X9540000Y8815000D02*
X9560000D01*
X9550000Y8805000D02*
Y8825000D01*
X10602900Y7768300D02*
X10622900D01*
X10612900Y7758300D02*
Y7778300D01*
X10712900Y7768300D02*
X10732900D01*
X10722900Y7758300D02*
Y7778300D01*
X10382900Y7768300D02*
X10402900D01*
X10392900Y7758300D02*
Y7778300D01*
X10492900Y7768300D02*
X10512900D01*
X10502900Y7758300D02*
Y7778300D01*
X10382900Y7878300D02*
X10402900D01*
X10392900Y7868300D02*
Y7888300D01*
X10492900Y7988300D02*
X10512900D01*
X10502900Y7978300D02*
Y7998300D01*
X10382900Y7988300D02*
X10402900D01*
X10392900Y7978300D02*
Y7998300D01*
X10492900Y8098300D02*
X10512900D01*
X10502900Y8088300D02*
Y8108300D01*
X10492900Y7878300D02*
X10512900D01*
X10502900Y7868300D02*
Y7888300D01*
X10602900Y7878300D02*
X10622900D01*
X10612900Y7868300D02*
Y7888300D01*
X10602900Y8098300D02*
X10622900D01*
X10612900Y8088300D02*
Y8108300D01*
X10602900Y7988300D02*
X10622900D01*
X10612900Y7978300D02*
Y7998300D01*
X10382900Y8208300D02*
X10402900D01*
X10392900Y8198300D02*
Y8218300D01*
X10382900Y8098300D02*
X10402900D01*
X10392900Y8088300D02*
Y8108300D01*
X10602900Y8208300D02*
X10622900D01*
X10612900Y8198300D02*
Y8218300D01*
X10492900Y8208300D02*
X10512900D01*
X10502900Y8198300D02*
Y8218300D01*
X10712900Y7988300D02*
X10732900D01*
X10722900Y7978300D02*
Y7998300D01*
X10712900Y7878300D02*
X10732900D01*
X10722900Y7868300D02*
Y7888300D01*
X10712900Y8208300D02*
X10732900D01*
X10722900Y8198300D02*
Y8218300D01*
X10712900Y8098300D02*
X10732900D01*
X10722900Y8088300D02*
Y8108300D01*
X10635000Y9137500D02*
X10660000D01*
X10647500Y9125000D02*
Y9150000D01*
X10235000Y9010000D02*
X10260000D01*
X10247500Y8997500D02*
Y9022500D01*
X9710000Y6930000D02*
X9735000D01*
X9722500Y6917500D02*
Y6942500D01*
X10432500Y7555000D02*
X10457500D01*
X10445000Y7542500D02*
Y7567500D01*
X9917500Y7925000D02*
X9947500D01*
X9932500Y7910000D02*
Y7940000D01*
%TF.MD5,4d7939f1aa9033e413d6be98d6993dfb*%
M02*
