%TF.GenerationSoftware,Altium Limited,Altium Designer,26.10.1 (5)*%
G04 Layer_Physical_Order=1*
G04 Layer_Color=255*
G04 Board_Origin=0|0*
%FSLAX45Y45*%
%MOMM*%
%TF.SameCoordinates,5047FA09-4319-4642-AD64-BF5BD6B7FE86*%
%TF.FilePolarity,Positive*%
%TF.FileFunction,Copper,L1,Top,Signal*%
%TF.Part,Single*%
G01*
G75*
%TA.AperFunction,SMDPad,CuDef*%
%ADD10R,0.50000X0.50000*%
%ADD11R,0.90000X0.80000*%
%ADD12R,0.50000X0.50000*%
%ADD13R,0.90000X0.75000*%
%ADD14O,0.80000X0.25000*%
%ADD15R,5.60000X5.60000*%
%ADD16O,0.25000X0.80000*%
%ADD17R,0.85000X0.30000*%
%ADD18R,0.85000X0.20000*%
%ADD19R,2.60000X2.70000*%
%ADD20R,0.20000X0.80000*%
%ADD21R,0.30000X0.80000*%
%ADD22R,1.60000X3.00000*%
%ADD23R,0.87213X1.00429*%
%ADD24R,1.50822X1.40574*%
%ADD25R,0.47247X0.51535*%
%ADD26R,0.51535X0.47247*%
%ADD27R,1.40574X1.50822*%
%ADD28R,0.65000X0.65000*%
%TA.AperFunction,ConnectorPad*%
%ADD29R,1.38000X0.45000*%
%TA.AperFunction,SMDPad,CuDef*%
%ADD30C,0.78700*%
%ADD31R,0.75000X0.90000*%
%ADD32C,0.68700*%
%ADD33R,1.00000X5.50000*%
%ADD34R,0.65000X0.65000*%
G04:AMPARAMS|DCode=35|XSize=1.00429mm|YSize=0.87213mm|CornerRadius=0.43606mm|HoleSize=0mm|Usage=FLASHONLY|Rotation=270.000|XOffset=0mm|YOffset=0mm|HoleType=Round|Shape=RoundedRectangle|*
%AMROUNDEDRECTD35*
21,1,1.00429,0.00000,0,0,270.0*
21,1,0.13216,0.87213,0,0,270.0*
1,1,0.87213,0.00000,-0.06608*
1,1,0.87213,0.00000,0.06608*
1,1,0.87213,0.00000,0.06608*
1,1,0.87213,0.00000,-0.06608*
%
%ADD35ROUNDEDRECTD35*%
%ADD36R,0.50000X0.70000*%
G04:AMPARAMS|DCode=37|XSize=1.00429mm|YSize=3.18213mm|CornerRadius=0.43687mm|HoleSize=0mm|Usage=FLASHONLY|Rotation=270.000|XOffset=0mm|YOffset=0mm|HoleType=Round|Shape=RoundedRectangle|*
%AMROUNDEDRECTD37*
21,1,1.00429,2.30840,0,0,270.0*
21,1,0.13056,3.18213,0,0,270.0*
1,1,0.87373,-1.15420,-0.06528*
1,1,0.87373,-1.15420,0.06528*
1,1,0.87373,1.15420,0.06528*
1,1,0.87373,1.15420,-0.06528*
%
%ADD37ROUNDEDRECTD37*%
%ADD38R,0.35000X0.80000*%
%TA.AperFunction,ConnectorPad*%
%ADD39R,1.55000X1.42500*%
%ADD40R,1.90000X1.00000*%
%ADD41R,1.90000X1.80000*%
%ADD42R,1.30000X1.65000*%
%TA.AperFunction,SMDPad,CuDef*%
%ADD43R,0.85000X0.35000*%
%ADD44R,1.40000X1.00000*%
%ADD45R,0.60000X0.60000*%
%ADD46R,0.71535X0.67248*%
%TA.AperFunction,Conductor*%
%ADD47C,0.75000*%
%ADD48C,0.40000*%
%ADD49C,0.25400*%
%ADD50C,0.25000*%
%ADD51C,0.30000*%
%ADD52C,1.00000*%
%ADD53C,0.22000*%
%ADD54C,0.26017*%
%TA.AperFunction,ComponentPad*%
%ADD55C,0.99100*%
%TA.AperFunction,ViaPad*%
%ADD56C,3.20000*%
%ADD57C,0.60000*%
%ADD58C,0.80000*%
%ADD59C,0.50000*%
%ADD60C,0.70000*%
G36*
X9388265Y6863061D02*
X9390102D01*
Y6862143D01*
X9391939D01*
Y6856633D01*
X9391020D01*
Y6855714D01*
X9390102D01*
Y6854796D01*
X9389184D01*
Y6853878D01*
X9388265D01*
Y6852959D01*
X9386429D01*
Y6852041D01*
X9384592D01*
Y6851122D01*
X9382755D01*
Y6850204D01*
X9378163D01*
Y6852041D01*
X9377245D01*
Y6852959D01*
X9376326D01*
Y6853878D01*
X9374490D01*
Y6854796D01*
X9373571D01*
Y6855714D01*
X9371735D01*
Y6858469D01*
X9372653D01*
Y6859388D01*
X9374490D01*
Y6860306D01*
X9375408D01*
Y6861225D01*
X9377245D01*
Y6862143D01*
X9379082D01*
Y6863061D01*
X9382755D01*
Y6863980D01*
X9388265D01*
Y6863061D01*
D02*
G37*
G36*
X9370816Y6854796D02*
X9371735D01*
Y6853878D01*
X9373571D01*
Y6852959D01*
X9374490D01*
Y6852041D01*
X9375408D01*
Y6851122D01*
X9376326D01*
Y6850204D01*
X9377245D01*
Y6848367D01*
X9378163D01*
Y6845612D01*
X9377245D01*
Y6844694D01*
X9376326D01*
Y6842857D01*
X9375408D01*
Y6839184D01*
X9376326D01*
Y6836429D01*
X9377245D01*
Y6834592D01*
X9378163D01*
Y6832755D01*
X9379082D01*
Y6831837D01*
X9380000D01*
Y6830000D01*
X9380918D01*
Y6829082D01*
X9381837D01*
Y6827245D01*
X9380918D01*
Y6828163D01*
X9380000D01*
Y6829082D01*
X9378163D01*
Y6830000D01*
X9377245D01*
Y6830918D01*
X9376326D01*
Y6831837D01*
X9375408D01*
Y6832755D01*
X9374490D01*
Y6833673D01*
X9373571D01*
Y6834592D01*
X9372653D01*
Y6835510D01*
X9371735D01*
Y6836429D01*
X9370816D01*
Y6838265D01*
X9369898D01*
Y6840102D01*
X9368979D01*
Y6842857D01*
X9368061D01*
Y6852041D01*
X9368979D01*
Y6855714D01*
X9370816D01*
Y6854796D01*
D02*
G37*
G36*
X9397449Y6861225D02*
X9400204D01*
Y6860306D01*
X9402959D01*
Y6859388D01*
X9405714D01*
Y6858469D01*
X9407551D01*
Y6857551D01*
X9409388D01*
Y6856633D01*
X9410306D01*
Y6855714D01*
X9412143D01*
Y6854796D01*
X9413061D01*
Y6853878D01*
X9413980D01*
Y6852959D01*
X9414898D01*
Y6852041D01*
X9415816D01*
Y6851122D01*
X9416735D01*
Y6849286D01*
X9417653D01*
Y6847449D01*
X9418571D01*
Y6844694D01*
X9419490D01*
Y6838265D01*
X9418571D01*
Y6834592D01*
X9417653D01*
Y6832755D01*
X9416735D01*
Y6830918D01*
X9415816D01*
Y6828163D01*
X9414898D01*
Y6827245D01*
X9413980D01*
Y6825408D01*
X9413061D01*
Y6823571D01*
X9412143D01*
Y6821735D01*
X9411225D01*
Y6819898D01*
X9410306D01*
Y6818980D01*
X9409388D01*
Y6817143D01*
X9408469D01*
Y6815306D01*
X9407551D01*
Y6813469D01*
X9406633D01*
Y6812551D01*
X9405714D01*
Y6810714D01*
X9404796D01*
Y6808878D01*
X9403878D01*
Y6807041D01*
X9402959D01*
Y6804286D01*
X9402041D01*
Y6802449D01*
X9401122D01*
Y6799694D01*
X9400204D01*
Y6796020D01*
X9399286D01*
Y6790510D01*
X9398367D01*
Y6777653D01*
X9399286D01*
Y6774898D01*
X9400204D01*
Y6773980D01*
X9401122D01*
Y6772143D01*
X9402041D01*
Y6770306D01*
X9402959D01*
Y6769388D01*
X9407551D01*
Y6770306D01*
X9412143D01*
Y6772143D01*
X9413061D01*
Y6773061D01*
X9413980D01*
Y6774898D01*
X9414898D01*
Y6775816D01*
X9415816D01*
Y6776735D01*
X9416735D01*
Y6778571D01*
X9417653D01*
Y6779490D01*
X9418571D01*
Y6780408D01*
X9419490D01*
Y6783163D01*
X9418571D01*
Y6785918D01*
X9417653D01*
Y6787755D01*
X9416735D01*
Y6789592D01*
X9415816D01*
Y6792347D01*
X9414898D01*
Y6794184D01*
X9413980D01*
Y6796020D01*
X9413061D01*
Y6797857D01*
X9413980D01*
Y6796939D01*
X9414898D01*
Y6795102D01*
X9415816D01*
Y6793265D01*
X9416735D01*
Y6792347D01*
X9417653D01*
Y6790510D01*
X9418571D01*
Y6789592D01*
X9419490D01*
Y6787755D01*
X9420408D01*
Y6786837D01*
X9421327D01*
Y6785000D01*
X9422245D01*
Y6783163D01*
X9423163D01*
Y6782245D01*
X9424081D01*
Y6779490D01*
X9423163D01*
Y6778571D01*
X9422245D01*
Y6776735D01*
X9421327D01*
Y6775816D01*
X9420408D01*
Y6774898D01*
X9419490D01*
Y6773061D01*
X9418571D01*
Y6772143D01*
X9417653D01*
Y6771224D01*
X9416735D01*
Y6769388D01*
X9415816D01*
Y6768469D01*
X9414898D01*
Y6767551D01*
X9413980D01*
Y6766633D01*
X9411225D01*
Y6765714D01*
X9408469D01*
Y6764796D01*
X9407551D01*
Y6763878D01*
X9405714D01*
Y6762959D01*
X9404796D01*
Y6762041D01*
X9405714D01*
Y6756531D01*
X9407551D01*
Y6757449D01*
X9409388D01*
Y6758367D01*
X9411225D01*
Y6759286D01*
X9412143D01*
Y6760204D01*
X9421327D01*
Y6747347D01*
X9420408D01*
Y6756531D01*
X9419490D01*
Y6757449D01*
X9413980D01*
Y6756531D01*
X9413061D01*
Y6755612D01*
X9412143D01*
Y6754694D01*
X9411225D01*
Y6753775D01*
X9410306D01*
Y6752857D01*
X9409388D01*
Y6751939D01*
X9408469D01*
Y6751021D01*
X9406633D01*
Y6750102D01*
X9405714D01*
Y6749184D01*
X9404796D01*
Y6746429D01*
X9403878D01*
Y6744592D01*
X9405714D01*
Y6745510D01*
X9406633D01*
Y6746429D01*
X9408469D01*
Y6747347D01*
X9410306D01*
Y6748265D01*
X9411225D01*
Y6749184D01*
X9413061D01*
Y6748265D01*
X9417653D01*
Y6747347D01*
X9416735D01*
Y6743674D01*
X9415816D01*
Y6740918D01*
X9414898D01*
Y6738163D01*
X9413980D01*
Y6741837D01*
X9414898D01*
Y6746429D01*
X9412143D01*
Y6745510D01*
X9410306D01*
Y6744592D01*
X9409388D01*
Y6743674D01*
X9407551D01*
Y6742755D01*
X9405714D01*
Y6741837D01*
X9404796D01*
Y6740918D01*
X9403878D01*
Y6740000D01*
X9402959D01*
Y6739082D01*
X9402041D01*
Y6737245D01*
X9401122D01*
Y6736327D01*
X9400204D01*
Y6734490D01*
X9401122D01*
Y6733571D01*
X9402041D01*
Y6732653D01*
X9402959D01*
Y6731735D01*
X9403878D01*
Y6730816D01*
X9404796D01*
Y6729898D01*
X9409388D01*
Y6730816D01*
X9413061D01*
Y6731735D01*
X9414898D01*
Y6732653D01*
X9416735D01*
Y6733571D01*
X9418571D01*
Y6734490D01*
X9419490D01*
Y6735408D01*
X9421327D01*
Y6736327D01*
X9422245D01*
Y6737245D01*
X9423163D01*
Y6738163D01*
X9424081D01*
Y6739082D01*
X9425000D01*
Y6740918D01*
X9425918D01*
Y6741837D01*
X9426837D01*
Y6742755D01*
X9427755D01*
Y6744592D01*
X9428674D01*
Y6745510D01*
X9429592D01*
Y6747347D01*
X9430510D01*
Y6749184D01*
X9431428D01*
Y6751939D01*
X9433265D01*
Y6750102D01*
X9434184D01*
Y6749184D01*
X9435102D01*
Y6748265D01*
X9436020D01*
Y6747347D01*
X9436939D01*
Y6746429D01*
X9437857D01*
Y6745510D01*
X9438775D01*
Y6744592D01*
X9439694D01*
Y6743674D01*
X9441531D01*
Y6742755D01*
X9443367D01*
Y6741837D01*
X9445204D01*
Y6738163D01*
X9446122D01*
Y6720714D01*
X9445204D01*
Y6714286D01*
X9444286D01*
Y6708776D01*
X9443367D01*
Y6706020D01*
X9442449D01*
Y6703265D01*
X9441531D01*
Y6700510D01*
X9440612D01*
Y6698673D01*
X9439694D01*
Y6696837D01*
X9438775D01*
Y6695000D01*
X9437857D01*
Y6693163D01*
X9436939D01*
Y6692245D01*
X9436020D01*
Y6691326D01*
X9435102D01*
Y6689490D01*
X9434184D01*
Y6688572D01*
X9433265D01*
Y6687653D01*
X9431428D01*
Y6686735D01*
X9430510D01*
Y6685816D01*
X9428674D01*
Y6684898D01*
X9426837D01*
Y6683980D01*
X9423163D01*
Y6683061D01*
X9414898D01*
Y6683980D01*
X9410306D01*
Y6684898D01*
X9407551D01*
Y6685816D01*
X9405714D01*
Y6686735D01*
X9403878D01*
Y6687653D01*
X9402041D01*
Y6688572D01*
X9408469D01*
Y6689490D01*
X9411225D01*
Y6690408D01*
X9413061D01*
Y6691326D01*
X9414898D01*
Y6692245D01*
X9416735D01*
Y6693163D01*
X9417653D01*
Y6694082D01*
X9418571D01*
Y6695000D01*
X9419490D01*
Y6695919D01*
X9420408D01*
Y6696837D01*
X9421327D01*
Y6697755D01*
X9422245D01*
Y6699592D01*
X9423163D01*
Y6701429D01*
X9424081D01*
Y6707857D01*
X9423163D01*
Y6706020D01*
X9422245D01*
Y6704184D01*
X9413061D01*
Y6703265D01*
X9410306D01*
Y6702347D01*
X9408469D01*
Y6701429D01*
X9406633D01*
Y6700510D01*
X9404796D01*
Y6699592D01*
X9403878D01*
Y6698673D01*
X9402959D01*
Y6697755D01*
X9402041D01*
Y6699592D01*
X9402959D01*
Y6702347D01*
X9403878D01*
Y6704184D01*
X9404796D01*
Y6705102D01*
X9405714D01*
Y6706939D01*
X9406633D01*
Y6707857D01*
X9407551D01*
Y6708776D01*
X9408469D01*
Y6710612D01*
X9410306D01*
Y6712449D01*
X9412143D01*
Y6713367D01*
X9413061D01*
Y6714286D01*
X9413980D01*
Y6715204D01*
X9414898D01*
Y6716122D01*
X9416735D01*
Y6717041D01*
X9418571D01*
Y6717959D01*
X9419490D01*
Y6718878D01*
X9421327D01*
Y6719796D01*
X9423163D01*
Y6720714D01*
X9425000D01*
Y6721633D01*
X9426837D01*
Y6722551D01*
X9429592D01*
Y6723469D01*
X9431428D01*
Y6724388D01*
X9433265D01*
Y6725306D01*
X9434184D01*
Y6726225D01*
X9435102D01*
Y6728061D01*
X9436020D01*
Y6729898D01*
X9436939D01*
Y6736327D01*
X9436020D01*
Y6739082D01*
X9435102D01*
Y6740000D01*
X9434184D01*
Y6740918D01*
X9433265D01*
Y6739082D01*
X9432347D01*
Y6738163D01*
X9431428D01*
Y6736327D01*
X9430510D01*
Y6735408D01*
X9429592D01*
Y6734490D01*
X9428674D01*
Y6733571D01*
X9427755D01*
Y6732653D01*
X9426837D01*
Y6731735D01*
X9425918D01*
Y6730816D01*
X9425000D01*
Y6729898D01*
X9423163D01*
Y6728980D01*
X9422245D01*
Y6728061D01*
X9420408D01*
Y6727143D01*
X9419490D01*
Y6726225D01*
X9416735D01*
Y6725306D01*
X9414898D01*
Y6724388D01*
X9412143D01*
Y6723469D01*
X9408469D01*
Y6722551D01*
X9406633D01*
Y6723469D01*
X9405714D01*
Y6724388D01*
X9404796D01*
Y6725306D01*
X9403878D01*
Y6726225D01*
X9402959D01*
Y6727143D01*
X9402041D01*
Y6728061D01*
X9401122D01*
Y6729898D01*
X9400204D01*
Y6730816D01*
X9398367D01*
Y6728061D01*
X9397449D01*
Y6727143D01*
X9396531D01*
Y6726225D01*
X9395612D01*
Y6725306D01*
X9394694D01*
Y6727143D01*
X9395612D01*
Y6728980D01*
X9396531D01*
Y6731735D01*
X9395612D01*
Y6732653D01*
X9393775D01*
Y6731735D01*
X9392857D01*
Y6730816D01*
X9389184D01*
Y6731735D01*
X9387347D01*
Y6732653D01*
X9386429D01*
Y6731735D01*
X9385510D01*
Y6729898D01*
X9386429D01*
Y6727143D01*
X9387347D01*
Y6725306D01*
X9386429D01*
Y6726225D01*
X9385510D01*
Y6727143D01*
X9384592D01*
Y6728980D01*
X9383673D01*
Y6730816D01*
X9381837D01*
Y6729898D01*
X9380918D01*
Y6728061D01*
X9380000D01*
Y6727143D01*
X9379082D01*
Y6726225D01*
X9378163D01*
Y6725306D01*
X9377245D01*
Y6724388D01*
X9376326D01*
Y6723469D01*
X9375408D01*
Y6722551D01*
X9373571D01*
Y6723469D01*
X9369898D01*
Y6724388D01*
X9367143D01*
Y6725306D01*
X9365306D01*
Y6726225D01*
X9363469D01*
Y6727143D01*
X9361633D01*
Y6728061D01*
X9359796D01*
Y6728980D01*
X9358878D01*
Y6729898D01*
X9357041D01*
Y6730816D01*
X9356123D01*
Y6731735D01*
X9355204D01*
Y6732653D01*
X9354286D01*
Y6733571D01*
X9353367D01*
Y6734490D01*
X9352449D01*
Y6735408D01*
X9351531D01*
Y6736327D01*
X9350612D01*
Y6738163D01*
X9349694D01*
Y6739082D01*
X9348776D01*
Y6740918D01*
X9347857D01*
Y6740000D01*
X9346939D01*
Y6738163D01*
X9346020D01*
Y6736327D01*
X9345102D01*
Y6729898D01*
X9346020D01*
Y6728061D01*
X9346939D01*
Y6726225D01*
X9347857D01*
Y6725306D01*
X9348776D01*
Y6724388D01*
X9350612D01*
Y6723469D01*
X9353367D01*
Y6722551D01*
X9355204D01*
Y6721633D01*
X9357041D01*
Y6720714D01*
X9358878D01*
Y6719796D01*
X9360714D01*
Y6718878D01*
X9362551D01*
Y6717959D01*
X9364388D01*
Y6717041D01*
X9365306D01*
Y6716122D01*
X9367143D01*
Y6715204D01*
X9368061D01*
Y6714286D01*
X9368979D01*
Y6713367D01*
X9369898D01*
Y6712449D01*
X9370816D01*
Y6711531D01*
X9372653D01*
Y6710612D01*
X9373571D01*
Y6708776D01*
X9374490D01*
Y6707857D01*
X9375408D01*
Y6706939D01*
X9376326D01*
Y6705102D01*
X9377245D01*
Y6704184D01*
X9378163D01*
Y6702347D01*
X9379082D01*
Y6699592D01*
X9380000D01*
Y6697755D01*
X9379082D01*
Y6698673D01*
X9378163D01*
Y6699592D01*
X9376326D01*
Y6700510D01*
X9375408D01*
Y6701429D01*
X9374490D01*
Y6702347D01*
X9372653D01*
Y6703265D01*
X9368979D01*
Y6704184D01*
X9359796D01*
Y6706020D01*
X9358878D01*
Y6708776D01*
X9357959D01*
Y6706939D01*
X9357041D01*
Y6706020D01*
X9357959D01*
Y6701429D01*
X9358878D01*
Y6699592D01*
X9359796D01*
Y6697755D01*
X9360714D01*
Y6696837D01*
X9361633D01*
Y6695919D01*
X9362551D01*
Y6695000D01*
X9363469D01*
Y6694082D01*
X9364388D01*
Y6693163D01*
X9365306D01*
Y6692245D01*
X9367143D01*
Y6691326D01*
X9368979D01*
Y6690408D01*
X9370816D01*
Y6689490D01*
X9373571D01*
Y6688572D01*
X9380000D01*
Y6687653D01*
X9379082D01*
Y6686735D01*
X9376326D01*
Y6685816D01*
X9374490D01*
Y6684898D01*
X9371735D01*
Y6683980D01*
X9367143D01*
Y6683061D01*
X9358878D01*
Y6683980D01*
X9355204D01*
Y6684898D01*
X9353367D01*
Y6685816D01*
X9351531D01*
Y6686735D01*
X9350612D01*
Y6687653D01*
X9348776D01*
Y6688572D01*
X9347857D01*
Y6689490D01*
X9346939D01*
Y6691326D01*
X9346020D01*
Y6692245D01*
X9345102D01*
Y6693163D01*
X9344184D01*
Y6695000D01*
X9343265D01*
Y6696837D01*
X9342347D01*
Y6697755D01*
X9341429D01*
Y6700510D01*
X9340510D01*
Y6703265D01*
X9339592D01*
Y6706020D01*
X9338673D01*
Y6709694D01*
X9337755D01*
Y6714286D01*
X9336837D01*
Y6720714D01*
X9335918D01*
Y6738163D01*
X9336837D01*
Y6740918D01*
X9337755D01*
Y6741837D01*
X9338673D01*
Y6742755D01*
X9340510D01*
Y6743674D01*
X9342347D01*
Y6744592D01*
X9343265D01*
Y6745510D01*
X9344184D01*
Y6746429D01*
X9345102D01*
Y6747347D01*
X9346020D01*
Y6748265D01*
X9346939D01*
Y6749184D01*
X9347857D01*
Y6750102D01*
X9348776D01*
Y6751939D01*
X9349694D01*
Y6751021D01*
X9350612D01*
Y6749184D01*
X9351531D01*
Y6747347D01*
X9352449D01*
Y6745510D01*
X9353367D01*
Y6744592D01*
X9354286D01*
Y6742755D01*
X9355204D01*
Y6741837D01*
X9356123D01*
Y6740918D01*
X9357041D01*
Y6739082D01*
X9357959D01*
Y6738163D01*
X9358878D01*
Y6737245D01*
X9359796D01*
Y6736327D01*
X9360714D01*
Y6735408D01*
X9362551D01*
Y6734490D01*
X9363469D01*
Y6733571D01*
X9365306D01*
Y6732653D01*
X9367143D01*
Y6731735D01*
X9368979D01*
Y6730816D01*
X9372653D01*
Y6729898D01*
X9377245D01*
Y6731735D01*
X9378163D01*
Y6732653D01*
X9380000D01*
Y6733571D01*
X9380918D01*
Y6734490D01*
X9381837D01*
Y6736327D01*
X9380918D01*
Y6737245D01*
X9380000D01*
Y6738163D01*
X9379082D01*
Y6740000D01*
X9378163D01*
Y6740918D01*
X9377245D01*
Y6741837D01*
X9376326D01*
Y6742755D01*
X9374490D01*
Y6743674D01*
X9372653D01*
Y6744592D01*
X9371735D01*
Y6745510D01*
X9369898D01*
Y6746429D01*
X9367143D01*
Y6741837D01*
X9368061D01*
Y6738163D01*
X9367143D01*
Y6740918D01*
X9366225D01*
Y6744592D01*
X9365306D01*
Y6747347D01*
X9364388D01*
Y6748265D01*
X9368979D01*
Y6749184D01*
X9369898D01*
Y6748265D01*
X9371735D01*
Y6747347D01*
X9373571D01*
Y6746429D01*
X9374490D01*
Y6745510D01*
X9376326D01*
Y6744592D01*
X9378163D01*
Y6746429D01*
X9377245D01*
Y6749184D01*
X9376326D01*
Y6750102D01*
X9375408D01*
Y6751021D01*
X9374490D01*
Y6751939D01*
X9372653D01*
Y6752857D01*
X9371735D01*
Y6753775D01*
X9370816D01*
Y6754694D01*
X9369898D01*
Y6755612D01*
X9368979D01*
Y6756531D01*
X9368061D01*
Y6757449D01*
X9362551D01*
Y6756531D01*
X9361633D01*
Y6746429D01*
X9360714D01*
Y6760204D01*
X9369898D01*
Y6759286D01*
X9370816D01*
Y6758367D01*
X9372653D01*
Y6757449D01*
X9374490D01*
Y6756531D01*
X9376326D01*
Y6763878D01*
X9374490D01*
Y6764796D01*
X9373571D01*
Y6765714D01*
X9370816D01*
Y6766633D01*
X9368061D01*
Y6767551D01*
X9367143D01*
Y6768469D01*
X9366225D01*
Y6769388D01*
X9365306D01*
Y6771224D01*
X9364388D01*
Y6772143D01*
X9363469D01*
Y6773061D01*
X9362551D01*
Y6773980D01*
X9361633D01*
Y6775816D01*
X9360714D01*
Y6776735D01*
X9359796D01*
Y6778571D01*
X9358878D01*
Y6779490D01*
X9357959D01*
Y6782245D01*
X9358878D01*
Y6783163D01*
X9359796D01*
Y6785000D01*
X9360714D01*
Y6786837D01*
X9361633D01*
Y6787755D01*
X9362551D01*
Y6789592D01*
X9363469D01*
Y6790510D01*
X9364388D01*
Y6792347D01*
X9365306D01*
Y6793265D01*
X9366225D01*
Y6795102D01*
X9367143D01*
Y6796939D01*
X9368061D01*
Y6797857D01*
X9368979D01*
Y6796020D01*
X9368061D01*
Y6794184D01*
X9367143D01*
Y6792347D01*
X9366225D01*
Y6789592D01*
X9365306D01*
Y6787755D01*
X9364388D01*
Y6785000D01*
X9363469D01*
Y6783163D01*
X9362551D01*
Y6780408D01*
X9363469D01*
Y6779490D01*
X9364388D01*
Y6777653D01*
X9365306D01*
Y6776735D01*
X9366225D01*
Y6775816D01*
X9367143D01*
Y6774898D01*
X9368061D01*
Y6773061D01*
X9368979D01*
Y6772143D01*
X9369898D01*
Y6770306D01*
X9374490D01*
Y6769388D01*
X9379082D01*
Y6770306D01*
X9380000D01*
Y6772143D01*
X9380918D01*
Y6773980D01*
X9381837D01*
Y6774898D01*
X9382755D01*
Y6780408D01*
X9383673D01*
Y6787755D01*
X9384592D01*
Y6792347D01*
X9385510D01*
Y6796020D01*
X9386429D01*
Y6798776D01*
X9387347D01*
Y6800612D01*
X9388265D01*
Y6803367D01*
X9389184D01*
Y6805204D01*
X9390102D01*
Y6807041D01*
X9391020D01*
Y6808878D01*
X9391939D01*
Y6810714D01*
X9392857D01*
Y6811633D01*
X9393775D01*
Y6813469D01*
X9394694D01*
Y6814388D01*
X9395612D01*
Y6815306D01*
X9396531D01*
Y6817143D01*
X9397449D01*
Y6818061D01*
X9398367D01*
Y6818980D01*
X9399286D01*
Y6819898D01*
X9400204D01*
Y6820816D01*
X9401122D01*
Y6821735D01*
X9402041D01*
Y6822653D01*
X9402959D01*
Y6823571D01*
X9403878D01*
Y6824490D01*
X9404796D01*
Y6826326D01*
X9405714D01*
Y6827245D01*
X9406633D01*
Y6828163D01*
X9407551D01*
Y6829082D01*
X9408469D01*
Y6830918D01*
X9409388D01*
Y6832755D01*
X9410306D01*
Y6833673D01*
X9411225D01*
Y6836429D01*
X9412143D01*
Y6840102D01*
X9413061D01*
Y6842857D01*
X9412143D01*
Y6846531D01*
X9411225D01*
Y6848367D01*
X9410306D01*
Y6849286D01*
X9409388D01*
Y6850204D01*
X9408469D01*
Y6851122D01*
X9407551D01*
Y6852041D01*
X9405714D01*
Y6852959D01*
X9404796D01*
Y6853878D01*
X9402959D01*
Y6854796D01*
X9400204D01*
Y6855714D01*
X9398367D01*
Y6856633D01*
X9394694D01*
Y6857551D01*
X9393775D01*
Y6862143D01*
X9397449D01*
Y6861225D01*
D02*
G37*
G36*
X9399286Y6886021D02*
X9407551D01*
Y6885102D01*
X9412143D01*
Y6884184D01*
X9416735D01*
Y6883265D01*
X9419490D01*
Y6882347D01*
X9423163D01*
Y6881428D01*
X9425918D01*
Y6880510D01*
X9427755D01*
Y6879592D01*
X9430510D01*
Y6878674D01*
X9432347D01*
Y6877755D01*
X9434184D01*
Y6876837D01*
X9436020D01*
Y6875918D01*
X9437857D01*
Y6875000D01*
X9439694D01*
Y6874082D01*
X9441531D01*
Y6873163D01*
X9443367D01*
Y6872245D01*
X9445204D01*
Y6871327D01*
X9446122D01*
Y6870408D01*
X9447959D01*
Y6869490D01*
X9448877D01*
Y6868571D01*
X9450714D01*
Y6867653D01*
X9451633D01*
Y6866735D01*
X9453469D01*
Y6865816D01*
X9454388D01*
Y6864898D01*
X9455306D01*
Y6863980D01*
X9456224D01*
Y6863061D01*
X9458061D01*
Y6862143D01*
X9458980D01*
Y6861225D01*
X9459898D01*
Y6860306D01*
X9460816D01*
Y6859388D01*
X9461735D01*
Y6858469D01*
X9462653D01*
Y6857551D01*
X9463571D01*
Y6856633D01*
X9464490D01*
Y6855714D01*
X9465408D01*
Y6854796D01*
X9466327D01*
Y6853878D01*
X9467245D01*
Y6852959D01*
X9468163D01*
Y6852041D01*
X9469082D01*
Y6851122D01*
X9470000D01*
Y6850204D01*
X9470918D01*
Y6848367D01*
X9471837D01*
Y6847449D01*
X9472755D01*
Y6846531D01*
X9473673D01*
Y6845612D01*
X9474592D01*
Y6843775D01*
X9475510D01*
Y6842857D01*
X9476429D01*
Y6841939D01*
X9477347D01*
Y6840102D01*
X9478265D01*
Y6839184D01*
X9479184D01*
Y6837347D01*
X9480102D01*
Y6835510D01*
X9481020D01*
Y6834592D01*
X9481939D01*
Y6832755D01*
X9482857D01*
Y6830918D01*
X9483776D01*
Y6829082D01*
X9484694D01*
Y6827245D01*
X9485612D01*
Y6825408D01*
X9486531D01*
Y6822653D01*
X9487449D01*
Y6820816D01*
X9488367D01*
Y6818061D01*
X9489286D01*
Y6815306D01*
X9490204D01*
Y6812551D01*
X9491122D01*
Y6809796D01*
X9492041D01*
Y6806123D01*
X9492959D01*
Y6801531D01*
X9493877D01*
Y6794184D01*
X9494796D01*
Y6770306D01*
X9493877D01*
Y6764796D01*
X9492959D01*
Y6760204D01*
X9492041D01*
Y6755612D01*
X9491122D01*
Y6752857D01*
X9490204D01*
Y6750102D01*
X9489286D01*
Y6747347D01*
X9488367D01*
Y6744592D01*
X9487449D01*
Y6742755D01*
X9486531D01*
Y6740000D01*
X9485612D01*
Y6738163D01*
X9484694D01*
Y6736327D01*
X9483776D01*
Y6734490D01*
X9482857D01*
Y6732653D01*
X9481939D01*
Y6730816D01*
X9481020D01*
Y6729898D01*
X9480102D01*
Y6728061D01*
X9479184D01*
Y6726225D01*
X9478265D01*
Y6725306D01*
X9477347D01*
Y6723469D01*
X9476429D01*
Y6722551D01*
X9475510D01*
Y6721633D01*
X9474592D01*
Y6719796D01*
X9473673D01*
Y6718878D01*
X9472755D01*
Y6717959D01*
X9471837D01*
Y6717041D01*
X9470918D01*
Y6715204D01*
X9470000D01*
Y6714286D01*
X9469082D01*
Y6713367D01*
X9468163D01*
Y6712449D01*
X9467245D01*
Y6711531D01*
X9466327D01*
Y6710612D01*
X9465408D01*
Y6709694D01*
X9464490D01*
Y6708776D01*
X9463571D01*
Y6707857D01*
X9462653D01*
Y6706939D01*
X9461735D01*
Y6706020D01*
X9460816D01*
Y6705102D01*
X9459898D01*
Y6704184D01*
X9458980D01*
Y6703265D01*
X9458061D01*
Y6702347D01*
X9456224D01*
Y6701429D01*
X9455306D01*
Y6700510D01*
X9454388D01*
Y6699592D01*
X9452551D01*
Y6698673D01*
X9451633D01*
Y6697755D01*
X9450714D01*
Y6696837D01*
X9448877D01*
Y6695919D01*
X9447959D01*
Y6695000D01*
X9446122D01*
Y6694082D01*
X9445204D01*
Y6693163D01*
X9443367D01*
Y6692245D01*
X9441531D01*
Y6691326D01*
X9440612D01*
Y6693163D01*
X9441531D01*
Y6695000D01*
X9442449D01*
Y6696837D01*
X9443367D01*
Y6698673D01*
X9444286D01*
Y6700510D01*
X9445204D01*
Y6703265D01*
X9446122D01*
Y6706939D01*
X9447041D01*
Y6708776D01*
X9448877D01*
Y6709694D01*
X9449796D01*
Y6710612D01*
X9450714D01*
Y6711531D01*
X9451633D01*
Y6712449D01*
X9452551D01*
Y6713367D01*
X9453469D01*
Y6714286D01*
X9455306D01*
Y6715204D01*
X9456224D01*
Y6716122D01*
X9457143D01*
Y6717041D01*
X9458061D01*
Y6717959D01*
X9458980D01*
Y6719796D01*
X9459898D01*
Y6720714D01*
X9460816D01*
Y6721633D01*
X9461735D01*
Y6722551D01*
X9462653D01*
Y6723469D01*
X9463571D01*
Y6724388D01*
X9464490D01*
Y6726225D01*
X9465408D01*
Y6727143D01*
X9466327D01*
Y6728061D01*
X9467245D01*
Y6729898D01*
X9468163D01*
Y6730816D01*
X9469082D01*
Y6732653D01*
X9470000D01*
Y6733571D01*
X9470918D01*
Y6735408D01*
X9471837D01*
Y6737245D01*
X9472755D01*
Y6738163D01*
X9473673D01*
Y6740000D01*
X9474592D01*
Y6741837D01*
X9475510D01*
Y6744592D01*
X9476429D01*
Y6746429D01*
X9477347D01*
Y6748265D01*
X9478265D01*
Y6751021D01*
X9479184D01*
Y6753775D01*
X9480102D01*
Y6756531D01*
X9481020D01*
Y6760204D01*
X9481939D01*
Y6763878D01*
X9482857D01*
Y6769388D01*
X9483776D01*
Y6780408D01*
X9484694D01*
Y6785918D01*
X9483776D01*
Y6796939D01*
X9482857D01*
Y6801531D01*
X9481939D01*
Y6805204D01*
X9481020D01*
Y6808878D01*
X9480102D01*
Y6811633D01*
X9479184D01*
Y6814388D01*
X9478265D01*
Y6817143D01*
X9477347D01*
Y6818980D01*
X9476429D01*
Y6820816D01*
X9475510D01*
Y6823571D01*
X9474592D01*
Y6825408D01*
X9473673D01*
Y6827245D01*
X9472755D01*
Y6828163D01*
X9471837D01*
Y6830000D01*
X9470918D01*
Y6831837D01*
X9470000D01*
Y6832755D01*
X9469082D01*
Y6834592D01*
X9468163D01*
Y6835510D01*
X9467245D01*
Y6837347D01*
X9466327D01*
Y6838265D01*
X9465408D01*
Y6840102D01*
X9464490D01*
Y6841020D01*
X9463571D01*
Y6841939D01*
X9462653D01*
Y6842857D01*
X9461735D01*
Y6843775D01*
X9460816D01*
Y6844694D01*
X9459898D01*
Y6846531D01*
X9458980D01*
Y6847449D01*
X9458061D01*
Y6848367D01*
X9457143D01*
Y6849286D01*
X9455306D01*
Y6851122D01*
X9453469D01*
Y6852041D01*
X9452551D01*
Y6852959D01*
X9451633D01*
Y6853878D01*
X9450714D01*
Y6854796D01*
X9449796D01*
Y6855714D01*
X9448877D01*
Y6856633D01*
X9447041D01*
Y6857551D01*
X9446122D01*
Y6858469D01*
X9445204D01*
Y6859388D01*
X9443367D01*
Y6860306D01*
X9442449D01*
Y6861225D01*
X9440612D01*
Y6862143D01*
X9438775D01*
Y6863061D01*
X9437857D01*
Y6863980D01*
X9436020D01*
Y6864898D01*
X9434184D01*
Y6865816D01*
X9432347D01*
Y6866735D01*
X9430510D01*
Y6867653D01*
X9428674D01*
Y6868571D01*
X9426837D01*
Y6869490D01*
X9424081D01*
Y6870408D01*
X9422245D01*
Y6871327D01*
X9418571D01*
Y6872245D01*
X9415816D01*
Y6873163D01*
X9412143D01*
Y6874082D01*
X9407551D01*
Y6875000D01*
X9401122D01*
Y6875918D01*
X9380000D01*
Y6875000D01*
X9374490D01*
Y6874082D01*
X9369898D01*
Y6873163D01*
X9366225D01*
Y6872245D01*
X9363469D01*
Y6871327D01*
X9359796D01*
Y6870408D01*
X9357959D01*
Y6869490D01*
X9355204D01*
Y6868571D01*
X9353367D01*
Y6867653D01*
X9351531D01*
Y6866735D01*
X9349694D01*
Y6865816D01*
X9347857D01*
Y6864898D01*
X9346020D01*
Y6863980D01*
X9344184D01*
Y6863061D01*
X9342347D01*
Y6862143D01*
X9341429D01*
Y6861225D01*
X9339592D01*
Y6860306D01*
X9338673D01*
Y6859388D01*
X9336837D01*
Y6858469D01*
X9335918D01*
Y6857551D01*
X9335000D01*
Y6856633D01*
X9333163D01*
Y6855714D01*
X9332245D01*
Y6854796D01*
X9331327D01*
Y6853878D01*
X9330408D01*
Y6852959D01*
X9329490D01*
Y6852041D01*
X9328571D01*
Y6851122D01*
X9326735D01*
Y6850204D01*
X9325816D01*
Y6849286D01*
X9324898D01*
Y6848367D01*
X9323980D01*
Y6847449D01*
X9323061D01*
Y6846531D01*
X9322143D01*
Y6844694D01*
X9321224D01*
Y6843775D01*
X9320306D01*
Y6842857D01*
X9319388D01*
Y6841939D01*
X9318469D01*
Y6841020D01*
X9317551D01*
Y6839184D01*
X9316633D01*
Y6838265D01*
X9315714D01*
Y6837347D01*
X9314796D01*
Y6835510D01*
X9313877D01*
Y6834592D01*
X9312959D01*
Y6832755D01*
X9312041D01*
Y6831837D01*
X9311122D01*
Y6830000D01*
X9310204D01*
Y6828163D01*
X9309286D01*
Y6827245D01*
X9308367D01*
Y6825408D01*
X9307449D01*
Y6823571D01*
X9306531D01*
Y6821735D01*
X9305612D01*
Y6818980D01*
X9304694D01*
Y6817143D01*
X9303775D01*
Y6814388D01*
X9302857D01*
Y6811633D01*
X9301939D01*
Y6808878D01*
X9301021D01*
Y6805204D01*
X9300102D01*
Y6801531D01*
X9299184D01*
Y6796020D01*
X9298265D01*
Y6785918D01*
X9297347D01*
Y6779490D01*
X9298265D01*
Y6769388D01*
X9299184D01*
Y6763878D01*
X9300102D01*
Y6760204D01*
X9301021D01*
Y6756531D01*
X9301939D01*
Y6753775D01*
X9302857D01*
Y6751021D01*
X9303775D01*
Y6748265D01*
X9304694D01*
Y6746429D01*
X9305612D01*
Y6743674D01*
X9306531D01*
Y6741837D01*
X9307449D01*
Y6740000D01*
X9308367D01*
Y6738163D01*
X9309286D01*
Y6737245D01*
X9310204D01*
Y6735408D01*
X9311122D01*
Y6733571D01*
X9312041D01*
Y6732653D01*
X9312959D01*
Y6730816D01*
X9313877D01*
Y6729898D01*
X9314796D01*
Y6728061D01*
X9315714D01*
Y6727143D01*
X9316633D01*
Y6726225D01*
X9317551D01*
Y6724388D01*
X9318469D01*
Y6723469D01*
X9319388D01*
Y6722551D01*
X9320306D01*
Y6721633D01*
X9321224D01*
Y6720714D01*
X9322143D01*
Y6718878D01*
X9323061D01*
Y6717959D01*
X9323980D01*
Y6717041D01*
X9324898D01*
Y6716122D01*
X9325816D01*
Y6715204D01*
X9326735D01*
Y6714286D01*
X9328571D01*
Y6713367D01*
X9329490D01*
Y6712449D01*
X9330408D01*
Y6711531D01*
X9331327D01*
Y6710612D01*
X9332245D01*
Y6709694D01*
X9333163D01*
Y6708776D01*
X9335000D01*
Y6706939D01*
X9335918D01*
Y6703265D01*
X9336837D01*
Y6700510D01*
X9337755D01*
Y6698673D01*
X9338673D01*
Y6696837D01*
X9339592D01*
Y6695000D01*
X9340510D01*
Y6693163D01*
X9341429D01*
Y6691326D01*
X9340510D01*
Y6692245D01*
X9338673D01*
Y6693163D01*
X9337755D01*
Y6694082D01*
X9335918D01*
Y6695000D01*
X9334082D01*
Y6695919D01*
X9333163D01*
Y6696837D01*
X9331327D01*
Y6697755D01*
X9330408D01*
Y6698673D01*
X9329490D01*
Y6699592D01*
X9327653D01*
Y6700510D01*
X9326735D01*
Y6701429D01*
X9325816D01*
Y6702347D01*
X9323980D01*
Y6703265D01*
X9323061D01*
Y6704184D01*
X9322143D01*
Y6705102D01*
X9321224D01*
Y6706020D01*
X9320306D01*
Y6706939D01*
X9319388D01*
Y6707857D01*
X9318469D01*
Y6708776D01*
X9317551D01*
Y6709694D01*
X9316633D01*
Y6710612D01*
X9315714D01*
Y6711531D01*
X9314796D01*
Y6712449D01*
X9313877D01*
Y6713367D01*
X9312959D01*
Y6714286D01*
X9312041D01*
Y6715204D01*
X9311122D01*
Y6717041D01*
X9310204D01*
Y6717959D01*
X9309286D01*
Y6718878D01*
X9308367D01*
Y6719796D01*
X9307449D01*
Y6721633D01*
X9306531D01*
Y6722551D01*
X9305612D01*
Y6724388D01*
X9304694D01*
Y6725306D01*
X9303775D01*
Y6727143D01*
X9302857D01*
Y6728061D01*
X9301939D01*
Y6729898D01*
X9301021D01*
Y6730816D01*
X9300102D01*
Y6732653D01*
X9299184D01*
Y6734490D01*
X9298265D01*
Y6736327D01*
X9297347D01*
Y6738163D01*
X9296429D01*
Y6740000D01*
X9295510D01*
Y6742755D01*
X9294592D01*
Y6744592D01*
X9293674D01*
Y6747347D01*
X9292755D01*
Y6750102D01*
X9291837D01*
Y6752857D01*
X9290918D01*
Y6755612D01*
X9290000D01*
Y6760204D01*
X9289082D01*
Y6764796D01*
X9288163D01*
Y6770306D01*
X9287245D01*
Y6795102D01*
X9288163D01*
Y6801531D01*
X9289082D01*
Y6806123D01*
X9290000D01*
Y6809796D01*
X9290918D01*
Y6812551D01*
X9291837D01*
Y6815306D01*
X9292755D01*
Y6818061D01*
X9293674D01*
Y6820816D01*
X9294592D01*
Y6822653D01*
X9295510D01*
Y6825408D01*
X9296429D01*
Y6827245D01*
X9297347D01*
Y6829082D01*
X9298265D01*
Y6830918D01*
X9299184D01*
Y6832755D01*
X9300102D01*
Y6833673D01*
X9301021D01*
Y6835510D01*
X9301939D01*
Y6837347D01*
X9302857D01*
Y6839184D01*
X9303775D01*
Y6840102D01*
X9304694D01*
Y6841939D01*
X9305612D01*
Y6842857D01*
X9306531D01*
Y6843775D01*
X9307449D01*
Y6845612D01*
X9308367D01*
Y6846531D01*
X9309286D01*
Y6848367D01*
X9310204D01*
Y6849286D01*
X9311122D01*
Y6850204D01*
X9312041D01*
Y6851122D01*
X9312959D01*
Y6852041D01*
X9313877D01*
Y6852959D01*
X9314796D01*
Y6853878D01*
X9315714D01*
Y6854796D01*
X9316633D01*
Y6855714D01*
X9317551D01*
Y6856633D01*
X9318469D01*
Y6857551D01*
X9319388D01*
Y6858469D01*
X9320306D01*
Y6859388D01*
X9321224D01*
Y6860306D01*
X9322143D01*
Y6861225D01*
X9323061D01*
Y6862143D01*
X9323980D01*
Y6863061D01*
X9325816D01*
Y6863980D01*
X9326735D01*
Y6864898D01*
X9327653D01*
Y6865816D01*
X9328571D01*
Y6866735D01*
X9330408D01*
Y6867653D01*
X9331327D01*
Y6868571D01*
X9333163D01*
Y6869490D01*
X9334082D01*
Y6870408D01*
X9335918D01*
Y6871327D01*
X9336837D01*
Y6872245D01*
X9338673D01*
Y6873163D01*
X9340510D01*
Y6874082D01*
X9342347D01*
Y6875000D01*
X9344184D01*
Y6875918D01*
X9345102D01*
Y6876837D01*
X9346939D01*
Y6877755D01*
X9349694D01*
Y6878674D01*
X9351531D01*
Y6879592D01*
X9354286D01*
Y6880510D01*
X9356123D01*
Y6881428D01*
X9359796D01*
Y6882347D01*
X9362551D01*
Y6883265D01*
X9365306D01*
Y6884184D01*
X9369898D01*
Y6885102D01*
X9374490D01*
Y6886021D01*
X9381837D01*
Y6886939D01*
X9399286D01*
Y6886021D01*
D02*
G37*
G36*
X12502500Y8003750D02*
X12667500D01*
Y7962500D01*
X12658750Y7953750D01*
X12502500D01*
Y7942500D01*
X12380000D01*
Y7835000D01*
X12362500Y7817500D01*
Y7705000D01*
X12362500Y7705000D01*
X12292500D01*
Y7782500D01*
X12282500Y7792500D01*
X12227500D01*
Y7990000D01*
X12225000Y7992500D01*
X12240000Y8007500D01*
X12502500D01*
Y8003750D01*
D02*
G37*
G36*
X12105000Y7710000D02*
X12031250D01*
Y7706250D01*
X12005000Y7680000D01*
X12002500D01*
Y7677500D01*
X11927500Y7602500D01*
X11886250Y7553750D01*
X11750000Y7500000D01*
X11735411Y7485411D01*
X11709713D01*
Y7459713D01*
X11690000Y7440000D01*
Y7272500D01*
X11625000D01*
X11570000Y7217500D01*
X11550000D01*
Y7085000D01*
X11482500Y7017500D01*
X11422500D01*
X11405000Y7035000D01*
Y7150000D01*
X11495000Y7240000D01*
Y7540000D01*
X11687500D01*
X11955000Y7807500D01*
Y7957500D01*
X12105000D01*
Y7710000D01*
D02*
G37*
G36*
X12340539Y7659786D02*
X12355489Y7647036D01*
Y7314511D01*
X12540000Y7130000D01*
Y7000000D01*
X12537911Y6997911D01*
X12456376D01*
Y6990000D01*
X12300000D01*
Y6810000D01*
X12280105Y6790105D01*
X12138345D01*
X12120000Y6808450D01*
Y7030000D01*
X11900000D01*
X11860000Y7070000D01*
Y7240000D01*
X11800000D01*
X11720000Y7320000D01*
Y7441161D01*
X11724133Y7445294D01*
X11728553Y7451910D01*
X11730105Y7459713D01*
Y7465019D01*
X11735411D01*
X11743215Y7466571D01*
X11748346Y7470000D01*
X11930000D01*
X12020000Y7560000D01*
Y7660000D01*
X12340000D01*
X12340539Y7659786D01*
D02*
G37*
G36*
X11877500Y6927500D02*
Y6837500D01*
X11945000Y6770000D01*
X12114589D01*
Y6769713D01*
X12285287D01*
X12305000Y6750000D01*
X12295000Y6740000D01*
Y6710784D01*
X12270584D01*
X12259924Y6724676D01*
X12245302Y6735896D01*
X12228273Y6742949D01*
X12210000Y6745355D01*
X12191726Y6742949D01*
X12174698Y6735896D01*
X12160076Y6724676D01*
X12148855Y6710053D01*
X12141802Y6693025D01*
X12139396Y6674751D01*
Y6572500D01*
X11965000D01*
X11900000Y6507500D01*
Y6455000D01*
X11847500Y6402500D01*
X11845000Y6405000D01*
X11562500D01*
X11562500Y6405000D01*
X11561320Y6400000D01*
X11512500D01*
Y6482500D01*
X11580000Y6550000D01*
Y6909982D01*
X11731455Y7061437D01*
X11742478Y7062522D01*
X11877500Y6927500D01*
D02*
G37*
D10*
X9115000Y8950000D02*
D03*
Y8850000D02*
D03*
X9977500Y7820000D02*
D03*
X9980000Y8165000D02*
D03*
X9115000Y8640000D02*
D03*
X9885000Y8580000D02*
D03*
X12327500Y7635000D02*
D03*
X12047500Y7635000D02*
D03*
X11032500Y8272500D02*
D03*
Y8372500D02*
D03*
X9980000Y8265000D02*
D03*
X9977500Y7720000D02*
D03*
X12047500Y7735000D02*
D03*
X12327500Y7735000D02*
D03*
X9885000Y8680000D02*
D03*
X9115000Y8740000D02*
D03*
D11*
X9500000Y7460000D02*
D03*
X9640000Y7350000D02*
D03*
X9500000D02*
D03*
X9640000Y7460000D02*
D03*
D12*
X9390000Y7690000D02*
D03*
X9750000Y7680000D02*
D03*
X9465000Y8360000D02*
D03*
X10270000Y8570000D02*
D03*
X10760000Y7440000D02*
D03*
X11430000Y9420000D02*
D03*
X10860000Y7440000D02*
D03*
X10170000Y8570000D02*
D03*
X9365000Y8360000D02*
D03*
X9490000Y7690000D02*
D03*
X11530000Y9420000D02*
D03*
X9650000Y7680000D02*
D03*
D13*
X9740000Y8140000D02*
D03*
Y8260000D02*
D03*
D14*
X10162900Y7913300D02*
D03*
X10842900Y8213300D02*
D03*
Y8263300D02*
D03*
X10162900D02*
D03*
Y7863300D02*
D03*
Y8063300D02*
D03*
Y7963300D02*
D03*
X10842900Y8163300D02*
D03*
X10162900Y8213300D02*
D03*
Y8163300D02*
D03*
Y8113300D02*
D03*
Y8013300D02*
D03*
Y7813300D02*
D03*
Y7763300D02*
D03*
Y7713300D02*
D03*
X10842900D02*
D03*
Y7763300D02*
D03*
Y7813300D02*
D03*
Y7863300D02*
D03*
Y7913300D02*
D03*
Y7963300D02*
D03*
Y8013300D02*
D03*
Y8063300D02*
D03*
Y8113300D02*
D03*
D15*
X10502900Y7988300D02*
D03*
D16*
X10277900Y8328300D02*
D03*
X10727900Y7648300D02*
D03*
X10677900D02*
D03*
X10227900Y8328300D02*
D03*
X10777900Y7648300D02*
D03*
X10277900D02*
D03*
X10377900D02*
D03*
X10427900D02*
D03*
X10327900D02*
D03*
X10777900Y8328300D02*
D03*
X10677900D02*
D03*
X10227900Y7648300D02*
D03*
X10477900D02*
D03*
X10527900D02*
D03*
X10577900D02*
D03*
X10627900D02*
D03*
X10727900Y8328300D02*
D03*
X10627900D02*
D03*
X10577900D02*
D03*
X10527900D02*
D03*
X10477900D02*
D03*
X10427900D02*
D03*
X10377900D02*
D03*
X10327900D02*
D03*
D17*
X9297500Y8685000D02*
D03*
Y8835000D02*
D03*
X9692500Y8685000D02*
D03*
X9297500Y8635000D02*
D03*
Y8735000D02*
D03*
D18*
Y8785000D02*
D03*
X9692500Y8635000D02*
D03*
Y8735000D02*
D03*
Y8835000D02*
D03*
Y8885000D02*
D03*
X9297500D02*
D03*
D19*
X9495000Y8760000D02*
D03*
D20*
X9620000Y8560000D02*
D03*
X9420000D02*
D03*
X9570000D02*
D03*
Y8960000D02*
D03*
D21*
X9620000D02*
D03*
D22*
X10805000Y6572500D02*
D03*
X9725000D02*
D03*
D23*
X11919000Y7109500D02*
D03*
D24*
X12210000Y6860000D02*
D03*
Y6674751D02*
D03*
D25*
X12500000Y7027856D02*
D03*
Y6952144D02*
D03*
D26*
X11072144Y7580000D02*
D03*
X10442144Y9000000D02*
D03*
X10717856D02*
D03*
X10517856D02*
D03*
X10642144D02*
D03*
X11147856Y7580000D02*
D03*
D27*
X11800000Y7390000D02*
D03*
X11614751D02*
D03*
D28*
X10430000Y8840000D02*
D03*
Y8740000D02*
D03*
D29*
X12591500Y8241250D02*
D03*
Y8176250D02*
D03*
Y8111250D02*
D03*
Y8046250D02*
D03*
Y7981250D02*
D03*
D30*
X11519000Y8993500D02*
D03*
Y8866500D02*
D03*
X11646000Y8993500D02*
D03*
X11773000Y8866500D02*
D03*
X11646000D02*
D03*
D31*
X10490000Y7440000D02*
D03*
X10610000D02*
D03*
D32*
X11773000Y8993500D02*
D03*
D33*
X10165000Y6347500D02*
D03*
X10365000D02*
D03*
X10565000D02*
D03*
X9965000D02*
D03*
D34*
X11760000Y9410000D02*
D03*
X11660000D02*
D03*
D35*
X11690000Y7109500D02*
D03*
X11461000D02*
D03*
D36*
X12500000Y6670000D02*
D03*
Y6760000D02*
D03*
D37*
X11690000Y6450500D02*
D03*
D38*
X9370000Y8560000D02*
D03*
X9470000D02*
D03*
X9520000D02*
D03*
X9370000Y8960000D02*
D03*
X9420000D02*
D03*
X9470000D02*
D03*
X9520000D02*
D03*
D39*
X12600000Y8360000D02*
D03*
Y7862500D02*
D03*
D40*
X12857500Y8266250D02*
D03*
D41*
Y7996250D02*
D03*
D42*
Y8448750D02*
D03*
Y7773750D02*
D03*
D43*
X9692500Y8785000D02*
D03*
D44*
X12297500Y7895000D02*
D03*
X12037500D02*
D03*
D45*
X11035000Y7760000D02*
D03*
X11145000D02*
D03*
D46*
X9757856Y7880000D02*
D03*
X9662144D02*
D03*
D47*
X11180000Y6470000D02*
X11199500Y6450500D01*
X11410500D01*
X11180000Y6470000D02*
Y6840000D01*
X9285000Y8015000D02*
X9330000Y8060000D01*
X11180000Y6840000D02*
X11427108D01*
X11690000Y7102892D01*
Y7109500D01*
X11180000Y6840000D02*
Y7120000D01*
X11170000Y6090000D02*
X11180000Y6100000D01*
Y6470000D01*
X9110000Y7790000D02*
X9240000Y7920000D01*
Y7970000D01*
X9285000Y8015000D01*
X9900000Y7470000D02*
Y7560000D01*
X9977500Y7637500D01*
X10940000Y7360000D02*
X11180000Y7120000D01*
D48*
X11410500Y6450500D02*
X11690000D01*
X10930000Y9260000D02*
X10940000Y9270000D01*
X9630000Y9260000D02*
X10930000D01*
X9450000Y9080000D02*
X9630000Y9260000D01*
X9340000Y9080000D02*
X9450000D01*
X9300000Y9040000D02*
X9340000Y9080000D01*
X9205000Y9040000D02*
X9300000D01*
X9115000Y8950000D02*
X9205000Y9040000D01*
X10940000Y9270000D02*
Y9400000D01*
X11681568Y9510000D02*
X11747500Y9444068D01*
X11050000Y9510000D02*
X11681568D01*
X10940000Y9400000D02*
X11050000Y9510000D01*
X10788928Y9000000D02*
X10860000D01*
X10717856D02*
X10788928D01*
X10860000D02*
X10940000Y9080000D01*
Y9270000D01*
X11747500Y9422500D02*
Y9444068D01*
Y9422500D02*
X11760000Y9410000D01*
X9285000Y8015000D02*
Y8025000D01*
X9170000Y8140000D02*
X9285000Y8025000D01*
X9270000Y8300000D02*
Y8320000D01*
X9305000Y8355000D01*
X9360000D01*
X9365000Y8360000D01*
X11773000Y8993500D02*
Y9397000D01*
X11760000Y9410000D02*
X11773000Y9397000D01*
X11430000Y9350000D02*
Y9420000D01*
X10165000Y8565000D02*
X10170000Y8570000D01*
X10115000Y8565000D02*
X10165000D01*
X10090000Y8540000D02*
X10115000Y8565000D01*
X10090000Y8440000D02*
Y8540000D01*
X9980000Y8330000D02*
X10090000Y8440000D01*
X9980000Y8265000D02*
Y8330000D01*
X9330000Y8060000D02*
X9451250D01*
X9635000Y8243750D01*
X9723750D01*
X9740000Y8260000D01*
X9686363Y8093864D02*
X9732500Y8140000D01*
X9955000D01*
X9653790Y8093864D02*
X9686363D01*
X9649963Y8090037D02*
X9653790Y8093864D01*
X9977500Y7637500D02*
Y7720000D01*
X10860000Y7440000D02*
X10940000Y7360000D01*
X10800000Y6870000D02*
X10805000Y6865000D01*
Y6572500D02*
Y6865000D01*
X12390000Y7030000D02*
X12392144Y7027856D01*
X11919000Y7109500D02*
X11920000Y7110500D01*
X12322500Y7572500D02*
X12327500Y7577500D01*
X12047500Y7552500D02*
X12050000Y7550000D01*
X12430000Y8240000D02*
X12431250Y8241250D01*
X12591500D01*
X11510000Y9090000D02*
X11511595Y9088405D01*
Y9000905D02*
Y9088405D01*
Y9000905D02*
X11519000Y8993500D01*
X11035000Y8270000D02*
X11080000D01*
X11032500Y8272500D02*
X11035000Y8270000D01*
X11070000Y7520000D02*
Y7577856D01*
X11072144Y7580000D01*
X10760000Y7360000D02*
X10760000Y7360000D01*
Y7440000D01*
X10490000Y7350000D02*
X10490000Y7350000D01*
Y7440000D01*
X9920000Y7820000D02*
X9977500D01*
X9977500Y7820000D01*
X9640000Y7350000D02*
X9710000D01*
X9750000Y7680000D02*
X9810000D01*
X9330000Y7690000D02*
X9390000D01*
X9490000Y7470000D02*
Y7530000D01*
Y7470000D02*
X9500000Y7460000D01*
X9620000Y9090000D02*
X9620000Y9090000D01*
X9620000Y8960000D02*
Y9090000D01*
X9620000Y8480000D02*
Y8560000D01*
X9620000Y8560000D02*
X9620000Y8560000D01*
X9500000Y8395000D02*
Y8400000D01*
X9465000Y8360000D02*
X9500000Y8395000D01*
X9367500Y8517500D02*
X9370000Y8520000D01*
X9367500Y8362500D02*
Y8517500D01*
X9365000Y8360000D02*
X9367500Y8362500D01*
X9370000Y8520000D02*
Y8560000D01*
X9100000Y8600000D02*
X9110000Y8610000D01*
Y8635000D01*
X9115000Y8640000D01*
X9195000Y8882500D02*
Y8896568D01*
X9171568Y8920000D02*
X9195000Y8896568D01*
X9115000Y8950000D02*
X9144999Y8920000D01*
X9171568D01*
X9982500Y7825000D02*
Y7860000D01*
X9955000Y8140000D02*
X9980000Y8165000D01*
X9977500Y7820000D02*
X9982500Y7825000D01*
X10270000Y8570000D02*
X10275000Y8565000D01*
Y8497500D02*
X10277500Y8495000D01*
Y8492500D02*
Y8495000D01*
X10275000Y8497500D02*
Y8565000D01*
X10757500Y7442500D02*
Y7507500D01*
Y7442500D02*
X10760000Y7440000D01*
X11002500Y8242500D02*
X11032500Y8272500D01*
X10982500Y8242500D02*
X11002500D01*
X9120000Y8645000D02*
X9173254D01*
X9115000Y8640000D02*
X9120000Y8645000D01*
X9208254Y8680000D02*
X9209127D01*
X9173254Y8645000D02*
X9208254Y8680000D01*
X12210000Y6674751D02*
X12214751Y6670000D01*
X12500000D01*
X10610000Y7440000D02*
Y7525000D01*
X10997500Y8337500D02*
X11032500Y8372500D01*
X10982500Y8337500D02*
X10997500D01*
X10970000Y8325000D02*
X10982500Y8337500D01*
X10857500Y7442500D02*
X10860000Y7440000D01*
X10857500Y7442500D02*
Y7522500D01*
X10170000Y8457500D02*
Y8570000D01*
X9982500Y8262500D02*
X10067500D01*
X9980000Y8265000D02*
X9982500Y8262500D01*
X10072500Y7720000D02*
X10075000Y7722500D01*
X9977500Y8262500D02*
X9980000Y8265000D01*
X9742500Y8262500D02*
X9977500D01*
X9740000Y8260000D02*
X9742500Y8262500D01*
X9977500Y7720000D02*
X10072500D01*
D49*
X11653000Y9000500D02*
Y9403000D01*
X11646000Y8993500D02*
X11653000Y9000500D01*
X12500000Y6760000D02*
Y6952144D01*
X11530000Y9420000D02*
X11535000Y9415000D01*
X11655000D01*
X11660000Y9410000D01*
X11653000Y9403000D02*
X11660000Y9410000D01*
X10067500Y8263100D02*
X10162700D01*
X10162900Y8263300D01*
D50*
X10277900Y8213300D02*
X10282900Y8208300D01*
X10277900Y8213300D02*
Y8328300D01*
X10427900Y8737900D02*
X10430000Y8740000D01*
X10427900Y8328300D02*
Y8737900D01*
X10377900Y8328300D02*
Y8614600D01*
X10312500Y8680000D02*
X10377900Y8614600D01*
X10477900Y8328300D02*
Y8617900D01*
X10527900Y8328300D02*
Y8506837D01*
X10227900Y8352100D02*
Y8399600D01*
X10150000Y8380000D02*
X10177900Y8352100D01*
X10227900D01*
Y8328300D02*
Y8352100D01*
X10736428Y8947500D02*
X10788928Y9000000D01*
X10736428Y8886428D02*
Y8947500D01*
X10730000Y8880000D02*
X10736428Y8886428D01*
X10360000Y8950000D02*
Y8980000D01*
X10380000Y9000000D01*
X10442144D01*
X10788928D02*
X10870000Y8918928D01*
Y8650000D02*
Y8918928D01*
Y8263300D02*
X10903300D01*
X10819600Y8397500D02*
X10845000D01*
X10907500Y8460000D01*
X11507500D01*
X10677900Y8369440D02*
X10870960Y8562500D01*
X10777900Y8355800D02*
X10819600Y8397500D01*
X10870960Y8562500D02*
X11375000D01*
X11507500Y8460000D02*
X11646000Y8598500D01*
X11375000Y8562500D02*
X11519000Y8706500D01*
X11646000Y8598500D02*
Y8866500D01*
X10870000Y8263300D02*
Y8310000D01*
X10842900Y8263300D02*
X10870000D01*
X10515000Y8997144D02*
X10517856Y9000000D01*
X10515000Y8655000D02*
Y8997144D01*
X10477900Y8617900D02*
X10515000Y8655000D01*
X10642500Y8621437D02*
Y8999644D01*
X10642144Y9000000D02*
X10642500Y8999644D01*
X10527900Y8506837D02*
X10642500Y8621437D01*
X9117500Y8327500D02*
X9225000Y8220000D01*
X9497500D01*
X9117500Y8327500D02*
Y8515000D01*
X9497500Y8220000D02*
X9645000Y8367500D01*
X10157500Y6355000D02*
Y7529613D01*
X10033300Y7913300D02*
X10162900D01*
X10020000Y7900000D02*
X10033300Y7913300D01*
X10755000Y7555000D02*
Y7570000D01*
X10727900Y7597100D02*
Y7648300D01*
Y7597100D02*
X10755000Y7570000D01*
X10277900Y8328300D02*
Y8429600D01*
X10842900Y8213300D02*
X10953300D01*
X10967500Y8227500D01*
X9214126Y8685000D02*
X9297500D01*
X9209127Y8680000D02*
X9214126Y8685000D01*
X9295000Y8632500D02*
X9297500Y8635000D01*
X9235000Y8632500D02*
X9295000D01*
X9117500Y8515000D02*
X9235000Y8632500D01*
X9645000Y8367500D02*
X9912500D01*
X10012500Y8467500D01*
Y8582500D01*
X10110000Y8680000D01*
X10640000Y7562500D02*
X10677900Y7600400D01*
Y7648300D01*
X10644822Y9134822D02*
X10647500Y9137500D01*
X10644822Y9002678D02*
Y9134822D01*
X10642144Y9000000D02*
X10644822Y9002678D01*
X10247500Y9010000D02*
X10250000Y9007500D01*
Y8965000D02*
Y9007500D01*
X10100000Y8815000D02*
X10250000Y8965000D01*
X9915000Y8815000D02*
X10100000D01*
X9895000Y8835000D02*
X9915000Y8815000D01*
X9692500Y8835000D02*
X9895000D01*
X9692500Y8885000D02*
X9877500D01*
X10105000Y9112500D01*
X10503211D01*
X10517856Y9097855D01*
Y9000000D02*
Y9097855D01*
X11146428Y7581428D02*
X11147856Y7580000D01*
X11146428Y7581428D02*
Y7758572D01*
X11145000Y7760000D02*
X11146428Y7758572D01*
X11031700Y7763300D02*
X11035000Y7760000D01*
X10842900Y7763300D02*
X11031700D01*
X10110000Y8680000D02*
X10312500D01*
X11519000Y8706500D02*
Y8866500D01*
X10677900Y8328300D02*
Y8369440D01*
X10777900Y8328300D02*
Y8355800D01*
X11773000Y8490500D02*
Y8866500D01*
X11507500Y8225000D02*
X11773000Y8490500D01*
X11227500Y8225000D02*
X11507500D01*
X10377900Y7537900D02*
Y7648300D01*
X10315000Y7475000D02*
X10377900Y7537900D01*
X10327326Y7567326D02*
Y7647726D01*
X10235000Y7542500D02*
X10277326Y7584826D01*
X10277900Y7620800D02*
Y7648300D01*
X10277326Y7620226D02*
X10277900Y7620800D01*
X10277326Y7584826D02*
Y7620226D01*
X10237500Y7477500D02*
X10327326Y7567326D01*
Y7647726D02*
X10327900Y7648300D01*
X10170387Y7542500D02*
X10235000D01*
X10237500Y7122500D02*
Y7477500D01*
X10315000Y7160000D02*
Y7475000D01*
X10157500Y6355000D02*
X10165000Y6347500D01*
X10157500Y7529613D02*
X10170387Y7542500D01*
X10237500Y7122500D02*
X10368387Y6991612D01*
Y6803250D02*
Y6991612D01*
X10365000Y6347500D02*
Y6799863D01*
X10368387Y6803250D01*
X10565000Y6347500D02*
Y6910000D01*
X10315000Y7160000D02*
X10565000Y6910000D01*
X10121760Y7863300D02*
X10162900D01*
X10090000Y7787500D02*
Y7831540D01*
X10121760Y7863300D01*
X10903300Y8263300D02*
X10920000Y8280000D01*
X10777900Y7620800D02*
X10813700Y7585000D01*
X10777900Y7620800D02*
Y7648300D01*
X10813700Y7585000D02*
X10815000D01*
X11165800Y8163300D02*
X11227500Y8225000D01*
X10842900Y8163300D02*
X11165800D01*
D51*
X10340000Y8830000D02*
X10348118D01*
X10358118Y8840000D02*
X10430000D01*
X10348118Y8830000D02*
X10358118Y8840000D01*
X9885000Y8505001D02*
X9885000Y8505000D01*
X9885000Y8505001D02*
Y8580000D01*
X9080000Y8840000D02*
X9105000D01*
X9115000Y8850000D01*
X9982500Y7860000D02*
Y7862500D01*
X10020000Y7900000D01*
X10277900Y8429600D02*
Y8492100D01*
X9115000Y8850000D02*
X9170000Y8795000D01*
X9197500D01*
X10277500Y8492500D02*
X10277900Y8492100D01*
X10755000Y7510000D02*
X10757500Y7507500D01*
X10755000Y7510000D02*
Y7555000D01*
X10967500Y8227500D02*
X10982500Y8242500D01*
X9297500Y8785000D02*
X9297500Y8785000D01*
X9207500Y8785000D02*
X9297500D01*
X9197500Y8795000D02*
X9207500Y8785000D01*
X9231909Y8735000D02*
X9297500D01*
X9185472D02*
X9185473Y8735000D01*
X9120000Y8735000D02*
X9185472D01*
X9185473Y8735000D02*
X9231908D01*
X9115000Y8740000D02*
X9120000Y8735000D01*
X10610000Y7525000D02*
Y7532500D01*
X10640000Y7562500D01*
X9242500Y8835000D02*
X9297500D01*
X9195000Y8882500D02*
X9242500Y8835000D01*
X9882500Y8682500D02*
X9885000Y8680000D01*
X9697500Y8682500D02*
X9882500D01*
X9695000Y8685000D02*
X9697500Y8682500D01*
X9692500Y8685000D02*
X9695000D01*
X10965000Y8325000D02*
X10970000D01*
X10920000Y8280000D02*
X10965000Y8325000D01*
X10815000Y7585000D02*
X10825272D01*
X10855426Y7554847D01*
Y7524574D02*
Y7554847D01*
Y7524574D02*
X10857500Y7522500D01*
X10170000Y8457500D02*
X10227900Y8399600D01*
X10087500Y7785000D02*
X10090000Y7787500D01*
X10087500Y7735000D02*
Y7785000D01*
X10075000Y7722500D02*
X10087500Y7735000D01*
X9932500Y7925000D02*
X9970800Y7963300D01*
X10162900D01*
D52*
X11170000Y6090000D02*
X11930000D01*
X9965000Y6340000D02*
Y6347500D01*
X9780000Y6340000D02*
X9965000D01*
X10930000Y6090000D02*
X11170000D01*
X9965000Y6347500D02*
Y6985000D01*
X9280000Y7140000D02*
X9900000D01*
X9110000Y7310000D02*
X9280000Y7140000D01*
X9110000Y7310000D02*
Y7790000D01*
X9900000Y7140000D02*
Y7470000D01*
Y7050000D02*
Y7140000D01*
Y7050000D02*
X9965000Y6985000D01*
X11930000Y6090000D02*
X12210000Y6370000D01*
Y6674751D01*
D53*
X9353887Y7379000D02*
X9471000D01*
X9341000Y7391888D02*
X9353887Y7379000D01*
X9341000Y7391888D02*
Y7531000D01*
X9471000Y7379000D02*
X9500000Y7350000D01*
X9526387Y8032500D02*
X9621233D01*
X9675230Y8029037D02*
X9678693Y8032500D01*
X9490000Y7690000D02*
Y7996113D01*
X9678693Y8032500D02*
X9847500D01*
X9624696Y8029037D02*
X9675230D01*
X9621233Y8032500D02*
X9624696Y8029037D01*
X9490000Y7996113D02*
X9526387Y8032500D01*
X9490000Y7630000D02*
Y7690000D01*
X9460000Y7600000D02*
X9490000Y7630000D01*
X9410000Y7600000D02*
X9460000D01*
X9341000Y7531000D02*
X9410000Y7600000D01*
X9722500Y6575000D02*
X9725000Y6572500D01*
X9722500Y6575000D02*
Y6930000D01*
X10430800Y7555000D02*
X10445000D01*
X10427900Y7557900D02*
X10430800Y7555000D01*
X10427900Y7557900D02*
Y7648300D01*
X9640000Y7460000D02*
X9650000Y7470000D01*
Y7680000D01*
Y7867856D01*
X9662144Y7880000D01*
X9757856D02*
X9760356Y7877500D01*
X9825000D01*
X9840000Y7892500D01*
Y7940000D01*
X9913300Y8013300D01*
X10162900D01*
X9847500Y8032500D02*
X9878300Y8063300D01*
X10162900D01*
D54*
X12589450Y8113300D02*
X12591500Y8111250D01*
X10842900Y8113300D02*
X12589450D01*
X10842900Y8063300D02*
X12492441D01*
X12509492Y8046250D01*
X12591500D01*
D55*
X11900000Y8930000D02*
D03*
X11392000Y9031600D02*
D03*
Y8828400D02*
D03*
D56*
X12610000Y9280000D02*
D03*
Y6300000D02*
D03*
X9230000D02*
D03*
Y9280000D02*
D03*
D57*
X11650000Y9310000D02*
D03*
X10150000Y8380000D02*
D03*
X10730000Y8880000D02*
D03*
X10360000Y8950000D02*
D03*
X10870000Y8650000D02*
D03*
Y8310000D02*
D03*
X10340000Y8830000D02*
D03*
X9170000Y8140000D02*
D03*
X9270000Y8300000D02*
D03*
X9780000Y6340000D02*
D03*
X11430000Y9350000D02*
D03*
X9649963Y8090037D02*
D03*
X10800000Y6870000D02*
D03*
X12390000Y7030000D02*
D03*
X12210000Y6990000D02*
D03*
X11920000Y7210000D02*
D03*
X12322500Y7572500D02*
D03*
X12050000Y7550000D02*
D03*
X11980000Y7400000D02*
D03*
X12430000Y8240000D02*
D03*
X11510000Y9090000D02*
D03*
X11080000Y8270000D02*
D03*
X11070000Y7520000D02*
D03*
X10760000Y7360000D02*
D03*
X10490000Y7350000D02*
D03*
X9920000Y7820000D02*
D03*
X9710000Y7350000D02*
D03*
X9810000Y7680000D02*
D03*
X9330000Y7690000D02*
D03*
X9490000Y7530000D02*
D03*
X9885000Y8505000D02*
D03*
X9080000Y8840000D02*
D03*
X9620000Y9090000D02*
D03*
Y8480000D02*
D03*
X9500000Y8400000D02*
D03*
X9100000Y8600000D02*
D03*
X10647500Y9137500D02*
D03*
X10247500Y9010000D02*
D03*
X9722500Y6930000D02*
D03*
X10445000Y7555000D02*
D03*
D58*
X10930000Y6090000D02*
D03*
D59*
X10282900Y7878300D02*
D03*
Y7768300D02*
D03*
Y8208300D02*
D03*
Y8098300D02*
D03*
Y7988300D02*
D03*
X9440000Y8815000D02*
D03*
X9550000Y8705000D02*
D03*
X9440000D02*
D03*
X9550000Y8815000D02*
D03*
X10612900Y7768300D02*
D03*
X10722900D02*
D03*
X10392900D02*
D03*
X10502900D02*
D03*
X10392900Y7878300D02*
D03*
X10502900Y7988300D02*
D03*
X10392900D02*
D03*
X10502900Y8098300D02*
D03*
Y7878300D02*
D03*
X10612900D02*
D03*
Y8098300D02*
D03*
Y7988300D02*
D03*
X10392900Y8208300D02*
D03*
Y8098300D02*
D03*
X10612900Y8208300D02*
D03*
X10502900D02*
D03*
X10722900Y7988300D02*
D03*
Y7878300D02*
D03*
Y8208300D02*
D03*
Y8098300D02*
D03*
D60*
X9932500Y7925000D02*
D03*
%TF.MD5,870d3c8921b86105307d34a08ebc3f87*%
M02*
