%TF.GenerationSoftware,Altium Limited,Altium Designer,26.10.1 (5)*%
G04 Layer_Color=8388736*
G04 Board_Origin=0|0*
%FSLAX45Y45*%
%MOMM*%
%TF.SameCoordinates,5047FA09-4319-4642-AD64-BF5BD6B7FE86*%
%TF.FilePolarity,Negative*%
%TF.FileFunction,Soldermask,Top*%
%TF.Part,Single*%
G01*
G75*
%TA.AperFunction,SMDPad,CuDef*%
%ADD10R,0.50000X0.50000*%
%ADD11R,0.90000X0.80000*%
%ADD12R,0.50000X0.50000*%
%ADD13R,0.90000X0.75000*%
%ADD14O,0.80000X0.25000*%
%ADD15R,5.60000X5.60000*%
%ADD16O,0.25000X0.80000*%
%ADD19R,2.60000X2.70000*%
%ADD20R,0.20000X0.80000*%
%ADD21R,0.30000X0.80000*%
%ADD22R,1.60000X3.00000*%
%ADD23R,0.87213X1.00429*%
%ADD24R,1.50822X1.40574*%
%ADD25R,0.47247X0.51535*%
%ADD26R,0.51535X0.47247*%
%ADD27R,1.40574X1.50822*%
%ADD28R,0.65000X0.65000*%
%TA.AperFunction,ConnectorPad*%
%ADD29R,1.38000X0.45000*%
%TA.AperFunction,SMDPad,CuDef*%
%ADD30C,0.78700*%
%ADD31R,0.75000X0.90000*%
%ADD32C,0.68700*%
%ADD33R,1.00000X5.50000*%
%ADD34R,0.65000X0.65000*%
G04:AMPARAMS|DCode=35|XSize=1.00429mm|YSize=0.87213mm|CornerRadius=0.43606mm|HoleSize=0mm|Usage=FLASHONLY|Rotation=270.000|XOffset=0mm|YOffset=0mm|HoleType=Round|Shape=RoundedRectangle|*
%AMROUNDEDRECTD35*
21,1,1.00429,0.00000,0,0,270.0*
21,1,0.13216,0.87213,0,0,270.0*
1,1,0.87213,0.00000,-0.06608*
1,1,0.87213,0.00000,0.06608*
1,1,0.87213,0.00000,0.06608*
1,1,0.87213,0.00000,-0.06608*
%
%ADD35ROUNDEDRECTD35*%
%ADD36R,0.50000X0.70000*%
G04:AMPARAMS|DCode=37|XSize=1.00429mm|YSize=3.18213mm|CornerRadius=0.43687mm|HoleSize=0mm|Usage=FLASHONLY|Rotation=270.000|XOffset=0mm|YOffset=0mm|HoleType=Round|Shape=RoundedRectangle|*
%AMROUNDEDRECTD37*
21,1,1.00429,2.30840,0,0,270.0*
21,1,0.13056,3.18213,0,0,270.0*
1,1,0.87373,-1.15420,-0.06528*
1,1,0.87373,-1.15420,0.06528*
1,1,0.87373,1.15420,0.06528*
1,1,0.87373,1.15420,-0.06528*
%
%ADD37ROUNDEDRECTD37*%
%ADD38R,0.35000X0.80000*%
%TA.AperFunction,ConnectorPad*%
%ADD39R,1.55000X1.42500*%
%ADD40R,1.90000X1.00000*%
%ADD41R,1.90000X1.80000*%
%ADD42R,1.30000X1.65000*%
%TA.AperFunction,SMDPad,CuDef*%
%ADD44R,1.40000X1.00000*%
%ADD45R,0.60000X0.60000*%
%ADD46R,0.71535X0.67248*%
%TA.AperFunction,ComponentPad*%
%ADD55C,0.99100*%
%TA.AperFunction,ViaPad*%
%ADD56C,3.20000*%
%ADD57C,0.60000*%
%ADD58C,0.80000*%
%ADD59C,0.50000*%
%ADD60C,0.70000*%
%TA.AperFunction,SMDPad,CuDef*%
%ADD64R,1.05320X0.50320*%
%ADD65R,1.05320X0.40320*%
%ADD66R,1.05320X0.55320*%
D10*
X9115000Y8950000D02*
D03*
Y8850000D02*
D03*
X9977500Y7820000D02*
D03*
X9980000Y8165000D02*
D03*
X9115000Y8640000D02*
D03*
X9885000Y8580000D02*
D03*
X12327500Y7635000D02*
D03*
X12047500Y7635000D02*
D03*
X11032500Y8272500D02*
D03*
Y8372500D02*
D03*
X9980000Y8265000D02*
D03*
X9977500Y7720000D02*
D03*
X12047500Y7735000D02*
D03*
X12327500Y7735000D02*
D03*
X9885000Y8680000D02*
D03*
X9115000Y8740000D02*
D03*
D11*
X9500000Y7460000D02*
D03*
X9640000Y7350000D02*
D03*
X9500000D02*
D03*
X9640000Y7460000D02*
D03*
D12*
X9390000Y7690000D02*
D03*
X9750000Y7680000D02*
D03*
X9465000Y8360000D02*
D03*
X10270000Y8570000D02*
D03*
X10760000Y7440000D02*
D03*
X11430000Y9420000D02*
D03*
X10860000Y7440000D02*
D03*
X10170000Y8570000D02*
D03*
X9365000Y8360000D02*
D03*
X9490000Y7690000D02*
D03*
X11530000Y9420000D02*
D03*
X9650000Y7680000D02*
D03*
D13*
X9740000Y8140000D02*
D03*
Y8260000D02*
D03*
D14*
X10162900Y7913300D02*
D03*
X10842900Y8213300D02*
D03*
Y8263300D02*
D03*
X10162900D02*
D03*
Y7863300D02*
D03*
Y8063300D02*
D03*
Y7963300D02*
D03*
X10842900Y8163300D02*
D03*
X10162900Y8213300D02*
D03*
Y8163300D02*
D03*
Y8113300D02*
D03*
Y8013300D02*
D03*
Y7813300D02*
D03*
Y7763300D02*
D03*
Y7713300D02*
D03*
X10842900D02*
D03*
Y7763300D02*
D03*
Y7813300D02*
D03*
Y7863300D02*
D03*
Y7913300D02*
D03*
Y7963300D02*
D03*
Y8013300D02*
D03*
Y8063300D02*
D03*
Y8113300D02*
D03*
D15*
X10502900Y7988300D02*
D03*
D16*
X10277900Y8328300D02*
D03*
X10727900Y7648300D02*
D03*
X10677900D02*
D03*
X10227900Y8328300D02*
D03*
X10777900Y7648300D02*
D03*
X10277900D02*
D03*
X10377900D02*
D03*
X10427900D02*
D03*
X10327900D02*
D03*
X10777900Y8328300D02*
D03*
X10677900D02*
D03*
X10227900Y7648300D02*
D03*
X10477900D02*
D03*
X10527900D02*
D03*
X10577900D02*
D03*
X10627900D02*
D03*
X10727900Y8328300D02*
D03*
X10627900D02*
D03*
X10577900D02*
D03*
X10527900D02*
D03*
X10477900D02*
D03*
X10427900D02*
D03*
X10377900D02*
D03*
X10327900D02*
D03*
D19*
X9495000Y8760000D02*
D03*
D20*
X9620000Y8560000D02*
D03*
X9420000D02*
D03*
X9570000D02*
D03*
Y8960000D02*
D03*
D21*
X9620000D02*
D03*
D22*
X10805000Y6572500D02*
D03*
X9725000D02*
D03*
D23*
X11919000Y7109500D02*
D03*
D24*
X12210000Y6860000D02*
D03*
Y6674751D02*
D03*
D25*
X12500000Y7027856D02*
D03*
Y6952144D02*
D03*
D26*
X11072144Y7580000D02*
D03*
X10442144Y9000000D02*
D03*
X10717856D02*
D03*
X10517856D02*
D03*
X10642144D02*
D03*
X11147856Y7580000D02*
D03*
D27*
X11800000Y7390000D02*
D03*
X11614751D02*
D03*
D28*
X10430000Y8840000D02*
D03*
Y8740000D02*
D03*
D29*
X12591500Y8241250D02*
D03*
Y8176250D02*
D03*
Y8111250D02*
D03*
Y8046250D02*
D03*
Y7981250D02*
D03*
D30*
X11519000Y8993500D02*
D03*
Y8866500D02*
D03*
X11646000Y8993500D02*
D03*
X11773000Y8866500D02*
D03*
X11646000D02*
D03*
D31*
X10490000Y7440000D02*
D03*
X10610000D02*
D03*
D32*
X11773000Y8993500D02*
D03*
D33*
X10165000Y6347500D02*
D03*
X10365000D02*
D03*
X10565000D02*
D03*
X9965000D02*
D03*
D34*
X11760000Y9410000D02*
D03*
X11660000D02*
D03*
D35*
X11690000Y7109500D02*
D03*
X11461000D02*
D03*
D36*
X12500000Y6670000D02*
D03*
Y6760000D02*
D03*
D37*
X11690000Y6450500D02*
D03*
D38*
X9370000Y8560000D02*
D03*
X9470000D02*
D03*
X9520000D02*
D03*
X9370000Y8960000D02*
D03*
X9420000D02*
D03*
X9470000D02*
D03*
X9520000D02*
D03*
D39*
X12600000Y8360000D02*
D03*
Y7862500D02*
D03*
D40*
X12857500Y8266250D02*
D03*
D41*
Y7996250D02*
D03*
D42*
Y8448750D02*
D03*
Y7773750D02*
D03*
D44*
X12297500Y7895000D02*
D03*
X12037500D02*
D03*
D45*
X11035000Y7760000D02*
D03*
X11145000D02*
D03*
D46*
X9757856Y7880000D02*
D03*
X9662144D02*
D03*
D55*
X11900000Y8930000D02*
D03*
X11392000Y9031600D02*
D03*
Y8828400D02*
D03*
D56*
X12610000Y9280000D02*
D03*
Y6300000D02*
D03*
X9230000D02*
D03*
Y9280000D02*
D03*
D57*
X11650000Y9310000D02*
D03*
X10150000Y8380000D02*
D03*
X10730000Y8880000D02*
D03*
X10360000Y8950000D02*
D03*
X10870000Y8650000D02*
D03*
Y8310000D02*
D03*
X10340000Y8830000D02*
D03*
X9170000Y8140000D02*
D03*
X9270000Y8300000D02*
D03*
X9780000Y6340000D02*
D03*
X11430000Y9350000D02*
D03*
X9649963Y8090037D02*
D03*
X10800000Y6870000D02*
D03*
X12390000Y7030000D02*
D03*
X12210000Y6990000D02*
D03*
X11920000Y7210000D02*
D03*
X12322500Y7572500D02*
D03*
X12050000Y7550000D02*
D03*
X11980000Y7400000D02*
D03*
X12430000Y8240000D02*
D03*
X11510000Y9090000D02*
D03*
X11080000Y8270000D02*
D03*
X11070000Y7520000D02*
D03*
X10760000Y7360000D02*
D03*
X10490000Y7350000D02*
D03*
X9920000Y7820000D02*
D03*
X9710000Y7350000D02*
D03*
X9810000Y7680000D02*
D03*
X9330000Y7690000D02*
D03*
X9490000Y7530000D02*
D03*
X9885000Y8505000D02*
D03*
X9080000Y8840000D02*
D03*
X9620000Y9090000D02*
D03*
Y8480000D02*
D03*
X9500000Y8400000D02*
D03*
X9100000Y8600000D02*
D03*
X10647500Y9137500D02*
D03*
X10247500Y9010000D02*
D03*
X9722500Y6930000D02*
D03*
X10445000Y7555000D02*
D03*
D58*
X10930000Y6090000D02*
D03*
D59*
X10282900Y7878300D02*
D03*
Y7768300D02*
D03*
Y8208300D02*
D03*
Y8098300D02*
D03*
Y7988300D02*
D03*
X9440000Y8815000D02*
D03*
X9550000Y8705000D02*
D03*
X9440000D02*
D03*
X9550000Y8815000D02*
D03*
X10612900Y7768300D02*
D03*
X10722900D02*
D03*
X10392900D02*
D03*
X10502900D02*
D03*
X10392900Y7878300D02*
D03*
X10502900Y7988300D02*
D03*
X10392900D02*
D03*
X10502900Y8098300D02*
D03*
Y7878300D02*
D03*
X10612900D02*
D03*
Y8098300D02*
D03*
Y7988300D02*
D03*
X10392900Y8208300D02*
D03*
Y8098300D02*
D03*
X10612900Y8208300D02*
D03*
X10502900D02*
D03*
X10722900Y7988300D02*
D03*
Y7878300D02*
D03*
Y8208300D02*
D03*
Y8098300D02*
D03*
D60*
X9932500Y7925000D02*
D03*
D64*
X9297500Y8685000D02*
D03*
Y8835000D02*
D03*
X9692500Y8685000D02*
D03*
X9297500Y8635000D02*
D03*
Y8735000D02*
D03*
D65*
Y8785000D02*
D03*
X9692500Y8635000D02*
D03*
Y8735000D02*
D03*
Y8835000D02*
D03*
Y8885000D02*
D03*
X9297500D02*
D03*
D66*
X9692500Y8785000D02*
D03*
%TF.MD5,4712e7e255cb2ef018f555f81c047e41*%
M02*
