%TF.GenerationSoftware,Altium Limited,Altium Designer,26.10.1 (5)*%
G04 Layer_Physical_Order=2*
G04 Layer_Color=36540*
G04 Board_Origin=0|0*
%FSLAX45Y45*%
%MOMM*%
%TF.SameCoordinates,5047FA09-4319-4642-AD64-BF5BD6B7FE86*%
%TF.FilePolarity,Positive*%
%TF.FileFunction,Copper,L2,Inr,Signal*%
%TF.Part,Single*%
G01*
G75*
%TA.AperFunction,Conductor*%
%ADD49C,0.25400*%
%TA.AperFunction,ComponentPad*%
%ADD55C,0.99100*%
%TA.AperFunction,ViaPad*%
%ADD56C,3.20000*%
%ADD57C,0.60000*%
%ADD58C,0.80000*%
%ADD59C,0.50000*%
%ADD60C,0.70000*%
G36*
X12708434Y9540722D02*
X12752370Y9522522D01*
X12791767Y9496197D01*
X12808723Y9479286D01*
X12808723Y9479285D01*
X12825676Y9462338D01*
X12863618Y9424394D01*
X12881310Y9406705D01*
X12909106Y9365103D01*
X12928253Y9318878D01*
X12938013Y9269805D01*
X12938011Y9244788D01*
X12938010Y9244788D01*
X12938016Y9244785D01*
X12938014Y6155210D01*
X12926840Y6138712D01*
X12898483Y6110710D01*
X12865207Y6088780D01*
X12833130Y6075731D01*
X12808725Y6070000D01*
X11005160Y6048292D01*
X10988104Y6073488D01*
X10990000Y6078065D01*
Y6101935D01*
X10980866Y6123987D01*
X10963987Y6140866D01*
X10941935Y6150000D01*
X10918065D01*
X10896013Y6140866D01*
X10879134Y6123987D01*
X10870000Y6101935D01*
Y6078065D01*
X10872472Y6072097D01*
X10855585Y6046492D01*
X9469027Y6029803D01*
X9451994Y6021029D01*
X9415662Y6008850D01*
X9377904Y6002320D01*
X9339592Y6001590D01*
X9301612Y6006676D01*
X9264842Y6017461D01*
X9230132Y6033697D01*
X9198285Y6055006D01*
X9170037Y6080897D01*
X9146040Y6110772D01*
X9144760Y6112984D01*
X9162434Y6133157D01*
X9177496Y6126917D01*
X9212272Y6120000D01*
X9247729D01*
X9282504Y6126917D01*
X9315262Y6140486D01*
X9344743Y6160185D01*
X9369815Y6185257D01*
X9389514Y6214738D01*
X9403083Y6247496D01*
X9410000Y6282272D01*
Y6317729D01*
X9403083Y6352504D01*
X9389514Y6385262D01*
X9369815Y6414743D01*
X9344743Y6439815D01*
X9315262Y6459514D01*
X9282504Y6473083D01*
X9247729Y6480000D01*
X9212272D01*
X9177496Y6473083D01*
X9144738Y6459514D01*
X9115257Y6439815D01*
X9090185Y6414743D01*
X9070486Y6385262D01*
X9063414Y6368189D01*
X9038014Y6373242D01*
Y9206758D01*
X9063414Y9211811D01*
X9070486Y9194738D01*
X9090185Y9165257D01*
X9115257Y9140185D01*
X9144738Y9120486D01*
X9177496Y9106917D01*
X9212272Y9100000D01*
X9247729D01*
X9282504Y9106917D01*
X9315262Y9120486D01*
X9344743Y9140185D01*
X9369815Y9165257D01*
X9389514Y9194738D01*
X9403083Y9227496D01*
X9410000Y9262272D01*
Y9297728D01*
X9403083Y9332504D01*
X9389514Y9365262D01*
X9369815Y9394743D01*
X9344743Y9419815D01*
X9315262Y9439514D01*
X9282504Y9453083D01*
X9247729Y9460000D01*
X9212272D01*
X9177496Y9453083D01*
X9176680Y9452745D01*
X9162292Y9474278D01*
X9181309Y9493294D01*
X9222910Y9521091D01*
X9269134Y9540237D01*
X9318206Y9549997D01*
X9343223Y9549996D01*
X9343225Y9550000D01*
X12638014Y9549999D01*
X12661792Y9550000D01*
X12708434Y9540722D01*
D02*
G37*
%LPC*%
G36*
X11659946Y9360000D02*
X11640054D01*
X11621677Y9352388D01*
X11607612Y9338323D01*
X11600000Y9319946D01*
Y9300054D01*
X11607612Y9281677D01*
X11621677Y9267612D01*
X11640054Y9260000D01*
X11659946D01*
X11678323Y9267612D01*
X11692388Y9281677D01*
X11700000Y9300054D01*
Y9319946D01*
X11692388Y9338323D01*
X11678323Y9352388D01*
X11659946Y9360000D01*
D02*
G37*
G36*
X12627728Y9460000D02*
X12592271D01*
X12557496Y9453083D01*
X12524738Y9439514D01*
X12495257Y9419815D01*
X12470185Y9394743D01*
X12450486Y9365262D01*
X12436917Y9332504D01*
X12430000Y9297728D01*
Y9262272D01*
X12436917Y9227496D01*
X12450486Y9194738D01*
X12470185Y9165257D01*
X12495257Y9140185D01*
X12524738Y9120486D01*
X12557496Y9106917D01*
X12592271Y9100000D01*
X12627728D01*
X12662504Y9106917D01*
X12695262Y9120486D01*
X12724743Y9140185D01*
X12749815Y9165257D01*
X12769514Y9194738D01*
X12783083Y9227496D01*
X12790000Y9262272D01*
Y9297728D01*
X12783083Y9332504D01*
X12769514Y9365262D01*
X12749815Y9394743D01*
X12724743Y9419815D01*
X12695262Y9439514D01*
X12662504Y9453083D01*
X12627728Y9460000D01*
D02*
G37*
G36*
X10657446Y9187500D02*
X10637554D01*
X10619177Y9179888D01*
X10605112Y9165823D01*
X10597500Y9147446D01*
Y9127554D01*
X10605112Y9109177D01*
X10619177Y9095112D01*
X10637554Y9087500D01*
X10657446D01*
X10675823Y9095112D01*
X10689888Y9109177D01*
X10697500Y9127554D01*
Y9147446D01*
X10689888Y9165823D01*
X10675823Y9179888D01*
X10657446Y9187500D01*
D02*
G37*
G36*
X11733650Y9013892D02*
X11685350D01*
X11682411Y9013307D01*
X11679431Y9013014D01*
X11678539Y9012537D01*
X11677546Y9012340D01*
X11675055Y9010675D01*
X11672414Y9009263D01*
X11671772Y9008481D01*
X11670931Y9007919D01*
X11669266Y9005427D01*
X11667366Y9003113D01*
X11667073Y9002145D01*
X11666510Y9001304D01*
X11665926Y8998364D01*
X11665056Y8995499D01*
X11664597Y8990833D01*
X11661431Y8983189D01*
X11659690Y8981448D01*
X11632310Y8981448D01*
X11630569Y8983189D01*
X11627403Y8990832D01*
X11626944Y8995498D01*
X11626074Y8998365D01*
X11625490Y9001304D01*
X11624928Y9002145D01*
X11624634Y9003112D01*
X11622734Y9005428D01*
X11621069Y9007919D01*
X11620229Y9008481D01*
X11619587Y9009263D01*
X11616944Y9010676D01*
X11614454Y9012340D01*
X11613462Y9012537D01*
X11612570Y9013014D01*
X11609587Y9013308D01*
X11606650Y9013892D01*
X11558350Y9013892D01*
X11555410Y9013307D01*
X11552430Y9013013D01*
X11551538Y9012537D01*
X11550546Y9012339D01*
X11548054Y9010674D01*
X11545413Y9009262D01*
X11544772Y9008481D01*
X11543931Y9007919D01*
X11542265Y9005427D01*
X11540366Y9003112D01*
X11540072Y9002145D01*
X11539510Y9001303D01*
X11538926Y8998365D01*
X11538056Y8995498D01*
X11537597Y8990831D01*
X11534431Y8983189D01*
X11529311Y8978069D01*
X11521668Y8974903D01*
X11517002Y8974444D01*
X11514135Y8973574D01*
X11511196Y8972989D01*
X11510355Y8972427D01*
X11509388Y8972134D01*
X11507072Y8970234D01*
X11504581Y8968569D01*
X11504019Y8967728D01*
X11503237Y8967087D01*
X11501824Y8964444D01*
X11500160Y8961953D01*
X11499963Y8960962D01*
X11499486Y8960070D01*
X11499192Y8957087D01*
X11498608Y8954150D01*
Y8905850D01*
X11499193Y8902910D01*
X11499487Y8899930D01*
X11499963Y8899038D01*
X11500160Y8898046D01*
X11501826Y8895554D01*
X11503237Y8892913D01*
X11504019Y8892272D01*
X11504581Y8891431D01*
X11507073Y8889765D01*
X11509388Y8887866D01*
X11510355Y8887572D01*
X11511196Y8887010D01*
X11514135Y8886426D01*
X11517002Y8885556D01*
X11521668Y8885097D01*
X11529311Y8881931D01*
X11534431Y8876811D01*
X11537597Y8869168D01*
X11538056Y8864502D01*
X11538926Y8861635D01*
X11539510Y8858696D01*
X11540072Y8857855D01*
X11540366Y8856888D01*
X11542266Y8854572D01*
X11543931Y8852081D01*
X11544771Y8851519D01*
X11545413Y8850737D01*
X11548056Y8849324D01*
X11550546Y8847660D01*
X11551538Y8847463D01*
X11552430Y8846986D01*
X11555413Y8846692D01*
X11558350Y8846108D01*
X11606650D01*
X11609588Y8846692D01*
X11612570Y8846986D01*
X11613462Y8847463D01*
X11614454Y8847660D01*
X11616944Y8849324D01*
X11619587Y8850737D01*
X11620229Y8851519D01*
X11621069Y8852081D01*
X11622734Y8854572D01*
X11624634Y8856888D01*
X11624928Y8857855D01*
X11625490Y8858696D01*
X11626074Y8861635D01*
X11626944Y8864502D01*
X11627403Y8869168D01*
X11630569Y8876811D01*
X11632310Y8878552D01*
X11659690Y8878551D01*
X11661431Y8876810D01*
X11664597Y8869167D01*
X11665056Y8864501D01*
X11665926Y8861635D01*
X11666510Y8858696D01*
X11667072Y8857855D01*
X11667366Y8856887D01*
X11669266Y8854572D01*
X11670931Y8852081D01*
X11671772Y8851518D01*
X11672414Y8850737D01*
X11675055Y8849325D01*
X11677546Y8847660D01*
X11678539Y8847463D01*
X11679431Y8846986D01*
X11682411Y8846693D01*
X11685350Y8846108D01*
X11733650D01*
X11736590Y8846693D01*
X11739570Y8846986D01*
X11740461Y8847463D01*
X11741454Y8847660D01*
X11743946Y8849325D01*
X11746587Y8850737D01*
X11747228Y8851518D01*
X11748069Y8852081D01*
X11749734Y8854573D01*
X11751634Y8856888D01*
X11751927Y8857855D01*
X11752490Y8858696D01*
X11753074Y8861635D01*
X11753944Y8864502D01*
X11754403Y8869168D01*
X11757569Y8876811D01*
X11762689Y8881931D01*
X11770332Y8885097D01*
X11774998Y8885556D01*
X11777864Y8886425D01*
X11780804Y8887010D01*
X11781645Y8887572D01*
X11782612Y8887866D01*
X11784926Y8889765D01*
X11787419Y8891431D01*
X11787982Y8892272D01*
X11788763Y8892913D01*
X11790175Y8895554D01*
X11791840Y8898046D01*
X11792037Y8899038D01*
X11792514Y8899930D01*
X11792807Y8902910D01*
X11793392Y8905850D01*
X11793392Y8954150D01*
X11792807Y8957090D01*
X11792513Y8960070D01*
X11792037Y8960961D01*
X11791840Y8961953D01*
X11790174Y8964445D01*
X11788763Y8967087D01*
X11787981Y8967728D01*
X11787419Y8968569D01*
X11784927Y8970234D01*
X11782612Y8972134D01*
X11781645Y8972427D01*
X11780803Y8972989D01*
X11777865Y8973574D01*
X11774998Y8974444D01*
X11770332Y8974903D01*
X11762689Y8978069D01*
X11757569Y8983189D01*
X11754403Y8990831D01*
X11753944Y8995498D01*
X11753075Y8998362D01*
X11752490Y9001304D01*
X11751927Y9002146D01*
X11751634Y9003112D01*
X11749736Y9005424D01*
X11748069Y9007919D01*
X11747228Y9008482D01*
X11746587Y9009263D01*
X11743947Y9010674D01*
X11741454Y9012340D01*
X11740461Y9012537D01*
X11739570Y9013013D01*
X11736590Y9013307D01*
X11733650Y9013892D01*
D02*
G37*
G36*
X11401157Y9101150D02*
X11382844D01*
X11365155Y9096410D01*
X11349296Y9087254D01*
X11336346Y9074304D01*
X11327190Y9058445D01*
X11322450Y9040756D01*
Y9022443D01*
X11327190Y9004755D01*
X11336346Y8988895D01*
X11349296Y8975946D01*
X11365155Y8966790D01*
X11382844Y8962050D01*
X11401157D01*
X11418845Y8966790D01*
X11434705Y8975946D01*
X11447654Y8988895D01*
X11456810Y9004755D01*
X11461550Y9022443D01*
Y9040756D01*
X11456810Y9058445D01*
X11447654Y9074304D01*
X11434705Y9087254D01*
X11418845Y9096410D01*
X11401157Y9101150D01*
D02*
G37*
G36*
X10257446Y9060000D02*
X10237554D01*
X10219177Y9052388D01*
X10205112Y9038323D01*
X10197500Y9019946D01*
Y9000054D01*
X10205112Y8981677D01*
X10219177Y8967612D01*
X10237554Y8960000D01*
X10257446D01*
X10275823Y8967612D01*
X10289888Y8981677D01*
X10297500Y9000054D01*
Y9019946D01*
X10289888Y9038323D01*
X10275823Y9052388D01*
X10257446Y9060000D01*
D02*
G37*
G36*
X10369946Y9000000D02*
X10350054D01*
X10331677Y8992388D01*
X10317612Y8978323D01*
X10310000Y8959946D01*
Y8940054D01*
X10317612Y8921677D01*
X10331677Y8907612D01*
X10350054Y8900000D01*
X10369946D01*
X10388323Y8907612D01*
X10402388Y8921677D01*
X10410000Y8940054D01*
Y8959946D01*
X10402388Y8978323D01*
X10388323Y8992388D01*
X10369946Y9000000D01*
D02*
G37*
G36*
X11909157Y8999550D02*
X11890844D01*
X11873155Y8994810D01*
X11857296Y8985654D01*
X11844346Y8972704D01*
X11835190Y8956845D01*
X11830450Y8939156D01*
Y8920843D01*
X11835190Y8903155D01*
X11844346Y8887295D01*
X11857296Y8874346D01*
X11873155Y8865190D01*
X11890844Y8860450D01*
X11909157D01*
X11926845Y8865190D01*
X11942705Y8874346D01*
X11955654Y8887295D01*
X11964810Y8903155D01*
X11969550Y8920843D01*
Y8939156D01*
X11964810Y8956845D01*
X11955654Y8972704D01*
X11942705Y8985654D01*
X11926845Y8994810D01*
X11909157Y8999550D01*
D02*
G37*
G36*
X10739946Y8930000D02*
X10720055D01*
X10701677Y8922388D01*
X10687612Y8908323D01*
X10680000Y8889946D01*
Y8870054D01*
X10687612Y8851677D01*
X10701677Y8837612D01*
X10720055Y8830000D01*
X10739946D01*
X10758323Y8837612D01*
X10772388Y8851677D01*
X10780000Y8870054D01*
Y8889946D01*
X10772388Y8908323D01*
X10758323Y8922388D01*
X10739946Y8930000D01*
D02*
G37*
G36*
X11401157Y8897950D02*
X11382844D01*
X11365155Y8893210D01*
X11349296Y8884054D01*
X11336346Y8871104D01*
X11327190Y8855245D01*
X11322450Y8837556D01*
Y8819243D01*
X11327190Y8801555D01*
X11336346Y8785695D01*
X11349296Y8772746D01*
X11365155Y8763590D01*
X11382844Y8758850D01*
X11401157D01*
X11418845Y8763590D01*
X11434705Y8772746D01*
X11447654Y8785695D01*
X11456810Y8801555D01*
X11461550Y8819243D01*
Y8837556D01*
X11456810Y8855245D01*
X11447654Y8871104D01*
X11434705Y8884054D01*
X11418845Y8893210D01*
X11401157Y8897950D01*
D02*
G37*
G36*
X10879946Y8700000D02*
X10860054D01*
X10841677Y8692388D01*
X10827612Y8678323D01*
X10820000Y8659946D01*
Y8640054D01*
X10827612Y8621677D01*
X10841677Y8607612D01*
X10860054Y8600000D01*
X10879946D01*
X10898323Y8607612D01*
X10912388Y8621677D01*
X10920000Y8640054D01*
Y8659946D01*
X10912388Y8678323D01*
X10898323Y8692388D01*
X10879946Y8700000D01*
D02*
G37*
G36*
X10159946Y8430000D02*
X10140054D01*
X10121677Y8422388D01*
X10107612Y8408323D01*
X10100000Y8389946D01*
Y8370054D01*
X10107612Y8351677D01*
X10121677Y8337612D01*
X10140054Y8330000D01*
X10159946D01*
X10178323Y8337612D01*
X10192388Y8351677D01*
X10200000Y8370054D01*
Y8389946D01*
X10192388Y8408323D01*
X10178323Y8422388D01*
X10159946Y8430000D01*
D02*
G37*
G36*
X10879946Y8360000D02*
X10860054D01*
X10841677Y8352388D01*
X10827612Y8338323D01*
X10820000Y8319946D01*
Y8300054D01*
X10827612Y8281677D01*
X10841677Y8267612D01*
X10860054Y8260000D01*
X10879946D01*
X10898323Y8267612D01*
X10912388Y8281677D01*
X10920000Y8300054D01*
Y8319946D01*
X10912388Y8338323D01*
X10898323Y8352388D01*
X10879946Y8360000D01*
D02*
G37*
G36*
X9279946Y8350000D02*
X9260054D01*
X9241677Y8342388D01*
X9227612Y8328323D01*
X9220000Y8309946D01*
Y8290054D01*
X9227612Y8271677D01*
X9241677Y8257612D01*
X9260054Y8250000D01*
X9279946D01*
X9298323Y8257612D01*
X9312388Y8271677D01*
X9320000Y8290054D01*
Y8309946D01*
X9312388Y8328323D01*
X9298323Y8342388D01*
X9279946Y8350000D01*
D02*
G37*
G36*
X9179946Y8190000D02*
X9160054D01*
X9141677Y8182388D01*
X9127612Y8168323D01*
X9120000Y8149946D01*
Y8130054D01*
X9127612Y8111677D01*
X9141677Y8097612D01*
X9160054Y8090000D01*
X9179946D01*
X9198323Y8097612D01*
X9212388Y8111677D01*
X9220000Y8130054D01*
Y8149946D01*
X9212388Y8168323D01*
X9198323Y8182388D01*
X9179946Y8190000D01*
D02*
G37*
G36*
X9943440Y7980000D02*
X9921560D01*
X9901345Y7971626D01*
X9885874Y7956155D01*
X9877500Y7935940D01*
Y7914060D01*
X9885874Y7893845D01*
X9901345Y7878373D01*
X9921560Y7870000D01*
X9943440D01*
X9963655Y7878373D01*
X9979127Y7893845D01*
X9987500Y7914060D01*
Y7935940D01*
X9979127Y7956155D01*
X9963655Y7971626D01*
X9943440Y7980000D01*
D02*
G37*
G36*
X10454946Y7605000D02*
X10435054D01*
X10416677Y7597388D01*
X10402612Y7583323D01*
X10395000Y7564945D01*
Y7545054D01*
X10402612Y7526677D01*
X10416677Y7512612D01*
X10435054Y7505000D01*
X10454946D01*
X10473323Y7512612D01*
X10487388Y7526677D01*
X10495000Y7545054D01*
Y7564945D01*
X10487388Y7583323D01*
X10473323Y7597388D01*
X10454946Y7605000D01*
D02*
G37*
G36*
X9732446Y6980000D02*
X9712554D01*
X9694177Y6972388D01*
X9680112Y6958323D01*
X9672500Y6939946D01*
Y6920054D01*
X9680112Y6901677D01*
X9694177Y6887612D01*
X9712554Y6880000D01*
X9732446D01*
X9750823Y6887612D01*
X9764888Y6901677D01*
X9772500Y6920054D01*
Y6939946D01*
X9764888Y6958323D01*
X9750823Y6972388D01*
X9732446Y6980000D01*
D02*
G37*
G36*
X9789946Y6390000D02*
X9770054D01*
X9751677Y6382388D01*
X9737612Y6368323D01*
X9730000Y6349946D01*
Y6330054D01*
X9737612Y6311677D01*
X9751677Y6297612D01*
X9770054Y6290000D01*
X9789946D01*
X9808323Y6297612D01*
X9822388Y6311677D01*
X9830000Y6330054D01*
Y6349946D01*
X9822388Y6368323D01*
X9808323Y6382388D01*
X9789946Y6390000D01*
D02*
G37*
G36*
X12627728Y6480000D02*
X12592271D01*
X12557496Y6473083D01*
X12524738Y6459514D01*
X12495257Y6439815D01*
X12470185Y6414743D01*
X12450486Y6385262D01*
X12436917Y6352504D01*
X12430000Y6317729D01*
Y6282272D01*
X12436917Y6247496D01*
X12450486Y6214738D01*
X12470185Y6185257D01*
X12495257Y6160185D01*
X12524738Y6140486D01*
X12557496Y6126917D01*
X12592271Y6120000D01*
X12627728D01*
X12662504Y6126917D01*
X12695262Y6140486D01*
X12724743Y6160185D01*
X12749815Y6185257D01*
X12769514Y6214738D01*
X12783083Y6247496D01*
X12790000Y6282272D01*
Y6317729D01*
X12783083Y6352504D01*
X12769514Y6385262D01*
X12749815Y6414743D01*
X12724743Y6439815D01*
X12695262Y6459514D01*
X12662504Y6473083D01*
X12627728Y6480000D01*
D02*
G37*
%LPD*%
D49*
X9718021Y6934479D02*
X9722500Y6930000D01*
D55*
X11900000Y8930000D02*
D03*
X11392000Y9031600D02*
D03*
Y8828400D02*
D03*
D56*
X12610000Y9280000D02*
D03*
Y6300000D02*
D03*
X9230000D02*
D03*
Y9280000D02*
D03*
D57*
X11650000Y9310000D02*
D03*
X10150000Y8380000D02*
D03*
X10730000Y8880000D02*
D03*
X10360000Y8950000D02*
D03*
X10870000Y8650000D02*
D03*
Y8310000D02*
D03*
X10340000Y8830000D02*
D03*
X9170000Y8140000D02*
D03*
X9270000Y8300000D02*
D03*
X9780000Y6340000D02*
D03*
X11430000Y9350000D02*
D03*
X9649963Y8090037D02*
D03*
X10800000Y6870000D02*
D03*
X12390000Y7030000D02*
D03*
X12210000Y6990000D02*
D03*
X11920000Y7210000D02*
D03*
X12322500Y7572500D02*
D03*
X12050000Y7550000D02*
D03*
X11980000Y7400000D02*
D03*
X12430000Y8240000D02*
D03*
X11510000Y9090000D02*
D03*
X11080000Y8270000D02*
D03*
X11070000Y7520000D02*
D03*
X10760000Y7360000D02*
D03*
X10490000Y7350000D02*
D03*
X9920000Y7820000D02*
D03*
X9710000Y7350000D02*
D03*
X9810000Y7680000D02*
D03*
X9330000Y7690000D02*
D03*
X9490000Y7530000D02*
D03*
X9885000Y8505000D02*
D03*
X9080000Y8840000D02*
D03*
X9620000Y9090000D02*
D03*
Y8480000D02*
D03*
X9500000Y8400000D02*
D03*
X9100000Y8600000D02*
D03*
X10647500Y9137500D02*
D03*
X10247500Y9010000D02*
D03*
X9722500Y6930000D02*
D03*
X10445000Y7555000D02*
D03*
D58*
X10930000Y6090000D02*
D03*
D59*
X10282900Y7878300D02*
D03*
Y7768300D02*
D03*
Y8208300D02*
D03*
Y8098300D02*
D03*
Y7988300D02*
D03*
X9440000Y8815000D02*
D03*
X9550000Y8705000D02*
D03*
X9440000D02*
D03*
X9550000Y8815000D02*
D03*
X10612900Y7768300D02*
D03*
X10722900D02*
D03*
X10392900D02*
D03*
X10502900D02*
D03*
X10392900Y7878300D02*
D03*
X10502900Y7988300D02*
D03*
X10392900D02*
D03*
X10502900Y8098300D02*
D03*
Y7878300D02*
D03*
X10612900D02*
D03*
Y8098300D02*
D03*
Y7988300D02*
D03*
X10392900Y8208300D02*
D03*
Y8098300D02*
D03*
X10612900Y8208300D02*
D03*
X10502900D02*
D03*
X10722900Y7988300D02*
D03*
Y7878300D02*
D03*
Y8208300D02*
D03*
Y8098300D02*
D03*
D60*
X9932500Y7925000D02*
D03*
%TF.MD5,00f76323fe18c5045d3f3dc720e94b58*%
M02*
