%TF.GenerationSoftware,Altium Limited,Altium Designer,26.10.1 (5)*%
G04 Layer_Physical_Order=4*
G04 Layer_Color=16711680*
G04 Board_Origin=0|0*
%FSLAX45Y45*%
%MOMM*%
%TF.SameCoordinates,5047FA09-4319-4642-AD64-BF5BD6B7FE86*%
%TF.FilePolarity,Positive*%
%TF.FileFunction,Copper,L4,Bot,Signal*%
%TF.Part,Single*%
G01*
G75*
%TA.AperFunction,Conductor*%
%ADD48C,0.40000*%
%ADD50C,0.25000*%
%ADD51C,0.30000*%
%ADD52C,1.00000*%
%ADD53C,0.22000*%
%TA.AperFunction,ComponentPad*%
%ADD55C,0.99100*%
%TA.AperFunction,ViaPad*%
%ADD56C,3.20000*%
%ADD57C,0.60000*%
%ADD58C,0.80000*%
%ADD59C,0.50000*%
%ADD60C,0.70000*%
D48*
X9096568Y8213432D02*
X9170000Y8140000D01*
X9096568Y8213432D02*
Y8246568D01*
X9150000Y8300000D01*
X9270000D01*
D50*
X10830000Y8520000D02*
X10870000Y8480000D01*
X10290000Y8520000D02*
X10830000D01*
X10150000Y8380000D02*
X10290000Y8520000D01*
X10870000Y8480000D02*
Y8650000D01*
X10430000Y8880000D02*
X10730000D01*
X10360000Y8950000D02*
X10430000Y8880000D01*
X10870000Y8310000D02*
Y8480000D01*
X10647500Y9137500D02*
Y9140000D01*
X10645000Y9142500D02*
X10647500Y9140000D01*
X10645000Y9142500D02*
Y9170000D01*
X10610000Y9205000D02*
X10645000Y9170000D01*
X10292500Y9205000D02*
X10610000D01*
X10247500Y9160000D02*
X10292500Y9205000D01*
X10247500Y9010000D02*
Y9160000D01*
D51*
X11490941Y9310000D02*
X11650000D01*
X11065941Y8885000D02*
X11490941Y9310000D01*
X10915000Y8885000D02*
X11065941D01*
X10747500Y8717500D02*
X10915000Y8885000D01*
X10330000Y8717500D02*
X10747500D01*
X9872500Y8260000D02*
X10330000Y8717500D01*
X9872500Y7985000D02*
Y8260000D01*
Y7985000D02*
X9932500Y7925000D01*
D52*
X9701421Y6261421D02*
X9780000Y6340000D01*
X9701421Y6178579D02*
Y6261421D01*
Y6178579D02*
X9790000Y6090000D01*
X10930000D01*
D53*
X9722500Y6930000D02*
X9820000D01*
X10445000Y7555000D01*
D55*
X11900000Y8930000D02*
D03*
X11392000Y9031600D02*
D03*
Y8828400D02*
D03*
D56*
X12610000Y9280000D02*
D03*
Y6300000D02*
D03*
X9230000D02*
D03*
Y9280000D02*
D03*
D57*
X11650000Y9310000D02*
D03*
X10150000Y8380000D02*
D03*
X10730000Y8880000D02*
D03*
X10360000Y8950000D02*
D03*
X10870000Y8650000D02*
D03*
Y8310000D02*
D03*
X10340000Y8830000D02*
D03*
X9170000Y8140000D02*
D03*
X9270000Y8300000D02*
D03*
X9780000Y6340000D02*
D03*
X11430000Y9350000D02*
D03*
X9649963Y8090037D02*
D03*
X10800000Y6870000D02*
D03*
X12390000Y7030000D02*
D03*
X12210000Y6990000D02*
D03*
X11920000Y7210000D02*
D03*
X12322500Y7572500D02*
D03*
X12050000Y7550000D02*
D03*
X11980000Y7400000D02*
D03*
X12430000Y8240000D02*
D03*
X11510000Y9090000D02*
D03*
X11080000Y8270000D02*
D03*
X11070000Y7520000D02*
D03*
X10760000Y7360000D02*
D03*
X10490000Y7350000D02*
D03*
X9920000Y7820000D02*
D03*
X9710000Y7350000D02*
D03*
X9810000Y7680000D02*
D03*
X9330000Y7690000D02*
D03*
X9490000Y7530000D02*
D03*
X9885000Y8505000D02*
D03*
X9080000Y8840000D02*
D03*
X9620000Y9090000D02*
D03*
Y8480000D02*
D03*
X9500000Y8400000D02*
D03*
X9100000Y8600000D02*
D03*
X10647500Y9137500D02*
D03*
X10247500Y9010000D02*
D03*
X9722500Y6930000D02*
D03*
X10445000Y7555000D02*
D03*
D58*
X10930000Y6090000D02*
D03*
D59*
X10282900Y7878300D02*
D03*
Y7768300D02*
D03*
Y8208300D02*
D03*
Y8098300D02*
D03*
Y7988300D02*
D03*
X9440000Y8815000D02*
D03*
X9550000Y8705000D02*
D03*
X9440000D02*
D03*
X9550000Y8815000D02*
D03*
X10612900Y7768300D02*
D03*
X10722900D02*
D03*
X10392900D02*
D03*
X10502900D02*
D03*
X10392900Y7878300D02*
D03*
X10502900Y7988300D02*
D03*
X10392900D02*
D03*
X10502900Y8098300D02*
D03*
Y7878300D02*
D03*
X10612900D02*
D03*
Y8098300D02*
D03*
Y7988300D02*
D03*
X10392900Y8208300D02*
D03*
Y8098300D02*
D03*
X10612900Y8208300D02*
D03*
X10502900D02*
D03*
X10722900Y7988300D02*
D03*
Y7878300D02*
D03*
Y8208300D02*
D03*
Y8098300D02*
D03*
D60*
X9932500Y7925000D02*
D03*
%TF.MD5,034b830075294b8a35d9dceae51648dd*%
M02*
